<?xml version="1.0" encoding="UTF-8"?>
<!DOCTYPE svg PUBLIC "-//W3C//DTD SVG 1.1//EN" "http://www.w3.org/Graphics/SVG/1.1/DTD/svg11.dtd">
<svg version="1.1" xmlns="http://www.w3.org/2000/svg" xmlns:xlink="http://www.w3.org/1999/xlink" width="100%" height="100%" viewBox="0, 0, 950, 950">
  <g id="Add" transform="translate(-37, -37)">
    <path d="M927.625,363.562 L660.438,363.562 L660.438,96.375 C660.438,63.6 633.838,37 601.062,37 L422.938,37 C390.163,37 363.562,63.6 363.562,96.375 L363.562,363.562 L96.375,363.562 C63.6,363.562 37,390.163 37,422.938 L37,601.062 C37,633.838 63.6,660.438 96.375,660.438 L363.562,660.438 L363.562,927.625 C363.562,960.4 390.163,987 422.938,987 L601.062,987 C633.838,987 660.438,960.4 660.438,927.625 L660.438,660.438 L927.625,660.438 C960.4,660.438 987,633.838 987,601.062 L987,422.938 C987,390.163 960.4,363.562 927.625,363.562" fill="#000000"/>
  </g>
</svg>
