<?xml version="1.0" encoding="UTF-8" standalone="no"?>
<!DOCTYPE svg PUBLIC "-//W3C//DTD SVG 1.1//EN" "http://www.w3.org/Graphics/SVG/1.1/DTD/svg11.dtd">
<svg width="100%" height="100%" viewBox="0 0 16 16" version="1.1" xmlns="http://www.w3.org/2000/svg" xmlns:xlink="http://www.w3.org/1999/xlink" xml:space="preserve" xmlns:serif="http://www.serif.com/" style="fill-rule:evenodd;clip-rule:evenodd;stroke-linejoin:round;stroke-miterlimit:2;">
    <g id="adminPerformanceDashboard">
        <g transform="matrix(1.17515,0,0,1.17515,-0.819367,-0.87841)">
            <path d="M10.294,4L11,4.707L8.85,6.857C8.949,7.062 9,7.287 9,7.514C9,8.345 8.317,9.028 7.486,9.028C6.655,9.028 5.972,8.345 5.972,7.514C5.972,6.683 6.655,6 7.486,6C7.713,6 7.938,6.051 8.143,6.15L10.293,4L10.294,4ZM7.221,7.916C7.303,7.971 7.4,8 7.499,8C7.773,8 7.999,7.774 7.999,7.5C7.999,7.333 7.916,7.177 7.777,7.084C7.695,7.029 7.598,7 7.499,7C7.225,7 6.999,7.226 6.999,7.5C6.999,7.667 7.082,7.823 7.221,7.916ZM11.507,5.467L10.744,6.23C10.91,6.633 10.997,7.064 10.999,7.5C10.996,8.127 10.823,8.741 10.499,9.277L11.234,10.012C12.145,8.662 12.25,6.917 11.508,5.467L11.507,5.467ZM8.733,4.242C8.341,4.085 7.923,4.003 7.5,4C5.58,4 4,5.58 4,7.5C4.003,8.127 4.176,8.741 4.5,9.277L3.766,10.012C3.269,9.271 3.004,8.398 3.004,7.506C3.004,5.037 5.035,3.006 7.504,3.006C8.196,3.006 8.879,3.166 9.5,3.473L8.733,4.242Z"/>
        </g>
        <g transform="matrix(0.015625,0,0,0.015625,0,0)">
            <path d="M511.715,1.595C793.976,1.595 1023.13,230.755 1023.13,513.016C1023.13,795.277 793.976,1024.44 511.715,1024.44C229.454,1024.44 0.294,795.277 0.294,513.016C0.294,230.755 229.454,1.595 511.715,1.595ZM511.715,65.19C758.877,65.19 959.541,265.854 959.541,513.016C959.541,760.178 758.877,960.842 511.715,960.842C264.553,960.842 63.889,760.178 63.889,513.016C63.889,265.854 264.553,65.19 511.715,65.19Z"/>
        </g>
    </g>
</svg>
