<?xml version="1.0" encoding="UTF-8" standalone="no"?>
<!DOCTYPE svg PUBLIC "-//W3C//DTD SVG 1.1//EN" "http://www.w3.org/Graphics/SVG/1.1/DTD/svg11.dtd">
<svg width="100%" height="100%" viewBox="0 0 16 16" version="1.1" xmlns="http://www.w3.org/2000/svg" xmlns:xlink="http://www.w3.org/1999/xlink" xml:space="preserve" xmlns:serif="http://www.serif.com/" style="fill-rule:evenodd;clip-rule:evenodd;stroke-linejoin:round;stroke-miterlimit:2;">
    <g id="serverStatus">
        <g transform="matrix(1,0,0,1,2,-3)">
            <path d="M9,5L9,17L3,17L3,5M9,4L3,4C2.451,4 2,4.451 2,5L2,17C2,17.549 2.451,18 3,18L9,18C9.549,18 10,17.549 10,17L10,5C10,4.451 9.549,4 9,4Z"/>
        </g>
        <g transform="matrix(1.2491,0,0,1.2491,-3.2214,-9.20624)">
            <circle cx="8.992" cy="10.839" r="1.47"/>
        </g>
        <g transform="matrix(1.2491,0,0,1.2491,-3.2214,-5.50624)">
            <circle cx="8.992" cy="10.839" r="1.47"/>
        </g>
        <g transform="matrix(1.2491,0,0,1.2491,-3.2214,-1.80624)">
            <circle cx="8.992" cy="10.839" r="1.47"/>
        </g>
    </g>
</svg>
