<?xml version="1.0" encoding="UTF-8" standalone="no"?>
<!DOCTYPE svg PUBLIC "-//W3C//DTD SVG 1.1//EN" "http://www.w3.org/Graphics/SVG/1.1/DTD/svg11.dtd">
<svg width="100%" height="100%" viewBox="0 0 16 16" version="1.1" xmlns="http://www.w3.org/2000/svg" xmlns:xlink="http://www.w3.org/1999/xlink" xml:space="preserve" xmlns:serif="http://www.serif.com/" style="fill-rule:evenodd;clip-rule:evenodd;stroke-linejoin:round;stroke-miterlimit:2;">
    <g id="chatOptions">
        <g id="comment-discussion">
            <path d="M4,11.29L5.386,9.935L5.386,11.355L3.85,12.85L3,12.5L3,10L1.5,10L1,9.5L1,1.5L1.5,1L9,1L9,2L2,2L2,9L3.5,9L4,9.5L4,11.29ZM10.29,14L12.15,15.85L13,15.5L13,14L14.5,14L15,13.5L15,8.5L14.5,8L6.5,8L6,8.5L6,13.5L6.5,14L10.29,14ZM10.5,13L7,13L7,9L14,9L14,13L12.5,13L12,13.5L12,14.29L10.85,13.15L10.5,13Z"/>
        </g>
        <g id="Gear" transform="matrix(0.444066,0,0,0.444066,8.44748,-0.00444748)">
            <g transform="matrix(1,0,0,1,-25,0)">
                <path d="M27.477,5.314C27.437,5.375 27.292,5.452 27.218,5.452L25.357,5.434C24.905,5.434 24.452,5.755 24.304,6.18C24.304,6.18 24.222,6.413 24.132,6.77C24.042,7.127 24.004,7.371 24.004,7.371C23.934,7.822 24.185,8.321 24.588,8.532L26.229,9.392C26.292,9.425 26.385,9.564 26.395,9.665L26.488,10.3C26.503,10.37 26.455,10.53 26.404,10.58L25.082,11.876C24.751,12.2 24.664,12.754 24.892,13.189L25.491,14.189C25.744,14.561 26.292,14.751 26.722,14.617L28.546,14.059C28.645,14.059 28.744,14.097 28.8,14.142L29.315,14.522C29.375,14.562 29.454,14.709 29.453,14.781L29.435,16.633C29.431,17.089 29.751,17.546 30.181,17.696C30.181,17.696 30.414,17.778 30.771,17.868C31.128,17.958 31.372,17.996 31.372,17.996C31.398,18 31.502,18.008 31.528,18.008C31.936,18.008 32.35,17.763 32.533,17.412L33.393,15.771C33.426,15.708 33.565,15.615 33.666,15.605L34.329,15.509C34.429,15.509 34.547,15.561 34.58,15.595L35.876,16.917C36.191,17.239 36.722,17.354 37.189,17.107L38.188,16.508C38.57,16.248 38.755,15.718 38.617,15.277L38.065,13.51C38.044,13.442 38.077,13.278 38.143,13.199L38.523,12.684C38.563,12.623 38.708,12.546 38.782,12.546L40.643,12.564C41.095,12.564 41.548,12.243 41.696,11.818C41.696,11.818 41.778,11.585 41.868,11.228C41.958,10.871 41.996,10.627 41.996,10.627C42.066,10.176 41.815,9.677 41.412,9.466L39.771,8.606C39.708,8.573 39.615,8.434 39.605,8.333L39.513,7.7C39.498,7.63 39.546,7.47 39.597,7.42L40.919,6.124C41.25,5.8 41.337,5.246 41.109,4.811L40.51,3.811C40.257,3.44 39.71,3.248 39.279,3.382L37.454,3.94C37.355,3.94 37.256,3.902 37.2,3.857L36.685,3.477C36.625,3.437 36.546,3.29 36.547,3.218L36.565,1.366C36.569,0.91 36.249,0.453 35.819,0.303C35.819,0.303 35.586,0.221 35.229,0.131C34.872,0.041 34.628,0.003 34.628,0.003C34.602,0 34.498,-0.008 34.472,-0.008C34.064,-0.008 33.65,0.237 33.467,0.588L32.607,2.229C32.574,2.292 32.435,2.385 32.334,2.395L31.671,2.49C31.571,2.49 31.453,2.438 31.42,2.404L30.124,1.082C29.81,0.761 29.28,0.645 28.811,0.892L27.811,1.49C27.429,1.75 27.244,2.28 27.382,2.721L27.934,4.488C27.955,4.556 27.922,4.72 27.856,4.799L27.477,5.314ZM29.051,6.421L29.341,6.028C29.567,5.76 29.655,5.324 29.55,4.991L29.085,3.501C29.081,3.477 29.099,3.424 29.095,3.423L29.895,2.944L29.99,2.959L31.084,4.074C31.278,4.271 31.598,4.4 31.898,4.4C31.968,4.4 32.034,4.393 32.071,4.383L32.556,4.312C32.903,4.281 33.273,4.035 33.435,3.726L34.16,2.343C34.174,2.322 34.227,2.291 34.261,2.291C34.271,2.292 34.443,2.321 34.694,2.383C34.945,2.447 35.11,2.503 35.118,2.507C35.144,2.517 35.182,2.572 35.183,2.599L35.168,4.162C35.165,4.511 35.375,4.903 35.646,5.08L36.039,5.37C36.299,5.59 36.746,5.683 37.075,5.579L38.572,5.113C38.607,5.113 38.647,5.135 38.642,5.124L39.121,5.924C39.13,5.946 39.121,6.001 39.107,6.019L37.992,7.113C37.743,7.359 37.614,7.784 37.682,8.099L37.753,8.584C37.783,8.932 38.03,9.302 38.339,9.464L39.723,10.189C39.746,10.204 39.776,10.263 39.774,10.29C39.773,10.299 39.745,10.472 39.682,10.723C39.619,10.973 39.562,11.139 39.559,11.146C39.548,11.173 39.493,11.211 39.466,11.212L37.895,11.197C37.549,11.197 37.161,11.407 36.985,11.675L36.697,12.068C36.471,12.335 36.383,12.771 36.488,13.104L36.952,14.594C36.957,14.617 36.938,14.671 36.942,14.672L36.142,15.151L36.047,15.137L34.953,14.021C34.759,13.824 34.439,13.696 34.139,13.696C34.07,13.696 34.003,13.702 33.967,13.712L33.482,13.783C33.134,13.814 32.764,14.06 32.602,14.369L31.877,15.752C31.864,15.773 31.811,15.804 31.776,15.804C31.767,15.803 31.595,15.774 31.343,15.712C31.093,15.649 30.928,15.592 30.92,15.589C30.894,15.578 30.856,15.523 30.854,15.496L30.869,13.934C30.873,13.584 30.663,13.192 30.391,13.015L29.999,12.726C29.811,12.567 29.536,12.473 29.261,12.473C29.154,12.473 29.053,12.488 28.961,12.516L27.465,12.982C27.428,12.982 27.389,12.963 27.395,12.971L26.915,12.171C26.906,12.149 26.915,12.094 26.93,12.076L28.045,10.982C28.294,10.736 28.423,10.311 28.355,9.996L28.284,9.512C28.253,9.164 28.007,8.794 27.697,8.632L26.314,7.907C26.29,7.892 26.261,7.833 26.263,7.806C26.263,7.797 26.292,7.624 26.355,7.373C26.418,7.123 26.474,6.957 26.478,6.95C26.489,6.923 26.543,6.886 26.57,6.884L28.141,6.899C28.488,6.899 28.876,6.689 29.051,6.421Z" style="fill-rule:nonzero;"/>
            </g>
            <g transform="matrix(0.74858,0,0,0.74858,-16.7032,2.26278)">
                <path d="M33,12C34.654,12 36,10.654 36,9C36,7.346 34.654,6 33,6C31.346,6 30,7.346 30,9C30,10.654 31.346,12 33,12ZM32.983,7.536C33.812,7.536 34.487,8.211 34.487,9.04C34.487,9.87 33.812,10.544 32.983,10.544C32.153,10.544 31.479,9.87 31.479,9.04C31.479,8.211 32.153,7.536 32.983,7.536Z" style="fill-rule:nonzero;"/>
            </g>
        </g>
    </g>
</svg>
