<?xml version="1.0" encoding="UTF-8"?>
<!DOCTYPE svg PUBLIC "-//W3C//DTD SVG 1.1//EN" "http://www.w3.org/Graphics/SVG/1.1/DTD/svg11.dtd">
<svg version="1.1" xmlns="http://www.w3.org/2000/svg" xmlns:xlink="http://www.w3.org/1999/xlink" width="100%" height="100%" viewBox="0, 0, 1024, 1024">
  <g id="Clone">
    <path d="M361.167,278.5 C406.981,278.6 452.547,291.996 490.577,317.688 C474.319,332.265 459.453,348.608 447.485,366.921 C421.571,351.018 391.394,343.549 361.167,343.167 C267.923,343.167 192.333,418.756 192.333,512 C192.333,605.244 267.923,680.833 361.167,680.833 C391.487,680.747 421.751,672.715 447.716,656.939 C459.732,675.236 474.601,691.431 490.577,706.312 C452.552,732.36 406.973,744.92 361.167,745.5 C232.208,745.5 127.667,640.958 127.667,512 C127.667,383.042 232.208,278.5 361.167,278.5 L361.167,278.5 z" fill="#000000"/>
    <path d="M662.5,745.5 C533.542,745.5 429,640.958 429,512 C429,383.041 533.542,278.5 662.5,278.5 C791.458,278.5 896,383.041 896,512 C896,640.958 791.458,745.5 662.5,745.5 z" fill="#000000"/>
  </g>
</svg>
