<?xml version="1.0" encoding="UTF-8"?>
<!DOCTYPE svg PUBLIC "-//W3C//DTD SVG 1.1//EN" "http://www.w3.org/Graphics/SVG/1.1/DTD/svg11.dtd">
<svg version="1.1" xmlns="http://www.w3.org/2000/svg" xmlns:xlink="http://www.w3.org/1999/xlink" width="100%" height="100%" viewBox="0, 0, 522.85, 522.85">
  <g id="Close" transform="translate(-250.575, -250.575)">
    <g>
      <g>
        <path d="M304.931,256.848 L768.152,720.069 C776.921,728.838 773.265,746.71 759.987,759.987 L759.987,759.987 C746.71,773.265 728.838,776.921 720.069,768.152 L256.848,304.931 C248.079,296.162 251.735,278.29 265.013,265.013 L265.013,265.013 C278.29,251.735 296.162,248.079 304.931,256.848 z" fill="#000000"/>
        <path d="M304.931,256.848 L768.152,720.069 C776.921,728.838 773.265,746.71 759.987,759.987 L759.987,759.987 C746.71,773.265 728.838,776.921 720.069,768.152 L256.848,304.931 C248.079,296.162 251.735,278.29 265.013,265.013 L265.013,265.013 C278.29,251.735 296.162,248.079 304.931,256.848 z" fill-opacity="0" stroke="#000000" stroke-width="1"/>
      </g>
      <g>
        <path d="M768.152,304.931 L304.931,768.152 C296.162,776.921 278.29,773.265 265.013,759.987 L265.013,759.987 C251.735,746.71 248.079,728.838 256.848,720.069 L720.069,256.848 C728.838,248.079 746.71,251.735 759.987,265.013 L759.987,265.013 C773.265,278.29 776.921,296.162 768.152,304.931 z" fill="#000000"/>
        <path d="M768.152,304.931 L304.931,768.152 C296.162,776.921 278.29,773.265 265.013,759.987 L265.013,759.987 C251.735,746.71 248.079,728.838 256.848,720.069 L720.069,256.848 C728.838,248.079 746.71,251.735 759.987,265.013 L759.987,265.013 C773.265,278.29 776.921,296.162 768.152,304.931 z" fill-opacity="0" stroke="#000000" stroke-width="1"/>
      </g>
    </g>
  </g>
</svg>
