<?xml version="1.0" encoding="UTF-8"?>
<!DOCTYPE svg PUBLIC "-//W3C//DTD SVG 1.1//EN" "http://www.w3.org/Graphics/SVG/1.1/DTD/svg11.dtd">
<svg version="1.1" xmlns="http://www.w3.org/2000/svg" xmlns:xlink="http://www.w3.org/1999/xlink" width="100%" height="100%" viewBox="0, 0, 1024, 1024">
  <g id="connections.svg" transform="translate(0, 0)">
    <path d="M512.5,672.5 C424.134,672.5 352.5,600.866 352.5,512.5 C352.5,424.134 424.134,352.5 512.5,352.5 C600.866,352.5 672.5,424.134 672.5,512.5 C672.5,600.866 600.866,672.5 512.5,672.5 z" fill-opacity="0" stroke="#000000" stroke-width="50"/>
    <path d="M174.5,254 C135.012,254 103,221.988 103,182.5 C103,143.012 135.012,111 174.5,111 C213.988,111 246,143.012 246,182.5 C246,221.988 213.988,254 174.5,254 z" fill="#000000"/>
    <path d="M126.5,701 C87.012,701 55,668.988 55,629.5 C55,590.012 87.012,558 126.5,558 C165.988,558 198,590.012 198,629.5 C198,668.988 165.988,701 126.5,701 z" fill="#000000"/>
    <path d="M845.5,216 C806.012,216 774,183.988 774,144.5 C774,105.012 806.012,73 845.5,73 C884.988,73 917,105.012 917,144.5 C917,183.988 884.988,216 845.5,216 z" fill="#000000"/>
    <path d="M838.5,939 C799.012,939 767,906.988 767,867.5 C767,828.012 799.012,796 838.5,796 C877.988,796 910,828.012 910,867.5 C910,906.988 877.988,939 838.5,939 z" fill="#000000"/>
    <path d="M246.5,241.5 L374.5,369.5" fill-opacity="0" stroke="#000000" stroke-width="25" stroke-dasharray="75,50"/>
    <path d="M641.5,662.5 L767.5,788.5" fill-opacity="0" stroke="#000000" stroke-width="25" stroke-dasharray="75,50"/>
    <path d="M653.5,369.5 L797.5,216.5" fill-opacity="0" stroke="#000000" stroke-width="25" stroke-dasharray="75,50"/>
    <path d="M229.5,602.5 L327.5,576.5" fill-opacity="0" stroke="#000000" stroke-width="25" stroke-dasharray="75,50"/>
  </g>
</svg>
