<?xml version="1.0" encoding="UTF-8" standalone="no"?>
<!DOCTYPE svg PUBLIC "-//W3C//DTD SVG 1.1//EN" "http://www.w3.org/Graphics/SVG/1.1/DTD/svg11.dtd">
<svg width="100%" height="100%" viewBox="0 0 66 56" version="1.1" xmlns="http://www.w3.org/2000/svg" xmlns:xlink="http://www.w3.org/1999/xlink" xml:space="preserve" xmlns:serif="http://www.serif.com/" style="fill-rule:evenodd;clip-rule:evenodd;stroke-linejoin:round;stroke-miterlimit:2;">
    <g id="Layer1" transform="matrix(1,0,0,1,-1504.96,-1757)">
        <g transform="matrix(1,0,0,1,1071,0)">
            <path d="M444.495,1811.11C438.163,1809.89 434.004,1807.83 434,1805.51L434,1763.77C434,1760.03 444.731,1757 457.969,1757C470.652,1757 481.031,1759.78 481.884,1763.3C481.962,1763.53 482,1763.75 482,1763.98C482,1764.15 481.979,1764.31 481.938,1764.48L481.938,1774.78L478.514,1773.41L478.514,1767.5C474.306,1769.45 466.708,1770.76 458.031,1770.76C449.268,1770.76 441.605,1769.43 437.424,1767.44L437.424,1776.98C437.476,1777.02 437.975,1777.37 438.26,1777.55C438.732,1777.83 439.311,1778.14 439.855,1778.35C442.943,1779.54 447.466,1780.38 452.7,1780.73L452,1781L445.974,1783.41C442.464,1782.84 439.516,1782.02 437.424,1781.03L437.424,1790.9C437.476,1790.94 437.975,1791.29 438.26,1791.46C438.683,1791.72 439.192,1792 439.686,1792.2L439.189,1795.67C438.548,1795.45 437.958,1795.21 437.424,1794.96L437.424,1804.94C437.476,1804.98 437.975,1805.33 438.26,1805.5C438.732,1805.79 439.311,1806.1 439.855,1806.31C440.013,1806.37 440.174,1806.43 440.339,1806.49L444.495,1811.11ZM477.535,1763.86C477.107,1763.61 476.614,1763.36 476.145,1763.17C472.063,1761.6 465.465,1760.63 458.031,1760.63C450.597,1760.63 443.999,1761.6 439.917,1763.17C439.427,1763.36 438.907,1763.64 438.465,1763.89C438.893,1764.14 439.386,1764.4 439.855,1764.58C443.94,1766.15 450.535,1767.12 457.969,1767.12C465.403,1767.12 472.001,1766.15 476.083,1764.58C476.576,1764.39 477.093,1764.12 477.535,1763.86Z"/>
        </g>
        <g transform="matrix(4.28331,0,0,4.28331,1506.7,1761.07)">
            <path d="M11.957,6L12.007,6C12.801,6 13.563,6.317 14.123,6.879C15.285,8.043 15.285,9.957 14.123,11.121C13.562,11.683 12.8,12 12.006,12L12.006,11.987L12,12L4.523,12C3.522,12.009 2.563,11.586 1.895,10.84C1.319,10.198 1,9.364 1,8.501C1,6.824 2.205,5.371 3.853,5.06C4.34,4.968 4.84,4.982 5.321,5.1C5.942,3.678 7.44,2.834 8.978,3.04C10.517,3.248 11.739,4.462 11.957,6ZM4.523,11L12.01,11C13.103,10.999 14.002,10.099 14.002,9.006C14.002,9.004 14.002,9.002 14.002,9C14.001,7.905 13.101,7.003 12.006,7L11.092,7L10.969,6.143C10.815,5.043 9.943,4.173 8.843,4.021C7.742,3.871 6.669,4.479 6.231,5.5L5.898,6.262L5.089,6.073C4.904,6.027 4.714,6.003 4.523,6C3.861,6 3.226,6.263 2.759,6.732C2.293,7.201 2.031,7.836 2.031,8.497C2.031,9.866 3.154,10.994 4.523,11Z"/>
        </g>
    </g>
    <g id="Disabled">
    </g>
</svg>
