<?xml version="1.0" encoding="UTF-8"?>
<!DOCTYPE svg PUBLIC "-//W3C//DTD SVG 1.1//EN" "http://www.w3.org/Graphics/SVG/1.1/DTD/svg11.dtd">
<svg version="1.1" xmlns="http://www.w3.org/2000/svg" xmlns:xlink="http://www.w3.org/1999/xlink" width="100%" height="100%" viewBox="0, 0, 96, 96">
  <defs>
    <clipPath id="Clip_1">
      <path d="M78,64.985 L50,64.985 L50,60 L36,60 L36,64.985 L8,64.985 L8,17 L44,17 L44,50 L78,50.025 L78,64.985 z"/>
    </clipPath>
  </defs>
  <g id="WS-Debugger">
    <g id="Bug">
      <path d="M85.058,23.95 C85.058,34.948 78.719,43.864 70.898,43.864 C63.078,43.864 56.738,34.948 56.738,23.95 C56.738,12.952 63.078,4.036 70.898,4.036 C78.719,4.036 85.058,12.952 85.058,23.95 z" fill-opacity="0" stroke="#000000" stroke-width="3.854"/>
      <path d="M84.144,15.205 L90.871,10.49" fill-opacity="0" stroke="#000000" stroke-width="3.854"/>
      <path d="M57.529,15.205 L50.802,10.49" fill-opacity="0" stroke="#000000" stroke-width="3.854"/>
      <path d="M82.287,36.874 L90.871,43.447" fill-opacity="0" stroke="#000000" stroke-width="3.854"/>
      <path d="M59.386,36.874 L50.802,43.447" fill-opacity="0" stroke="#000000" stroke-width="3.854"/>
      <path d="M84.802,18.96 L56.992,18.96" fill-opacity="0" stroke="#000000" stroke-width="3.854"/>
      <path d="M56.61,26.975 L48.424,26.975" fill-opacity="0" stroke="#000000" stroke-width="3.854"/>
      <path d="M93.576,26.975 L85.39,26.975" fill-opacity="0" stroke="#000000" stroke-width="3.854"/>
    </g>
    <g id="Server">
      <path d="M64,82 C64,83.657 62.657,85 61,85 C59.343,85 58,83.657 58,82 C58,80.343 59.343,79 61,79 C62.657,79 64,80.343 64,82 z" fill="#000000"/>
      <path d="M72,82 C72,83.657 70.657,85 69,85 C67.343,85 66,83.657 66,82 C66,80.343 67.343,79 69,79 C70.657,79 72,80.343 72,82 z" fill="#000000"/>
      <path d="M80,82 C80,83.657 78.657,85 77,85 C75.343,85 74,83.657 74,82 C74,80.343 75.343,79 77,79 C78.657,79 80,80.343 80,82 z" fill="#000000"/>
      <path d="M35.875,74.333 L8,74.333 L8,90.333 L90.243,90.333 L90.243,74.333 L50.25,74.333" fill-opacity="0" stroke="#000000" stroke-width="2"/>
    </g>
    <g id="Arrow">
      <path d="M48.975,56.828 L42.975,50.828 L36.975,56.828" fill-opacity="0" stroke="#000000" stroke-width="4" stroke-miterlimit="10"/>
      <path d="M48.975,77.172 L42.975,83.172 L36.975,77.172" fill-opacity="0" stroke="#000000" stroke-width="4" stroke-miterlimit="10"/>
      <path d="M42.975,50.828 L42.975,83.172" fill-opacity="0" stroke="#000000" stroke-width="4" stroke-miterlimit="10"/>
    </g>
    <g clip-path="url(#Clip_1)" id="App">
      <path d="M20.5,25 C20.5,26.657 19.157,28 17.5,28 C15.843,28 14.5,26.657 14.5,25 C14.5,23.343 15.843,22 17.5,22 C19.157,22 20.5,23.343 20.5,25 z" fill="#000000"/>
      <path d="M28.5,25 C28.5,26.657 27.157,28 25.5,28 C23.843,28 22.5,26.657 22.5,25 C22.5,23.343 23.843,22 25.5,22 C27.157,22 28.5,23.343 28.5,25 z" fill="#000000"/>
      <path d="M36.5,25 C36.5,26.657 35.157,28 33.5,28 C31.843,28 30.5,26.657 30.5,25 C30.5,23.343 31.843,22 33.5,22 C35.157,22 36.5,23.343 36.5,25 z" fill="#000000"/>
      <path d="M12,31 L74,31" fill-opacity="0" stroke="#000000" stroke-width="4"/>
      <path d="M70.802,17 C74.775,17 78,20.225 78,24.198 L78,57.787 C78,61.76 74.775,64.985 70.802,64.985 L15.198,64.985 C11.225,64.985 8,61.76 8,57.787 L8,24.198 C8,20.225 11.225,17 15.198,17 L70.802,17 z M70.802,21 L15.198,21 C13.433,21 12,22.433 12,24.198 C12,24.198 12,57.787 12,57.787 C12,59.552 13.433,60.985 15.198,60.985 L70.802,60.985 C72.567,60.985 74,59.552 74,57.787 L74,24.198 C74,22.433 72.567,21 70.802,21 z" fill="#000000"/>
    </g>
  </g>
</svg>
