<?xml version="1.0" encoding="UTF-8"?>
<!DOCTYPE svg PUBLIC "-//W3C//DTD SVG 1.1//EN" "http://www.w3.org/Graphics/SVG/1.1/DTD/svg11.dtd">
<svg version="1.1" xmlns="http://www.w3.org/2000/svg" xmlns:xlink="http://www.w3.org/1999/xlink" width="100%" height="100%" viewBox="0, 0, 1024, 1024">
  <g id="disconnected.svg" transform="translate(0, 0)">
    <path d="M461,517.5 C479.5,535.5 507.472,557.833 510,559.5 C463.428,610.632 467.167,661.488 466.61,728.559 C466.61,823.239 389.849,900 295.168,900 C200.488,900 123.727,823.239 123.727,728.559 C123.727,633.874 200.488,557.117 295.168,557.117 C360.417,556.873 410.652,562.076 461,517.5 z M295.168,632.399 C242.063,632.399 199.004,675.453 199.004,728.563 C199.004,781.669 242.063,824.723 295.168,824.723 C348.274,824.723 391.332,781.669 391.332,728.563 C391.332,675.453 348.274,632.399 295.168,632.399 z" fill="#000000"/>
    <path d="M728.559,123.727 C823.239,123.727 900,200.483 900,295.168 C900,389.849 823.239,466.61 728.559,466.61 C643,473.333 580.559,484.491 571.5,490 L522.333,449 C551,396.333 556.637,352.971 557.117,295.168 C557.117,200.483 633.874,123.727 728.559,123.727 z M728.559,199.004 C675.453,199.004 632.395,242.058 632.395,295.168 C632.395,348.274 675.453,391.332 728.559,391.332 C781.664,391.332 824.723,348.274 824.723,295.168 C824.723,242.058 781.664,199.004 728.559,199.004 z" fill="#000000"/>
  </g>
</svg>
