<?xml version="1.0" encoding="UTF-8" standalone="no"?>
<!DOCTYPE svg PUBLIC "-//W3C//DTD SVG 1.1//EN" "http://www.w3.org/Graphics/SVG/1.1/DTD/svg11.dtd">
<svg width="100%" height="100%" viewBox="0 0 16 16" version="1.1" xmlns="http://www.w3.org/2000/svg" xmlns:xlink="http://www.w3.org/1999/xlink" xml:space="preserve" xmlns:serif="http://www.serif.com/" style="fill-rule:evenodd;clip-rule:evenodd;stroke-linejoin:round;stroke-miterlimit:2;">
    <g id="Layer3">
    </g>
    <g id="docs">
        <path d="M14.5,2L9,2L8.65,2.15L8,2.79L7.35,2.15L7,2L1.5,2L1,2.5L1,12.5L1.5,13L6.79,13L7.65,13.85L8.35,13.85L9.21,13L14.5,13L15,12.5L15,2.5L14.5,2ZM7.5,12.32L7.32,12.15L7,12L2,12L2,3L6.79,3L7.53,3.74L7.5,12.32ZM14,12L9,12L8.65,12.15L8.51,12.28L8.51,3.7L9.21,3L14,3L14,12ZM6,5L3,5L3,6L6,6L6,5ZM6,9L3,9L3,10L6,10L6,9ZM3,7L6,7L6,8L3,8L3,7ZM13,5L10,5L10,6L13,6L13,5ZM10,7L13,7L13,8L10,8L10,7ZM10,9L13,9L13,10L10,10L10,9Z"/>
    </g>
</svg>
