<?xml version="1.0" encoding="UTF-8" standalone="no"?>
<!DOCTYPE svg PUBLIC "-//W3C//DTD SVG 1.1//EN" "http://www.w3.org/Graphics/SVG/1.1/DTD/svg11.dtd">
<svg width="100%" height="100%" viewBox="0 0 16 16" version="1.1" xmlns="http://www.w3.org/2000/svg" xmlns:xlink="http://www.w3.org/1999/xlink" xml:space="preserve" xmlns:serif="http://www.serif.com/" style="fill-rule:evenodd;clip-rule:evenodd;stroke-linejoin:round;stroke-miterlimit:2;">
    <g id="ensurePrivileges">
        <path d="M12.976,9.028C12.987,9.181 12.992,9.336 12.992,9.493C12.992,11.467 12.096,13.246 10.719,14.454C10.719,14.467 10.706,14.467 10.693,14.48C10.576,14.571 10.446,14.662 10.329,14.753C10.264,14.792 10.212,14.844 10.147,14.883C9.074,15.611 7.806,16 6.509,16C5.212,16 3.945,15.611 2.871,14.883C2.806,14.831 2.754,14.779 2.689,14.74C2.559,14.649 2.443,14.558 2.326,14.467C2.326,14.454 2.313,14.454 2.3,14.441C0.896,13.247 0,11.467 0,9.493C0,5.908 2.91,2.999 6.496,2.999C7.475,2.999 8.403,3.215 9.236,3.603L8.832,4.479C8.128,4.168 7.338,3.997 6.496,3.997C3.365,3.997 0.962,6.363 0.962,9.493C0.962,11.051 1.485,12.293 2.512,13.333C2.506,13.34 2.47,13.452 2.482,13.428C2.491,13.396 2.501,13.364 2.512,13.333C2.636,12.96 2.814,12.607 3.04,12.286C3.287,11.948 3.586,11.636 3.924,11.376C4.184,11.174 4.468,11.004 4.768,10.869C4.625,10.778 4.495,10.675 4.378,10.558C4.184,10.363 4.002,10.155 3.872,9.921C3.729,9.688 3.625,9.441 3.547,9.168C3.469,8.908 3.43,8.635 3.43,8.349C3.426,7.94 3.506,7.533 3.664,7.155C3.817,6.792 4.037,6.461 4.313,6.181C4.59,5.897 4.922,5.671 5.288,5.518C5.666,5.36 6.073,5.28 6.483,5.284C6.893,5.28 7.3,5.359 7.678,5.518C8.041,5.671 8.372,5.891 8.653,6.168C8.934,6.447 9.159,6.778 9.315,7.142C9.474,7.52 9.553,7.927 9.549,8.336C9.557,8.89 9.408,9.435 9.121,9.908C8.978,10.14 8.808,10.354 8.614,10.545C8.5,10.662 8.373,10.766 8.237,10.856C8.537,10.988 8.82,11.154 9.082,11.35C9.424,11.608 9.722,11.919 9.965,12.273C10.189,12.597 10.367,12.951 10.494,13.324C10.499,13.338 10.503,13.352 10.508,13.365C10.503,13.346 10.498,13.327 10.496,13.322C11.549,12.264 12.032,10.987 12.034,9.493C12.034,9.333 12.027,9.176 12.015,9.02L12.976,9.028ZM4.498,9.172C4.602,9.432 4.758,9.667 4.955,9.864C5.156,10.062 5.39,10.221 5.647,10.334C6.187,10.556 6.792,10.556 7.332,10.334C7.589,10.221 7.824,10.062 8.024,9.864C8.221,9.664 8.381,9.429 8.494,9.172C8.611,8.911 8.664,8.637 8.664,8.336C8.664,8.05 8.611,7.762 8.494,7.501C8.376,7.24 8.22,7.005 8.024,6.809C7.828,6.614 7.593,6.457 7.332,6.34C7.071,6.222 6.796,6.17 6.496,6.17C6.209,6.17 5.922,6.222 5.66,6.34C5.399,6.457 5.164,6.613 4.968,6.809C4.773,7.005 4.616,7.24 4.498,7.501C4.381,7.762 4.329,8.05 4.329,8.336C4.325,8.624 4.383,8.909 4.498,9.172ZM6.496,15.024C7.668,15.022 8.804,14.705 9.763,14.03C9.724,13.771 9.666,13.636 9.575,13.402C9.406,13 9.173,12.649 8.874,12.35C8.235,11.736 7.381,11.396 6.496,11.402C6.198,11.402 5.901,11.441 5.613,11.519C5.327,11.597 5.067,11.701 4.82,11.844C4.586,11.987 4.352,12.168 4.158,12.363C3.95,12.558 3.781,12.779 3.638,13.026C3.491,13.279 3.377,13.549 3.3,13.831C3.274,13.935 3.263,13.925 3.25,14.029C4.173,14.678 5.275,15.024 6.496,15.024Z"/>
        <g transform="matrix(0.60154,0,0,0.582877,8.17998,-0.165754)">
            <path d="M3,8L3.933,7.144L11.933,7.144L13,8L13,13L12,14L4,14L3,13L3,8ZM4.655,8.851L4.672,12.309L11.338,12.318L11.337,8.877L4.655,8.851ZM11.353,5.429L11.33,3.294C11.33,1.648 9.646,0.284 8,0.284C6.354,0.284 4.673,1.657 4.673,3.303L4.684,7.144L6.36,7.144L6.322,3.799C6.322,2.702 6.898,2.029 7.995,2.029C9.092,2.029 9.673,2.71 9.673,3.807L9.675,5.429L11.353,5.429Z" style="fill-rule:nonzero;"/>
        </g>
    </g>
</svg>
