<?xml version="1.0" encoding="UTF-8"?>
<!DOCTYPE svg PUBLIC "-//W3C//DTD SVG 1.1//EN" "http://www.w3.org/Graphics/SVG/1.1/DTD/svg11.dtd">
<svg version="1.1" xmlns="http://www.w3.org/2000/svg" xmlns:xlink="http://www.w3.org/1999/xlink" width="100%" height="100%" viewBox="0, 0, 838.235, 950">
  <g id="Export" transform="translate(-92.882, -37)">
    <g>
      <path d="M471.152,763.47 C481.714,774.759 496.495,781.213 512.002,781.213 C527.51,781.213 542.29,774.759 552.852,763.47 L832.264,494.229 C847.464,477.94 851.515,454.246 842.658,433.848 C833.801,413.451 813.683,400.235 791.414,400.235 L651.708,400.235 L651.708,92.882 C651.708,62.007 626.673,37 595.826,37 L428.179,37 C397.304,37 372.296,62.007 372.296,92.882 L372.296,400.235 L232.59,400.235 C210.321,400.235 190.204,413.451 181.346,433.848 C172.489,454.246 176.54,477.94 191.74,494.229 z" fill="#000000"/>
      <path d="M875.235,651.706 C844.388,651.706 819.353,676.741 819.353,707.588 L819.353,875.235 L204.647,875.235 L204.647,707.588 C204.647,676.741 179.612,651.706 148.765,651.706 C117.918,651.706 92.882,676.741 92.882,707.588 L92.882,931.118 C92.882,961.965 117.918,987 148.765,987 L875.235,987 C906.082,987 931.118,961.965 931.118,931.118 L931.118,707.588 C931.118,676.741 906.082,651.706 875.235,651.706" fill="#000000"/>
    </g>
  </g>
</svg>
