<?xml version="1.0" encoding="UTF-8" standalone="no"?>
<!DOCTYPE svg PUBLIC "-//W3C//DTD SVG 1.1//EN" "http://www.w3.org/Graphics/SVG/1.1/DTD/svg11.dtd">
<svg width="100%" height="100%" viewBox="0 0 16 16" version="1.1" xmlns="http://www.w3.org/2000/svg" xmlns:xlink="http://www.w3.org/1999/xlink" xml:space="preserve" xmlns:serif="http://www.serif.com/" style="fill-rule:evenodd;clip-rule:evenodd;stroke-linejoin:round;stroke-miterlimit:2;">
    <g id="load" transform="matrix(0.00833333,0,0,-0.00833333,-2.66667,18.6641)">
        <g transform="matrix(-1,-1.22465e-16,1.22465e-16,-1,2555,3086.7)">
            <path d="M1224,2221C1207,2210 1188,2187 1181,2169C1174,2147 1170,1993 1170,1676L1170,1215L1073,1311C956,1426 936,1440 892,1440C842,1440 790,1386 790,1334C790,1298 801,1285 1014,1072C1235,850 1238,847 1280,847C1322,847 1325,850 1544,1069L1765,1290L1765,1336C1765,1375 1760,1386 1732,1411C1697,1442 1656,1449 1617,1429C1605,1423 1549,1372 1493,1317L1390,1215L1390,1678C1390,2186 1389,2194 1331,2224C1291,2245 1262,2244 1224,2221Z" style="fill-rule:nonzero;"/>
        </g>
        <path d="M420,1280C347.096,1280 320,1212 320,1212L320,860C320,610 324,495 332,466C348,413 413,348 466,332C525,315 2035,315 2094,332C2147,348 2212,413 2228,466C2236,495 2240,610 2240,860L2240,1212C2240,1212 2220.45,1280 2140,1280C2100,1280 2055,1254 2041,1223C2034,1208 2030,1098 2030,914C2030,674 2027,623 2014,595C1983,528 2003,530 1280,530C557,530 577,528 546,595C533,623 530,674 530,914C530,1098 526,1208 519,1223C515.15,1231.25 492.904,1280 420,1280Z" style="fill-rule:nonzero;"/>
    </g>
</svg>
