<?xml version="1.0" encoding="UTF-8"?>
<!DOCTYPE svg PUBLIC "-//W3C//DTD SVG 1.1//EN" "http://www.w3.org/Graphics/SVG/1.1/DTD/svg11.dtd">
<svg version="1.1" xmlns="http://www.w3.org/2000/svg" xmlns:xlink="http://www.w3.org/1999/xlink" width="100%" height="100%" viewBox="0, 0, 847.332, 950">
  <g id="Import" transform="translate(-88.334, -37)">
    <g>
      <path d="M470.709,54.935 C481.385,43.524 496.327,37 512.002,37 C527.678,37 542.619,43.524 553.296,54.935 L835.739,327.098 C851.104,343.565 855.2,367.516 846.246,388.134 C837.293,408.753 816.957,422.112 794.446,422.112 L653.224,422.112 L653.224,732.801 C653.224,764.011 627.917,789.289 596.735,789.289 L427.269,789.289 C396.059,789.289 370.78,764.011 370.78,732.801 L370.78,422.112 L229.558,422.112 C207.047,422.112 186.712,408.753 177.758,388.134 C168.805,367.516 172.9,343.565 188.265,327.098 z" fill="#000000"/>
      <path d="M879.177,648.067 C847.995,648.067 822.688,673.374 822.688,704.556 L822.688,874.022 L201.312,874.022 L201.312,704.556 C201.312,673.374 176.005,648.067 144.823,648.067 C113.641,648.067 88.334,673.374 88.334,704.556 L88.334,930.511 C88.334,961.693 113.641,987 144.823,987 L879.177,987 C910.359,987 935.666,961.693 935.666,930.511 L935.666,704.556 C935.666,673.374 910.359,648.067 879.177,648.067" fill="#000000"/>
    </g>
  </g>
</svg>
