<?xml version="1.0" encoding="UTF-8" standalone="no"?>
<!DOCTYPE svg PUBLIC "-//W3C//DTD SVG 1.1//EN" "http://www.w3.org/Graphics/SVG/1.1/DTD/svg11.dtd">
<svg width="100%" height="100%" viewBox="0 0 32 32" version="1.1" xmlns="http://www.w3.org/2000/svg" xmlns:xlink="http://www.w3.org/1999/xlink" xml:space="preserve" xmlns:serif="http://www.serif.com/" style="fill-rule:evenodd;clip-rule:evenodd;stroke-linejoin:round;stroke-miterlimit:2;">
    <g transform="matrix(1,0,0,1,-764,-1088)">
        <g id="Reference-Options" serif:id="Reference Options">
        </g>
        <g id="Options" transform="matrix(1,0,0,1,177,119)">
            <g id="InOut">
            </g>
            <g id="Out">
            </g>
            <g id="In" transform="matrix(2,0,0,2,585,977)">
                <path d="M2,11L16,11L16,2L17,2L17,11L16.032,12L1.981,12L1,11L0.974,2L2,2L2,11Z" style="fill:white;"/>
                <g transform="matrix(1.96646,0,0,1.96646,-5.77357,-11.4957)">
                    <path d="M7,8.547L7,3.784L8.021,3.784L8.021,8.547L9.207,7.34L9.914,7.793L7.499,10.208L6.792,9.501L6.793,9.5L5.086,7.793L5.793,7.34L7,8.547Z" style="fill:white;"/>
                </g>
            </g>
            <g id="allowSorting">
            </g>
            <g id="NoCheck">
            </g>
            <g id="rowOwnership">
            </g>
            <g id="NoUpdate">
            </g>
            <g id="NoFilter">
            </g>
            <g id="Unnest">
            </g>
        </g>
        <g id="Unnest1" serif:id="Unnest">
        </g>
        <g id="CRUD">
        </g>
    </g>
</svg>
