<?xml version="1.0" encoding="UTF-8" standalone="no"?>
<!DOCTYPE svg PUBLIC "-//W3C//DTD SVG 1.1//EN" "http://www.w3.org/Graphics/SVG/1.1/DTD/svg11.dtd">
<svg width="100%" height="100%" viewBox="0 0 560 538" version="1.1" xmlns="http://www.w3.org/2000/svg" xmlns:xlink="http://www.w3.org/1999/xlink" xml:space="preserve" xmlns:serif="http://www.serif.com/" style="fill-rule:evenodd;clip-rule:evenodd;stroke-linejoin:round;stroke-miterlimit:1;">
    <g id="On-Premise" transform="matrix(1,0,0,1,-1142.66,-602.549)">
        <g id="Data" transform="matrix(1,0,0,1,40,120.996)">
            <g opacity="0.5">
                <g transform="matrix(1,0,0,1,177.37,-19.776)">
                    <path d="M925.293,633.271C925.373,636.211 927.425,639.78 933.433,639.78C938.262,639.78 941.831,637.406 941.831,633.077C941.831,629.411 939.376,627.844 936.033,627.005L932.351,626.068C930.267,625.567 929.266,624.485 929.266,622.999C929.266,620.819 931.091,619.575 933.707,619.575C936.647,619.575 938.165,621.174 938.343,623.145L941.557,623.145C941.476,618.961 937.826,616.781 933.756,616.781C929.605,616.781 925.922,619.058 925.922,623.241C925.922,626.762 928.474,628.442 931.22,629.12L934.935,630.057C937.341,630.655 938.472,631.608 938.472,633.352C938.472,635.565 936.663,636.97 933.723,636.97C930.493,636.97 928.765,635.274 928.571,633.271L925.293,633.271Z" style="fill:white;fill-rule:nonzero;"/>
                    <path d="M947.161,622.305L944.803,622.305L944.803,624.953L947.129,624.953L947.129,634.547C947.129,637.939 948.146,639.457 952.248,639.457C952.911,639.457 953.557,639.392 953.831,639.344L953.831,636.808C953.605,636.824 953.347,636.841 953.056,636.841C951.069,636.841 950.375,636.324 950.375,634.386L950.375,624.953L953.718,624.953L953.718,622.305L950.375,622.305L950.375,618.105L947.161,618.105L947.161,622.305Z" style="fill:white;fill-rule:nonzero;"/>
                    <path d="M957.788,639.328L961.083,639.328L961.083,629.056C961.083,626.762 962.036,624.953 964.975,624.953C965.524,624.953 966.122,624.986 966.429,625.05L966.429,622.127C966.09,622.079 965.702,622.046 965.282,622.046C962.892,622.046 961.616,623.435 961.164,624.469L961.051,624.469L961.051,622.305L957.788,622.305L957.788,639.328Z" style="fill:white;fill-rule:nonzero;"/>
                    <path d="M983.969,622.305L980.706,622.305L980.706,632.69C980.706,635.29 979.075,636.727 976.814,636.727C974.763,636.727 973.002,635.807 973.002,632.738L973.002,622.305L969.74,622.305L969.74,633.643C969.74,637.583 972.195,639.602 975.699,639.602C978.445,639.602 980.044,638.359 980.626,637.018L980.755,637.018L980.755,639.328L983.969,639.328L983.969,622.305Z" style="fill:white;fill-rule:nonzero;"/>
                    <path d="M987.99,631.527C987.99,636.211 990.639,639.618 995.226,639.618C999.167,639.618 1001.51,637.583 1001.99,634.369L998.876,634.369C998.601,635.71 997.471,636.841 995.436,636.841C992.884,636.841 991.269,634.773 991.269,631.543L991.269,630.025C991.269,626.762 992.803,624.776 995.42,624.776C997.164,624.776 998.44,626.052 998.763,627.489L1001.9,627.489C1001.75,624.663 999.296,622.014 995.226,622.014C990.688,622.014 987.99,625.309 987.99,629.944L987.99,631.527Z" style="fill:white;fill-rule:nonzero;"/>
                    <path d="M1007.23,622.305L1004.87,622.305L1004.87,624.953L1007.19,624.953L1007.19,634.547C1007.19,637.939 1008.21,639.457 1012.31,639.457C1012.98,639.457 1013.62,639.392 1013.9,639.344L1013.9,636.808C1013.67,636.824 1013.41,636.841 1013.12,636.841C1011.13,636.841 1010.44,636.324 1010.44,634.386L1010.44,624.953L1013.78,624.953L1013.78,622.305L1010.44,622.305L1010.44,618.105L1007.23,618.105L1007.23,622.305Z" style="fill:white;fill-rule:nonzero;"/>
                    <path d="M1031.58,622.305L1028.32,622.305L1028.32,632.69C1028.32,635.29 1026.69,636.727 1024.43,636.727C1022.38,636.727 1020.62,635.807 1020.62,632.738L1020.62,622.305L1017.35,622.305L1017.35,633.643C1017.35,637.583 1019.81,639.602 1023.31,639.602C1026.06,639.602 1027.66,638.359 1028.24,637.018L1028.37,637.018L1028.37,639.328L1031.58,639.328L1031.58,622.305Z" style="fill:white;fill-rule:nonzero;"/>
                    <path d="M1036.3,639.328L1039.59,639.328L1039.59,629.056C1039.59,626.762 1040.55,624.953 1043.49,624.953C1044.03,624.953 1044.63,624.986 1044.94,625.05L1044.94,622.127C1044.6,622.079 1044.21,622.046 1043.79,622.046C1041.4,622.046 1040.12,623.435 1039.67,624.469L1039.56,624.469L1039.56,622.305L1036.3,622.305L1036.3,639.328Z" style="fill:white;fill-rule:nonzero;"/>
                    <path d="M1054.53,639.618C1058.57,639.618 1060.8,637.309 1061.36,634.531L1058.21,634.531C1057.73,636.049 1056.47,636.986 1054.6,636.986C1052.03,636.986 1050.45,634.951 1050.45,631.931L1050.45,631.575L1061.57,631.575L1061.57,629.96C1061.57,625.212 1058.91,622.014 1054.4,622.014C1049.91,622.014 1047.2,625.131 1047.2,629.799L1047.2,631.591C1047.2,636.55 1050.03,639.618 1054.53,639.618ZM1050.45,629.185L1050.45,629.137C1050.45,626.617 1052,624.614 1054.42,624.614C1056.79,624.614 1058.36,626.601 1058.36,629.137L1058.36,629.185L1050.45,629.185Z" style="fill:white;fill-rule:nonzero;"/>
                    <path d="M1071.57,622.03C1067.36,622.03 1064.87,625.325 1064.87,630.041L1064.87,631.559C1064.87,636.372 1067.23,639.57 1071.57,639.57C1073.87,639.57 1075.66,638.488 1076.56,636.744L1076.66,636.744L1076.66,639.328L1079.82,639.328L1079.82,616.119L1076.56,616.119L1076.56,624.695L1076.45,624.695C1075.62,623.161 1073.85,622.03 1071.57,622.03ZM1072.28,624.776C1074.95,624.776 1076.59,626.875 1076.59,630.154L1076.59,631.478C1076.59,634.919 1074.96,636.824 1072.31,636.824C1069.91,636.824 1068.18,635.048 1068.18,631.462L1068.18,630.154C1068.18,626.552 1069.91,624.776 1072.28,624.776Z" style="fill:white;fill-rule:nonzero;"/>
                    <path d="M1106.38,639.328L1110.27,639.328L1106.38,635.225C1107.64,633.352 1108.18,630.784 1108.18,627.683L1108.18,626.811L1105.31,626.811L1105.31,627.602C1105.31,629.993 1105.04,631.866 1104.36,633.142L1099.32,627.667C1101.81,626.342 1103.94,624.776 1103.94,622.046C1103.94,619.042 1101.37,617.088 1098.22,617.088C1094.88,617.088 1092.47,619.252 1092.47,622.03C1092.47,624.033 1093.73,625.567 1095.18,627.085C1094.89,627.215 1094.6,627.376 1094.33,627.521C1091.86,628.878 1090.08,630.671 1090.08,633.546C1090.08,637.406 1093.29,639.764 1097.54,639.764C1099.77,639.764 1102.39,639.102 1104.47,637.277L1106.38,639.328ZM1096.15,629.266C1096.36,629.137 1096.59,629.04 1096.83,628.91L1102.66,635.322C1101.4,636.663 1099.41,637.212 1097.83,637.212C1095.43,637.212 1093.21,635.936 1093.21,633.32C1093.21,631.398 1094.41,630.235 1096.15,629.266ZM1097.67,625.971C1095.98,624.275 1095.43,623.322 1095.43,622.208C1095.43,620.609 1096.57,619.462 1098.24,619.462C1099.84,619.462 1101.03,620.544 1101.03,622.176C1101.03,623.984 1099.62,624.97 1097.67,625.971Z" style="fill:white;fill-rule:nonzero;"/>
                    <path d="M1117.63,633.271C1117.71,636.211 1119.77,639.78 1125.77,639.78C1130.6,639.78 1134.17,637.406 1134.17,633.077C1134.17,629.411 1131.72,627.844 1128.37,627.005L1124.69,626.068C1122.61,625.567 1121.61,624.485 1121.61,622.999C1121.61,620.819 1123.43,619.575 1126.05,619.575C1128.99,619.575 1130.51,621.174 1130.68,623.145L1133.9,623.145C1133.82,618.961 1130.17,616.781 1126.1,616.781C1121.95,616.781 1118.26,619.058 1118.26,623.241C1118.26,626.762 1120.82,628.442 1123.56,629.12L1127.28,630.057C1129.68,630.655 1130.81,631.608 1130.81,633.352C1130.81,635.565 1129,636.97 1126.06,636.97C1122.83,636.97 1121.11,635.274 1120.91,633.271L1117.63,633.271Z" style="fill:white;fill-rule:nonzero;"/>
                    <path d="M1144.59,639.618C1148.63,639.618 1150.86,637.309 1151.42,634.531L1148.27,634.531C1147.79,636.049 1146.53,636.986 1144.65,636.986C1142.09,636.986 1140.5,634.951 1140.5,631.931L1140.5,631.575L1151.63,631.575L1151.63,629.96C1151.63,625.212 1148.97,622.014 1144.46,622.014C1139.97,622.014 1137.26,625.131 1137.26,629.799L1137.26,631.591C1137.26,636.55 1140.08,639.618 1144.59,639.618ZM1140.5,629.185L1140.5,629.137C1140.5,626.617 1142.05,624.614 1144.48,624.614C1146.85,624.614 1148.42,626.601 1148.42,629.137L1148.42,629.185L1140.5,629.185Z" style="fill:white;fill-rule:nonzero;"/>
                    <path d="M1155.6,639.328L1158.85,639.328L1158.85,628.684C1158.85,626.181 1160.4,624.873 1162.34,624.873C1164.47,624.873 1165.81,626.165 1165.81,628.717L1165.81,639.328L1169.01,639.328L1169.01,628.717C1169.01,626.423 1170.29,624.873 1172.53,624.873C1174.76,624.873 1175.97,626.326 1175.97,628.491L1175.97,639.328L1179.22,639.328L1179.22,627.731C1179.22,624.259 1177.13,622.03 1173.55,622.03C1170.75,622.03 1168.96,623.371 1168.35,624.824L1168.2,624.824C1167.57,623.128 1165.99,622.03 1163.34,622.03C1161,622.03 1159.51,623.322 1158.98,624.501L1158.82,624.501L1158.82,622.305L1155.6,622.305L1155.6,639.328Z" style="fill:white;fill-rule:nonzero;"/>
                    <path d="M1184.01,639.328L1187.28,639.328L1187.28,622.305L1184.01,622.305L1184.01,639.328ZM1183.66,618.154C1183.66,619.252 1184.55,620.076 1185.64,620.076C1186.74,620.076 1187.63,619.252 1187.63,618.154C1187.63,617.056 1186.74,616.232 1185.64,616.232C1184.55,616.232 1183.66,617.056 1183.66,618.154Z" style="fill:white;fill-rule:nonzero;"/>
                    <rect x="1191.06" y="628.83" width="10.175" height="2.907" style="fill:white;fill-rule:nonzero;"/>
                    <path d="M1204.2,627.231C1204.2,630.332 1206.77,631.365 1209.9,632.011C1212.21,632.464 1214.17,632.803 1214.17,634.628C1214.17,635.968 1213.07,637.099 1210.66,637.099C1208.55,637.099 1207.29,636.13 1207.08,634.676L1203.89,634.676C1203.89,637.729 1206.48,639.618 1210.44,639.618C1214.62,639.618 1217.35,637.648 1217.35,634.224C1217.35,630.962 1214.8,630.025 1211.62,629.46C1209.68,629.104 1207.35,628.749 1207.35,626.908C1207.35,625.373 1208.69,624.517 1210.58,624.517C1213.04,624.517 1213.81,625.923 1213.91,627.15L1216.88,627.15C1216.88,624.211 1214.7,622.014 1210.68,622.014C1207.3,622.014 1204.2,623.581 1204.2,627.231Z" style="fill:white;fill-rule:nonzero;"/>
                    <path d="M1222.18,622.305L1219.82,622.305L1219.82,624.953L1222.15,624.953L1222.15,634.547C1222.15,637.939 1223.16,639.457 1227.27,639.457C1227.93,639.457 1228.57,639.392 1228.85,639.344L1228.85,636.808C1228.62,636.824 1228.36,636.841 1228.07,636.841C1226.09,636.841 1225.39,636.324 1225.39,634.386L1225.39,624.953L1228.74,624.953L1228.74,622.305L1225.39,622.305L1225.39,618.105L1222.18,618.105L1222.18,622.305Z" style="fill:white;fill-rule:nonzero;"/>
                    <path d="M1232.81,639.328L1236.1,639.328L1236.1,629.056C1236.1,626.762 1237.05,624.953 1239.99,624.953C1240.54,624.953 1241.14,624.986 1241.45,625.05L1241.45,622.127C1241.11,622.079 1240.72,622.046 1240.3,622.046C1237.91,622.046 1236.63,623.435 1236.18,624.469L1236.07,624.469L1236.07,622.305L1232.81,622.305L1232.81,639.328Z" style="fill:white;fill-rule:nonzero;"/>
                    <path d="M1258.99,622.305L1255.72,622.305L1255.72,632.69C1255.72,635.29 1254.09,636.727 1251.83,636.727C1249.78,636.727 1248.02,635.807 1248.02,632.738L1248.02,622.305L1244.76,622.305L1244.76,633.643C1244.76,637.583 1247.21,639.602 1250.72,639.602C1253.46,639.602 1255.06,638.359 1255.64,637.018L1255.77,637.018L1255.77,639.328L1258.99,639.328L1258.99,622.305Z" style="fill:white;fill-rule:nonzero;"/>
                    <path d="M1263.01,631.527C1263.01,636.211 1265.66,639.618 1270.24,639.618C1274.18,639.618 1276.53,637.583 1277.01,634.369L1273.89,634.369C1273.62,635.71 1272.49,636.841 1270.45,636.841C1267.9,636.841 1266.29,634.773 1266.29,631.543L1266.29,630.025C1266.29,626.762 1267.82,624.776 1270.44,624.776C1272.18,624.776 1273.46,626.052 1273.78,627.489L1276.91,627.489C1276.77,624.663 1274.31,622.014 1270.24,622.014C1265.7,622.014 1263.01,625.309 1263.01,629.944L1263.01,631.527Z" style="fill:white;fill-rule:nonzero;"/>
                    <path d="M1282.24,622.305L1279.88,622.305L1279.88,624.953L1282.21,624.953L1282.21,634.547C1282.21,637.939 1283.23,639.457 1287.33,639.457C1287.99,639.457 1288.64,639.392 1288.91,639.344L1288.91,636.808C1288.69,636.824 1288.43,636.841 1288.14,636.841C1286.15,636.841 1285.46,636.324 1285.46,634.386L1285.46,624.953L1288.8,624.953L1288.8,622.305L1285.46,622.305L1285.46,618.105L1282.24,618.105L1282.24,622.305Z" style="fill:white;fill-rule:nonzero;"/>
                    <path d="M1306.6,622.305L1303.34,622.305L1303.34,632.69C1303.34,635.29 1301.7,636.727 1299.44,636.727C1297.39,636.727 1295.63,635.807 1295.63,632.738L1295.63,622.305L1292.37,622.305L1292.37,633.643C1292.37,637.583 1294.83,639.602 1298.33,639.602C1301.08,639.602 1302.67,638.359 1303.26,637.018L1303.38,637.018L1303.38,639.328L1306.6,639.328L1306.6,622.305Z" style="fill:white;fill-rule:nonzero;"/>
                    <path d="M1311.32,639.328L1314.61,639.328L1314.61,629.056C1314.61,626.762 1315.56,624.953 1318.5,624.953C1319.05,624.953 1319.65,624.986 1319.96,625.05L1319.96,622.127C1319.62,622.079 1319.23,622.046 1318.81,622.046C1316.42,622.046 1315.14,623.435 1314.69,624.469L1314.58,624.469L1314.58,622.305L1311.32,622.305L1311.32,639.328Z" style="fill:white;fill-rule:nonzero;"/>
                    <path d="M1329.55,639.618C1333.59,639.618 1335.82,637.309 1336.38,634.531L1333.23,634.531C1332.75,636.049 1331.49,636.986 1329.61,636.986C1327.05,636.986 1325.46,634.951 1325.46,631.931L1325.46,631.575L1336.59,631.575L1336.59,629.96C1336.59,625.212 1333.93,622.014 1329.42,622.014C1324.93,622.014 1322.22,625.131 1322.22,629.799L1322.22,631.591C1322.22,636.55 1325.04,639.618 1329.55,639.618ZM1325.46,629.185L1325.46,629.137C1325.46,626.617 1327.01,624.614 1329.44,624.614C1331.81,624.614 1333.38,626.601 1333.38,629.137L1333.38,629.185L1325.46,629.185Z" style="fill:white;fill-rule:nonzero;"/>
                    <path d="M1346.59,622.03C1342.37,622.03 1339.89,625.325 1339.89,630.041L1339.89,631.559C1339.89,636.372 1342.24,639.57 1346.59,639.57C1348.88,639.57 1350.67,638.488 1351.58,636.744L1351.68,636.744L1351.68,639.328L1354.84,639.328L1354.84,616.119L1351.58,616.119L1351.58,624.695L1351.47,624.695C1350.64,623.161 1348.87,622.03 1346.59,622.03ZM1347.3,624.776C1349.96,624.776 1351.61,626.875 1351.61,630.154L1351.61,631.478C1351.61,634.919 1349.98,636.824 1347.33,636.824C1344.92,636.824 1343.2,635.048 1343.2,631.462L1343.2,630.154C1343.2,626.552 1344.92,624.776 1347.3,624.776Z" style="fill:white;fill-rule:nonzero;"/>
                    <path d="M1366.39,617.282L1366.39,639.328L1373.77,639.328C1380.97,639.328 1383.53,634.628 1383.53,628.281C1383.53,621.836 1380.88,617.282 1373.77,617.282L1366.39,617.282ZM1369.72,620.141L1373.48,620.141C1378.34,620.141 1380.09,623.387 1380.09,628.329C1380.09,633.804 1377.94,636.469 1373.48,636.469L1369.72,636.469L1369.72,620.141Z" style="fill:white;fill-rule:nonzero;"/>
                    <path d="M1396.69,637.228L1396.8,637.228L1396.8,639.328L1399.92,639.328L1399.92,627.667C1399.92,623.952 1397.16,622.03 1393.44,622.03C1389.07,622.03 1387.1,624.356 1386.93,627.279L1390,627.279C1390.15,625.696 1391.31,624.647 1393.35,624.647C1395.48,624.647 1396.67,625.777 1396.67,627.844L1396.67,629.508L1392.3,629.508C1388.39,629.524 1386.3,631.43 1386.3,634.434C1386.3,637.583 1388.57,639.602 1391.86,639.602C1394.38,639.602 1395.9,638.553 1396.69,637.228ZM1392.81,637.034C1391.15,637.034 1389.6,636.146 1389.6,634.273C1389.6,632.803 1390.57,631.769 1392.75,631.769L1396.67,631.769L1396.67,633.691C1396.67,635.661 1395.01,637.034 1392.81,637.034Z" style="fill:white;fill-rule:nonzero;"/>
                    <path d="M1405.62,622.305L1403.26,622.305L1403.26,624.953L1405.59,624.953L1405.59,634.547C1405.59,637.939 1406.61,639.457 1410.71,639.457C1411.37,639.457 1412.02,639.392 1412.29,639.344L1412.29,636.808C1412.06,636.824 1411.81,636.841 1411.52,636.841C1409.53,636.841 1408.83,636.324 1408.83,634.386L1408.83,624.953L1412.18,624.953L1412.18,622.305L1408.83,622.305L1408.83,618.105L1405.62,618.105L1405.62,622.305Z" style="fill:white;fill-rule:nonzero;"/>
                    <path d="M1425.44,637.228L1425.55,637.228L1425.55,639.328L1428.67,639.328L1428.67,627.667C1428.67,623.952 1425.9,622.03 1422.19,622.03C1417.81,622.03 1415.84,624.356 1415.68,627.279L1418.75,627.279C1418.9,625.696 1420.06,624.647 1422.09,624.647C1424.23,624.647 1425.42,625.777 1425.42,627.844L1425.42,629.508L1421.04,629.508C1417.13,629.524 1415.05,631.43 1415.05,634.434C1415.05,637.583 1417.31,639.602 1420.61,639.602C1423.13,639.602 1424.65,638.553 1425.44,637.228ZM1421.56,637.034C1419.9,637.034 1418.35,636.146 1418.35,634.273C1418.35,632.803 1419.32,631.769 1421.5,631.769L1425.42,631.769L1425.42,633.691C1425.42,635.661 1423.76,637.034 1421.56,637.034Z" style="fill:white;fill-rule:nonzero;"/>
                </g>
                <g id="CSV-File" serif:id="CSV File" transform="matrix(4,0,0,4,-1336.62,-168.447)">
                    <g id="File" transform="matrix(0.25,0,0,0.25,326.076,37.2796)">
                        <g transform="matrix(0.950365,0,0,1,53.4163,1.13687e-13)">
                            <path d="M1257.63,525.164L1257.63,593.381C1257.63,594.572 1256.61,595.539 1255.36,595.539L1183.21,595.539C1181.95,595.539 1180.94,594.572 1180.94,593.381L1180.94,503.039C1180.94,501.848 1181.95,500.881 1183.21,500.881L1232.58,500.881C1233.84,500.881 1257.63,523.973 1257.63,525.164ZM1184.1,503.881L1184.1,592.539L1254.47,592.539L1254.47,526.04C1251.12,522.041 1235.85,507.23 1231.63,503.881L1184.1,503.881Z" style="fill:white;"/>
                        </g>
                        <path d="M1224.88,502.881L1224.82,525.164L1246.62,525.164" style="fill:none;stroke:white;stroke-width:3px;"/>
                    </g>
                    <g transform="matrix(0.185667,0,0,0.200175,387.212,67.5082)">
                        <path d="M1267.11,563.042C1267.11,558.176 1269.46,555.802 1272.94,555.802C1276.44,555.802 1278.3,558.227 1278.3,560.686L1282.61,560.686L1282.61,560.361C1282.61,556.144 1279.13,552.268 1272.92,552.268C1266.56,552.268 1262.62,556.144 1262.62,563.025L1262.62,565.842C1262.62,572.689 1266.5,576.497 1272.91,576.497C1279.31,576.497 1282.61,572.553 1282.61,568.711L1282.61,568.369L1278.3,568.369C1278.3,570.845 1276.5,572.962 1273.02,572.962C1269.44,572.962 1267.11,570.743 1267.11,565.825L1267.11,563.042Z" style="fill:white;fill-rule:nonzero;"/>
                        <path d="M1285.33,569.513C1285.41,572.689 1287.76,576.497 1294.85,576.497C1300.67,576.497 1304.64,573.867 1304.64,569.291C1304.64,565.245 1301.72,563.588 1297.96,562.786L1293.91,561.881C1291.61,561.386 1290.45,560.344 1290.45,558.859C1290.45,556.793 1292.33,555.563 1295.13,555.563C1298.29,555.563 1299.89,557.168 1300.06,559.064L1304.29,559.064C1304.22,554.778 1300.23,552.216 1295.16,552.216C1290.19,552.216 1285.98,554.692 1285.98,559.183C1285.98,563.008 1288.9,564.818 1292.22,565.518L1296.25,566.423C1298.9,567.02 1300.19,567.925 1300.19,569.65C1300.19,571.767 1298.35,573.133 1295.16,573.133C1291.68,573.133 1289.84,571.46 1289.66,569.513L1285.33,569.513Z" style="fill:white;fill-rule:nonzero;"/>
                        <path d="M1320.12,576.036L1328.69,552.729L1323.71,552.729L1317.71,571.238L1317.55,571.238L1311.49,552.729L1306.36,552.729L1314.93,576.036L1320.12,576.036Z" style="fill:white;fill-rule:nonzero;"/>
                    </g>
                </g>
                <g id="Avro-File" serif:id="Avro File" transform="matrix(4,0,0,4,-1247.16,-168.447)">
                    <g id="File1" serif:id="File" transform="matrix(0.25,0,0,0.25,326.076,37.2796)">
                        <g transform="matrix(0.950365,0,0,1,53.4163,1.13687e-13)">
                            <path d="M1257.63,525.164L1257.63,593.381C1257.63,594.572 1256.61,595.539 1255.36,595.539L1183.21,595.539C1181.95,595.539 1180.94,594.572 1180.94,593.381L1180.94,503.039C1180.94,501.848 1181.95,500.881 1183.21,500.881L1232.58,500.881C1233.84,500.881 1257.63,523.973 1257.63,525.164ZM1184.1,503.881L1184.1,592.539L1254.47,592.539L1254.47,526.04C1251.12,522.041 1235.85,507.23 1231.63,503.881L1184.1,503.881Z" style="fill:white;"/>
                        </g>
                        <path d="M1224.88,502.881L1224.82,525.164L1246.62,525.164" style="fill:none;stroke:white;stroke-width:3px;"/>
                    </g>
                    <g transform="matrix(0.227645,0,0,0.200175,334.285,67.5082)">
                        <path d="M1264.78,576.036L1266.52,569.752L1273.6,569.752L1275.34,576.036L1279.23,576.036L1272.24,552.729L1268.12,552.729L1261.12,576.036L1264.78,576.036ZM1270.14,556.912L1272.82,566.611L1267.32,566.611L1270.01,556.912L1270.14,556.912Z" style="fill:white;fill-rule:nonzero;"/>
                        <path d="M1283.95,576.036L1287.93,576.036L1293.5,557.971L1289.87,557.971L1286.03,571.853L1285.91,571.853L1282.39,557.971L1278.62,557.971L1283.95,576.036Z" style="fill:white;fill-rule:nonzero;"/>
                        <path d="M1296,576.036L1299.62,576.036L1299.62,565.484C1299.62,563.042 1300.52,561.215 1303.16,561.215C1303.73,561.215 1304.33,561.249 1304.63,561.352L1304.63,557.817C1304.32,557.749 1303.94,557.698 1303.46,557.698C1301.27,557.698 1300.08,559.251 1299.69,560.378L1299.54,560.378L1299.54,557.971L1296,557.971L1296,576.036Z" style="fill:white;fill-rule:nonzero;"/>
                        <path d="M1313.67,557.663C1309.06,557.663 1306.52,561.317 1306.52,566.269L1306.52,567.669C1306.52,572.809 1309.04,576.343 1313.67,576.343C1318.28,576.343 1320.79,572.809 1320.79,567.652L1320.79,566.252C1320.79,561.3 1318.26,557.663 1313.67,557.663ZM1313.67,560.839C1316.07,560.839 1317.21,563.11 1317.21,566.286L1317.21,567.686C1317.21,570.777 1316.09,573.133 1313.67,573.133C1311.24,573.133 1310.1,570.777 1310.1,567.686L1310.1,566.286C1310.1,563.127 1311.25,560.839 1313.67,560.839Z" style="fill:white;fill-rule:nonzero;"/>
                    </g>
                </g>
                <g id="Parquet-File" serif:id="Parquet File" transform="matrix(4,0,0,4,-1157.04,-168.447)">
                    <g id="File2" serif:id="File" transform="matrix(0.25,0,0,0.25,326.076,37.2796)">
                        <g transform="matrix(0.950365,0,0,1,53.4163,1.13687e-13)">
                            <path d="M1257.63,525.164L1257.63,593.381C1257.63,594.572 1256.61,595.539 1255.36,595.539L1183.21,595.539C1181.95,595.539 1180.94,594.572 1180.94,593.381L1180.94,503.039C1180.94,501.848 1181.95,500.881 1183.21,500.881L1232.58,500.881C1233.84,500.881 1257.63,523.973 1257.63,525.164ZM1184.1,503.881L1184.1,592.539L1254.47,592.539L1254.47,526.04C1251.12,522.041 1235.85,507.23 1231.63,503.881L1184.1,503.881Z" style="fill:white;"/>
                        </g>
                        <path d="M1224.88,502.881L1224.82,525.164L1246.62,525.164" style="fill:none;stroke:white;stroke-width:3px;"/>
                    </g>
                    <g transform="matrix(1.83846e-17,0.300243,-0.190132,1.16423e-17,731.576,-214.929)">
                        <path d="M1262.31,552.609L1262.31,573.642L1264.67,573.642L1264.67,566.322L1267.48,566.322C1270.25,566.322 1271.92,563.472 1271.92,559.481C1271.92,555.552 1270.27,552.609 1267.5,552.609L1262.31,552.609ZM1264.67,555.644L1267.11,555.644C1268.62,555.644 1269.52,557.031 1269.52,559.481C1269.52,562.517 1268.35,563.318 1266.38,563.318L1264.67,563.318L1264.67,555.644Z" style="fill:white;fill-rule:nonzero;"/>
                        <path d="M1279.4,571.654L1279.49,571.654L1279.49,573.642L1281.67,573.642L1281.67,562.563C1281.67,558.865 1279.92,557.077 1277.6,557.077C1274.77,557.077 1273.62,559.466 1273.53,562.224L1275.7,562.224C1275.77,560.837 1276.42,559.882 1277.55,559.882C1278.72,559.882 1279.39,560.883 1279.39,562.671L1279.39,564.181L1276.81,564.181C1274.43,564.196 1273.15,566.045 1273.15,568.957C1273.15,571.993 1274.54,573.888 1276.54,573.888C1278.06,573.888 1278.96,572.887 1279.4,571.654ZM1277.26,571.161C1276.33,571.161 1275.45,570.375 1275.45,568.726C1275.45,567.416 1276.03,566.507 1277.24,566.507L1279.39,566.507L1279.39,568.279C1279.39,569.99 1278.46,571.161 1277.26,571.161Z" style="fill:white;fill-rule:nonzero;"/>
                        <path d="M1284.26,573.642L1286.61,573.642L1286.61,564.119C1286.61,561.916 1287.19,560.267 1288.91,560.267C1289.28,560.267 1289.67,560.298 1289.87,560.39L1289.87,557.201C1289.66,557.139 1289.42,557.093 1289.11,557.093C1287.68,557.093 1286.91,558.495 1286.66,559.512L1286.56,559.512L1286.56,557.339L1284.26,557.339L1284.26,573.642Z" style="fill:white;fill-rule:nonzero;"/>
                        <path d="M1291.11,564.782L1291.11,566.061C1291.11,570.96 1292.64,573.857 1295.03,573.857C1296.54,573.857 1297.65,572.717 1298.06,571.238L1298.15,571.238L1298.15,579.158L1300.45,579.158L1300.45,557.339L1298.2,557.339L1298.2,559.712L1298.11,559.712C1297.59,558.125 1296.54,557.108 1295.05,557.108C1292.65,557.108 1291.11,560.02 1291.11,564.782ZM1295.76,560.082C1297.24,560.082 1298.17,561.946 1298.17,564.936L1298.17,565.968C1298.17,569.034 1297.25,570.93 1295.78,570.93C1294.33,570.93 1293.46,569.05 1293.46,565.968L1293.46,564.936C1293.46,561.823 1294.35,560.082 1295.76,560.082Z" style="fill:white;fill-rule:nonzero;"/>
                        <path d="M1311.93,557.339L1309.63,557.339L1309.63,567.124C1309.63,569.497 1308.7,570.776 1307.45,570.776C1306.34,570.776 1305.33,569.959 1305.33,567.17L1305.33,557.339L1303.02,557.339L1303.02,568.156C1303.02,571.962 1304.48,573.888 1306.59,573.888C1308.28,573.888 1309.24,572.609 1309.57,571.33L1309.68,571.33L1309.68,573.642L1311.93,573.642L1311.93,557.339Z" style="fill:white;fill-rule:nonzero;"/>
                        <path d="M1318.78,573.919C1321.39,573.919 1322.75,571.5 1323.03,568.865L1320.87,568.865C1320.62,570.252 1319.87,571.099 1318.8,571.099C1317.38,571.099 1316.47,569.358 1316.47,566.708L1316.47,566.292L1323.15,566.292L1323.15,564.72C1323.15,560.097 1321.45,557.062 1318.68,557.062C1315.97,557.062 1314.2,559.943 1314.2,564.581L1314.2,566.184C1314.2,571.068 1315.99,573.919 1318.78,573.919ZM1316.47,563.842L1316.47,563.811C1316.47,561.577 1317.35,559.835 1318.69,559.835C1320.03,559.835 1320.9,561.561 1320.9,563.811L1320.9,563.842L1316.47,563.842Z" style="fill:white;fill-rule:nonzero;"/>
                        <path d="M1326.15,557.339L1324.66,557.339L1324.66,560.221L1326.11,560.221L1326.11,569.05C1326.11,572.332 1326.85,573.749 1329.39,573.749C1329.86,573.749 1330.27,573.672 1330.46,573.626L1330.46,570.868C1330.33,570.899 1330.15,570.899 1329.95,570.899C1328.82,570.899 1328.39,570.406 1328.39,568.68L1328.39,560.221L1330.4,560.221L1330.4,557.339L1328.39,557.339L1328.39,553.395L1326.15,553.395L1326.15,557.339Z" style="fill:white;fill-rule:nonzero;"/>
                    </g>
                </g>
                <g id="PDF-File" serif:id="PDF File" transform="matrix(4,0,0,4,-1066.56,-168.447)">
                    <g id="File3" serif:id="File" transform="matrix(0.25,0,0,0.25,325.82,37.2796)">
                        <g transform="matrix(0.950365,0,0,1,53.4163,1.13687e-13)">
                            <path d="M1257.63,525.164L1257.63,593.381C1257.63,594.572 1256.61,595.539 1255.36,595.539L1183.21,595.539C1181.95,595.539 1180.94,594.572 1180.94,593.381L1180.94,503.039C1180.94,501.848 1181.95,500.881 1183.21,500.881L1232.58,500.881C1233.84,500.881 1257.63,523.973 1257.63,525.164ZM1184.1,503.881L1184.1,592.539L1254.47,592.539L1254.47,526.04C1251.12,522.041 1235.85,507.23 1231.63,503.881L1184.1,503.881Z" style="fill:white;"/>
                        </g>
                        <path d="M1224.88,502.881L1224.82,525.164L1246.62,525.164" style="fill:none;stroke:white;stroke-width:3px;"/>
                    </g>
                    <g transform="matrix(0.185667,0,0,0.200175,387.946,67.5082)">
                        <path d="M1263.61,552.729L1263.61,576.036L1268.06,576.036L1268.06,567.925L1273.37,567.925C1278.59,567.925 1281.74,564.767 1281.74,560.344C1281.74,555.99 1278.63,552.729 1273.4,552.729L1263.61,552.729ZM1268.06,556.092L1272.67,556.092C1275.52,556.092 1277.21,557.629 1277.21,560.344C1277.21,563.708 1275.01,564.596 1271.29,564.596L1268.06,564.596L1268.06,556.092Z" style="fill:white;fill-rule:nonzero;"/>
                        <path d="M1285.39,552.729L1285.39,576.036L1294.24,576.036C1302.42,576.036 1305.42,571.101 1305.42,564.34C1305.42,557.51 1302.34,552.729 1294.24,552.729L1285.39,552.729ZM1289.84,556.178L1293.71,556.178C1299.07,556.178 1300.83,559.559 1300.83,564.408C1300.83,570.162 1298.38,572.587 1293.71,572.587L1289.84,572.587L1289.84,556.178Z" style="fill:white;fill-rule:nonzero;"/>
                        <path d="M1314.09,576.036L1314.09,566.525L1324.34,566.525L1324.34,563.127L1314.09,563.127L1314.09,556.195L1325.32,556.195L1325.32,552.729L1309.63,552.729L1309.63,576.036L1314.09,576.036Z" style="fill:white;fill-rule:nonzero;"/>
                    </g>
                </g>
                <g id="Data-File" serif:id="Data File" transform="matrix(4,0,0,4,-977.094,-168.447)">
                    <g id="File4" serif:id="File" transform="matrix(0.25,0,0,0.25,325.82,37.2796)">
                        <g transform="matrix(0.950365,0,0,1,53.4163,1.13687e-13)">
                            <path d="M1257.63,525.164L1257.63,593.381C1257.63,594.572 1256.61,595.539 1255.36,595.539L1183.21,595.539C1181.95,595.539 1180.94,594.572 1180.94,593.381L1180.94,503.039C1180.94,501.848 1181.95,500.881 1183.21,500.881L1232.58,500.881C1233.84,500.881 1257.63,523.973 1257.63,525.164ZM1184.1,503.881L1184.1,592.539L1254.47,592.539L1254.47,526.04C1251.12,522.043 1235.86,507.231 1231.63,503.881L1184.1,503.881Z" style="fill:white;"/>
                        </g>
                        <path d="M1224.88,502.881L1224.82,525.164L1246.62,525.164" style="fill:none;stroke:white;stroke-width:3px;"/>
                    </g>
                    <g id="Symbols" transform="matrix(0.25,0,0,0.25,269.523,-48.6372)">
                        <g transform="matrix(1,0,0,1,-106.708,351.896)">
                            <path d="M1536.01,518.203L1538.84,526.903L1547.99,526.903L1540.59,532.281L1543.41,540.982L1536.01,535.604L1528.61,540.982L1531.44,532.281L1524.04,526.903L1533.18,526.903L1536.01,518.203Z" style="fill:none;stroke:white;stroke-width:3px;stroke-linecap:round;"/>
                        </g>
                        <g transform="matrix(1,0,0,1,-110.263,351.707)">
                            <path d="M1563.44,543.171L1574.26,551.031L1570.12,563.75L1556.75,563.75L1552.62,551.031L1563.44,543.171Z" style="fill:none;stroke:white;stroke-width:3px;stroke-linecap:round;"/>
                        </g>
                        <g transform="matrix(1,0,0,1,-101,358.996)">
                            <rect x="1515.33" y="549.461" width="18.937" height="18.937" style="fill:none;stroke:white;stroke-width:3px;stroke-linecap:round;"/>
                        </g>
                    </g>
                </g>
            </g>
        </g>
        <g id="Sources" transform="matrix(0.805014,0,0,0.805014,-390.054,-89.0754)">
            <g opacity="0.5">
                <g transform="matrix(1,0,0,1,-28,578.574)">
                    <g transform="matrix(1,0,0,1,844.325,219.157)">
                        <path d="M1146.63,617.282L1146.63,639.328L1154.01,639.328C1161.22,639.328 1163.77,634.628 1163.77,628.281C1163.77,621.836 1161.12,617.282 1154.01,617.282L1146.63,617.282ZM1149.96,620.141L1153.72,620.141C1158.58,620.141 1160.33,623.387 1160.33,628.329C1160.33,633.804 1158.18,636.469 1153.72,636.469L1149.96,636.469L1149.96,620.141Z" style="fill:white;fill-rule:nonzero;"/>
                        <path d="M1176.93,637.228L1177.04,637.228L1177.04,639.328L1180.16,639.328L1180.16,627.667C1180.16,623.952 1177.4,622.03 1173.68,622.03C1169.31,622.03 1167.34,624.356 1167.18,627.279L1170.25,627.279C1170.39,625.696 1171.55,624.647 1173.59,624.647C1175.72,624.647 1176.91,625.777 1176.91,627.844L1176.91,629.508L1172.54,629.508C1168.63,629.524 1166.55,631.43 1166.55,634.434C1166.55,637.583 1168.81,639.602 1172.1,639.602C1174.62,639.602 1176.14,638.553 1176.93,637.228ZM1173.06,637.034C1171.39,637.034 1169.84,636.146 1169.84,634.273C1169.84,632.803 1170.81,631.769 1172.99,631.769L1176.91,631.769L1176.91,633.691C1176.91,635.661 1175.25,637.034 1173.06,637.034Z" style="fill:white;fill-rule:nonzero;"/>
                        <path d="M1185.86,622.305L1183.51,622.305L1183.51,624.953L1185.83,624.953L1185.83,634.547C1185.83,637.939 1186.85,639.457 1190.95,639.457C1191.61,639.457 1192.26,639.392 1192.53,639.344L1192.53,636.808C1192.31,636.824 1192.05,636.841 1191.76,636.841C1189.77,636.841 1189.08,636.324 1189.08,634.386L1189.08,624.953L1192.42,624.953L1192.42,622.305L1189.08,622.305L1189.08,618.105L1185.86,618.105L1185.86,622.305Z" style="fill:white;fill-rule:nonzero;"/>
                        <path d="M1205.68,637.228L1205.79,637.228L1205.79,639.328L1208.91,639.328L1208.91,627.667C1208.91,623.952 1206.15,622.03 1202.43,622.03C1198.06,622.03 1196.09,624.356 1195.92,627.279L1198.99,627.279C1199.14,625.696 1200.3,624.647 1202.34,624.647C1204.47,624.647 1205.66,625.777 1205.66,627.844L1205.66,629.508L1201.29,629.508C1197.38,629.524 1195.3,631.43 1195.3,634.434C1195.3,637.583 1197.56,639.602 1200.85,639.602C1203.37,639.602 1204.89,638.553 1205.68,637.228ZM1201.8,637.034C1200.14,637.034 1198.59,636.146 1198.59,634.273C1198.59,632.803 1199.56,631.769 1201.74,631.769L1205.66,631.769L1205.66,633.691C1205.66,635.661 1204,637.034 1201.8,637.034Z" style="fill:white;fill-rule:nonzero;"/>
                        <path d="M1105.35,672.405L1109.81,655.769L1109.92,655.769L1114.38,672.405L1117.38,672.405L1123.38,650.359L1119.76,650.359L1115.77,667.107L1115.65,667.107L1111.46,650.359L1108.27,650.359L1104.06,667.107L1103.95,667.107L1099.96,650.359L1096.34,650.359L1102.33,672.405L1105.35,672.405Z" style="fill:white;fill-rule:nonzero;"/>
                        <path d="M1134.63,670.305L1134.75,670.305L1134.75,672.405L1137.86,672.405L1137.86,660.744C1137.86,657.029 1135.1,655.107 1131.39,655.107C1127.01,655.107 1125.04,657.433 1124.88,660.356L1127.95,660.356C1128.09,658.773 1129.25,657.724 1131.29,657.724C1133.42,657.724 1134.62,658.854 1134.62,660.921L1134.62,662.585L1130.24,662.585C1126.33,662.601 1124.25,664.507 1124.25,667.511C1124.25,670.66 1126.51,672.679 1129.8,672.679C1132.32,672.679 1133.84,671.63 1134.63,670.305ZM1130.76,670.111C1129.09,670.111 1127.54,669.223 1127.54,667.35C1127.54,665.88 1128.51,664.846 1130.69,664.846L1134.62,664.846L1134.62,666.768C1134.62,668.739 1132.95,670.111 1130.76,670.111Z" style="fill:white;fill-rule:nonzero;"/>
                        <path d="M1142.42,672.405L1145.71,672.405L1145.71,662.133C1145.71,659.839 1146.66,658.03 1149.6,658.03C1150.15,658.03 1150.75,658.063 1151.06,658.127L1151.06,655.204C1150.72,655.156 1150.33,655.123 1149.91,655.123C1147.52,655.123 1146.25,656.512 1145.79,657.546L1145.68,657.546L1145.68,655.382L1142.42,655.382L1142.42,672.405Z" style="fill:white;fill-rule:nonzero;"/>
                        <path d="M1160.65,672.695C1164.69,672.695 1166.92,670.386 1167.48,667.608L1164.33,667.608C1163.85,669.126 1162.59,670.063 1160.72,670.063C1158.15,670.063 1156.57,668.028 1156.57,665.008L1156.57,664.652L1167.69,664.652L1167.69,663.037C1167.69,658.289 1165.03,655.091 1160.52,655.091C1156.03,655.091 1153.32,658.208 1153.32,662.876L1153.32,664.668C1153.32,669.627 1156.14,672.695 1160.65,672.695ZM1156.57,662.262L1156.57,662.214C1156.57,659.694 1158.12,657.691 1160.54,657.691C1162.91,657.691 1164.48,659.678 1164.48,662.214L1164.48,662.262L1156.57,662.262Z" style="fill:white;fill-rule:nonzero;"/>
                        <path d="M1171.71,672.405L1174.98,672.405L1174.98,662.165C1174.98,659.888 1176.2,657.982 1178.9,657.982C1181.18,657.982 1182.79,659.306 1182.79,662.084L1182.79,672.405L1186.06,672.405L1186.06,661.471C1186.06,657.32 1183.51,655.107 1180.02,655.107C1177.24,655.107 1175.69,656.593 1175.09,657.707L1174.98,657.707L1174.98,649.196L1171.71,649.196L1171.71,672.405Z" style="fill:white;fill-rule:nonzero;"/>
                        <path d="M1197.31,655.091C1192.45,655.091 1189.82,658.547 1189.82,663.15L1189.82,664.572C1189.82,669.304 1192.45,672.695 1197.31,672.695C1202.16,672.695 1204.76,669.304 1204.76,664.572L1204.76,663.134C1204.76,658.531 1202.14,655.091 1197.31,655.091ZM1197.3,657.772C1200.06,657.772 1201.48,659.952 1201.48,663.215L1201.48,664.523C1201.48,667.753 1200.08,669.982 1197.3,669.982C1194.54,669.982 1193.1,667.737 1193.1,664.523L1193.1,663.215C1193.1,659.969 1194.54,657.772 1197.3,657.772Z" style="fill:white;fill-rule:nonzero;"/>
                        <path d="M1222.78,655.382L1219.52,655.382L1219.52,665.767C1219.52,668.367 1217.89,669.804 1215.63,669.804C1213.58,669.804 1211.82,668.884 1211.82,665.815L1211.82,655.382L1208.56,655.382L1208.56,666.72C1208.56,670.66 1211.01,672.679 1214.52,672.679C1217.26,672.679 1218.86,671.436 1219.44,670.095L1219.57,670.095L1219.57,672.405L1222.78,672.405L1222.78,655.382Z" style="fill:white;fill-rule:nonzero;"/>
                        <path d="M1226.84,660.308C1226.84,663.409 1229.41,664.442 1232.54,665.088C1234.85,665.541 1236.8,665.88 1236.8,667.705C1236.8,669.045 1235.7,670.176 1233.3,670.176C1231.18,670.176 1229.92,669.207 1229.71,667.753L1226.53,667.753C1226.53,670.806 1229.12,672.695 1233.07,672.695C1237.26,672.695 1239.98,670.725 1239.98,667.301C1239.98,664.039 1237.43,663.102 1234.25,662.537C1232.31,662.181 1229.99,661.826 1229.99,659.985C1229.99,658.45 1231.33,657.594 1233.22,657.594C1235.67,657.594 1236.45,659 1236.54,660.227L1239.52,660.227C1239.52,657.288 1237.34,655.091 1233.31,655.091C1229.94,655.091 1226.84,656.658 1226.84,660.308Z" style="fill:white;fill-rule:nonzero;"/>
                        <path d="M1250.37,672.695C1254.41,672.695 1256.64,670.386 1257.2,667.608L1254.05,667.608C1253.57,669.126 1252.31,670.063 1250.43,670.063C1247.87,670.063 1246.28,668.028 1246.28,665.008L1246.28,664.652L1257.41,664.652L1257.41,663.037C1257.41,658.289 1254.75,655.091 1250.24,655.091C1245.75,655.091 1243.04,658.208 1243.04,662.876L1243.04,664.668C1243.04,669.627 1245.86,672.695 1250.37,672.695ZM1246.28,662.262L1246.28,662.214C1246.28,659.694 1247.83,657.691 1250.26,657.691C1252.63,657.691 1254.2,659.678 1254.2,662.214L1254.2,662.262L1246.28,662.262Z" style="fill:white;fill-rule:nonzero;"/>
                    </g>
                    <g transform="matrix(0.71223,0,0,0.71223,566.47,205.18)">
                        <circle cx="2042.5" cy="782.5" r="69.5" style="fill:none;stroke:white;stroke-width:5.23px;stroke-linecap:round;"/>
                    </g>
                </g>
                <g transform="matrix(1,0,0,1,157.237,480.337)">
                    <g transform="matrix(1,0,0,1,844.325,219.157)">
                        <path d="M1134.52,639.328L1134.52,623.774L1134.63,623.774L1140.56,637.18L1143.1,637.18L1149.01,623.774L1149.14,623.774L1149.14,639.328L1152.14,639.328L1152.14,617.282L1148.85,617.282L1141.88,633.4L1141.8,633.4L1134.83,617.282L1131.53,617.282L1131.53,639.328L1134.52,639.328Z" style="fill:white;fill-rule:nonzero;"/>
                        <path d="M1163.91,622.014C1159.05,622.014 1156.42,625.47 1156.42,630.073L1156.42,631.495C1156.42,636.227 1159.05,639.618 1163.91,639.618C1168.76,639.618 1171.36,636.227 1171.36,631.495L1171.36,630.057C1171.36,625.454 1168.74,622.014 1163.91,622.014ZM1163.9,624.695C1166.66,624.695 1168.08,626.875 1168.08,630.138L1168.08,631.446C1168.08,634.676 1166.68,636.905 1163.9,636.905C1161.14,636.905 1159.7,634.66 1159.7,631.446L1159.7,630.138C1159.7,626.892 1161.14,624.695 1163.9,624.695Z" style="fill:white;fill-rule:nonzero;"/>
                        <path d="M1183.76,639.586C1187.8,639.586 1190.45,636.582 1190.45,631.608L1190.45,629.993C1190.45,624.857 1187.72,622.046 1183.78,622.046C1181.6,622.046 1179.66,623.161 1178.82,624.679L1178.71,624.679L1178.71,616.119L1175.45,616.119L1175.45,639.328L1178.61,639.328L1178.61,636.744L1178.72,636.744C1179.68,638.488 1181.34,639.586 1183.76,639.586ZM1183.1,636.841C1180.34,636.841 1178.68,634.951 1178.68,631.43L1178.68,630.17C1178.68,626.665 1180.36,624.792 1183.1,624.792C1185.48,624.792 1187.14,626.682 1187.14,630.17L1187.14,631.462C1187.14,634.935 1185.49,636.841 1183.1,636.841Z" style="fill:white;fill-rule:nonzero;"/>
                        <path d="M1194.65,639.328L1197.91,639.328L1197.91,622.305L1194.65,622.305L1194.65,639.328ZM1194.29,618.154C1194.29,619.252 1195.18,620.076 1196.28,620.076C1197.38,620.076 1198.27,619.252 1198.27,618.154C1198.27,617.056 1197.38,616.232 1196.28,616.232C1195.18,616.232 1194.29,617.056 1194.29,618.154Z" style="fill:white;fill-rule:nonzero;"/>
                        <rect x="1202.9" y="616.119" width="3.246" height="23.209" style="fill:white;fill-rule:nonzero;"/>
                        <path d="M1217.62,639.618C1221.65,639.618 1223.88,637.309 1224.45,634.531L1221.3,634.531C1220.81,636.049 1219.55,636.986 1217.68,636.986C1215.11,636.986 1213.53,634.951 1213.53,631.931L1213.53,631.575L1224.66,631.575L1224.66,629.96C1224.66,625.212 1221.99,622.014 1217.49,622.014C1213,622.014 1210.28,625.131 1210.28,629.799L1210.28,631.591C1210.28,636.55 1213.11,639.618 1217.62,639.618ZM1213.53,629.185L1213.53,629.137C1213.53,626.617 1215.08,624.614 1217.5,624.614C1219.88,624.614 1221.44,626.601 1221.44,629.137L1221.44,629.185L1213.53,629.185Z" style="fill:white;fill-rule:nonzero;"/>
                    </g>
                    <g transform="matrix(0.71223,0,0,0.71223,567.77,205.18)">
                        <circle cx="2042.5" cy="782.5" r="69.5" style="fill:none;stroke:white;stroke-width:5.23px;stroke-linecap:round;"/>
                    </g>
                </g>
                <g transform="matrix(1,0,0,1,384.485,522.063)">
                    <g transform="matrix(1,0,0,1,845.383,219.157)">
                        <path d="M1149.6,626.988C1149.6,622.095 1151.85,619.737 1155.11,619.737C1158.41,619.737 1160.15,622.176 1160.15,624.534L1163.4,624.534L1163.4,624.372C1163.4,620.593 1160.51,616.83 1155.1,616.83C1149.7,616.83 1146.26,620.415 1146.26,626.956L1146.26,629.766C1146.26,636.291 1149.65,639.78 1155.08,639.78C1160.72,639.78 1163.4,635.936 1163.4,632.577L1163.4,632.399L1160.15,632.399C1160.15,634.789 1158.45,636.873 1155.18,636.873C1151.82,636.873 1149.6,634.676 1149.6,629.75L1149.6,626.988Z" style="fill:white;fill-rule:nonzero;"/>
                        <path d="M1175.7,617.282L1167.47,617.282L1167.47,639.328L1170.76,639.328L1170.76,630.735L1175.64,630.735L1179.64,639.328L1183.41,639.328L1178.93,630.138C1180.78,629.46 1183,627.602 1183,623.984C1183,620.383 1180.71,617.282 1175.7,617.282ZM1170.76,628.006L1170.76,620.076L1175.25,620.076C1177.84,620.076 1179.56,621.449 1179.56,624.13C1179.56,626.617 1178.03,628.006 1175.15,628.006L1170.76,628.006Z" style="fill:white;fill-rule:nonzero;"/>
                        <path d="M1190.35,639.328L1190.35,623.774L1190.47,623.774L1196.39,637.18L1198.93,637.18L1204.84,623.774L1204.97,623.774L1204.97,639.328L1207.97,639.328L1207.97,617.282L1204.68,617.282L1197.72,633.4L1197.64,633.4L1190.66,617.282L1187.37,617.282L1187.37,639.328L1190.35,639.328Z" style="fill:white;fill-rule:nonzero;"/>
                    </g>
                    <g transform="matrix(0.71223,0,0,0.71223,567.77,205.18)">
                        <circle cx="2042.5" cy="782.5" r="69.5" style="fill:none;stroke:white;stroke-width:5.23px;stroke-linecap:round;"/>
                    </g>
                </g>
                <g transform="matrix(1,0,0,1,519.485,626.112)">
                    <g transform="matrix(1,0,0,1,845.383,219.157)">
                        <path d="M1119.71,633.271C1119.79,636.211 1121.84,639.78 1127.85,639.78C1132.68,639.78 1136.25,637.406 1136.25,633.077C1136.25,629.411 1133.79,627.844 1130.45,627.005L1126.77,626.068C1124.68,625.567 1123.68,624.485 1123.68,622.999C1123.68,620.819 1125.51,619.575 1128.12,619.575C1131.06,619.575 1132.58,621.174 1132.76,623.145L1135.97,623.145C1135.89,618.961 1132.24,616.781 1128.17,616.781C1124.02,616.781 1120.34,619.058 1120.34,623.241C1120.34,626.762 1122.89,628.442 1125.64,629.12L1129.35,630.057C1131.76,630.655 1132.89,631.608 1132.89,633.352C1132.89,635.565 1131.08,636.97 1128.14,636.97C1124.91,636.97 1123.18,635.274 1122.99,633.271L1119.71,633.271Z" style="fill:white;fill-rule:nonzero;"/>
                        <path d="M1146.66,639.618C1150.7,639.618 1152.93,637.309 1153.5,634.531L1150.35,634.531C1149.86,636.049 1148.6,636.986 1146.73,636.986C1144.16,636.986 1142.58,634.951 1142.58,631.931L1142.58,631.575L1153.71,631.575L1153.71,629.96C1153.71,625.212 1151.04,622.014 1146.54,622.014C1142.05,622.014 1139.33,625.131 1139.33,629.799L1139.33,631.591C1139.33,636.55 1142.16,639.618 1146.66,639.618ZM1142.58,629.185L1142.58,629.137C1142.58,626.617 1144.13,624.614 1146.55,624.614C1148.93,624.614 1150.49,626.601 1150.49,629.137L1150.49,629.185L1142.58,629.185Z" style="fill:white;fill-rule:nonzero;"/>
                        <path d="M1157.68,639.328L1160.93,639.328L1160.93,629.088C1160.93,626.811 1162.17,624.905 1164.85,624.905C1167.11,624.905 1168.74,626.229 1168.74,629.007L1168.74,639.328L1171.99,639.328L1171.99,628.394C1171.99,624.243 1169.45,622.03 1165.96,622.03C1163.17,622.03 1161.6,623.516 1161.01,624.63L1160.89,624.63L1160.89,622.305L1157.68,622.305L1157.68,639.328Z" style="fill:white;fill-rule:nonzero;"/>
                        <path d="M1175.8,627.231C1175.8,630.332 1178.37,631.365 1181.5,632.011C1183.81,632.464 1185.77,632.803 1185.77,634.628C1185.77,635.968 1184.67,637.099 1182.26,637.099C1180.14,637.099 1178.89,636.13 1178.68,634.676L1175.49,634.676C1175.49,637.729 1178.08,639.618 1182.04,639.618C1186.22,639.618 1188.95,637.648 1188.95,634.224C1188.95,630.962 1186.4,630.025 1183.21,629.46C1181.28,629.104 1178.95,628.749 1178.95,626.908C1178.95,625.373 1180.29,624.517 1182.18,624.517C1184.63,624.517 1185.41,625.923 1185.51,627.15L1188.48,627.15C1188.48,624.211 1186.3,622.014 1182.28,622.014C1178.9,622.014 1175.8,623.581 1175.8,627.231Z" style="fill:white;fill-rule:nonzero;"/>
                        <path d="M1199.49,622.014C1194.63,622.014 1192,625.47 1192,630.073L1192,631.495C1192,636.227 1194.63,639.618 1199.49,639.618C1204.34,639.618 1206.94,636.227 1206.94,631.495L1206.94,630.057C1206.94,625.454 1204.32,622.014 1199.49,622.014ZM1199.48,624.695C1202.24,624.695 1203.66,626.875 1203.66,630.138L1203.66,631.446C1203.66,634.676 1202.26,636.905 1199.48,636.905C1196.72,636.905 1195.28,634.66 1195.28,631.446L1195.28,630.138C1195.28,626.892 1196.72,624.695 1199.48,624.695Z" style="fill:white;fill-rule:nonzero;"/>
                        <path d="M1210.98,639.328L1214.27,639.328L1214.27,629.056C1214.27,626.762 1215.23,624.953 1218.16,624.953C1218.71,624.953 1219.31,624.986 1219.62,625.05L1219.62,622.127C1219.28,622.079 1218.89,622.046 1218.47,622.046C1216.08,622.046 1214.81,623.435 1214.35,624.469L1214.24,624.469L1214.24,622.305L1210.98,622.305L1210.98,639.328Z" style="fill:white;fill-rule:nonzero;"/>
                        <path d="M1221.91,627.231C1221.91,630.332 1224.48,631.365 1227.61,632.011C1229.92,632.464 1231.88,632.803 1231.88,634.628C1231.88,635.968 1230.78,637.099 1228.37,637.099C1226.26,637.099 1225,636.13 1224.79,634.676L1221.61,634.676C1221.61,637.729 1224.19,639.618 1228.15,639.618C1232.33,639.618 1235.06,637.648 1235.06,634.224C1235.06,630.962 1232.51,630.025 1229.33,629.46C1227.39,629.104 1225.06,628.749 1225.06,626.908C1225.06,625.373 1226.4,624.517 1228.29,624.517C1230.75,624.517 1231.52,625.923 1231.62,627.15L1234.59,627.15C1234.59,624.211 1232.41,622.014 1228.39,622.014C1225.01,622.014 1221.91,623.581 1221.91,627.231Z" style="fill:white;fill-rule:nonzero;"/>
                    </g>
                    <g transform="matrix(0.71223,0,0,0.71223,567.77,205.18)">
                        <circle cx="2042.5" cy="782.5" r="69.5" style="fill:none;stroke:white;stroke-width:5.23px;stroke-linecap:round;"/>
                    </g>
                </g>
                <g transform="matrix(1,0,0,1,246.221,668)">
                    <g transform="matrix(1,0,0,1,845.383,219.157)">
                        <path d="M1155.09,639.328L1159.55,622.692L1159.66,622.692L1164.12,639.328L1167.12,639.328L1173.11,617.282L1169.49,617.282L1165.51,634.03L1165.39,634.03L1161.19,617.282L1158.01,617.282L1153.8,634.03L1153.68,634.03L1149.69,617.282L1146.08,617.282L1152.07,639.328L1155.09,639.328Z" style="fill:white;fill-rule:nonzero;"/>
                        <path d="M1181.54,639.618C1185.58,639.618 1187.81,637.309 1188.37,634.531L1185.23,634.531C1184.74,636.049 1183.48,636.986 1181.61,636.986C1179.04,636.986 1177.46,634.951 1177.46,631.931L1177.46,631.575L1188.58,631.575L1188.58,629.96C1188.58,625.212 1185.92,622.014 1181.41,622.014C1176.92,622.014 1174.21,625.131 1174.21,629.799L1174.21,631.591C1174.21,636.55 1177.04,639.618 1181.54,639.618ZM1177.46,629.185L1177.46,629.137C1177.46,626.617 1179.01,624.614 1181.43,624.614C1183.8,624.614 1185.37,626.601 1185.37,629.137L1185.37,629.185L1177.46,629.185Z" style="fill:white;fill-rule:nonzero;"/>
                        <path d="M1200.92,639.586C1204.96,639.586 1207.61,636.582 1207.61,631.608L1207.61,629.993C1207.61,624.857 1204.88,622.046 1200.94,622.046C1198.76,622.046 1196.82,623.161 1195.98,624.679L1195.87,624.679L1195.87,616.119L1192.61,616.119L1192.61,639.328L1195.77,639.328L1195.77,636.744L1195.88,636.744C1196.84,638.488 1198.5,639.586 1200.92,639.586ZM1200.26,636.841C1197.5,636.841 1195.84,634.951 1195.84,631.43L1195.84,630.17C1195.84,626.665 1197.52,624.792 1200.26,624.792C1202.64,624.792 1204.3,626.682 1204.3,630.17L1204.3,631.462C1204.3,634.935 1202.65,636.841 1200.26,636.841Z" style="fill:white;fill-rule:nonzero;"/>
                    </g>
                    <g transform="matrix(0.71223,0,0,0.71223,567.77,205.18)">
                        <circle cx="2042.5" cy="782.5" r="69.5" style="fill:none;stroke:white;stroke-width:5.23px;stroke-linecap:round;"/>
                    </g>
                </g>
            </g>
        </g>
        <g id="Connections" transform="matrix(0.805014,0,0,0.805014,-390.054,31.6768)">
            <g opacity="0.5">
                <g transform="matrix(1.24221,-0,-0,1.24221,1903.96,709.146)">
                    <path d="M150.407,199.476L164.625,188.256L165.07,206.363L150.407,199.476Z" style="fill:white;"/>
                    <path d="M95.408,335.633C95.408,335.633 142.726,234.884 159.116,199.987" style="fill:none;stroke:white;stroke-width:3px;stroke-linecap:round;"/>
                </g>
                <g transform="matrix(1.24221,-0,-0,1.24221,1903.96,709.146)">
                    <path d="M227.242,203.842L236.468,188.256L243.401,204.989L227.242,203.842Z" style="fill:white;"/>
                    <path d="M232.096,249.869C232.096,249.869 234.268,219.252 235.551,201.184" style="fill:none;stroke:white;stroke-width:3px;stroke-linecap:round;"/>
                </g>
                <g transform="matrix(1.24221,-0,-0,1.24221,1903.96,709.146)">
                    <path d="M263.987,205.151L270.514,188.256L280.114,203.615L263.987,205.151Z" style="fill:white;"/>
                    <path d="M291.025,403.627C291.025,403.627 276.167,247.615 271.743,201.158" style="fill:none;stroke:white;stroke-width:3px;stroke-linecap:round;"/>
                </g>
                <g transform="matrix(1.24221,-0,-0,1.24221,1903.96,709.146)">
                    <path d="M341.164,206.359L341.75,188.256L355.88,199.586L341.164,206.359Z" style="fill:white;"/>
                    <path d="M387.515,287.705C387.515,287.705 359.284,226.358 347.168,200.029" style="fill:none;stroke:white;stroke-width:3px;stroke-linecap:round;"/>
                </g>
                <g transform="matrix(1.24221,-0,-0,1.24221,1903.96,709.146)">
                    <path d="M382.11,205.529L380.992,187.451L396.125,197.404L382.11,205.529Z" style="fill:white;"/>
                    <path d="M489.033,373.812C489.033,373.812 410.832,238.923 387.492,198.663" style="fill:none;stroke:white;stroke-width:3px;stroke-linecap:round;"/>
                </g>
            </g>
        </g>
    </g>
</svg>
