<?xml version="1.0" encoding="UTF-8"?>
<!DOCTYPE svg PUBLIC "-//W3C//DTD SVG 1.1//EN" "http://www.w3.org/Graphics/SVG/1.1/DTD/svg11.dtd">
<svg version="1.1" xmlns="http://www.w3.org/2000/svg" xmlns:xlink="http://www.w3.org/1999/xlink" width="100%" height="100%" viewBox="0, 0, 1024, 1024">
  <g id="No_Preview">
    <g id="Eye">
      <path d="M722.414,357.45 C812.043,386.811 889.18,442.7 952.693,511.544 C836.909,627.632 681.928,695.16 509.094,698.087 L509.375,698.047 C470.135,698.056 431.053,694.101 392.418,687.445 L429.582,650.282 C454.322,665.485 483.13,672.632 512,672.998 C600.917,672.998 672.998,600.917 672.998,512 C672.903,483.144 665.301,454.3 650.282,429.582 L722.414,357.45 z" fill="#000000"/>
      <path d="M510.744,325.913 C556.226,325.651 601.6,329.756 646.344,337.792 L604.144,379.992 C577.145,360.906 544.908,351.419 512,351.002 C423.084,351.002 351.002,423.083 351.002,512 C350.761,545.117 361.571,576.876 379.993,604.144 L315.812,668.324 C221.804,638.572 139.106,582.482 71.307,511.544 C181.549,386.322 334.504,329.734 510.744,325.913 z" fill="#000000"/>
      <path d="M611.909,471.345 C616.202,483.077 617.777,495.583 618.263,508 C618.263,568.344 569.344,617.263 509,617.263 C499.795,617.268 490.616,616.091 481.694,613.823 C478.529,613.018 475.457,611.884 472.339,610.915 L611.909,471.345 z" fill="#000000"/>
      <path d="M512.798,398.818 C521.706,399.013 530.459,400.572 539.004,403.016 C535.02,408.771 533.874,415.813 533.53,422.631 C533.682,430.919 536.106,439.568 541.466,446.061 L418.505,569.022 C405.818,551.137 400.286,529.686 399.737,508 C399.737,447.656 448.656,398.737 509,398.737 L512.798,398.818 z" fill="#000000"/>
    </g>
    <path d="M277.827,722.512 L729.298,271.042 C739.502,260.837 755.037,259.828 763.997,268.788 L763.997,268.788 C772.957,277.748 771.948,293.284 761.744,303.488 L310.274,754.958 C300.069,765.163 284.534,766.172 275.574,757.212 L275.574,757.212 C266.614,748.252 267.623,732.716 277.827,722.512 z" fill="#000000"/>
  </g>
</svg>
