<?xml version="1.0" encoding="UTF-8" standalone="no"?>
<!DOCTYPE svg PUBLIC "-//W3C//DTD SVG 1.1//EN" "http://www.w3.org/Graphics/SVG/1.1/DTD/svg11.dtd">
<svg width="100%" height="100%" viewBox="0 0 32 32" version="1.1" xmlns="http://www.w3.org/2000/svg" xmlns:xlink="http://www.w3.org/1999/xlink" xml:space="preserve" xmlns:serif="http://www.serif.com/" style="fill-rule:evenodd;clip-rule:evenodd;stroke-linejoin:round;stroke-miterlimit:2;">
    <g transform="matrix(1,0,0,1,-762,-1024)">
        <g id="Options" transform="matrix(1,0,0,1,177,119)">
            <g id="InOut">
            </g>
            <g id="Out">
            </g>
            <g id="In">
            </g>
            <g id="NoCheck">
            </g>
            <g id="rowOwnership">
            </g>
            <g id="NoUpdate">
            </g>
            <g id="NoFilter" transform="matrix(2.31546,0,0,2.31546,582.731,902.719)">
                <g transform="matrix(1,0,0,1,18.1265,0.00659774)">
                    <path d="M-10.237,0.978C-6.423,0.978 -3.326,4.075 -3.326,7.888C-3.326,11.702 -6.423,14.799 -10.237,14.799C-14.05,14.799 -17.147,11.702 -17.147,7.888C-17.147,4.075 -14.05,0.978 -10.237,0.978ZM-10.237,1.842C-13.574,1.842 -16.283,4.551 -16.283,7.888C-16.283,11.226 -13.574,13.935 -10.237,13.935C-6.899,13.935 -4.19,11.226 -4.19,7.888C-4.19,4.551 -6.899,1.842 -10.237,1.842Z"/>
                </g>
                <g transform="matrix(0.493576,0,0,0.493576,-375.119,-505.118)">
                    <path d="M784.158,1034.15L767.965,1034.14L774.267,1042.07L774.23,1048.15L777.75,1048.09L777.741,1042.05L784.158,1034.15Z"/>
                </g>
                <g transform="matrix(0.0197142,0.0197142,-0.349011,0.349011,328.878,-353.536)">
                    <path d="M898.615,975.83L806,976L806,980L830.753,979.709L898.615,975.83Z"/>
                </g>
                <g transform="matrix(0.0814112,0.0814112,-0.349011,0.349011,286.06,-396.354)">
                    <path d="M830,976L793.324,976.016L793.166,977.754L802.522,979.917L830,980L830,976Z"/>
                </g>
            </g>
            <g id="Unnest">
            </g>
        </g>
        <g id="Unnest1" serif:id="Unnest">
        </g>
        <g id="CRUD">
        </g>
    </g>
</svg>
