<?xml version="1.0" encoding="UTF-8" standalone="no"?>
<!DOCTYPE svg PUBLIC "-//W3C//DTD SVG 1.1//EN" "http://www.w3.org/Graphics/SVG/1.1/DTD/svg11.dtd">
<svg width="100%" height="100%" viewBox="0 0 16 16" version="1.1" xmlns="http://www.w3.org/2000/svg" xmlns:xlink="http://www.w3.org/1999/xlink" xml:space="preserve" xmlns:serif="http://www.serif.com/" style="fill-rule:evenodd;clip-rule:evenodd;stroke-linejoin:round;stroke-miterlimit:2;">
    <g id="notebook">
        <path id="Notebook" d="M1,1L2,0L12,0L13,1L13,14L12,15L2,15L1,14L1,1ZM2,1L2,14L12,14L12,1L2,1ZM15,5L14,5L14,7L15,7L15,5ZM14,8L15,8L15,10L14,10L14,8ZM15,11L14,11L14,13L15,13L15,11Z"/>
        <path d="M3,12L3,13L0,13L0,12L3,12ZM3,10L3,11L0,11L0,10L3,10ZM3,8L3,9L0,9L0,8L3,8ZM3,6L3,7L0,7L0,6L3,6ZM3,4L3,5L0,5L0,4L3,4ZM3,2L3,3L0,3L0,2L3,2Z"/>
        <g transform="matrix(1.14286,0,0,1,-1.07513,-0.000590513)">
            <path d="M4,4L5,3L9.125,3.002L10.125,4.002L10.125,5.002L9.125,6.002L5,6L4,5L4,4ZM4.878,4L4.878,5L9.249,5.002L9.249,4.002L4.878,4Z"/>
        </g>
    </g>
</svg>
