<?xml version="1.0" encoding="UTF-8"?>
<!DOCTYPE svg PUBLIC "-//W3C//DTD SVG 1.1//EN" "http://www.w3.org/Graphics/SVG/1.1/DTD/svg11.dtd">
<svg version="1.1" xmlns="http://www.w3.org/2000/svg" xmlns:xlink="http://www.w3.org/1999/xlink" width="100%" height="100%" viewBox="0, 0, 800, 360">
  <g id="blob">
    <g>
      <path d="M750.5,0.5 C778.114,0.5 800.5,22.886 800.5,50.5 L800.5,310.5 C800.5,338.114 778.114,360.5 750.5,360.5 L50.5,360.5 C22.886,360.5 0.5,338.114 0.5,310.5 L0.5,50.5 C0.5,22.886 22.886,0.5 50.5,0.5 L750.5,0.5 z M307.409,91 L268.159,91 L268.159,202 Q268.159,238.5 288.034,256 Q307.909,273.5 344.159,273.5 Q379.909,273.5 400.159,255.875 Q420.409,238.25 420.409,202 L420.409,91 L381.159,91 L381.159,202 Q381.159,222 373.159,231.375 Q365.159,240.75 344.159,240.75 Q332.159,240.75 325.034,237.375 Q317.909,234 313.909,228.625 Q309.909,223.25 308.659,216.25 Q307.409,209.25 307.409,202 L307.409,91 z M641.659,91 L602.409,91 L602.409,269.5 L728.659,269.5 L728.659,236.5 L641.659,236.5 L641.659,91 z M493.409,91 L454.159,91 L454.159,269.5 L580.409,269.5 L580.409,236.5 L493.409,236.5 L493.409,91 z M122.659,91 L83.659,91 L83.659,269.5 L120.409,269.5 L120.409,150 L120.909,150 L195.158,269.5 L234.408,269.5 L234.408,91 L197.658,91 L197.658,210.75 L197.158,210.75 L122.659,91 z" fill="#000000"/>
      <path d="M750.5,0.5 C778.114,0.5 800.5,22.886 800.5,50.5 L800.5,310.5 C800.5,338.114 778.114,360.5 750.5,360.5 L50.5,360.5 C22.886,360.5 0.5,338.114 0.5,310.5 L0.5,50.5 C0.5,22.886 22.886,0.5 50.5,0.5 L750.5,0.5 z M307.409,91 L268.159,91 L268.159,202 Q268.159,238.5 288.034,256 Q307.909,273.5 344.159,273.5 Q379.909,273.5 400.159,255.875 Q420.409,238.25 420.409,202 L420.409,91 L381.159,91 L381.159,202 Q381.159,222 373.159,231.375 Q365.159,240.75 344.159,240.75 Q332.159,240.75 325.034,237.375 Q317.909,234 313.909,228.625 Q309.909,223.25 308.659,216.25 Q307.409,209.25 307.409,202 L307.409,91 z M641.659,91 L602.409,91 L602.409,269.5 L728.659,269.5 L728.659,236.5 L641.659,236.5 L641.659,91 z M493.409,91 L454.159,91 L454.159,269.5 L580.409,269.5 L580.409,236.5 L493.409,236.5 L493.409,91 z M122.659,91 L83.659,91 L83.659,269.5 L120.409,269.5 L120.409,150 L120.909,150 L195.158,269.5 L234.408,269.5 L234.408,91 L197.658,91 L197.658,210.75 L197.158,210.75 L122.659,91 z" fill-opacity="0" stroke="#000000" stroke-width="1"/>
    </g>
  </g>
</svg>
