<?xml version="1.0" encoding="utf-8"?>
<!-- Generator: Adobe Illustrator 25.4.1, SVG Export Plug-In . SVG Version: 6.00 Build 0)  -->
<svg version="1.1" id="Layer_1" xmlns="http://www.w3.org/2000/svg" xmlns:xlink="http://www.w3.org/1999/xlink" width="100%" height="100%"
	 viewBox="0 0 841.9 1190.6" style="enable-background:new 0 0 841.9 1190.6;" xml:space="preserve">
<style type="text/css">
	.st0{fill:#464644;}
</style>
<g>
	<path class="st0" d="M682,327.4c0,0.4,0,0.9,0,1.3c-2.2,2-5,2-7.8,2c-37.7,0.1-75.4,0-113.1,0.1c-2.1,0-4.2-0.5-6.3-0.7
		c-1.5-0.4-1.3-1.5-1.1-2.6C596.5,327.4,639.3,327.4,682,327.4z"/>
	<path class="st0" d="M554.8,330c1.4-2.5,3.8-1.3,5.7-1.3c40.5-0.1,81,0,121.5,0c0.1,36.8,0.2,73.6,0.3,110.4c0,4.1,0,8.3,0,14
		c-15.3-16.7-29.6-32.2-44.4-48.3c-55.3,67.4-110.5,134.6-165.7,201.9c-45.9-44.5-91.3-88.5-136.6-132.7c-3.7-3.6-5.5-4.2-9.7-0.3
		c-64,59.2-128.3,118.2-192.5,177.2c-1.4,1.3-2.8,2.5-4.8,4.3c-7.9-10.8-15.7-21.4-23.3-32.1c-2.9-4-8.4-8-7.8-12.3
		c0.6-3.8,6.3-7,9.8-10.3C180.2,532.8,253,465,325.7,397.1c3.9-3.6,5.8-4,9.9,0c42.7,41.7,85.6,83.2,128.3,124.9
		c3.3,3.2,4.7,3.6,8-0.2c40.7-47.3,81.6-94.5,122.5-141.6c2.5-2.9,2.5-4.4-0.1-7.2C581.1,358.8,568,344.3,554.8,330z"/>
	<path class="st0" d="M326.6,734.4c0,40-0.2,80,0.2,119.9c0,6.1-1.9,7.1-7.4,7c-25.4-0.3-50.8-0.2-76.2,0c-4.5,0-5.6-1.3-5.6-5.7
		c0.1-81.2,0.1-162.5,0-243.7c0-4,0.9-5.4,5.2-5.3c26.2,0.2,52.5,0.2,78.7,0c4.2,0,5.2,1.2,5.2,5.2
		C326.6,652.7,326.6,693.5,326.6,734.4z"/>
	<path class="st0" d="M355.1,757.7c0-32.2,0.1-64.3-0.1-96.5c0-5,1.3-6.3,6.3-6.2c25.8,0.3,51.6,0.2,77.5,0c4.1,0,5.4,0.9,5.4,5.2
		c-0.1,65.4-0.1,130.7,0,196.1c0,4-1.2,5-5.1,4.9c-26.2-0.2-52.5-0.2-78.7,0c-4.8,0-5.3-1.8-5.3-5.9
		C355.2,822.9,355.1,790.3,355.1,757.7z"/>
	<path class="st0" d="M209.5,795.3c0,18.8-0.1,37.6,0.1,56.5c0,3.7-0.3,5.5-4.9,5.5c-25-0.3-49.9-0.2-74.9,0c-4.2,0-5.3-1.1-5.3-5.3
		c0.2-38.3,0.2-76.5,0-114.8c0-4.4,1.5-5.1,5.4-5.1c25,0.2,49.9,0.2,74.9,0c4.1,0,4.8,1.2,4.8,5
		C209.4,756.4,209.5,775.9,209.5,795.3z"/>
	<path class="st0" d="M622,578.6c-13.3,0-26.7-0.1-40,0.1c-3.6,0.1-4.7-1-4.7-4.6c0.2-19.9,0.2-39.8,0-59.7c0-3.6,1.1-4.6,4.6-4.5
		c26.5,0.1,52.9,0.1,79.4,0c3.8,0,5.1,0.8,5.1,4.9c-0.2,19.7-0.2,39.4,0,59c0,3.9-1.2,5-5,4.9C648.2,578.5,635.1,578.6,622,578.6z"
		/>
</g>
<path id="Settings-Icon" class="st0" d="M765.5,757.7c4.4,0,7.9-3.5,7.9-7.9v-31.6c0-4.4-3.5-7.9-7.9-7.9h-8.7
	c-9.8,0-18.6-6.1-22.1-15.3c-0.8-2.2-1.7-4.4-2.7-6.5c-4.1-9-2.2-19.5,4.7-26.5l6.2-6.2c3.1-3.1,3.1-8.1,0-11.2l-22.3-22.3
	c-3.1-3.1-8.1-3.1-11.2,0l-6.2,6.2c-7,6.9-17.6,8.8-26.5,4.7c-2.1-1-4.3-1.9-6.5-2.7c-9.2-3.5-15.2-12.3-15.3-22.1v-8.7
	c0-4.4-3.5-7.9-7.9-7.9h-31.6c-4.4,0-7.9,3.5-7.9,7.9v8.7c0,9.8-6.1,18.6-15.3,22.1c-2.2,0.8-4.4,1.7-6.5,2.7
	c-9,4.1-19.5,2.2-26.5-4.7l-6.2-6.2c-3.1-3.1-8.1-3.1-11.2,0l-22.3,22.3c-1.5,1.5-2.3,3.5-2.3,5.6c0,2.1,0.8,4.1,2.3,5.6l6.2,6.2
	c6.9,7,8.8,17.6,4.7,26.5c-1,2.1-1.9,4.3-2.7,6.5c-3.5,9.2-12.3,15.2-22.1,15.3h-8.7c-4.4,0-7.9,3.5-7.9,7.9v31.6
	c0,4.4,3.5,7.9,7.9,7.9h8.7c9.8,0,18.6,6.1,22.1,15.3c0.8,2.2,1.7,4.4,2.7,6.5c4.1,9,2.2,19.5-4.7,26.5l-6.2,6.2
	c-3.1,3.1-3.1,8.1,0,11.2l22.3,22.3c1.5,1.5,3.5,2.3,5.6,2.3s4.1-0.8,5.6-2.3l6.2-6.2c7-6.9,17.6-8.8,26.5-4.7
	c2.1,1,4.3,1.9,6.5,2.7c9.2,3.5,15.2,12.3,15.3,22.1v8.7c0,4.4,3.5,7.9,7.9,7.9h31.6c4.4,0,7.9-3.5,7.9-7.9v-8.7
	c0-9.8,6.1-18.6,15.3-22.1c2.2-0.8,4.4-1.7,6.5-2.7c9-4.1,19.5-2.2,26.5,4.7l6.2,6.2c3.1,3.1,8.1,3.1,11.2,0l22.3-22.3
	c1.5-1.5,2.3-3.5,2.3-5.6s-0.8-4.1-2.3-5.6l-6.2-6.2c-6.9-7-8.8-17.6-4.7-26.5c1-2.1,1.9-4.3,2.7-6.5c3.5-9.2,12.3-15.2,22.1-15.3
	H765.5z M694.6,735.2c0,1.3-0.1,2.5-0.2,3.8c-0.1,1.4-0.3,2.7-0.5,4.1c-1.5,10.3-5.1,20.1-10.6,29c-1,1.7-2.3,3.3-3.8,4.6
	c-5.4,5.1-11.5,9.5-18.1,13h0c-1.2,0.6-2.4,1.2-3.5,1.7c-0.9,0.4-1.8,0.9-2.7,1.2c-0.9,0.4-2,0.7-3,1.1c-1,0.4-1.9,0.7-2.9,1
	c-1.3,0.4-2.5,0.7-3.7,1c-0.7,0.2-1.3,0.3-2,0.5c-1.8,0.4-3.5,0.6-5.2,0.8c-0.2,0-0.5,0.1-0.7,0.1c-2.1,0.2-4.2,0.3-6.2,0.3
	c-1.1,0-2.2-0.2-3.3-0.2c-1.7-0.1-3.3-0.1-4.9-0.3c-2.5-0.3-5-0.8-7.4-1.4c-0.1,0-0.2,0-0.4-0.1c-28-7.2-47.6-32.5-47.7-61.4
	c0-28.9,19.6-54.2,47.6-61.5c2.3-0.5,4.5-1,6.8-1.3c0.8-0.1,1.6-0.2,2.4-0.3c1.5-0.2,3-0.2,4.5-0.3c0.7,0,1.4-0.1,2.1-0.1
	c13.6,0,26.9,4.4,37.8,12.6l1.2,0.9c0.9,0.7,1.8,1.4,2.6,2.2c0.7,0.6,1.4,1.3,2.1,1.9c0.6,0.5,1.2,1.1,1.7,1.7
	c1.1,1.1,2.1,2.2,3,3.3c0.2,0.2,0.4,0.5,0.6,0.7c2.4,2.9,4.5,6,6.3,9.2c0.1,0.2,0.1,0.3,0.2,0.5c1.2,2.1,2.2,4.3,3.1,6.6
	c0.4,1,0.7,1.9,1.1,2.9c0.5,1.4,0.9,2.8,1.3,4.3c0.3,1.1,0.6,2.3,0.9,3.4c0.4,1.8,0.6,3.5,0.9,5.3c0.2,1.7,0.3,3.4,0.4,5.1
	c0,0.9,0.1,1.8,0.1,2.8C694.6,734.5,694.6,734.8,694.6,735.2z"/>
</svg>
