<?xml version="1.0" encoding="UTF-8"?>
<!DOCTYPE svg PUBLIC "-//W3C//DTD SVG 1.1//EN" "http://www.w3.org/Graphics/SVG/1.1/DTD/svg11.dtd">
<svg version="1.1" xmlns="http://www.w3.org/2000/svg" xmlns:xlink="http://www.w3.org/1999/xlink" x="0" y="0" width="100%" height="100%" viewBox="0, 0, 1024, 1024">
  <g id="password.svg" transform="translate(0, 0)">
    <path d="M498.13,509.377 C508.121,509.377 516.22,501.277 516.22,491.286 C516.22,481.295 508.121,473.195 498.13,473.195 L302.466,473.195 C292.474,473.195 284.375,481.295 284.375,491.286 L284.375,603.849 C284.375,613.841 292.474,621.939 302.466,621.939 L565.722,621.939 C575.713,621.939 583.812,613.841 583.812,603.849 C583.812,593.857 575.713,585.759 565.722,585.759 L320.556,585.759 L320.556,509.377 L498.13,509.377" fill="#464644"/>
    <path d="M559.441,275.438 C569.434,275.438 577.532,267.338 577.532,257.347 C577.532,247.355 569.434,239.256 559.441,239.256 L302.466,239.256 C292.474,239.256 284.375,247.355 284.375,257.347 L284.375,369.91 C284.375,379.901 292.474,388 302.466,388 L496.406,388 C506.397,388 514.497,379.901 514.497,369.91 C514.497,359.918 506.397,351.819 496.406,351.819 L320.556,351.819 L320.556,275.438 L559.441,275.438" fill="#464644"/>
    <path d="M581.879,714.01 L170.292,714.01 C158.099,714.01 148.181,704.097 148.181,691.904 L148.181,169.291 C148.181,157.1 158.099,147.181 170.292,147.181 L833.61,147.181 C845.8,147.181 855.72,157.1 855.72,169.291 L855.72,231.212 C855.72,241.204 863.82,249.303 873.81,249.303 C883.8,249.303 891.9,241.204 891.9,231.212 L891.9,169.291 C891.9,137.15 865.75,111 833.61,111 L170.292,111 C138.15,111 112,137.15 112,169.291 L112,691.904 C112,724.04 138.15,750.2 170.292,750.2 L581.879,750.2 C591.869,750.2 599.969,742.1 599.969,732.11 C599.969,722.11 591.869,714.01 581.879,714.01" fill="#464644"/>
    <path d="M793.67,557.618 C787.37,560.617 783.36,566.974 783.36,573.949 L783.36,823 L731.864,868.72 L680.371,823 L680.371,782.69 L708.959,754.1 C716.023,747.04 716.023,735.58 708.959,728.52 L680.371,699.927 L680.371,692.377 L708.959,663.791 C716.023,656.727 716.023,645.273 708.959,638.206 L680.371,609.618 L680.371,573.949 C680.371,566.974 676.358,560.617 670.059,557.618 C620.156,533.851 587.91,482.808 587.91,427.583 C587.91,348.206 652.487,283.629 731.864,283.629 C811.24,283.629 875.82,348.206 875.82,427.583 C875.82,482.808 843.57,533.851 793.67,557.618 z M731.864,247.447 C632.537,247.447 551.729,328.256 551.729,427.583 C551.729,492.8 587.667,553.354 644.19,584.951 L644.19,617.11 C644.19,621.907 646.096,626.509 649.488,629.903 L670.583,650.999 L649.488,672.093 C646.096,675.486 644.19,680.087 644.19,684.885 L644.19,707.42 C644.19,712.22 646.096,716.82 649.488,720.21 L670.583,741.31 L649.488,762.4 C646.096,765.79 644.19,770.4 644.19,775.19 L644.19,831.13 C644.19,836.3 646.402,841.22 650.27,844.65 L719.854,906.44 C723.278,909.48 727.571,911 731.864,911 C736.157,911 740.45,909.48 743.876,906.44 L813.46,844.65 C817.33,841.22 819.54,836.3 819.54,831.13 L819.54,584.951 C876.06,553.354 912,492.8 912,427.583 C912,328.256 831.19,247.447 731.864,247.447" fill="#464644"/>
    <path d="M731.864,351.464 C711.916,351.464 695.684,367.696 695.684,387.645 C695.684,407.595 711.916,423.826 731.864,423.826 C751.814,423.826 768.05,407.595 768.05,387.645 C768.05,367.696 751.814,351.464 731.864,351.464" fill="#464644"/>
  </g>
</svg>
