<?xml version="1.0" encoding="UTF-8" standalone="no"?>
<!DOCTYPE svg PUBLIC "-//W3C//DTD SVG 1.1//EN" "http://www.w3.org/Graphics/SVG/1.1/DTD/svg11.dtd">
<svg width="100%" height="100%" viewBox="0 0 32 32" version="1.1" xmlns="http://www.w3.org/2000/svg" xmlns:xlink="http://www.w3.org/1999/xlink" xml:space="preserve" xmlns:serif="http://www.serif.com/" style="fill-rule:evenodd;clip-rule:evenodd;stroke-linejoin:round;stroke-miterlimit:2;">
    <g transform="matrix(1,0,0,1,-850,-1024)">
        <g id="Options" transform="matrix(1,0,0,1,177,119)">
            <g id="InOut">
            </g>
            <g id="Out">
            </g>
            <g id="In">
            </g>
            <g id="NoCheck">
            </g>
            <g id="rowOwnership" transform="matrix(2,0,0,2,673,905)">
                <path d="M9.5,15.861C9.013,15.953 8.516,16 8.016,16C6.419,16 4.858,15.521 3.536,14.625C3.456,14.561 3.392,14.498 3.312,14.45C3.152,14.338 3.008,14.226 2.864,14.114C2.864,14.098 2.848,14.098 2.832,14.082C1.104,12.612 0,10.422 0,7.992C0,3.58 3.584,0 8,0C12.393,0 15.963,3.544 16,7.925C15.753,7.584 15.408,7.232 14.932,6.962C14.43,3.594 11.506,0.991 8,0.991C4.144,0.991 0.992,4.14 0.992,7.992C0.992,9.91 1.776,11.636 3.04,12.915C3.04,12.899 3.04,12.867 3.056,12.835C3.21,12.333 3.442,11.859 3.744,11.429C4.048,11.013 4.416,10.63 4.832,10.31C5.153,10.062 5.502,9.852 5.872,9.686C5.696,9.574 5.536,9.447 5.392,9.303C5.152,9.063 4.928,8.807 4.768,8.519C4.592,8.232 4.464,7.928 4.368,7.592C4.272,7.273 4.224,6.937 4.224,6.585C4.219,6.081 4.317,5.58 4.512,5.115C4.701,4.668 4.972,4.262 5.312,3.916C5.653,3.566 6.061,3.289 6.512,3.101C6.978,2.906 7.479,2.808 7.984,2.813C8.489,2.808 8.99,2.905 9.456,3.1C9.903,3.289 10.31,3.56 10.656,3.9C11.002,4.244 11.28,4.651 11.472,5.099C11.667,5.564 11.765,6.065 11.76,6.569C11.76,6.584 11.76,6.599 11.76,6.615C11.28,6.726 10.902,6.902 10.604,7.109C10.639,6.936 10.656,6.757 10.656,6.569C10.656,6.218 10.592,5.866 10.448,5.546C10.304,5.227 10.112,4.939 9.872,4.699C9.632,4.46 9.344,4.268 9.024,4.124C8.704,3.98 8.368,3.916 8,3.916C7.648,3.916 7.296,3.98 6.976,4.124C6.656,4.268 6.368,4.459 6.128,4.699C5.888,4.939 5.696,5.226 5.552,5.546C5.408,5.866 5.344,6.218 5.344,6.569C5.34,6.921 5.411,7.27 5.552,7.592C5.679,7.91 5.87,8.198 6.112,8.44C6.357,8.681 6.645,8.876 6.96,9.015C7.621,9.287 8.363,9.287 9.024,9.015C9.207,8.934 9.381,8.835 9.543,8.718C9.502,8.915 9.5,9.041 9.5,9.041L9.5,10.609C9.025,10.43 8.517,10.338 8,10.342C7.633,10.341 7.267,10.389 6.912,10.485C6.56,10.581 6.24,10.709 5.936,10.885C5.648,11.061 5.36,11.284 5.12,11.524C4.864,11.764 4.656,12.036 4.48,12.34C4.299,12.651 4.159,12.984 4.064,13.331C4.032,13.459 4,13.586 3.984,13.714C5.12,14.513 6.496,14.993 8,14.993C8.507,14.992 9.01,14.937 9.5,14.829L9.5,15.861Z"/>
                <g transform="matrix(0.5,0,0,0.5,-425,-512)">
                    <path d="M882,1047L882,1053C882,1054.66 880.656,1056 879,1056L873,1056C871.344,1056 870,1054.66 870,1053L870,1047C870,1045.34 871.344,1044 873,1044L879,1044C880.656,1044 882,1045.34 882,1047ZM875,1050.73L875,1054L877,1054L877,1050.73C877.598,1050.39 878,1049.74 878,1049C878,1047.9 877.104,1047 876,1047C874.896,1047 874,1047.9 874,1049C874,1049.74 874.402,1050.39 875,1050.73Z"/>
                </g>
                <g transform="matrix(1,0,0,1,0,2)">
                    <path d="M10.5,7.5C10.5,6.12 11.62,5 13,5C14.38,5 15.5,6.12 15.5,7.5L15.5,8.5L14.5,8.5L14.5,7.5C14.5,6.672 13.828,6 13,6C12.172,6 11.5,6.672 11.5,7.5L11.5,8.5L10.5,8.5L10.5,7.5Z"/>
                </g>
            </g>
            <g id="NoUpdate">
            </g>
            <g id="NoFilter">
            </g>
            <g id="Unnest">
            </g>
        </g>
        <g id="Unnest1" serif:id="Unnest">
        </g>
        <g id="CRUD">
        </g>
    </g>
</svg>
