<?xml version="1.0" encoding="UTF-8" standalone="no"?>
<!DOCTYPE svg PUBLIC "-//W3C//DTD SVG 1.1//EN" "http://www.w3.org/Graphics/SVG/1.1/DTD/svg11.dtd">
<svg width="100%" height="100%" viewBox="0 0 16 16" version="1.1" xmlns="http://www.w3.org/2000/svg" xmlns:xlink="http://www.w3.org/1999/xlink" xml:space="preserve" xmlns:serif="http://www.serif.com/" style="fill-rule:evenodd;clip-rule:evenodd;stroke-linejoin:round;stroke-miterlimit:2;">
    <g id="runNotebook">
        <path id="Add-Notebook" serif:id="Add Notebook" d="M1,3L0,3L0,2L1,2L1,1L2,0L12,0L13,1L13,8L12,8L12,1L2,1L2,2L3,2L3,3L2,3L2,4L3,4L3,5L2,5L2,6L3,6L3,7L2,7L2,8L3,8L3,9L2,9L2,10L3,10L3,11L2,11L2,12L3,12L3,13L2,13L2,14L9,14L9,15L2,15L1,14L1,13L0,13L0,12L1,12L1,11L0,11L0,10L1,10L1,9L0,9L0,8L1,8L1,7L0,7L0,6L1,6L1,5L0,5L0,4L1,4L1,3ZM15,5L15,7L14,7L14,5L15,5Z"/>
        <g transform="matrix(1,0,0,1,4,4)">
            <path d="M6,5L6.777,4.584L11.277,7.584L11.277,8.416L6.777,11.416L6,11L6,5ZM7,5.934L7,10.066L10.099,8L7,5.934Z"/>
        </g>
        <g transform="matrix(1.14286,0,0,1,-1.07513,-0.000590513)">
            <path d="M4,4L5,3L9.125,3.002L10.125,4.002L10.125,5.002L9.125,6.002L5,6L4,5L4,4ZM4.878,4L4.878,5L9.249,5.002L9.249,4.002L4.878,4Z"/>
        </g>
    </g>
</svg>
