<?xml version="1.0" encoding="UTF-8" standalone="no"?>
<!DOCTYPE svg PUBLIC "-//W3C//DTD SVG 1.1//EN" "http://www.w3.org/Graphics/SVG/1.1/DTD/svg11.dtd">
<svg width="100%" height="100%" viewBox="0 0 16 16" version="1.1" xmlns="http://www.w3.org/2000/svg" xmlns:xlink="http://www.w3.org/1999/xlink" xml:space="preserve" xmlns:serif="http://www.serif.com/" style="fill-rule:evenodd;clip-rule:evenodd;stroke-linejoin:round;stroke-miterlimit:2;">
    <g id="schemaSqlite" transform="matrix(0.015625,0,0,0.015625,0,0)">
        <path d="M895.878,513.323L895.878,640.92L895.921,640.926C895.921,641.513 895.907,642.1 895.878,642.689L895.878,896.182L894.113,896.182L895.921,896.456C895.921,966.368 695.364,1023.05 447.96,1023.05C200.782,1023.05 0.361,966.47 0.001,896.635L0,896.635L0,128.122L0,128.122L-0,127.96C-0,57.367 200.56,0.139 447.96,0.139C555.655,0.139 654.473,10.983 731.729,29.064C723.234,44.032 713.119,64.505 702.14,88.467C631.6,73.407 543.478,64.753 447.96,64.753C309.027,64.753 185.74,83.063 109.449,112.76C99.242,116.733 88.436,122.634 79.637,127.96C88.436,133.285 99.242,139.186 109.449,143.159C185.74,172.857 309.027,191.166 447.96,191.166C527.431,191.166 601.782,185.176 665.147,174.459C655.869,197.067 646.572,220.471 637.611,243.728C580.021,251.484 515.749,255.781 447.96,255.781C284.998,255.781 142.358,230.95 63.991,193.833L63.991,375.133C64.962,375.823 74.294,382.439 79.637,385.641C88.436,390.916 99.242,396.76 109.449,400.694C185.74,430.106 309.027,448.239 447.96,448.239C490.891,448.239 532.328,446.507 571.335,443.236C569.816,451.241 569.413,456.842 570.304,459.521C573.322,468.588 577.894,485.827 582.627,506.343C540.115,510.191 494.88,512.23 447.96,512.23C284.998,512.23 142.358,487.639 63.991,450.879L63.991,630.418C64.962,631.108 74.294,637.724 79.637,640.926C88.436,646.2 99.242,652.044 109.449,655.979C185.74,685.39 309.027,703.523 447.96,703.523C507.23,703.523 563.652,700.223 614.788,694.125C620.962,714.344 629.471,735.853 639.941,755.279C581.751,763.144 516.662,767.515 447.96,767.515C284.998,767.515 142.358,742.924 63.991,706.164L63.991,885.948C64.962,886.637 74.294,893.254 79.637,896.456C88.436,901.73 99.242,907.574 109.449,911.509C185.74,940.92 309.027,959.053 447.96,959.053C586.895,959.053 710.182,940.92 786.473,911.509C796.679,907.574 807.485,901.73 816.285,896.456L831.887,886.911L831.887,706.184C814.707,714.237 794.446,721.705 771.561,728.459C771.702,706.739 770.91,683.378 772.652,660.999C777.417,659.37 782.025,657.694 786.473,655.979C796.679,652.045 807.485,646.201 816.285,640.926L831.887,631.381L831.887,562.483L832.269,562.319C851.069,554.813 873.842,534.458 895.878,513.323Z"/>
        <g id="feather" transform="matrix(5.90103,-1.55567e-31,-1.55567e-31,-5.90103,78.1473,1007.54)">
            <path d="M149.133,167.137C143.681,171.999 137.08,170.046 130.565,164.264C129.598,163.405 128.633,162.452 127.673,161.434C116.528,149.611 106.183,127.711 102.969,110.986C104.221,108.447 105.199,105.207 105.843,102.732C106.008,102.097 106.157,101.501 106.276,100.994C106.559,99.794 106.711,99.016 106.711,99.016C106.711,99.016 106.611,99.394 106.201,100.583C106.123,100.811 106.036,101.06 105.933,101.353C105.889,101.474 105.828,101.621 105.761,101.778C105.034,103.468 103.023,107.035 102.138,108.588C101.381,106.355 100.712,104.266 100.152,102.376C102.707,97.701 104.264,89.69 104.264,89.69C104.264,89.69 104.129,90.209 103.487,92.021C102.917,93.624 100.078,98.598 99.405,99.761C98.255,95.514 97.798,92.647 98.21,91.949C99.01,90.596 99.773,88.262 100.442,85.681C101.954,79.866 103.005,72.787 103.005,72.787C103.005,72.787 103.039,72.318 103.096,71.596C102.886,66.713 103.012,61.65 103.39,57.074C103.891,51.016 104.834,45.812 106.036,43.027L106.852,43.472C105.087,48.959 104.37,56.15 104.684,64.443C105.159,77.119 108.076,92.406 113.466,108.339C122.572,132.391 135.206,151.689 146.769,160.905C136.23,151.387 121.966,120.578 117.696,109.169C112.915,96.393 109.527,84.404 107.485,72.917C111.008,83.686 122.399,88.315 122.399,88.315C122.399,88.315 127.986,95.205 134.515,105.049C130.604,104.157 124.182,102.63 122.031,101.726C118.858,100.395 118.003,99.941 118.003,99.941C118.003,99.941 128.281,106.2 137.099,109.034C149.226,128.134 162.438,155.268 149.133,167.137" style="fill-rule:nonzero;"/>
        </g>
    </g>
</svg>
