<?xml version="1.0" encoding="UTF-8" standalone="no"?>
<!DOCTYPE svg PUBLIC "-//W3C//DTD SVG 1.1//EN" "http://www.w3.org/Graphics/SVG/1.1/DTD/svg11.dtd">
<svg width="100%" height="100%" viewBox="0 0 16 16" version="1.1" xmlns="http://www.w3.org/2000/svg" xmlns:xlink="http://www.w3.org/1999/xlink" xml:space="preserve" xmlns:serif="http://www.serif.com/" style="fill-rule:evenodd;clip-rule:evenodd;stroke-linejoin:round;stroke-miterlimit:2;">
    <g id="schemaRoutine">
        <path d="M14.996,6L14.996,14.996L1,14.996L1,1L9.494,1L9.494,2.999L2,2.999L2,13.997L13.997,13.997L13.997,6L14.996,6Z"/>
        <g transform="matrix(0.363297,0,0,0.363297,4.05613,4.16007)">
            <path d="M21.558,9.049C21.558,9.049 21.558,9.036 21.558,9.03C21.558,6.98 19.87,5.292 17.82,5.292C17.019,5.292 16.239,5.549 15.596,6.026C14.645,6.73 14.084,7.845 14.084,9.028C14.084,10.675 15.173,12.137 16.752,12.609C16.252,13.625 15.216,13.723 14.084,13.728L11.094,13.728C9.987,13.732 8.371,13.872 7.554,14.618L7.554,7.4C9.288,7.046 10.544,5.508 10.544,3.738C10.544,1.688 8.857,0.001 6.807,0.001C4.757,0.001 3.07,1.688 3.07,3.738C3.07,5.508 4.326,7.046 6.06,7.4L6.06,16.517C4.287,16.856 2.993,18.421 2.993,20.226C2.993,22.297 4.697,24.002 6.769,24.002C8.84,24.002 10.545,22.297 10.545,20.226C10.545,18.572 9.457,17.101 7.876,16.616C8.377,15.601 9.963,15.229 11.095,15.224L14.085,15.224C15.991,15.215 17.693,14.541 18.308,12.736C20.152,12.494 21.549,10.909 21.558,9.049ZM4.565,3.738C4.565,2.508 5.577,1.496 6.807,1.496C8.037,1.496 9.049,2.508 9.049,3.738C9.049,4.968 8.037,5.98 6.807,5.98C5.577,5.98 4.565,4.968 4.565,3.738ZM9.049,20.179C9.049,21.409 8.037,22.421 6.807,22.421C5.577,22.421 4.565,21.409 4.565,20.179C4.565,18.949 5.577,17.937 6.807,17.937C8.037,17.937 9.049,18.949 9.049,20.179ZM17.821,11.29C16.59,11.29 15.578,10.277 15.578,9.047C15.578,7.817 16.59,6.805 17.821,6.805C19.051,6.805 20.063,7.817 20.063,9.047C20.063,10.277 19.051,11.29 17.821,11.29Z" style="fill-rule:nonzero;"/>
        </g>
        <g id="javascript" transform="matrix(0.403188,0,0,0.403188,6.42147,-3.95205)">
            <g id="javascript1" serif:id="javascript">
                <path id="javascript2" serif:id="javascript" d="M11.4,10L14.1,10L14.1,17.6C14.1,21 12.5,22.2 9.8,22.2C9.2,22.2 8.3,22.1 7.8,21.9L8.1,19.7C8.5,19.9 9,20 9.5,20C10.6,20 11.4,19.5 11.4,17.6L11.4,10ZM16.5,19.2C17.2,19.6 18.4,20 19.5,20C20.8,20 21.4,19.5 21.4,18.7C21.4,17.9 20.8,17.5 19.4,17C17.4,16.3 16.1,15.2 16.1,13.4C16.1,11.3 17.8,9.8 20.7,9.8C22.1,9.8 23.1,10.1 23.8,10.4L23.2,12.6C22.7,12.4 21.9,12 20.7,12C19.5,12 18.9,12.5 18.9,13.2C18.9,14 19.6,14.3 21.1,14.9C23.2,15.7 24.2,16.8 24.2,18.5C24.2,20.5 22.6,22.2 19.3,22.2C17.9,22.2 16.6,21.8 15.9,21.5L16.5,19.2Z" style="fill-rule:nonzero;"/>
            </g>
        </g>
    </g>
</svg>
