<?xml version="1.0" encoding="UTF-8" standalone="no"?>
<!DOCTYPE svg PUBLIC "-//W3C//DTD SVG 1.1//EN" "http://www.w3.org/Graphics/SVG/1.1/DTD/svg11.dtd">
<svg width="100%" height="100%" viewBox="0 0 16 16" version="1.1" xmlns="http://www.w3.org/2000/svg" xmlns:xlink="http://www.w3.org/1999/xlink" xml:space="preserve" xmlns:serif="http://www.serif.com/" style="fill-rule:evenodd;clip-rule:evenodd;stroke-linejoin:round;stroke-miterlimit:2;">
    <g id="schemaProcedure">
        <g transform="matrix(0.015621,0,0,0.015621,0.000254762,0.000254762)">
            <path d="M960,64L960,960L64,960L64,64L960,64ZM896,192L128,192L128,896L896,896L896,192Z" style="fill-rule:nonzero;"/>
        </g>
        <g transform="matrix(0.363297,0,0,0.363297,4.05613,4.16007)">
            <path d="M21.558,9.049L21.558,9.03C21.558,6.98 19.87,5.292 17.82,5.292C17.019,5.292 16.239,5.549 15.596,6.026C14.645,6.73 14.084,7.845 14.084,9.028C14.084,10.675 15.173,12.137 16.752,12.609C16.252,13.625 15.216,13.723 14.084,13.728L11.094,13.728C9.987,13.732 8.371,13.872 7.554,14.618L7.554,7.4C9.288,7.046 10.544,5.508 10.544,3.738C10.544,1.688 8.857,0.001 6.807,0.001C4.757,0.001 3.07,1.688 3.07,3.738C3.07,5.508 4.326,7.046 6.06,7.4L6.06,16.517C4.287,16.856 2.993,18.421 2.993,20.226C2.993,22.297 4.697,24.002 6.769,24.002C8.84,24.002 10.545,22.297 10.545,20.226C10.545,18.572 9.457,17.101 7.876,16.616C8.377,15.601 9.963,15.229 11.095,15.224L14.085,15.224C15.991,15.215 17.693,14.541 18.308,12.736C20.152,12.494 21.549,10.909 21.558,9.049ZM4.565,3.738C4.565,2.508 5.577,1.496 6.807,1.496C8.037,1.496 9.049,2.508 9.049,3.738C9.049,4.968 8.037,5.98 6.807,5.98C5.577,5.98 4.565,4.968 4.565,3.738ZM9.049,20.179C9.049,21.409 8.037,22.421 6.807,22.421C5.577,22.421 4.565,21.409 4.565,20.179C4.565,18.949 5.577,17.937 6.807,17.937C8.037,17.937 9.049,18.949 9.049,20.179ZM17.821,11.29C16.59,11.29 15.578,10.277 15.578,9.047C15.578,7.817 16.59,6.805 17.821,6.805C19.051,6.805 20.063,7.817 20.063,9.047C20.063,10.277 19.051,11.29 17.821,11.29Z" style="fill-rule:nonzero;"/>
        </g>
    </g>
</svg>
