<?xml version="1.0" encoding="UTF-8" standalone="no"?>
<!DOCTYPE svg PUBLIC "-//W3C//DTD SVG 1.1//EN" "http://www.w3.org/Graphics/SVG/1.1/DTD/svg11.dtd">
<svg width="100%" height="100%" viewBox="0 0 16 16" version="1.1" xmlns="http://www.w3.org/2000/svg" xmlns:xlink="http://www.w3.org/1999/xlink" xml:space="preserve" xmlns:serif="http://www.serif.com/" style="fill-rule:evenodd;clip-rule:evenodd;stroke-linejoin:round;stroke-miterlimit:2;">
    <g transform="matrix(0.481772,-0.481772,0.482247,0.482247,-0.18698,7.46658)">
        <g id="key">
            <path d="M11.351,1.091C12.992,1.425 14.319,2.644 14.791,4.251C15.006,4.975 15.038,5.741 14.884,6.481C14.427,8.562 12.577,10.063 10.447,10.081C10.009,10.081 9.573,10.018 9.154,9.891L8.354,10.829L7.975,11.004L7,11.004L7,12.504L6.5,13.004L5,13.004L5,14.504L4.5,15.004L1.5,15.004L1,14.504L1,12.197L1.146,11.844L6.12,6.87C5.979,6.415 5.911,5.941 5.92,5.465C5.954,3.005 7.987,0.999 10.448,0.999C10.751,0.999 11.054,1.029 11.351,1.09L11.351,1.091ZM12.669,8.291C13.297,7.782 13.734,7.075 13.908,6.286L13.912,6.291C13.964,6.047 13.991,5.797 13.991,5.547C13.991,3.604 12.392,2.004 10.448,2.004C10.203,2.004 9.959,2.03 9.72,2.08C8.122,2.435 6.962,3.844 6.92,5.48C6.91,5.936 6.99,6.388 7.159,6.81L7.049,7.353L2,12.404L2,14.004L4,14.004L4,12.504L4.5,12.004L6,12.004L6,10.504L6.5,10.004L7.745,10.004L8.621,8.988L9.182,8.848C9.586,9.006 10.017,9.087 10.451,9.086C11.259,9.08 12.041,8.799 12.669,8.291ZM11.831,5.559C11.954,5.388 12.021,5.183 12.021,4.973C12.021,4.424 11.569,3.973 11.021,3.973C10.674,3.973 10.351,4.153 10.169,4.449C10.072,4.607 10.021,4.788 10.021,4.973C10.021,5.521 10.472,5.973 11.021,5.973C11.341,5.973 11.643,5.819 11.831,5.559Z"/>
        </g>
    </g>
</svg>
