<?xml version="1.0" encoding="UTF-8" standalone="no"?>
<!DOCTYPE svg PUBLIC "-//W3C//DTD SVG 1.1//EN" "http://www.w3.org/Graphics/SVG/1.1/DTD/svg11.dtd">
<svg width="100%" height="100%" viewBox="0 0 16 16" version="1.1" xmlns="http://www.w3.org/2000/svg" xmlns:xlink="http://www.w3.org/1999/xlink" xml:space="preserve" xmlns:serif="http://www.serif.com/" style="fill-rule:evenodd;clip-rule:evenodd;stroke-linejoin:round;stroke-miterlimit:2;">
    <g id="mle-library-folder">
        <path d="M7.71,3L14.5,3L15.01,3.5L15.01,7L14,7L14,5.99L7.69,5.99L6.83,6.85L6.48,7L1.99,7L1.99,13L7,13L7,14L1.51,14L1.01,13.5L1.01,2.5L1.51,2L6.51,2L6.86,2.15L7.71,3ZM7.49,5L13.99,5L14,4.01L7.5,4.01L7.14,3.86L6.29,3.01L2,3.01L2,6.01L6.28,6.01L7.14,5.15L7.49,5Z"/>
        <path d="M8,8L9,8L9,14L8,14L8,8ZM10,8L11,8L11,14L10,14L10,8ZM12.004,8.352L12.944,8.01L14.996,13.648L14.056,13.99L12.004,8.352Z" style="fill-rule:nonzero;"/>
    </g>
</svg>
