<?xml version="1.0" encoding="UTF-8" standalone="no"?>
<!DOCTYPE svg PUBLIC "-//W3C//DTD SVG 1.1//EN" "http://www.w3.org/Graphics/SVG/1.1/DTD/svg11.dtd">
<svg width="100%" height="100%" viewBox="0 0 16 16" version="1.1" xmlns="http://www.w3.org/2000/svg" xmlns:xlink="http://www.w3.org/1999/xlink" xml:space="preserve" xmlns:serif="http://www.serif.com/" style="fill-rule:evenodd;clip-rule:evenodd;stroke-linejoin:round;stroke-miterlimit:2;">
    <g id="SchemaTableIndexes" transform="matrix(1,0,0,1,-0.960307,0.002048)">
        <g id="Magnify" transform="matrix(1,0,0,1,-1.77273,0.0874496)">
            <path d="M9.489,3.029C11.48,3.256 13.028,4.948 13.028,7C13.028,7.741 12.826,8.436 12.473,9.032L15.978,12.536L14.563,13.95L13.963,13.35L14.778,12.536L11.273,9.032L11.34,8.911C11.769,8.392 12.028,7.726 12.028,7C12.028,6.278 11.772,5.615 11.346,5.098C10.934,4.336 10.281,3.724 9.489,3.365L9.489,3.029ZM10.228,10.814C9.991,10.89 9.744,10.944 9.489,10.972L9.489,10.637C9.617,10.581 9.74,10.516 9.859,10.446L10.228,10.814Z"/>
        </g>
        <g id="Magnify1" serif:id="Magnify" transform="matrix(1,0,0,1,0.327901,0.108544)">
            <path d="M9.489,3.029C11.48,3.256 13.028,4.948 13.028,7C13.028,7.741 12.826,8.436 12.473,9.032L15.978,12.536L14.563,13.95L13.963,13.35L14.778,12.536L11.273,9.032L11.34,8.911C11.769,8.392 12.028,7.726 12.028,7C12.028,6.278 11.772,5.615 11.346,5.098C10.934,4.336 10.281,3.724 9.489,3.365L9.489,3.029ZM10.228,10.814C9.991,10.89 9.744,10.944 9.489,10.972L9.489,10.637C9.617,10.581 9.74,10.516 9.859,10.446L10.228,10.814Z"/>
        </g>
        <g id="Magnify2" serif:id="Magnify" transform="matrix(1,0,0,1,-1.01088,0)">
            <path d="M8.031,10.445C7.436,10.798 6.741,11 6,11C3.792,11 2,9.208 2,7C2,4.792 3.792,3 6,3C8.208,3 10,4.792 10,7C10,7.741 9.798,8.436 9.445,9.031L12.95,12.536L11.536,13.95L8.031,10.445ZM6,4C7.656,4 9,5.344 9,7C9,8.656 7.656,10 6,10C4.344,10 3,8.656 3,7C3,5.344 4.344,4 6,4Z"/>
        </g>
    </g>
</svg>
