<?xml version="1.0" encoding="UTF-8" standalone="no"?>
<!DOCTYPE svg PUBLIC "-//W3C//DTD SVG 1.1//EN" "http://www.w3.org/Graphics/SVG/1.1/DTD/svg11.dtd">
<svg width="100%" height="100%" viewBox="0 0 16 16" version="1.1" xmlns="http://www.w3.org/2000/svg" xmlns:xlink="http://www.w3.org/1999/xlink" xml:space="preserve" xmlns:serif="http://www.serif.com/" style="fill-rule:evenodd;clip-rule:evenodd;stroke-linejoin:round;stroke-miterlimit:2;">
    <g id="shellTask">
        <g id="shellTask1" serif:id="shellTask">
            <g transform="matrix(0.761788,0,0,0.761788,-2.14268,-1.14268)">
                <path d="M6.882,4.125L5.438,5.625L5.438,19.687L6.938,21.187L18.375,21.187L19.875,19.687L19.875,5.625L18.375,4.125L6.882,4.125ZM6.751,19.878L6.751,5.424L18.565,5.424L18.565,19.878L6.751,19.878Z"/>
            </g>
            <path d="M11,5.25C11,5.112 10.888,5 10.75,5L4.25,5C4.112,5 4,5.112 4,5.25L4,5.75C4,5.888 4.112,6 4.25,6L10.75,6C10.888,6 11,5.888 11,5.75L11,5.25Z"/>
            <path d="M11,8.25C11,8.112 10.888,8 10.75,8L4.25,8C4.112,8 4,8.112 4,8.25L4,8.75C4,8.888 4.112,9 4.25,9L10.75,9C10.888,9 11,8.888 11,8.75L11,8.25Z"/>
            <path d="M11,11.25C11,11.112 10.888,11 10.75,11L4.25,11C4.112,11 4,11.112 4,11.25L4,11.75C4,11.888 4.112,12 4.25,12L10.75,12C10.888,12 11,11.888 11,11.75L11,11.25Z"/>
            <path d="M6.087,1C6.292,0.417 6.848,0 7.5,0C8.152,0 8.708,0.417 8.913,1L9.466,1C9.761,1 10,1.239 10,1.534L10,3.466C10,3.761 9.761,4 9.466,4L5.534,4C5.239,4 5,3.761 5,3.466L5,1.534C5,1.239 5.239,1 5.534,1L6.087,1ZM7.5,0.822C7.874,0.822 8.178,1.126 8.178,1.5C8.178,1.874 7.874,2.178 7.5,2.178C7.126,2.178 6.822,1.874 6.822,1.5C6.822,1.126 7.126,0.822 7.5,0.822Z"/>
        </g>
    </g>
</svg>
