<?xml version="1.0" encoding="UTF-8" standalone="no"?>
<!DOCTYPE svg PUBLIC "-//W3C//DTD SVG 1.1//EN" "http://www.w3.org/Graphics/SVG/1.1/DTD/svg11.dtd">
<svg width="100%" height="100%" viewBox="0 0 32 32" version="1.1" xmlns="http://www.w3.org/2000/svg" xmlns:xlink="http://www.w3.org/1999/xlink" xml:space="preserve" xmlns:serif="http://www.serif.com/" style="fill-rule:evenodd;clip-rule:evenodd;stroke-linejoin:round;stroke-miterlimit:2;">
    <g transform="matrix(1,0,0,1,-124,-11)">
        <g id="Layer1">
        </g>
        <g transform="matrix(0.962696,0,0,0.962696,-1638.1,-1873.36)">
            <g id="Disabled">
                <path d="M1847,1957.38C1856.17,1957.38 1863.62,1964.83 1863.62,1974C1863.62,1983.17 1856.17,1990.62 1847,1990.62C1837.83,1990.62 1830.38,1983.17 1830.38,1974C1830.38,1964.83 1837.83,1957.38 1847,1957.38ZM1851.55,1964.81C1850.18,1964.13 1848.63,1963.75 1847,1963.75C1841.34,1963.75 1836.75,1968.34 1836.75,1974C1836.75,1975.63 1837.13,1977.18 1837.81,1978.55L1851.55,1964.81ZM1842.42,1983.18C1843.8,1983.87 1845.36,1984.25 1847,1984.25C1852.66,1984.25 1857.25,1979.66 1857.25,1974C1857.25,1972.36 1856.87,1970.8 1856.18,1969.42L1842.42,1983.18Z"/>
            </g>
        </g>
    </g>
</svg>
