<?xml version="1.0" encoding="UTF-8"?>
<!DOCTYPE svg PUBLIC "-//W3C//DTD SVG 1.1//EN" "http://www.w3.org/Graphics/SVG/1.1/DTD/svg11.dtd">
<svg version="1.1" xmlns="http://www.w3.org/2000/svg" xmlns:xlink="http://www.w3.org/1999/xlink" width="100%" height="100%" viewBox="0, 0, 1024, 1024">
  <g id="under-construction.svg" transform="translate(0, 0)">
    <path d="M518.229,8.671 C528.479,9.754 537.429,14.171 544.855,21.23 L1002.77,479.145 C1019.781,496.156 1019.781,523.737 1002.77,540.748 L540.748,1002.769 C523.737,1019.781 496.156,1019.781 479.145,1002.77 L21.23,544.855 C4.219,527.844 4.219,500.263 21.23,483.252 L483.252,21.23 C490.386,14.294 499.829,9.394 509.878,8.671 C512.654,8.472 515.445,8.671 518.229,8.671 z M513.975,39.797 C507.414,39.373 502.264,41.367 497.429,45.738 L45.738,497.429 C37.691,505.476 37.691,518.523 45.738,526.571 L497.429,978.262 C505.476,986.309 518.523,986.309 526.571,978.262 L978.262,526.571 C986.309,518.523 986.309,505.476 978.262,497.429 L526.571,45.738 C522.38,41.719 519.47,40.862 513.975,39.797 z" fill="#000000"/>
    <path d="M514.021,78.131 C516.227,78.594 517.862,79.573 519.481,81.037 L942.925,504.48 C947.057,508.612 947.057,515.311 942.925,519.443 L519.481,942.886 C515.35,947.018 508.651,947.018 504.519,942.886 L81.075,519.443 C76.943,515.311 76.943,508.612 81.075,504.48 L504.518,81.037 C507.249,78.453 508.868,78.248 512.45,78.126 L514.021,78.131 z M673,642.821 L639.499,643 L593.715,697.179 L627.216,697 L673,642.821 z M734,642.821 L700.499,643 L654.715,697.179 L688.216,697 L734,642.821 z M612.251,642.821 L578.75,643 L532.966,697.179 L566.467,697 L612.251,642.821 z M494,642.821 L460.499,643 L414.715,697.179 L448.216,697 L494,642.821 z M375.643,642.821 L342.142,643 L296.357,697.179 L329.859,697 L375.643,642.821 z M435,642.821 L401.499,643 L355.715,697.179 L389.216,697 L435,642.821 z M552.435,642.821 L518.933,643 L473.149,697.179 L506.65,697 L552.435,642.821 z M785,617 L239,617 L239,634 L785,634 L785,617 z M523.41,553.632 L514.73,553.632 L514.73,581.282 Q514.73,585.062 515.43,588.142 Q516.13,591.222 517.81,593.392 Q519.49,595.562 522.325,596.717 Q525.16,597.872 529.36,597.872 Q533.63,597.872 536.5,596.717 Q539.37,595.562 541.12,593.392 Q542.87,591.222 543.57,588.142 Q544.27,585.062 544.27,581.282 L544.27,553.632 L535.66,553.632 L535.66,580.652 Q535.66,583.382 535.38,585.237 Q535.1,587.092 534.4,588.247 Q533.7,589.402 532.51,589.892 Q531.32,590.382 529.5,590.382 Q527.68,590.382 526.49,589.892 Q525.3,589.402 524.635,588.282 Q523.97,587.162 523.69,585.307 Q523.41,583.452 523.41,580.722 L523.41,553.632 z M669.5,552.651 L669.5,552.651 Q662.15,552.652 658.02,558.357 Q653.89,564.062 653.89,575.262 Q653.89,586.462 657.915,592.167 Q661.94,597.872 669.57,597.872 Q676.99,597.872 681.05,592.167 Q685.11,586.462 685.11,575.262 Q685.11,564.062 681.12,558.357 Q677.13,552.652 669.5,552.652 z M669.5,560.141 Q671.74,560.142 673.07,561.332 Q674.4,562.522 675.135,564.552 Q675.87,566.582 676.115,569.346 Q676.36,572.112 676.36,575.262 Q676.36,578.412 676.115,581.142 Q675.87,583.872 675.135,585.937 Q674.4,588.002 673.035,589.192 Q671.67,590.382 669.5,590.382 Q667.26,590.382 665.93,589.192 Q664.6,588.002 663.865,585.971 Q663.13,583.942 662.885,581.177 Q662.64,578.412 662.64,575.262 Q662.64,572.112 662.885,569.382 Q663.13,566.652 663.865,564.587 Q664.6,562.522 665.93,561.332 C666.909,560.42 668.226,560.231 669.5,560.141 L669.5,560.141 z M323.56,552.651 L323.56,552.651 Q319.29,552.652 315.685,554.157 Q312.08,555.662 309.455,558.567 Q306.83,561.472 305.36,565.672 Q303.89,569.872 303.89,575.262 Q303.89,586.112 308.72,591.992 Q313.55,597.872 322.72,597.872 Q326.78,597.872 329.895,596.927 Q333.01,595.982 334.83,594.862 L332.66,588.071 Q331.33,588.842 329.125,589.612 Q326.92,590.382 323.56,590.382 Q317.75,590.382 315.195,586.427 Q312.64,582.472 312.64,575.052 Q312.64,570.782 313.585,567.911 Q314.53,565.042 316.035,563.327 Q317.54,561.612 319.465,560.877 Q321.39,560.142 323.42,560.142 Q326.36,560.142 328.635,560.877 Q330.91,561.612 332.52,562.661 L334.76,555.802 Q334.27,555.522 333.325,554.962 Q332.38,554.402 330.98,553.911 Q329.58,553.422 327.725,553.036 Q325.87,552.652 323.56,552.652 z M354.5,552.651 L354.5,552.651 Q347.15,552.652 343.02,558.357 Q338.89,564.062 338.89,575.262 Q338.89,586.462 342.915,592.167 Q346.94,597.872 354.57,597.872 Q361.99,597.872 366.05,592.167 Q370.11,586.462 370.11,575.262 Q370.11,564.062 366.12,558.357 Q362.13,552.652 354.5,552.652 z M354.5,560.141 Q356.74,560.142 358.07,561.332 Q359.4,562.522 360.135,564.552 Q360.87,566.582 361.115,569.346 Q361.36,572.112 361.36,575.262 Q361.36,578.412 361.115,581.142 Q360.87,583.872 360.135,585.937 Q359.4,588.002 358.035,589.192 Q356.67,590.382 354.5,590.382 Q352.26,590.382 350.93,589.192 Q349.6,588.002 348.865,585.971 Q348.13,583.942 347.885,581.177 Q347.64,578.412 347.64,575.262 Q347.64,572.112 347.885,569.382 Q348.13,566.652 348.865,564.587 Q349.6,562.522 350.93,561.332 C351.909,560.42 353.226,560.231 354.5,560.141 L354.5,560.141 z M425.27,552.651 L425.27,552.651 Q418.34,552.652 414.385,556.082 Q410.43,559.512 410.43,565.602 Q410.43,568.682 411.55,570.747 Q412.67,572.812 414.385,574.212 Q416.1,575.612 418.2,576.522 Q420.3,577.432 422.26,578.132 Q423.73,578.692 425.2,579.357 Q426.67,580.022 427.86,580.827 Q429.05,581.632 429.82,582.682 Q430.59,583.732 430.59,585.062 Q430.59,586.112 430.275,587.127 Q429.96,588.142 429.12,588.947 Q428.28,589.752 426.845,590.207 Q425.41,590.662 423.24,590.661 Q419.46,590.662 416.835,589.682 Q414.21,588.702 412.32,587.582 L409.8,594.581 Q411.41,595.562 414.63,596.717 Q417.85,597.872 423.24,597.872 Q431.29,597.872 435.245,594.547 Q439.2,591.222 439.2,585.132 Q439.2,581.562 438.01,579.217 Q436.82,576.872 434.965,575.297 Q433.11,573.722 430.905,572.777 Q428.7,571.832 426.67,571.062 Q425.34,570.572 423.975,570.012 Q422.61,569.452 421.525,568.717 Q420.44,567.982 419.74,567.036 Q419.04,566.092 419.04,564.832 Q419.04,559.862 425.9,559.862 Q428.7,559.862 430.835,560.562 Q432.97,561.262 434.72,562.242 L437.24,555.591 Q435.21,554.472 432.235,553.562 Q429.26,552.652 425.27,552.652 z M568.56,552.651 L566.466,552.746 C561.888,553.621 563.788,553.049 560.685,554.157 Q557.08,555.662 554.455,558.567 Q551.83,561.472 550.36,565.672 Q548.89,569.872 548.89,575.262 Q548.89,586.112 553.72,591.992 Q558.55,597.872 567.72,597.872 Q571.78,597.872 574.895,596.927 Q578.01,595.982 579.83,594.862 L577.66,588.071 Q576.33,588.842 574.125,589.612 Q571.92,590.382 568.56,590.382 Q562.75,590.382 560.195,586.427 Q557.64,582.472 557.64,575.052 Q557.64,570.782 558.585,567.911 Q559.53,565.042 561.035,563.327 Q562.54,561.612 564.465,560.877 Q566.39,560.142 568.42,560.142 Q571.36,560.142 573.635,560.877 Q575.91,561.612 577.52,562.661 L579.76,555.802 Q579.27,555.522 578.325,554.962 Q577.38,554.402 575.98,553.911 Q574.58,553.422 572.725,553.036 L570.756,552.748 L568.56,552.651 z M615.25,553.631 L583.75,553.631 L583.75,560.771 L595.16,560.771 L595.16,596.961 L603.84,596.961 L603.84,560.771 L615.25,560.771 L615.25,553.631 z M475.25,553.631 L443.75,553.631 L443.75,560.771 L455.16,560.771 L455.16,596.961 L463.84,596.961 L463.84,560.771 L475.25,560.771 L475.25,553.631 z M382.15,553.631 L375.22,553.631 L375.22,596.961 L382.99,596.961 L382.99,568.192 Q386.98,575.402 390.445,582.577 Q393.91,589.752 396.85,596.962 L403.78,596.961 L403.78,553.631 L396.01,553.631 L396.01,580.302 Q394.89,577.782 393.315,574.422 Q391.74,571.062 389.885,567.492 Q388.03,563.922 386.07,560.317 Q384.11,556.712 382.15,553.632 z M491.98,553.141 L491.98,553.141 L491.98,553.141 Q490.93,553.142 489.53,553.212 Q488.13,553.282 486.59,553.387 Q485.05,553.492 483.545,553.737 Q482.04,553.982 480.78,554.262 L480.78,596.961 L489.39,596.961 L489.39,581.002 L493.87,581.002 Q496.32,584.992 498.455,588.877 Q500.59,592.762 502.2,596.962 L511.23,596.961 Q510.39,594.792 509.235,592.377 Q508.08,589.962 506.82,587.547 Q505.56,585.132 504.23,582.927 Q502.9,580.722 501.71,578.902 Q505.28,577.292 506.82,574.212 Q508.36,571.132 508.36,567.352 Q508.36,563.712 507.205,561.017 Q506.05,558.322 503.88,556.572 Q501.71,554.822 498.7,553.982 Q495.69,553.142 491.98,553.141 z M493.612,560.732 C496.804,561.661 495.562,561.03 497.51,562.242 Q499.61,563.852 499.61,567.282 Q499.61,570.432 497.65,572.147 Q495.69,573.862 491.28,573.862 L489.39,573.862 L489.39,560.841 Q490.09,560.702 490.79,560.667 C491.618,560.633 491.221,560.644 491.98,560.631 L493.612,560.732 z M648.29,553.631 L620.78,553.631 L620.78,560.771 L630.23,560.771 L630.23,589.821 L620.78,589.821 L620.78,596.961 L648.29,596.961 L648.29,589.821 L638.91,589.821 L638.91,560.771 L648.29,560.771 L648.29,553.631 z M697.15,553.631 L690.22,553.631 L690.22,596.961 L697.99,596.961 L697.99,568.192 Q701.98,575.402 705.445,582.577 Q708.91,589.752 711.85,596.962 L718.78,596.961 L718.78,553.631 L711.01,553.631 L711.01,580.302 Q709.89,577.782 708.315,574.422 Q706.74,571.062 704.885,567.492 Q703.03,563.922 701.07,560.317 Q699.11,556.712 697.15,553.632 z M327.21,423.482 L306.13,423.482 L306.13,490.632 Q306.13,499.812 307.83,507.292 Q309.53,514.772 313.61,520.042 Q317.69,525.312 324.575,528.117 Q331.46,530.922 341.66,530.922 Q352.03,530.922 359,528.117 Q365.97,525.312 370.22,520.042 Q374.47,514.772 376.17,507.292 Q377.87,499.812 377.87,490.632 L377.87,423.482 L356.96,423.482 L356.96,489.102 Q356.96,495.732 356.28,500.237 Q355.6,504.742 353.9,507.547 Q352.2,510.352 349.31,511.542 Q346.42,512.732 342,512.732 Q337.58,512.732 334.69,511.542 Q331.8,510.352 330.185,507.632 Q328.57,504.912 327.89,500.407 Q327.21,495.902 327.21,489.272 L327.21,423.482 z M503.84,422.292 L503.84,422.292 Q498.4,422.292 492.11,422.802 Q485.82,423.312 478.68,424.842 L478.68,527.521 Q484.8,528.882 490.155,529.477 Q495.51,530.072 501.12,530.072 Q511.83,530.072 520.755,527.097 Q529.68,524.122 536.14,517.662 Q542.6,511.202 546.255,500.917 Q549.91,490.632 549.91,476.012 Q549.91,461.732 546.595,451.617 Q543.28,441.502 537.33,434.957 Q531.38,428.412 522.795,425.352 Q514.21,422.292 503.84,422.292 L503.84,422.292 z M505.71,440.482 L507.412,440.528 C510.898,440.675 514.133,441.65 517.1,443.457 Q521.52,446.432 524.07,451.362 Q526.62,456.292 527.64,462.752 Q528.66,469.212 528.66,476.012 Q528.66,483.832 527.385,490.377 Q526.11,496.922 523.135,501.682 Q520.16,506.442 515.315,509.162 Q510.47,511.882 503.33,511.882 L501.46,511.882 Q500.44,511.882 499.59,511.712 L499.59,440.991 Q500.95,440.652 502.65,440.567 C504.746,440.484 503.726,440.511 505.71,440.482 z M675.88,422.292 L675.88,422.292 Q673.33,422.292 669.93,422.462 Q666.53,422.632 662.79,422.887 Q659.05,423.142 655.395,423.737 Q651.74,424.332 648.68,425.012 L648.68,528.711 L669.59,528.711 L669.59,489.952 L680.47,489.952 Q686.42,499.642 691.605,509.077 Q696.79,518.512 700.7,528.712 L722.63,528.711 Q720.59,523.442 717.785,517.577 Q714.98,511.712 711.92,505.847 Q708.86,499.982 705.63,494.627 Q702.4,489.272 699.51,484.852 Q708.18,480.942 711.92,473.462 Q715.66,465.982 715.66,456.802 Q715.66,447.962 712.855,441.417 Q710.05,434.872 704.78,430.622 Q699.51,426.372 692.2,424.332 Q684.89,422.292 675.88,422.292 L675.88,422.292 z M675.88,440.482 L677.912,440.543 C682.091,440.749 685.886,442.024 689.31,444.392 Q694.41,448.302 694.41,456.632 Q694.41,464.282 689.65,468.447 Q684.89,472.612 674.18,472.612 L669.59,472.612 L669.59,440.991 Q671.29,440.652 672.99,440.567 C675.001,440.485 674.038,440.511 675.88,440.482 z M409.15,423.482 L392.32,423.482 L392.32,528.711 L411.19,528.711 L411.19,458.841 Q420.88,476.352 429.295,493.777 Q437.71,511.202 444.85,528.712 L461.68,528.711 L461.68,423.482 L442.81,423.482 L442.81,488.251 Q440.09,482.132 436.265,473.972 Q432.44,465.812 427.935,457.142 Q423.43,448.472 418.67,439.717 Q413.91,430.962 409.15,423.482 L409.15,423.482 z M628.96,423.482 L565.21,423.482 L565.21,528.711 L632.7,528.711 L632.7,511.371 L586.12,511.371 L586.12,481.792 L623.35,481.792 L623.35,464.452 L586.12,464.452 L586.12,440.822 L628.96,440.822 L628.96,423.482 z M535.468,304.515 C535.468,304.515 517.718,321.765 517.968,321.515 C518.218,321.265 549.968,353.015 553.468,358.015 C556.968,363.015 554.218,364.515 552.718,370.265 C551.218,376.015 551.718,376.265 553.968,384.515 C556.218,392.765 569.949,401.695 574.218,405.015 C578.718,408.515 578.718,406.137 578.218,403.015 C577.718,399.893 573.468,393.515 571.718,388.015 C569.968,382.515 572.218,377.265 577.718,372.515 C583.218,367.765 588.968,367.515 595.718,369.265 C602.468,371.015 603.574,380.687 606.468,386.765 C608.968,392.015 610.468,390.765 611.968,386.765 C613.468,382.765 614.718,373.265 614.468,372.765 C614.218,372.265 613.468,359.015 609.468,354.515 C605.468,350.015 595.968,347.765 589.468,348.015 C582.968,348.265 578.968,347.515 573.968,342.015 C568.968,336.515 535.468,304.515 535.468,304.515 z M562.946,195.594 L562.946,195.594 C560.835,196.029 560.299,196.161 558.5,197.462 C556.5,198.712 544.56,210.332 543.25,212.462 C541.25,215.712 541.5,216.962 544.25,219.462 C547,221.962 552.5,228.962 552.5,228.962 L559.431,235.33 C526.354,268.252 493.026,300.92 459.831,333.721 C448.105,345.308 435.978,356.634 424.75,368.712 C422.75,371.462 420.75,376.212 423.25,379.212 C425.75,382.212 430.5,387.462 434,391.212 C437.5,394.962 440,394.712 445,390.962 C489.966,345.675 533.852,299.299 577.913,253.125 C582.046,256.903 580.152,255.329 583.5,257.962 C587.977,261.218 612.25,279.212 617.189,282.205 C622.127,285.199 621.657,283.119 621.75,283.212 C622.25,283.712 627.75,277.962 627.75,277.962 C627.75,277.962 630.25,276.462 627.75,272.212 C625.25,267.962 603.5,235.462 603.5,235.462 C603.5,235.462 571.25,202.712 566,197.462 C565.132,196.467 564.335,195.773 562.946,195.594 L562.946,195.594 z M447.896,194.992 L447.593,195.063 C446.474,195.852 447.188,197.626 447.25,198.712 C447.75,201.834 452,208.212 453.75,213.712 C455.5,219.212 453.25,224.462 447.75,229.212 C442.25,233.962 436.5,234.212 429.75,232.462 C423,230.712 421.894,221.039 419,214.962 C416.5,209.712 415,210.962 413.5,214.962 C412,218.962 410.75,228.462 411,228.962 C411.25,229.462 412,242.712 416,247.212 C420,251.712 429.5,253.962 436,253.712 C442.5,253.462 446.5,254.212 451.5,259.712 C456.5,265.212 490,297.212 490,297.212 C490,297.212 507.75,279.962 507.5,280.212 C507.25,280.462 475.5,248.712 472,243.712 C468.5,238.712 471.25,237.212 472.75,231.462 C474.25,225.712 473.75,225.462 471.5,217.212 C469.25,208.962 455.519,200.032 451.25,196.712 C450.317,196.018 449.384,195.272 448.228,194.996 L447.896,194.992 z" fill="#000000"/>
  </g>
</svg>
