<?xml version="1.0" encoding="UTF-8" standalone="no"?>
<!DOCTYPE svg PUBLIC "-//W3C//DTD SVG 1.1//EN" "http://www.w3.org/Graphics/SVG/1.1/DTD/svg11.dtd">
<svg width="100%" height="100%" viewBox="0 0 16 16" version="1.1" xmlns="http://www.w3.org/2000/svg" xmlns:xlink="http://www.w3.org/1999/xlink" xml:space="preserve" xmlns:serif="http://www.serif.com/" style="fill-rule:evenodd;clip-rule:evenodd;stroke-linejoin:round;stroke-miterlimit:2;">
    <g transform="matrix(0.5,0,0,0.5,-296,-452)">
        <g id="Unnest">
            <g transform="matrix(1,0,0,1,7,-1)">
                <rect x="589" y="909" width="24" height="2"/>
            </g>
            <g transform="matrix(1,0,0,1,7,19)">
                <rect x="589" y="909" width="24" height="2"/>
            </g>
            <g transform="matrix(1,0,0,1,7,-5)">
                <rect x="601" y="917" width="12" height="2"/>
            </g>
            <g transform="matrix(1,0,0,1,7,-1)">
                <rect x="601" y="917" width="12" height="2"/>
            </g>
            <g transform="matrix(1,0,0,1,7,3)">
                <rect x="601" y="917" width="12" height="2"/>
            </g>
            <g transform="matrix(1,0,0,1,7,7)">
                <rect x="601" y="917" width="12" height="2"/>
            </g>
            <g id="_--" serif:id="&lt;-" transform="matrix(1,0,0,1,7,-1)">
                <g transform="matrix(0.791418,0,0,1,113.861,2)">
                    <rect x="601" y="917" width="12" height="2"/>
                </g>
                <g transform="matrix(0.420974,-0.420974,0.864876,0.864876,-457.028,379.071)">
                    <rect x="601" y="917" width="12" height="2"/>
                </g>
                <g transform="matrix(0.490585,0.490585,0.864876,-0.864876,-499.699,1418.25)">
                    <rect x="601" y="917" width="12" height="2"/>
                </g>
            </g>
        </g>
    </g>
</svg>
