<?xml version="1.0" encoding="UTF-8" standalone="no"?>
<!DOCTYPE svg PUBLIC "-//W3C//DTD SVG 1.1//EN" "http://www.w3.org/Graphics/SVG/1.1/DTD/svg11.dtd">
<svg width="100%" height="100%" viewBox="0 0 56 44" version="1.1" xmlns="http://www.w3.org/2000/svg" xmlns:xlink="http://www.w3.org/1999/xlink" xml:space="preserve" xmlns:serif="http://www.serif.com/" style="fill-rule:evenodd;clip-rule:evenodd;stroke-linejoin:round;stroke-miterlimit:2;">
    <g transform="matrix(1,0,0,1,-744,-898)">
        <g>
            <g id="C">
                <g transform="matrix(0.325581,0,0,0.586667,483.86,375.867)">
                    <rect x="799" y="890" width="172" height="75" style="fill:rgb(25,123,199);"/>
                </g>
                <g transform="matrix(1,0,0,1,-4.29689,17.3531)">
                    <path d="M785.738,905.59L788.58,906.308C787.984,908.642 786.913,910.422 785.365,911.647C783.817,912.873 781.925,913.486 779.688,913.486C777.374,913.486 775.492,913.015 774.042,912.072C772.591,911.13 771.488,909.765 770.731,907.978C769.974,906.191 769.596,904.272 769.596,902.221C769.596,899.985 770.023,898.034 770.877,896.369C771.732,894.704 772.948,893.439 774.525,892.575C776.102,891.711 777.838,891.279 779.732,891.279C781.881,891.279 783.688,891.826 785.152,892.919C786.617,894.013 787.638,895.551 788.214,897.534L785.416,898.193C784.918,896.63 784.195,895.493 783.248,894.78C782.301,894.067 781.109,893.71 779.674,893.71C778.023,893.71 776.644,894.106 775.536,894.897C774.427,895.688 773.648,896.75 773.199,898.083C772.75,899.416 772.525,900.79 772.525,902.207C772.525,904.033 772.792,905.627 773.324,906.989C773.856,908.352 774.684,909.37 775.807,910.043C776.93,910.717 778.146,911.054 779.454,911.054C781.046,911.054 782.394,910.595 783.497,909.677C784.601,908.759 785.348,907.397 785.738,905.59Z" style="fill:white;fill-rule:nonzero;"/>
                </g>
            </g>
        </g>
    </g>
</svg>
