<?xml version="1.0" encoding="UTF-8" standalone="no"?>
<!DOCTYPE svg PUBLIC "-//W3C//DTD SVG 1.1//EN" "http://www.w3.org/Graphics/SVG/1.1/DTD/svg11.dtd">
<svg width="100%" height="100%" viewBox="0 0 56 44" version="1.1" xmlns="http://www.w3.org/2000/svg" xmlns:xlink="http://www.w3.org/1999/xlink" xml:space="preserve" xmlns:serif="http://www.serif.com/" style="fill-rule:evenodd;clip-rule:evenodd;stroke-linejoin:round;stroke-miterlimit:2;">
    <g transform="matrix(1,0,0,1,-904,-898)">
        <g transform="matrix(1,0,0,1,-4.29689,17.3531)">
            <g id="D">
                <path d="M925.411,913.12L925.411,891.645L932.809,891.645C934.479,891.645 935.753,891.748 936.632,891.953C937.862,892.236 938.912,892.749 939.781,893.491C940.914,894.448 941.761,895.671 942.323,897.16C942.884,898.649 943.165,900.351 943.165,902.265C943.165,903.896 942.975,905.341 942.594,906.601C942.213,907.861 941.725,908.903 941.129,909.728C940.533,910.554 939.881,911.203 939.173,911.677C938.465,912.15 937.611,912.509 936.61,912.753C935.609,912.998 934.459,913.12 933.16,913.12L925.411,913.12ZM928.253,910.585L932.838,910.585C934.254,910.585 935.365,910.454 936.17,910.19C936.976,909.926 937.618,909.555 938.097,909.077C938.771,908.403 939.295,907.497 939.671,906.359C940.047,905.222 940.235,903.842 940.235,902.221C940.235,899.975 939.867,898.249 939.129,897.043C938.392,895.837 937.496,895.029 936.441,894.619C935.68,894.326 934.454,894.179 932.765,894.179L928.253,894.179L928.253,910.585Z" style="fill:white;fill-rule:nonzero;"/>
            </g>
            <g id="U">
            </g>
            <g id="R">
            </g>
            <g id="C">
            </g>
        </g>
    </g>
</svg>
