<?xml version="1.0" encoding="UTF-8" standalone="no"?>
<!DOCTYPE svg PUBLIC "-//W3C//DTD SVG 1.1//EN" "http://www.w3.org/Graphics/SVG/1.1/DTD/svg11.dtd">
<svg width="100%" height="100%" viewBox="0 0 52 44" version="1.1" xmlns="http://www.w3.org/2000/svg" xmlns:xlink="http://www.w3.org/1999/xlink" xml:space="preserve" xmlns:serif="http://www.serif.com/" style="fill-rule:evenodd;clip-rule:evenodd;stroke-linejoin:round;stroke-miterlimit:2;">
    <g transform="matrix(1,0,0,1,-852,-898)">
        <g>
            <g id="U">
                <g transform="matrix(-0.302326,0,0,0.586667,1145.56,375.867)">
                    <rect x="799" y="890" width="172" height="75" style="fill:rgb(25,123,199);"/>
                </g>
                <g transform="matrix(1,0,0,1,-4.29689,17.3531)">
                    <path d="M887.838,891.645L890.68,891.645L890.68,904.052C890.68,906.21 890.436,907.924 889.947,909.194C889.459,910.463 888.578,911.496 887.303,912.292C886.029,913.088 884.356,913.486 882.286,913.486C880.274,913.486 878.629,913.139 877.35,912.446C876.07,911.752 875.157,910.749 874.61,909.436C874.063,908.122 873.79,906.328 873.79,904.052L873.79,891.645L876.632,891.645L876.632,904.038C876.632,905.903 876.805,907.277 877.152,908.161C877.499,909.045 878.094,909.726 878.939,910.205C879.784,910.683 880.816,910.922 882.037,910.922C884.127,910.922 885.616,910.449 886.505,909.501C887.394,908.554 887.838,906.733 887.838,904.038L887.838,891.645Z" style="fill:white;fill-rule:nonzero;"/>
                </g>
            </g>
        </g>
    </g>
</svg>
