<?xml version="1.0" encoding="UTF-8" standalone="no"?>
<!DOCTYPE svg PUBLIC "-//W3C//DTD SVG 1.1//EN" "http://www.w3.org/Graphics/SVG/1.1/DTD/svg11.dtd">
<svg width="100%" height="100%" viewBox="0 0 52 44" version="1.1" xmlns="http://www.w3.org/2000/svg" xmlns:xlink="http://www.w3.org/1999/xlink" xml:space="preserve" xmlns:serif="http://www.serif.com/" style="fill-rule:evenodd;clip-rule:evenodd;stroke-linejoin:round;stroke-miterlimit:2;">
    <g transform="matrix(1,0,0,1,-800,-898)">
        <g transform="matrix(1,0,0,1,-4.29689,17.3531)">
            <g id="D">
            </g>
            <g id="U">
            </g>
            <g id="R">
                <path d="M822.125,913.12L822.125,891.645L831.647,891.645C833.561,891.645 835.016,891.838 836.012,892.224C837.008,892.609 837.804,893.29 838.399,894.267C838.995,895.244 839.293,896.323 839.293,897.504C839.293,899.028 838.8,900.312 837.813,901.357C836.827,902.402 835.304,903.066 833.243,903.349C833.995,903.71 834.566,904.067 834.957,904.418C835.787,905.18 836.573,906.132 837.315,907.275L841.051,913.12L837.477,913.12L834.635,908.652C833.805,907.363 833.121,906.376 832.584,905.693C832.047,905.009 831.566,904.531 831.141,904.257C830.716,903.984 830.284,903.793 829.845,903.686C829.522,903.618 828.995,903.583 828.263,903.583L824.967,903.583L824.967,913.12L822.125,913.12ZM824.967,901.123L831.075,901.123C832.374,901.123 833.39,900.988 834.122,900.72C834.855,900.451 835.411,900.021 835.792,899.431C836.173,898.84 836.363,898.198 836.363,897.504C836.363,896.489 835.995,895.654 835.257,894.999C834.52,894.345 833.355,894.018 831.764,894.018L824.967,894.018L824.967,901.123Z" style="fill:white;fill-rule:nonzero;"/>
            </g>
            <g id="C">
            </g>
        </g>
    </g>
</svg>
