<?xml version="1.0" encoding="UTF-8" standalone="no"?>
<!DOCTYPE svg PUBLIC "-//W3C//DTD SVG 1.1//EN" "http://www.w3.org/Graphics/SVG/1.1/DTD/svg11.dtd">
<svg width="100%" height="100%" viewBox="0 0 194 44" version="1.1" xmlns="http://www.w3.org/2000/svg" xmlns:xlink="http://www.w3.org/1999/xlink" xml:space="preserve" xmlns:serif="http://www.serif.com/" style="fill-rule:evenodd;clip-rule:evenodd;stroke-linejoin:round;stroke-miterlimit:2;">
    <g transform="matrix(1,0,0,1,-744,-958)">
        <g transform="matrix(1,0,0,1,177,59)">
            <g id="Nocheck">
                <g id="Layer1">
                    <g id="pass" transform="matrix(2.02603,0,0,2.02603,583.015,903.504)">
                        <g transform="matrix(1.15154,0,0,1.18421,-1.03148,-1.59285)">
                            <path d="M6.27,10.87L6.98,10.87L11.54,6.31L10.83,5.6L6.63,9.81L4.71,7.89L4,8.6L6.27,10.87Z" style="fill:white;fill-rule:nonzero;"/>
                        </g>
                        <path d="M8.6,1C10.2,1.1 11.7,1.9 12.8,3C14.1,4.4 14.8,6.1 14.8,8.1C14.8,9.7 14.2,11.2 13.2,12.5C12.2,13.7 10.8,14.6 9.2,14.9C7.6,15.2 6,15 4.6,14.2C3.2,13.4 2.1,12.2 1.5,10.7C0.9,9.2 0.8,7.5 1.3,6C1.8,4.4 2.7,3.1 4.1,2.2C5.4,1.3 7,0.9 8.6,1ZM9.1,13.9C10.4,13.6 11.6,12.9 12.5,11.8C13.3,10.7 13.8,9.4 13.7,8C13.7,6.4 13.1,4.8 12,3.7C11,2.7 9.8,2.1 8.4,2C7.1,1.9 5.7,2.2 4.6,3C3.5,3.8 2.7,4.9 2.3,6.3C1.9,7.6 1.9,9 2.5,10.3C3.1,11.6 4,12.6 5.2,13.3C6.4,14 7.8,14.2 9.1,13.9Z" style="fill:white;"/>
                        <g transform="matrix(0.369331,0.369331,-0.349011,0.349011,47.0872,-635.327)">
                            <rect x="806" y="976" width="24" height="4" style="fill:white;"/>
                        </g>
                    </g>
                    <g transform="matrix(1,0,0,1,-15,17)">
                        <path d="M639.446,913.734L639.446,892.259L642.361,892.259L653.641,909.12L653.641,892.259L656.365,892.259L656.365,913.734L653.45,913.734L642.171,896.859L642.171,913.734L639.446,913.734Z" style="fill:white;fill-rule:nonzero;"/>
                        <path d="M659.822,905.955C659.822,903.075 660.623,900.941 662.225,899.554C663.563,898.402 665.193,897.826 667.117,897.826C669.256,897.826 671.004,898.526 672.361,899.928C673.719,901.329 674.397,903.265 674.397,905.736C674.397,907.738 674.097,909.312 673.497,910.46C672.896,911.607 672.022,912.498 670.875,913.133C669.727,913.768 668.475,914.085 667.117,914.085C664.939,914.085 663.179,913.387 661.836,911.991C660.494,910.594 659.822,908.582 659.822,905.955ZM662.532,905.955C662.532,907.948 662.967,909.439 663.836,910.431C664.705,911.422 665.799,911.917 667.117,911.917C668.426,911.917 669.515,911.419 670.384,910.423C671.253,909.427 671.688,907.909 671.688,905.868C671.688,903.944 671.251,902.486 670.376,901.495C669.502,900.504 668.416,900.008 667.117,900.008C665.799,900.008 664.705,900.501 663.836,901.488C662.967,902.474 662.532,903.963 662.532,905.955Z" style="fill:white;fill-rule:nonzero;"/>
                        <path d="M687.64,908.036L690.232,908.372C689.949,910.16 689.224,911.558 688.057,912.569C686.89,913.58 685.457,914.085 683.758,914.085C681.629,914.085 679.918,913.39 678.624,911.998C677.33,910.606 676.683,908.612 676.683,906.014C676.683,904.334 676.961,902.865 677.518,901.605C678.074,900.345 678.921,899.4 680.059,898.77C681.197,898.141 682.435,897.826 683.772,897.826C685.462,897.826 686.844,898.253 687.918,899.107C688.992,899.962 689.681,901.175 689.983,902.747L687.42,903.143C687.176,902.098 686.744,901.312 686.124,900.785C685.503,900.257 684.754,899.994 683.875,899.994C682.547,899.994 681.468,900.47 680.638,901.422C679.808,902.374 679.393,903.88 679.393,905.941C679.393,908.031 679.793,909.549 680.594,910.496C681.395,911.444 682.439,911.917 683.729,911.917C684.764,911.917 685.628,911.6 686.321,910.965C687.015,910.33 687.454,909.354 687.64,908.036Z" style="fill:white;fill-rule:nonzero;"/>
                        <path d="M692.488,913.734L692.488,892.259L695.125,892.259L695.125,899.964C696.355,898.538 697.908,897.826 699.783,897.826C700.936,897.826 701.937,898.053 702.786,898.507C703.636,898.961 704.244,899.588 704.61,900.389C704.976,901.19 705.159,902.352 705.159,903.875L705.159,913.734L702.522,913.734L702.522,903.875C702.522,902.557 702.237,901.598 701.666,900.997C701.094,900.396 700.286,900.096 699.241,900.096C698.46,900.096 697.725,900.299 697.037,900.704C696.348,901.109 695.857,901.659 695.564,902.352C695.272,903.045 695.125,904.002 695.125,905.223L695.125,913.734L692.488,913.734Z" style="fill:white;fill-rule:nonzero;"/>
                        <path d="M719.822,908.724L722.547,909.061C722.117,910.653 721.321,911.888 720.159,912.767C718.997,913.646 717.513,914.085 715.706,914.085C713.431,914.085 711.626,913.385 710.293,911.983C708.96,910.582 708.294,908.617 708.294,906.087C708.294,903.47 708.968,901.439 710.315,899.994C711.663,898.548 713.411,897.826 715.56,897.826C717.64,897.826 719.339,898.534 720.657,899.95C721.976,901.366 722.635,903.358 722.635,905.926C722.635,906.082 722.63,906.317 722.62,906.629L711.019,906.629C711.116,908.338 711.6,909.647 712.469,910.555C713.338,911.463 714.422,911.917 715.721,911.917C716.688,911.917 717.513,911.663 718.196,911.156C718.88,910.648 719.422,909.837 719.822,908.724ZM711.165,904.461L719.852,904.461C719.734,903.153 719.402,902.171 718.855,901.517C718.016,900.501 716.927,899.994 715.589,899.994C714.378,899.994 713.36,900.399 712.535,901.209C711.71,902.02 711.253,903.104 711.165,904.461Z" style="fill:white;fill-rule:nonzero;"/>
                        <path d="M736.009,908.036L738.602,908.372C738.318,910.16 737.593,911.558 736.426,912.569C735.259,913.58 733.826,914.085 732.127,914.085C729.998,914.085 728.287,913.39 726.993,911.998C725.699,910.606 725.052,908.612 725.052,906.014C725.052,904.334 725.33,902.865 725.887,901.605C726.443,900.345 727.291,899.4 728.428,898.77C729.566,898.141 730.804,897.826 732.142,897.826C733.831,897.826 735.213,898.253 736.287,899.107C737.361,899.962 738.05,901.175 738.353,902.747L735.789,903.143C735.545,902.098 735.113,901.312 734.493,900.785C733.873,900.257 733.123,899.994 732.244,899.994C730.916,899.994 729.837,900.47 729.007,901.422C728.177,902.374 727.762,903.88 727.762,905.941C727.762,908.031 728.162,909.549 728.963,910.496C729.764,911.444 730.809,911.917 732.098,911.917C733.133,911.917 733.997,911.6 734.69,910.965C735.384,910.33 735.823,909.354 736.009,908.036Z" style="fill:white;fill-rule:nonzero;"/>
                        <path d="M740.872,913.734L740.872,892.259L743.509,892.259L743.509,904.505L749.749,898.177L753.162,898.177L747.215,903.949L753.763,913.734L750.511,913.734L745.369,905.78L743.509,907.567L743.509,913.734L740.872,913.734Z" style="fill:white;fill-rule:nonzero;"/>
                    </g>
                </g>
            </g>
        </g>
        <g id="Unnest">
        </g>
        <g id="CRUD">
        </g>
    </g>
</svg>
