<?xml version="1.0" encoding="UTF-8" standalone="no"?>
<!DOCTYPE svg PUBLIC "-//W3C//DTD SVG 1.1//EN" "http://www.w3.org/Graphics/SVG/1.1/DTD/svg11.dtd">
<svg width="100%" height="100%" viewBox="0 0 174 44" version="1.1" xmlns="http://www.w3.org/2000/svg" xmlns:xlink="http://www.w3.org/1999/xlink" xml:space="preserve" xmlns:serif="http://www.serif.com/" style="fill-rule:evenodd;clip-rule:evenodd;stroke-linejoin:round;stroke-miterlimit:2;">
    <g transform="matrix(1,0,0,1,-542,-898)">
        <g id="Nocheck">
        </g>
        <g transform="matrix(1,0,0,1,-25,-1)">
            <g id="Unnest">
                <g id="Layer1">
                    <g id="Unnest-Icon" serif:id="Unnest Icon" transform="matrix(1,0,0,1,-9,1)">
                        <g transform="matrix(1,0,0,1,7,-1)">
                            <rect x="589" y="909" width="24" height="2" style="fill:white;"/>
                        </g>
                        <g transform="matrix(1,0,0,1,7,19)">
                            <rect x="589" y="909" width="24" height="2" style="fill:white;"/>
                        </g>
                        <g transform="matrix(1,0,0,1,7,-5)">
                            <rect x="601" y="917" width="12" height="2" style="fill:white;"/>
                        </g>
                        <g transform="matrix(1,0,0,1,7,-1)">
                            <rect x="601" y="917" width="12" height="2" style="fill:white;"/>
                        </g>
                        <g transform="matrix(1,0,0,1,7,3)">
                            <rect x="601" y="917" width="12" height="2" style="fill:white;"/>
                        </g>
                        <g transform="matrix(1,0,0,1,7,7)">
                            <rect x="601" y="917" width="12" height="2" style="fill:white;"/>
                        </g>
                        <g id="_--" serif:id="&lt;-" transform="matrix(1,0,0,1,7,-1)">
                            <g transform="matrix(0.791418,0,0,1,113.861,2)">
                                <rect x="601" y="917" width="12" height="2" style="fill:white;"/>
                            </g>
                            <g transform="matrix(0.420974,-0.420974,0.864876,0.864876,-457.028,379.071)">
                                <rect x="601" y="917" width="12" height="2" style="fill:white;"/>
                            </g>
                            <g transform="matrix(0.490585,0.490585,0.864876,-0.864876,-499.699,1418.25)">
                                <rect x="601" y="917" width="12" height="2" style="fill:white;"/>
                            </g>
                        </g>
                    </g>
                    <g transform="matrix(1,0,0,1,-15,17)">
                        <path d="M653.567,892.259L656.409,892.259L656.409,904.666C656.409,906.825 656.165,908.538 655.677,909.808C655.189,911.078 654.307,912.11 653.033,912.906C651.758,913.702 650.086,914.1 648.016,914.1C646.004,914.1 644.358,913.753 643.079,913.06C641.8,912.367 640.887,911.363 640.34,910.05C639.793,908.736 639.52,906.942 639.52,904.666L639.52,892.259L642.361,892.259L642.361,904.652C642.361,906.517 642.535,907.891 642.881,908.775C643.228,909.659 643.824,910.34 644.668,910.819C645.513,911.297 646.546,911.537 647.767,911.537C649.856,911.537 651.346,911.063 652.234,910.116C653.123,909.168 653.567,907.347 653.567,904.652L653.567,892.259Z" style="fill:white;fill-rule:nonzero;"/>
                        <path d="M660.804,913.734L660.804,898.177L663.177,898.177L663.177,900.389C664.319,898.68 665.97,897.826 668.128,897.826C669.065,897.826 669.927,897.994 670.713,898.331C671.5,898.668 672.088,899.11 672.479,899.657C672.869,900.203 673.143,900.853 673.299,901.605C673.397,902.093 673.445,902.948 673.445,904.168L673.445,913.734L670.809,913.734L670.809,904.271C670.809,903.197 670.706,902.393 670.501,901.861C670.296,901.329 669.932,900.904 669.41,900.587C668.887,900.269 668.274,900.111 667.571,900.111C666.448,900.111 665.479,900.467 664.664,901.18C663.848,901.893 663.44,903.245 663.44,905.238L663.44,913.734L660.804,913.734Z" style="fill:white;fill-rule:nonzero;"/>
                        <path d="M677.488,913.734L677.488,898.177L679.861,898.177L679.861,900.389C681.004,898.68 682.654,897.826 684.813,897.826C685.75,897.826 686.612,897.994 687.398,898.331C688.184,898.668 688.772,899.11 689.163,899.657C689.554,900.203 689.827,900.853 689.983,901.605C690.081,902.093 690.13,902.948 690.13,904.168L690.13,913.734L687.493,913.734L687.493,904.271C687.493,903.197 687.391,902.393 687.186,901.861C686.98,901.329 686.617,900.904 686.094,900.587C685.572,900.269 684.959,900.111 684.256,900.111C683.133,900.111 682.164,900.467 681.348,901.18C680.533,901.893 680.125,903.245 680.125,905.238L680.125,913.734L677.488,913.734Z" style="fill:white;fill-rule:nonzero;"/>
                        <path d="M704.822,908.724L707.547,909.061C707.117,910.653 706.321,911.888 705.159,912.767C703.997,913.646 702.513,914.085 700.706,914.085C698.431,914.085 696.626,913.385 695.293,911.983C693.96,910.582 693.294,908.617 693.294,906.087C693.294,903.47 693.968,901.439 695.315,899.994C696.663,898.548 698.411,897.826 700.56,897.826C702.64,897.826 704.339,898.534 705.657,899.95C706.976,901.366 707.635,903.358 707.635,905.926C707.635,906.082 707.63,906.317 707.62,906.629L696.019,906.629C696.116,908.338 696.6,909.647 697.469,910.555C698.338,911.463 699.422,911.917 700.721,911.917C701.688,911.917 702.513,911.663 703.196,911.156C703.88,910.648 704.422,909.837 704.822,908.724ZM696.165,904.461L704.852,904.461C704.734,903.153 704.402,902.171 703.855,901.517C703.016,900.501 701.927,899.994 700.589,899.994C699.378,899.994 698.36,900.399 697.535,901.209C696.71,902.02 696.253,903.104 696.165,904.461Z" style="fill:white;fill-rule:nonzero;"/>
                        <path d="M709.803,909.09L712.41,908.68C712.557,909.725 712.964,910.526 713.633,911.082C714.302,911.639 715.237,911.917 716.439,911.917C717.649,911.917 718.548,911.671 719.134,911.178C719.72,910.684 720.013,910.106 720.013,909.442C720.013,908.846 719.754,908.377 719.236,908.036C718.875,907.801 717.977,907.503 716.541,907.142C714.607,906.654 713.267,906.231 712.52,905.875C711.773,905.518 711.207,905.025 710.821,904.395C710.435,903.766 710.242,903.07 710.242,902.308C710.242,901.615 710.401,900.973 710.718,900.382C711.036,899.791 711.468,899.3 712.015,898.91C712.425,898.607 712.984,898.35 713.692,898.141C714.4,897.931 715.159,897.826 715.97,897.826C717.19,897.826 718.262,898.001 719.185,898.353C720.108,898.704 720.789,899.181 721.229,899.781C721.668,900.382 721.971,901.185 722.137,902.191L719.559,902.542C719.441,901.742 719.102,901.117 718.541,900.667C717.979,900.218 717.186,899.994 716.16,899.994C714.949,899.994 714.085,900.194 713.567,900.594C713.05,900.995 712.791,901.463 712.791,902C712.791,902.342 712.898,902.65 713.113,902.923C713.328,903.206 713.665,903.441 714.124,903.626C714.388,903.724 715.164,903.949 716.453,904.3C718.318,904.798 719.62,905.206 720.357,905.523C721.094,905.841 721.673,906.302 722.093,906.908C722.513,907.513 722.723,908.265 722.723,909.163C722.723,910.042 722.466,910.87 721.954,911.646C721.441,912.423 720.701,913.023 719.734,913.448C718.768,913.873 717.674,914.085 716.453,914.085C714.432,914.085 712.891,913.665 711.832,912.826C710.772,911.986 710.096,910.741 709.803,909.09Z" style="fill:white;fill-rule:nonzero;"/>
                        <path d="M731.614,911.375L731.995,913.704C731.253,913.861 730.589,913.939 730.003,913.939C729.046,913.939 728.304,913.787 727.776,913.485C727.249,913.182 726.878,912.784 726.663,912.291C726.448,911.798 726.341,910.76 726.341,909.178L726.341,900.228L724.407,900.228L724.407,898.177L726.341,898.177L726.341,894.325L728.963,892.743L728.963,898.177L731.614,898.177L731.614,900.228L728.963,900.228L728.963,909.325C728.963,910.077 729.009,910.56 729.102,910.775C729.195,910.99 729.346,911.161 729.556,911.287C729.766,911.414 730.066,911.478 730.457,911.478C730.75,911.478 731.136,911.444 731.614,911.375Z" style="fill:white;fill-rule:nonzero;"/>
                    </g>
                </g>
            </g>
        </g>
        <g id="CRUD">
        </g>
    </g>
</svg>
