<?xml version="1.0" encoding="UTF-8" standalone="no"?>
<!DOCTYPE svg PUBLIC "-//W3C//DTD SVG 1.1//EN" "http://www.w3.org/Graphics/SVG/1.1/DTD/svg11.dtd">
<svg width="100%" height="100%" viewBox="0 0 16 16" version="1.1" xmlns="http://www.w3.org/2000/svg" xmlns:xlink="http://www.w3.org/1999/xlink" xml:space="preserve" xmlns:serif="http://www.serif.com/" style="fill-rule:evenodd;clip-rule:evenodd;stroke-linejoin:round;stroke-miterlimit:2;">
    <g id="mrs" transform="matrix(0.015625,0,0,0.015625,0,0)">
        <path d="M511.715,1.595C793.976,1.595 1023.13,230.755 1023.13,513.016C1023.13,795.277 793.976,1024.44 511.715,1024.44C229.454,1024.44 0.294,795.277 0.294,513.016C0.294,230.755 229.454,1.595 511.715,1.595ZM511.715,65.19C758.877,65.19 959.541,265.854 959.541,513.016C959.541,760.178 758.877,960.842 511.715,960.842C264.553,960.842 63.889,760.178 63.889,513.016C63.889,265.854 264.553,65.19 511.715,65.19Z"/>
        <g transform="matrix(64,0,0,64,131.369,-199.16)">
            <g transform="matrix(1.18578,0,0,1.04225,-0.781005,-0.466503)">
                <path d="M4.561,15.916L4.878,15.916L4.878,15.06L4.663,15.06C4.318,15.06 4.07,14.975 3.92,14.806C3.769,14.637 3.694,14.356 3.694,13.962L3.694,12.399C3.694,12.03 3.593,11.743 3.392,11.54C3.19,11.337 2.891,11.214 2.494,11.173L2.494,11.035C2.891,10.994 3.19,10.871 3.392,10.666C3.593,10.461 3.694,10.174 3.694,9.804L3.694,8.261C3.694,7.868 3.769,7.587 3.92,7.418C4.07,7.249 4.318,7.164 4.663,7.164L4.878,7.164L4.878,6.308L4.561,6.308C3.897,6.308 3.411,6.455 3.102,6.749C2.793,7.043 2.638,7.502 2.638,8.128L2.638,9.456C2.638,9.856 2.552,10.135 2.382,10.294C2.211,10.453 1.91,10.533 1.479,10.533L1.479,11.671C1.91,11.674 2.211,11.755 2.382,11.914C2.552,12.073 2.638,12.351 2.638,12.747L2.638,14.091C2.638,14.716 2.793,15.177 3.102,15.472C3.411,15.768 3.897,15.916 4.561,15.916Z" style="fill-rule:nonzero;"/>
            </g>
            <g transform="matrix(1.17903,0,0,1.04225,-1.37196,-0.466503)">
                <path d="M7.334,15.916C7.997,15.916 8.483,15.768 8.793,15.472C9.102,15.177 9.257,14.716 9.257,14.091L9.257,12.747C9.257,12.351 9.342,12.073 9.513,11.914C9.684,11.755 9.985,11.674 10.415,11.671L10.415,10.533C9.985,10.533 9.684,10.453 9.513,10.294C9.342,10.135 9.257,9.856 9.257,9.456L9.257,8.128C9.257,7.502 9.102,7.043 8.793,6.749C8.483,6.455 7.997,6.308 7.334,6.308L7.016,6.308L7.016,7.164L7.232,7.164C7.58,7.164 7.829,7.249 7.978,7.418C8.126,7.587 8.201,7.868 8.201,8.261L8.201,9.804C8.201,10.174 8.301,10.461 8.503,10.666C8.705,10.871 9.006,10.994 9.405,11.035L9.405,11.173C9.006,11.214 8.705,11.337 8.503,11.54C8.301,11.743 8.201,12.03 8.201,12.399L8.201,13.962C8.201,14.356 8.125,14.637 7.975,14.806C7.825,14.975 7.577,15.06 7.232,15.06L7.016,15.06L7.016,15.916L7.334,15.916Z" style="fill-rule:nonzero;"/>
            </g>
        </g>
    </g>
</svg>
