<?xml version="1.0" encoding="UTF-8" standalone="no"?>
<!DOCTYPE svg PUBLIC "-//W3C//DTD SVG 1.1//EN" "http://www.w3.org/Graphics/SVG/1.1/DTD/svg11.dtd">
<svg width="100%" height="100%" viewBox="0 0 16 16" version="1.1" xmlns="http://www.w3.org/2000/svg" xmlns:xlink="http://www.w3.org/1999/xlink" xml:space="preserve" xmlns:serif="http://www.serif.com/" style="fill-rule:evenodd;clip-rule:evenodd;stroke-linejoin:round;stroke-miterlimit:2;">
    <g id="mrsActive" transform="matrix(0.015625,0,0,0.015625,0,0)">
        <path id="mrs" d="M512,0C794.58,0 1024,229.42 1024,512C1024,794.58 794.58,1024 512,1024C229.42,1024 0,794.58 0,512C0,229.42 229.42,0 512,0ZM259.865,805.432L280.126,805.432L280.126,750.544L266.401,750.544C244.397,750.544 228.603,745.121 219.017,734.275C209.432,723.429 204.639,705.407 204.639,680.21L204.639,579.966C204.639,556.302 198.212,537.951 185.359,524.914C172.505,511.877 153.443,504.044 128.172,501.414L128.172,492.54C153.443,489.911 172.505,482.023 185.359,468.876C198.212,455.73 204.639,437.324 204.639,413.66L204.639,314.731C204.639,289.534 209.432,271.512 219.017,260.666C228.603,249.82 244.397,244.397 266.401,244.397L280.126,244.397L280.126,189.509L259.865,189.509C217.601,189.509 186.611,198.931 166.895,217.774C147.179,236.618 137.322,266.089 137.322,306.186L137.322,391.311C137.322,416.947 131.875,434.859 120.982,445.048C110.09,455.237 90.918,460.331 63.469,460.331L63.469,533.295C90.918,533.514 110.09,538.718 120.982,548.907C131.875,559.096 137.322,576.898 137.322,602.315L137.322,688.426C137.322,728.524 147.179,758.049 166.895,777.002C186.611,795.955 217.601,805.432 259.865,805.432ZM764.692,805.432C806.956,805.432 837.946,795.955 857.661,777.002C877.377,758.049 887.235,728.524 887.235,688.426L887.235,602.315C887.235,576.898 892.682,559.096 903.574,548.907C914.467,538.718 933.638,533.514 961.088,533.295L961.088,460.331C933.638,460.331 914.467,455.237 903.574,445.048C892.682,434.859 887.235,416.947 887.235,391.311L887.235,306.186C887.235,266.089 877.377,236.618 857.661,217.774C837.946,198.931 806.956,189.509 764.692,189.509L744.431,189.509L744.431,244.397L758.156,244.397C780.377,244.397 796.226,249.82 805.703,260.666C815.18,271.512 819.918,289.534 819.918,314.731L819.918,413.66C819.918,437.324 826.345,455.73 839.198,468.876C852.052,482.023 871.223,489.911 896.712,492.54L896.712,501.414C871.223,504.044 852.052,511.877 839.198,524.914C826.345,537.951 819.918,556.302 819.918,579.966L819.918,680.21C819.918,705.407 815.125,723.429 805.54,734.275C795.954,745.121 780.159,750.544 758.156,750.544L744.431,750.544L744.431,805.432L764.692,805.432ZM510.472,448C545.794,448 574.472,476.677 574.472,512C574.472,547.323 545.794,576 510.472,576C475.149,576 446.472,547.323 446.472,512C446.472,476.677 475.149,448 510.472,448ZM320,448C355.323,448 384,476.677 384,512C384,547.323 355.323,576 320,576C284.677,576 256,547.323 256,512C256,476.677 284.677,448 320,448ZM704,448C739.323,448 768,476.677 768,512C768,547.323 739.323,576 704,576C668.677,576 640,547.323 640,512C640,476.677 668.677,448 704,448Z"/>
    </g>
</svg>
