<?xml version="1.0" encoding="UTF-8" standalone="no"?>
<!DOCTYPE svg PUBLIC "-//W3C//DTD SVG 1.1//EN" "http://www.w3.org/Graphics/SVG/1.1/DTD/svg11.dtd">
<svg width="100%" height="100%" viewBox="0 0 16 16" version="1.1" xmlns="http://www.w3.org/2000/svg" xmlns:xlink="http://www.w3.org/1999/xlink" xml:space="preserve" xmlns:serif="http://www.serif.com/" style="fill-rule:evenodd;clip-rule:evenodd;stroke-linejoin:round;stroke-miterlimit:2;">
    <g id="mrsContentSet">
        <path d="M2,11L3,11L3,6.99L2,6.99L2,11ZM3,5.99L3,5.5L3.5,5L7.93,5L8.36,5.25L8.79,6L14.5,6L15,6.5L15,14.5L14.5,15L3.5,15L3,14.5L3,12L1.5,12L1,11.5L1,2.5L1.5,2L5.92,2L6.36,2.25L6.79,3L12.5,3L13,3.5L13,6L12,5.97L12,4L6.5,4L6.07,3.75L5.64,3L2,3L2,5.99L3,5.99ZM8.07,6.75L7.64,6L4,6L4,9L7.15,9L7.56,8.26L8,8L14,8L14,7L8.5,7L8.07,6.75ZM7.45,10L4,10L4,14L14,14L14,9L8.3,9L7.89,9.74L7.45,10Z"/>
    </g>
</svg>
