<?xml version="1.0" encoding="UTF-8" standalone="no"?>
<!DOCTYPE svg PUBLIC "-//W3C//DTD SVG 1.1//EN" "http://www.w3.org/Graphics/SVG/1.1/DTD/svg11.dtd">
<svg width="100%" height="100%" viewBox="0 0 16 16" version="1.1" xmlns="http://www.w3.org/2000/svg" xmlns:xlink="http://www.w3.org/1999/xlink" xml:space="preserve" xmlns:serif="http://www.serif.com/" style="fill-rule:evenodd;clip-rule:evenodd;stroke-linejoin:round;stroke-miterlimit:2;">
    <g transform="matrix(0.0186099,0,0,0.0165886,0.639293,-0.979156)">
        <g id="mrsSchema">
            <g transform="matrix(53.7347,0,0,60.3308,-34.3522,58.9287)">
                <rect x="1" y="2" width="1" height="12"/>
            </g>
            <g transform="matrix(53.7347,0,0,60.2952,-34.3522,58.9999)">
                <rect x="14" y="2" width="1" height="12"/>
            </g>
            <g transform="matrix(17.074,0,0,17.074,-724.401,786.808)">
                <path d="M87.625,6.828C87.625,10.685 77.761,13.813 65.594,13.813C53.426,13.813 43.562,10.685 43.562,6.828L46.706,6.245C46.706,6.245 47.202,6.642 47.479,6.828C47.912,7.119 48.443,7.442 48.945,7.659C52.697,9.281 58.761,10.282 65.594,10.282C72.427,10.282 78.49,9.281 82.242,7.659C82.744,7.442 83.276,7.119 83.708,6.828L84.486,6.295L87.625,6.828Z"/>
            </g>
            <g transform="matrix(17.074,0,0,17.2402,-724.401,61.7199)">
                <path d="M65.594,-0.156C77.761,-0.156 87.625,2.971 87.625,6.828C87.625,10.685 77.761,13.813 65.594,13.813C53.426,13.813 43.562,10.685 43.562,6.828C43.562,2.971 53.426,-0.156 65.594,-0.156ZM83.708,6.828C83.276,7.119 82.744,7.442 82.242,7.659C78.49,9.281 72.427,10.282 65.594,10.282C58.761,10.282 52.697,9.281 48.945,7.659C48.443,7.442 47.912,7.119 47.479,6.828C47.912,6.537 48.443,6.215 48.945,5.998C52.697,4.375 58.761,3.374 65.594,3.374C72.427,3.374 78.49,4.375 82.242,5.998C82.744,6.215 83.276,6.537 83.708,6.828Z"/>
            </g>
            <g transform="matrix(48.309,0,0,54.1954,107.974,30.2203)">
                <path d="M4.627,16.122C3.84,16.122 3.264,15.968 2.897,15.66C2.53,15.351 2.347,14.871 2.347,14.219L2.347,12.819C2.347,12.406 2.246,12.117 2.043,11.951C1.84,11.785 1.484,11.701 0.973,11.697L0.973,10.511C1.484,10.511 1.84,10.428 2.043,10.263C2.246,10.097 2.347,9.806 2.347,9.389L2.347,8.005C2.347,7.353 2.53,6.874 2.897,6.567C3.264,6.261 3.84,6.108 4.627,6.108L5.004,6.108L5.004,7L4.748,7C4.339,7 4.045,7.088 3.867,7.265C3.688,7.441 3.599,7.734 3.599,8.144L3.599,9.752C3.599,10.137 3.48,10.436 3.241,10.65C3.002,10.864 2.647,10.992 2.177,11.035L2.177,11.179C2.647,11.222 3.002,11.349 3.241,11.561C3.48,11.773 3.599,12.071 3.599,12.456L3.599,14.086C3.599,14.496 3.688,14.789 3.867,14.965C4.045,15.141 4.339,15.229 4.748,15.229L5.004,15.229L5.004,16.122L4.627,16.122ZM7.275,16.122L6.9,16.122L6.9,15.229L7.154,15.229C7.561,15.229 7.854,15.141 8.031,14.965C8.208,14.789 8.297,14.496 8.297,14.086L8.297,12.456C8.297,12.071 8.416,11.773 8.653,11.561C8.891,11.349 9.246,11.222 9.717,11.179L9.717,11.035C9.246,10.992 8.891,10.864 8.653,10.65C8.416,10.436 8.297,10.137 8.297,9.752L8.297,8.144C8.297,7.734 8.209,7.441 8.034,7.265C7.859,7.088 7.565,7 7.154,7L6.9,7L6.9,6.108L7.275,6.108C8.057,6.108 8.63,6.261 8.995,6.567C9.36,6.874 9.542,7.353 9.542,8.005L9.542,9.389C9.542,9.806 9.643,10.097 9.844,10.263C10.046,10.428 10.4,10.511 10.908,10.511L10.908,11.697C10.4,11.701 10.046,11.785 9.844,11.951C9.643,12.117 9.542,12.406 9.542,12.819L9.542,14.219C9.542,14.871 9.36,15.351 8.995,15.66C8.63,15.968 8.057,16.122 7.275,16.122Z"/>
            </g>
        </g>
    </g>
</svg>
