<?xml version="1.0" encoding="UTF-8" standalone="no"?>
<!DOCTYPE svg PUBLIC "-//W3C//DTD SVG 1.1//EN" "http://www.w3.org/Graphics/SVG/1.1/DTD/svg11.dtd">
<svg width="100%" height="100%" viewBox="0 0 16 16" version="1.1" xmlns="http://www.w3.org/2000/svg" xmlns:xlink="http://www.w3.org/1999/xlink" xml:space="preserve" xmlns:serif="http://www.serif.com/" style="fill-rule:evenodd;clip-rule:evenodd;stroke-linejoin:round;stroke-miterlimit:2;">
    <g id="mrsServiceActive" transform="matrix(0.015625,0,0,0.015625,0,0)">
        <path d="M995.549,597.339C1011.27,597.339 1024,584.594 1024,568.887L1024,455.113C1024,439.406 1011.27,426.661 995.549,426.661L964.261,426.661C928.894,426.535 897.229,404.653 884.626,371.602C881.617,363.693 878.34,355.832 874.827,348.128C860.207,315.849 866.997,277.882 891.904,252.66L914.18,230.368C925.286,219.262 925.286,201.271 914.18,190.149L833.788,109.757C822.634,98.729 804.691,98.729 793.537,109.757L771.277,132.017C746.071,156.94 708.104,163.714 675.808,149.079C668.089,145.581 660.244,142.336 652.288,139.296C619.315,126.645 597.48,95.059 597.339,59.739L597.339,28.436C597.339,12.729 584.594,-0 568.887,-0L455.113,-0C439.406,-0 426.661,12.729 426.661,28.436L426.661,59.739C426.535,95.106 404.653,126.755 371.602,139.374C363.693,142.383 355.832,145.66 348.128,149.173C315.849,163.824 277.882,157.019 252.66,132.096L230.384,109.82C219.262,98.729 201.271,98.729 190.149,109.82L109.757,190.149C104.432,195.489 101.423,202.72 101.423,210.282C101.423,217.813 104.432,225.075 109.757,230.4L132.017,252.66C156.924,277.882 163.714,315.849 149.079,348.128C145.581,355.848 142.336,363.693 139.296,371.649C126.661,404.653 95.074,426.504 59.739,426.661L28.451,426.661C12.729,426.661 -0,439.406 -0,455.113L-0,568.887C-0,584.594 12.729,597.339 28.451,597.339L59.739,597.339C95.106,597.465 126.771,619.347 139.374,652.398C142.383,660.307 145.66,668.168 149.173,675.872C163.793,708.151 157.003,746.118 132.096,771.34L109.82,793.632C98.729,804.738 98.729,822.745 109.82,833.851L190.212,914.243C195.537,919.568 202.784,922.577 210.33,922.577C217.876,922.577 225.122,919.568 230.463,914.243L252.723,891.983C277.945,867.092 315.896,860.302 348.192,874.921C355.895,878.434 363.756,881.696 371.712,884.704C404.685,897.355 426.52,928.941 426.661,964.261L426.661,995.549C426.661,1011.27 439.406,1024 455.113,1024L568.887,1024C584.594,1024 597.339,1011.27 597.339,995.549L597.339,964.261C597.465,928.894 619.347,897.229 652.398,884.626C660.307,881.617 668.168,878.34 675.872,874.827C708.151,860.176 746.118,866.966 771.34,891.904L793.632,914.18C804.738,925.286 822.729,925.286 833.851,914.18L914.243,833.788C919.568,828.463 922.577,821.216 922.577,813.67C922.577,806.124 919.568,798.878 914.243,793.537L891.983,771.277C867.076,746.055 860.286,708.104 874.921,675.808C878.434,668.089 881.696,660.244 884.704,652.288C897.355,619.315 928.941,597.48 964.261,597.339L995.549,597.339ZM423.242,768.303L443.586,768.303L443.586,722.278L429.805,722.278C407.711,722.278 391.851,717.73 382.226,708.636C372.601,699.541 367.789,684.429 367.789,663.3L367.789,579.242C367.789,559.399 361.336,544.012 348.429,533.08C335.523,522.148 316.382,515.579 291.007,513.374L291.007,505.933C316.382,503.729 335.523,497.114 348.429,486.09C361.336,475.066 367.789,459.633 367.789,439.79L367.789,356.835C367.789,335.705 372.601,320.594 382.226,311.499C391.851,302.404 407.711,297.857 429.805,297.857L443.586,297.857L443.586,251.832L423.242,251.832C380.804,251.832 349.687,259.732 329.89,275.533C310.093,291.334 300.195,316.046 300.195,349.669L300.195,421.049C300.195,442.546 294.726,457.566 283.789,466.109C272.851,474.653 253.601,478.925 226.039,478.925L226.039,540.107C253.601,540.291 272.851,544.655 283.789,553.198C294.726,561.742 300.195,576.67 300.195,597.983L300.195,670.19C300.195,703.813 310.093,728.571 329.89,744.464C349.687,760.356 380.804,768.303 423.242,768.303ZM600.758,768.303C643.196,768.303 674.313,760.356 694.11,744.464C713.907,728.571 723.805,703.813 723.805,670.19L723.805,597.983C723.805,576.67 729.274,561.742 740.211,553.198C751.149,544.655 770.399,540.291 797.961,540.107L797.961,478.925C770.399,478.925 751.149,474.653 740.211,466.109C729.274,457.566 723.805,442.546 723.805,421.049L723.805,349.669C723.805,316.046 713.907,291.334 694.11,275.533C674.313,259.732 643.196,251.832 600.758,251.832L580.414,251.832L580.414,297.857L594.195,297.857C616.508,297.857 632.422,302.404 641.938,311.499C651.453,320.594 656.211,335.705 656.211,356.835L656.211,439.79C656.211,459.633 662.664,475.066 675.571,486.09C688.477,497.114 707.727,503.729 733.321,505.933L733.321,513.374C707.727,515.579 688.477,522.148 675.571,533.08C662.664,544.012 656.211,559.399 656.211,579.242L656.211,663.3C656.211,684.429 651.399,699.541 641.774,708.636C632.149,717.73 616.289,722.278 594.195,722.278L580.414,722.278L580.414,768.303L600.758,768.303Z"/>
    </g>
</svg>
