<?xml version="1.0" encoding="UTF-8" standalone="no"?>
<!DOCTYPE svg PUBLIC "-//W3C//DTD SVG 1.1//EN" "http://www.w3.org/Graphics/SVG/1.1/DTD/svg11.dtd">
<svg width="100%" height="100%" viewBox="0 0 16 16" version="1.1" xmlns="http://www.w3.org/2000/svg" xmlns:xlink="http://www.w3.org/1999/xlink" xml:space="preserve" xmlns:serif="http://www.serif.com/" style="fill-rule:evenodd;clip-rule:evenodd;stroke-linejoin:round;stroke-miterlimit:2;">
    <g id="mrsService" transform="matrix(0.015625,0,0,0.015625,0,0)">
        <path d="M995.549,597.339C1011.27,597.339 1024,584.594 1024,568.887L1024,455.113C1024,439.406 1011.27,426.661 995.549,426.661L964.261,426.661C928.894,426.535 897.229,404.653 884.626,371.602C881.617,363.693 878.34,355.832 874.827,348.128C860.207,315.849 866.997,277.882 891.904,252.66L914.18,230.368C925.286,219.262 925.286,201.271 914.18,190.149L833.788,109.757C822.634,98.729 804.691,98.729 793.537,109.757L771.277,132.017C746.071,156.94 708.104,163.714 675.808,149.079C668.089,145.581 660.244,142.336 652.288,139.296C619.315,126.645 597.48,95.059 597.339,59.739L597.339,28.436C597.339,12.729 584.594,-0 568.887,-0L455.113,-0C439.406,-0 426.661,12.729 426.661,28.436L426.661,59.739C426.535,95.106 404.653,126.755 371.602,139.374C363.693,142.383 355.832,145.66 348.128,149.173C315.849,163.824 277.882,157.019 252.66,132.096L230.384,109.82C219.262,98.729 201.271,98.729 190.149,109.82L109.757,190.149C104.432,195.489 101.423,202.72 101.423,210.282C101.423,217.813 104.432,225.075 109.757,230.4L132.017,252.66C156.924,277.882 163.714,315.849 149.079,348.128C145.581,355.848 142.336,363.693 139.296,371.649C126.661,404.653 95.074,426.504 59.739,426.661L28.451,426.661C12.729,426.661 -0,439.406 -0,455.113L-0,568.887C-0,584.594 12.729,597.339 28.451,597.339L59.739,597.339C95.106,597.465 126.771,619.347 139.374,652.398C142.383,660.307 145.66,668.168 149.173,675.872C163.793,708.151 157.003,746.118 132.096,771.34L109.82,793.632C98.729,804.738 98.729,822.745 109.82,833.851L190.212,914.243C195.537,919.568 202.784,922.577 210.33,922.577C217.876,922.577 225.122,919.568 230.463,914.243L252.723,891.983C277.945,867.092 315.896,860.302 348.192,874.921C355.895,878.434 363.756,881.696 371.712,884.704C404.685,897.355 426.52,928.941 426.661,964.261L426.661,995.549C426.661,1011.27 439.406,1024 455.113,1024L568.887,1024C584.594,1024 597.339,1011.27 597.339,995.549L597.339,964.261C597.465,928.894 619.347,897.229 652.398,884.626C660.307,881.617 668.168,878.34 675.872,874.827C708.151,860.176 746.118,866.966 771.34,891.904L793.632,914.18C804.738,925.286 822.729,925.286 833.851,914.18L914.243,833.788C919.568,828.463 922.577,821.216 922.577,813.67C922.577,806.124 919.568,798.878 914.243,793.537L891.983,771.277C867.076,746.055 860.286,708.104 874.921,675.808C878.434,668.089 881.696,660.244 884.704,652.288C897.355,619.315 928.941,597.48 964.261,597.339L995.549,597.339ZM926.637,565.977C940.119,565.977 951.034,555.048 951.034,541.58L951.034,482.42C951.034,468.952 940.119,458.023 926.637,458.023L899.809,458.023C869.482,457.915 842.329,419.952 831.522,391.61C828.942,384.829 826.132,378.088 823.12,371.482C810.583,343.803 797.206,292.047 818.563,270.419L837.664,251.304C847.188,241.781 847.188,226.354 837.664,216.817L800.729,186.282C791.165,176.825 775.779,176.825 766.215,186.282L747.127,205.369C725.513,226.74 680.157,213.349 652.464,200.799C645.845,197.8 639.117,195.018 632.295,192.41C604.021,181.563 559.698,154.478 559.577,124.191L559.577,97.35C559.577,83.881 548.648,72.966 535.18,72.966L488.82,72.966C475.352,72.966 464.423,83.881 464.423,97.35L464.423,124.191C464.315,154.518 419.952,181.657 391.61,192.478C384.829,195.058 378.088,197.868 371.482,200.88C343.803,213.444 292.047,226.808 270.419,205.437L251.318,186.336C241.781,176.825 226.354,176.825 216.817,186.336L186.282,216.817C181.716,221.396 179.135,227.597 179.135,234.081C179.135,240.538 181.716,246.765 186.282,251.331L205.369,270.419C226.727,292.047 213.349,343.803 200.799,371.482C197.8,378.101 195.018,384.829 192.41,391.651C181.576,419.952 154.491,457.888 124.191,458.023L97.363,458.023C83.881,458.023 72.966,468.952 72.966,482.42L72.966,541.58C72.966,555.048 83.881,565.977 97.363,565.977L124.191,565.977C154.518,566.085 181.671,604.048 192.478,632.39C195.058,639.171 197.868,645.912 200.88,652.518C213.417,680.197 226.794,731.953 205.437,753.581L186.336,772.696C176.825,782.219 176.825,797.66 186.336,807.183L216.871,837.718C221.437,842.284 227.651,844.865 234.121,844.865C240.592,844.865 246.806,842.284 251.385,837.718L270.473,818.631C292.101,797.287 343.843,810.665 371.536,823.201C378.142,826.213 384.883,829.009 391.705,831.59C419.979,842.437 457.902,869.522 458.023,899.809L458.023,926.637C458.023,940.119 468.952,951.034 482.42,951.034L541.58,951.034C555.048,951.034 565.977,940.119 565.977,926.637L565.977,899.809C566.085,869.482 604.048,842.329 632.39,831.522C639.171,828.942 645.912,826.132 652.518,823.12C680.197,810.556 731.953,797.179 753.581,818.563L772.696,837.664C782.219,847.188 797.646,847.188 807.183,837.664L837.718,807.129C842.284,802.563 844.865,796.349 844.865,789.879C844.865,783.408 842.284,777.194 837.718,772.615L818.631,753.527C797.273,731.899 810.651,680.157 823.201,652.464C826.213,645.845 829.009,639.117 831.59,632.295C842.437,604.021 869.522,566.098 899.809,565.977L926.637,565.977ZM442.442,768.819L462.786,768.819L462.786,723.171L449.005,723.171C426.911,723.171 411.051,718.661 401.426,709.641C391.801,700.621 386.989,685.632 386.989,664.676L386.989,581.307C386.989,561.626 380.536,546.365 367.629,535.522C354.723,524.679 335.582,518.165 310.207,515.978L310.207,508.598C335.582,506.411 354.723,499.851 367.629,488.917C380.536,477.983 386.989,462.676 386.989,442.996L386.989,360.72C386.989,339.763 391.801,324.775 401.426,315.755C411.051,306.735 426.911,302.225 449.005,302.225L462.786,302.225L462.786,256.576L442.442,256.576C400.004,256.576 368.887,264.412 349.09,280.084C329.293,295.755 319.395,320.265 319.395,353.613L319.395,424.408C319.395,445.729 313.926,460.626 302.989,469.1C292.051,477.573 272.801,481.81 245.239,481.81L245.239,542.492C272.801,542.674 292.051,547.002 302.989,555.476C313.926,563.95 319.395,578.756 319.395,599.894L319.395,671.51C319.395,704.857 329.293,729.413 349.09,745.175C368.887,760.938 400.004,768.819 442.442,768.819ZM575.158,767.954C617.596,767.954 648.713,760.076 668.51,744.32C688.307,728.564 698.205,704.019 698.205,670.686L698.205,599.101C698.205,577.972 703.674,563.172 714.611,554.703C725.549,546.233 744.799,541.907 772.361,541.724L772.361,481.069C744.799,481.069 725.549,476.834 714.611,468.364C703.674,459.894 698.205,445.003 698.205,423.692L698.205,352.927C698.205,319.593 688.307,295.094 668.51,279.429C648.713,263.765 617.596,255.932 575.158,255.932L554.814,255.932L554.814,301.561L568.595,301.561C590.908,301.561 606.822,306.069 616.338,315.085C625.853,324.102 630.611,339.083 630.611,360.03L630.611,442.271C630.611,461.943 637.064,477.244 649.971,488.172C662.877,499.101 682.127,505.659 707.721,507.845L707.721,515.222C682.127,517.407 662.877,523.919 649.971,534.757C637.064,545.595 630.611,560.85 630.611,580.522L630.611,663.855C630.611,684.803 625.799,699.784 616.174,708.801C606.549,717.817 590.689,722.325 568.595,722.325L554.814,722.325L554.814,767.954L575.158,767.954Z"/>
    </g>
</svg>
