<?xml version="1.0" encoding="UTF-8" standalone="no"?>
<!DOCTYPE svg PUBLIC "-//W3C//DTD SVG 1.1//EN" "http://www.w3.org/Graphics/SVG/1.1/DTD/svg11.dtd">
<svg width="100%" height="100%" viewBox="0 0 16 16" version="1.1" xmlns="http://www.w3.org/2000/svg" xmlns:xlink="http://www.w3.org/1999/xlink" xml:space="preserve" xmlns:serif="http://www.serif.com/" style="fill-rule:evenodd;clip-rule:evenodd;stroke-linejoin:round;stroke-miterlimit:2;">
    <g id="adminDashboard" transform="matrix(1,0,0,1,0,1)">
        <g transform="matrix(1,0,0,1,-4.5,-5.3)">
            <path d="M8.992,9.369C9.803,9.369 10.462,10.028 10.462,10.839C10.462,11.651 9.803,12.31 8.992,12.31C8.18,12.31 7.521,11.651 7.521,10.839C7.521,10.028 8.18,9.369 8.992,9.369ZM8.992,10.242C9.321,10.242 9.589,10.51 9.589,10.839C9.589,11.169 9.321,11.436 8.992,11.436C8.662,11.436 8.395,11.169 8.395,10.839C8.395,10.51 8.662,10.242 8.992,10.242Z"/>
        </g>
        <g transform="matrix(1,0,0,1,-1.50386,-1.35882)">
            <path d="M8.992,9.369C9.803,9.369 10.462,10.028 10.462,10.839C10.462,11.651 9.803,12.31 8.992,12.31C8.18,12.31 7.521,11.651 7.521,10.839C7.521,10.028 8.18,9.369 8.992,9.369ZM8.992,10.242C9.321,10.242 9.589,10.51 9.589,10.839C9.589,11.169 9.321,11.436 8.992,11.436C8.662,11.436 8.395,11.169 8.395,10.839C8.395,10.51 8.662,10.242 8.992,10.242Z"/>
        </g>
        <g transform="matrix(1,0,0,1,1.499,-3.30942)">
            <path d="M8.992,9.369C9.803,9.369 10.462,10.028 10.462,10.839C10.462,11.651 9.803,12.31 8.992,12.31C8.18,12.31 7.521,11.651 7.521,10.839C7.521,10.028 8.18,9.369 8.992,9.369ZM8.992,10.228C9.329,10.228 9.603,10.502 9.603,10.839C9.603,11.177 9.329,11.451 8.992,11.451C8.654,11.451 8.38,11.177 8.38,10.839C8.38,10.502 8.654,10.228 8.992,10.228Z"/>
        </g>
        <g transform="matrix(1.01986,0,0,1.91099,-2.17821,-15.5145)">
            <rect x="6.067" y="12.131" width="0.988" height="1.738"/>
        </g>
        <g transform="matrix(1.01986,0,0,0.937953,3.81436,-2.01924)">
            <rect x="6.067" y="12.131" width="0.988" height="1.738"/>
        </g>
        <g transform="matrix(1.00365,0,0,1.94492,0.900228,-19.596)">
            <rect x="6.067" y="12.131" width="0.988" height="1.738"/>
        </g>
        <g transform="matrix(1.00365,0,0,0.838014,3.91224,-6.16131)">
            <rect x="6.067" y="12.131" width="0.988" height="1.738"/>
        </g>
        <g transform="matrix(1,0,0,1,-1,-2)">
            <path d="M14,5L14,14L3,14L3,5M14,4L3,4C2.451,4 2,4.451 2,5L2,14C2,14.549 2.451,15 3,15L14,15C14.549,15 15,14.549 15,14L15,5C15,4.451 14.549,4 14,4Z"/>
        </g>
    </g>
</svg>
