<?xml version="1.0" encoding="UTF-8" standalone="no"?>
<!DOCTYPE svg PUBLIC "-//W3C//DTD SVG 1.1//EN" "http://www.w3.org/Graphics/SVG/1.1/DTD/svg11.dtd">
<svg width="100%" height="100%" viewBox="0 0 16 16" version="1.1" xmlns="http://www.w3.org/2000/svg" xmlns:xlink="http://www.w3.org/1999/xlink" xml:space="preserve" xmlns:serif="http://www.serif.com/" style="fill-rule:evenodd;clip-rule:evenodd;stroke-linejoin:round;stroke-miterlimit:2;">
    <g id="clientConnections" transform="matrix(0.0132735,0,0,0.0124748,2.74273,-0.736333)">
        <g transform="matrix(75.2284,0,0,60.3308,-55.8459,58.9287)">
            <rect x="1" y="2" width="1" height="12"/>
        </g>
        <g transform="matrix(72.5993,0,0,60.2952,-317.321,58.9999)">
            <rect x="14" y="2" width="1" height="12"/>
        </g>
        <g transform="matrix(17.074,0,0,17.074,-724.401,786.808)">
            <path d="M87.625,6.828C87.625,10.685 77.761,13.813 65.594,13.813C53.426,13.813 43.562,10.685 43.562,6.828L46.759,5.156C46.759,5.156 47.255,5.552 47.532,5.739C47.965,6.03 48.496,6.352 48.998,6.569C52.75,8.192 58.814,9.193 65.647,9.193C72.48,9.193 78.543,8.192 82.295,6.569C82.797,6.352 83.329,6.03 83.761,5.739L84.538,5.205L87.625,6.828Z"/>
        </g>
        <g transform="matrix(17.074,0,0,17.074,-724.401,546.089)">
            <path d="M87.625,6.828C87.625,10.685 77.761,13.813 65.594,13.813C53.426,13.813 43.562,10.685 43.562,6.828L46.793,5.149C46.793,5.149 47.289,5.546 47.567,5.732C48,6.023 48.531,6.346 49.033,6.563C52.785,8.185 58.849,9.186 65.681,9.186C72.514,9.186 78.578,8.185 82.33,6.563C82.832,6.346 83.363,6.023 83.796,5.732L84.573,5.199L87.625,6.828Z"/>
        </g>
        <g transform="matrix(17.074,0,0,17.074,-724.401,305.601)">
            <path d="M87.625,6.828C87.625,10.685 77.761,13.813 65.594,13.813C53.426,13.813 43.562,10.685 43.562,6.828L46.749,5.172C46.749,5.172 47.245,5.568 47.523,5.755C47.956,6.046 48.487,6.368 48.989,6.585C52.741,8.208 58.804,9.208 65.637,9.208C72.47,9.208 78.534,8.208 82.286,6.585C82.788,6.368 83.319,6.046 83.752,5.755L84.529,5.221L87.625,6.828Z"/>
        </g>
        <g transform="matrix(17.074,0,0,17.2402,-724.401,61.7199)">
            <path d="M65.594,-0.156C77.761,-0.156 87.625,2.971 87.625,6.828C87.625,10.685 77.761,13.813 65.594,13.813C53.426,13.813 43.562,10.685 43.562,6.828C43.562,2.971 53.426,-0.156 65.594,-0.156ZM83.31,6.687C82.888,6.919 82.37,7.176 81.88,7.349C78.219,8.644 72.303,9.443 65.636,9.443C58.968,9.443 53.052,8.644 49.391,7.349C48.901,7.176 48.383,6.919 47.961,6.687C48.383,6.454 48.901,6.197 49.391,6.024C53.052,4.729 58.968,3.93 65.636,3.93C72.303,3.93 78.219,4.729 81.88,6.024C82.37,6.197 82.888,6.454 83.31,6.687Z"/>
        </g>
        <g transform="matrix(67.3382,0,0,64.5334,-142.212,283.78)">
            <rect x="0" y="14" width="16" height="1"/>
        </g>
        <g transform="matrix(75.3379,0,0,69.5062,-206.631,213.16)">
            <path d="M10,13.536C10,13.24 9.792,13 9.535,13L6.465,13C6.208,13 6,13.24 6,13.536L6,15.464C6,15.76 6.208,16 6.465,16L9.535,16C9.792,16 10,15.76 10,15.464L10,13.536Z"/>
        </g>
        <g transform="matrix(75.3379,0,0,95.4505,-170.308,-123.419)">
            <rect x="7" y="12" width="1" height="1"/>
        </g>
    </g>
</svg>
