<?xml version="1.0" encoding="UTF-8" standalone="no"?>
<!DOCTYPE svg PUBLIC "-//W3C//DTD SVG 1.1//EN" "http://www.w3.org/Graphics/SVG/1.1/DTD/svg11.dtd">
<svg width="100%" height="100%" viewBox="0 0 16 16" version="1.1" xmlns="http://www.w3.org/2000/svg" xmlns:xlink="http://www.w3.org/1999/xlink" xml:space="preserve" xmlns:serif="http://www.serif.com/" style="fill-rule:evenodd;clip-rule:evenodd;stroke-linejoin:round;stroke-miterlimit:2;">
    <g id="DataLakeLoader">
        <g transform="matrix(0.642857,0,0,1,0.995536,0.516227)">
            <path d="M21.865,13.498C21.826,13.53 21.729,13.613 21.676,13.675C21.537,13.839 21.407,14.034 21.257,14.229C20.745,14.898 20.013,15.516 18.613,15.516C17.249,15.516 16.51,14.93 15.895,14.293C15.721,14.112 15.557,13.931 15.37,13.78C15.215,13.655 15.056,13.542 14.798,13.542C14.578,13.542 14.41,13.618 14.255,13.712C13.987,13.874 13.76,14.092 13.525,14.308C12.84,14.936 12.064,15.5 10.889,15.5C9.879,15.5 9.214,15.104 8.659,14.576C8.425,14.352 8.209,14.107 7.957,13.892C7.715,13.686 7.448,13.5 7,13.5C6.554,13.5 6.293,13.686 6.053,13.892C5.799,14.108 5.578,14.356 5.334,14.582C4.77,15.102 4.084,15.5 3,15.5C1.663,15.5 0.926,14.886 0.424,14.217C0.277,14.021 0.15,13.825 0.019,13.66C-0.026,13.603 -0.103,13.529 -0.143,13.491C-0.504,13.448 -0.778,13.244 -0.778,13C-0.778,12.724 -0.429,12.5 0,12.5C0.546,12.5 1.037,12.745 1.403,13.204C1.625,13.482 1.829,13.854 2.149,14.154C2.345,14.34 2.593,14.5 3,14.5C3.446,14.5 3.707,14.314 3.947,14.108C4.201,13.892 4.422,13.644 4.666,13.418C5.23,12.898 5.916,12.5 7,12.5C8.292,12.5 9.027,13.086 9.664,13.732C9.842,13.913 10.014,14.094 10.213,14.246C10.393,14.383 10.589,14.5 10.889,14.5C11.211,14.5 11.44,14.379 11.652,14.234C11.993,14.001 12.278,13.7 12.585,13.434C13.176,12.921 13.863,12.542 14.798,12.542C15.76,12.542 16.393,12.934 16.926,13.466C17.144,13.682 17.349,13.921 17.596,14.129C17.842,14.336 18.132,14.516 18.613,14.516C19.071,14.516 19.341,14.342 19.553,14.141C19.764,13.939 19.923,13.706 20.077,13.496C20.292,13.204 20.514,12.947 20.769,12.784C21.059,12.598 21.395,12.5 21.792,12.5C22.221,12.5 22.569,12.724 22.569,13C22.569,13.26 22.26,13.474 21.865,13.498Z"/>
        </g>
        <g transform="matrix(0.642857,0,0,1,0.995536,-2.49986)">
            <path d="M21.865,13.498C21.826,13.53 21.729,13.613 21.676,13.675C21.537,13.839 21.407,14.034 21.257,14.229C20.745,14.898 20.013,15.516 18.613,15.516C17.249,15.516 16.51,14.93 15.895,14.293C15.721,14.112 15.557,13.931 15.37,13.78C15.215,13.655 15.056,13.542 14.798,13.542C14.578,13.542 14.41,13.618 14.255,13.712C13.987,13.874 13.76,14.092 13.525,14.308C12.84,14.936 12.064,15.5 10.889,15.5C9.879,15.5 9.214,15.104 8.659,14.576C8.425,14.352 8.209,14.107 7.957,13.892C7.715,13.686 7.448,13.5 7,13.5C6.554,13.5 6.293,13.686 6.053,13.892C5.799,14.108 5.578,14.356 5.334,14.582C4.77,15.102 4.084,15.5 3,15.5C1.663,15.5 0.926,14.886 0.424,14.217C0.277,14.021 0.15,13.825 0.019,13.66C-0.026,13.603 -0.103,13.529 -0.143,13.491C-0.504,13.448 -0.778,13.244 -0.778,13C-0.778,12.724 -0.429,12.5 0,12.5C0.546,12.5 1.037,12.745 1.403,13.204C1.625,13.482 1.829,13.854 2.149,14.154C2.345,14.34 2.593,14.5 3,14.5C3.446,14.5 3.707,14.314 3.947,14.108C4.201,13.892 4.422,13.644 4.666,13.418C5.23,12.898 5.916,12.5 7,12.5C8.292,12.5 9.027,13.086 9.664,13.732C9.842,13.913 10.014,14.094 10.213,14.246C10.393,14.383 10.589,14.5 10.889,14.5C11.211,14.5 11.44,14.379 11.652,14.234C11.993,14.001 12.278,13.7 12.585,13.434C13.176,12.921 13.863,12.542 14.798,12.542C15.76,12.542 16.393,12.934 16.926,13.466C17.144,13.682 17.349,13.921 17.596,14.129C17.842,14.336 18.132,14.516 18.613,14.516C19.071,14.516 19.341,14.342 19.553,14.141C19.764,13.939 19.923,13.706 20.077,13.496C20.292,13.204 20.514,12.947 20.769,12.784C21.059,12.598 21.395,12.5 21.792,12.5C22.221,12.5 22.569,12.724 22.569,13C22.569,13.26 22.26,13.474 21.865,13.498Z"/>
        </g>
        <g transform="matrix(1.04287,0,0,1.0477,-4.73072,0)">
            <path d="M6.497,9.454L6.497,1.357L6.497,1.356C6.497,0.607 8.624,0 11.249,0C11.738,0 12.21,0.021 12.655,0.06C12.373,0.263 12.093,0.53 11.829,0.835C11.639,0.833 11.445,0.832 11.249,0.832C9.775,0.832 8.467,0.88 7.658,1.195C7.55,1.237 7.435,1.299 7.342,1.356L7.345,1.357L7.411,1.357L7.411,1.397C7.489,1.441 7.575,1.485 7.658,1.517C8.422,1.814 9.631,2.004 11.004,2.024C10.848,2.306 10.716,2.591 10.615,2.869C9.302,2.805 8.158,2.55 7.411,2.216L7.411,4.129C7.489,4.173 7.575,4.217 7.658,4.249C8.318,4.503 9.311,4.726 10.454,4.8C10.494,5.109 10.554,5.391 10.629,5.651C9.31,5.584 8.161,5.311 7.411,4.963L7.411,6.837C7.489,6.881 7.575,6.925 7.658,6.956C8.467,7.268 9.775,7.636 11.249,7.636C11.381,7.636 11.512,7.633 11.641,7.627C11.689,7.697 11.738,7.766 11.786,7.835C11.946,8.061 12.204,8.279 12.499,8.476C12.1,8.526 11.681,8.553 11.249,8.553C9.673,8.553 8.276,8.187 7.411,7.734L7.411,9.509L7.345,9.509C7.397,9.54 7.455,9.573 7.515,9.603L6.497,9.454Z"/>
        </g>
        <g transform="matrix(-0.00531764,6.51223e-19,6.51223e-19,0.00531764,18.2758,-3.21631)">
            <path d="M1224,2032.95C1207,2021.95 1188,1998.95 1181,1980.95C1174,1958.95 1170,1804.95 1170,1487.95L1170,1215L1073,1311C956,1426 936,1440 892,1440C842,1440 790,1386 790,1334C790,1298 801,1285 1014,1072C1235,850 1238,847 1280,847C1322,847 1325,850 1544,1069L1765,1290L1765,1336C1765,1375 1760,1386 1732,1411C1697,1442 1656,1449 1617,1429C1605,1423 1549,1372 1493,1317L1390,1215L1390,1489.95C1390,1997.95 1389,2005.95 1331,2035.95C1291,2056.95 1262,2055.95 1224,2032.95Z" style="fill-rule:nonzero;"/>
        </g>
        <path d="M11.483,-0.029C13.976,-0.029 16,1.996 16,4.489C16,6.982 13.976,9.006 11.483,9.006C8.989,9.006 6.965,6.982 6.965,4.489C6.965,1.996 8.989,-0.029 11.483,-0.029ZM11.483,1.055C9.521,1.055 7.928,2.647 7.928,4.609C7.928,6.571 9.521,8.164 11.483,8.164C13.444,8.164 15.037,6.571 15.037,4.609C15.037,2.647 13.444,1.055 11.483,1.055Z"/>
    </g>
</svg>
