<?xml version="1.0" encoding="UTF-8"?>
<!DOCTYPE svg PUBLIC "-//W3C//DTD SVG 1.1//EN" "http://www.w3.org/Graphics/SVG/1.1/DTD/svg11.dtd">
<svg version="1.1" xmlns="http://www.w3.org/2000/svg" xmlns:xlink="http://www.w3.org/1999/xlink" width="100%" height="100%" viewBox="0, 0, 1024, 1024">
  <g id="Close_Thick">
    <g>
      <path d="M359.765,257.942 L767.058,665.235 C795.176,693.353 795.176,738.941 767.058,767.058 L767.058,767.058 C738.941,795.176 693.353,795.176 665.235,767.058 L257.942,359.765 C229.824,331.647 229.824,286.059 257.942,257.942 L257.942,257.942 C286.059,229.824 331.647,229.824 359.765,257.942 z" fill="#000000"/>
      <path d="M359.765,257.942 L767.058,665.235 C795.176,693.353 795.176,738.941 767.058,767.058 L767.058,767.058 C738.941,795.176 693.353,795.176 665.235,767.058 L257.942,359.765 C229.824,331.647 229.824,286.059 257.942,257.942 L257.942,257.942 C286.059,229.824 331.647,229.824 359.765,257.942 z" fill-opacity="0" stroke="#000000" stroke-width="1"/>
    </g>
    <g>
      <path d="M257.942,665.235 L665.235,257.942 C693.353,229.824 738.941,229.824 767.058,257.942 L767.058,257.942 C795.176,286.059 795.176,331.647 767.058,359.765 L359.765,767.058 C331.647,795.176 286.059,795.176 257.942,767.058 L257.942,767.058 C229.824,738.941 229.824,693.353 257.942,665.235 z" fill="#000000"/>
      <path d="M257.942,665.235 L665.235,257.942 C693.353,229.824 738.941,229.824 767.058,257.942 L767.058,257.942 C795.176,286.059 795.176,331.647 767.058,359.765 L359.765,767.058 C331.647,795.176 286.059,795.176 257.942,767.058 L257.942,767.058 C229.824,738.941 229.824,693.353 257.942,665.235 z" fill-opacity="0" stroke="#000000" stroke-width="1"/>
    </g>
  </g>
</svg>
