<?xml version="1.0" encoding="UTF-8" standalone="no"?>
<!DOCTYPE svg PUBLIC "-//W3C//DTD SVG 1.1//EN" "http://www.w3.org/Graphics/SVG/1.1/DTD/svg11.dtd">
<svg width="100%" height="100%" viewBox="0 0 16 16" version="1.1" xmlns="http://www.w3.org/2000/svg" xmlns:xlink="http://www.w3.org/1999/xlink" xml:space="preserve" xmlns:serif="http://www.serif.com/" style="fill-rule:evenodd;clip-rule:evenodd;stroke-linejoin:round;stroke-miterlimit:2;">
    <g id="mrsAuthAppLink">
        <path d="M7.463,14.712L7.246,14.712C6.734,14.411 6.232,14.094 5.741,13.76C5.24,13.42 4.758,13.053 4.297,12.66C3.839,12.265 3.409,11.84 3.009,11.386C2.609,10.931 2.256,10.436 1.959,9.908C1.66,9.374 1.425,8.807 1.259,8.218C1.085,7.594 0.998,6.948 1,6.3L1,3.1L1.5,2.6C1.833,2.6 2.156,2.589 2.47,2.564C2.766,2.541 3.061,2.498 3.352,2.436C3.636,2.374 3.914,2.288 4.184,2.18C4.468,2.062 4.741,1.919 5,1.753C5.367,1.512 5.765,1.322 6.184,1.188C6.833,1 7.515,0.952 8.184,1.046C8.614,1.106 9.032,1.235 9.421,1.429C9.62,1.526 9.813,1.633 10.001,1.751C10.261,1.918 10.536,2.061 10.822,2.179C11.092,2.288 11.369,2.373 11.653,2.435C11.944,2.497 12.24,2.541 12.537,2.564C12.848,2.588 13.171,2.599 13.504,2.599L14.004,3.099L14.004,6.299C14.006,6.696 13.975,7.092 13.91,7.483L12.891,7.483C12.967,7.094 13.003,6.698 13.001,6.3L13.001,3.59C12.842,3.59 12.688,3.578 12.536,3.567L12.457,3.561C12.115,3.534 11.775,3.485 11.439,3.414C10.738,3.261 10.069,2.985 9.463,2.6C9.307,2.501 9.146,2.411 8.981,2.33C8.684,2.184 8.366,2.086 8.038,2.04C7.517,1.964 6.986,2 6.48,2.146C6.148,2.254 5.831,2.406 5.54,2.598C5.228,2.798 4.9,2.97 4.557,3.111C4.233,3.24 3.898,3.343 3.557,3.418C3.222,3.488 2.882,3.538 2.54,3.564C2.366,3.574 2.185,3.584 2,3.59L2,6.3C1.996,6.855 2.07,7.41 2.22,7.945C2.364,8.459 2.569,8.953 2.83,9.418C3.093,9.885 3.405,10.323 3.76,10.726C4.13,11.143 4.526,11.536 4.948,11.9C5.38,12.268 5.831,12.612 6.3,12.93C6.688,13.189 7.075,13.437 7.463,13.676L7.463,14.712ZM8.633,7.483L7.463,7.483L7.463,10.5L6.5,10.5L6.935,7.89C6.371,7.661 6,7.109 6,6.5C6,5.678 6.677,5 7.5,5C8.323,5 9,5.678 9,6.5C9,6.869 8.864,7.216 8.633,7.483Z"/>
        <g transform="matrix(1,0,0,1,7,1)">
            <path d="M8.5,7L1.5,7L1,7.5L1,14.5L1.5,15L8.5,15L9,14.5L9,7.5L8.5,7ZM8,14L2,14L2,8L8,8L8,14ZM7,9.5L7,12.5L6,12.5L6,10.707L3.354,13.354L2.646,12.646L5.293,10L3.53,10L3.53,9L6.5,9L7,9.5Z" style="fill:rgb(0,102,210);"/>
        </g>
    </g>
</svg>
