<?xml version="1.0" encoding="UTF-8" standalone="no"?>
<!DOCTYPE svg PUBLIC "-//W3C//DTD SVG 1.1//EN" "http://www.w3.org/Graphics/SVG/1.1/DTD/svg11.dtd">
<svg width="100%" height="100%" viewBox="0 0 16 16" version="1.1" xmlns="http://www.w3.org/2000/svg" xmlns:xlink="http://www.w3.org/1999/xlink" xml:space="preserve" xmlns:serif="http://www.serif.com/" style="fill-rule:evenodd;clip-rule:evenodd;stroke-linejoin:round;stroke-miterlimit:2;">
    <g id="mrsContentSetLocked">
        <g id="mrsContentSet">
            <path d="M9,5.99L7.69,5.99L6.83,6.85L6.48,7L1.99,7L1.99,13L8.49,13L8.49,14L1.51,14L1.01,13.5L1.01,2.5L1.51,2L6.51,2L6.86,2.15L7.71,3L9,3L9,4.01L7.5,4.01L7.14,3.86L6.29,3.01L2,3.01L2,6.01L6.28,6.01L7.14,5.15L7.49,5L9,5L9,5.99Z" style="fill-opacity:0.5;"/>
            <g transform="matrix(0.798374,0,0,0.799165,7.74662,3.13211)">
                <path d="M5.103,16.129C4.316,16.129 3.74,15.975 3.373,15.667C3.006,15.358 2.823,14.878 2.823,14.227L2.823,12.827C2.823,12.413 2.722,12.124 2.519,11.958C2.316,11.793 1.96,11.708 1.449,11.704L1.449,10.518C1.96,10.518 2.316,10.435 2.519,10.27C2.722,10.104 2.823,9.813 2.823,9.396L2.823,8.012C2.823,7.36 3.006,6.881 3.373,6.575C3.74,6.268 4.316,6.115 5.103,6.115L5.48,6.115L5.48,7.007L5.224,7.007C4.815,7.007 4.521,7.096 4.343,7.272C4.165,7.448 4.075,7.741 4.075,8.151L4.075,9.759C4.075,10.144 3.956,10.443 3.717,10.657C3.478,10.871 3.123,10.999 2.653,11.042L2.653,11.186C3.123,11.229 3.478,11.356 3.717,11.568C3.956,11.78 4.075,12.078 4.075,12.463L4.075,14.093C4.075,14.503 4.165,14.796 4.343,14.972C4.521,15.148 4.815,15.236 5.224,15.236L5.48,15.236L5.48,16.129L5.103,16.129ZM6.813,16.119L6.438,16.119L6.438,15.227L6.692,15.227C7.099,15.227 7.391,15.139 7.569,14.963C7.746,14.786 7.835,14.493 7.835,14.084L7.835,12.454C7.835,12.069 7.954,11.771 8.191,11.559C8.429,11.347 8.784,11.219 9.255,11.177L9.255,11.032C8.784,10.99 8.429,10.861 8.191,10.648C7.954,10.434 7.835,10.135 7.835,9.75L7.835,8.141C7.835,7.732 7.747,7.439 7.572,7.262C7.396,7.086 7.103,6.998 6.692,6.998L6.438,6.998L6.438,6.106L6.813,6.106C7.595,6.106 8.168,6.259 8.533,6.565C8.898,6.872 9.08,7.351 9.08,8.003L9.08,9.387C9.08,9.803 9.181,10.095 9.382,10.26C9.584,10.426 9.938,10.509 10.446,10.509L10.446,11.695C9.938,11.699 9.584,11.783 9.382,11.949C9.181,12.114 9.08,12.404 9.08,12.817L9.08,14.217C9.08,14.869 8.898,15.349 8.533,15.657C8.168,15.965 7.595,16.119 6.813,16.119Z" style="fill-opacity:0.5;"/>
            </g>
        </g>
        <g transform="matrix(0.60154,0,0,0.582877,8.17998,-1.16575)">
            <g id="Private">
                <path d="M3,8L3.933,7.144L11.933,7.144L13,8L13,13L12,14L4,14L3,13L3,8ZM4.655,8.851L4.672,12.309L11.338,12.318L11.337,8.877L4.655,8.851ZM11.317,7.144L11.33,5.009C11.33,3.363 9.646,2 8,2C6.354,2 4.673,3.373 4.673,5.018L4.684,7.144L6.36,7.144L6.322,5.514C6.322,4.417 6.898,3.744 7.995,3.744C9.092,3.744 9.673,4.425 9.673,5.523L9.686,7.144L11.317,7.144Z" style="fill:rgb(233,156,0);fill-rule:nonzero;"/>
            </g>
        </g>
    </g>
</svg>
