<?xml version="1.0" encoding="UTF-8" standalone="no"?>
<!DOCTYPE svg PUBLIC "-//W3C//DTD SVG 1.1//EN" "http://www.w3.org/Graphics/SVG/1.1/DTD/svg11.dtd">
<svg width="100%" height="100%" viewBox="0 0 16 16" version="1.1" xmlns="http://www.w3.org/2000/svg" xmlns:xlink="http://www.w3.org/1999/xlink" xml:space="preserve" xmlns:serif="http://www.serif.com/" style="fill-rule:evenodd;clip-rule:evenodd;stroke-linejoin:round;stroke-miterlimit:2;">
    <g id="mrsDbObjectFunctionDisabled">
        <path d="M9,2.999L2,2.999L2,13.997L8.196,13.997L8.196,14.996L1,14.996L1,1L9,1L9,2.999ZM9.286,5.166C9.149,5.33 9.019,5.523 8.897,5.746C8.743,6.029 8.608,6.34 8.495,6.681C8.381,7.021 8.293,7.375 8.229,7.741C8.166,8.107 8.134,8.467 8.134,8.821C8.134,9.177 8.166,9.538 8.229,9.904C8.277,10.182 8.34,10.452 8.417,10.716L8.196,10.98L8.196,12.304C7.989,12.05 7.81,11.783 7.66,11.503C7.45,11.11 7.294,10.691 7.192,10.245C7.09,9.799 7.039,9.324 7.039,8.821C7.039,8.316 7.09,7.841 7.191,7.396C7.291,6.951 7.447,6.532 7.657,6.14C7.867,5.747 8.134,5.381 8.459,5.041L9.204,5.041L9.286,5.166ZM3.999,11L3.993,8L2.999,8L3.005,7.011L3.999,7.011L3.999,6.3C3.999,6.007 4.028,5.765 4.149,5.572C4.27,5.38 4.453,5.237 4.699,5.142C4.945,5.047 5.254,5 5.625,5C5.746,5 5.858,5.003 5.961,5.011C6.064,5.018 6.163,5.028 6.257,5.042L6.257,5.837C6.208,5.83 6.148,5.824 6.077,5.821C6.006,5.818 5.93,5.816 5.848,5.816C5.553,5.816 5.342,5.874 5.216,5.988C5.089,6.103 4.99,6.271 4.99,6.495L4.99,7.011L5.994,7.011L5.989,8L4.996,8L5.001,11L3.999,11ZM11.821,16.022C11.193,16.022 10.733,15.899 10.44,15.652C10.147,15.406 10,15.022 10,14.501L10,13.383C10,13.052 9.92,12.821 9.758,12.689C9.596,12.556 9.311,12.489 8.903,12.486L8.903,11.538C9.311,11.538 9.596,11.472 9.758,11.339C9.92,11.207 10,10.974 10,10.641L10,9.535C10,9.014 10.147,8.631 10.44,8.386C10.733,8.141 11.193,8.019 11.821,8.019L12.121,8.019L12.121,8.732L11.918,8.732C11.591,8.732 11.356,8.803 11.214,8.944C11.071,9.084 11,9.319 11,9.646L11,10.931C11,11.239 10.905,11.478 10.714,11.649C10.523,11.82 10.24,11.922 9.865,11.956L9.865,12.072C10.24,12.106 10.523,12.208 10.714,12.377C10.905,12.546 11,12.785 11,13.092L11,14.395C11,14.722 11.071,14.956 11.214,15.097C11.356,15.238 11.591,15.309 11.918,15.309L12.121,15.309L12.121,16.022L11.821,16.022ZM13.186,16.014L12.887,16.014L12.887,15.301L13.09,15.301C13.414,15.301 13.648,15.231 13.789,15.09C13.931,14.949 14.002,14.715 14.002,14.387L14.002,13.085C14.002,12.777 14.097,12.539 14.286,12.369C14.476,12.2 14.759,12.098 15.136,12.064L15.136,11.949C14.759,11.915 14.476,11.812 14.286,11.641C14.097,11.47 14.002,11.231 14.002,10.924L14.002,9.638C14.002,9.311 13.932,9.077 13.792,8.936C13.652,8.795 13.418,8.725 13.09,8.725L12.887,8.725L12.887,8.011L13.186,8.011C13.81,8.011 14.268,8.134 14.559,8.379C14.85,8.624 14.996,9.006 14.996,9.527L14.996,10.633C14.996,10.967 15.076,11.199 15.237,11.332C15.398,11.464 15.681,11.53 16.086,11.53L16.086,12.478C15.681,12.481 15.398,12.549 15.237,12.681C15.076,12.814 14.996,13.045 14.996,13.375L14.996,14.494C14.996,15.015 14.85,15.399 14.559,15.645C14.268,15.891 13.81,16.014 13.186,16.014Z" style="fill-opacity:0.5;"/>
        <g transform="matrix(0.862201,0,0,0.862201,2.28373,-7.79214)">
            <g id="Disabled">
                <circle cx="12.429" cy="12.517" r="3.479" style="fill:rgb(210,0,0);"/>
            </g>
        </g>
    </g>
</svg>
