<?xml version="1.0" encoding="UTF-8" standalone="no"?>
<!DOCTYPE svg PUBLIC "-//W3C//DTD SVG 1.1//EN" "http://www.w3.org/Graphics/SVG/1.1/DTD/svg11.dtd">
<svg width="100%" height="100%" viewBox="0 0 16 16" version="1.1" xmlns="http://www.w3.org/2000/svg" xmlns:xlink="http://www.w3.org/1999/xlink" xml:space="preserve" xmlns:serif="http://www.serif.com/" style="fill-rule:evenodd;clip-rule:evenodd;stroke-linejoin:round;stroke-miterlimit:2;">
    <g id="mrsDbObjectLocked">
        <path d="M14.996,8L14.996,14.996L1,14.996L1,1L9.949,1L9.949,2.198L9.201,2.999L2,2.999L2,13.997L13.997,13.997L13.997,7.999L14.996,8ZM12.455,7.999L12.455,9.038C11.999,9.042 11.68,9.118 11.499,9.267C11.318,9.415 11.227,9.676 11.227,10.047L11.227,11.306C11.227,11.892 11.063,12.323 10.735,12.6C10.408,12.878 9.892,13.016 9.189,13.016L8.852,13.016L8.852,12.214L9.081,12.214C9.447,12.214 9.709,12.135 9.869,11.976C10.028,11.817 10.108,11.554 10.108,11.186L10.108,9.72C10.108,9.375 10.215,9.106 10.428,8.916C10.642,8.725 10.961,8.611 11.385,8.572L11.385,8.443C10.961,8.404 10.642,8.289 10.428,8.097C10.394,8.066 10.363,8.033 10.334,7.999L12.455,7.999ZM9.05,4.816L8.852,4.816L8.852,4.013L9.048,4.013L9.05,4.816ZM6.808,13.016C6.101,13.016 5.583,12.878 5.253,12.6C4.924,12.323 4.759,11.892 4.759,11.306L4.759,10.047C4.759,9.676 4.668,9.415 4.485,9.267C4.303,9.118 3.983,9.042 3.523,9.038L3.523,7.972C3.983,7.972 4.303,7.897 4.485,7.748C4.668,7.6 4.759,7.338 4.759,6.963L4.759,5.719C4.759,5.133 4.924,4.702 5.253,4.426C5.583,4.151 6.101,4.013 6.808,4.013L7.147,4.013L7.147,4.816L6.918,4.816C6.55,4.816 6.285,4.895 6.125,5.053C5.965,5.212 5.885,5.475 5.885,5.844L5.885,7.29C5.885,7.636 5.777,7.905 5.562,8.097C5.347,8.289 5.028,8.404 4.606,8.443L4.606,8.572C5.028,8.611 5.347,8.725 5.562,8.916C5.777,9.106 5.885,9.375 5.885,9.72L5.885,11.186C5.885,11.554 5.965,11.817 6.125,11.976C6.285,12.135 6.55,12.214 6.918,12.214L7.147,12.214L7.147,13.016L6.808,13.016Z"/>
        <g transform="matrix(0.60154,0,0,0.582877,8.17998,-1.16575)">
            <path d="M3,8L3.933,7.144L11.933,7.144L13,8L13,13L12,14L4,14L3,13L3,8ZM4.655,8.851L4.672,12.309L11.338,12.318L11.337,8.877L4.655,8.851ZM11.317,7.144L11.33,5.009C11.33,3.363 9.646,2 8,2C6.354,2 4.673,3.373 4.673,5.018L4.684,7.144L6.36,7.144L6.322,5.514C6.322,4.417 6.898,3.744 7.995,3.744C9.092,3.744 9.673,4.425 9.673,5.523L9.686,7.144L11.317,7.144Z" style="fill:rgb(233,156,0);fill-rule:nonzero;"/>
        </g>
    </g>
</svg>
