<?xml version="1.0" encoding="UTF-8" standalone="no"?>
<!DOCTYPE svg PUBLIC "-//W3C//DTD SVG 1.1//EN" "http://www.w3.org/Graphics/SVG/1.1/DTD/svg11.dtd">
<svg width="100%" height="100%" viewBox="0 0 16 16" version="1.1" xmlns="http://www.w3.org/2000/svg" xmlns:xlink="http://www.w3.org/1999/xlink" xml:space="preserve" xmlns:serif="http://www.serif.com/" style="fill-rule:evenodd;clip-rule:evenodd;stroke-linejoin:round;stroke-miterlimit:2;">
    <g id="mrsDbObjectTable">
        <path d="M8,14.996L1,14.996L1,1L14.996,1L14.996,6.996L13.997,6.994L13.997,2.999L2,2.999L2,13.997L8,13.997L8,14.996ZM8,11.998L6,11.998L6,10.998L8,10.998L8,11.998ZM9,9.999L6,9.999L6,8.999L9,8.999L9,9.999ZM9.262,7.999L6,7.999L6,6.999L10,6.999L10,7.019L9.262,7.999ZM2.999,6.998L5,6.998L5,7.998L2.999,7.998L2.999,6.998ZM11,5L13.001,5L13.001,6L11,6L11,5ZM2.999,8.998L5,8.998L5,9.998L2.999,9.998L2.999,8.998ZM2.999,4.999L5,4.999L5,5.999L2.999,5.999L2.999,4.999ZM2.999,10.997L5,10.997L5,11.997L2.999,11.997L2.999,10.997ZM6,5L10,5L10,6L6,6L6,5ZM11.821,16.022C11.193,16.022 10.733,15.899 10.44,15.652C10.147,15.406 10,15.022 10,14.501L10,13.383C10,13.052 9.92,12.821 9.758,12.689C9.596,12.556 9.311,12.489 8.903,12.486L8.903,11.538C9.311,11.538 9.596,11.472 9.758,11.339C9.92,11.207 10,10.974 10,10.641L10,9.535C10,9.014 10.147,8.631 10.44,8.386C10.733,8.141 11.193,8.019 11.821,8.019L12.121,8.019L12.121,8.732L11.918,8.732C11.591,8.732 11.356,8.803 11.214,8.944C11.071,9.084 11,9.319 11,9.646L11,10.931C11,11.239 10.905,11.478 10.714,11.649C10.523,11.82 10.24,11.922 9.865,11.956L9.865,12.072C10.24,12.106 10.523,12.208 10.714,12.377C10.905,12.546 11,12.785 11,13.092L11,14.395C11,14.722 11.071,14.956 11.214,15.097C11.356,15.238 11.591,15.309 11.918,15.309L12.121,15.309L12.121,16.022L11.821,16.022ZM13.186,16.014L12.887,16.014L12.887,15.301L13.09,15.301C13.414,15.301 13.648,15.231 13.789,15.09C13.931,14.949 14.002,14.715 14.002,14.387L14.002,13.085C14.002,12.777 14.097,12.539 14.286,12.369C14.476,12.2 14.759,12.098 15.136,12.064L15.136,11.949C14.759,11.915 14.476,11.812 14.286,11.641C14.097,11.47 14.002,11.231 14.002,10.924L14.002,9.638C14.002,9.311 13.932,9.077 13.792,8.936C13.652,8.795 13.418,8.725 13.09,8.725L12.887,8.725L12.887,8.011L13.186,8.011C13.81,8.011 14.268,8.134 14.559,8.379C14.85,8.624 14.996,9.006 14.996,9.527L14.996,10.633C14.996,10.967 15.076,11.199 15.237,11.332C15.398,11.464 15.681,11.53 16.086,11.53L16.086,12.478C15.681,12.481 15.398,12.549 15.237,12.681C15.076,12.814 14.996,13.045 14.996,13.375L14.996,14.494C14.996,15.015 14.85,15.399 14.559,15.645C14.268,15.891 13.81,16.014 13.186,16.014Z"/>
    </g>
</svg>
