<?xml version="1.0" encoding="UTF-8" standalone="no"?>
<!DOCTYPE svg PUBLIC "-//W3C//DTD SVG 1.1//EN" "http://www.w3.org/Graphics/SVG/1.1/DTD/svg11.dtd">
<svg width="100%" height="100%" viewBox="0 0 16 16" version="1.1" xmlns="http://www.w3.org/2000/svg" xmlns:xlink="http://www.w3.org/1999/xlink" xml:space="preserve" xmlns:serif="http://www.serif.com/" style="fill-rule:evenodd;clip-rule:evenodd;stroke-linejoin:round;stroke-miterlimit:2;">
    <g id="mrsServiceDisabled" transform="matrix(0.015625,0,0,0.015625,0,0)">
        <path d="M931.378,419.921C941.582,424.264 952.725,426.62 964.261,426.661L995.549,426.661C1011.27,426.661 1024,439.406 1024,455.113L1024,568.887C1024,584.594 1011.27,597.339 995.549,597.339L964.261,597.339C928.941,597.48 897.355,619.315 884.704,652.288C881.696,660.244 878.434,668.089 874.921,675.808C860.286,708.104 867.076,746.055 891.983,771.277L914.243,793.537C919.568,798.878 922.577,806.124 922.577,813.67C922.577,821.216 919.568,828.463 914.243,833.788L833.851,914.18C822.729,925.286 804.738,925.286 793.632,914.18L771.34,891.904C746.118,866.966 708.151,860.176 675.872,874.827C668.168,878.34 660.307,881.617 652.398,884.626C619.347,897.229 597.465,928.894 597.339,964.261L597.339,995.549C597.339,1011.27 584.594,1024 568.887,1024L455.113,1024C439.406,1024 426.661,1011.27 426.661,995.549L426.661,964.261C426.52,928.941 404.685,897.355 371.712,884.704C363.756,881.696 355.895,878.434 348.192,874.921C315.896,860.302 277.945,867.092 252.723,891.983L230.463,914.243C225.122,919.568 217.876,922.577 210.33,922.577C202.784,922.577 195.537,919.568 190.212,914.243L109.82,833.851C98.729,822.745 98.729,804.738 109.82,793.632L132.096,771.34C157.003,746.118 163.793,708.151 149.173,675.872C145.66,668.168 142.383,660.307 139.374,652.398C126.771,619.347 95.106,597.465 59.739,597.339L28.451,597.339C12.729,597.339 -0,584.594 -0,568.887L-0,455.113C-0,439.406 12.729,426.661 28.451,426.661L59.739,426.661C95.074,426.504 126.661,404.653 139.296,371.649C142.336,363.693 145.581,355.848 149.079,348.128C163.714,315.849 156.924,277.882 132.017,252.66L109.757,230.4C104.432,225.075 101.423,217.813 101.423,210.282C101.423,202.72 104.432,195.489 109.757,190.149L190.149,109.82C201.271,98.729 219.262,98.729 230.384,109.82L252.66,132.096C277.882,157.019 315.849,163.824 348.128,149.173C355.832,145.66 363.693,142.383 371.602,139.374C404.653,126.755 426.535,95.106 426.661,59.739L426.661,28.436C426.661,12.729 439.406,-0 455.113,-0L568.887,-0C584.594,-0 597.339,12.729 597.339,28.436L597.339,59.739C597.376,69.109 598.941,78.217 601.876,86.762C591.208,110.104 584.056,135.365 581.073,161.876C568.613,150.766 559.631,137.802 559.577,124.191L559.577,97.35C559.577,83.881 548.648,72.966 535.18,72.966L488.82,72.966C475.352,72.966 464.423,83.881 464.423,97.35L464.423,124.191C464.315,154.518 419.952,181.657 391.61,192.478C384.829,195.058 378.088,197.868 371.482,200.88C343.803,213.444 292.047,226.808 270.419,205.437L251.318,186.336C241.781,176.825 226.354,176.825 216.817,186.336L186.282,216.817C181.716,221.396 179.135,227.597 179.135,234.081C179.135,240.538 181.716,246.765 186.282,251.331L205.369,270.419C226.727,292.047 213.349,343.803 200.799,371.482C197.8,378.101 195.018,384.829 192.41,391.651C181.576,419.952 154.491,457.888 124.191,458.023L97.363,458.023C83.881,458.023 72.966,468.952 72.966,482.42L72.966,541.58C72.966,555.048 83.881,565.977 97.363,565.977L124.191,565.977C154.518,566.085 181.671,604.048 192.478,632.39C195.058,639.171 197.868,645.912 200.88,652.518C213.417,680.197 226.794,731.953 205.437,753.581L186.336,772.696C176.825,782.219 176.825,797.66 186.336,807.183L216.871,837.718C221.437,842.284 227.651,844.865 234.121,844.865C240.592,844.865 246.806,842.284 251.385,837.718L270.473,818.631C292.101,797.287 343.843,810.665 371.536,823.201C378.142,826.213 384.883,829.009 391.705,831.59C419.979,842.437 457.902,869.522 458.023,899.809L458.023,926.637C458.023,940.119 468.952,951.034 482.42,951.034L541.58,951.034C555.048,951.034 565.977,940.119 565.977,926.637L565.977,899.809C566.085,869.482 604.048,842.329 632.39,831.522C639.171,828.942 645.912,826.132 652.518,823.12C680.197,810.556 731.953,797.179 753.581,818.563L772.696,837.664C782.219,847.188 797.646,847.188 807.183,837.664L837.718,807.129C842.284,802.563 844.865,796.349 844.865,789.879C844.865,783.408 842.284,777.194 837.718,772.615L818.631,753.527C797.273,731.899 810.651,680.157 823.201,652.464C826.213,645.845 829.009,639.117 831.59,632.295C842.437,604.021 869.522,566.098 899.809,565.977L926.637,565.977C940.119,565.977 951.034,555.048 951.034,541.58L951.034,482.42C951.034,468.952 940.119,458.023 926.637,458.023L899.809,458.023C886.174,457.975 873.18,450.274 862.047,439.211C886.429,436.13 909.724,429.543 931.378,419.921ZM442.442,768.819L462.786,768.819L462.786,723.171L449.005,723.171C426.911,723.171 411.051,718.661 401.426,709.641C391.801,700.621 386.989,685.632 386.989,664.676L386.989,581.307C386.989,561.626 380.536,546.365 367.629,535.522C354.723,524.679 335.582,518.165 310.207,515.978L310.207,508.598C335.582,506.411 354.723,499.851 367.629,488.917C380.536,477.983 386.989,462.676 386.989,442.996L386.989,360.72C386.989,339.763 391.801,324.775 401.426,315.755C411.051,306.735 426.911,302.225 449.005,302.225L462.786,302.225L462.786,256.576L442.442,256.576C400.004,256.576 368.887,264.412 349.09,280.084C329.293,295.755 319.395,320.265 319.395,353.613L319.395,424.408C319.395,445.729 313.926,460.626 302.989,469.1C292.051,477.573 272.801,481.81 245.239,481.81L245.239,542.492C272.801,542.674 292.051,547.002 302.989,555.476C313.926,563.95 319.395,578.756 319.395,599.894L319.395,671.51C319.395,704.857 329.293,729.413 349.09,745.175C368.887,760.938 400.004,768.819 442.442,768.819ZM628.696,339.512C647.577,364.992 671.167,386.771 698.205,403.53L698.205,423.692C698.205,445.003 703.674,459.894 714.611,468.364C725.549,476.834 744.799,481.069 772.361,481.069L772.361,541.724C744.799,541.907 725.549,546.233 714.611,554.703C703.674,563.172 698.205,577.972 698.205,599.101L698.205,670.686C698.205,704.019 688.307,728.564 668.51,744.32C648.713,760.076 617.596,767.954 575.158,767.954L554.814,767.954L554.814,722.325L568.595,722.325C590.689,722.325 606.549,717.817 616.174,708.801C625.799,699.784 630.611,684.803 630.611,663.855L630.611,580.522C630.611,560.85 637.064,545.595 649.971,534.757C662.877,523.919 682.127,517.407 707.721,515.222L707.721,507.845C682.127,505.659 662.877,499.101 649.971,488.172C637.064,477.244 630.611,461.943 630.611,442.271L630.611,360.03C630.611,352.397 629.979,345.556 628.696,339.512ZM610.009,310.317C600.345,304.476 586.539,301.561 568.595,301.561L554.814,301.561L554.814,255.932L575.158,255.932C579.644,255.932 584.003,256.02 588.23,256.215C593.402,275.246 600.76,293.38 610.009,310.317Z"/>
        <g transform="matrix(55.1808,0,0,55.1808,146.159,-498.697)">
            <g id="Disabled">
                <circle cx="12.429" cy="12.517" r="3.479" style="fill:rgb(210,0,0);"/>
            </g>
        </g>
    </g>
</svg>
