<?xml version="1.0" encoding="UTF-8" standalone="no"?>
<!DOCTYPE svg PUBLIC "-//W3C//DTD SVG 1.1//EN" "http://www.w3.org/Graphics/SVG/1.1/DTD/svg11.dtd">
<svg width="100%" height="100%" viewBox="0 0 16 16" version="1.1" xmlns="http://www.w3.org/2000/svg" xmlns:xlink="http://www.w3.org/1999/xlink" xml:space="preserve" xmlns:serif="http://www.serif.com/" style="fill-rule:evenodd;clip-rule:evenodd;stroke-linejoin:round;stroke-miterlimit:2;">
    <g id="mrsSchemaModulePrivate">
        <g id="Layer3">
            <path d="M9.504,4.007L8.499,4.007L8.89,3.007L9.504,3.007L9.504,4.007ZM13.007,6.54L13.007,7.068L12.026,7.493L12.007,10.024L12.007,6.54L13.007,6.54ZM4.504,4.007L1.007,4.007L1.007,15.007L12.007,15.007L12.007,11.511L13.007,11.931L13.007,15.436L12.436,16.007L0.564,16.007L-0.007,15.436L-0.007,3.579L0.564,3.007L4.084,3.007L4.504,4.007Z" style="fill-opacity:0.5;"/>
            <path d="M12,9L12,7.5C12.418,7.186 12.937,7 13.5,7C14.88,7 16,8.12 16,9.5C16,10.88 14.88,12 13.5,12C12.937,12 12.418,11.814 12,11.5L12,10L12.117,10.077C12.342,10.624 12.877,11.008 13.5,11.008C14.326,11.008 14.997,10.333 14.997,9.5C14.997,8.667 14.326,7.992 13.5,7.992C12.877,7.992 12.342,8.376 12.117,8.923L12,9Z" style="fill-opacity:0.5;"/>
            <g transform="matrix(6.12323e-17,-1,1,6.12323e-17,-3.02155,16.0048)">
                <path d="M12,9L12,7.5C12.418,7.186 12.937,7 13.5,7C14.88,7 16,8.12 16,9.5C16,10.88 14.88,12 13.5,12C12.937,12 12.418,11.814 12,11.5L12,10L12.117,10.077C12.342,10.624 12.877,11.008 13.5,11.008C14.326,11.008 14.997,10.333 14.997,9.5C14.997,8.667 14.326,7.992 13.5,7.992C12.877,7.992 12.342,8.376 12.117,8.923L12,9Z" style="fill-opacity:0.5;"/>
            </g>
            <g transform="matrix(0.899027,0,0,0.899027,1.64868,-0.477843)">
                <path d="M4.627,16.122C3.84,16.122 3.264,15.968 2.897,15.66C2.53,15.351 2.347,14.871 2.347,14.219L2.347,12.819C2.347,12.406 2.246,12.117 2.043,11.951C1.84,11.785 1.484,11.701 0.973,11.697L0.973,10.511C1.484,10.511 1.84,10.428 2.043,10.263C2.246,10.097 2.347,9.806 2.347,9.389L2.347,8.005C2.347,7.353 2.53,6.874 2.897,6.567C3.264,6.261 3.84,6.108 4.627,6.108L5.004,6.108L5.004,7L4.748,7C4.339,7 4.045,7.088 3.867,7.265C3.688,7.441 3.599,7.734 3.599,8.144L3.599,9.752C3.599,10.137 3.48,10.436 3.241,10.65C3.002,10.864 2.647,10.992 2.177,11.035L2.177,11.179C2.647,11.222 3.002,11.349 3.241,11.561C3.48,11.773 3.599,12.071 3.599,12.456L3.599,14.086C3.599,14.496 3.688,14.789 3.867,14.965C4.045,15.141 4.339,15.229 4.748,15.229L5.004,15.229L5.004,16.122L4.627,16.122ZM6.163,16.122L5.788,16.122L5.788,15.229L6.042,15.229C6.449,15.229 6.741,15.141 6.919,14.965C7.096,14.789 7.185,14.496 7.185,14.086L7.185,12.456C7.185,12.071 7.303,11.773 7.541,11.561C7.779,11.349 8.134,11.222 8.605,11.179L8.605,11.035C8.134,10.992 7.779,10.864 7.541,10.65C7.303,10.436 7.185,10.137 7.185,9.752L7.185,8.144C7.185,7.734 7.097,7.441 6.922,7.265C6.746,7.088 6.453,7 6.042,7L5.788,7L5.788,6.108L6.163,6.108C6.945,6.108 7.518,6.261 7.883,6.567C8.247,6.874 8.43,7.353 8.43,8.005L8.43,9.389C8.43,9.806 8.53,10.097 8.732,10.263C8.933,10.428 9.288,10.511 9.796,10.511L9.796,11.697C9.288,11.701 8.933,11.785 8.732,11.951C8.53,12.117 8.43,12.406 8.43,12.819L8.43,14.219C8.43,14.871 8.247,15.351 7.883,15.66C7.518,15.968 6.945,16.122 6.163,16.122Z" style="fill-opacity:0.5;"/>
            </g>
        </g>
        <g id="Private" transform="matrix(1.00896,0,0,1.00896,-0.506419,0.117929)">
            <path d="M13.386,-0.117C15.027,-0.117 16.36,1.215 16.36,2.856C16.36,4.498 15.027,5.83 13.386,5.83C11.745,5.83 10.413,4.498 10.413,2.856C10.413,1.215 11.745,-0.117 13.386,-0.117ZM14.361,1.187C14.075,1.02 13.742,0.923 13.386,0.923C12.32,0.923 11.453,1.79 11.453,2.856C11.453,3.212 11.55,3.545 11.717,3.831L14.361,1.187ZM12.391,4.514C12.682,4.689 13.023,4.789 13.386,4.789C14.453,4.789 15.319,3.923 15.319,2.856C15.319,2.493 15.219,2.152 15.044,1.861L12.391,4.514Z" style="fill:rgb(0,102,210);"/>
        </g>
    </g>
</svg>
