<?xml version="1.0" encoding="UTF-8" standalone="no"?>
<!DOCTYPE svg PUBLIC "-//W3C//DTD SVG 1.1//EN" "http://www.w3.org/Graphics/SVG/1.1/DTD/svg11.dtd">
<svg width="100%" height="100%" viewBox="0 0 16 16" version="1.1" xmlns="http://www.w3.org/2000/svg" xmlns:xlink="http://www.w3.org/1999/xlink" xml:space="preserve" xmlns:serif="http://www.serif.com/" style="fill-rule:evenodd;clip-rule:evenodd;stroke-linejoin:round;stroke-miterlimit:2;">
    <g id="mrsServicePublished" transform="matrix(0.015625,0,0,0.015625,0,0)">
        <path d="M990.795,426.661L995.549,426.661C1011.27,426.661 1024,439.406 1024,455.113L1024,568.887C1024,584.594 1011.27,597.339 995.549,597.339L964.261,597.339C928.941,597.48 897.355,619.315 884.704,652.288C881.696,660.244 878.434,668.089 874.921,675.808C860.286,708.104 867.076,746.055 891.983,771.277L914.243,793.537C919.568,798.878 922.577,806.124 922.577,813.67C922.577,821.216 919.568,828.463 914.243,833.788L833.851,914.18C822.729,925.286 804.738,925.286 793.632,914.18L771.34,891.904C746.118,866.966 708.151,860.176 675.872,874.827C668.168,878.34 660.307,881.617 652.398,884.626C619.347,897.229 597.465,928.894 597.339,964.261L597.339,995.549C597.339,1011.27 584.594,1024 568.887,1024L455.113,1024C439.406,1024 426.661,1011.27 426.661,995.549L426.661,964.261C426.52,928.941 404.685,897.355 371.712,884.704C363.756,881.696 355.895,878.434 348.192,874.921C315.896,860.302 277.945,867.092 252.723,891.983L230.463,914.243C225.122,919.568 217.876,922.577 210.33,922.577C202.784,922.577 195.537,919.568 190.212,914.243L109.82,833.851C98.729,822.745 98.729,804.738 109.82,793.632L132.096,771.34C157.003,746.118 163.793,708.151 149.173,675.872C145.66,668.168 142.383,660.307 139.374,652.398C126.771,619.347 95.106,597.465 59.739,597.339L28.451,597.339C12.729,597.339 -0,584.594 -0,568.887L-0,455.113C-0,439.916 11.916,427.492 26.93,426.701L79.93,465.352C75.621,469.753 72.966,475.778 72.966,482.42L72.966,541.58C72.966,555.048 83.881,565.977 97.363,565.977L124.191,565.977C154.518,566.085 181.671,604.048 192.478,632.39C195.058,639.171 197.868,645.912 200.88,652.518C213.417,680.197 226.794,731.953 205.437,753.581L186.336,772.696C176.825,782.219 176.825,797.66 186.336,807.183L216.871,837.718C221.437,842.284 227.651,844.865 234.121,844.865C240.592,844.865 246.806,842.284 251.385,837.718L270.473,818.631C292.101,797.287 343.843,810.665 371.536,823.201C378.142,826.213 384.883,829.009 391.705,831.59C419.979,842.437 457.902,869.522 458.023,899.809L458.023,926.637C458.023,940.119 468.952,951.034 482.42,951.034L541.58,951.034C555.048,951.034 565.977,940.119 565.977,926.637L565.977,899.809C566.085,869.482 604.048,842.329 632.39,831.522C639.171,828.942 645.912,826.132 652.518,823.12C680.197,810.556 731.953,797.179 753.581,818.563L772.696,837.664C782.219,847.188 797.646,847.188 807.183,837.664L837.718,807.129C842.284,802.563 844.865,796.349 844.865,789.879C844.865,783.408 842.284,777.194 837.718,772.615L818.631,753.527C797.273,731.899 810.651,680.157 823.201,652.464C826.213,645.845 829.009,639.117 831.59,632.295C842.437,604.021 869.522,566.098 899.809,565.977L926.637,565.977C940.119,565.977 951.034,555.048 951.034,541.58L951.034,482.42C951.034,475.633 948.262,469.492 943.788,465.068L990.795,426.661ZM772.361,491.396L772.361,541.724C744.799,541.907 725.549,546.233 714.611,554.703C703.674,563.172 698.205,577.972 698.205,599.101L698.205,670.686C698.205,704.019 688.307,728.564 668.51,744.32C648.713,760.076 617.596,767.954 575.158,767.954L554.814,767.954L554.814,722.325L568.595,722.325C590.689,722.325 606.549,717.817 616.174,708.801C625.799,699.784 630.611,684.803 630.611,663.855L630.611,580.522C630.611,560.85 637.064,545.595 649.971,534.757C662.877,523.919 682.127,517.407 707.721,515.222L707.721,507.845C684.751,505.883 666.89,500.4 654.14,491.396L772.361,491.396ZM364.496,491.396C351.699,500.848 333.603,506.582 310.207,508.598L310.207,515.978C335.582,518.165 354.723,524.679 367.629,535.522C380.536,546.365 386.989,561.626 386.989,581.307L386.989,664.676C386.989,685.632 391.801,700.621 401.426,709.641C411.051,718.661 426.911,723.171 449.005,723.171L462.786,723.171L462.786,768.819L442.442,768.819C400.004,768.819 368.887,760.938 349.09,745.175C329.293,729.413 319.395,704.857 319.395,671.51L319.395,599.894C319.395,578.756 313.926,563.95 302.989,555.476C292.051,547.002 272.801,542.674 245.239,542.492L245.239,491.396L364.496,491.396Z"/>
        <path d="M226.752,447.992C225.836,448.003 224.919,448 224,448C100.371,448 -0,347.629 -0,224C-0,100.371 100.371,0 224,0C224.919,0 225.836,-0.003 226.752,0.008L800,0C800.918,0 801.835,0.003 802.752,0.008C925.115,1.485 1024,101.29 1024,224C1024,346.71 925.115,446.515 802.752,447.992C801.835,447.997 800.918,448 800,448L226.752,447.992ZM98.464,175.339C71.211,175.339 49.085,197.465 49.085,224.718C49.085,251.97 71.211,274.096 98.464,274.096C125.717,274.096 147.843,251.97 147.843,224.718C147.843,197.465 125.717,175.339 98.464,175.339ZM191.95,383.97L319.971,383.97L319.971,319.466L254.996,319.466L254.996,64.119L191.95,64.119L191.95,383.97ZM383.558,384.118L447.294,384.118L447.294,64.493L383.558,64.493L383.558,384.118ZM575.649,383.592L637.462,383.999L710.888,63.748L652.149,63.291L607.686,291.38L560.982,64.286L504.443,63.91L575.649,383.592ZM767.904,384.089L894.433,384.234L894.433,320.893L831.25,320.762L831.25,256.296L886.273,256.427L886.273,192.6L831.25,192.469L831.25,127.709L894.433,127.84L894.433,64.393L767.904,64.248L767.904,384.089Z" style="fill:rgb(209,2,0);"/>
    </g>
</svg>
