<?xml version="1.0" encoding="UTF-8" standalone="no"?>
<!DOCTYPE svg PUBLIC "-//W3C//DTD SVG 1.1//EN" "http://www.w3.org/Graphics/SVG/1.1/DTD/svg11.dtd">
<svg width="100%" height="100%" viewBox="0 0 16 16" version="1.1" xmlns="http://www.w3.org/2000/svg" xmlns:xlink="http://www.w3.org/1999/xlink" xml:space="preserve" xmlns:serif="http://www.serif.com/" style="fill-rule:evenodd;clip-rule:evenodd;stroke-linejoin:round;stroke-miterlimit:2;">
    <g id="mrsServiceDefaultPublished" transform="matrix(0.015625,0,0,0.015625,0,0)">
        <path d="M990.091,426.661L995.549,426.661C1011.27,426.661 1024,439.406 1024,455.113L1024,568.887C1024,584.594 1011.27,597.339 995.549,597.339L964.261,597.339C928.941,597.48 897.355,619.315 884.704,652.288C881.696,660.244 878.434,668.089 874.921,675.808C860.286,708.104 867.076,746.055 891.983,771.277L914.243,793.537C919.568,798.878 922.577,806.124 922.577,813.67C922.577,821.216 919.568,828.463 914.243,833.788L833.851,914.18C822.729,925.286 804.738,925.286 793.632,914.18L771.34,891.904C746.118,866.966 708.151,860.176 675.872,874.827C668.168,878.34 660.307,881.617 652.398,884.626C619.347,897.229 597.465,928.894 597.339,964.261L597.339,995.549C597.339,1011.27 584.594,1024 568.887,1024L455.113,1024C439.406,1024 426.661,1011.27 426.661,995.549L426.661,964.261C426.52,928.941 404.685,897.355 371.712,884.704C363.756,881.696 355.895,878.434 348.192,874.921C315.896,860.302 277.945,867.092 252.723,891.983L230.463,914.243C225.122,919.568 217.876,922.577 210.33,922.577C202.784,922.577 195.537,919.568 190.212,914.243L109.82,833.851C98.729,822.745 98.729,804.738 109.82,793.632L132.096,771.34C157.003,746.118 163.793,708.151 149.173,675.872C145.66,668.168 142.383,660.307 139.374,652.398C126.771,619.347 95.106,597.465 59.739,597.339L28.451,597.339C12.729,597.339 -0,584.594 -0,568.887L-0,455.113C-0,439.406 12.729,426.661 28.451,426.661L30.055,426.661C68.252,461.055 109.945,489.91 142.292,489.874C157.685,489.857 195.018,489.925 245.239,490.041L245.239,542.492C272.801,542.674 292.051,547.002 302.989,555.476C313.926,563.95 319.395,578.756 319.395,599.894L319.395,671.51C319.395,704.857 329.293,729.413 349.09,745.175C368.887,760.938 400.004,768.819 442.442,768.819L462.786,768.819L462.786,723.171L449.005,723.171C426.911,723.171 411.051,718.661 401.426,709.641C391.801,700.621 386.989,685.632 386.989,664.676L386.989,581.307C386.989,561.626 380.536,546.365 367.629,535.522C354.723,524.679 335.582,518.165 310.207,515.978L310.207,508.598C334.462,506.508 353.02,500.422 365.883,490.34C457.181,490.575 561.964,490.854 653.677,491.066C666.457,500.266 684.471,505.859 707.721,507.845L707.721,515.222C682.127,517.407 662.877,523.919 649.971,534.757C637.064,545.595 630.611,560.85 630.611,580.522L630.611,663.855C630.611,684.803 625.799,699.784 616.174,708.801C606.549,717.817 590.689,722.325 568.595,722.325L554.814,722.325L554.814,767.954L575.158,767.954C617.596,767.954 648.713,760.076 668.51,744.32C688.307,728.564 698.205,704.019 698.205,670.686L698.205,599.101C698.205,577.972 703.674,563.172 714.611,554.703C725.549,546.233 744.799,541.907 772.361,541.724L772.361,491.309C827.194,491.401 867.708,491.427 882.822,491.339C915.393,491.15 954.194,462.537 990.091,426.661Z"/>
        <path d="M226.752,447.992C225.836,448.003 224.919,448 224,448C100.371,448 -0,347.629 -0,224C-0,100.371 100.371,0 224,0C224.919,0 225.836,-0.003 226.752,0.008L800,0C800.918,0 801.835,0.003 802.752,0.008C925.115,1.485 1024,101.29 1024,224C1024,346.71 925.115,446.515 802.752,447.992C801.835,447.997 800.918,448 800,448L226.752,447.992ZM191.95,383.97L319.971,383.97L319.971,319.466L254.996,319.466L254.996,64.119L191.95,64.119L191.95,383.97ZM383.558,384.118L447.294,384.118L447.294,64.493L383.558,64.493L383.558,384.118ZM575.649,383.592L637.462,383.999L710.888,63.748L652.149,63.291L607.686,291.38L560.982,64.286L504.443,63.91L575.649,383.592ZM767.904,384.089L894.433,384.234L894.433,320.893L831.25,320.762L831.25,256.296L886.273,256.427L886.273,192.6L831.25,192.469L831.25,127.709L894.433,127.84L894.433,64.393L767.904,64.248L767.904,384.089ZM98.464,175.339C71.211,175.339 49.085,197.465 49.085,224.718C49.085,251.97 71.211,274.096 98.464,274.096C125.717,274.096 147.843,251.97 147.843,224.718C147.843,197.465 125.717,175.339 98.464,175.339Z" style="fill:rgb(209,2,0);"/>
    </g>
</svg>
