<?xml version="1.0" encoding="UTF-8" standalone="no"?>
<!DOCTYPE svg PUBLIC "-//W3C//DTD SVG 1.1//EN" "http://www.w3.org/Graphics/SVG/1.1/DTD/svg11.dtd">
<svg width="100%" height="100%" viewBox="0 0 16 16" version="1.1" xmlns="http://www.w3.org/2000/svg" xmlns:xlink="http://www.w3.org/1999/xlink" xml:space="preserve" xmlns:serif="http://www.serif.com/" style="fill-rule:evenodd;clip-rule:evenodd;stroke-linejoin:round;stroke-miterlimit:2;">
    <g id="mrsUpdateAvailable" transform="matrix(0.015625,0,0,0.015625,0,0)">
        <path d="M395.285,14.931C432.691,6.208 471.668,1.595 511.715,1.595C793.976,1.595 1023.13,230.755 1023.13,513.016C1023.13,795.277 793.976,1024.44 511.715,1024.44C229.454,1024.44 0.294,795.277 0.294,513.016C0.294,472.252 5.074,432.596 14.102,394.578C31.383,409.366 50.552,422.01 71.194,432.097C66.396,458.346 63.889,485.39 63.889,513.016C63.889,760.178 264.553,960.842 511.715,960.842C758.877,960.842 959.541,760.178 959.541,513.016C959.541,265.854 758.877,65.19 511.715,65.19C484.712,65.19 458.265,67.585 432.574,72.174C422.569,51.488 410.001,32.27 395.285,14.931ZM361.726,397.152L361.726,424.983C361.726,449.606 354.074,468.757 338.77,482.437C323.466,496.116 300.77,504.324 270.68,507.06L270.68,516.293C300.77,519.029 323.466,527.18 338.77,540.746C354.074,554.311 361.726,573.405 361.726,598.029L361.726,702.335C361.726,728.554 367.433,747.306 378.846,758.592C390.259,769.877 409.065,775.52 435.263,775.52L451.605,775.52L451.605,832.632L427.481,832.632C377.16,832.632 340.262,822.772 316.787,803.05C293.312,783.329 281.575,752.607 281.575,710.885L281.575,621.284C281.575,594.837 275.09,576.312 262.121,565.711C249.151,555.109 226.325,549.694 193.642,549.466L193.642,473.545C226.325,473.545 249.151,468.244 262.121,457.642C265.829,454.611 269.007,450.923 271.655,446.578C304.948,435.928 335.439,418.985 361.726,397.152ZM596.985,832.632L573,832.632L573,775.52L589.248,775.52C615.297,775.52 633.996,769.877 645.344,758.592C656.692,747.306 662.366,728.554 662.366,702.335L662.366,598.029C662.366,573.405 669.975,554.311 685.192,540.746C700.408,527.18 723.105,519.029 753.28,516.293L753.28,507.06C723.105,504.324 700.408,496.116 685.192,482.437C669.975,468.757 662.366,449.606 662.366,424.983L662.366,322.044C662.366,295.825 656.757,277.073 645.538,265.787C634.318,254.502 615.555,248.859 589.248,248.859L573,248.859L573,191.747L596.985,191.747C647.021,191.747 683.709,201.551 707.05,221.158C730.391,240.765 742.061,271.43 742.061,313.153L742.061,401.727C742.061,428.403 748.509,447.041 761.405,457.642C774.3,468.244 796.997,473.545 829.494,473.545L829.494,549.466C796.997,549.694 774.3,555.109 761.405,565.711C748.509,576.312 742.061,594.837 742.061,621.284L742.061,710.885C742.061,752.607 730.391,783.329 707.05,803.05C683.709,822.772 647.021,832.632 596.985,832.632Z"/>
        <g id="Update" transform="matrix(64.5736,0,0,64.5736,-672.411,7.54746)">
            <g transform="matrix(0.854542,0,0,0.854542,2.76537,-7.8398)">
                <circle cx="12.429" cy="12.517" r="3.479" style="fill:rgb(0,102,210);"/>
            </g>
            <g transform="matrix(1.17659,0,0,1.05782,4.01782,-2.36775)">
                <path d="M7.963,6.348L8.553,6.348L8.553,3.529L7.964,3.529L7.235,4.035L7.235,4.568L7.928,4.087L7.963,4.087L7.963,6.348Z" style="fill:white;fill-rule:nonzero;"/>
            </g>
        </g>
    </g>
</svg>
