<?xml version="1.0" encoding="UTF-8" standalone="no"?>
<!DOCTYPE svg PUBLIC "-//W3C//DTD SVG 1.1//EN" "http://www.w3.org/Graphics/SVG/1.1/DTD/svg11.dtd">
<svg width="100%" height="100%" viewBox="0 0 16 16" version="1.1" xmlns="http://www.w3.org/2000/svg" xmlns:xlink="http://www.w3.org/1999/xlink" xml:space="preserve" xmlns:serif="http://www.serif.com/" style="fill-rule:evenodd;clip-rule:evenodd;stroke-linejoin:round;stroke-miterlimit:2;">
    <g id="ociDbSystemHW" transform="matrix(1,0,0,1,0,-1)">
        <path d="M5.633,8.33C5.9,7.641 6.326,6.918 6.948,6.168C6.954,7.164 8.181,7.96 8.187,7.922C8.193,7.884 7.452,2.808 13.019,1.15C11.373,4.842 14.522,5.354 13.582,8.83C13.923,7.5 14.924,6.945 15.928,6.725C14.602,9.398 18.701,11.737 12.131,15.19C13.672,13.042 15.11,10.9 13.739,9.73C14.059,10.636 12.902,11.412 12.534,11.902C11.97,7.546 9.536,9.208 11.347,5.141C8.834,5.917 8.812,7.994 8.752,9.849C8.235,9.539 6.696,8.464 7.155,7.666C6.893,8.126 6.726,8.605 6.642,9.09C6.267,8.781 5.924,8.512 5.633,8.33Z"/>
        <g transform="matrix(1,0,0,1,-6,7)">
            <g transform="matrix(0.156773,0,0,0.156773,5.84244,-1.01428)">
                <path d="M61.954,60.155C62.498,60.88 62.985,60.797 62.964,59.163C62.944,57.512 62.818,57.082 62.435,55.323C62.154,54.03 60.424,49.224 58.887,45.707C57.838,43.306 56.188,39.974 54.88,37.822C48.604,27.489 41.846,21.252 31.38,15.122C29.153,13.821 26.504,13.152 23.638,12.633C21.655,12.273 20.596,12.449 19.076,12.355C18.148,11.969 17.182,10.831 16.312,10.278C12.844,8.085 3.95,3.314 1.382,9.586C-0.239,13.545 3.806,17.41 5.252,19.413C6.268,20.822 7.567,22.399 8.294,23.979C8.771,25.022 8.853,26.065 9.261,27.164C10.267,29.875 11.141,32.823 12.44,35.329C13.098,36.596 13.821,37.933 14.652,39.067C15.162,39.762 16.035,40.068 16.173,41.142C15.318,42.34 15.27,44.195 14.791,45.712C12.631,52.53 13.445,61.005 16.588,66.054C17.553,67.602 19.824,70.926 22.947,69.653C25.678,68.537 25.068,65.084 25.85,62.038C26.027,61.349 26.265,59.836 26.265,59.877C27.094,61.539 27.952,64.246 29.108,65.696C30.421,67.344 30.521,67.67 32.196,68.885C34.331,70.434 39.544,70.755 38.024,68.73C37.627,68.201 34.766,68.298 32.738,64.399C31.769,62.539 30.121,59.466 29.473,57.31C29.244,56.549 27.92,54.201 27.264,53.819C26.37,55.21 23.777,55.693 23.085,57.336C21.979,59.959 22.634,63.79 21.904,64.472C21.316,65.022 21.259,65.176 20.291,63.603C17.807,59.568 17.169,51.699 18.641,46.265C18.994,44.964 20.794,40.941 20.041,39.759C19.681,38.574 19.253,37.895 18.588,36.988C17.766,35.875 16.307,34.403 15.738,33.114C14.257,29.758 13.444,25.989 11.885,22.598C11.14,20.974 9.879,19.334 8.844,17.893C7.698,16.295 6.415,15.116 5.526,13.185C5.211,12.5 4.419,11.4 4.888,10.692C5.037,10.218 5.959,10.073 6.795,10.418C9.011,11.34 10.861,12.215 12.739,13.464C13.641,14.061 14.553,15.217 15.643,15.536L16.886,15.536C18.832,15.985 21.012,15.678 22.83,16.231C26.044,17.207 29.562,18.731 32.178,20.38C40.146,25.42 47.297,32.586 51.754,41.142C52.471,42.517 54.35,46.249 54.982,47.709C56.257,50.654 56.291,51.27 57.56,54.151C58.825,57.027 60.163,57.765 61.954,60.155Z"/>
            </g>
            <g transform="matrix(0.193655,0,0,0.193655,6.16055,-1.20627)">
                <path d="M21.288,21.489C20.275,21.47 19.558,21.6 18.8,21.767L18.8,21.903C18.846,21.903 18.911,21.866 18.938,21.903C19.752,23.031 19.879,22.746 20.873,24.396C21.426,25.313 21.795,26.333 22.256,27.3C22.302,27.256 22.348,27.208 22.394,27.164C23.251,26.56 23.592,25.85 23.44,24.385C23.361,23.625 23.245,23.303 22.947,22.873C22.551,22.301 21.986,21.642 21.288,21.489Z"/>
            </g>
        </g>
    </g>
</svg>
