<?xml version="1.0" encoding="UTF-8" standalone="no"?>
<!DOCTYPE svg PUBLIC "-//W3C//DTD SVG 1.1//EN" "http://www.w3.org/Graphics/SVG/1.1/DTD/svg11.dtd">
<svg width="100%" height="100%" viewBox="0 0 16 16" version="1.1" xmlns="http://www.w3.org/2000/svg" xmlns:xlink="http://www.w3.org/1999/xlink" xml:space="preserve" xmlns:serif="http://www.serif.com/" style="fill-rule:evenodd;clip-rule:evenodd;stroke-linejoin:round;stroke-miterlimit:2;">
    <g id="ociDbSystem" transform="matrix(1,0,0,1,0,-1)">
        <path d="M6.106,11L4.523,11C3.522,11.009 2.563,10.586 1.895,9.84C1.319,9.198 1,8.364 1,7.501C1,5.824 2.205,4.371 3.853,4.06C4.34,3.968 4.84,3.982 5.321,4.1C5.942,2.678 7.44,1.834 8.978,2.04C10.517,2.248 11.739,3.462 11.957,5L12.007,5C12.801,5 13.563,5.317 14.123,5.879C14.966,6.724 15.197,7.962 14.817,9.023L13.995,8.152L14.002,8.006C14.002,8.004 14.002,8.002 14.002,8C14.001,6.905 13.101,6.003 12.006,6L11.092,6L10.969,5.143C10.815,4.043 9.943,3.173 8.843,3.021C7.742,2.871 6.669,3.479 6.231,4.5L5.898,5.262L5.089,5.073C4.904,5.027 4.714,5.003 4.523,5C3.861,5 3.226,5.263 2.759,5.732C2.293,6.201 2.031,6.836 2.031,7.497C2.031,8.866 3.154,9.994 4.523,10L5.726,10L6.106,11Z"/>
        <g transform="matrix(1,0,0,1,0,6)">
            <g transform="matrix(0.156773,0,0,0.156773,5.84244,-1.01428)">
                <path d="M61.954,60.155C62.498,60.88 62.985,60.797 62.964,59.163C62.944,57.512 62.818,57.082 62.435,55.323C62.154,54.03 60.424,49.224 58.887,45.707C57.838,43.306 56.188,39.974 54.88,37.822C48.604,27.489 41.846,21.252 31.38,15.122C29.153,13.821 26.504,13.152 23.638,12.633C21.655,12.273 20.596,12.449 19.076,12.355C18.148,11.969 17.182,10.831 16.312,10.278C12.844,8.085 3.95,3.314 1.382,9.586C-0.239,13.545 3.806,17.41 5.252,19.413C6.268,20.822 7.567,22.399 8.294,23.979C8.771,25.022 8.853,26.065 9.261,27.164C10.267,29.875 11.141,32.823 12.44,35.329C13.098,36.596 13.821,37.933 14.652,39.067C15.162,39.762 16.035,40.068 16.173,41.142C15.318,42.34 15.27,44.195 14.791,45.712C12.631,52.53 13.445,61.005 16.588,66.054C17.553,67.602 19.824,70.926 22.947,69.653C25.678,68.537 25.068,65.084 25.85,62.038C26.027,61.349 26.265,59.836 26.265,59.877C27.094,61.539 27.952,64.246 29.108,65.696C30.421,67.344 31.156,68.132 32.831,69.347C34.966,70.896 41.492,72.468 39.972,70.443C39.575,69.913 34.766,68.298 32.738,64.399C31.769,62.539 30.121,59.466 29.473,57.31C29.244,56.549 27.92,54.201 27.264,53.819C26.37,55.21 23.777,55.693 23.085,57.336C21.979,59.959 22.634,63.79 21.904,64.472C21.316,65.022 21.259,65.176 20.291,63.603C17.807,59.568 17.169,51.699 18.641,46.265C18.994,44.964 20.794,40.941 20.041,39.759C19.681,38.574 19.253,37.895 18.588,36.988C17.766,35.875 16.307,34.403 15.738,33.114C14.257,29.758 13.444,25.989 11.885,22.598C11.14,20.974 9.879,19.334 8.844,17.893C7.698,16.295 6.415,15.116 5.526,13.185C5.211,12.5 4.419,11.4 4.888,10.692C5.037,10.218 5.959,10.073 6.795,10.418C9.011,11.34 10.861,12.215 12.739,13.464C13.641,14.061 14.553,15.217 15.643,15.536L16.886,15.536C18.832,15.985 21.012,15.678 22.83,16.231C26.044,17.207 29.562,18.731 32.178,20.38C40.146,25.42 47.297,32.586 51.754,41.142C52.471,42.517 54.35,46.249 54.982,47.709C56.257,50.654 56.291,51.27 57.56,54.151C58.825,57.027 60.163,57.765 61.954,60.155Z"/>
            </g>
            <g transform="matrix(0.193655,0,0,0.193655,6.16055,-1.20627)">
                <path d="M21.288,21.489C20.275,21.47 19.558,21.6 18.8,21.767L18.8,21.903C18.846,21.903 18.911,21.866 18.938,21.903C19.752,23.031 19.879,22.746 20.873,24.396C21.426,25.313 21.795,26.333 22.256,27.3C22.302,27.256 22.348,27.208 22.394,27.164C23.251,26.56 23.592,25.85 23.44,24.385C23.361,23.625 23.245,23.303 22.947,22.873C22.551,22.301 21.986,21.642 21.288,21.489Z"/>
            </g>
        </g>
    </g>
</svg>
