<?xml version="1.0" encoding="UTF-8" standalone="no"?>
<!DOCTYPE svg PUBLIC "-//W3C//DTD SVG 1.1//EN" "http://www.w3.org/Graphics/SVG/1.1/DTD/svg11.dtd">
<svg width="100%" height="100%" viewBox="0 0 16 16" version="1.1" xmlns="http://www.w3.org/2000/svg" xmlns:xlink="http://www.w3.org/1999/xlink" xml:space="preserve" xmlns:serif="http://www.serif.com/" style="fill-rule:evenodd;clip-rule:evenodd;stroke-linejoin:round;stroke-miterlimit:2;">
    <g id="ociLoadBalancerNotActive">
        <path d="M15.14,6.292L15.969,7.149L15.969,7.856L13.855,9.919L13.148,9.212L14.409,8.002L10.971,8.002L10.971,7.988C10.888,8.572 10.661,9.11 10.326,9.564L13.026,12.264L12.983,10.7L13.983,10.7L14.026,13.471L13.526,13.971L10.721,14.009L10.721,13.009L12.318,12.971L9.624,10.277C9.037,10.724 8.304,10.99 7.509,10.99C5.579,10.99 4.011,9.422 4.011,7.492C4.011,5.562 5.579,3.995 7.509,3.995C8.205,3.995 8.853,4.198 9.397,4.55C9.688,5.232 10.167,5.815 10.771,6.232C10.867,6.476 10.935,6.734 10.972,7.002L14.408,7.002L14.172,6.753L14.523,6.624C14.637,6.569 14.752,6.514 14.866,6.459L15.14,6.292ZM1.879,9.933L3.993,7.87L3.993,7.163L1.879,4.978L1.172,5.685L2.432,7.016L0.022,7.016L0.022,8.016L2.433,8.016L1.172,9.226L1.879,9.933ZM7.509,5.295C8.722,5.295 9.706,6.28 9.706,7.492C9.706,8.705 8.722,9.689 7.509,9.689C6.297,9.689 5.312,8.705 5.312,7.492C5.312,6.28 6.297,5.295 7.509,5.295Z"/>
        <g transform="matrix(0.862201,0,0,0.862201,2.28373,-7.77563)">
            <g id="NotActive">
                <circle cx="12.429" cy="12.517" r="3.479" style="fill:rgb(233,156,0);"/>
            </g>
        </g>
    </g>
</svg>
