<?xml version="1.0" encoding="UTF-8" standalone="no"?>
<!DOCTYPE svg PUBLIC "-//W3C//DTD SVG 1.1//EN" "http://www.w3.org/Graphics/SVG/1.1/DTD/svg11.dtd">
<svg width="100%" height="100%" viewBox="0 0 16 16" version="1.1" xmlns="http://www.w3.org/2000/svg" xmlns:xlink="http://www.w3.org/1999/xlink" xml:space="preserve" xmlns:serif="http://www.serif.com/" style="fill-rule:evenodd;clip-rule:evenodd;stroke-linejoin:round;stroke-miterlimit:2;">
    <g id="refresh">
        <path d="M4.681,3L2,3L2,2L5.5,2L6,2.5L6,6L5,6L5,4C3.742,4.944 3.001,6.427 3.001,7.999C3.001,10.742 5.258,12.999 8.001,12.999C10.744,12.999 13.001,10.742 13.001,7.999C13.001,5.833 11.593,3.902 9.53,3.239L9.832,2.285C12.309,3.079 14,5.398 14,7.998C14,11.29 11.291,13.998 8,13.998C4.708,13.998 2,11.29 2,7.998C2,5.99 3.008,4.111 4.681,3Z"/>
    </g>
</svg>
