<?xml version="1.0" encoding="UTF-8" standalone="no"?>
<!DOCTYPE svg PUBLIC "-//W3C//DTD SVG 1.1//EN" "http://www.w3.org/Graphics/SVG/1.1/DTD/svg11.dtd">
<svg width="100%" height="100%" viewBox="0 0 16 16" version="1.1" xmlns="http://www.w3.org/2000/svg" xmlns:xlink="http://www.w3.org/1999/xlink" xml:space="preserve" xmlns:serif="http://www.serif.com/" style="fill-rule:evenodd;clip-rule:evenodd;stroke-linejoin:round;stroke-miterlimit:2;">
    <g transform="matrix(0.015625,0,0,0.015625,0,0)">
        <g id="routerNotActive">
            <path d="M562.671,148.193L511.821,100.05L511.821,320.021L447.821,320.021L447.821,99.986L370.362,180.682L325.114,135.434L457.165,0.146L502.413,0.146L583.363,78.471C573.484,100.321 566.431,123.717 562.671,148.193ZM906.266,448.239L961.013,448.239L961.013,512.239L740.978,512.239L821.674,589.698L776.426,634.946L641.138,502.895L641.138,457.647L681.949,415.469C701.003,427.934 721.725,438.057 743.707,445.425L741.042,448.239L752.615,448.239C776.968,455.467 802.755,459.348 829.441,459.348C856.127,459.348 881.913,455.467 906.266,448.239ZM185.726,634.946L140.478,589.698L221.173,512.239L1.138,512.239L1.138,448.239L221.109,448.239L140.478,363.073L185.726,317.825L321.013,457.647L321.013,502.895L185.726,634.946ZM325.114,824.734L370.362,779.486L447.821,860.181L447.821,640.146L511.821,640.146L511.821,860.117L596.987,779.486L642.235,824.734L502.413,960.021L457.165,960.021L325.114,824.734ZM38.711,292.794C81.344,193.14 156.782,110.811 251.417,59.417L295.663,103.663C201.449,149.743 126.992,230.077 88.557,328.398L38.711,292.794ZM921.514,667.367C879.279,767.269 804.132,849.92 709.697,901.697L665.511,857.511C759.508,810.994 833.635,730.305 871.613,631.724L921.514,667.367ZM250.101,901.899C155.592,850.189 80.363,767.571 38.048,667.68L87.939,632.043C126.006,730.613 200.224,811.263 294.3,857.7L250.101,901.899Z"/>
            <g transform="matrix(55.1808,0,0,55.1808,146.159,-497.64)">
                <g id="NotActive">
                    <circle cx="12.429" cy="12.517" r="3.479" style="fill:rgb(233,156,0);"/>
                </g>
            </g>
        </g>
    </g>
</svg>
