<?xml version="1.0" encoding="UTF-8" standalone="no"?>
<!DOCTYPE svg PUBLIC "-//W3C//DTD SVG 1.1//EN" "http://www.w3.org/Graphics/SVG/1.1/DTD/svg11.dtd">
<svg width="100%" height="100%" viewBox="0 0 16 16" version="1.1" xmlns="http://www.w3.org/2000/svg" xmlns:xlink="http://www.w3.org/1999/xlink" xml:space="preserve" xmlns:serif="http://www.serif.com/" style="fill-rule:evenodd;clip-rule:evenodd;stroke-linejoin:round;stroke-miterlimit:2;">
    <g transform="matrix(0.015625,0,0,0.015625,0,0)">
        <g id="router">
            <g transform="matrix(64,0,0,64,-638.987,-127.761)">
                <path d="M12.886,11.917L15,9.854L15,9.147L12.886,6.962L12.179,7.669L13.439,9L10.002,9L10.002,10L13.44,10L12.179,11.21L12.886,11.917Z"/>
            </g>
            <path d="M741.269,448L741.042,448.239L961.013,448.239L961.013,512.239L740.978,512.239L821.674,589.698L776.426,634.946L641.138,502.895L641.138,457.647L650.472,448L741.269,448Z"/>
            <g transform="matrix(1.17566e-14,-64,-64,-1.17566e-14,1087.82,960.146)">
                <path d="M12.886,11.917L15,9.854L15,9.147L12.886,6.962L12.179,7.669L13.439,9L10.002,9L10.002,10L13.44,10L12.179,11.21L12.886,11.917Z"/>
            </g>
            <g transform="matrix(1.17566e-14,64,-64,1.17566e-14,1087.82,0.0211346)">
                <path d="M12.886,11.917L15,9.854L15,9.147L12.886,6.962L12.179,7.669L13.439,9L10.002,9L10.002,10L13.44,10L12.179,11.21L12.886,11.917Z"/>
            </g>
            <g transform="matrix(34.6362,0,0,34.6362,220.496,219.997)">
                <path d="M7.509,3.995C9.439,3.995 11.007,5.562 11.007,7.492C11.007,9.422 9.439,10.99 7.509,10.99C5.579,10.99 4.011,9.422 4.011,7.492C4.011,5.562 5.579,3.995 7.509,3.995ZM7.509,5.295C6.297,5.295 5.312,6.28 5.312,7.492C5.312,8.705 6.297,9.689 7.509,9.689C8.722,9.689 9.706,8.705 9.706,7.492C9.706,6.28 8.722,5.295 7.509,5.295Z"/>
            </g>
            <g transform="matrix(49.799,0,0,48,526.01,0)">
                <path d="M0.987,8L5.556,0L10,8L0.987,8ZM6,2.573L5,2.573L5,5L6,5L6,2.573ZM5.5,6C5.224,6 5,6.224 5,6.5C5,6.776 5.224,7 5.5,7C5.776,7 6,6.776 6,6.5C6,6.224 5.776,6 5.5,6Z" style="fill:rgb(255,0,0);"/>
            </g>
        </g>
    </g>
</svg>
