<?xml version="1.0" encoding="UTF-8" standalone="no"?>
<!DOCTYPE svg PUBLIC "-//W3C//DTD SVG 1.1//EN" "http://www.w3.org/Graphics/SVG/1.1/DTD/svg11.dtd">
<svg width="100%" height="100%" viewBox="0 0 16 16" version="1.1" xmlns="http://www.w3.org/2000/svg" xmlns:xlink="http://www.w3.org/1999/xlink" xml:space="preserve" xmlns:serif="http://www.serif.com/" style="fill-rule:evenodd;clip-rule:evenodd;stroke-linejoin:round;stroke-miterlimit:2;">
    <g id="routers" transform="matrix(0.015625,0,0,0.015625,0,0)">
        <g transform="matrix(64,0,0,64,-638.987,-127.761)">
            <path d="M12.886,11.917L15,9.854L15,9.147L12.886,6.962L12.179,7.669L13.439,9L10.002,9L10.002,10L13.44,10L12.179,11.21L12.886,11.917Z"/>
        </g>
        <g transform="matrix(-64,0,0,64,1601.14,-127.761)">
            <path d="M12.886,11.917L15,9.854L15,9.147L12.886,6.962L12.179,7.669L13.439,9L10.002,9L10.002,10L13.44,10L12.179,11.21L12.886,11.917Z"/>
        </g>
        <g transform="matrix(1.17566e-14,-64,-64,-1.17566e-14,1087.82,960.146)">
            <path d="M12.886,11.917L15,9.854L15,9.147L12.886,6.962L12.179,7.669L13.439,9L10.002,9L10.002,10L13.44,10L12.179,11.21L12.886,11.917Z"/>
        </g>
        <g transform="matrix(1.17566e-14,64,-64,1.17566e-14,1087.82,0.0211346)">
            <path d="M12.886,11.917L15,9.854L15,9.147L12.886,6.962L12.179,7.669L13.439,9L10.002,9L10.002,10L13.44,10L12.179,11.21L12.886,11.917Z"/>
        </g>
        <g transform="matrix(34.6362,0,0,34.6362,220.496,219.997)">
            <path d="M7.509,3.995C9.439,3.995 11.007,5.562 11.007,7.492C11.007,9.422 9.439,10.99 7.509,10.99C5.579,10.99 4.011,9.422 4.011,7.492C4.011,5.562 5.579,3.995 7.509,3.995ZM7.509,5.295C6.297,5.295 5.312,6.28 5.312,7.492C5.312,8.705 6.297,9.689 7.509,9.689C8.722,9.689 9.706,8.705 9.706,7.492C9.706,6.28 8.722,5.295 7.509,5.295Z"/>
        </g>
        <path d="M64,384L64,137.048C64,96.732 96.732,64 137.048,64L320,64L256,128L151.404,128C138.487,128 128,138.487 128,151.404L128,320L64,384ZM640,64L822.952,64C863.268,64 896,96.732 896,137.048L896,384L832,320L832,151.404C832,138.487 821.513,128 808.596,128L704,128L640,64ZM896,576L896,822.952C896,863.268 863.268,896 822.952,896L640,896L704,832L808.596,832C821.513,832 832,821.513 832,808.596L832,640L896,576ZM320,896L137.048,896C96.732,896 64,863.268 64,822.952L64,576L128,640L128,808.596C128,821.513 138.487,832 151.404,832L256,832L320,896Z"/>
        <g transform="matrix(1,0,0,1,128,128)">
            <path d="M798.443,64L822.952,64C863.268,64 896,96.732 896,137.048L896,320L832,256L832,151.404C832,138.487 821.513,128 808.596,128L798.491,128L798.443,64ZM896,384L896,822.952C896,863.268 863.268,896 822.952,896L384,896L448,832L808.596,832C821.513,832 832,821.513 832,808.596L832,448L896,384ZM320,896L137.048,896C96.732,896 64,863.268 64,822.952L64,799.657L128,799.657L128,808.596C128,821.513 138.487,832 151.404,832L256,832L320,896Z"/>
        </g>
    </g>
</svg>
