<?xml version="1.0" encoding="UTF-8" standalone="no"?>
<!DOCTYPE svg PUBLIC "-//W3C//DTD SVG 1.1//EN" "http://www.w3.org/Graphics/SVG/1.1/DTD/svg11.dtd">
<svg width="100%" height="100%" viewBox="0 0 16 16" version="1.1" xmlns="http://www.w3.org/2000/svg" xmlns:xlink="http://www.w3.org/1999/xlink" xml:space="preserve" xmlns:serif="http://www.serif.com/" style="fill-rule:evenodd;clip-rule:evenodd;stroke-linejoin:round;stroke-miterlimit:2;">
    <g id="runScript">
        <g transform="matrix(1,0,0,1,-1,0)">
            <path d="M10.5,0.1L13.9,3.6L14,4L14,7.982L13,7.982L13,5L9,5L9,1L3,1L3,14L9.991,14L9.991,15L2.5,15L2,14.5L2,0.5L2.5,0L10.2,0L10.5,0.1ZM10,1L10,4L12.9,4L10,1Z"/>
        </g>
        <g transform="matrix(1,0,0,1,4,4)">
            <path d="M6,5L6.777,4.584L11.277,7.584L11.277,8.416L6.777,11.416L6,11L6,5ZM7,5.934L7,10.066L10.099,8L7,5.934Z"/>
        </g>
    </g>
</svg>
