<?xml version="1.0" encoding="UTF-8" standalone="no"?>
<!DOCTYPE svg PUBLIC "-//W3C//DTD SVG 1.1//EN" "http://www.w3.org/Graphics/SVG/1.1/DTD/svg11.dtd">
<svg width="100%" height="100%" viewBox="0 0 16 16" version="1.1" xmlns="http://www.w3.org/2000/svg" xmlns:xlink="http://www.w3.org/1999/xlink" xml:space="preserve" xmlns:serif="http://www.serif.com/" style="fill-rule:evenodd;clip-rule:evenodd;stroke-linejoin:round;stroke-miterlimit:2;">
    <g transform="matrix(0.169718,0,0,0.169718,0.188884,0.0446299)">
        <g id="sakilaZoomed">
            <path id="SQL-Editor-Icon" serif:id="SQL Editor Icon" d="M88.282,77.269C89.061,78.308 89.758,78.189 89.729,75.849C89.699,73.485 89.52,72.869 88.972,70.35C88.569,68.499 84.708,60.234 82.508,55.198C81.006,51.759 80.025,48.37 78.153,45.289C69.165,30.493 59.489,21.561 44.501,12.784C41.312,10.92 37.518,9.962 33.415,9.219C30.575,8.704 29.059,8.956 26.882,8.82C25.553,8.268 24.17,6.639 22.924,5.847C17.958,2.707 5.222,-4.125 1.545,4.856C-0.777,10.525 5.015,16.06 7.086,18.928C8.541,20.946 10.402,23.204 11.443,25.467C12.125,26.959 12.243,28.453 12.828,30.027C14.268,33.909 15.52,38.131 17.38,41.718C18.322,43.533 19.358,45.447 20.547,47.072C21.277,48.067 22.527,48.505 22.725,50.044C21.501,51.759 21.432,54.415 20.747,56.587C17.652,66.351 18.819,78.486 23.32,85.717C24.701,87.934 27.953,92.693 32.426,90.871C36.336,89.273 35.463,84.328 36.582,79.965C36.835,78.979 36.68,78.255 37.177,77.59L37.177,77.785C38.363,80.164 39.593,83.127 41.248,85.204C43.128,87.564 44.18,88.692 46.579,90.432C49.636,92.65 53.501,94.901 51.325,92.001C50.756,91.243 44.832,84.363 41.927,78.78C40.541,76.116 39.336,73.17 38.165,70.455C37.715,69.41 37.719,67.831 36.781,67.283C35.5,69.274 33.614,70.88 32.623,73.233C31.039,76.988 30.835,81.563 30.247,86.309C29.9,86.436 30.055,86.35 29.852,86.508C27.095,85.843 26.126,83.002 25.101,80.563C22.51,74.395 22.028,64.468 24.309,57.379C24.9,55.542 27.565,49.755 26.486,48.063C25.971,46.366 24.271,45.393 23.32,44.094C22.143,42.501 20.967,40.393 20.152,38.547C18.031,33.742 17.04,28.344 14.807,23.489C13.74,21.163 11.935,18.815 10.453,16.752C8.811,14.462 6.974,12.774 5.701,10.01C5.25,9.028 4.634,7.454 5.306,6.44C5.519,5.762 5.82,5.476 6.493,5.255C7.642,4.368 10.839,5.553 12.036,6.047C15.21,7.368 17.858,8.621 20.547,10.409C21.84,11.263 23.145,12.919 24.706,13.377L26.486,13.377C29.274,14.019 32.395,13.58 34.998,14.372C39.6,15.77 43.724,17.951 47.471,20.313C58.88,27.53 68.208,37.791 74.59,50.044C75.616,52.012 76.06,53.899 76.964,55.989C78.79,60.207 81.087,64.546 82.904,68.672C84.714,72.79 85.718,73.847 88.282,77.269ZM30.05,21.901C28.599,21.874 27.573,22.059 26.486,22.299L26.486,22.494C26.553,22.494 26.646,22.44 26.684,22.494C27.85,24.108 28.032,23.701 29.456,26.063C30.248,27.377 30.775,28.837 31.436,30.221C31.502,30.158 31.567,30.09 31.634,30.027C32.86,29.162 33.349,28.146 33.131,26.048C33.018,24.96 32.851,24.498 32.426,23.883C31.858,23.064 31.049,22.12 30.05,21.901Z"/>
        </g>
    </g>
</svg>
