<?xml version="1.0" encoding="UTF-8" standalone="no"?>
<!DOCTYPE svg PUBLIC "-//W3C//DTD SVG 1.1//EN" "http://www.w3.org/Graphics/SVG/1.1/DTD/svg11.dtd">
<svg width="100%" height="100%" viewBox="0 0 16 16" version="1.1" xmlns="http://www.w3.org/2000/svg" xmlns:xlink="http://www.w3.org/1999/xlink" xml:space="preserve" xmlns:serif="http://www.serif.com/" style="fill-rule:evenodd;clip-rule:evenodd;stroke-linejoin:round;stroke-miterlimit:2;">
    <g transform="matrix(0.20214,0,0,0.180185,0.864261,-0.931774)">
        <g id="schema">
            <path id="SQL-Editor-Icon" serif:id="SQL Editor Icon" d="M70.022,82.283L70.02,82.283L70.022,82.307C70.022,88.367 54.504,93.286 35.391,93.286C16.277,93.286 0.76,88.367 0.76,82.307L0.762,82.283L0.76,82.283L0.76,63.125L0.805,63.689C1.731,69.473 16.874,74.079 35.391,74.079C54.504,74.079 70.022,69.171 70.022,63.125L70.022,82.283ZM70.02,41.168L70.022,41.168L70.022,60.374L70.02,60.374C69.978,66.427 54.49,71.329 35.391,71.329C16.291,71.329 0.803,66.427 0.761,60.374L0.76,60.374L0.76,41.193C0.763,47.257 16.266,52.171 35.391,52.171C54.517,52.171 70.022,47.256 70.022,41.192L70.02,41.168ZM70.02,19.259L70.022,19.259L70.022,38.417C70.022,44.467 54.517,49.371 35.391,49.371C16.264,49.371 0.759,44.467 0.759,38.417L0.76,19.259L0.761,19.259C0.803,25.312 16.291,30.213 35.391,30.213C54.49,30.213 69.978,25.312 70.02,19.259ZM0.761,41.168L0.76,41.191L0.76,41.168L0.761,41.168ZM35.391,5.505C54.517,5.505 70.022,10.42 70.022,16.484C70.022,22.547 54.517,27.463 35.391,27.463C16.264,27.463 0.759,22.547 0.759,16.484C0.759,10.42 16.264,5.505 35.391,5.505Z"/>
        </g>
    </g>
</svg>
