<?xml version="1.0" encoding="UTF-8" standalone="no"?>
<!DOCTYPE svg PUBLIC "-//W3C//DTD SVG 1.1//EN" "http://www.w3.org/Graphics/SVG/1.1/DTD/svg11.dtd">
<svg width="100%" height="100%" viewBox="0 0 16 16" version="1.1" xmlns="http://www.w3.org/2000/svg" xmlns:xlink="http://www.w3.org/1999/xlink" xml:space="preserve" xmlns:serif="http://www.serif.com/" style="fill-rule:evenodd;clip-rule:evenodd;stroke-linejoin:round;stroke-miterlimit:2;">
    <g id="schemaTableColumns" transform="matrix(0.796704,0,0,0.796704,-0.46961,3.52295)">
        <g transform="matrix(0.707107,0.707107,-0.707107,0.707107,15.0206,-7.74066)">
            <path d="M5,6.775L6,6.775L6,6L12,6L12,12L11.225,12L11.225,13L13,13L13,5L5,5L5,6.775Z"/>
        </g>
        <g transform="matrix(0.707107,0.707107,-0.707107,0.707107,11.2551,-7.74066)">
            <path d="M5,6.775L6,6.775L6,6L12,6L12,12L11.225,12L11.225,13L13,13L13,5L5,5L5,6.775Z"/>
        </g>
        <g transform="matrix(0.707107,0.707107,-0.707107,0.707107,7.48962,-7.74066)">
            <path d="M13,5L5,5L5,13L13,13L13,5ZM12,6L6,6L6,12L12,12L12,6Z"/>
        </g>
    </g>
</svg>
