<?xml version="1.0" encoding="UTF-8" standalone="no"?>
<!DOCTYPE svg PUBLIC "-//W3C//DTD SVG 1.1//EN" "http://www.w3.org/Graphics/SVG/1.1/DTD/svg11.dtd">
<svg width="100%" height="100%" viewBox="0 0 16 16" version="1.1" xmlns="http://www.w3.org/2000/svg" xmlns:xlink="http://www.w3.org/1999/xlink" xml:space="preserve" xmlns:serif="http://www.serif.com/" style="fill-rule:evenodd;clip-rule:evenodd;stroke-linejoin:round;stroke-miterlimit:2;">
    <g id="mle-library">
        <path d="M5,2.5L5.5,2L7.5,2L8,2.5L8,13.5L7.5,14L5.5,14L5,13.5L5,2.5ZM6,3L6,13L7,13L7,3L6,3ZM9.171,3.345L9.47,2.704L11.35,2.02L11.99,2.319L15.752,12.655L15.453,13.296L13.574,13.98L12.934,13.681L9.17,3.345L9.171,3.345ZM10.281,3.473L13.701,12.869L14.641,12.528L11.221,3.131L10.281,3.473ZM1,2.5L1.5,2L3.5,2L4,2.5L4,13.5L3.5,14L1.5,14L1,13.5L1,2.5ZM2,3L2,13L3,13L3,3L2,3Z"/>
    </g>
</svg>
