<?xml version="1.0" encoding="UTF-8" standalone="no"?>
<!DOCTYPE svg PUBLIC "-//W3C//DTD SVG 1.1//EN" "http://www.w3.org/Graphics/SVG/1.1/DTD/svg11.dtd">
<svg width="100%" height="100%" viewBox="0 0 16 16" version="1.1" xmlns="http://www.w3.org/2000/svg" xmlns:xlink="http://www.w3.org/1999/xlink" xml:space="preserve" xmlns:serif="http://www.serif.com/" style="fill-rule:evenodd;clip-rule:evenodd;stroke-linejoin:round;stroke-miterlimit:2;">
    <g id="schemaTableTriggers" transform="matrix(1,0,0,1,-0.2,0)">
        <g transform="matrix(1,0,0,1,2.68966,0)">
            <path d="M9.274,6.639L11.011,7.198L10.681,7.524L11.169,7.606L7.772,10.402L4.765,13.375L4.174,14.44L12.617,7.196L9.274,6.639ZM9.035,6.562L8.585,6.417L10.27,4.576L11.169,3.721L11.052,3.721L11.738,2.971L13.22,2.971L9.035,6.562Z" style="fill:rgb(34,34,36);"/>
        </g>
        <g transform="matrix(1,0,0,1,0.182937,0)">
            <path d="M9.274,6.639L11.011,7.198L10.681,7.524L11.169,7.606L7.772,10.402L4.765,13.375L4.174,14.44L12.617,7.196L9.274,6.639ZM9.035,6.562L8.585,6.417L10.27,4.576L11.169,3.721L11.052,3.721L11.738,2.971L13.22,2.971L9.035,6.562Z" style="fill:rgb(34,34,36);"/>
        </g>
        <g transform="matrix(1,0,0,1,-2.1893,0)">
            <path d="M7.792,2.971L4.174,9.007L7.189,9.007L4.174,14.44L12.617,7.196L8.998,6.593L13.22,2.971L7.792,2.971ZM8.353,3.721L5.345,8.343L8.743,8.343L6.692,11.29L11.169,7.606L7.697,7.023L11.169,3.721L8.353,3.721Z" style="fill:rgb(34,34,36);"/>
        </g>
    </g>
</svg>
