<?xml version="1.0" encoding="UTF-8" standalone="no"?>
<!DOCTYPE svg PUBLIC "-//W3C//DTD SVG 1.1//EN" "http://www.w3.org/Graphics/SVG/1.1/DTD/svg11.dtd">
<svg width="100%" height="100%" viewBox="0 0 16 16" version="1.1" xmlns="http://www.w3.org/2000/svg" xmlns:xlink="http://www.w3.org/1999/xlink" xml:space="preserve" xmlns:serif="http://www.serif.com/" style="fill-rule:evenodd;clip-rule:evenodd;stroke-linejoin:round;stroke-miterlimit:2;">
    <g transform="matrix(0.621267,0,0,0.621267,1.15706,4.39553)">
        <g id="schemaTableColumns">
            <g transform="matrix(0.9,0,0,0.9,7.71549,-2.32495)">
                <g id="schemaTableColumn">
                    <path d="M6.79,1.995C7.219,1.903 7.664,1.854 8.12,1.854C11.584,1.854 14.396,4.666 14.396,8.13C14.396,11.594 11.584,14.406 8.12,14.406C7.664,14.406 7.219,14.357 6.79,14.264C7.785,14.049 8.692,13.598 9.45,12.972C11.577,12.389 13.141,10.44 13.141,8.13C13.141,5.819 11.577,3.871 9.45,3.287C8.692,2.662 7.785,2.211 6.79,1.995Z"/>
                </g>
            </g>
            <g transform="matrix(0.9,0,0,0.9,3.94997,-2.32495)">
                <g id="schemaTableColumn1" serif:id="schemaTableColumn">
                    <path d="M6.79,1.995C7.219,1.903 7.664,1.854 8.12,1.854C11.584,1.854 14.396,4.666 14.396,8.13C14.396,11.594 11.584,14.406 8.12,14.406C7.664,14.406 7.219,14.357 6.79,14.264C7.785,14.049 8.692,13.598 9.45,12.972C11.577,12.389 13.141,10.44 13.141,8.13C13.141,5.819 11.577,3.871 9.45,3.287C8.692,2.662 7.785,2.211 6.79,1.995Z"/>
                </g>
            </g>
            <g transform="matrix(0.9,0,0,0.9,0.184461,-2.32495)">
                <g id="schemaTableColumnNN">
                    <circle cx="8.12" cy="8.13" r="6.276"/>
                </g>
            </g>
        </g>
    </g>
</svg>
