<?xml version="1.0" encoding="UTF-8" standalone="no"?>
<!DOCTYPE svg PUBLIC "-//W3C//DTD SVG 1.1//EN" "http://www.w3.org/Graphics/SVG/1.1/DTD/svg11.dtd">
<svg width="100%" height="100%" viewBox="0 0 16 16" version="1.1" xmlns="http://www.w3.org/2000/svg" xmlns:xlink="http://www.w3.org/1999/xlink" xml:space="preserve" xmlns:serif="http://www.serif.com/" style="fill-rule:evenodd;clip-rule:evenodd;stroke-linejoin:round;stroke-miterlimit:2;">
    <g id="shellTaskOk" transform="matrix(1,0,0,1,-1,0)">
        <g id="shellTask" transform="matrix(1,0,0,1,1,0)">
            <path d="M7.317,14.998L3.143,14.998L2,13.855L2,3.143L3.1,2L11.855,2L12.998,3.143L12.998,6.25C12.676,6.157 12.343,6.093 12,6.061L12,2.989L3,2.989L3,14L6.647,14C6.834,14.358 7.059,14.692 7.317,14.998ZM6.054,11C6.04,11.16 6.032,11.321 6.032,11.484C6.032,11.658 6.04,11.83 6.056,12L4.25,12C4.112,12 4,11.888 4,11.75L4,11.25C4,11.112 4.112,11 4.25,11L6.054,11ZM7.293,8C7.038,8.307 6.815,8.642 6.631,9L4.25,9C4.112,9 4,8.888 4,8.75L4,8.25C4,8.112 4.112,8 4.25,8L7.293,8ZM11,5.25C11,5.112 10.888,5 10.75,5L4.25,5C4.112,5 4,5.112 4,5.25L4,5.75C4,5.888 4.112,6 4.25,6L10.75,6C10.888,6 11,5.888 11,5.75L11,5.25Z"/>
            <path d="M6.087,1C6.292,0.417 6.848,0 7.5,0C8.152,0 8.708,0.417 8.913,1L9.466,1C9.761,1 10,1.239 10,1.534L10,3.466C10,3.761 9.761,4 9.466,4L5.534,4C5.239,4 5,3.761 5,3.466L5,1.534C5,1.239 5.239,1 5.534,1L6.087,1ZM7.5,0.822C7.874,0.822 8.178,1.126 8.178,1.5C8.178,1.874 7.874,2.178 7.5,2.178C7.126,2.178 6.822,1.874 6.822,1.5C6.822,1.126 7.126,0.822 7.5,0.822Z"/>
        </g>
        <g id="OK" transform="matrix(1,0,0,1,5,3)">
            <path d="M7.5,4C9.984,4 12,6.016 12,8.5C12,10.984 9.984,13 7.5,13C5.016,13 3,10.984 3,8.5C3,6.016 5.016,4 7.5,4ZM7.5,4.9C9.432,4.9 11.1,6.568 11.1,8.5C11.1,10.432 9.432,12.1 7.5,12.1C5.568,12.1 3.9,10.432 3.9,8.5C3.9,6.568 5.568,4.9 7.5,4.9Z" style="fill:rgb(4,179,7);"/>
            <g transform="matrix(0.707107,0.707107,-0.66392,0.66392,7.82285,-1.32331)">
                <path d="M8,5.302C8,5.135 7.873,5 7.717,5L7.283,5C7.127,5 7,5.135 7,5.302L7,8.698C7,8.865 7.127,9 7.283,9L7.717,9C7.873,9 8,8.865 8,8.698L8,5.302Z" style="fill:rgb(4,179,7);"/>
            </g>
            <g transform="matrix(-0.707107,0.707107,-0.409622,-0.409622,15.205,6.69836)">
                <path d="M8,5.448C8,5.201 7.884,5 7.74,5L7.26,5C7.116,5 7,5.201 7,5.448L7,8.552C7,8.799 7.116,9 7.26,9L7.74,9C7.884,9 8,8.799 8,8.552L8,5.448Z" style="fill:rgb(0,179,9);"/>
            </g>
        </g>
    </g>
</svg>
