<?xml version="1.0" encoding="UTF-8" standalone="no"?>
<!DOCTYPE svg PUBLIC "-//W3C//DTD SVG 1.1//EN" "http://www.w3.org/Graphics/SVG/1.1/DTD/svg11.dtd">
<svg width="100%" height="100%" viewBox="0 0 28 16" version="1.1" xmlns="http://www.w3.org/2000/svg" xmlns:xlink="http://www.w3.org/1999/xlink" xml:space="preserve" xmlns:serif="http://www.serif.com/" style="fill-rule:evenodd;clip-rule:evenodd;stroke-linejoin:round;stroke-miterlimit:2;">
    <g transform="matrix(1,0,0,1,0,-16)">
        <g id="Layer1" transform="matrix(1,0,0,1,0,16)">
            <path d="M8.197,0L28.002,0L28.002,16L8.197,16L0,7.988L8.197,0ZM24.32,12.622C24.441,12.784 24.549,12.765 24.544,12.402C24.54,12.035 24.512,11.939 24.427,11.548C24.364,11.26 23.765,9.977 23.423,9.194C23.19,8.66 23.037,8.134 22.746,7.655C21.351,5.357 19.848,3.97 17.52,2.607C17.024,2.317 16.435,2.168 15.798,2.053C15.357,1.973 15.121,2.012 14.783,1.991C14.577,1.905 14.362,1.652 14.168,1.529C13.397,1.042 11.419,-0.02 10.848,1.375C10.487,2.256 11.387,3.115 11.708,3.561C11.934,3.874 12.223,4.225 12.385,4.577C12.491,4.808 12.509,5.04 12.6,5.285C12.824,5.888 13.018,6.543 13.307,7.101C13.454,7.383 13.614,7.68 13.799,7.932C13.913,8.087 14.107,8.155 14.137,8.394C13.947,8.66 13.937,9.073 13.83,9.41C13.35,10.927 13.531,12.811 14.23,13.935C14.444,14.279 14.949,15.018 15.644,14.735C16.252,14.487 16.116,13.719 16.29,13.041C16.329,12.888 16.305,12.776 16.382,12.672L16.382,12.703C16.566,13.072 16.757,13.532 17.014,13.855C17.306,14.221 17.47,14.397 17.842,14.667C18.317,15.011 19.348,15.238 19.009,14.788C18.921,14.67 18.001,13.601 17.55,12.734C17.334,12.32 17.147,11.863 16.966,11.441C16.896,11.279 16.903,10.877 16.75,10.949C16.221,11.197 15.829,11.507 15.675,11.873C15.429,12.456 15.397,12.737 15.306,13.474C15.252,13.494 15.282,13.456 15.244,13.443C14.989,13.355 15.096,13.513 14.936,13.134C14.534,12.176 14.459,10.634 14.813,9.533C14.905,9.248 15.196,8.349 15.029,8.086C14.949,7.823 14.869,7.671 14.721,7.47C14.538,7.222 14.356,6.895 14.229,6.608C13.9,5.862 13.746,5.023 13.399,4.269C13.233,3.908 12.953,3.543 12.723,3.223C12.468,2.867 11.937,2.605 11.739,2.176C11.669,2.023 11.512,1.963 11.616,1.806C11.649,1.7 11.696,1.656 11.801,1.621C11.979,1.484 12.107,1.606 12.293,1.683C12.786,1.888 13.197,2.083 13.615,2.361C13.816,2.493 14.018,2.751 14.261,2.822C14.353,2.822 14.629,2.883 14.722,2.883C15.155,2.983 15.639,2.915 16.044,3.037C16.758,3.255 17.399,3.716 17.981,4.083C19.753,5.204 20.833,6.491 21.825,8.394C21.984,8.7 22.053,8.993 22.193,9.317C22.477,9.972 22.834,10.646 23.116,11.287C23.397,11.927 23.922,12.091 24.32,12.622ZM16.012,3.988C15.721,3.983 15.515,4.02 15.297,4.068C15.297,4.081 15.218,4.093 15.218,4.107C15.231,4.107 15.25,4.175 15.258,4.186C15.491,4.51 15.528,4.428 15.813,4.902C15.972,5.165 16.236,5.616 16.369,5.894C16.382,5.881 16.474,5.868 16.488,5.855C16.733,5.682 16.831,5.478 16.788,5.057C16.765,4.839 16.573,4.509 16.488,4.385C16.374,4.221 16.212,4.032 16.012,3.988Z" style="fill:rgb(232,155,0);"/>
        </g>
        <g id="Layer11" serif:id="Layer1">
            <path d="M19.805,0.012L0,0L0,16L19.805,16.012L28.002,8L19.805,0.012ZM17.429,12.622C17.55,12.784 17.659,12.765 17.654,12.402C17.65,12.035 17.622,11.939 17.536,11.548C17.474,11.26 16.874,9.977 16.533,9.194C16.299,8.66 16.147,8.134 15.856,7.655C14.46,5.357 12.957,3.97 10.629,2.607C10.134,2.317 9.545,2.168 8.908,2.053C8.466,1.973 8.231,2.012 7.893,1.991C7.686,1.905 7.472,1.652 7.278,1.529C6.507,1.042 4.529,-0.02 3.957,1.375C3.597,2.256 4.496,3.115 4.818,3.561C5.044,3.874 5.333,4.225 5.495,4.577C5.601,4.808 5.619,5.04 5.71,5.285C5.934,5.888 6.128,6.543 6.417,7.101C6.563,7.383 6.724,7.68 6.909,7.932C7.022,8.087 7.216,8.155 7.247,8.394C7.057,8.66 7.046,9.073 6.94,9.41C6.459,10.927 6.64,12.811 7.339,13.935C7.554,14.279 8.059,15.018 8.754,14.735C9.361,14.487 9.226,13.719 9.399,13.041C9.439,12.888 9.415,12.776 9.492,12.672L9.492,12.703C9.676,13.072 9.867,13.532 10.124,13.855C10.416,14.221 10.579,14.397 10.952,14.667C11.427,15.011 12.457,15.238 12.119,14.788C12.031,14.67 11.111,13.601 10.66,12.734C10.444,12.32 10.257,11.863 10.075,11.441C10.005,11.279 10.013,10.877 9.86,10.949C9.33,11.197 8.938,11.507 8.785,11.873C8.538,12.456 8.507,12.737 8.415,13.474C8.361,13.494 8.392,13.456 8.354,13.443C8.099,13.355 8.205,13.513 8.046,13.134C7.644,12.176 7.569,10.634 7.923,9.533C8.015,9.248 8.306,8.349 8.138,8.086C8.058,7.823 7.979,7.671 7.831,7.47C7.648,7.222 7.465,6.895 7.339,6.608C7.009,5.862 6.855,5.023 6.509,4.269C6.343,3.908 6.063,3.543 5.832,3.223C5.577,2.867 5.046,2.605 4.849,2.176C4.779,2.023 4.621,1.963 4.726,1.806C4.759,1.7 4.806,1.656 4.91,1.621C5.089,1.484 5.217,1.606 5.403,1.683C5.896,1.888 6.307,2.083 6.725,2.361C6.925,2.493 7.128,2.751 7.371,2.822C7.463,2.822 7.739,2.883 7.831,2.883C8.264,2.983 8.749,2.915 9.153,3.037C9.868,3.255 10.509,3.716 11.091,4.083C12.863,5.204 13.943,6.491 14.934,8.394C15.094,8.7 15.163,8.993 15.303,9.317C15.587,9.972 15.943,10.646 16.226,11.287C16.507,11.927 17.031,12.091 17.429,12.622ZM9.121,3.988C8.83,3.983 8.625,4.02 8.407,4.068C8.407,4.081 8.328,4.093 8.328,4.107C8.341,4.107 8.36,4.175 8.367,4.186C8.601,4.51 8.637,4.428 8.923,4.902C9.082,5.165 9.346,5.616 9.478,5.894C9.492,5.881 9.584,5.868 9.597,5.855C9.843,5.682 9.941,5.478 9.897,5.057C9.875,4.839 9.683,4.509 9.597,4.385C9.484,4.221 9.322,4.032 9.121,3.988Z" style="fill:rgb(232,155,0);"/>
        </g>
    </g>
</svg>
