<?xml version="1.0" encoding="UTF-8" standalone="no"?>
<!DOCTYPE svg PUBLIC "-//W3C//DTD SVG 1.1//EN" "http://www.w3.org/Graphics/SVG/1.1/DTD/svg11.dtd">
<svg width="100%" height="100%" viewBox="0 0 21 16" version="1.1" xmlns="http://www.w3.org/2000/svg" xmlns:xlink="http://www.w3.org/1999/xlink" xml:space="preserve" xmlns:serif="http://www.serif.com/" style="fill-rule:evenodd;clip-rule:evenodd;stroke-linejoin:round;stroke-miterlimit:2;">
    <g transform="matrix(1,0,0,1,0,-16)">
        <g id="sqlBlockEnd" transform="matrix(1,0,0,1,0,16)">
            <g transform="matrix(0.614485,0,0,0.614485,-543.732,-124.564)">
                <rect x="915.779" y="202.714" width="2.167" height="25.999"/>
            </g>
            <g transform="matrix(-0.614485,0,0,0.614485,582.537,-124.564)">
                <path d="M921.779,205.087L931.665,215.713L921.779,226.241L923.991,227.428L934.157,216.595L934.157,214.832L923.991,203.998L921.779,205.087Z"/>
            </g>
            <g transform="matrix(-0.614485,0,0,0.614485,577.006,-124.564)">
                <path d="M921.779,205.087L931.665,215.713L921.779,226.241L923.991,227.428L934.157,216.595L934.157,214.832L923.991,203.998L921.779,205.087Z"/>
            </g>
        </g>
        <g id="sqlBlockStart">
            <g id="SQL-Editor-Icon" serif:id="SQL Editor Icon" transform="matrix(0.15532,0,0,0.15532,0.743902,0.621052)">
                <path d="M88.282,77.269C89.061,78.308 89.758,78.189 89.729,75.849C89.699,73.485 89.52,72.869 88.972,70.35C88.569,68.499 84.708,60.234 82.508,55.198C81.006,51.759 80.025,48.37 78.153,45.289C69.165,30.493 59.489,21.561 44.501,12.784C41.312,10.92 37.518,9.962 33.415,9.219C30.575,8.704 29.059,8.956 26.882,8.82C25.553,8.268 24.17,6.639 22.924,5.847C17.958,2.707 5.222,-4.125 1.545,4.856C-0.777,10.525 5.015,16.06 7.086,18.928C8.541,20.946 10.402,23.204 11.443,25.467C12.125,26.959 12.243,28.453 12.828,30.027C14.268,33.909 15.52,38.131 17.38,41.718C18.322,43.533 19.358,45.447 20.547,47.072C21.277,48.067 22.527,48.505 22.725,50.044C21.501,51.759 21.432,54.415 20.747,56.587C17.652,66.351 18.819,78.486 23.32,85.717C24.701,87.934 27.953,92.693 32.426,90.871C36.336,89.273 35.463,84.328 36.582,79.965C36.835,78.979 36.68,78.255 37.177,77.59L37.177,77.785C38.363,80.164 39.593,83.127 41.248,85.204C43.128,87.564 44.18,88.692 46.579,90.432C49.636,92.65 56.269,94.11 54.093,91.21C53.524,90.452 47.6,83.572 44.695,77.989C43.308,75.325 42.104,72.379 40.933,69.664C40.482,68.619 40.533,66.031 39.548,66.492C36.138,68.089 33.614,70.089 32.623,72.442C31.039,76.197 30.835,78.004 30.247,82.75C29.9,82.877 30.095,82.639 29.852,82.554C28.207,81.984 28.894,83.002 27.869,80.563C25.278,74.395 24.796,64.468 27.077,57.379C27.668,55.542 29.542,49.755 28.463,48.063C27.948,46.366 27.435,45.393 26.483,44.094C25.306,42.501 24.13,40.393 23.315,38.547C21.194,33.742 20.204,28.344 17.971,23.489C16.903,21.163 15.098,18.815 13.616,16.752C11.974,14.462 8.555,12.774 7.283,10.01C6.831,9.028 5.82,8.64 6.492,7.626C6.705,6.948 7.006,6.662 7.68,6.441C8.829,5.554 9.653,6.344 10.849,6.837C14.024,8.159 16.672,9.412 19.361,11.199C20.654,12.054 21.959,13.71 23.519,14.167C24.113,14.167 25.892,14.563 26.486,14.563C29.274,15.205 32.395,14.766 34.998,15.558C39.6,16.956 43.724,19.928 47.471,22.29C58.88,29.507 65.835,37.791 72.217,50.044C73.244,52.012 73.688,53.899 74.591,55.989C76.417,60.207 78.714,64.546 80.531,68.672C82.342,72.79 85.718,73.847 88.282,77.269ZM34.792,21.677C32.918,21.642 31.594,21.882 30.192,22.191C30.192,22.278 29.681,22.355 29.681,22.443C29.768,22.443 29.887,22.884 29.937,22.953C31.441,25.037 31.676,24.511 33.514,27.56C34.536,29.256 36.238,32.161 37.09,33.948C37.175,33.866 37.77,33.779 37.856,33.697C39.439,32.581 40.07,31.269 39.789,28.562C39.643,27.157 38.407,25.029 37.857,24.236C37.125,23.178 36.081,21.96 34.792,21.677Z"/>
            </g>
            <g transform="matrix(0.614485,0,0,0.614485,-543.732,-124.564)">
                <rect x="915.779" y="202.714" width="2.167" height="25.999"/>
            </g>
        </g>
    </g>
</svg>
