<?xml version="1.0" encoding="UTF-8" standalone="no"?>
<!DOCTYPE svg PUBLIC "-//W3C//DTD SVG 1.1//EN" "http://www.w3.org/Graphics/SVG/1.1/DTD/svg11.dtd">
<svg width="100%" height="100%" viewBox="0 0 28 16" version="1.1" xmlns="http://www.w3.org/2000/svg" xmlns:xlink="http://www.w3.org/1999/xlink" xml:space="preserve" xmlns:serif="http://www.serif.com/" style="fill-rule:evenodd;clip-rule:evenodd;stroke-linejoin:round;stroke-miterlimit:2;">
    <g id="Layer11" serif:id="Layer1">
        <path d="M19.805,0.012L0,0L0,16L19.805,16.012L28.002,8L19.805,0.012ZM17.429,12.622C17.55,12.784 17.659,12.765 17.654,12.402C17.65,12.035 17.622,11.939 17.536,11.548C17.474,11.26 16.874,9.977 16.533,9.194C16.299,8.66 16.147,8.134 15.856,7.655C14.46,5.357 12.957,3.97 10.629,2.607C10.134,2.317 9.545,2.168 8.908,2.053C8.466,1.973 8.231,2.012 7.893,1.991C7.686,1.905 7.472,1.652 7.278,1.529C6.507,1.042 4.529,-0.02 3.957,1.375C3.597,2.256 4.496,3.115 4.818,3.561C5.044,3.874 5.333,4.225 5.495,4.577C5.601,4.808 5.619,5.04 5.71,5.285C5.934,5.888 6.128,6.543 6.417,7.101C6.563,7.383 6.724,7.68 6.909,7.932C7.022,8.087 7.216,8.155 7.247,8.394C7.057,8.66 7.046,9.073 6.94,9.41C6.459,10.927 6.64,12.811 7.339,13.935C7.554,14.279 8.059,15.018 8.754,14.735C9.361,14.487 9.226,13.719 9.399,13.041C9.439,12.888 9.415,12.776 9.492,12.672L9.492,12.703C9.676,13.072 9.867,13.532 10.124,13.855C10.416,14.221 10.579,14.397 10.952,14.667C11.427,15.011 12.457,15.238 12.119,14.788C12.031,14.67 11.111,13.601 10.66,12.734C10.444,12.32 10.257,11.863 10.075,11.441C10.005,11.279 10.013,10.877 9.86,10.949C9.33,11.197 8.938,11.507 8.785,11.873C8.538,12.456 8.507,12.737 8.415,13.474C8.361,13.494 8.392,13.456 8.354,13.443C8.099,13.355 8.205,13.513 8.046,13.134C7.644,12.176 7.569,10.634 7.923,9.533C8.015,9.248 8.306,8.349 8.138,8.086C8.058,7.823 7.979,7.671 7.831,7.47C7.648,7.222 7.465,6.895 7.339,6.608C7.009,5.862 6.855,5.023 6.509,4.269C6.343,3.908 6.063,3.543 5.832,3.223C5.577,2.867 5.046,2.605 4.849,2.176C4.779,2.023 4.621,1.963 4.726,1.806C4.759,1.7 4.806,1.656 4.91,1.621C5.089,1.484 5.217,1.606 5.403,1.683C5.896,1.888 6.307,2.083 6.725,2.361C6.925,2.493 7.128,2.751 7.371,2.822C7.463,2.822 7.739,2.883 7.831,2.883C8.264,2.983 8.749,2.915 9.153,3.037C9.868,3.255 10.509,3.716 11.091,4.083C12.863,5.204 13.943,6.491 14.934,8.394C15.094,8.7 15.163,8.993 15.303,9.317C15.587,9.972 15.943,10.646 16.226,11.287C16.507,11.927 17.031,12.091 17.429,12.622ZM9.121,3.988C8.83,3.983 8.625,4.02 8.407,4.068C8.407,4.081 8.328,4.093 8.328,4.107C8.341,4.107 8.36,4.175 8.367,4.186C8.601,4.51 8.637,4.428 8.923,4.902C9.082,5.165 9.346,5.616 9.478,5.894C9.492,5.881 9.584,5.868 9.597,5.855C9.843,5.682 9.941,5.478 9.897,5.057C9.875,4.839 9.683,4.509 9.597,4.385C9.484,4.221 9.322,4.032 9.121,3.988Z" style="fill:rgb(232,155,0);"/>
    </g>
</svg>
