<?xml version="1.0" encoding="UTF-8" standalone="no"?>
<!DOCTYPE svg PUBLIC "-//W3C//DTD SVG 1.1//EN" "http://www.w3.org/Graphics/SVG/1.1/DTD/svg11.dtd">
<svg width="100%" height="100%" viewBox="0 0 16 16" version="1.1" xmlns="http://www.w3.org/2000/svg" xmlns:xlink="http://www.w3.org/1999/xlink" xml:space="preserve" xmlns:serif="http://www.serif.com/" style="fill-rule:evenodd;clip-rule:evenodd;stroke-linejoin:round;stroke-miterlimit:2;">
    <g transform="matrix(0.169718,0,0,0.169718,0.888884,0.0446299)">
        <g id="connectionMySQL">
            <path id="SQL-Editor-Icon" serif:id="SQL Editor Icon" d="M85.703,73.075C85.544,71.752 82.355,70.148 81.317,69.416C79.241,67.952 77.097,66.358 74.883,65.024C73.724,64.326 71.719,63.784 70.496,63.266C68.751,62.531 64.91,61.816 63.916,60.489C62.026,57.958 60.721,54.891 59.383,51.849C58.041,48.801 56.344,45.596 54.996,42.481C54.328,40.937 54,39.543 53.242,38.089C48.528,29.038 41.638,21.458 33.21,16.127C30.443,14.383 27.396,12.772 23.997,11.739C22.074,11.154 19.768,11.478 17.709,11.004L16.394,11.004C15.241,10.666 14.277,9.443 13.323,8.812C11.336,7.491 9.38,6.566 7.035,5.589C6.151,5.225 3.803,4.274 2.941,4.912C2.72,5.076 2.498,5.22 2.34,5.445C1.825,6.181 2.575,7.792 2.908,8.517C3.848,10.559 5.205,11.806 6.419,13.497C7.513,15.021 8.846,16.756 9.635,18.474C11.284,22.06 12.016,26.047 13.583,29.597C14.184,30.96 15.053,32.518 15.923,33.694C16.626,34.653 17.881,35.372 18.262,36.625C19.058,37.875 17.068,42.118 16.746,43.507C14.784,51.966 15.601,56.077 17.515,60.632C18.272,62.434 18.896,64.349 20.195,64.656C20.381,64.7 20.231,64.603 20.487,64.509C20.922,61.003 21.072,57.992 22.243,55.218C22.974,53.48 24.367,52.294 25.313,50.823C26.007,51.228 26.188,52.394 26.52,53.166C27.385,55.171 28.551,57.347 29.575,59.316C31.721,63.44 33.063,65.839 35.727,69.461C36.674,70.749 38.223,72.974 39.367,74.097C39.853,74.575 40.724,75.559 41.105,76.147L41.252,76.147L41.252,76.298C39.288,75.622 37.079,73.822 35.836,72.674C33.139,70.183 30.186,66.993 28.238,63.851C27.36,62.097 26.482,60.338 25.606,58.581L25.606,58.437C25.239,58.928 25.354,59.463 25.167,60.191C24.34,63.413 24.985,67.066 22.096,68.247C18.793,69.593 16.391,66.077 15.37,64.439C12.045,59.098 11.184,50.135 13.47,42.922C13.976,41.318 14.027,39.356 14.931,38.089C14.785,36.953 13.862,36.628 13.323,35.893C12.444,34.694 11.679,33.28 10.983,31.939C9.609,29.289 8.684,26.171 7.62,23.303C7.188,22.14 7.101,21.037 6.597,19.934C5.828,18.263 4.454,16.595 3.379,15.105C1.849,12.986 -2.429,8.898 -0.714,4.71C2.002,-1.924 11.41,3.123 15.078,5.442C15.998,6.027 17.02,7.23 18.002,7.638C19.61,7.738 21.219,7.832 22.828,7.933C25.824,8.644 28.661,9.189 31.016,10.566C42.087,17.05 49.235,23.647 55.874,34.577C57.257,36.853 57.981,39.356 59.091,41.896C60.716,45.616 62.519,49.483 64.355,53.019C65.23,54.71 65.85,56.545 66.986,57.999C67.467,58.611 68.745,58.801 69.473,59.169C71.635,60.262 74.158,61.1 76.198,62.391C79.879,64.717 83.453,67.504 86.727,70.295C87.978,71.361 88.797,72.922 89.944,74.098L89.944,74.686C88.921,74.98 87.897,75.271 86.873,75.565C84.603,76.15 82.639,76 80.439,76.592C79.131,76.942 77.47,77.454 76.053,77.614C76.101,77.665 76.15,77.711 76.198,77.758C77.034,80.091 81.51,82.033 83.51,83.47C86.018,85.272 88.378,87.444 90.237,89.91C90.869,90.546 91.504,91.177 92.137,91.812C92.569,92.44 92.689,93.263 93.161,93.864L93.161,94.011C92.266,93.693 91.801,92.905 91.114,92.4C89.72,91.377 88.301,90.231 86.873,89.325C84.45,87.788 81.64,86.912 79.123,85.375C77.709,84.51 76.35,83.443 75.029,82.444C73.822,81.532 72.467,79.79 71.666,78.494C71.249,77.815 71.167,76.996 70.642,76.445C70.799,75.245 72.32,75.235 73.275,74.833C76.632,73.417 80.561,72.935 85.703,73.075ZM20.241,17.413C20.977,17.548 21.721,18.079 22.004,18.488C22.319,18.943 22.695,19.413 22.828,20.084C23.051,21.219 22.417,22.665 21.512,23.303C21.463,23.35 21.414,23.4 21.365,23.447C20.877,22.424 20.276,20.993 19.903,20.375C19.529,19.756 19.38,19.528 18.5,18.567C18.467,18.531 17.759,17.738 17.709,17.738L17.709,17.595C18.512,17.418 19.445,17.268 20.241,17.413Z"/>
        </g>
    </g>
</svg>
