<?xml version="1.0" encoding="UTF-8" standalone="no"?>
<!DOCTYPE svg PUBLIC "-//W3C//DTD SVG 1.1//EN" "http://www.w3.org/Graphics/SVG/1.1/DTD/svg11.dtd">
<svg version="1.1" xmlns="http://www.w3.org/2000/svg" xmlns:xl="http://www.w3.org/1999/xlink" xmlns:dc="http://purl.org/dc/elements/1.1/" viewBox="263.62473 686.2773 34.29432 34.28573" width="100%" height="100%">
  <defs/>
  <g id="Canvas_1" stroke-opacity="1" stroke="none" stroke-dasharray="none" fill-opacity="1" fill="none">
    <title>Canvas 1</title>
    <g id="Canvas_1_Layer_1">
      <title>Layer 1</title>
      <g id="Graphic_22">
        <path d="M 265.8 686.2 L 296.09432 686.2 C 297.1989 686.2 298.09432 687.0954 298.09432 688.2 L 298.09432 718.4857 C 298.09432 719.5903 297.1989 720.4857 296.09432 720.4857 L 265.8 720.4857 C 264.69543 720.4857 263.8 719.5903 263.8 718.4857 L 263.8 688.2 C 263.8 687.0954 264.69543 686.2 265.8 686.2 Z" fill="white"/>
      </g>
      <g id="Group_2">
        <title>Canvas_1</title>
        <g id="Group_3">
          <title>Canvas_1_Layer_1</title>
          <g id="Group_19">
            <title>Group_16</title>
            <g id="Group_20">
              <title>Graphic_17</title>
              <g id="Graphic_21">
                <path d="M 286.12477 709.2916 L 287.7362 706.523 L 286.15047 703.7544 L 282.9533 703.7544 L 281.34188 706.523 L 282.9276 709.2916 Z M 283.68188 705.0316 L 285.41334 705.0316 L 286.27042 706.523 L 285.3962 708.023 L 283.66474 708.023 L 282.80758 706.5316 Z" fill="#2b5967"/>
              </g>
            </g>
          </g>
          <g id="Group_16">
            <title>Group_14</title>
            <g id="Group_17">
              <title>Graphic_15</title>
              <g id="Graphic_18">
                <path d="M 278.05902 712.8059 C 278.05902 714.3059 279.28474 715.5316 280.78472 715.5316 C 281.53045 715.5316 282.22474 715.24015 282.73902 714.7173 C 283.24474 714.203 283.51902 713.5173 283.51043 712.8144 C 283.51045 711.3144 282.28474 710.0887 280.78472 710.0887 C 279.28474 710.08015 278.05902 711.3059 278.05902 712.8059 Z M 280.78472 711.3573 C 281.59045 711.3573 282.24188 712.0087 282.24186 712.823 C 282.25045 713.20015 282.10474 713.56015 281.83902 713.8259 C 281.56474 714.1087 281.1876 714.263 280.7933 714.263 C 279.9876 714.263 279.33617 713.6116 279.33616 712.8059 C 279.3276 712.0087 279.97902 711.3573 280.78472 711.3573 Z" fill="#2b5967"/>
              </g>
            </g>
          </g>
          <g id="Group_13">
            <title>Group_12</title>
            <g id="Group_14">
              <title>Graphic_13</title>
              <g id="Graphic_15">
                <path d="M 277.18475 703.223 L 273.99616 709.0173 L 280.37327 709.0173 Z M 277.18475 705.863 L 278.22184 707.7573 L 276.13902 707.7573 Z" fill="#2b5967"/>
              </g>
            </g>
          </g>
          <g id="Group_10">
            <title>Group_10</title>
            <g id="Group_11">
              <title>Graphic_11</title>
              <g id="Graphic_12">
                <path d="M 269.73616 700.2402 L 272.57332 717.9144 L 289.13332 717.9144 L 291.78184 700.2402 L 289.07327 700.2402 L 289.07327 697.763 C 289.0733 696.7344 288.75616 695.92015 288.13043 695.3459 C 287.179 694.48015 285.859 694.5144 285.61043 694.5316 C 285.55045 694.5316 285.37045 694.5316 285.1047 694.5316 L 285.1047 694.1116 C 285.10473 693.6744 284.74473 693.3144 284.3076 693.3144 L 277.48473 693.3144 C 277.0476 693.3144 276.6876 693.6744 276.68762 694.1116 L 276.68762 694.523 C 276.25902 694.523 275.8733 694.5316 275.54757 694.5401 C 274.5533 694.5573 273.7733 694.8744 273.24184 695.49155 C 272.47045 696.3744 272.53045 697.5659 272.55618 697.8144 L 272.55618 700.2487 L 269.73616 700.2487 Z M 288.03618 716.6373 L 273.65332 716.6373 L 271.219 701.5087 L 290.299 701.5087 Z M 273.82475 697.6945 C 273.82473 697.6859 273.73902 696.8373 274.21046 696.2973 C 274.4933 695.9716 274.95616 695.8002 275.57327 695.7916 C 275.89045 695.783 276.2676 695.783 276.68762 695.7744 L 276.68762 696.3144 C 276.6876 696.7516 277.0476 697.1116 277.48473 697.11155 L 284.3076 697.11155 C 284.74473 697.1116 285.10473 696.7516 285.1047 696.3144 L 285.1047 695.7916 C 285.42187 695.7916 285.61045 695.7916 285.62757 695.7916 L 285.68762 695.7916 C 285.69616 695.7916 286.6733 695.723 287.28184 696.2802 C 287.6333 696.6059 287.80473 697.0944 287.8047 697.7544 L 287.8047 700.2316 L 273.82475 700.2316 L 273.82475 697.7716 Z" fill="#2b5967"/>
              </g>
            </g>
          </g>
          <g id="Group_7">
            <title>Group_8</title>
            <g id="Group_8">
              <title>Graphic_9</title>
              <g id="Graphic_9">
                <path d="M 263.62473 719.1316 C 263.62473 719.92015 264.2676 720.563 265.05616 720.563 L 296.48762 720.563 C 297.27616 720.563 297.91902 719.92015 297.91905 719.1316 L 297.91905 689.6973 L 263.62473 689.6973 Z M 264.8933 690.9659 L 296.64184 690.9659 L 296.64184 719.14015 C 296.64188 719.2259 296.5733 719.303 296.47905 719.303 L 265.05616 719.303 C 264.97045 719.303 264.8933 719.2344 264.8933 719.14015 Z" fill="#2b5967"/>
              </g>
            </g>
          </g>
          <g id="Group_4">
            <title>Group_6</title>
            <g id="Group_5">
              <title>Graphic_7</title>
              <g id="Graphic_6">
                <path d="M 296.47905 686.2773 L 265.05616 686.2773 C 264.2676 686.2773 263.62473 686.9202 263.62473 687.7087 L 263.62473 688.7459 L 297.9104 688.7459 L 297.9104 687.7087 C 297.91044 686.9202 297.2676 686.2773 296.47905 686.2773 Z" fill="#2b5967"/>
              </g>
            </g>
          </g>
        </g>
      </g>
    </g>
  </g>
</svg>
