<?xml version="1.0" encoding="UTF-8" standalone="no"?>
<!DOCTYPE svg PUBLIC "-//W3C//DTD SVG 1.1//EN" "http://www.w3.org/Graphics/SVG/1.1/DTD/svg11.dtd">
<svg version="1.1" xmlns="http://www.w3.org/2000/svg" xmlns:xl="http://www.w3.org/1999/xlink" xmlns:dc="http://purl.org/dc/elements/1.1/" viewBox="373.8411 678.8674 34.26725 34.25875" width="100%" height="100%">
  <defs/>
  <g id="Canvas_1" stroke-opacity="1" stroke="none" stroke-dasharray="none" fill-opacity="1" fill="none">
    <title>Canvas 1</title>
    <g id="Canvas_1_Layer_1">
      <title>Layer 1</title>
      <g id="Graphic_74">
        <path d="M 375.8 678.8 L 406.10835 678.8 C 407.2129 678.8 408.10835 679.69544 408.10835 680.8 L 408.10835 711.12615 C 408.10835 712.2307 407.2129 713.12615 406.10835 713.12615 L 375.8 713.12615 C 374.69544 713.12615 373.8 712.2307 373.8 711.12615 L 373.8 680.8 C 373.8 679.69544 374.69544 678.8 375.8 678.8 Z" fill="white"/>
      </g>
      <g id="Group_2">
        <title>Canvas_1</title>
        <g id="Group_33">
          <title>Group_26</title>
          <g id="Group_34">
            <title>Group_27</title>
            <g id="Group_35">
              <title>Group_28</title>
              <g id="Group_36">
                <title>Graphic_29</title>
                <g id="Graphic_37">
                  <path d="M 377.64384 709.1607 L 404.2886 709.1607 L 404.2886 701.5467 L 377.64384 701.5467 Z M 378.91997 702.8142 L 403.02953 702.8142 L 403.02953 707.8931 L 378.91997 707.8931 Z" fill="#2b5967"/>
                </g>
              </g>
            </g>
          </g>
          <g id="Graphic_42">
            <path d="M 406.6695 678.8674 L 375.2714 678.8674 C 374.48347 678.8674 373.8411 679.5097 373.8411 680.2977 L 373.8411 711.7044 C 373.8411 712.4838 374.48347 713.1261 375.2714 713.1261 L 406.6781 713.1261 C 407.46605 713.1261 408.1084 712.4838 408.10837 711.6958 L 408.10837 680.2977 C 408.09984 679.5097 407.4575 678.8674 406.6695 678.8674 Z M 406.83224 711.6958 C 406.83226 711.78145 406.76375 711.8585 406.6695 711.85855 L 375.2714 711.85855 C 375.1858 711.8585 375.1087 711.79 375.1087 711.6958 L 375.1087 680.2977 C 375.1087 680.212 375.1772 680.135 375.2714 680.135 L 406.6781 680.135 C 406.76375 680.135 406.84083 680.2035 406.8408 680.2977 L 406.8408 711.6958 Z" fill="#2b5967"/>
          </g>
        </g>
        <g id="Group_28">
          <title>Group_22</title>
          <g id="Group_29">
            <title>Group_23</title>
            <g id="Group_30">
              <title>Group_24</title>
              <g id="Group_31">
                <title>Graphic_25</title>
                <g id="Graphic_32">
                  <circle cx="400.16894" cy="705.35795" r="0.950689496867807" fill="#2b5967"/>
                </g>
              </g>
            </g>
          </g>
        </g>
        <g id="Group_23">
          <title>Group_18</title>
          <g id="Group_24">
            <title>Group_19</title>
            <g id="Group_25">
              <title>Group_20</title>
              <g id="Group_26">
                <title>Graphic_21</title>
                <g id="Graphic_27">
                  <path d="M 377.64384 690.2841 L 404.2886 690.2841 L 404.2886 682.6701 L 377.64384 682.6701 Z M 378.91997 683.9462 L 403.02953 683.9462 L 403.02953 689.0251 L 378.91997 689.0251 Z" fill="#2b5967"/>
                </g>
              </g>
            </g>
          </g>
        </g>
        <g id="Group_18">
          <title>Group_14</title>
          <g id="Group_19">
            <title>Group_15</title>
            <g id="Group_20">
              <title>Group_16</title>
              <g id="Group_21">
                <title>Graphic_17</title>
                <g id="Graphic_22">
                  <circle cx="400.16894" cy="686.4814" r="0.950689496867696" fill="#2b5967"/>
                </g>
              </g>
            </g>
          </g>
        </g>
        <g id="Group_13">
          <title>Group_10</title>
          <g id="Group_14">
            <title>Group_11</title>
            <g id="Group_15">
              <title>Group_12</title>
              <g id="Group_16">
                <title>Graphic_13</title>
                <g id="Graphic_17">
                  <path d="M 377.64384 699.7995 L 404.2886 699.7995 L 404.2886 692.1855 L 377.64384 692.1855 Z M 378.91997 693.4616 L 403.02953 693.4616 L 403.02953 698.5405 L 378.91997 698.5405 Z" fill="#2b5967"/>
                </g>
              </g>
            </g>
          </g>
        </g>
        <g id="Group_8">
          <title>Group_6</title>
          <g id="Group_9">
            <title>Group_7</title>
            <g id="Group_10">
              <title>Group_8</title>
              <g id="Group_11">
                <title>Graphic_9</title>
                <g id="Graphic_12">
                  <circle cx="400.16894" cy="695.99675" r="0.950689496867825" fill="#2b5967"/>
                </g>
              </g>
            </g>
          </g>
        </g>
      </g>
    </g>
  </g>
</svg>
