<?xml version="1.0" encoding="UTF-8" standalone="no"?>
<!DOCTYPE svg PUBLIC "-//W3C//DTD SVG 1.1//EN" "http://www.w3.org/Graphics/SVG/1.1/DTD/svg11.dtd">
<svg version="1.1" xmlns="http://www.w3.org/2000/svg" xmlns:xl="http://www.w3.org/1999/xlink" xmlns:dc="http://purl.org/dc/elements/1.1/" viewBox="673.74195 322.85396 31.52333 35.20282" width="100%" height="100%">
  <defs/>
  <g id="Canvas_1" stroke-opacity="1" stroke="none" stroke-dasharray="none" fill-opacity="1" fill="none">
    <title>Canvas 1</title>
    <g id="Canvas_1_Layer_1">
      <title>Layer 1</title>
      <g id="Group_19">
        <title>Database</title>
        <g id="Graphic_22">
          <path d="M 689.4994 357.6377 C 687.932 357.6377 674.161 357.512 674.161 353.02783 L 674.161 328.01704 C 674.161 323.40713 687.932 323.27302 689.4994 323.27304 C 691.0668 323.27302 704.8462 323.40713 704.8462 328.01704 L 704.8462 353.02783 C 704.8462 357.512 691.07515 357.6377 689.4994 357.6377 L 689.4994 357.6377 Z" fill="white"/>
        </g>
        <g id="Graphic_21">
          <path d="M 689.4994 323.69212 C 694.696 323.6921 704.4271 324.59732 704.4271 328.017 L 704.4271 353.0278 C 704.4271 356.38046 694.6625 357.2186 689.4994 357.21863 C 684.3363 357.2186 674.5801 356.38046 674.5801 353.0278 L 674.5801 328.017 C 674.5801 324.59732 684.3447 323.6921 689.4994 323.69212 Z M 689.4994 322.85396 C 686.8676 322.85395 673.74195 323.1054 673.74195 328.017 L 673.74195 353.0278 C 673.74195 357.8305 686.8676 358.0568 689.4994 358.0568 C 692.13124 358.0568 705.26526 357.8137 705.2653 353.0278 L 705.2653 328.017 C 705.26526 323.1054 692.1815 322.85395 689.4994 322.85396 L 689.4994 322.85396 Z" fill="white"/>
        </g>
        <g id="Graphic_20">
          <path d="M 704.42706 328.017 C 704.4271 324.59732 694.696 323.6921 689.4994 323.6921 C 684.3028 323.6921 674.5801 324.59732 674.5801 328.017 L 674.5801 353.0278 C 674.5801 356.38046 684.3447 357.21862 689.4994 357.21862 C 694.6541 357.21862 704.4271 356.38046 704.42706 353.0278 L 704.42706 328.017 Z M 702.75076 344.78026 C 702.7508 344.93116 702.1221 345.6855 699.2472 346.3812 L 699.2472 346.3812 C 696.0439 347.06344 692.7742 347.38395 689.4994 347.3367 L 689.4994 347.3367 C 686.21274 347.3812 682.9316 347.05506 679.718 346.3644 C 676.84315 345.66874 676.2564 344.9144 676.2564 344.7635 L 676.2564 338.61137 C 679.25706 340.24582 685.6858 340.74034 689.54135 340.74034 C 693.3969 340.74034 699.83395 340.24582 702.8346 338.61137 L 702.75076 344.78026 Z M 702.75076 336.5495 C 702.7508 336.7004 702.1221 337.46312 699.2472 338.15043 L 699.2472 338.15043 C 696.0439 338.8327 692.7742 339.1532 689.4994 339.10594 L 689.4994 339.10594 C 686.21274 339.15045 682.9316 338.8243 679.718 338.13365 C 676.84315 337.44636 676.2564 336.68363 676.2564 336.53273 L 676.2564 330.14597 C 679.25706 331.8223 685.6858 332.33356 689.54135 332.33355 C 693.3969 332.33356 699.83395 331.83067 702.8346 330.14597 L 702.75076 336.5495 Z M 679.72645 326.33235 L 679.72645 326.33235 C 682.9359 325.63475 686.2154 325.31128 689.4994 325.3684 L 689.4994 325.3684 C 692.78775 325.32462 696.0701 325.66216 699.2808 326.37425 C 702.2395 327.04476 702.7927 327.88292 702.79266 328.017 C 702.7927 328.15113 702.1976 328.97253 699.2808 329.6934 L 699.2808 329.6934 C 696.0701 330.40514 692.7877 330.74264 689.4994 330.69915 L 689.4994 330.69915 C 686.21415 330.74492 682.9347 330.41022 679.72645 329.70173 C 676.8096 328.97253 676.2564 328.18466 676.2564 328.017 C 676.2564 327.8494 676.8515 327.05314 679.76836 326.3407 M 699.2891 354.61193 L 699.2891 354.61193 C 696.0728 355.30298 692.7888 355.62913 689.4994 355.58422 L 689.4994 355.58422 C 686.21274 355.62873 682.9316 355.30258 679.718 354.61193 C 676.84315 353.92464 676.2564 353.1619 676.2564 353.0278 L 676.2564 346.8422 C 679.25706 348.4766 685.6858 348.9711 689.54135 348.9711 C 693.3969 348.9711 699.83395 348.4766 702.8346 346.8422 L 702.8346 353.0278 C 702.8346 353.17868 702.20596 353.9414 699.33105 354.6287" fill="#2c5967"/>
        </g>
      </g>
    </g>
  </g>
</svg>
