<?xml version="1.0" encoding="UTF-8" standalone="no"?>
<!DOCTYPE svg PUBLIC "-//W3C//DTD SVG 1.1//EN" "http://www.w3.org/Graphics/SVG/1.1/DTD/svg11.dtd">
<svg version="1.1" xmlns="http://www.w3.org/2000/svg" xmlns:xl="http://www.w3.org/1999/xlink" xmlns:dc="http://purl.org/dc/elements/1.1/" viewBox="949 366 25 36" width="100%" height="100%">
  <defs/>
  <g id="Canvas_9" stroke-opacity="1" stroke="none" stroke-dasharray="none" fill-opacity="1" fill="none">
    <title>Canvas 9</title>
    <g id="Canvas_9_Layer_1">
      <title>Layer 1</title>
      <g id="Group_23">
        <g id="Graphic_25">
          <path d="M 960.5379 401.25423 C 953.8082 397.88083 949.7601 392.6371 949.427 386.8468 L 949.427 376.05185 L 953.9107 374.1303 C 953.8936 373.94244 953.885 373.746 953.885 373.55813 C 953.885 369.6296 957.0876 366.427 961.0162 366.42697 C 964.9447 366.427 968.1473 369.6296 968.1473 373.55813 C 968.1473 373.746 968.1388 373.94244 968.1217 374.1303 L 972.6053 376.05185 L 972.6053 386.8297 C 972.2723 392.6371 968.2242 397.88937 961.4944 401.2628 L 961.0247 401.5019 L 960.5379 401.25423 L 960.5379 401.25423 Z" fill="white"/>
        </g>
        <g id="Graphic_24">
          <path d="M 961.0162 366.854 C 964.7141 366.854 967.7203 369.8602 967.7203 373.55813 C 967.7203 373.83996 967.7032 374.1218 967.669 374.39505 L 972.1783 376.32516 L 972.1783 386.82117 C 971.8623 392.4492 967.8911 397.5734 961.298 400.86996 L 961.0077 401.0151 L 960.7258 400.86996 C 954.1412 397.5734 950.1786 392.4492 949.854 386.82117 L 949.854 386.78705 L 949.854 376.33373 L 954.3633 374.4036 C 954.3291 374.1218 954.312 373.83996 954.3121 373.55813 C 954.312 369.8602 957.3182 366.854 961.0162 366.854 Z M 961.0162 366 C 956.8485 366 953.458 369.39047 953.458 373.55813 C 953.458 373.65207 953.458 373.75455 953.4666 373.857 L 949.521 375.548 L 949 375.77004 L 949 376.33373 L 949 386.78705 L 949 386.79554 L 949 386.8468 C 949.3416 392.81645 953.4751 398.19683 960.35 401.63856 L 960.6319 401.7837 L 961.0162 401.97163 L 961.4005 401.7837 L 961.6823 401.63856 C 968.5572 398.19683 972.6907 392.81645 973.0324 386.87244 L 973.0324 386.8468 L 973.0324 386.82117 L 973.0324 376.32516 L 973.0324 375.76154 L 972.5114 375.5395 L 968.5658 373.857 C 968.5658 373.75455 968.5743 373.6606 968.5744 373.55813 C 968.5743 369.39047 965.1838 366 961.0162 366 L 961.0162 366 L 961.0162 366 Z" fill="white"/>
        </g>
      </g>
      <g id="Group_20">
        <g id="Graphic_22">
          <path d="M 967.6605 374.39506 C 967.6947 374.11325 967.7118 373.83996 967.7118 373.55814 C 967.7118 369.8602 964.7056 366.854 961.0076 366.854 C 957.3097 366.854 954.312 369.8602 954.312 373.55814 C 954.312 373.83996 954.3291 374.1218 954.3633 374.39506 L 949.854 376.33374 L 949.854 386.787 L 949.854 386.8212 C 950.1786 392.4492 954.1413 397.5734 960.7258 400.86997 L 961.0076 401.0151 L 961.2894 400.86997 C 967.8826 397.5734 971.8452 392.4492 972.1698 386.8212 L 972.1698 376.32517 L 967.6605 374.39506 L 967.6605 374.39506 Z M 955.5675 373.55814 C 955.5675 370.5605 958.01 368.11797 961.0076 368.11796 C 964.0053 368.11797 966.4478 370.5605 966.4478 373.55814 C 966.4478 373.6606 966.4478 373.77163 966.4392 373.87414 L 961.0162 371.55114 L 955.5846 373.87414 C 955.576 373.77163 955.5675 373.6606 955.5675 373.55814 L 955.5675 373.55814 Z M 970.9058 386.7699 C 970.6069 391.8514 967.0115 396.5144 961.0076 399.606 C 955.0124 396.5144 951.4169 391.8514 951.118 386.7699 L 951.118 377.1621 L 961.0162 372.9176 L 970.9144 377.1621 L 970.9144 386.7699 L 970.9058 386.7699 Z" fill="#2c5967"/>
        </g>
        <g id="Graphic_21">
          <path d="M 958.7445 383.59295 C 958.7445 384.48113 959.2654 385.2412 960.017 385.5914 L 960.3244 385.77074 L 959.7351 390.1348 L 962.1691 390.1348 L 961.5798 385.7451 L 961.6908 385.6768 C 962.562 385.37786 963.1854 384.558 963.1854 383.5844 C 963.1854 382.3546 962.1947 381.36393 960.9649 381.3639 C 959.7351 381.36393 958.7445 382.36314 958.7445 383.59295 L 958.7445 383.59295 Z" fill="#2c5967"/>
        </g>
      </g>
    </g>
  </g>
</svg>
