<?xml version="1.0" encoding="UTF-8" standalone="no"?>
<!DOCTYPE svg PUBLIC "-//W3C//DTD SVG 1.1//EN" "http://www.w3.org/Graphics/SVG/1.1/DTD/svg11.dtd">
<svg version="1.1" xmlns="http://www.w3.org/2000/svg" xmlns:xl="http://www.w3.org/1999/xlink" xmlns:dc="http://purl.org/dc/elements/1.1/" viewBox="405.2639 449.4895 38.31399 35.97163" width="100%" height="100%">
  <defs/>
  <g id="Canvas_1" stroke-opacity="1" stroke="none" stroke-dasharray="none" fill-opacity="1" fill="none">
    <title>Canvas 1</title>
    <g id="Canvas_1_Layer_1">
      <title>Layer 1</title>
      <g id="Group_5">
        <title>MySQL-HeatWave</title>
        <g id="Graphic_12">
          <path d="M 424.64553 485.0504 L 422.96894 484.2121 L 422.96894 483.19775 L 419.03723 483.19775 C 418.1151 483.19773 413.40385 483.04684 411.16554 480.1044 L 411.16554 480.1044 C 409.91445 478.644 409.1703 476.81745 409.04464 474.8985 L 408.94406 471.5453 L 410.99793 474.1524 L 410.99793 474.1524 C 411.53304 474.7829 412.1922 475.29656 412.93437 475.66136 L 413.1524 475.7536 L 413.1524 475.7536 C 413.01526 475.3183 412.75634 474.9314 412.40625 474.6386 C 410.29373 472.8195 408.00516 470.4471 407.25904 466.41484 L 407.25904 466.41484 C 406.8118 463.8758 406.99023 461.266 407.7788 458.8114 L 408.2818 457.41145 L 409.4554 458.30843 L 409.4554 458.30843 C 410.25733 458.93926 411.2117 459.347 412.22186 459.49045 L 412.356 459.49045 C 412.7416 459.4905 413.035 459.54077 413.29487 459.5408 L 413.29487 459.5408 C 413.79204 459.5348 414.28696 459.4729 414.7703 459.3563 C 415.1056 459.2893 415.4577 459.21384 415.902 459.15515 L 416.581 459.07134 L 415.4996 458.46776 L 415.4996 458.46776 C 414.7668 458.6635 414.01145 458.76214 413.25297 458.76116 L 413.25297 458.76116 C 411.86987 458.7879 410.51007 458.4027 409.34646 457.6546 L 409.34646 457.6546 C 407.61946 456.4575 406.4495 454.61337 406.1022 452.54094 L 405.79204 450.3278 L 407.7788 451.4595 L 407.7788 451.4595 C 408.7553 452.05766 409.78866 452.5575 410.8638 452.9517 L 410.8638 452.9517 C 412.34047 453.32404 413.7061 454.04566 414.84575 455.05583 L 414.84575 455.05583 C 415.525 455.79397 416.1184 456.60674 416.6146 457.47856 L 416.96666 457.68815 L 417.8385 456.3971 L 417.8385 456.3971 C 419.21635 454.7346 421.2541 453.76016 423.4132 453.7313 L 423.5054 453.7313 L 423.5054 453.7313 C 425.6137 453.8082 427.6415 454.56053 429.28974 455.87735 L 429.28974 455.87735 C 429.87955 456.39646 430.3982 456.9912 430.8322 457.6462 L 430.8322 457.6462 C 430.9542 457.087 430.9105 456.50434 430.7065 455.9696 L 429.51604 453.37924 L 432.13994 454.51936 L 432.13994 454.51936 C 433.7747 455.25563 435.28275 456.24587 436.6081 457.45336 C 440.9757 461.5108 443.0966 465.97057 443.0966 471.08425 L 443.0966 471.08425 C 443.29913 473.9229 442.5659 476.7497 441.0092 479.132 L 441.0092 479.132 C 439.76703 481.02055 437.8301 482.34295 435.6189 482.8121 L 434.0261 483.07196 L 431.2514 483.1642 L 431.2514 484.2121 L 429.5747 485.0504 L 424.64553 485.0504 Z M 419.84205 459.3815 L 419.84205 459.3815 C 420.2154 459.4925 420.57746 459.63846 420.9234 459.8174 L 420.9234 459.8174 C 420.8797 459.636 420.80606 459.4632 420.70547 459.30606 L 420.70547 459.30606 C 420.23757 458.62985 419.49534 458.1943 418.6768 458.1157 L 417.5618 458.0318 L 419.84205 459.3815 Z" fill="white"/>
        </g>
        <g id="Graphic_11">
          <path d="M 406.32015 451.099 L 407.5273 451.82 L 407.5273 451.82 C 408.5497 452.4315 409.6275 452.9451 410.7464 453.35406 L 410.7464 453.35406 C 412.15526 453.7126 413.45937 454.39913 414.55234 455.35767 L 414.55234 455.35767 C 415.22716 456.09355 415.81245 456.90676 416.29597 457.7803 L 419.6492 459.7671 L 419.6492 459.7671 C 420.28396 459.94616 420.88453 460.22945 421.4264 460.6054 L 421.4264 460.6054 C 421.4372 460.0661 421.3041 459.5337 421.04084 459.06294 L 421.04084 459.06294 L 421.04084 459.06294 C 420.49705 458.2766 419.6296 457.7752 418.6768 457.6965 L 417.4864 457.6127 L 418.16545 456.6403 L 418.16545 456.6403 C 419.46377 455.07155 421.38546 454.15206 423.4216 454.1253 L 423.48027 454.1253 L 423.48027 454.1253 C 425.5032 454.208 427.44714 454.9333 429.0298 456.19597 L 429.0298 456.19597 C 429.8273 456.90135 430.4794 457.7556 430.94955 458.71086 L 431.07533 458.3923 L 431.07533 458.3923 C 431.39656 457.5703 431.39656 456.6575 431.07533 455.83546 L 430.3292 454.2343 L 431.9472 454.9217 L 431.9472 454.9217 C 433.541 455.6429 435.00967 456.61355 436.29793 457.7971 C 440.5733 461.77067 442.6523 466.12985 442.6523 471.1262 L 442.6523 471.1262 C 442.8456 473.8823 442.1396 476.6268 440.6404 478.94754 L 440.6404 478.94753 C 439.4605 480.7386 437.6239 481.9941 435.52673 482.4433 L 433.93395 482.6948 L 430.82384 482.79535 L 430.82384 483.99415 L 429.46577 484.6731 L 424.7461 484.6731 L 423.38804 483.99415 L 423.38804 482.8205 L 419.0372 482.8205 C 418.19895 482.8205 413.6218 482.68637 411.4925 479.89484 L 411.4925 479.89484 C 410.28346 478.49485 409.56777 476.7365 409.45546 474.8901 L 409.3968 472.84467 L 410.6626 474.4542 L 410.6626 474.4542 C 411.25445 475.14246 411.986 475.69683 412.80865 476.0805 C 413.19427 476.25657 413.50444 476.3823 413.74753 476.4661 L 413.74753 476.4661 C 413.69707 475.6364 413.3276 474.8584 412.7164 474.29497 L 412.7164 474.29496 C 410.11885 472.3516 408.32825 469.5194 407.68664 466.3394 L 407.68664 466.3394 C 407.2449 463.87526 407.40886 461.34067 408.16443 458.954 L 408.4746 458.1156 L 409.2123 458.66895 L 409.2123 458.66895 C 410.0892 459.33954 411.12715 459.76745 412.22185 459.90966 L 412.356 459.90966 C 412.7248 459.90963 413.0266 459.95993 413.29486 459.9599 L 413.29486 459.9599 C 413.8231 459.95623 414.34914 459.89153 414.8625 459.7671 C 415.17267 459.70005 415.52476 459.633 415.9691 459.5659 L 415.9691 459.5659 C 416.4436 459.4946 416.9227 459.45816 417.40253 459.4569 C 417.6708 459.45695 417.9307 459.45695 418.1738 459.4569 L 415.5499 457.9899 L 415.5499 457.9899 C 414.8027 458.20204 414.02967 458.30925 413.25296 458.30845 L 413.25296 458.30845 C 411.95677 458.34123 410.67966 457.99136 409.58117 457.30254 L 409.58117 457.30254 C 407.95226 456.1771 406.8461 454.4423 406.51297 452.4906 L 406.32015 451.099 Z M 405.2639 449.4895 L 405.4903 451.208 L 405.67467 452.59964 L 405.67467 452.59964 C 405.9705 454.2721 406.762 455.81706 407.9465 457.03426 L 407.66986 457.7971 L 407.3597 458.71086 L 407.3597 458.71086 C 406.5538 461.23723 406.3782 463.9224 406.84827 466.5322 L 406.84827 466.5322 C 407.12963 468.0905 407.6982 469.58287 408.52493 470.93336 L 408.5836 472.9117 L 408.6171 474.9153 L 408.6171 474.9153 C 408.7475 476.93345 409.5301 478.8546 410.847 480.3894 C 413.21104 483.4744 418.0732 483.62527 419.02887 483.6253 L 422.5414 483.6253 L 422.5414 484.4636 L 423.01083 484.6983 L 424.3689 485.3689 L 424.54493 485.46115 L 429.67537 485.46115 L 429.8514 485.3689 L 431.25137 484.6983 L 431.7208 484.4636 L 431.7208 483.5666 L 434.01776 483.49116 L 434.12677 483.49116 L 435.71955 483.23124 L 435.71955 483.23124 C 438.05416 482.759 440.1 481.3659 441.3948 479.3667 L 441.3948 479.3667 C 442.9834 476.91184 443.73885 474.0105 443.54926 471.0926 C 443.5493 465.8532 441.38645 461.29283 436.9267 457.1516 L 436.9267 457.1516 C 435.5689 455.89916 434.01756 454.8744 432.33274 454.11697 L 430.71483 453.4295 L 428.7113 452.5912 L 429.5747 454.5193 L 430.32085 456.1205 L 430.32085 456.1205 C 430.35644 456.1979 430.3818 456.2796 430.3963 456.3636 L 430.3963 456.3636 C 430.1323 456.06913 429.85245 455.7893 429.558 455.5253 L 429.558 455.5253 C 427.83145 454.1437 425.7068 453.3532 423.49705 453.27025 L 423.39646 453.27025 L 423.39646 453.27025 C 421.09724 453.3214 418.94023 454.3938 417.51154 456.19597 L 416.8744 457.1265 L 416.8744 457.1265 C 416.38093 456.29246 415.79916 455.51393 415.13914 454.80435 L 415.13914 454.80435 C 413.93774 453.74215 412.50107 452.98073 410.9476 452.58286 L 410.9476 452.58286 C 409.9031 452.18906 408.90056 451.692 407.95484 451.099 L 406.7561 450.3781 L 405.2639 449.4895 L 405.2639 449.4895 Z" fill="white"/>
        </g>
        <g id="Graphic_10">
          <path d="M 409.5812 457.30254 L 409.5812 457.30254 C 410.676 458.00314 411.9534 458.36476 413.253 458.342 L 413.253 458.342 C 414.0297 458.3427 414.80272 458.2355 415.54993 458.0235 L 416.296 457.78033 L 415.95227 457.0762 L 415.95227 457.0762 C 415.577 456.4346 415.10475 455.85487 414.5523 455.3576 L 414.5523 455.3576 C 413.45934 454.3991 412.15525 453.7126 410.74645 453.35406 L 410.74645 453.35406 C 409.62753 452.94514 408.5497 452.4315 407.52733 451.82 L 406.3202 451.099 L 406.513 452.49063 L 406.513 452.49063 C 406.85056 454.4406 407.9557 456.1738 409.5812 457.30254 L 409.5812 457.30254 Z M 410.3776 454.65344 L 410.3776 454.65344 C 411.5677 454.9576 412.67195 455.5313 413.60507 456.3301 C 413.7308 456.4558 413.95714 456.68216 414.18344 456.9337 L 414.18344 456.9337 C 412.8404 457.1596 411.4608 456.89796 410.2937 456.196 L 410.2937 456.196 C 409.43017 455.59413 408.751 454.764 408.3321 453.7984 L 408.3321 453.7984 C 408.9886 454.1406 409.67286 454.4266 410.3776 454.65344 L 410.3776 454.65344 Z" fill="#2c5967"/>
        </g>
        <g id="Graphic_9">
          <path d="M 421.0492 469.1645 L 421.0492 469.1645 C 417.6023 472.48 417.49584 477.962 420.81135 481.40883 C 421.04977 481.6567 421.30275 481.89014 421.56894 482.1079 L 421.76176 482.25883 L 432.28247 482.25883 L 432.46686 482.1079 L 432.46686 482.1079 C 435.9946 479.2546 436.70245 474.15314 434.08485 470.4471 L 433.2046 471.5621 L 433.2046 471.5621 C 433.82253 472.543 434.1936 473.65904 434.286 474.8147 L 432.3663 474.8147 L 432.3663 476.17275 L 434.26924 476.17275 L 434.26924 476.17275 C 434.119 477.6197 433.5345 478.98736 432.59265 480.096 L 431.3268 478.8302 L 430.84895 479.308 L 430.37116 479.78585 L 431.50286 480.91754 L 422.49105 480.91754 L 423.63117 479.78585 L 423.14495 479.308 L 422.6671 478.8302 L 421.4264 480.07925 L 421.4264 480.07925 C 420.48736 478.9786 419.90294 477.6198 419.7498 476.1811 L 421.52704 476.1811 L 421.52704 474.80634 L 419.775 474.80634 L 419.775 474.80634 C 419.89015 473.3337 420.45493 471.93195 421.3929 470.7908 L 422.6671 472.0734 L 423.14495 471.5872 L 423.63117 471.10935 L 422.34014 469.8268 L 422.34014 469.8268 C 423.45195 468.88474 424.82233 468.30034 426.27184 468.15015 L 426.27184 470.0699 L 427.6299 470.0699 L 427.6299 468.1418 L 427.6299 468.1418 C 428.7888 468.2371 429.9075 468.61096 430.89086 469.2316 L 432.00585 468.3514 L 432.00585 468.3514 C 428.62696 465.9607 424.02504 466.31277 421.0492 469.1897 L 421.0492 469.1645 Z" fill="#2c5967"/>
        </g>
        <g id="Graphic_8">
          <path d="M 436.3231 457.75516 L 436.3231 457.75516 C 435.0322 456.57496 433.56405 455.6047 431.97227 454.87984 L 430.35435 454.1924 L 431.1005 455.7936 L 431.1005 455.7936 C 431.4217 456.6156 431.4217 457.5284 431.1005 458.3504 L 430.9747 458.6689 L 430.9747 458.6689 C 430.5045 457.7137 429.8524 456.85945 429.05497 456.154 L 429.05497 456.154 C 427.47963 454.907 425.5469 454.19617 423.539 454.12535 L 423.4551 454.12535 L 423.4551 454.12535 C 421.41896 454.15203 419.49726 455.0715 418.19895 456.64024 L 417.5199 457.61267 L 418.6768 457.7049 L 418.6768 457.7049 C 419.61454 457.7761 420.4704 458.2656 421.00724 459.03777 L 421.00724 459.03777 L 421.00724 459.03777 C 421.2706 459.50853 421.4037 460.041 421.39287 460.5803 L 421.39287 460.5803 C 419.79027 459.5382 417.84224 459.16787 415.96904 459.5492 C 415.52476 459.6162 415.17267 459.6833 414.86247 459.75035 L 414.86247 459.75035 C 414.0397 459.94956 413.1876 459.99784 412.3476 459.89284 L 412.2638 459.89284 L 412.2638 459.89284 C 411.1418 459.76015 410.07766 459.32233 409.18715 458.627 L 408.44943 458.07376 L 408.13933 458.91206 L 408.13933 458.91206 C 407.3837 461.29874 407.2197 463.83337 407.66147 466.2975 L 407.66147 466.2975 C 408.3031 469.4775 410.09373 472.3097 412.6913 474.253 L 412.6913 474.253 C 413.3024 474.8165 413.6719 475.59454 413.72243 476.42426 C 413.4793 476.3404 413.1691 476.21466 412.78347 476.0386 L 412.78347 476.0386 C 411.9789 475.6489 411.265 475.0949 410.68777 474.4123 L 409.40516 472.8447 L 409.4554 474.89015 L 409.4554 474.89015 C 409.57505 476.7248 410.2903 478.47027 411.4925 479.8613 C 413.6134 482.65284 418.19895 482.78696 419.03725 482.78696 L 419.1714 482.78696 L 420.6636 482.78696 L 419.64925 481.6804 L 419.64925 481.6804 C 417.35566 478.98344 416.66625 475.2716 417.83845 471.93095 L 417.83845 471.93095 C 419.18764 468.13216 422.8112 465.6186 426.8419 465.6855 L 426.8419 465.6855 C 429.0357 465.63766 431.1859 466.30244 432.9699 467.58014 L 434.0429 466.74184 L 434.0429 466.74184 C 431.99004 465.1437 429.45143 464.2975 426.85026 464.34424 L 426.85026 464.34424 C 423.72945 464.2737 420.73727 465.58723 418.6768 467.9322 L 418.6768 467.9322 C 415.3497 471.66754 414.9572 477.17576 417.7211 481.3451 C 416.187 481.1774 413.7727 480.6493 412.5404 479.0146 L 412.5404 478.96427 L 412.5404 478.96426 C 411.96857 478.3236 411.5272 477.57755 411.241 476.7679 L 411.241 476.7679 C 411.55063 476.9791 411.87896 477.1615 412.22187 477.3128 L 412.22187 477.3128 C 412.8837 477.64903 413.589 477.8917 414.3176 478.0338 L 414.96313 478.10085 L 415.0553 477.45537 L 415.0553 477.45537 C 415.25263 475.9004 414.69867 474.3443 413.56316 473.2638 L 413.56316 473.2638 C 411.22137 471.50565 409.60017 468.9547 409.00275 466.08794 L 409.00275 466.08794 C 408.6633 464.1398 408.72606 462.1428 409.18715 460.2198 L 409.18715 460.2198 C 410.1014 460.80434 411.1477 461.1502 412.23023 461.2258 L 412.23023 461.2258 L 412.23023 461.2258 C 413.19373 461.34395 414.17066 461.28715 415.11397 461.0581 C 415.4158 460.9994 415.73433 460.93236 416.13673 460.8737 C 420.0013 460.312 421.32583 462.32395 421.3761 462.4078 L 422.21447 463.791 L 422.60845 462.215 C 422.60843 462.12275 423.1701 459.90963 422.18927 458.342 L 422.18927 458.342 C 421.70985 457.5471 420.9598 456.9518 420.0768 456.66537 L 420.0768 456.66537 C 421.07324 455.9604 422.2523 455.5587 423.47187 455.50855 L 423.47187 455.50855 C 425.14784 455.57657 426.76155 456.1623 428.09096 457.18514 L 428.09096 457.18514 C 429.1132 457.9865 429.82454 459.11875 430.10286 460.3875 L 430.2621 461.9216 L 431.25133 460.7312 L 431.25133 460.7312 C 431.71036 460.16243 432.0677 459.51865 432.30764 458.82825 L 432.30764 458.82825 C 432.55987 458.16823 432.674 457.4635 432.64295 456.7576 L 432.64295 456.7576 C 433.6489 457.3143 434.58826 457.9837 435.4429 458.7528 C 439.3913 462.4581 441.311 466.4903 441.31103 471.0842 L 441.31103 471.0842 C 441.50516 473.5782 440.8749 476.06693 439.51707 478.1679 L 439.51707 478.1679 C 438.85684 479.16844 437.9426 479.9756 436.868 480.5068 L 436.868 480.5068 C 438.2229 477.71706 438.4423 474.5104 437.48 471.5621 L 437.48 471.5621 C 437.0652 470.41044 436.4649 469.3344 435.70273 468.3765 L 434.86443 469.4579 L 434.86443 469.4579 C 435.439 470.244 435.8991 471.1077 436.23085 472.0231 C 437.96617 476.80985 434.9399 481.2445 434.91476 481.3283 L 433.9758 482.6445 L 435.5686 482.393 L 435.5686 482.393 C 437.6658 481.94385 439.5024 480.6883 440.68225 478.89724 L 440.68225 478.89723 C 442.18156 476.5765 442.88755 473.832 442.6942 471.0759 C 442.67744 466.08793 440.59845 461.72875 436.3231 457.75516 L 436.3231 457.75516 Z" fill="#2c5967"/>
        </g>
        <g id="Graphic_7">
          <path d="M 425.576 477.09486 L 425.576 477.09486 C 425.95817 477.42366 426.44676 477.6024 426.95086 477.59785 L 426.95086 477.59785 C 427.30825 477.5992 427.66013 477.50976 427.97355 477.338 L 427.97355 477.338 C 428.74585 476.9149 429.17124 476.05407 429.0382 475.18355 L 435.74465 466.67474 L 427.2694 473.3812 L 427.2694 473.3812 L 427.2694 473.3812 C 426.5439 473.2658 425.8106 473.5357 425.33295 474.09376 L 425.33295 474.09375 C 425.2527 474.1837 425.18243 474.2821 425.12336 474.38715 L 425.12336 474.38715 C 424.5873 475.2781 424.7793 476.4267 425.576 477.09486 L 425.576 477.09486 Z M 426.3724 474.99073 L 426.3724 474.99073 C 426.51613 474.82025 426.7279 474.72204 426.95086 474.72246 L 426.95086 474.72246 C 427.13284 474.7208 427.309 474.7865 427.44543 474.9069 L 427.44543 474.9069 C 427.7663 475.18 427.80504 475.66144 427.532 475.9823 C 427.25894 476.30316 426.7775 476.3419 426.4566 476.06886 C 426.13576 475.7958 426.097 475.31435 426.37006 474.9935 C 426.37084 474.99257 426.3716 474.99165 426.3724 474.99073 L 426.3724 474.99073 Z" fill="#2c5967"/>
        </g>
        <g id="Graphic_6">
          <path d="M 424.7461 483.2732 L 423.38805 483.2732 L 423.38805 483.9522 L 424.7461 484.63123 L 429.4909 484.63123 L 430.849 483.9522 L 430.849 483.2732 L 429.4909 483.2732 L 424.7461 483.2732 Z" fill="#2c5967"/>
        </g>
      </g>
    </g>
  </g>
</svg>
