<?xml version="1.0" encoding="UTF-8" standalone="no"?>
<!DOCTYPE svg PUBLIC "-//W3C//DTD SVG 1.1//EN" "http://www.w3.org/Graphics/SVG/1.1/DTD/svg11.dtd">
<svg version="1.1" xmlns="http://www.w3.org/2000/svg" xmlns:xl="http://www.w3.org/1999/xlink" xmlns:dc="http://purl.org/dc/elements/1.1/" viewBox="491.4131 391.2425 36.03146 40.76222" width="100%" height="100%">
  <defs/>
  <g id="Canvas_1" stroke-opacity="1" stroke="none" stroke-dasharray="none" fill-opacity="1" fill="none">
    <title>Canvas 1</title>
    <g id="Canvas_1_Layer_1">
      <title>Layer 1</title>
      <g id="Group_3">
        <title>MySQL Database Service MDS</title>
        <g id="Group_4">
          <g id="Group_14">
            <g id="Graphic_16">
              <path d="M 518.10996 431.50027 C 511.85303 431.50027 510.1845 429.86085 509.9129 429.53107 L 509.651 429.2109 L 509.651 424.94265 L 498.22356 424.94265 C 496.06034 424.7874 494.43063 424.02105 493.32475 422.663 C 491.52043 420.4609 491.91816 417.6186 491.91816 417.5895 C 492.4323 414.592 494.1396 413.0787 495.488 412.32206 C 496.11855 411.9728 496.7976 411.7206 497.4961 411.5557 C 498.6795 408.5 501.0465 407.81123 501.5121 407.70456 C 502.11356 407.5202 502.7635 407.4232 503.41346 407.4232 C 504.1507 407.4232 504.87825 407.5396 505.55726 407.77245 C 505.3633 407.6075 505.179 407.3941 504.99465 407.1516 C 503.8403 405.5995 503.9567 403.60115 504.2574 402.214 C 504.3253 401.86473 504.4223 401.5155 504.53875 401.17596 C 504.58723 401.05957 504.62603 400.97227 504.67454 400.88493 C 504.69394 400.85586 504.70364 400.83646 504.71335 400.8074 C 504.60663 400.72005 504.5484 400.66184 504.4902 400.5939 C 504.2186 400.2641 503.9858 399.9246 503.7821 399.5754 C 503.49106 399.06123 503.23884 398.5277 503.0351 397.97477 L 502.84113 397.54795 C 502.7829 397.4024 502.7247 397.2472 502.6859 397.09197 C 502.6568 396.9853 502.618 396.8786 502.5792 396.7816 C 502.4337 396.54876 502.23 396.27714 501.99715 396.0443 C 501.89045 395.9279 501.83224 395.8697 501.774 395.7921 C 501.72554 395.7339 501.66733 395.666 501.5994 395.5981 C 501.0174 394.96755 500.057 393.949 500.60993 392.8043 C 500.8137 392.34837 501.2114 391.99915 501.6964 391.84397 C 501.92925 391.76633 502.19117 391.72753 502.4725 391.72754 C 503.61717 391.72753 504.93646 392.34837 505.6155 392.71697 C 505.761 392.8043 505.8871 392.8916 506.01324 392.9886 C 506.10054 393.0565 506.18784 393.11472 506.2848 393.17294 C 507.71085 393.19233 509.14655 393.54155 510.42705 394.16237 C 512.9492 395.4332 515.14156 397.3151 516.781 399.6045 C 517.0332 399.9731 517.2369 400.3611 517.4115 400.75886 C 517.4988 400.94316 517.5861 401.1469 517.69286 401.35063 C 518.2167 402.38856 518.6726 403.2228 519.08973 403.9019 C 519.16734 404.02798 519.22554 404.1444 519.2838 404.2608 C 519.40985 404.5033 519.54566 404.7264 519.72024 404.9301 C 519.9531 405.09505 520.2053 405.20175 520.47696 405.25994 C 520.70974 405.32786 520.88436 405.38607 521.02985 405.44426 C 521.641 405.6965 522.18425 405.9487 522.6984 406.23 C 523.83336 406.80237 524.8616 407.5687 525.7444 408.48057 C 526.0936 408.8298 526.0451 409.15963 525.9869 409.3343 C 525.8414 409.78047 525.33696 409.8581 525.00713 409.91625 L 524.7937 409.95506 C 524.493 410.0133 524.1826 410.0618 523.8722 410.0812 C 523.60054 410.1006 523.3386 410.1394 523.07673 410.1879 L 523.0088 410.2073 C 523.1737 410.2946 523.3289 410.3722 523.455 410.44013 L 523.62 410.52746 C 523.79456 410.61473 523.94976 410.69234 524.0759 410.76996 C 524.7937 411.19677 525.43397 411.7303 525.9966 412.36087 L 526.46225 412.7295 C 526.70476 412.9332 526.76296 413.0399 526.78236 413.0787 C 526.87937 413.2533 526.9085 413.49583 526.91815 413.5734 C 526.9279 413.84505 526.83086 414.2622 526.8212 414.3107 C 526.76296 414.5532 526.55925 415.10614 526.4816 415.31957 L 526.4816 429.38556 L 526.016 429.73476 C 525.9287 429.79295 523.58114 431.50027 518.10996 431.50027 L 518.10996 431.50027 Z M 509.39875 409.43126 C 510.3009 409.43125 511.1352 409.62526 511.8918 410.0036 L 511.8918 409.9842 C 511.2419 409.70287 510.63075 409.20813 510.1263 408.8007 L 510.0487 408.7328 C 509.39876 408.24777 508.8555 407.67542 508.4287 406.99637 C 508.4287 406.9964 508.4287 406.9964 508.4287 406.9867 C 508.322 407.4814 508.0989 407.99555 507.42955 408.21864 C 507.2452 408.28657 507.0512 408.31567 506.85715 408.3157 C 506.8281 408.31567 506.7893 408.31567 506.7602 408.3157 C 507.3228 408.6358 507.83696 409.0432 508.2929 409.51853 C 508.6712 409.46035 509.03984 409.43125 509.39875 409.43126 L 509.39875 409.43126 Z" fill="white"/>
            </g>
            <g id="Graphic_15">
              <path d="M 502.4725 392.21253 C 503.52986 392.21256 504.81035 392.8334 505.3827 393.14385 C 505.4894 393.21173 505.5961 393.27964 505.7028 393.3669 C 505.8386 393.48335 505.9938 393.58036 506.1587 393.65793 C 507.56534 393.66766 508.9428 393.9878 510.2039 394.5989 C 512.6582 395.8309 514.7729 397.65464 516.3735 399.8955 C 516.59666 400.235 516.79067 400.58424 516.95555 400.96255 C 517.0526 401.1663 517.1496 401.3797 517.2563 401.5931 C 517.75103 402.57288 518.2264 403.44594 518.6726 404.17346 C 518.7405 404.2802 518.7987 404.3966 518.85693 404.5033 C 518.9927 404.79433 519.17703 405.06595 519.39045 405.29875 C 519.68147 405.5219 520.021 405.6674 520.37995 405.745 C 520.5545 405.7935 520.71944 405.842 520.8456 405.90024 C 521.447 406.1524 521.9708 406.39494 522.4753 406.66653 C 523.56173 407.2195 524.5609 407.94705 525.4049 408.82977 C 525.5407 408.9656 525.5795 409.082 525.5407 409.17904 C 525.48247 409.36334 525.18174 409.40214 524.91983 409.441 L 524.71615 409.4797 C 524.4251 409.53795 524.1341 409.57676 523.8431 409.59614 C 523.55203 409.61556 523.2707 409.65436 522.9894 409.71256 L 522.8924 409.73193 C 522.56257 409.81927 522.23274 409.8872 521.9029 409.9357 C 522.09693 410.2946 522.7663 410.62443 523.29983 410.8864 C 523.4938 410.98335 523.68784 411.08036 523.83335 411.1677 C 524.5124 411.5751 525.12354 412.07953 525.6474 412.67126 L 525.8996 412.87495 C 525.9966 412.9429 526.1615 413.0884 526.16155 413.08843 C 526.1615 413.0884 526.3361 413.2339 526.37495 413.30184 C 526.4137 413.36 526.44283 413.50553 526.44285 413.58314 C 526.4525 413.73834 526.3943 414.03906 526.3555 414.18456 C 526.2876 414.4465 526.0063 415.22255 526.0063 415.2226 L 526.0063 429.13327 L 525.7444 429.33703 C 525.6474 429.4049 523.4065 431.01523 518.10993 431.0152 C 511.95974 431.01523 510.44643 429.4049 510.29123 429.2206 L 510.136 429.0363 L 510.136 424.4576 L 498.2236 424.4576 C 496.23496 424.31207 494.71195 423.6039 493.69336 422.36224 C 492.0734 420.3736 492.3741 417.7738 492.3935 417.6671 L 492.3935 417.6283 C 492.8785 414.8539 494.46944 413.4473 495.7208 412.7489 C 496.39017 412.38025 497.108 412.11833 497.85496 411.9728 C 498.92204 408.9074 501.2599 408.25746 501.61883 408.17983 C 502.21057 408.00525 502.812 407.91794 503.41343 407.91796 C 505.1887 407.91794 506.9057 408.6746 508.10855 410.0424 C 508.5742 409.9551 509.00103 409.9066 509.3988 409.9066 C 510.65985 409.9066 511.6299 410.314 512.37686 410.8572 L 512.37686 409.63495 C 511.659 409.42155 510.94117 408.8201 510.35913 408.3545 L 510.3203 408.32534 C 509.7286 407.88884 509.22415 407.3456 508.8264 406.7248 C 508.6518 406.41434 508.4772 406.1233 508.2929 405.8129 L 508.17645 405.5995 C 508.1668 405.6286 508.1668 405.6674 508.1571 405.6965 C 508.1474 405.7547 508.1377 405.8226 508.1183 405.8808 C 508.0698 406.0845 508.03097 406.29793 508.0116 406.51137 C 507.93396 407.0546 507.85635 407.5687 507.26464 407.77245 C 507.1288 407.82094 506.9833 407.85004 506.8475 407.85007 C 506.34305 407.85004 505.858 407.5202 505.373 406.87994 C 504.3253 405.47337 504.4417 403.63025 504.7133 402.33033 C 504.78124 402.00054 504.86855 401.6707 504.97526 401.3409 C 505.00436 401.273 505.03346 401.2051 505.07224 401.13715 C 505.14987 401.02077 505.1984 400.88496 505.2372 400.74914 C 505.1984 400.61334 505.11107 400.50664 504.99463 400.42903 C 504.93645 400.38053 504.87825 400.332 504.82003 400.2738 C 504.5775 399.9828 504.3641 399.6724 504.1798 399.34255 C 503.9082 398.8575 503.66567 398.3434 503.4717 397.81953 L 503.27764 397.3442 C 503.21944 397.2181 503.17093 397.0823 503.14185 396.94646 C 503.103 396.8107 503.0642 396.68457 503.006 396.55845 C 502.812 396.23834 502.5889 395.9473 502.3367 395.6854 C 502.2688 395.6078 502.21057 395.5496 502.14263 395.46225 C 502.07476 395.375 501.98745 395.28768 501.8904 395.18095 C 501.3957 394.65713 500.63906 393.8617 501.0465 393.008 C 501.2017 392.6685 501.4927 392.4163 501.84196 392.29987 C 502.04566 392.24167 502.24937 392.21256 502.4725 392.21253 Z M 502.4725 391.2425 C 502.13296 391.2425 501.82254 391.291 501.5412 391.37834 C 500.9398 391.5723 500.43535 392.01855 500.1637 392.61026 C 499.475 394.0363 500.61966 395.25857 501.1726 395.85033 L 501.2405 395.92795 C 501.2987 395.98612 501.3472 396.04433 501.386 396.09283 C 501.4636 396.18014 501.5315 396.25774 501.5994 396.3353 L 501.6091 396.34504 L 501.6382 396.38385 C 501.83224 396.58756 501.99715 396.801 502.15235 397.0338 C 502.18146 397.092 502.20087 397.1599 502.22025 397.2181 C 502.2688 397.3927 502.327 397.57703 502.4046 397.75164 L 502.5889 398.20754 C 502.7926 398.7508 503.0545 399.30375 503.34554 399.83726 C 503.56866 400.2156 503.8112 400.57454 504.0925 400.90437 L 504.1119 400.92374 L 504.12163 400.93346 C 504.1119 400.94316 504.1119 400.96256 504.1022 400.97227 L 504.0925 401.00136 L 504.0828 401.03044 C 503.9664 401.3894 503.8597 401.758 503.7821 402.12664 C 503.49105 403.48474 503.36495 405.38607 504.3156 407.0061 C 504.0246 406.9673 503.7239 406.94788 503.42315 406.9479 C 502.7344 406.94788 502.03596 407.0449 501.37634 407.2486 C 500.804 407.3844 498.4176 408.14106 497.14684 411.15796 C 496.4969 411.3326 495.86633 411.5848 495.2649 411.9146 C 493.8292 412.71977 492.00547 414.3301 491.4525 417.4731 L 491.44286 417.5604 L 491.44286 417.6283 C 491.3943 418.15215 491.21 420.84893 492.9658 422.99275 C 494.159 424.4479 495.91483 425.28214 498.1751 425.4471 L 498.2139 425.4471 L 498.2527 425.4471 L 509.19503 425.4471 L 509.19503 429.0557 L 509.19503 429.4049 L 509.41816 429.6765 L 509.5734 429.86083 C 509.9905 430.3653 511.8336 432.0047 518.1391 432.0047 C 523.66844 432.0047 526.0936 430.3265 526.3458 430.1325 L 526.61745 429.9287 L 527.00546 429.63777 L 527.00546 429.1527 L 527.00546 415.3972 C 527.1122 415.11584 527.2771 414.6502 527.3353 414.4077 C 527.3644 414.2816 527.4614 413.84505 527.442 413.52496 C 527.442 413.48613 527.4129 413.1175 527.24795 412.8265 C 527.2092 412.75858 527.1219 412.61307 526.82114 412.35115 C 526.81146 412.34145 526.62715 412.18623 526.5205 412.10865 L 526.3167 411.9728 C 525.8026 411.4005 525.21085 410.90575 524.5609 410.48865 C 524.6773 410.4692 524.7937 410.4498 524.9101 410.4304 L 525.09443 410.4013 C 525.46307 410.3431 526.2197 410.2267 526.4622 409.48944 C 526.53984 409.27604 526.65625 408.7037 526.08393 408.1411 C 525.18174 407.2001 524.105 406.40464 522.91183 405.8032 C 522.40736 405.5316 521.8447 405.26966 521.2142 405.0077 C 521.04926 404.93984 520.85525 404.88164 520.65153 404.8234 L 520.6127 404.81376 L 520.5739 404.80404 C 520.3896 404.76523 520.2053 404.6876 520.0501 404.5809 C 519.924 404.4257 519.8173 404.2608 519.73 404.0765 C 519.65236 403.92127 519.58446 403.80486 519.5165 403.67875 C 519.0994 402.9997 518.6435 402.17515 518.1294 401.1566 C 518.01295 400.94316 517.92565 400.74915 517.83835 400.5648 C 517.6637 400.1574 517.4406 399.7403 517.1787 399.362 C 515.4811 396.9853 513.2305 395.04516 510.64043 393.74527 C 509.32116 393.10502 507.86606 392.7461 506.41094 392.6976 C 506.38185 392.6782 506.34305 392.6491 506.31395 392.6297 C 506.16844 392.5133 506.0229 392.40658 505.8677 392.31924 C 505.13047 391.90214 503.7239 391.2425 502.4725 391.2425 L 502.4725 391.2425 L 502.4725 391.2425 Z M 507.93395 408.5388 C 508.2056 408.3933 508.4093 408.19926 508.5548 407.98586 C 508.8458 408.33507 509.17565 408.6649 509.5443 408.9559 C 509.50547 408.9559 509.45697 408.9559 509.41816 408.9559 C 509.10774 408.9559 508.7973 408.9753 508.4772 409.0141 C 508.2929 408.8395 508.1183 408.6843 507.93395 408.5388 L 507.93395 408.5388 L 507.93395 408.5388 Z" fill="white"/>
            </g>
          </g>
          <g id="Group_5">
            <g id="Graphic_13"/>
            <g id="Graphic_12"/>
            <g id="Graphic_11"/>
            <g id="Graphic_10"/>
            <g id="Graphic_9">
              <path d="M 498.44674 413.37943 L 498.9608 413.34063 L 499.10633 412.84584 C 499.9018 410.0909 501.85164 409.63495 501.92923 409.61556 L 501.99713 409.5961 C 505.2857 408.6261 507.1385 411.17735 507.2161 411.2841 L 507.50715 411.7012 L 508.00186 411.5751 C 509.8935 411.09005 511.1158 411.6139 511.8918 412.3123 C 512.05675 412.25413 512.23136 412.1862 512.4254 412.128 C 512.7455 412.031 513.085 411.9437 513.4439 411.86614 C 512.5127 410.7117 510.85386 409.49914 508.1183 410.0424 C 506.50796 408.19925 503.9664 407.4717 501.61884 408.1799 C 501.2599 408.26715 498.92204 408.9074 497.855 411.97284 C 497.108 412.1183 496.39017 412.38024 495.7208 412.74886 C 494.46944 413.4473 492.8785 414.8539 492.3935 417.6283 L 492.3935 417.6671 C 492.3741 417.7738 492.0734 420.3833 493.6934 422.36223 C 494.71195 423.6039 496.23496 424.31206 498.2236 424.45757 L 509.09806 424.45757 L 509.09806 422.9928 L 498.30123 422.9928 C 496.7491 422.87636 495.585 422.3525 494.83803 421.4407 C 493.6643 420.01466 493.8292 418.03573 493.8486 417.85143 C 494.57614 413.72863 498.2915 413.3891 498.44674 413.37943 L 498.44674 413.37943 Z" fill="#2c5967"/>
            </g>
            <g id="Graphic_8">
              <path d="M 507.09003 396.151 C 506.993 396.07343 506.8863 396.0152 506.7602 395.98613 C 506.52736 395.9473 506.28485 395.957 506.06173 396.02494 L 506.06173 396.05403 L 506.10054 396.05403 C 506.27515 396.21894 506.43036 396.39355 506.56616 396.58755 C 506.7408 396.82037 506.896 397.0629 507.0415 397.3151 C 507.3422 397.1793 507.49743 396.8495 507.41015 396.539 C 507.3325 396.39355 507.2258 396.25774 507.09003 396.151 L 507.09003 396.151 Z" fill="#2c5967"/>
            </g>
            <g id="Graphic_7">
              <path d="M 526.44285 413.58316 C 526.38464 413.5152 526.34583 413.4376 526.30706 413.36003 C 526.2682 413.263 526.2197 413.1757 526.16155 413.0981 C 526.0742 413.0205 525.9869 412.9526 525.8996 412.8847 L 525.6474 412.681 C 525.12355 412.0892 524.5124 411.5848 523.83336 411.17735 C 523.68785 411.09005 523.49384 410.99305 523.29984 410.89605 C 522.7663 410.6341 522.09694 410.3043 521.9029 409.94536 C 522.23275 409.89687 522.5723 409.82897 522.8924 409.74167 L 522.9894 409.72223 C 523.2707 409.66406 523.55204 409.62525 523.8431 409.6059 C 524.1341 409.58645 524.4251 409.54765 524.71615 409.48946 L 524.91984 409.45065 C 525.18175 409.41184 525.4825 409.36334 525.5407 409.1887 C 525.5795 409.0917 525.5407 408.9753 525.4049 408.8395 C 524.5609 407.95674 523.56174 407.2292 522.4753 406.67627 C 521.98053 406.41433 521.447 406.1621 520.8456 405.9099 C 520.71945 405.8614 520.55453 405.8032 520.37995 405.75467 C 520.021 405.6771 519.6815 405.53157 519.39045 405.3085 C 519.17704 405.06594 519.0024 404.7943 518.85693 404.51303 C 518.7987 404.3966 518.7405 404.2899 518.6726 404.1832 C 518.2264 403.45563 517.75104 402.58257 517.2563 401.6028 C 517.1399 401.3991 517.0429 401.18567 516.95556 400.9723 C 516.8004 400.60363 516.60636 400.2447 516.3735 399.9052 C 514.78264 397.66433 512.6582 395.8503 510.2039 394.60864 C 508.94283 393.9975 507.55564 393.66766 506.1587 393.66767 C 505.99383 393.59005 505.8386 393.49304 505.7028 393.37665 C 505.6058 393.29903 505.4991 393.22142 505.3827 393.1535 C 504.69394 392.7752 502.9575 391.95064 501.84196 392.30954 C 501.483 392.42597 501.2017 392.6782 501.0465 393.01773 C 500.63906 393.87137 501.386 394.66682 501.8904 395.20034 C 501.98745 395.30707 502.07476 395.40407 502.14264 395.4817 C 502.21057 395.569 502.2688 395.6272 502.3367 395.70477 C 502.5889 395.9667 502.8217 396.26744 503.006 396.57784 C 503.0642 396.70396 503.11273 396.83007 503.14185 396.9659 C 503.18064 397.1017 503.22914 397.2375 503.27764 397.36365 L 503.4717 397.8389 C 503.6657 398.3628 503.9082 398.8769 504.1798 399.36194 C 504.3641 399.69177 504.58723 400.0022 504.82003 400.2932 C 504.86855 400.3514 504.92676 400.3999 504.99463 400.4484 C 505.1111 400.51633 505.1984 400.63274 505.2372 400.76853 C 505.1984 400.90435 505.1499 401.03046 505.07224 401.1566 C 505.03346 401.22448 505.00436 401.2924 504.97526 401.3603 C 504.86855 401.6804 504.78125 402.01023 504.7133 402.3497 C 504.432 403.64964 504.3253 405.49277 505.373 406.8994 C 505.98413 407.7239 506.6147 408.02464 507.26464 407.79184 C 507.85636 407.5881 507.93396 407.074 508.0116 406.53076 C 508.031 406.31733 508.0698 406.1136 508.1183 405.9002 C 508.1377 405.842 508.1474 405.7838 508.1571 405.71586 C 508.1571 405.6868 508.1668 405.648 508.17645 405.6189 L 508.3026 405.842 C 508.4869 406.1524 508.6615 406.44343 508.8361 406.7539 C 509.23385 407.3747 509.7383 407.91794 510.33004 408.35445 L 510.36885 408.38354 C 510.9509 408.8492 511.6687 409.45064 512.3866 409.66406 L 512.4642 409.6738 L 512.4642 409.47974 L 512.3963 409.47974 C 512.31867 409.40214 512.24106 409.33423 512.1441 409.28577 C 512.09555 409.25663 512.04705 409.22753 512.0082 409.19843 C 511.6881 408.9268 511.3874 408.6358 511.1158 408.31564 C 510.38823 407.4814 509.748 406.57924 509.1757 405.6189 C 508.91373 405.20175 508.7003 404.7555 508.4869 404.319 L 508.4287 404.20257 C 508.3996 404.1347 508.3705 404.06677 508.3511 403.9989 C 508.3317 403.85336 508.2444 403.72725 508.128 403.63996 L 508.0795 403.6205 L 508.04066 403.65933 C 507.95337 403.77575 507.85636 403.88246 507.74964 403.97944 C 507.53624 404.1832 507.3616 404.416 507.2161 404.6682 C 506.9736 405.22115 506.8378 405.8129 506.79895 406.41434 C 506.7796 406.56954 506.7602 406.72475 506.73105 406.87996 L 506.7214 406.87996 C 506.27515 406.77326 506.09084 406.38523 505.9065 406.0166 L 505.84833 405.9002 C 505.3148 404.83312 505.2663 403.1646 505.6931 402.0005 C 505.7125 401.94233 505.7513 401.855 505.7998 401.758 C 506.06174 401.18567 506.29455 400.61333 506.1199 400.36115 C 506.02293 400.1768 505.8871 400.0313 505.7222 399.9149 C 505.6349 399.847 505.5476 399.76938 505.47 399.69177 C 505.2372 399.40075 505.03346 399.09033 504.85884 398.7508 C 504.67454 398.3628 504.5096 397.96505 504.3641 397.5479 C 504.1992 397.0726 504.0052 396.60696 503.7821 396.17046 C 503.57836 395.8309 503.34555 395.5108 503.0836 395.2198 L 502.9187 395.02574 C 502.8411 394.92874 502.7344 394.82203 502.618 394.7056 C 502.2397 394.3273 501.76434 393.85197 501.8808 393.41546 C 501.90985 393.28933 501.99716 393.1923 502.1233 393.1535 C 502.6762 392.9304 503.9858 393.57065 504.6066 393.949 C 504.68424 393.9975 504.75215 394.0363 504.82975 394.08477 C 505.02376 394.2109 505.2178 394.3176 505.4215 394.4243 C 505.7416 394.5504 506.09084 394.6086 506.4304 394.5892 C 506.5856 394.5892 506.7408 394.5892 506.896 394.6183 C 507.4004 394.67653 507.89516 394.77353 508.3802 394.91903 C 509.39877 395.23916 510.36883 395.7048 511.2516 396.29654 C 513.0074 397.4509 514.4819 398.9836 515.5684 400.77825 C 515.6751 400.95286 515.7624 401.13717 515.83034 401.3312 C 515.8885 401.4767 515.9564 401.6222 516.04375 401.7774 C 516.23774 402.16544 516.45115 402.55347 516.66453 402.9415 C 516.8489 403.281 517.0429 403.63024 517.2175 403.96007 L 517.3145 404.1444 C 517.61523 404.7943 518.00326 405.40546 518.4592 405.95843 C 518.6532 406.1912 519.22554 406.33673 519.7203 406.46286 C 519.924 406.51134 520.1083 406.55984 520.2538 406.6084 C 521.01046 406.87026 521.7477 407.2001 522.44613 407.57843 C 522.8051 407.77243 523.164 407.98584 523.51324 408.20894 C 523.56174 408.23806 523.62965 408.27686 523.7072 408.32536 C 523.93037 408.42237 524.1341 408.5679 524.28926 408.7522 C 522.9118 408.7328 521.8641 408.8686 521.01045 409.16934 C 520.94256 409.1887 520.87466 409.20813 520.79704 409.2178 C 520.55453 409.26633 520.2829 409.33423 520.2635 409.58644 L 520.2635 409.62525 L 520.2926 409.6447 C 520.3605 409.71256 520.409 409.79016 520.4381 409.87746 C 520.4672 409.9551 520.506 410.0327 520.5642 410.1103 C 520.81645 410.4692 521.1269 410.77963 521.4761 411.03184 C 521.8156 411.25497 522.19395 411.5072 522.59164 411.7206 C 522.9312 411.8952 523.2804 412.0504 523.6297 412.1765 C 523.9886 412.31234 524.3378 412.46755 524.67734 412.63247 C 524.89073 412.74887 525.11385 412.8944 525.3273 413.0302 C 525.4922 413.1369 525.6474 413.2339 525.8123 413.33094 C 525.8802 413.3794 525.9384 413.4279 525.9966 413.47646 C 526.1033 413.58313 526.2391 413.67043 526.3846 413.71895 L 526.47194 413.74804 L 526.47194 413.5928 L 526.44285 413.58316 L 526.44285 413.58316 Z" fill="#2c5967"/>
            </g>
            <g id="Graphic_6">
              <path d="M 523.4162 413.22417 C 521.6798 412.74887 519.8852 412.51606 518.0906 412.54514 C 516.29593 412.51606 514.5013 412.74887 512.7649 413.22417 C 510.63075 413.88385 510.1748 414.786 510.1748 415.43594 L 510.136 415.43594 L 510.136 429.0363 L 510.29124 429.22063 C 510.44643 429.4049 511.95974 431.01523 518.10994 431.01523 C 523.4065 431.01523 525.6474 429.4049 525.7444 429.32733 L 526.0063 429.12357 L 526.0063 415.22253 L 525.9869 415.22253 C 525.9093 414.6308 525.36606 413.81595 523.4162 413.22417 L 523.4162 413.22417 Z M 518.0906 413.8741 C 522.6208 413.87415 524.6773 415.05763 524.67735 415.4262 C 524.6773 415.7852 522.6208 416.96866 518.0906 416.9687 C 513.56035 416.96866 511.5038 415.7852 511.5038 415.4262 C 511.5038 415.06733 513.56035 413.87415 518.0906 413.8741 L 518.0906 413.8741 Z M 524.67735 428.42517 C 523.93036 428.8229 521.8835 429.68624 518.10994 429.68625 C 513.65735 429.68624 511.94034 428.8035 511.4747 428.48335 L 511.4747 425.80596 C 512.5418 426.2813 514.5498 426.82454 518.10994 426.82454 C 521.35 426.82454 523.455 426.2328 524.67735 425.70897 L 524.67735 428.42517 L 524.67735 428.42517 Z M 524.67735 424.2345 C 523.93036 424.6322 521.8835 425.49555 518.10994 425.49557 C 513.65735 425.49555 511.94034 424.6128 511.4747 424.29266 L 511.4747 421.33397 C 512.5418 421.8093 514.5498 422.33313 518.10994 422.3331 C 521.35 422.33313 523.455 421.7511 524.67735 421.237 L 524.67735 424.2345 L 524.67735 424.2345 Z M 524.67735 419.78186 C 524.1923 420.04377 522.11633 421.01384 518.10994 421.01385 C 513.66705 421.01384 511.94034 420.1505 511.4747 419.84004 L 511.4747 417.10447 C 511.89183 417.3276 512.31866 417.5022 512.7746 417.638 C 514.511 418.11334 516.30564 418.34616 518.1003 418.317 C 519.8949 418.34616 521.6895 418.11334 523.4259 417.638 C 523.86245 417.5119 524.2893 417.347 524.687 417.13356 L 524.67735 419.78186 L 524.67735 419.78186 Z" fill="#2c5967"/>
            </g>
          </g>
        </g>
      </g>
    </g>
  </g>
</svg>
