<?xml version="1.0" encoding="UTF-8" standalone="no"?>
<!DOCTYPE svg PUBLIC "-//W3C//DTD SVG 1.1//EN" "http://www.w3.org/Graphics/SVG/1.1/DTD/svg11.dtd">
<svg xmlns="http://www.w3.org/2000/svg" xmlns:xl="http://www.w3.org/1999/xlink" version="1.1" xmlns:dc="http://purl.org/dc/elements/1.1/" viewBox="480.90937 690.8516 34.28568 34.28574" width="34.28568" height="34.28574">
  <defs/>
  <g id="Canvas_1" fill="none" stroke-opacity="1" stroke="none" stroke-dasharray="none" fill-opacity="1">
    <title>Canvas 1</title>
    <g id="Canvas_1_Layer_1">
      <title>Layer 1</title>
      <g id="Group_62">
        <title>Object Storage</title>
        <g id="Group_63">
          <g id="Group_66">
            <g id="Graphic_69">
              <path d="M 506.14366 699.9802 L 508.4665 704.02584 L 506.11795 708.0716 L 501.4465 708.0716 L 499.12366 704.02584 L 501.4722 699.9802 L 506.14366 699.9802 Z M 506.8808 698.7116 L 500.74366 698.7116 L 497.6665 704.02584 L 500.7265 709.3402 L 506.86366 709.3402 L 509.9408 704.02584 L 506.8808 698.7116 L 506.8808 698.7116 L 506.8808 698.7116 Z" fill="black"/>
            </g>
            <g id="Graphic_68">
              <path d="M 497.8122 712.2287 C 500.0322 712.2287 501.8322 714.0287 501.83225 716.2488 C 501.8322 718.4687 500.0322 720.2687 497.8122 720.2687 C 495.5922 720.2687 493.79223 718.4687 493.7922 716.2488 C 493.8008 714.0373 495.6008 712.2287 497.8122 712.2287 Z M 497.8122 710.96014 C 494.8808 710.9602 492.52366 713.3259 492.52366 716.2488 C 492.52366 719.1802 494.9151 721.5373 497.8122 721.5373 C 500.71794 721.5373 503.1008 719.1716 503.1008 716.2488 C 503.10937 713.3259 500.74366 710.9602 497.8122 710.96014 L 497.8122 710.96014 L 497.8122 710.96014 Z" fill="black"/>
            </g>
            <g id="Graphic_67">
              <path d="M 491.7094 700.9916 L 495.4636 707.7887 L 487.9894 707.7887 L 491.7094 700.9916 Z M 491.70084 698.3516 L 485.8465 709.0573 L 497.6065 709.0573 L 491.70084 698.3516 L 491.70084 698.3516 L 491.70084 698.3516 Z" fill="black"/>
            </g>
          </g>
          <g id="Graphic_65">
            <path d="M 513.7637 725.1373 L 482.3408 725.1373 C 481.5522 725.1373 480.90937 724.49445 480.90937 723.7059 L 480.90937 694.2716 L 515.19505 694.2716 L 515.19505 723.7144 C 515.1951 724.49445 514.5522 725.1373 513.7637 725.1373 L 513.7637 725.1373 Z M 482.17794 695.5402 L 482.17794 723.7144 C 482.17794 723.8002 482.2465 723.8773 482.3408 723.8773 L 513.77226 723.8773 C 513.85794 723.8773 513.9351 723.8087 513.93505 723.7144 L 513.93505 695.5402 L 482.17794 695.5402 L 482.17794 695.5402 Z" fill="black"/>
          </g>
          <g id="Graphic_64">
            <path d="M 515.19505 693.3116 L 480.90937 693.3116 L 480.90937 692.283 C 480.90937 691.4944 481.5522 690.8516 482.3408 690.8516 L 513.77226 690.8516 C 514.5522 690.8516 515.1951 691.4944 515.19505 692.283 L 515.19505 693.3116 L 515.19505 693.3116 Z" fill="black"/>
          </g>
        </g>
      </g>
    </g>
  </g>
</svg>
