<?xml version="1.0" encoding="UTF-8" standalone="no"?>
<!DOCTYPE svg PUBLIC "-//W3C//DTD SVG 1.1//EN" "http://www.w3.org/Graphics/SVG/1.1/DTD/svg11.dtd">
<svg width="100%" height="100%" viewBox="0 0 16 16" version="1.1" xmlns="http://www.w3.org/2000/svg" xmlns:xlink="http://www.w3.org/1999/xlink" xml:space="preserve" xmlns:serif="http://www.serif.com/" style="fill-rule:evenodd;clip-rule:evenodd;stroke-linejoin:round;stroke-miterlimit:2;">
    <g id="bastion">
        <path d="M4.207,15.061L1,11.854L1,11.147L4.207,7.94L4.914,8.647L2.561,11.001L9,11.001L9,12.001L2.56,12.001L4.914,14.354L4.207,15.061Z"/>
        <path d="M11.793,13.061L15,9.854L15,9.147L11.793,5.94L11.086,6.647L13.439,9L7,9L7,10L13.44,10L11.086,12.354L11.793,13.061Z"/>
        <path d="M1.651,7.532C1.229,6.943 1,6.233 1,5.501C1,3.824 2.205,2.371 3.853,2.06C4.34,1.968 4.84,1.982 5.321,2.1C5.942,0.678 7.44,-0.166 8.978,0.04C10.517,0.248 11.739,1.462 11.957,3L12.007,3C12.801,3 13.563,3.317 14.123,3.879C14.986,4.744 15.208,6.021 14.788,7.098L13.839,6.79C13.944,6.549 14.002,6.284 14.002,6.006C14.002,6.004 14.002,6.002 14.002,6C14.001,4.905 13.101,4.003 12.006,4L11.092,4L10.969,3.143C10.815,2.043 9.943,1.173 8.843,1.021C7.742,0.871 6.669,1.479 6.231,2.5L5.898,3.262L5.089,3.073C4.904,3.027 4.714,3.003 4.523,3C3.861,3 3.226,3.263 2.759,3.732C2.293,4.201 2.031,4.836 2.031,5.497C2.031,6.129 2.27,6.709 2.664,7.15L1.651,7.532Z"/>
    </g>
</svg>
