<?xml version="1.0" encoding="UTF-8" standalone="no"?>
<!DOCTYPE svg PUBLIC "-//W3C//DTD SVG 1.1//EN" "http://www.w3.org/Graphics/SVG/1.1/DTD/svg11.dtd">
<svg width="100%" height="100%" viewBox="0 0 16 16" version="1.1" xmlns="http://www.w3.org/2000/svg" xmlns:xlink="http://www.w3.org/1999/xlink" xml:space="preserve" xmlns:serif="http://www.serif.com/" style="fill-rule:evenodd;clip-rule:evenodd;stroke-linejoin:round;stroke-miterlimit:2;">
    <g id="ociBastionCurrent">
        <path d="M4.207,15.061L1,11.854L1,11.147L4.207,7.94L4.914,8.647L2.561,11.001L9,11.001L9,12.001L2.56,12.001L4.914,14.354L4.207,15.061Z"/>
        <path d="M11.793,13.061L15,9.854L15,9.147L11.793,5.94L11.086,6.647L13.439,9L7,9L7,10L13.44,10L11.086,12.354L11.793,13.061Z"/>
        <path d="M2.282,8.21C2.145,8.098 2.015,7.974 1.895,7.84C1.319,7.198 1,6.364 1,5.501C1,3.824 2.205,2.371 3.853,2.06C4.34,1.968 4.84,1.982 5.321,2.1C5.942,0.678 7.44,-0.166 8.978,0.04C10.517,0.248 11.739,1.462 11.957,3L12.007,3C12.801,3 13.563,3.317 14.123,3.879C14.983,4.741 15.206,6.013 14.792,7.087L11.899,4.505L9.786,6.675L11,8L5.848,8L4.124,6.387L2.282,8.21Z"/>
    </g>
</svg>
