<?xml version="1.0" encoding="UTF-8" standalone="no"?>
<!DOCTYPE svg PUBLIC "-//W3C//DTD SVG 1.1//EN" "http://www.w3.org/Graphics/SVG/1.1/DTD/svg11.dtd">
<svg width="100%" height="100%" viewBox="0 0 16 16" version="1.1" xmlns="http://www.w3.org/2000/svg" xmlns:xlink="http://www.w3.org/1999/xlink" xml:space="preserve" xmlns:serif="http://www.serif.com/" style="fill-rule:evenodd;clip-rule:evenodd;stroke-linejoin:round;stroke-miterlimit:2;">
    <g id="ociCompute">
        <path d="M13.5,15L14,14.5L14,11.5L13.5,11L2.5,11L2,11.5L2,14.5L2.5,15L13.5,15ZM3,14L3,12L4,12L4,13L5,13L5,12L6,12L6,13L7,13L7,12L8,12L8,13L9,13L9,12L10,12L10,13L11,13L11,12L13,12L13,14L3,14Z"/>
        <g transform="matrix(1,0,0,1,0,-5)">
            <path d="M13.5,15L14,14.5L14,11.5L13.5,11L2.5,11L2,11.5L2,14.5L2.5,15L13.5,15ZM3,14L3,12L4,12L4,13L5,13L5,12L6,12L6,13L7,13L7,12L8,12L8,13L9,13L9,12L10,12L10,13L11,13L11,12L13,12L13,14L3,14Z"/>
        </g>
        <g transform="matrix(1,0,0,1,0,-10)">
            <path d="M13.5,15L14,14.5L14,11.5L13.5,11L2.5,11L2,11.5L2,14.5L2.5,15L13.5,15ZM3,14L3,12L4,12L4,13L5,13L5,12L6,12L6,13L7,13L7,12L8,12L8,13L9,13L9,12L10,12L10,13L11,13L11,12L13,12L13,14L3,14Z"/>
        </g>
    </g>
</svg>
