<?xml version="1.0" encoding="UTF-8" standalone="no"?>
<!DOCTYPE svg PUBLIC "-//W3C//DTD SVG 1.1//EN" "http://www.w3.org/Graphics/SVG/1.1/DTD/svg11.dtd">
<svg width="100%" height="100%" viewBox="0 0 16 16" version="1.1" xmlns="http://www.w3.org/2000/svg" xmlns:xlink="http://www.w3.org/1999/xlink" xml:space="preserve" xmlns:serif="http://www.serif.com/" style="fill-rule:evenodd;clip-rule:evenodd;stroke-linejoin:round;stroke-miterlimit:2;">
    <g id="ociLoadBalancer">
        <g transform="matrix(1,0,0,1,0.969059,-1.99801)">
            <path d="M12.886,11.917L15,9.854L15,9.147L12.886,6.962L12.179,7.669L13.439,9L10.002,9L10.002,10L13.44,10L12.179,11.21L12.886,11.917Z"/>
        </g>
        <g transform="matrix(1,0,0,1,-11.0072,-1.98417)">
            <path d="M12.886,11.917L15,9.854L15,9.147L12.886,6.962L12.179,7.669L13.439,9L11.03,9L11.03,10L13.44,10L12.179,11.21L12.886,11.917Z"/>
        </g>
        <g transform="matrix(0.707107,-0.707107,0.707107,0.707107,-3.54238,5.1759)">
            <path d="M13.033,11.76L15,9.854L15,9.147L13.044,7.137L12.337,7.844L13.439,9L9.467,9L9.467,10L13.44,10L12.326,11.053L13.033,11.76Z"/>
        </g>
        <g transform="matrix(0.707107,0.707107,0.707107,-0.707107,-3.54867,9.83198)">
            <path d="M13.01,11.783L15,9.854L15,9.147L13.044,7.136L12.337,7.843L13.439,9L9.385,9L9.385,10L13.44,10L12.303,11.076L13.01,11.783Z"/>
        </g>
        <path d="M7.509,3.995C9.439,3.995 11.007,5.562 11.007,7.492C11.007,9.422 9.439,10.99 7.509,10.99C5.579,10.99 4.011,9.422 4.011,7.492C4.011,5.562 5.579,3.995 7.509,3.995ZM7.509,5.295C8.722,5.295 9.706,6.28 9.706,7.492C9.706,8.705 8.722,9.689 7.509,9.689C6.297,9.689 5.312,8.705 5.312,7.492C5.312,6.28 6.297,5.295 7.509,5.295Z"/>
    </g>
</svg>
