<?xml version="1.0" encoding="UTF-8" standalone="no"?>
<!DOCTYPE svg PUBLIC "-//W3C//DTD SVG 1.1//EN" "http://www.w3.org/Graphics/SVG/1.1/DTD/svg11.dtd">
<svg width="100%" height="100%" viewBox="0 0 16 16" version="1.1" xmlns="http://www.w3.org/2000/svg" xmlns:xlink="http://www.w3.org/1999/xlink" xml:space="preserve" xmlns:serif="http://www.serif.com/" style="fill-rule:evenodd;clip-rule:evenodd;stroke-linejoin:round;stroke-miterlimit:2;">
    <g id="ociProfileCurrent">
        <path d="M16,7.992C16,3.58 12.416,0 8,0C3.584,0 0,3.58 0,7.992C0,10.422 1.104,12.612 2.832,14.082C2.848,14.098 2.864,14.098 2.864,14.114C3.008,14.226 3.152,14.338 3.312,14.45C3.392,14.498 3.456,14.561 3.536,14.625C4.858,15.521 6.419,16 8.016,16C9.613,16 11.174,15.521 12.496,14.625C12.576,14.577 12.64,14.514 12.72,14.465C12.864,14.354 13.024,14.242 13.168,14.13C13.184,14.114 13.2,14.114 13.2,14.098C14.896,12.611 16,10.422 16,7.992ZM12.972,12.881L12.96,12.819C12.803,12.318 12.571,11.844 12.272,11.413C11.973,10.978 11.606,10.595 11.184,10.278C10.862,10.036 10.513,9.832 10.144,9.67C10.312,9.559 10.467,9.431 10.608,9.287C10.847,9.052 11.056,8.788 11.232,8.503C11.586,7.921 11.769,7.25 11.76,6.569C11.765,6.065 11.667,5.564 11.472,5.099C11.28,4.651 11.002,4.244 10.656,3.9C10.31,3.56 9.903,3.289 9.456,3.1C8.99,2.905 8.489,2.808 7.984,2.813C7.479,2.808 6.978,2.906 6.512,3.101C6.061,3.289 5.653,3.566 5.312,3.916C4.972,4.262 4.701,4.668 4.512,5.115C4.317,5.58 4.219,6.081 4.224,6.585C4.224,6.937 4.272,7.273 4.368,7.592C4.464,7.928 4.592,8.232 4.768,8.519C4.928,8.807 5.152,9.063 5.392,9.303C5.536,9.447 5.696,9.574 5.872,9.686C5.502,9.852 5.153,10.062 4.832,10.31C4.416,10.63 4.048,11.013 3.744,11.429C3.442,11.859 3.21,12.333 3.056,12.835L3.044,12.897C3.218,13.025 3.839,13.555 3.987,13.7L3.984,13.714C4.033,13.748 4.028,13.738 3.987,13.7C4.002,13.576 4.033,13.454 4.064,13.331C4.159,12.984 4.299,12.651 4.48,12.34C4.656,12.036 4.864,11.764 5.12,11.524C5.36,11.284 5.648,11.061 5.936,10.885C6.24,10.709 6.56,10.581 6.912,10.485C7.267,10.389 7.633,10.341 8,10.342C9.09,10.334 10.142,10.753 10.928,11.508C11.296,11.876 11.584,12.308 11.792,12.803C11.902,13.086 11.981,13.385 12.029,13.698C11.986,13.739 11.981,13.75 12.032,13.714L12.029,13.698C12.177,13.55 12.789,13.021 12.972,12.881ZM3.044,12.897C2.991,12.856 2.98,12.854 3.04,12.915L3.044,12.897ZM12.972,12.881L12.976,12.899C13.046,12.829 13.033,12.832 12.972,12.881ZM5.552,7.593C5.411,7.27 5.34,6.921 5.344,6.569C5.344,6.218 5.408,5.866 5.552,5.546C5.696,5.226 5.888,4.939 6.128,4.699C6.368,4.459 6.656,4.268 6.976,4.124C7.296,3.98 7.648,3.916 8,3.916C8.368,3.916 8.704,3.98 9.024,4.124C9.344,4.268 9.632,4.46 9.872,4.699C10.112,4.939 10.304,5.227 10.448,5.546C10.592,5.866 10.656,6.218 10.656,6.569C10.656,6.937 10.592,7.273 10.448,7.592C10.309,7.907 10.114,8.195 9.872,8.44C9.627,8.681 9.339,8.876 9.024,9.015C8.363,9.287 7.621,9.287 6.96,9.015C6.645,8.876 6.357,8.681 6.112,8.44C5.87,8.198 5.679,7.91 5.552,7.592L5.552,7.593Z"/>
    </g>
</svg>
