<?xml version="1.0" encoding="UTF-8" standalone="no"?>
<!DOCTYPE svg PUBLIC "-//W3C//DTD SVG 1.1//EN" "http://www.w3.org/Graphics/SVG/1.1/DTD/svg11.dtd">
<svg version="1.1" xmlns="http://www.w3.org/2000/svg" xmlns:xl="http://www.w3.org/1999/xlink" xmlns:dc="http://purl.org/dc/elements/1.1/" viewBox="1059 497 38 37" width="100%" height="100%">
  <defs/>
  <g id="Canvas_9" stroke-opacity="1" stroke="none" stroke-dasharray="none" fill-opacity="1" fill="none">
    <title>Canvas 9</title>
    <g id="Canvas_9_Layer_1">
      <title>Layer 1</title>
      <g id="Group_15">
        <g id="Graphic_17">
          <path d="M 1068.4307 532.9236 L 1066.8205 532.1185 L 1066.8205 519.5027 L 1064.5594 519.5027 L 1066.555 521.49835 L 1065.0476 523.00567 L 1060.4741 518.43216 L 1065.0476 513.85865 L 1066.555 515.36604 L 1064.5594 517.3616 L 1066.8291 517.3616 L 1066.8291 507.30665 L 1070.0237 507.30665 L 1070.0237 506.18467 C 1070.0237 501.7225 1073.4581 498.04823 1077.8432 497.82555 C 1077.9888 497.8084 1078.1344 497.8084 1078.28 497.8084 C 1080.4041 497.8084 1082.4168 498.6135 1083.9585 500.07807 C 1085.62 501.65396 1086.5278 503.778 1086.5279 506.0648 L 1086.5279 507.30665 L 1089.7225 507.30665 L 1089.7225 517.37016 L 1091.9921 517.37016 L 1089.9965 515.3746 L 1091.5039 513.8672 L 1096.0774 518.4407 L 1091.5039 523.01424 L 1089.9965 521.5069 L 1091.9921 519.5113 L 1089.7225 519.5113 L 1089.7225 532.12707 L 1088.1123 532.93217 L 1068.4307 532.93217 L 1068.4307 532.9236 Z" fill="white"/>
        </g>
        <g id="Graphic_16">
          <path d="M 1078.28 498.23664 C 1080.2928 498.23665 1082.1941 498.99034 1083.6587 500.3864 C 1085.2346 501.87663 1086.0996 503.8979 1086.0996 506.06477 L 1086.0996 507.7349 L 1089.2943 507.7349 L 1089.2943 517.7984 L 1093.0198 517.7984 L 1090.5961 515.3746 L 1091.504 514.4667 L 1095.4693 518.4321 L 1091.504 522.3976 L 1090.5961 521.48976 L 1093.0198 519.06595 L 1089.2943 519.06595 L 1089.2943 529.41206 L 1089.2943 529.41206 L 1089.2943 531.84444 L 1088.018 532.4954 L 1088.018 532.4954 L 1068.5334 532.4954 L 1068.5334 532.4954 L 1067.2487 531.853 L 1067.2487 529.4206 L 1067.2487 529.4206 L 1067.2487 519.0745 L 1063.5231 519.0745 L 1065.9469 521.4983 L 1065.039 522.40617 L 1061.0736 518.4407 L 1065.039 514.4753 L 1065.9469 515.38315 L 1063.5231 517.80696 L 1067.2487 517.80696 L 1067.2487 507.7349 L 1070.4434 507.7349 L 1070.4434 506.18465 C 1070.4434 501.9537 1073.698 498.4679 1077.8604 498.25377 C 1078.006 498.23665 1078.143 498.23665 1078.28 498.23664 Z M 1078.28 497.3802 C 1078.28 497.3802 1078.28 497.3802 1078.28 497.3802 C 1078.28 497.3802 1078.28 497.3802 1078.28 497.3802 C 1078.1259 497.3802 1077.9717 497.3802 1077.8175 497.38877 C 1073.2012 497.62855 1069.5955 501.4912 1069.5955 506.1761 L 1069.5955 506.86987 L 1067.2487 506.86987 L 1066.3923 506.86987 L 1066.3923 507.7263 L 1066.3923 514.60375 L 1065.6472 513.8586 L 1065.039 513.2505 L 1064.4309 513.8586 L 1060.4655 517.8241 L 1059.866 518.4407 L 1060.4741 519.0488 L 1064.4395 523.0143 L 1065.0476 523.6223 L 1065.6557 523.0143 L 1066.4008 522.26916 L 1066.4008 528.57276 L 1066.4008 529.4292 L 1066.4008 531.86157 L 1066.4008 532.39257 L 1066.8719 532.6324 L 1068.1566 533.2747 L 1068.3279 533.3518 L 1068.5334 533.3518 L 1088.0266 533.3518 L 1088.2322 533.3518 L 1088.412 533.25765 L 1089.6967 532.61527 L 1090.1678 532.37544 L 1090.1678 531.84444 L 1090.1678 529.41206 L 1090.1678 528.5556 L 1090.1678 528.5556 L 1090.1678 522.252 L 1090.913 522.99715 L 1091.5211 523.6052 L 1092.1291 522.99715 L 1096.0946 519.0317 L 1096.7027 518.42357 L 1096.0946 517.8155 L 1092.1291 513.85005 L 1091.5211 513.24194 L 1090.913 513.85005 L 1090.1678 514.5952 L 1090.1678 507.71774 L 1090.1678 506.8613 L 1089.3113 506.8613 L 1086.9732 506.8613 L 1086.9732 506.0476 C 1086.9732 503.64096 1086.014 501.4056 1084.2668 499.7526 C 1082.6309 498.2281 1080.5154 497.3802 1078.28 497.3802 L 1078.28 497.3802 L 1078.28 497.3802 L 1078.28 497.3802 Z M 1090.1593 516.9419 L 1090.1593 516.13685 L 1090.9644 516.9419 L 1090.1593 516.9419 L 1090.1593 516.9419 L 1090.1593 516.9419 Z M 1065.5872 516.9419 L 1066.3923 516.13685 L 1066.3923 516.9419 L 1065.5872 516.9419 L 1065.5872 516.9419 L 1065.5872 516.9419 Z M 1090.1593 519.93096 L 1090.9644 519.93096 L 1090.1593 520.73606 L 1090.1593 519.93096 L 1090.1593 519.93096 L 1090.1593 519.93096 Z M 1065.5872 519.93096 L 1066.3923 519.93096 L 1066.3923 520.73606 L 1065.5872 519.93096 L 1065.5872 519.93096 L 1065.5872 519.93096 Z" fill="white"/>
        </g>
      </g>
      <g id="Group_4">
        <g id="Graphic_14"/>
        <g id="Graphic_13"/>
        <g id="Graphic_12"/>
        <g id="Graphic_11">
          <path d="M 1077.0125 520.86455 L 1076.4729 524.35036 L 1080.0958 524.35036 L 1079.5904 520.8474 C 1080.4298 520.3849 1081.0036 519.4942 1081.0036 518.46645 C 1081.0036 516.8049 1079.5134 515.4945 1077.8004 515.79424 C 1076.6956 515.98266 1075.8134 516.8648 1075.6164 517.9611 C 1075.3766 519.203 1076.0104 520.3335 1077.0125 520.86455 L 1077.0125 520.86455 Z" fill="#2c5967"/>
        </g>
        <g id="Graphic_10">
          <path d="M 1091.5125 514.4667 L 1090.6046 515.37457 L 1093.0284 517.7984 L 1089.3028 517.7984 L 1089.3028 507.73487 L 1086.1081 507.73487 L 1086.1081 506.06476 C 1086.1082 503.8979 1085.2431 501.8852 1083.6672 500.3864 C 1082.0999 498.89613 1080.0358 498.1339 1077.8604 498.2452 C 1073.7065 498.45933 1070.4434 501.94516 1070.4434 506.17614 L 1070.4434 507.7263 L 1067.2488 507.7263 L 1067.2488 517.7898 L 1063.5231 517.7898 L 1065.9469 515.366 L 1065.0391 514.45816 L 1061.0736 518.4236 L 1065.0391 522.389 L 1065.9469 521.4812 L 1063.5231 519.05737 L 1067.2488 519.05737 L 1067.2488 530.24286 L 1089.2942 530.24286 L 1089.2942 519.0745 L 1093.0199 519.0745 L 1090.596 521.4983 L 1091.5039 522.40616 L 1095.4694 518.44076 L 1091.5125 514.4667 L 1091.5125 514.4667 Z M 1071.7281 506.17614 C 1071.7281 502.62177 1074.4516 499.7012 1077.9289 499.5213 C 1079.7446 499.42714 1081.4747 500.0609 1082.7851 501.3114 C 1084.104 502.5618 1084.8235 504.24906 1084.8235 506.06476 L 1084.8235 507.73487 L 1083.8642 507.73487 L 1083.8642 506.06476 C 1083.8642 504.54026 1083.2647 503.1185 1082.177 502.0565 C 1081.0893 500.9945 1079.6504 500.4292 1078.1259 500.472 C 1075.1197 500.5491 1072.6787 503.10996 1072.6788 506.17614 L 1072.6788 507.73487 L 1071.7195 507.73487 L 1071.7195 506.17614 L 1071.7281 506.17614 Z M 1082.5881 506.0562 L 1082.5881 507.7263 L 1073.9635 507.7263 L 1073.9635 506.16757 C 1073.9635 503.78657 1075.8477 501.79956 1078.1601 501.74814 C 1079.3421 501.7225 1080.4469 502.1507 1081.2862 502.9729 C 1082.1256 503.78657 1082.5881 504.88285 1082.5881 506.0562 L 1082.5881 506.0562 Z M 1088.0181 517.7984 L 1086.742 517.7984 L 1086.742 519.0745 L 1088.0181 519.0745 L 1088.0181 528.98387 L 1068.5335 528.98387 L 1068.5335 519.0745 L 1069.8096 519.0745 L 1069.8096 517.7984 L 1068.5335 517.7984 L 1068.5335 509.011 L 1088.0267 509.011 L 1088.0267 517.7984 L 1088.0181 517.7984 Z" fill="#2c5967"/>
        </g>
        <g id="Graphic_9">
          <path d="M 1067.2487 531.21924 L 1067.2487 531.853 L 1068.5334 532.49537 L 1088.0181 532.49537 L 1089.3028 531.853 L 1089.3028 531.21924 Z" fill="#2c5967"/>
        </g>
        <g id="Graphic_8">
          <rect x="1073.0042" y="517.7984" width="1.27614" height="1.27614" fill="#2c5967"/>
        </g>
        <g id="Graphic_7">
          <rect x="1070.7688" y="517.7984" width="1.27614" height="1.27614" fill="#2c5967"/>
        </g>
        <g id="Graphic_6">
          <rect x="1084.5066" y="517.7984" width="1.27614" height="1.27614" fill="#2c5967"/>
        </g>
        <g id="Graphic_5">
          <rect x="1082.2712" y="517.7984" width="1.27614" height="1.27614" fill="#2c5967"/>
        </g>
      </g>
    </g>
  </g>
</svg>
