<?xml version="1.0" encoding="UTF-8" standalone="no"?>
<!DOCTYPE svg PUBLIC "-//W3C//DTD SVG 1.1//EN" "http://www.w3.org/Graphics/SVG/1.1/DTD/svg11.dtd">
<svg version="1.1" xmlns="http://www.w3.org/2000/svg" xmlns:xl="http://www.w3.org/1999/xlink" xmlns:dc="http://purl.org/dc/elements/1.1/" viewBox="330.0054 378.90956 29.39679 35.97162" width="29.39679" height="35.97162">
  <defs/>
  <g id="Canvas_1" stroke-opacity="1" stroke="none" stroke-dasharray="none" fill-opacity="1" fill="none">
    <title>Canvas 1</title>
    <g id="Canvas_1_Layer_1">
      <title>Layer 1</title>
      <g id="Group_26">
        <title>User</title>
        <g id="Group_27">
          <g id="Group_32">
            <g id="Group_36">
              <g id="Graphic_38">
                <path d="M 345.279 397.14373 C 340.37145 397.14373 336.37174 393.1526 336.37174 388.24503 C 336.37174 383.33747 340.3629 379.33776 345.279 379.33777 C 350.18657 379.33776 354.18627 383.3289 354.18627 388.24503 C 354.1777 393.1526 350.18657 397.14373 345.279 397.14373 L 345.279 397.14373 Z" fill="white"/>
              </g>
              <g id="Graphic_37">
                <path d="M 345.27903 379.766 C 349.95533 379.766 353.75805 383.5687 353.75804 388.245 C 353.75805 392.92135 349.95533 396.72406 345.27903 396.7241 C 340.6027 396.72406 336.8 392.92135 336.79995 388.245 C 336.8 383.5687 340.6027 379.766 345.27903 379.766 Z M 345.27903 378.90956 C 340.13164 378.90953 335.9435 383.09766 335.9435 388.245 C 335.9435 393.3924 340.13164 397.58053 345.27903 397.58053 C 350.4264 397.58053 354.6145 393.3924 354.6145 388.245 C 354.60595 383.09766 350.4264 378.90953 345.27903 378.90956 L 345.27903 378.90956 L 345.27903 378.90956 Z" fill="white"/>
              </g>
            </g>
            <g id="Group_33">
              <g id="Graphic_35">
                <path d="M 331.5841 414.45295 L 331.5841 403.61004 C 331.5841 400.16706 334.38474 397.3664 337.8277 397.3664 L 339.68625 397.3664 L 340.0289 397.8118 C 341.29644 399.4562 343.20636 400.3983 345.279 400.39833 C 345.5702 400.3983 345.8614 400.3812 346.15264 400.34693 C 347.86555 400.1328 349.5014 399.14786 350.64904 397.6576 L 350.87174 397.3664 L 352.73027 397.3664 C 356.1733 397.3664 358.97393 400.16706 358.97397 403.61004 L 358.97397 414.45295 L 331.5841 414.45295 L 331.5841 414.45295 Z" fill="white"/>
              </g>
              <g id="Graphic_34">
                <path d="M 352.72172 397.7861 C 355.93347 397.7861 358.53713 400.38975 358.53716 403.6015 L 358.53716 414.02474 L 357.26096 414.02474 L 357.1068 414.02474 L 332.0123 414.02474 L 332.0123 403.6101 C 332.01232 400.3983 334.616 397.79465 337.82773 397.79464 L 339.47214 397.79464 L 339.68627 398.07724 C 341.03093 399.8245 343.06932 400.8351 345.27044 400.83513 C 345.57877 400.8351 345.8871 400.818 346.19543 400.77516 C 348.10535 400.53535 349.80973 399.44763 350.98307 397.9231 L 351.0773 397.8032 L 352.72172 397.8032 M 352.72172 396.92964 L 351.0773 396.92964 L 350.65763 396.92964 L 350.40066 397.26364 L 350.3065 397.3835 C 349.22733 398.78815 347.69425 399.71314 346.0927 399.91015 C 345.8186 399.9444 345.5445 399.9615 345.279 399.9615 C 343.3434 399.9615 341.55337 399.07935 340.37142 397.5377 L 340.15736 397.2551 L 339.9004 396.92107 L 339.47214 396.92107 L 337.82773 396.92107 C 334.14493 396.92105 331.15585 399.9187 331.15585 403.59295 L 331.15585 414.02474 L 331.15585 414.8812 L 332.0123 414.8812 L 357.1154 414.8812 L 357.26953 414.8812 L 358.54573 414.8812 L 359.40217 414.8812 L 359.40217 414.02474 L 359.40217 403.6101 C 359.40216 399.92725 356.40453 396.9296 352.72172 396.92964 L 352.72172 396.92964 L 352.72172 396.92964 Z" fill="white"/>
              </g>
            </g>
          </g>
          <g id="Group_29">
            <g id="Graphic_31">
              <path d="M 345.279 396.7155 C 349.95534 396.7155 353.75806 392.91277 353.75807 388.2365 C 353.75806 383.56014 349.95534 379.766 345.279 379.76597 C 340.6027 379.766 336.8 383.5687 336.8 388.24505 C 336.8 392.92134 340.6027 396.7155 345.279 396.7155 L 345.279 396.7155 Z M 345.279 381.1963 C 349.1674 381.1963 352.32775 384.35666 352.32772 388.24505 C 352.32775 392.1334 349.1674 395.29375 345.279 395.2938 C 341.39065 395.29375 338.2303 392.1334 338.23026 388.24505 C 338.2303 384.35666 341.39065 381.1963 345.279 381.1963 L 345.279 381.1963 Z" fill="#2c5967"/>
            </g>
            <g id="Graphic_30">
              <path d="M 352.7217 397.78605 L 351.07727 397.78605 L 350.86314 398.0687 C 349.51853 399.8159 347.48014 400.82654 345.27904 400.82653 C 343.0779 400.82654 341.0395 399.82447 339.69486 398.0687 L 339.48074 397.78605 L 337.82776 397.78605 C 334.62455 397.7861 332.01232 400.3983 332.01232 403.61005 L 332.01232 414.0247 L 333.4426 414.0247 L 333.4426 403.61005 C 333.44263 401.18626 335.4125 399.2164 337.83633 399.2164 L 338.77845 399.2164 C 340.39715 401.152 342.74387 402.2483 345.27047 402.24825 C 347.79703 402.2483 350.1523 401.14344 351.7625 399.2164 L 352.7132 399.2164 C 355.13696 399.2164 357.10684 401.18626 357.10684 403.61005 L 357.10684 414.0247 L 358.53712 414.0247 L 358.53712 403.61005 C 358.5457 400.3983 355.93348 397.7861 352.7217 397.78605 L 352.7217 397.78605 Z" fill="#2c5967"/>
            </g>
          </g>
          <g id="Graphic_28">
            <path d="M 339.28373 397.7518 Z" fill="white"/>
            <path d="M 339.28373 397.7518 Z" stroke="white" stroke-linecap="butt" stroke-linejoin="miter" stroke-width="18.5567"/>
          </g>
        </g>
      </g>
    </g>
  </g>
</svg>
