<?xml version="1.0" encoding="UTF-8" standalone="no"?>
<!DOCTYPE svg PUBLIC "-//W3C//DTD SVG 1.1//EN" "http://www.w3.org/Graphics/SVG/1.1/DTD/svg11.dtd">
<svg width="100%" height="100%" viewBox="0 0 16 16" version="1.1" xmlns="http://www.w3.org/2000/svg" xmlns:xlink="http://www.w3.org/1999/xlink" xml:space="preserve" xmlns:serif="http://www.serif.com/" style="fill-rule:evenodd;clip-rule:evenodd;stroke-linejoin:round;stroke-miterlimit:2;fill:white;">
    <g transform="matrix(1,0,0,1,-2,0)">
        <g id="sign-in">
            <path d="M10.02,4.77L10.03,4.76L11.02,5.75L11.02,3.5L10.52,3L2.52,3L2.01,3.5L2.01,3.993L2,4L2,13.29L2.36,13.75L7.36,15.47L8,15L8,14L10.52,14L11.02,13.5L11.02,11.25L10.02,12.25L10.02,13L8,13L8,5.71L7.67,5.25L4.036,4L10.02,4L10.02,4.77ZM7,14.28L3,12.94L3,4.72L7,6.06L7,14.28ZM10.026,8.011L14.996,8.011L14.996,9.011L10.066,9.011L11.656,10.611L10.946,11.311L8.476,8.851L8.476,8.141L10.966,5.661L11.666,6.361L10.026,8.011Z"/>
            <g transform="matrix(0.60154,0,0,0.582877,10.18,-1.16575)">
                <path d="M3,8L3.933,7.144L11.933,7.144L13,8L13,13L12,14L4,14L3,13L3,8ZM4.655,8.851L4.672,12.309L11.338,12.318L11.337,8.877L4.655,8.851ZM11.317,7.144L11.33,5.009C11.33,3.363 9.646,2 8,2C6.354,2 4.673,3.373 4.673,5.018L4.684,7.144L6.36,7.144L6.322,5.514C6.322,4.417 6.898,3.744 7.995,3.744C9.092,3.744 9.673,4.425 9.673,5.523L9.686,7.144L11.317,7.144Z" style="fill-rule:nonzero;"/>
            </g>
        </g>
    </g>
</svg>
