<?xml version="1.0" encoding="UTF-8" standalone="no"?>
<!DOCTYPE svg PUBLIC "-//W3C//DTD SVG 1.1//EN" "http://www.w3.org/Graphics/SVG/1.1/DTD/svg11.dtd">
<svg width="100%" height="100%" viewBox="0 0 1024 1024" version="1.1" xmlns="http://www.w3.org/2000/svg" xmlns:xlink="http://www.w3.org/1999/xlink" xml:space="preserve" xmlns:serif="http://www.serif.com/" style="fill-rule:evenodd;clip-rule:evenodd;stroke-linejoin:round;stroke-miterlimit:2;fill:white;">
    <g id="connectionSqlite">
        <path d="M789.184,65.37L767.089,90.37L139.893,90.37C114.025,90.37 93.023,111.372 93.023,137.24C93.023,137.24 93.023,822.408 93.023,822.408C93.023,848.276 114.025,869.278 139.893,869.278L561.692,869.278L561.305,894.278L139.893,894.278C100.227,894.278 68.023,862.074 68.023,822.408L68.023,137.24C68.023,97.574 100.227,65.37 139.893,65.37L789.184,65.37Z"/>
        <g id="path3045" transform="matrix(7.88233,0,0,-7.88233,-257.201,1344.15)">
            <path d="M149.133,167.137C143.681,171.999 137.08,170.046 130.565,164.264C129.598,163.405 128.633,162.452 127.673,161.434C116.528,149.611 106.183,127.711 102.969,110.986C104.221,108.447 105.199,105.207 105.843,102.732C106.008,102.097 106.157,101.501 106.276,100.994C106.559,99.794 106.711,99.016 106.711,99.016C106.711,99.016 106.611,99.394 106.201,100.583C106.123,100.811 106.036,101.06 105.933,101.353C105.889,101.474 105.828,101.621 105.761,101.778C105.034,103.468 103.023,107.035 102.138,108.588C101.381,106.355 100.712,104.266 100.152,102.376C102.707,97.701 104.264,89.69 104.264,89.69C104.264,89.69 104.129,90.209 103.487,92.021C102.917,93.624 100.078,98.598 99.405,99.761C98.255,95.514 97.798,92.647 98.21,91.949C99.01,90.596 99.773,88.262 100.442,85.681C101.954,79.866 101.609,72.787 101.609,72.787C101.609,72.787 101.643,72.318 101.7,71.596C101.49,66.713 101.616,61.65 101.994,57.074C102.495,51.016 103.7,45.301 104.64,43.027C105.3,41.431 107.948,41.541 107.74,43.472C107.357,47.024 105.258,56.15 105.572,64.443C106.047,77.119 108.076,92.406 113.466,108.339C122.572,132.391 135.206,151.689 146.769,160.905C136.23,151.387 121.966,120.578 117.696,109.169C112.915,96.393 110.415,84.404 108.373,72.917C111.896,83.686 122.399,88.315 122.399,88.315C122.399,88.315 127.986,95.205 134.515,105.049C130.604,104.157 124.182,102.63 122.031,101.726C118.858,100.395 118.003,99.941 118.003,99.941C118.003,99.941 128.281,106.2 137.099,109.034C149.226,128.134 162.438,155.268 149.133,167.137" style="fill-rule:nonzero;"/>
        </g>
    </g>
</svg>
