<?xml version="1.0" encoding="UTF-8"?>
<!DOCTYPE svg PUBLIC "-//W3C//DTD SVG 1.1//EN" "http://www.w3.org/Graphics/SVG/1.1/DTD/svg11.dtd">
<svg version="1.1" xmlns="http://www.w3.org/2000/svg" xmlns:xlink="http://www.w3.org/1999/xlink" width="100%" height="100%" viewBox="0, 0, 1024, 1024">
  <g id="connected.svg" transform="translate(0, 0)">
    <path d="M728.559,391.332 C675.453,391.332 632.395,348.274 632.395,295.168 C632.395,242.058 675.453,199.004 728.559,199.004 C781.664,199.004 824.723,242.058 824.723,295.168 C824.723,348.274 781.664,391.332 728.559,391.332 z M295.168,824.723 C242.063,824.723 199.004,781.669 199.004,728.563 C199.004,675.453 242.063,632.399 295.168,632.399 C348.274,632.399 391.332,675.453 391.332,728.563 C391.332,781.669 348.274,824.723 295.168,824.723 z M728.559,123.727 C633.874,123.727 557.117,200.483 557.117,295.168 C557.117,466.61 466.61,557.117 295.168,557.117 C200.488,557.117 123.727,633.874 123.727,728.559 C123.727,823.239 200.488,900 295.168,900 C389.849,900 466.61,823.239 466.61,728.559 C466.61,557.117 557.117,466.61 728.559,466.61 C823.239,466.61 900,389.849 900,295.168 C900,200.483 823.239,123.727 728.559,123.727" fill="#ffffff"/>
  </g>
</svg>
