<?xml version="1.0" encoding="UTF-8" standalone="no"?>
<!DOCTYPE svg PUBLIC "-//W3C//DTD SVG 1.1//EN" "http://www.w3.org/Graphics/SVG/1.1/DTD/svg11.dtd">
<svg width="100%" height="100%" viewBox="0 0 16 16" version="1.1" xmlns="http://www.w3.org/2000/svg" xmlns:xlink="http://www.w3.org/1999/xlink" xml:space="preserve" xmlns:serif="http://www.serif.com/" style="fill-rule:evenodd;clip-rule:evenodd;stroke-linejoin:round;stroke-miterlimit:2;fill:white;">
    <g transform="matrix(0.169718,0,0,0.169718,0.888884,0.0446299)">
        <g id="connectionMySQL">
            <path id="SQL-Editor-Icon" serif:id="SQL Editor Icon" d="M85.703,73.075C80.561,72.935 76.632,73.417 73.275,74.833C72.32,75.235 70.799,75.245 70.642,76.445C71.167,76.996 71.249,77.815 71.666,78.494C72.467,79.79 73.822,81.532 75.029,82.444C76.35,83.443 77.709,84.51 79.123,85.375C81.64,86.912 84.45,87.788 86.873,89.325C88.301,90.231 89.72,91.377 91.114,92.4C91.801,92.905 92.266,93.693 93.161,94.011L93.161,93.864C92.689,93.263 92.569,92.44 92.137,91.812C91.504,91.177 90.869,90.546 90.237,89.91C88.378,87.444 86.018,85.272 83.51,83.47C81.51,82.033 77.034,80.091 76.198,77.758C76.15,77.711 76.101,77.665 76.053,77.614C77.47,77.454 79.131,76.942 80.439,76.592C82.639,76 84.603,76.15 86.873,75.565C87.897,75.271 88.921,74.98 89.944,74.686L89.944,74.098C88.797,72.922 87.978,71.361 86.727,70.295C83.453,67.504 79.879,64.717 76.198,62.391C74.158,61.1 71.635,60.262 69.473,59.169C68.745,58.801 67.467,58.611 66.986,57.999C65.85,56.545 65.23,54.71 64.355,53.019C62.519,49.483 60.716,45.616 59.091,41.896C57.981,39.356 57.257,36.853 55.874,34.577C49.235,23.647 42.087,17.05 31.016,10.566C28.661,9.189 25.824,8.644 22.828,7.933C21.219,7.832 19.61,7.738 18.002,7.638C17.02,7.23 15.998,6.027 15.078,5.442C11.41,3.123 2.002,-1.924 -0.714,4.71C-2.429,8.898 1.849,12.986 3.379,15.105C4.454,16.595 5.828,18.263 6.597,19.934C7.101,21.037 7.188,22.14 7.62,23.303C8.684,26.171 9.609,29.289 10.983,31.939C11.679,33.28 12.444,34.694 13.323,35.893C13.862,36.628 14.785,36.953 14.931,38.089C14.027,39.356 13.976,41.318 13.47,42.922C11.184,50.135 12.045,59.098 15.37,64.439C16.391,66.077 18.793,69.593 22.096,68.247C24.985,67.066 24.34,63.413 25.167,60.191C25.354,59.463 25.239,58.928 25.606,58.437L25.606,58.581C26.482,60.338 27.36,62.097 28.238,63.851C30.186,66.993 33.139,70.183 35.836,72.674C37.079,73.822 39.288,75.622 41.252,76.298L41.252,76.147L41.105,76.147C40.724,75.559 39.853,74.575 39.367,74.097C38.223,72.974 36.674,70.749 35.727,69.461C33.063,65.839 31.721,63.44 29.575,59.316C28.551,57.347 27.385,55.171 26.52,53.166C26.188,52.394 26.007,51.228 25.313,50.823C24.367,52.294 22.974,53.48 22.243,55.218C21.072,57.992 20.922,61.003 20.487,64.509C20.231,64.603 20.381,64.7 20.195,64.656C18.896,64.349 18.272,62.434 17.515,60.632C15.601,56.077 14.784,51.966 16.746,43.507C17.068,42.118 19.058,37.875 18.262,36.625C17.881,35.372 16.626,34.653 15.923,33.694C15.053,32.518 14.184,30.96 13.583,29.597C12.016,26.047 11.284,22.06 9.635,18.474C8.846,16.756 7.513,15.021 6.419,13.497C5.205,11.806 3.848,10.559 2.908,8.517C2.575,7.792 1.825,6.181 2.34,5.445C2.498,5.22 2.72,5.076 2.941,4.912C3.803,4.274 6.151,5.225 7.035,5.589C9.38,6.566 11.336,7.491 13.323,8.812C14.277,9.443 15.241,10.666 16.394,11.004L17.709,11.004C19.768,11.478 22.074,11.154 23.997,11.739C27.396,12.772 30.443,14.383 33.21,16.127C41.638,21.458 48.528,29.038 53.242,38.089C54,39.543 54.328,40.937 54.996,42.481C56.344,45.596 58.041,48.801 59.383,51.849C60.721,54.891 62.026,57.958 63.916,60.489C64.91,61.816 68.751,62.531 70.496,63.266C71.719,63.784 73.724,64.326 74.883,65.024C77.097,66.358 79.241,67.952 81.317,69.416C82.355,70.148 85.544,71.752 85.703,73.075ZM20.241,17.413C19.445,17.268 18.512,17.418 17.709,17.595L17.709,17.738C17.759,17.738 18.467,18.531 18.5,18.567C19.38,19.528 19.529,19.756 19.903,20.375C20.276,20.993 20.877,22.424 21.365,23.447C21.414,23.4 21.463,23.35 21.512,23.303C22.417,22.665 23.051,21.219 22.828,20.084C22.695,19.413 22.319,18.943 22.004,18.488C21.721,18.079 20.977,17.548 20.241,17.413Z"/>
        </g>
    </g>
</svg>
