<?xml version="1.0" encoding="UTF-8"?>
<!DOCTYPE svg PUBLIC "-//W3C//DTD SVG 1.1//EN" "http://www.w3.org/Graphics/SVG/1.1/DTD/svg11.dtd">
<svg version="1.1" xmlns="http://www.w3.org/2000/svg" xmlns:xlink="http://www.w3.org/1999/xlink" width="100%" height="100%" viewBox="0, 0, 1024, 1024">
  <g id="database.svg" transform="translate(0, 0)" fill="#ffffff">
    <g>
      <g>
        <g>
          <path d="M864,591.182 L864,816.963 L863.788,816.963 C859.609,836.323 836.557,847.494 817.43,855.265 C793.656,864.923 768.079,871.31 742.531,876.479 C667.414,891.677 589.492,896.272 512.5,896.5 C421.575,895.441 311.527,890.07 225.85,861.926 C202.165,854.145 166.423,840.999 161.212,816.963 L161.212,597.167 C166.078,617.835 189.715,628.215 207.57,635.469 C231.62,645.241 257.079,651.547 282.469,656.684 C358.045,671.974 435.562,676.251 512.5,676.705 C706.628,676.705 864,639.946 864,594.602 C863.861,592.04 864.035,593.175 863.603,591.182 L864,591.182 z"/>
          <path d="M864,591.182 L864,816.963 L863.788,816.963 C859.609,836.323 836.557,847.494 817.43,855.265 C793.656,864.923 768.079,871.31 742.531,876.479 C667.414,891.677 589.492,896.272 512.5,896.5 C421.575,895.441 311.527,890.07 225.85,861.926 C202.165,854.145 166.423,840.999 161.212,816.963 L161.212,597.167 C166.078,617.835 189.715,628.215 207.57,635.469 C231.62,645.241 257.079,651.547 282.469,656.684 C358.045,671.974 435.562,676.251 512.5,676.705 C706.628,676.705 864,639.946 864,594.602 C863.861,592.04 864.035,593.175 863.603,591.182 L864,591.182 z" fill-opacity="0" stroke="#ffffff" stroke-width="1"/>
        </g>
      </g>
      <g>
        <path d="M512,334.851 C317.872,334.851 160.5,288.546 160.5,231.426 C160.5,174.305 317.872,128 512,128 C706.128,128 863.5,174.305 863.5,231.426 C863.5,288.546 706.128,334.851 512,334.851 z" stroke="#ffffff"/>
      </g>
    </g>
    <g>
      <path d="M863.894,308.182 L863.894,533.963 L863.682,533.963 C859.503,553.323 836.452,564.494 817.325,572.265 C793.551,581.924 767.973,588.31 742.425,593.479 C667.309,608.677 589.386,613.272 512.394,613.5 C421.47,612.441 311.421,607.07 225.744,578.926 C202.06,571.145 166.317,557.999 161.106,533.963 L161.106,314.168 C165.972,334.835 189.609,345.215 207.464,352.47 C231.514,362.241 256.973,368.547 282.364,373.684 C357.939,388.975 435.456,393.251 512.394,393.705 C706.522,393.705 863.894,356.946 863.894,311.602 C863.755,309.04 863.929,310.175 863.497,308.182 L863.894,308.182 z" stroke="#ffffff" fill="#ffffff"/>
      <path d="M863.894,308.182 L863.894,533.963 L863.682,533.963 C859.503,553.323 836.452,564.494 817.325,572.265 C793.551,581.924 767.973,588.31 742.425,593.479 C667.309,608.677 589.386,613.272 512.394,613.5 C421.47,612.441 311.421,607.07 225.744,578.926 C202.06,571.145 166.317,557.999 161.106,533.963 L161.106,314.168 C165.972,334.835 189.609,345.215 207.464,352.47 C231.514,362.241 256.973,368.547 282.364,373.684 C357.939,388.975 435.456,393.251 512.394,393.705 C706.522,393.705 863.894,356.946 863.894,311.602 C863.755,309.04 863.929,310.175 863.497,308.182 L863.894,308.182 z" fill-opacity="0" stroke="#ffffff" stroke-width="1"/>
    </g>
  </g>
</svg>
