<?xml version="1.0" encoding="UTF-8" standalone="no"?>
<!DOCTYPE svg PUBLIC "-//W3C//DTD SVG 1.1//EN" "http://www.w3.org/Graphics/SVG/1.1/DTD/svg11.dtd">
<svg width="100%" height="100%" viewBox="0 0 16 16" version="1.1" xmlns="http://www.w3.org/2000/svg" xmlns:xlink="http://www.w3.org/1999/xlink" xml:space="preserve" xmlns:serif="http://www.serif.com/" style="fill-rule:evenodd;clip-rule:evenodd;stroke-linejoin:round;stroke-miterlimit:2;fill:white;">
    <g id="folder">
        <path d="M14.5,3L7.71,3L6.86,2.15L6.51,2L1.51,2L1.01,2.5L1.01,13.5L1.51,14L14.51,14L15.01,13.5L15.01,3.5L14.5,3ZM13.99,11.49L13.99,13L1.99,13L1.99,7L6.48,7L6.83,6.85L7.69,5.99L14,5.99L14,7.49L13.99,11.49ZM13.99,5L7.49,5L7.14,5.15L6.28,6.01L2,6.01L2,3.01L6.29,3.01L7.14,3.86L7.5,4.01L14,4.01L13.99,5Z" style="fill-rule:nonzero;"/>
    </g>
</svg>
