<?xml version="1.0" encoding="UTF-8" standalone="no"?>
<!DOCTYPE svg PUBLIC "-//W3C//DTD SVG 1.1//EN" "http://www.w3.org/Graphics/SVG/1.1/DTD/svg11.dtd">
<svg width="100%" height="100%" viewBox="0 0 16 16" version="1.1" xmlns="http://www.w3.org/2000/svg" xmlns:xlink="http://www.w3.org/1999/xlink" xml:space="preserve" xmlns:serif="http://www.serif.com/" style="fill-rule:evenodd;clip-rule:evenodd;stroke-linejoin:round;stroke-miterlimit:2;fill:white;">
    <g id="LakeHouse">
        <g transform="matrix(0.642857,0,0,1,0.995536,0.516227)">
            <path d="M21.865,13.498C21.826,13.53 21.729,13.613 21.676,13.675C21.537,13.839 21.407,14.034 21.257,14.229C20.745,14.898 20.013,15.516 18.613,15.516C17.249,15.516 16.51,14.93 15.895,14.293C15.721,14.112 15.557,13.931 15.37,13.78C15.215,13.655 15.056,13.542 14.798,13.542C14.578,13.542 14.41,13.618 14.255,13.712C13.987,13.874 13.76,14.092 13.525,14.308C12.84,14.936 12.064,15.5 10.889,15.5C9.879,15.5 9.214,15.104 8.659,14.576C8.425,14.352 8.209,14.107 7.957,13.892C7.715,13.686 7.448,13.5 7,13.5C6.554,13.5 6.293,13.686 6.053,13.892C5.799,14.108 5.578,14.356 5.334,14.582C4.77,15.102 4.084,15.5 3,15.5C1.663,15.5 0.926,14.886 0.424,14.217C0.277,14.021 0.15,13.825 0.019,13.66C-0.026,13.603 -0.103,13.529 -0.143,13.491C-0.504,13.448 -0.778,13.244 -0.778,13C-0.778,12.724 -0.429,12.5 0,12.5C0.546,12.5 1.037,12.745 1.403,13.204C1.625,13.482 1.829,13.854 2.149,14.154C2.345,14.34 2.593,14.5 3,14.5C3.446,14.5 3.707,14.314 3.947,14.108C4.201,13.892 4.422,13.644 4.666,13.418C5.23,12.898 5.916,12.5 7,12.5C8.292,12.5 9.027,13.086 9.664,13.732C9.842,13.913 10.014,14.094 10.213,14.246C10.393,14.383 10.589,14.5 10.889,14.5C11.211,14.5 11.44,14.379 11.652,14.234C11.993,14.001 12.278,13.7 12.585,13.434C13.176,12.921 13.863,12.542 14.798,12.542C15.76,12.542 16.393,12.934 16.926,13.466C17.144,13.682 17.349,13.921 17.596,14.129C17.842,14.336 18.132,14.516 18.613,14.516C19.071,14.516 19.341,14.342 19.553,14.141C19.764,13.939 19.923,13.706 20.077,13.496C20.292,13.204 20.514,12.947 20.769,12.784C21.059,12.598 21.395,12.5 21.792,12.5C22.221,12.5 22.569,12.724 22.569,13C22.569,13.26 22.26,13.474 21.865,13.498Z"/>
        </g>
        <g transform="matrix(0.642857,0,0,1,0.995536,-2.49986)">
            <path d="M21.865,13.498C21.826,13.53 21.729,13.613 21.676,13.675C21.537,13.839 21.407,14.034 21.257,14.229C20.745,14.898 20.013,15.516 18.613,15.516C17.249,15.516 16.51,14.93 15.895,14.293C15.721,14.112 15.557,13.931 15.37,13.78C15.215,13.655 15.056,13.542 14.798,13.542C14.578,13.542 14.41,13.618 14.255,13.712C13.987,13.874 13.76,14.092 13.525,14.308C12.84,14.936 12.064,15.5 10.889,15.5C9.879,15.5 9.214,15.104 8.659,14.576C8.425,14.352 8.209,14.107 7.957,13.892C7.715,13.686 7.448,13.5 7,13.5C6.554,13.5 6.293,13.686 6.053,13.892C5.799,14.108 5.578,14.356 5.334,14.582C4.77,15.102 4.084,15.5 3,15.5C1.663,15.5 0.926,14.886 0.424,14.217C0.277,14.021 0.15,13.825 0.019,13.66C-0.026,13.603 -0.103,13.529 -0.143,13.491C-0.504,13.448 -0.778,13.244 -0.778,13C-0.778,12.724 -0.429,12.5 0,12.5C0.546,12.5 1.037,12.745 1.403,13.204C1.625,13.482 1.829,13.854 2.149,14.154C2.345,14.34 2.593,14.5 3,14.5C3.446,14.5 3.707,14.314 3.947,14.108C4.201,13.892 4.422,13.644 4.666,13.418C5.23,12.898 5.916,12.5 7,12.5C8.292,12.5 9.027,13.086 9.664,13.732C9.842,13.913 10.014,14.094 10.213,14.246C10.393,14.383 10.589,14.5 10.889,14.5C11.211,14.5 11.44,14.379 11.652,14.234C11.993,14.001 12.278,13.7 12.585,13.434C13.176,12.921 13.863,12.542 14.798,12.542C15.76,12.542 16.393,12.934 16.926,13.466C17.144,13.682 17.349,13.921 17.596,14.129C17.842,14.336 18.132,14.516 18.613,14.516C19.071,14.516 19.341,14.342 19.553,14.141C19.764,13.939 19.923,13.706 20.077,13.496C20.292,13.204 20.514,12.947 20.769,12.784C21.059,12.598 21.395,12.5 21.792,12.5C22.221,12.5 22.569,12.724 22.569,13C22.569,13.26 22.26,13.474 21.865,13.498Z"/>
        </g>
        <g id="House" transform="matrix(1,0,0,1,-2.49589,0)">
            <g transform="matrix(1,0,0,1,-0.508558,0.5)">
                <path d="M11.844,9.692L11.866,6.508C11.866,6.508 10.184,6.502 10.184,6.502L10.176,9.588L6.918,9.588L6.918,5.017L11,0.934L15.187,5.121L15.187,9.692L11.844,9.692ZM14.387,8.892L14.387,5.452L11,2.066C11,2.066 7.718,5.348 7.718,5.348L7.718,8.788L9.378,8.788L9.386,5.7L12.672,5.711L12.65,8.892L14.387,8.892Z"/>
            </g>
            <g transform="matrix(1,0,0,1,-0.52862,-0.459395)">
                <path d="M5.425,6.654L4.856,6.091L11,-0.109L17.196,6.144L16.628,6.707L11,1.028L5.425,6.654Z"/>
            </g>
            <g transform="matrix(1.25582,0,0,1.04788,2.96593,-0.747727)">
                <path d="M3.319,3.929L2.801,3.929L2.801,1.005L4.388,1.005L4.388,2.841L3.871,2.841L3.871,1.625L3.319,1.625L3.319,3.929Z"/>
            </g>
        </g>
    </g>
</svg>
