<?xml version="1.0" encoding="UTF-8" standalone="no"?>
<!DOCTYPE svg PUBLIC "-//W3C//DTD SVG 1.1//EN" "http://www.w3.org/Graphics/SVG/1.1/DTD/svg11.dtd">
<svg width="100%" height="100%" viewBox="0 0 16 16" version="1.1" xmlns="http://www.w3.org/2000/svg" xmlns:xlink="http://www.w3.org/1999/xlink" xml:space="preserve" xmlns:serif="http://www.serif.com/" style="fill-rule:evenodd;clip-rule:evenodd;stroke-linejoin:round;stroke-miterlimit:2;fill:white;">
    <g id="saveScript">
        <g transform="matrix(1,0,0,1,-1,0)">
            <path d="M10.5,0.1L13.9,3.6L14,4L14,6.982L13,6.982L13,5L9,5L9,1L3,1L3,14L7.991,14L7.991,15L2.5,15L2,14.5L2,0.5L2.5,0L10.2,0L10.5,0.1ZM10,1L10,4L12.9,4L10,1Z"/>
        </g>
        <g id="Load" transform="matrix(1,0,0,1,5,4)">
            <g transform="matrix(1.16667,0,0,1,-7.66667,-4)">
                <rect x="10" y="15" width="6" height="1"/>
            </g>
            <g transform="matrix(1,0,0,-1,0,15.2079)">
                <path d="M7,8.293L7,5L8,5L8,8.293L9.207,7.086L9.914,7.793L7.499,10.208L6.792,9.501L6.793,9.5L5.086,7.793L5.793,7.086L7,8.293Z"/>
            </g>
        </g>
    </g>
</svg>
