<?xml version="1.0" encoding="UTF-8" standalone="no"?>
<!DOCTYPE svg PUBLIC "-//W3C//DTD SVG 1.1//EN" "http://www.w3.org/Graphics/SVG/1.1/DTD/svg11.dtd">
<svg width="100%" height="100%" viewBox="0 0 16 16" version="1.1" xmlns="http://www.w3.org/2000/svg" xmlns:xlink="http://www.w3.org/1999/xlink" xml:space="preserve" xmlns:serif="http://www.serif.com/" style="fill-rule:evenodd;clip-rule:evenodd;stroke-linejoin:round;stroke-miterlimit:2;fill:white;">
    <g id="shield" transform="matrix(1,0,0,1,-1,0)">
        <g id="mrsAuthApp">
            <g id="shield1" serif:id="shield">
                <path d="M8.246,14.713C7.734,14.411 7.232,14.094 6.741,13.76C6.24,13.42 5.758,13.053 5.297,12.66C4.839,12.265 4.409,11.84 4.009,11.386C3.609,10.931 3.256,10.436 2.959,9.908C2.66,9.374 2.425,8.807 2.259,8.218C2.085,7.594 1.998,6.948 2,6.3L2,3.1L2.5,2.6C2.833,2.6 3.156,2.589 3.47,2.564C3.766,2.541 4.061,2.498 4.352,2.436C4.636,2.374 4.914,2.288 5.184,2.18C5.468,2.062 5.741,1.919 6,1.753C6.367,1.512 6.765,1.322 7.184,1.188C7.833,1 8.515,0.952 9.184,1.046C9.614,1.106 10.032,1.235 10.421,1.429C10.62,1.526 10.813,1.633 11.001,1.751C11.261,1.918 11.536,2.061 11.822,2.179C12.092,2.288 12.369,2.373 12.653,2.435C12.944,2.497 13.24,2.541 13.537,2.564C13.848,2.588 14.171,2.599 14.504,2.599L15.004,3.099L15.004,6.299C15.007,6.947 14.921,7.593 14.748,8.218C14.582,8.807 14.347,9.374 14.048,9.908C13.75,10.436 13.398,10.931 12.998,11.386C12.598,11.838 12.169,12.263 11.712,12.656C11.251,13.05 10.767,13.417 10.264,13.756C9.771,14.09 9.267,14.409 8.754,14.712L8.246,14.712L8.246,14.713ZM3,3.59L3,6.3C2.996,6.855 3.07,7.41 3.22,7.945C3.364,8.459 3.569,8.953 3.83,9.418C4.093,9.885 4.405,10.323 4.76,10.726C5.13,11.143 5.526,11.536 5.948,11.9C6.38,12.268 6.831,12.612 7.3,12.93C7.7,13.197 8.1,13.453 8.5,13.699C8.9,13.457 9.3,13.201 9.7,12.931C10.17,12.612 10.623,12.268 11.055,11.9C11.476,11.536 11.872,11.144 12.241,10.728C12.595,10.325 12.907,9.887 13.171,9.42C13.432,8.955 13.637,8.46 13.781,7.947C13.931,7.41 14.004,6.857 14.001,6.3L14.001,3.59C13.842,3.59 13.688,3.578 13.536,3.567L13.457,3.561C13.115,3.534 12.775,3.485 12.439,3.414C11.738,3.261 11.069,2.985 10.463,2.6C10.307,2.501 10.146,2.411 9.981,2.33C9.684,2.184 9.366,2.086 9.038,2.04C8.517,1.964 7.986,2 7.48,2.146C7.148,2.254 6.831,2.406 6.54,2.598C6.228,2.798 5.9,2.97 5.557,3.111C5.233,3.24 4.898,3.343 4.557,3.418C4.222,3.488 3.882,3.538 3.54,3.564C3.366,3.574 3.185,3.584 3,3.59ZM9.065,7.89C9.629,7.661 10,7.109 10,6.5C10,5.678 9.323,5 8.5,5C7.677,5 7,5.678 7,6.5C7,7.109 7.371,7.661 7.935,7.89L7.5,10.5L9.5,10.5L9.065,7.89Z"/>
            </g>
        </g>
    </g>
    <g id="mrsAuthAppDisabled">
        <g id="shield2" serif:id="shield" transform="matrix(1,0,0,1,-1,0)">
            <path d="M8.246,14.713C7.734,14.411 7.232,14.094 6.741,13.76C6.24,13.42 5.758,13.053 5.297,12.66C4.839,12.265 4.409,11.84 4.009,11.386C3.609,10.931 3.256,10.436 2.959,9.908C2.66,9.374 2.425,8.807 2.259,8.218C2.085,7.594 1.998,6.948 2,6.3L2,3.1L2.5,2.6C2.833,2.6 3.156,2.589 3.47,2.564C3.766,2.541 4.061,2.498 4.352,2.436C4.636,2.374 4.914,2.288 5.184,2.18C5.468,2.062 5.741,1.919 6,1.753C6.367,1.512 6.765,1.322 7.184,1.188C7.833,1 8.515,0.952 9.184,1.046C9.614,1.106 10.032,1.235 10.421,1.429C10.62,1.526 10.813,1.633 11.001,1.751C11.261,1.918 11.536,2.061 11.822,2.179C12.092,2.288 12.369,2.373 12.653,2.435C12.944,2.497 13.24,2.541 13.537,2.564C13.848,2.588 14.171,2.599 14.504,2.599L15.004,3.099L15.004,6.299C15.007,6.947 14.921,7.593 14.748,8.218C14.582,8.807 14.347,9.374 14.048,9.908C13.75,10.436 13.398,10.931 12.998,11.386C12.598,11.838 12.169,12.263 11.712,12.656C11.251,13.05 10.767,13.417 10.264,13.756C9.771,14.09 9.267,14.409 8.754,14.712L8.246,14.712L8.246,14.713ZM3,3.59L3,6.3C2.996,6.855 3.07,7.41 3.22,7.945C3.364,8.459 3.569,8.953 3.83,9.418C4.093,9.885 4.405,10.323 4.76,10.726C5.13,11.143 5.526,11.536 5.948,11.9C6.38,12.268 6.831,12.612 7.3,12.93C7.7,13.197 8.1,13.453 8.5,13.699C8.9,13.457 9.3,13.201 9.7,12.931C10.17,12.612 10.623,12.268 11.055,11.9C11.476,11.536 11.872,11.144 12.241,10.728C12.595,10.325 12.907,9.887 13.171,9.42C13.432,8.955 13.637,8.46 13.781,7.947C13.931,7.41 14.004,6.857 14.001,6.3L14.001,3.59C13.842,3.59 13.688,3.578 13.536,3.567L13.457,3.561C13.115,3.534 12.775,3.485 12.439,3.414C11.738,3.261 11.069,2.985 10.463,2.6C10.307,2.501 10.146,2.411 9.981,2.33C9.684,2.184 9.366,2.086 9.038,2.04C8.517,1.964 7.986,2 7.48,2.146C7.148,2.254 6.831,2.406 6.54,2.598C6.228,2.798 5.9,2.97 5.557,3.111C5.233,3.24 4.898,3.343 4.557,3.418C4.222,3.488 3.882,3.538 3.54,3.564C3.366,3.574 3.185,3.584 3,3.59ZM9.065,7.89C9.629,7.661 10,7.109 10,6.5C10,5.678 9.323,5 8.5,5C7.677,5 7,5.678 7,6.5C7,7.109 7.371,7.661 7.935,7.89L7.5,10.5L9.5,10.5L9.065,7.89Z"/>
        </g>
        <g transform="matrix(0.862201,0,0,0.862201,2.28373,-7.79214)">
            <g id="Stopped">
                <circle cx="12.429" cy="12.517" r="3.479" style="fill:rgb(210,0,0);"/>
            </g>
        </g>
    </g>
</svg>
