<?xml version="1.0" encoding="UTF-8" standalone="no"?>
<!DOCTYPE svg PUBLIC "-//W3C//DTD SVG 1.1//EN" "http://www.w3.org/Graphics/SVG/1.1/DTD/svg11.dtd">
<svg width="100%" height="100%" viewBox="0 0 16 16" version="1.1" xmlns="http://www.w3.org/2000/svg" xmlns:xlink="http://www.w3.org/1999/xlink" xml:space="preserve" xmlns:serif="http://www.serif.com/" style="fill-rule:evenodd;clip-rule:evenodd;stroke-linejoin:round;stroke-miterlimit:2;fill:white;">
    <g id="mrsContentSetScriptsPrivate">
        <path d="M10.448,5.99L7.69,5.99L6.83,6.85L6.48,7L1.99,7L1.99,13L6.18,13L6.18,14L1.51,14L1.01,13.5L1.01,2.5L1.51,2L6.51,2L6.86,2.15L7.71,3L9.068,3C9.068,3.349 9.114,3.688 9.199,4.01L7.5,4.01L7.14,3.86L6.29,3.01L2,3.01L2,6.01L6.28,6.01L7.14,5.15L7.49,5L9.615,5C9.836,5.374 10.119,5.709 10.448,5.99ZM15.01,6.379L15.01,8.517L13.997,8.517L14,7.49L14,6.803C14.359,6.709 14.699,6.565 15.01,6.379Z" style="fill-opacity:0.5;"/>
        <g transform="matrix(0.500223,0,0,0.500223,7.99643,8.00297)">
            <path d="M3.979,4.007L-0.006,4.007L-0.006,13.994L10.005,13.994L10.005,9.982L12.009,9.982L12.009,15.436L11.437,16.007L-1.423,15.926L-1.994,15.355L-1.994,2.507L-1.421,1.994L3.979,2L3.979,4.007ZM6.023,2.002L11.432,2.007L12.009,2.588L12.009,7.98L10.005,7.98L10.005,4.007L6.023,4.007L6.023,2.002Z" style="fill-opacity:0.5;"/>
        </g>
        <g transform="matrix(0.598465,0,0,0.598465,6.42456,6.82407)">
            <path d="M12.665,7.143C12.926,7.05 13.207,7 13.5,7C14.88,7 16,8.12 16,9.5C16,10.88 14.88,12 13.5,12C13.207,12 12.926,11.95 12.665,11.857L12.665,10.752C12.904,10.914 13.191,11.008 13.5,11.008C14.326,11.008 14.997,10.333 14.997,9.5C14.997,8.667 14.326,7.992 13.5,7.992C13.191,7.992 12.904,8.086 12.665,8.248L12.665,7.143Z" style="fill-opacity:0.5;"/>
        </g>
        <g transform="matrix(3.66454e-17,-0.598465,0.598465,3.66454e-17,4.81411,16.5885)">
            <path d="M12.678,7.139C12.935,7.049 13.212,7 13.5,7C14.88,7 16,8.12 16,9.5C16,10.88 14.88,12 13.5,12C13.212,12 12.935,11.951 12.678,11.861L12.678,10.761C12.914,10.917 13.196,11.008 13.5,11.008C14.326,11.008 14.997,10.333 14.997,9.5C14.997,8.667 14.326,7.992 13.5,7.992C13.196,7.992 12.914,8.083 12.678,8.239L12.678,7.139Z" style="fill-opacity:0.5;"/>
        </g>
        <g id="Private" transform="matrix(1.00896,0,0,1.00896,-0.506419,0.117929)">
            <path d="M13.386,-0.117C15.027,-0.117 16.36,1.215 16.36,2.856C16.36,4.498 15.027,5.83 13.386,5.83C11.745,5.83 10.413,4.498 10.413,2.856C10.413,1.215 11.745,-0.117 13.386,-0.117ZM14.361,1.187C14.075,1.02 13.742,0.923 13.386,0.923C12.32,0.923 11.453,1.79 11.453,2.856C11.453,3.212 11.55,3.545 11.717,3.831L14.361,1.187ZM12.391,4.514C12.682,4.689 13.023,4.789 13.386,4.789C14.453,4.789 15.319,3.923 15.319,2.856C15.319,2.493 15.219,2.152 15.044,1.861L12.391,4.514Z" style="fill:rgb(0,102,210);"/>
        </g>
    </g>
</svg>
