<?xml version="1.0" encoding="UTF-8" standalone="no"?>
<!DOCTYPE svg PUBLIC "-//W3C//DTD SVG 1.1//EN" "http://www.w3.org/Graphics/SVG/1.1/DTD/svg11.dtd">
<svg width="100%" height="100%" viewBox="0 0 16 16" version="1.1" xmlns="http://www.w3.org/2000/svg" xmlns:xlink="http://www.w3.org/1999/xlink" xml:space="preserve" xmlns:serif="http://www.serif.com/" style="fill-rule:evenodd;clip-rule:evenodd;stroke-linejoin:round;stroke-miterlimit:2;fill:white;">
    <g id="mrsContentFilePrivate">
        <path d="M14,7L14,14L13,15L4,15L3,14L3,2L4,1L9,1L9,2L4,2L4,14L13,14L13,7L14,7Z" style="fill-opacity:0.5;"/>
        <g id="Internal" transform="matrix(1.00896,0,0,1.00896,-0.506419,0.117929)">
            <path d="M13.386,-0.117C15.027,-0.117 16.36,1.215 16.36,2.856C16.36,4.498 15.027,5.83 13.386,5.83C11.745,5.83 10.413,4.498 10.413,2.856C10.413,1.215 11.745,-0.117 13.386,-0.117ZM13.386,0.923C12.32,0.923 11.453,1.79 11.453,2.856C11.453,3.923 12.32,4.789 13.386,4.789C14.453,4.789 15.319,3.923 15.319,2.856C15.319,1.79 14.453,0.923 13.386,0.923Z" style="fill:rgb(0,102,210);"/>
            <g transform="matrix(0.688476,-0.688476,0.700826,0.700826,2.32853,9.63198)">
                <rect x="10.927" y="2.56" width="4.072" height="0.968" style="fill:rgb(0,102,210);"/>
            </g>
        </g>
    </g>
</svg>
