<?xml version="1.0" encoding="UTF-8" standalone="no"?>
<!DOCTYPE svg PUBLIC "-//W3C//DTD SVG 1.1//EN" "http://www.w3.org/Graphics/SVG/1.1/DTD/svg11.dtd">
<svg width="100%" height="100%" viewBox="0 0 16 16" version="1.1" xmlns="http://www.w3.org/2000/svg" xmlns:xlink="http://www.w3.org/1999/xlink" xml:space="preserve" xmlns:serif="http://www.serif.com/" style="fill-rule:evenodd;clip-rule:evenodd;stroke-linejoin:round;stroke-miterlimit:2;fill:white;">
    <g transform="matrix(0.015625,0,0,0.015625,0,0)">
        <g id="mrsDisabled">
            <path d="M1008.54,391.302C1018.08,430.316 1023.13,471.08 1023.13,513.016C1023.13,795.277 793.976,1024.44 511.715,1024.44C229.454,1024.44 0.294,795.277 0.294,513.016C0.294,230.755 229.454,1.595 511.715,1.595C550.406,1.595 588.099,5.901 624.34,14.059C609.477,31.422 596.777,50.69 586.662,71.446C562.289,67.332 537.25,65.19 511.715,65.19C264.553,65.19 63.889,265.854 63.889,513.016C63.889,760.178 264.553,960.842 511.715,960.842C758.877,960.842 959.541,760.178 959.541,513.016C959.541,484.661 956.9,456.917 951.85,430.018C972.405,419.53 991.441,406.484 1008.54,391.302ZM753.067,448.373C755.457,451.948 758.236,455.038 761.405,457.642C774.3,468.244 796.997,473.545 829.494,473.545L829.494,549.466C796.997,549.694 774.3,555.109 761.405,565.711C748.509,576.312 742.061,594.837 742.061,621.284L742.061,710.885C742.061,752.607 730.391,783.329 707.05,803.05C683.709,822.772 647.021,832.632 596.985,832.632L573,832.632L573,775.52L589.248,775.52C615.297,775.52 633.996,769.877 645.344,758.592C656.692,747.306 662.366,728.554 662.366,702.335L662.366,598.029C662.366,573.405 669.975,554.311 685.192,540.746C700.408,527.18 723.105,519.029 753.28,516.293L753.28,507.06C723.105,504.324 700.408,496.116 685.192,482.437C669.975,468.757 662.366,449.606 662.366,424.983L662.366,401.373C689.004,422.407 719.694,438.531 753.067,448.373ZM427.481,832.632C377.16,832.632 340.262,822.772 316.787,803.05C293.312,783.329 281.575,752.607 281.575,710.885L281.575,621.284C281.575,594.837 275.09,576.312 262.121,565.711C249.151,555.109 226.325,549.694 193.642,549.466L193.642,473.545C226.325,473.545 249.151,468.244 262.121,457.642C275.09,447.041 281.575,428.403 281.575,401.727L281.575,313.153C281.575,271.43 293.312,240.765 316.787,221.158C340.262,201.551 377.16,191.747 427.481,191.747L451.605,191.747L451.605,248.859L435.263,248.859C409.065,248.859 390.259,254.502 378.846,265.787C367.433,277.073 361.726,295.825 361.726,322.044L361.726,424.983C361.726,449.606 354.074,468.757 338.77,482.437C323.466,496.116 300.77,504.324 270.68,507.06L270.68,516.293C300.77,519.029 323.466,527.18 338.77,540.746C354.074,554.311 361.726,573.405 361.726,598.029L361.726,702.335C361.726,728.554 367.433,747.306 378.846,758.592C390.259,769.877 409.065,775.52 435.263,775.52L451.605,775.52L451.605,832.632L427.481,832.632Z"/>
            <g transform="matrix(55.1808,0,0,55.1808,146.159,-498.697)">
                <g id="Disabled">
                    <circle cx="12.429" cy="12.517" r="3.479" style="fill:rgb(210,0,0);"/>
                </g>
            </g>
        </g>
    </g>
</svg>
