<?xml version="1.0" encoding="UTF-8" standalone="no"?>
<!DOCTYPE svg PUBLIC "-//W3C//DTD SVG 1.1//EN" "http://www.w3.org/Graphics/SVG/1.1/DTD/svg11.dtd">
<svg width="100%" height="100%" viewBox="0 0 16 16" version="1.1" xmlns="http://www.w3.org/2000/svg" xmlns:xlink="http://www.w3.org/1999/xlink" xml:space="preserve" xmlns:serif="http://www.serif.com/" style="fill-rule:evenodd;clip-rule:evenodd;stroke-linejoin:round;stroke-miterlimit:2;fill:white;">
    <g id="mrsDbObjectScriptPrivate">
        <g transform="matrix(1,0,0,1,-1,0)">
            <path d="M11.932,6L9,6L9,2L4,2L4,14L10.918,14L10.918,15L4,15L3,14L3,2L4,1L10,1L10.71,1.29L10.736,1.316L10.521,1.547L10.517,2.517L10,2L10,5L10.947,5L11.932,6ZM14,6.522L14,8.487L13,8.487L13,6.518L14,6.522Z" style="fill-opacity:0.5;"/>
        </g>
        <g transform="matrix(0.363297,0,0,0.363297,2.77369,4.67165)">
            <path d="M21.558,9.049C21.558,9.049 21.558,9.036 21.558,9.03C21.558,6.98 19.87,5.292 17.82,5.292C17.019,5.292 16.239,5.549 15.596,6.026C14.645,6.73 14.084,7.845 14.084,9.028C14.084,10.675 15.173,12.137 16.752,12.609C16.252,13.625 15.216,13.723 14.084,13.728L11.094,13.728C9.987,13.732 8.371,13.872 7.554,14.618L7.554,7.4C9.288,7.046 10.544,5.508 10.544,3.738C10.544,1.688 8.857,0.001 6.807,0.001C4.757,0.001 3.07,1.688 3.07,3.738C3.07,5.508 4.326,7.046 6.06,7.4L6.06,16.517C4.287,16.856 2.993,18.421 2.993,20.226C2.993,22.297 4.697,24.002 6.769,24.002C8.84,24.002 10.545,22.297 10.545,20.226C10.545,18.572 9.457,17.101 7.876,16.616C8.377,15.601 9.963,15.229 11.095,15.224L14.085,15.224C15.991,15.215 17.693,14.541 18.308,12.736C20.152,12.494 21.549,10.909 21.558,9.049ZM4.565,3.738C4.565,2.508 5.577,1.496 6.807,1.496C8.037,1.496 9.049,2.508 9.049,3.738C9.049,4.968 8.037,5.98 6.807,5.98C5.577,5.98 4.565,4.968 4.565,3.738ZM9.049,20.179C9.049,21.409 8.037,22.421 6.807,22.421C5.577,22.421 4.565,21.409 4.565,20.179C4.565,18.949 5.577,17.937 6.807,17.937C8.037,17.937 9.049,18.949 9.049,20.179ZM17.821,11.29C16.59,11.29 15.578,10.277 15.578,9.047C15.578,7.817 16.59,6.805 17.821,6.805C19.051,6.805 20.063,7.817 20.063,9.047C20.063,10.277 19.051,11.29 17.821,11.29Z" style="fill-opacity:0.5;fill-rule:nonzero;"/>
        </g>
        <g transform="matrix(0.693735,0,0,0.699433,8.80699,4.72793)">
            <path d="M5.103,16.129C4.316,16.129 3.74,15.975 3.373,15.667C3.006,15.358 2.823,14.878 2.823,14.227L2.823,12.827C2.823,12.413 2.722,12.124 2.519,11.958C2.316,11.793 1.96,11.708 1.449,11.704L1.449,10.518C1.96,10.518 2.316,10.435 2.519,10.27C2.722,10.104 2.823,9.813 2.823,9.396L2.823,8.012C2.823,7.36 3.006,6.881 3.373,6.575C3.74,6.268 4.316,6.115 5.103,6.115L5.48,6.115L5.48,7.007L5.224,7.007C4.815,7.007 4.521,7.096 4.343,7.272C4.165,7.448 4.075,7.741 4.075,8.151L4.075,9.759C4.075,10.144 3.956,10.443 3.717,10.657C3.478,10.871 3.123,10.999 2.653,11.042L2.653,11.186C3.123,11.229 3.478,11.356 3.717,11.568C3.956,11.78 4.075,12.078 4.075,12.463L4.075,14.093C4.075,14.503 4.165,14.796 4.343,14.972C4.521,15.148 4.815,15.236 5.224,15.236L5.48,15.236L5.48,16.129L5.103,16.129ZM6.813,16.119L6.438,16.119L6.438,15.227L6.692,15.227C7.099,15.227 7.391,15.139 7.569,14.963C7.746,14.786 7.835,14.493 7.835,14.084L7.835,12.454C7.835,12.069 7.954,11.771 8.191,11.559C8.429,11.347 8.784,11.219 9.255,11.177L9.255,11.032C8.784,10.99 8.429,10.861 8.191,10.648C7.954,10.434 7.835,10.135 7.835,9.75L7.835,8.141C7.835,7.732 7.747,7.439 7.572,7.262C7.396,7.086 7.103,6.998 6.692,6.998L6.438,6.998L6.438,6.106L6.813,6.106C7.595,6.106 8.168,6.259 8.533,6.565C8.898,6.872 9.08,7.351 9.08,8.003L9.08,9.387C9.08,9.803 9.181,10.095 9.382,10.26C9.584,10.426 9.938,10.509 10.446,10.509L10.446,11.695C9.938,11.699 9.584,11.783 9.382,11.949C9.181,12.114 9.08,12.404 9.08,12.817L9.08,14.217C9.08,14.869 8.898,15.349 8.533,15.657C8.168,15.965 7.595,16.119 6.813,16.119Z" style="fill-opacity:0.5;"/>
        </g>
        <g id="Private" transform="matrix(1.00896,0,0,1.00896,-0.506419,0.117929)">
            <path d="M13.386,-0.117C15.027,-0.117 16.36,1.215 16.36,2.856C16.36,4.498 15.027,5.83 13.386,5.83C11.745,5.83 10.413,4.498 10.413,2.856C10.413,1.215 11.745,-0.117 13.386,-0.117ZM14.361,1.187C14.075,1.02 13.742,0.923 13.386,0.923C12.32,0.923 11.453,1.79 11.453,2.856C11.453,3.212 11.55,3.545 11.717,3.831L14.361,1.187ZM12.391,4.514C12.682,4.689 13.023,4.789 13.386,4.789C14.453,4.789 15.319,3.923 15.319,2.856C15.319,2.493 15.219,2.152 15.044,1.861L12.391,4.514Z" style="fill:rgb(0,102,210);"/>
        </g>
    </g>
</svg>
