<?xml version="1.0" encoding="UTF-8" standalone="no"?>
<!DOCTYPE svg PUBLIC "-//W3C//DTD SVG 1.1//EN" "http://www.w3.org/Graphics/SVG/1.1/DTD/svg11.dtd">
<svg width="100%" height="100%" viewBox="0 0 16 16" version="1.1" xmlns="http://www.w3.org/2000/svg" xmlns:xlink="http://www.w3.org/1999/xlink" xml:space="preserve" xmlns:serif="http://www.serif.com/" style="fill-rule:evenodd;clip-rule:evenodd;stroke-linejoin:round;stroke-miterlimit:2;fill:white;">
    <g id="mrsServicePublished" transform="matrix(0.015625,0,0,0.015625,0,0)">
        <path d="M156.365,305.104C154.613,285.75 146.289,267.113 132.017,252.66L109.757,230.4C104.432,225.075 101.423,217.813 101.423,210.282C101.423,202.72 104.432,195.489 109.757,190.149L190.149,109.82C201.271,98.729 219.262,98.729 230.384,109.82L252.66,132.096C277.882,157.019 315.849,163.824 348.128,149.173C355.832,145.66 363.693,142.383 371.602,139.374C404.653,126.755 426.535,95.106 426.661,59.739L426.661,28.436C426.661,12.729 439.406,-0 455.113,-0L568.887,-0C584.594,-0 597.339,12.729 597.339,28.436L597.339,59.739C597.48,95.059 619.315,126.645 652.288,139.296C660.244,142.336 668.089,145.581 675.808,149.079C708.104,163.714 746.071,156.94 771.277,132.017L793.537,109.757C804.691,98.729 822.634,98.729 833.788,109.757L914.18,190.149C925.286,201.271 925.286,219.262 914.18,230.368L891.904,252.66C877.632,267.113 869.309,285.75 867.553,305.104L807.311,305.104C807.354,291.178 810.456,278.628 818.563,270.419L837.664,251.304C847.188,241.781 847.188,226.354 837.664,216.817L800.729,186.282C791.165,176.825 775.779,176.825 766.215,186.282L747.127,205.369C725.513,226.74 680.157,213.349 652.464,200.799C645.845,197.8 639.117,195.018 632.295,192.41C604.021,181.563 559.698,154.478 559.577,124.191L559.577,97.35C559.577,83.881 548.648,72.966 535.18,72.966L488.82,72.966C475.352,72.966 464.423,83.881 464.423,97.35L464.423,124.191C464.315,154.518 419.952,181.657 391.61,192.478C384.829,195.058 378.088,197.868 371.482,200.88C343.803,213.444 292.047,226.808 270.419,205.437L251.318,186.336C241.781,176.825 226.354,176.825 216.817,186.336L186.282,216.817C181.716,221.396 179.135,227.597 179.135,234.081C179.135,240.538 181.716,246.765 186.282,251.331L205.369,270.419C213.476,278.628 216.578,291.178 216.621,305.104L156.365,305.104ZM867.968,721.904C870.285,740.151 878.466,757.589 891.983,771.277L914.243,793.537C919.568,798.878 922.577,806.124 922.577,813.67C922.577,821.216 919.568,828.463 914.243,833.788L833.851,914.18C822.729,925.286 804.738,925.286 793.632,914.18L771.34,891.904C746.118,866.966 708.151,860.176 675.872,874.827C668.168,878.34 660.307,881.617 652.398,884.626C619.347,897.229 597.465,928.894 597.339,964.261L597.339,995.549C597.339,1011.27 584.594,1024 568.887,1024L455.113,1024C439.406,1024 426.661,1011.27 426.661,995.549L426.661,964.261C426.52,928.941 404.685,897.355 371.712,884.704C363.756,881.696 355.895,878.434 348.192,874.921C315.896,860.302 277.945,867.092 252.723,891.983L230.463,914.243C225.122,919.568 217.876,922.577 210.33,922.577C202.784,922.577 195.537,919.568 190.212,914.243L109.82,833.851C98.729,822.745 98.729,804.738 109.82,793.632L132.096,771.34C145.627,757.638 153.811,740.174 156.12,721.904L216.631,721.904C216.169,734.62 212.955,745.967 205.437,753.581L186.336,772.696C176.825,782.219 176.825,797.66 186.336,807.183L216.871,837.718C221.437,842.284 227.651,844.865 234.121,844.865C240.592,844.865 246.806,842.284 251.385,837.718L270.473,818.631C292.101,797.287 343.843,810.665 371.536,823.201C378.142,826.213 384.883,829.009 391.705,831.59C419.979,842.437 457.902,869.522 458.023,899.809L458.023,926.637C458.023,940.119 468.952,951.034 482.42,951.034L541.58,951.034C555.048,951.034 565.977,940.119 565.977,926.637L565.977,899.809C566.085,869.482 604.048,842.329 632.39,831.522C639.171,828.942 645.912,826.132 652.518,823.12C680.197,810.556 731.953,797.179 753.581,818.563L772.696,837.664C782.219,847.188 797.646,847.188 807.183,837.664L837.718,807.129C842.284,802.563 844.865,796.349 844.865,789.879C844.865,783.408 842.284,777.194 837.718,772.615L818.631,753.527C811.122,745.923 807.907,734.598 807.439,721.904L867.968,721.904ZM329.091,305.104C333.939,295.141 340.606,286.801 349.09,280.084C368.887,264.412 400.004,256.576 442.442,256.576L462.786,256.576L462.786,302.225L449.005,302.225C438.811,302.225 429.945,303.185 422.406,305.104L329.091,305.104ZM597.831,305.104C589.762,302.742 580.017,301.561 568.595,301.561L554.814,301.561L554.814,255.932L575.158,255.932C617.596,255.932 648.713,263.765 668.51,279.429C677.183,286.292 683.956,294.851 688.829,305.104L597.831,305.104ZM687.14,721.904C682.432,730.71 676.222,738.182 668.51,744.32C648.713,760.076 617.596,767.954 575.158,767.954L554.814,767.954L554.814,722.325L568.595,722.325C572.496,722.325 576.203,722.185 579.715,721.904L687.14,721.904ZM430.47,721.904C436.064,722.749 442.242,723.171 449.005,723.171L462.786,723.171L462.786,768.819L442.442,768.819C400.004,768.819 368.887,760.938 349.09,745.175C341.132,738.839 334.774,731.082 330.015,721.904L430.47,721.904Z"/>
        <g transform="matrix(1,0,0,1,0,256)">
            <path d="M226.752,447.993C225.836,448.002 224.919,448 224,448C100.371,448 -0,361.859 -0,255.757C-0,149.656 100.371,63.515 224,63.515C224.919,63.515 225.836,63.512 226.752,63.522L800,63.515C800.918,63.515 801.835,63.517 802.752,63.522C925.115,64.789 1024,150.444 1024,255.757C1024,361.071 925.115,446.726 802.752,447.993C801.835,447.998 800.918,448 800,448L226.752,447.993ZM125.79,385.772L277.979,385.772L277.979,341.255L174.477,341.255L174.477,127.784L125.79,127.784L125.79,385.772ZM335.373,385.772L384.061,385.772L384.061,127.784L335.373,127.784L335.373,385.772ZM514.567,385.772L574.54,385.772L652.086,127.784L597.353,127.784L546.005,325.79L543.103,325.79L491.755,127.784L437.021,127.784L514.567,385.772ZM705.046,385.772L859.171,385.772L859.171,341.255L753.734,341.255L753.734,276.087L853.206,276.087L853.206,234.609L753.734,234.609L753.734,172.302L859.171,172.302L859.171,127.784L705.046,127.784L705.046,385.772Z" style="fill:rgb(4,179,7);"/>
        </g>
    </g>
</svg>
