<?xml version="1.0" encoding="UTF-8" standalone="no"?>
<!DOCTYPE svg PUBLIC "-//W3C//DTD SVG 1.1//EN" "http://www.w3.org/Graphics/SVG/1.1/DTD/svg11.dtd">
<svg width="100%" height="100%" viewBox="0 0 16 16" version="1.1" xmlns="http://www.w3.org/2000/svg" xmlns:xlink="http://www.w3.org/1999/xlink" xml:space="preserve" xmlns:serif="http://www.serif.com/" style="fill-rule:evenodd;clip-rule:evenodd;stroke-linejoin:round;stroke-miterlimit:2;fill:white;">
    <g id="mrsServiceDefaultPublished" transform="matrix(0.015625,0,0,0.015625,0,0)">
        <path d="M155.874,300.864C153.361,283.042 145.244,266.054 132.017,252.66L109.757,230.4C104.432,225.075 101.423,217.813 101.423,210.282C101.423,202.72 104.432,195.489 109.757,190.149L190.149,109.82C201.271,98.729 219.262,98.729 230.384,109.82L252.66,132.096C277.882,157.019 315.849,163.824 348.128,149.173C355.832,145.66 363.693,142.383 371.602,139.374C404.653,126.755 426.535,95.106 426.661,59.739L426.661,28.436C426.661,12.729 439.406,-0 455.113,-0L568.887,-0C584.594,-0 597.339,12.729 597.339,28.436L597.339,59.739C597.48,95.059 619.315,126.645 652.288,139.296C660.244,142.336 668.089,145.581 675.808,149.079C708.104,163.714 746.071,156.94 771.277,132.017L793.537,109.757C804.691,98.729 822.634,98.729 833.788,109.757L914.18,190.149C925.286,201.271 925.286,219.262 914.18,230.368L891.904,252.66C878.677,266.054 870.56,283.042 868.045,300.864L686.652,300.864C682.006,292.469 675.959,285.324 668.51,279.429C648.713,263.765 617.596,255.932 575.158,255.932L554.814,255.932L554.814,300.864L462.786,300.864L462.786,256.576L442.442,256.576C400.004,256.576 368.887,264.412 349.09,280.084C341.838,285.825 335.914,292.752 331.319,300.864L155.874,300.864ZM868.498,725.474C871.378,742.417 879.35,758.484 891.983,771.277L914.243,793.537C919.568,798.878 922.577,806.124 922.577,813.67C922.577,821.216 919.568,828.463 914.243,833.788L833.851,914.18C822.729,925.286 804.738,925.286 793.632,914.18L771.34,891.904C746.118,866.966 708.151,860.176 675.872,874.827C668.168,878.34 660.307,881.617 652.398,884.626C619.347,897.229 597.465,928.894 597.339,964.261L597.339,995.549C597.339,1011.27 584.594,1024 568.887,1024L455.113,1024C439.406,1024 426.661,1011.27 426.661,995.549L426.661,964.261C426.52,928.941 404.685,897.355 371.712,884.704C363.756,881.696 355.895,878.434 348.192,874.921C315.896,860.302 277.945,867.092 252.723,891.983L230.463,914.243C225.122,919.568 217.876,922.577 210.33,922.577C202.784,922.577 195.537,919.568 190.212,914.243L109.82,833.851C98.729,822.745 98.729,804.738 109.82,793.632L132.096,771.34C144.743,758.533 152.719,742.44 155.592,725.474L331.989,725.474C336.485,733.111 342.186,739.678 349.09,745.175C368.887,760.938 400.004,768.819 442.442,768.819L462.786,768.819L462.786,725.474L554.814,725.474L554.814,767.954L575.158,767.954C617.596,767.954 648.713,760.076 668.51,744.32C675.158,739.029 680.689,732.747 685.105,725.474L868.498,725.474Z"/>
        <g transform="matrix(1,0,0,1,0,256)">
            <path d="M226.752,447.993C225.836,448.002 224.919,448 224,448C100.371,448 -0,361.859 -0,255.757C-0,149.656 100.371,63.515 224,63.515C224.919,63.515 225.836,63.512 226.752,63.522L800,63.515C800.918,63.515 801.835,63.517 802.752,63.522C925.115,64.789 1024,150.444 1024,255.757C1024,361.071 925.115,446.726 802.752,447.993C801.835,447.998 800.918,448 800,448L226.752,447.993ZM125.79,385.772L277.979,385.772L277.979,341.255L174.477,341.255L174.477,127.784L125.79,127.784L125.79,385.772ZM705.046,385.772L859.171,385.772L859.171,341.255L753.734,341.255L753.734,276.087L853.206,276.087L853.206,234.609L753.734,234.609L753.734,172.302L859.171,172.302L859.171,127.784L705.046,127.784L705.046,385.772ZM514.567,385.772L574.54,385.772L652.086,127.784L597.353,127.784L546.005,325.79L543.103,325.79L491.755,127.784L437.021,127.784L514.567,385.772ZM335.373,385.772L384.061,385.772L384.061,127.784L335.373,127.784L335.373,385.772Z" style="fill:rgb(4,179,7);"/>
        </g>
    </g>
</svg>
