<?xml version="1.0" encoding="UTF-8" standalone="no"?>
<!DOCTYPE svg PUBLIC "-//W3C//DTD SVG 1.1//EN" "http://www.w3.org/Graphics/SVG/1.1/DTD/svg11.dtd">
<svg width="100%" height="100%" viewBox="0 0 16 16" version="1.1" xmlns="http://www.w3.org/2000/svg" xmlns:xlink="http://www.w3.org/1999/xlink" xml:space="preserve" xmlns:serif="http://www.serif.com/" style="fill-rule:evenodd;clip-rule:evenodd;stroke-linejoin:round;stroke-miterlimit:2;fill:white;">
    <g id="mrsServiceDefaultInDevelopment" transform="matrix(0.015625,0,0,0.015625,0,0)">
        <path d="M907.448,786.742L914.243,793.537C919.568,798.878 922.577,806.124 922.577,813.67C922.577,821.216 919.568,828.463 914.243,833.788L833.851,914.18C822.729,925.286 804.738,925.286 793.632,914.18L771.34,891.904C746.118,866.966 708.151,860.176 675.872,874.827C668.168,878.34 660.307,881.617 652.398,884.626C619.347,897.229 597.465,928.894 597.339,964.261L597.339,995.549C597.339,1011.27 584.594,1024 568.887,1024L455.113,1024C439.406,1024 426.661,1011.27 426.661,995.549L426.661,964.261C426.52,928.941 404.685,897.355 371.712,884.704C363.756,881.696 355.895,878.434 348.192,874.921C315.896,860.302 277.945,867.092 252.723,891.983L230.463,914.243C225.122,919.568 217.876,922.577 210.33,922.577C202.784,922.577 195.537,919.568 190.212,914.243L109.82,833.851C98.729,822.745 98.729,804.738 109.82,793.632L132.096,771.34C157.003,746.118 163.793,708.151 149.173,675.872C145.66,668.168 142.383,660.307 139.374,652.398C126.771,619.347 95.106,597.465 59.739,597.339L28.451,597.339C12.729,597.339 -0,584.594 -0,568.887L-0,455.113C-0,439.406 12.729,426.661 28.451,426.661L59.739,426.661C95.074,426.504 126.661,404.653 139.296,371.649C142.336,363.693 145.581,355.848 149.079,348.128C163.714,315.849 156.924,277.882 132.017,252.66L109.757,230.4C104.432,225.075 101.423,217.813 101.423,210.282C101.423,202.72 104.432,195.489 109.757,190.149L190.149,109.82C201.271,98.729 219.262,98.729 230.384,109.82L252.66,132.096C259.569,138.923 267.435,144.391 275.877,148.43C270.102,169.542 267.018,191.761 267.018,214.695C267.018,272.432 286.564,325.64 319.395,368.056L319.395,424.408C319.395,445.729 313.926,460.626 302.989,469.1C292.051,477.573 272.801,481.81 245.239,481.81L245.239,542.492C272.801,542.674 292.051,547.002 302.989,555.476C313.926,563.95 319.395,578.756 319.395,599.894L319.395,671.51C319.395,704.857 329.293,729.413 349.09,745.175C368.887,760.938 400.004,768.819 442.442,768.819L462.786,768.819L462.786,723.171L449.005,723.171C426.911,723.171 411.051,718.661 401.426,709.641C391.801,700.621 386.989,685.632 386.989,664.676L386.989,581.307C386.989,561.626 380.536,546.365 367.629,535.522C354.723,524.679 335.582,518.165 310.207,515.978L310.207,508.598C335.582,506.411 354.723,499.851 367.629,488.917C380.536,477.983 386.989,462.676 386.989,442.996L386.989,428.705C425.107,452.086 469.937,465.57 517.893,465.57C531.444,465.57 544.745,464.494 557.716,462.421L640.462,545.167C633.895,554.704 630.611,566.489 630.611,580.522L630.611,663.855C630.611,684.803 625.799,699.784 616.174,708.801C606.549,717.817 590.689,722.325 568.595,722.325L554.814,722.325L554.814,767.954L575.158,767.954C617.596,767.954 648.713,760.076 668.51,744.32C688.307,728.564 698.205,704.019 698.205,670.686L698.205,602.91L856.007,760.712C873.743,778.448 891.433,785.5 907.448,786.742ZM763.037,268.209C766.79,250.964 768.768,233.059 768.768,214.695C768.768,189.639 765.086,165.436 758.236,142.598C762.861,139.547 767.233,136.016 771.277,132.017L793.537,109.757C804.691,98.729 822.634,98.729 833.788,109.757L914.18,190.149C925.286,201.271 925.286,219.262 914.18,230.368L891.904,252.66C866.997,277.882 860.207,315.849 874.827,348.128C878.34,355.832 881.617,363.693 884.626,371.602C897.229,404.653 928.894,426.535 964.261,426.661L995.549,426.661C1011.27,426.661 1024,439.406 1024,455.113L1024,529.172L763.037,268.209Z"/>
        <g transform="matrix(-0.073183,0,0,-0.073183,1040.43,733.049)">
            <path d="M6930,9590C6352,9530 5839,9289 5439,8890C5294,8746 5218,8653 5109,8487C4931,8216 4810,7905 4750,7569C4719,7396 4711,7038 4734,6860C4755,6705 4790,6545 4836,6399L4872,6287L2872,4286C1773,3185 859,2267 843,2245C690,2044 616,1765 649,1516C729,919 1309,525 1890,673C2002,702 2078,734 2180,797C2245,836 2534,1122 4271,2857L6287,4872L6396,4837C6796,4707 7228,4681 7635,4761C8094,4852 8515,5072 8854,5400C9472,5997 9731,6877 9534,7710C9512,7803 9456,7990 9442,8014C9440,8018 9092,7677 8671,7256L7904,6489L7434,6544C7176,6574 6896,6607 6812,6617C6729,6626 6655,6637 6648,6641C6640,6646 6610,6870 6563,7277L6489,7904L8023,9438L7989,9453C7894,9492 7661,9551 7500,9575C7374,9594 7049,9602 6930,9590Z" style="fill:rgb(0,102,210);fill-rule:nonzero;"/>
        </g>
    </g>
</svg>
