<?xml version="1.0" encoding="UTF-8" standalone="no"?>
<!DOCTYPE svg PUBLIC "-//W3C//DTD SVG 1.1//EN" "http://www.w3.org/Graphics/SVG/1.1/DTD/svg11.dtd">
<svg width="100%" height="100%" viewBox="0 0 16 16" version="1.1" xmlns="http://www.w3.org/2000/svg" xmlns:xlink="http://www.w3.org/1999/xlink" xml:space="preserve" xmlns:serif="http://www.serif.com/" style="fill-rule:evenodd;clip-rule:evenodd;stroke-linejoin:round;stroke-miterlimit:2;fill:white;">
    <g id="mrsServiceInDevelopment" transform="matrix(0.015625,0,0,0.015625,0,0)">
        <path d="M907.448,786.742L914.243,793.537C919.568,798.878 922.577,806.124 922.577,813.67C922.577,821.216 919.568,828.463 914.243,833.788L833.851,914.18C822.729,925.286 804.738,925.286 793.632,914.18L771.34,891.904C746.118,866.966 708.151,860.176 675.872,874.827C668.168,878.34 660.307,881.617 652.398,884.626C619.347,897.229 597.465,928.894 597.339,964.261L597.339,995.549C597.339,1011.27 584.594,1024 568.887,1024L455.113,1024C439.406,1024 426.661,1011.27 426.661,995.549L426.661,964.261C426.52,928.941 404.685,897.355 371.712,884.704C363.756,881.696 355.895,878.434 348.192,874.921C315.896,860.302 277.945,867.092 252.723,891.983L230.463,914.243C225.122,919.568 217.876,922.577 210.33,922.577C202.784,922.577 195.537,919.568 190.212,914.243L109.82,833.851C98.729,822.745 98.729,804.738 109.82,793.632L132.096,771.34C157.003,746.118 163.793,708.151 149.173,675.872C145.66,668.168 142.383,660.307 139.374,652.398C126.771,619.347 95.106,597.465 59.739,597.339L28.451,597.339C12.729,597.339 -0,584.594 -0,568.887L-0,455.113C-0,439.406 12.729,426.661 28.451,426.661L59.739,426.661C95.074,426.504 126.661,404.653 139.296,371.649C142.336,363.693 145.581,355.848 149.079,348.128C163.714,315.849 156.924,277.882 132.017,252.66L109.757,230.4C104.432,225.075 101.423,217.813 101.423,210.282C101.423,202.72 104.432,195.489 109.757,190.149L190.149,109.82C201.271,98.729 219.262,98.729 230.384,109.82L252.66,132.096C259.569,138.923 267.435,144.391 275.877,148.43C271.145,165.727 268.22,183.768 267.318,202.335L251.318,186.336C241.781,176.825 226.354,176.825 216.817,186.336L186.282,216.817C181.716,221.396 179.135,227.597 179.135,234.081C179.135,240.538 181.716,246.765 186.282,251.331L205.369,270.419C226.727,292.047 213.349,343.803 200.799,371.482C197.8,378.101 195.018,384.829 192.41,391.651C181.576,419.952 154.491,457.888 124.191,458.023L97.363,458.023C83.881,458.023 72.966,468.952 72.966,482.42L72.966,541.58C72.966,555.048 83.881,565.977 97.363,565.977L124.191,565.977C154.518,566.085 181.671,604.048 192.478,632.39C195.058,639.171 197.868,645.912 200.88,652.518C213.417,680.197 226.794,731.953 205.437,753.581L186.336,772.696C176.825,782.219 176.825,797.66 186.336,807.183L216.871,837.718C221.437,842.284 227.651,844.865 234.121,844.865C240.592,844.865 246.806,842.284 251.385,837.718L270.473,818.631C292.101,797.287 343.843,810.665 371.536,823.201C378.142,826.213 384.883,829.009 391.705,831.59C419.979,842.437 457.902,869.522 458.023,899.809L458.023,926.637C458.023,940.119 468.952,951.034 482.42,951.034L541.58,951.034C555.048,951.034 565.977,940.119 565.977,926.637L565.977,899.809C566.085,869.482 604.048,842.329 632.39,831.522C639.171,828.942 645.912,826.132 652.518,823.12C680.197,810.556 731.953,797.179 753.581,818.563L772.696,837.664C782.219,847.188 797.646,847.188 807.183,837.664L837.718,807.129C842.284,802.563 844.865,796.349 844.865,789.879C844.865,783.408 842.284,777.194 837.718,772.615L818.631,753.527C809.267,744.044 806.58,728.773 807.573,712.278L856.007,760.712C873.743,778.448 891.433,785.5 907.448,786.742ZM698.205,602.91L698.205,670.686C698.205,704.019 688.307,728.564 668.51,744.32C648.713,760.076 617.596,767.954 575.158,767.954L554.814,767.954L554.814,722.325L568.595,722.325C590.689,722.325 606.549,717.817 616.174,708.801C625.799,699.784 630.611,684.803 630.611,663.855L630.611,580.522C630.611,566.489 633.895,554.704 640.462,545.167L698.205,602.91ZM807.574,312.746C806.399,295.84 808.996,280.107 818.563,270.419L837.664,251.304C847.188,241.781 847.188,226.354 837.664,216.817L800.729,186.282C791.449,177.106 776.685,176.834 767.08,185.466C765.369,170.752 762.383,156.425 758.236,142.598C762.861,139.547 767.233,136.016 771.277,132.017L793.537,109.757C804.691,98.729 822.634,98.729 833.788,109.757L914.18,190.149C925.286,201.271 925.286,219.262 914.18,230.368L891.904,252.66C866.997,277.882 860.207,315.849 874.827,348.128C878.34,355.832 881.617,363.693 884.626,371.602C897.229,404.653 928.894,426.535 964.261,426.661L995.549,426.661C1011.27,426.661 1024,439.406 1024,455.113L1024,529.172L807.574,312.746ZM386.989,428.705L386.989,442.996C386.989,462.676 380.536,477.983 367.629,488.917C354.723,499.851 335.582,506.411 310.207,508.598L310.207,515.978C335.582,518.165 354.723,524.679 367.629,535.522C380.536,546.365 386.989,561.626 386.989,581.307L386.989,664.676C386.989,685.632 391.801,700.621 401.426,709.641C411.051,718.661 426.911,723.171 449.005,723.171L462.786,723.171L462.786,768.819L442.442,768.819C400.004,768.819 368.887,760.938 349.09,745.175C329.293,729.413 319.395,704.857 319.395,671.51L319.395,599.894C319.395,578.756 313.926,563.95 302.989,555.476C292.051,547.002 272.801,542.674 245.239,542.492L245.239,481.81C272.801,481.81 292.051,477.573 302.989,469.1C313.926,460.626 319.395,445.729 319.395,424.408L319.395,368.056C338.029,392.13 360.941,412.728 386.989,428.705Z"/>
        <g transform="matrix(-0.073183,0,0,-0.073183,1040.43,733.049)">
            <path d="M6930,9590C6352,9530 5839,9289 5439,8890C5294,8746 5218,8653 5109,8487C4931,8216 4810,7905 4750,7569C4719,7396 4711,7038 4734,6860C4755,6705 4790,6545 4836,6399L4872,6287L2872,4286C1773,3185 859,2267 843,2245C690,2044 616,1765 649,1516C729,919 1309,525 1890,673C2002,702 2078,734 2180,797C2245,836 2534,1122 4271,2857L6287,4872L6396,4837C6796,4707 7228,4681 7635,4761C8094,4852 8515,5072 8854,5400C9472,5997 9731,6877 9534,7710C9512,7803 9456,7990 9442,8014C9440,8018 9092,7677 8671,7256L7904,6489L7434,6544C7176,6574 6896,6607 6812,6617C6729,6626 6655,6637 6648,6641C6640,6646 6610,6870 6563,7277L6489,7904L8023,9438L7989,9453C7894,9492 7661,9551 7500,9575C7374,9594 7049,9602 6930,9590Z" style="fill:rgb(0,102,210);fill-rule:nonzero;"/>
        </g>
    </g>
</svg>
