<?xml version="1.0" encoding="UTF-8" standalone="no"?>
<!DOCTYPE svg PUBLIC "-//W3C//DTD SVG 1.1//EN" "http://www.w3.org/Graphics/SVG/1.1/DTD/svg11.dtd">
<svg width="100%" height="100%" viewBox="0 0 16 16" version="1.1" xmlns="http://www.w3.org/2000/svg" xmlns:xlink="http://www.w3.org/1999/xlink" xml:space="preserve" xmlns:serif="http://www.serif.com/" style="fill-rule:evenodd;clip-rule:evenodd;stroke-linejoin:round;stroke-miterlimit:2;fill:white;">
    <g id="mrsServiceDefaultDisabled" transform="matrix(0.015625,0,0,0.015625,0,0)">
        <path d="M1024,511.618L1024,568.887C1024,584.594 1011.27,597.339 995.549,597.339L964.261,597.339C928.941,597.48 897.355,619.315 884.704,652.288C881.696,660.244 878.434,668.089 874.921,675.808C860.286,708.104 867.076,746.055 891.983,771.277L914.243,793.537C919.568,798.878 922.577,806.124 922.577,813.67C922.577,821.216 919.568,828.463 914.243,833.788L833.851,914.18C822.729,925.286 804.738,925.286 793.632,914.18L771.34,891.904C746.118,866.966 708.151,860.176 675.872,874.827C668.168,878.34 660.307,881.617 652.398,884.626C619.347,897.229 597.465,928.894 597.339,964.261L597.339,995.549C597.339,1011.27 584.594,1024 568.887,1024L455.113,1024C439.406,1024 426.661,1011.27 426.661,995.549L426.661,964.261C426.52,928.941 404.685,897.355 371.712,884.704C363.756,881.696 355.895,878.434 348.192,874.921C315.896,860.302 277.945,867.092 252.723,891.983L230.463,914.243C225.122,919.568 217.876,922.577 210.33,922.577C202.784,922.577 195.537,919.568 190.212,914.243L109.82,833.851C98.729,822.745 98.729,804.738 109.82,793.632L132.096,771.34C157.003,746.118 163.793,708.151 149.173,675.872C145.66,668.168 142.383,660.307 139.374,652.398C126.771,619.347 95.106,597.465 59.739,597.339L28.451,597.339C12.729,597.339 -0,584.594 -0,568.887L-0,455.113C-0,439.406 12.729,426.661 28.451,426.661L59.739,426.661C95.074,426.504 126.661,404.653 139.296,371.649C142.336,363.693 145.581,355.848 149.079,348.128C163.714,315.849 156.924,277.882 132.017,252.66L109.757,230.4C104.432,225.075 101.423,217.813 101.423,210.282C101.423,202.72 104.432,195.489 109.757,190.149L190.149,109.82C201.271,98.729 219.262,98.729 230.384,109.82L252.66,132.096C277.882,157.019 315.849,163.824 348.128,149.173C355.832,145.66 363.693,142.383 371.602,139.374C404.653,126.755 426.535,95.106 426.661,59.739L426.661,28.436C426.661,12.729 439.406,-0 455.113,-0L546.094,-0L511.498,30.956L511.498,123.471L605.284,222.991L572.918,255.932L554.814,255.932L554.814,274.358L511.498,318.445L511.498,391.372L632.203,511.618L697.007,511.618L701.363,507.196C703.437,507.444 705.556,507.66 707.721,507.845L707.721,515.222C682.127,517.407 662.877,523.919 649.971,534.757C637.064,545.595 630.611,560.85 630.611,580.522L630.611,663.855C630.611,684.803 625.799,699.784 616.174,708.801C606.549,717.817 590.689,722.325 568.595,722.325L554.814,722.325L554.814,767.954L575.158,767.954C617.596,767.954 648.713,760.076 668.51,744.32C688.307,728.564 698.205,704.019 698.205,670.686L698.205,599.101C698.205,577.972 703.674,563.172 714.611,554.703C725.549,546.233 744.799,541.907 772.361,541.724L772.361,481.069C755.774,481.069 742.196,479.535 731.63,476.467L798.964,408.105L901.24,511.618L1024,511.618ZM442.442,768.819L462.786,768.819L462.786,723.171L449.005,723.171C426.911,723.171 411.051,718.661 401.426,709.641C391.801,700.621 386.989,685.632 386.989,664.676L386.989,581.307C386.989,561.626 380.536,546.365 367.629,535.522C354.723,524.679 335.582,518.165 310.207,515.978L310.207,508.598C335.582,506.411 354.723,499.851 367.629,488.917C380.536,477.983 386.989,462.676 386.989,442.996L386.989,360.72C386.989,339.763 391.801,324.775 401.426,315.755C411.051,306.735 426.911,302.225 449.005,302.225L462.786,302.225L462.786,256.576L442.442,256.576C400.004,256.576 368.887,264.412 349.09,280.084C329.293,295.755 319.395,320.265 319.395,353.613L319.395,424.408C319.395,445.729 313.926,460.626 302.989,469.1C292.051,477.573 272.801,481.81 245.239,481.81L245.239,542.492C272.801,542.674 292.051,547.002 302.989,555.476C313.926,563.95 319.395,578.756 319.395,599.894L319.395,671.51C319.395,704.857 329.293,729.413 349.09,745.175C368.887,760.938 400.004,768.819 442.442,768.819Z"/>
        <g id="_-" transform="matrix(12.0284,12.0284,-12.0284,12.0284,801.38,-162.107)">
            <g id="Disabled">
                <path id="_-1" serif:id="_-" d="M0,12.311L12.123,12.311L12.123,0L19.683,-0L19.683,12.318L32,12.318L32,19.848L19.68,19.848L19.68,32L12.144,32L12.144,19.828L0,19.828L0,12.311Z" style="fill:rgb(209,2,0);fill-rule:nonzero;"/>
            </g>
        </g>
    </g>
</svg>
