<?xml version="1.0" encoding="UTF-8" standalone="no"?>
<!DOCTYPE svg PUBLIC "-//W3C//DTD SVG 1.1//EN" "http://www.w3.org/Graphics/SVG/1.1/DTD/svg11.dtd">
<svg width="100%" height="100%" viewBox="0 0 16 16" version="1.1" xmlns="http://www.w3.org/2000/svg" xmlns:xlink="http://www.w3.org/1999/xlink" xml:space="preserve" xmlns:serif="http://www.serif.com/" style="fill-rule:evenodd;clip-rule:evenodd;stroke-linejoin:round;stroke-miterlimit:2;">
    <g id="mrsServiceDefaultDisabled" transform="matrix(0.015625,0,0,0.015625,0,0)">
        <path d="M600.218,942.748C598.34,949.653 597.365,956.877 597.339,964.261L597.339,995.549C597.339,1011.27 584.594,1024 568.887,1024L455.113,1024C439.406,1024 426.661,1011.27 426.661,995.549L426.661,964.261C426.52,928.941 404.685,897.355 371.712,884.704C363.756,881.696 355.895,878.434 348.192,874.921C315.896,860.302 277.945,867.092 252.723,891.983L230.463,914.243C225.122,919.568 217.876,922.577 210.33,922.577C202.784,922.577 195.537,919.568 190.212,914.243L109.82,833.851C98.729,822.745 98.729,804.738 109.82,793.632L132.096,771.34C157.003,746.118 163.793,708.151 149.173,675.872C145.66,668.168 142.383,660.307 139.374,652.398C126.771,619.347 95.106,597.465 59.739,597.339L28.451,597.339C12.729,597.339 -0,584.594 -0,568.887L-0,455.113C-0,439.406 12.729,426.661 28.451,426.661L59.739,426.661C95.074,426.504 126.661,404.653 139.296,371.649C142.336,363.693 145.581,355.848 149.079,348.128C163.714,315.849 156.924,277.882 132.017,252.66L109.757,230.4C104.432,225.075 101.423,217.813 101.423,210.282C101.423,202.72 104.432,195.489 109.757,190.149L190.149,109.82C201.271,98.729 219.262,98.729 230.384,109.82L252.66,132.096C277.882,157.019 315.849,163.824 348.128,149.173C355.832,145.66 363.693,142.383 371.602,139.374C404.653,126.755 426.535,95.106 426.661,59.739L426.661,28.436C426.661,12.729 439.406,-0 455.113,-0L568.887,-0C584.594,-0 597.339,12.729 597.339,28.436L597.339,59.739C597.48,95.059 619.315,126.645 652.288,139.296C660.244,142.336 668.089,145.581 675.808,149.079C708.104,163.714 746.071,156.94 771.277,132.017L793.537,109.757C804.691,98.729 822.634,98.729 833.788,109.757L914.18,190.149C925.286,201.271 925.286,219.262 914.18,230.368L891.904,252.66C866.997,277.882 860.207,315.849 874.827,348.128C878.34,355.832 881.617,363.693 884.626,371.602C897.229,404.653 928.894,426.535 964.261,426.661L995.549,426.661C1011.27,426.661 1024,439.406 1024,455.113L1024,568.887C1024,584.594 1011.27,597.339 995.549,597.339L964.261,597.339C956.88,597.368 949.661,598.345 942.76,600.226C905.921,578.851 863.138,566.654 817.529,566.654C784.741,566.654 753.414,572.958 724.697,584.427C726.578,570.206 731.763,559.797 740.211,553.198C751.149,544.655 770.399,540.291 797.961,540.107L797.961,478.925C770.399,478.925 751.149,474.653 740.211,466.109C729.274,457.566 723.805,442.546 723.805,421.049L723.805,349.669C723.805,316.046 713.907,291.334 694.11,275.533C674.313,259.732 643.196,251.832 600.758,251.832L580.414,251.832L580.414,297.857L594.195,297.857C616.508,297.857 632.422,302.404 641.938,311.499C651.453,320.594 656.211,335.705 656.211,356.835L656.211,439.79C656.211,459.633 662.664,475.066 675.571,486.09C688.477,497.114 707.727,503.729 733.321,505.933L733.321,513.374C707.727,515.579 688.477,522.148 675.571,533.08C662.664,544.012 656.211,559.399 656.211,579.242L656.211,625.511C625.416,651.382 600.933,684.521 585.417,722.278L580.414,722.278L580.414,735.487C571.494,761.189 566.654,788.798 566.654,817.529C566.654,863.138 578.851,905.921 600.218,942.748ZM423.242,768.303L443.586,768.303L443.586,722.278L429.805,722.278C407.711,722.278 391.851,717.73 382.226,708.636C372.601,699.541 367.789,684.429 367.789,663.3L367.789,579.242C367.789,559.399 361.336,544.012 348.429,533.08C335.523,522.148 316.382,515.579 291.007,513.374L291.007,505.933C316.382,503.729 335.523,497.114 348.429,486.09C361.336,475.066 367.789,459.633 367.789,439.79L367.789,356.835C367.789,335.705 372.601,320.594 382.226,311.499C391.851,302.404 407.711,297.857 429.805,297.857L443.586,297.857L443.586,251.832L423.242,251.832C380.804,251.832 349.687,259.732 329.89,275.533C310.093,291.334 300.195,316.046 300.195,349.669L300.195,421.049C300.195,442.546 294.726,457.566 283.789,466.109C272.851,474.653 253.601,478.925 226.039,478.925L226.039,540.107C253.601,540.291 272.851,544.655 283.789,553.198C294.726,561.742 300.195,576.67 300.195,597.983L300.195,670.19C300.195,703.813 310.093,728.571 329.89,744.464C349.687,760.356 380.804,768.303 423.242,768.303Z" style="fill:white;"/>
        <g transform="matrix(55.1808,0,0,55.1808,146.159,141.303)">
            <g id="Disabled">
                <circle cx="12.429" cy="12.517" r="3.479" style="fill:rgb(210,0,0);"/>
            </g>
        </g>
    </g>
</svg>
