<?xml version="1.0" encoding="UTF-8" standalone="no"?>
<!DOCTYPE svg PUBLIC "-//W3C//DTD SVG 1.1//EN" "http://www.w3.org/Graphics/SVG/1.1/DTD/svg11.dtd">
<svg width="100%" height="100%" viewBox="0 0 16 16" version="1.1" xmlns="http://www.w3.org/2000/svg" xmlns:xlink="http://www.w3.org/1999/xlink" xml:space="preserve" xmlns:serif="http://www.serif.com/" style="fill-rule:evenodd;clip-rule:evenodd;stroke-linejoin:round;stroke-miterlimit:2;fill:white;">
    <g id="mrsSchemaPrivate" transform="matrix(0.0186099,0,0,0.0165886,0.639293,-0.979156)">
        <g id="Schema" transform="matrix(53.7347,0,0,60.2823,-34.3522,59.0258)">
            <path d="M15,6.889L15,14.003L14.972,14.003L15.001,14.007C15.001,15.099 11.867,15.985 8,15.985C4.137,15.985 1.005,15.101 1,14.01L1,14.007L1,2L1,1.997C1,0.894 4.134,0 8,0C8.63,0 9.241,0.024 9.822,0.068C9.555,0.358 9.326,0.683 9.145,1.037C8.773,1.019 8.391,1.01 8,1.01C5.829,1.01 3.903,1.296 2.71,1.76C2.551,1.822 2.382,1.914 2.244,1.997C2.382,2.081 2.551,2.173 2.71,2.235C3.903,2.699 5.829,2.985 8,2.985C8.226,2.985 8.449,2.982 8.668,2.976C8.668,2.99 8.668,3.004 8.668,3.018C8.668,3.349 8.705,3.672 8.776,3.983C8.521,3.991 8.262,3.995 8,3.995C5.454,3.995 3.225,3.607 2,3.027L2,13.843C2.015,13.853 2.161,13.957 2.244,14.007C2.382,14.089 2.551,14.181 2.71,14.242C3.903,14.702 5.829,14.985 8,14.985C10.171,14.985 12.098,14.702 13.29,14.242C13.45,14.181 13.619,14.089 13.756,14.007L14,13.858L14,7.256C14.352,7.174 14.687,7.05 15,6.889ZM11.227,6.982L11.227,7.963C11.227,8.338 11.318,8.6 11.499,8.748C11.68,8.897 11.999,8.972 12.455,8.972L12.455,10.038C11.999,10.042 11.68,10.118 11.499,10.267C11.318,10.415 11.227,10.676 11.227,11.047L11.227,12.306C11.227,12.892 11.063,13.323 10.735,13.6C10.408,13.878 9.892,14.016 9.189,14.016L8.852,14.016L8.852,13.214L9.081,13.214C9.447,13.214 9.709,13.135 9.869,12.976C10.028,12.817 10.108,12.554 10.108,12.186L10.108,10.72C10.108,10.375 10.215,10.106 10.428,9.916C10.642,9.725 10.961,9.611 11.385,9.572L11.385,9.443C10.961,9.404 10.642,9.289 10.428,9.097C10.215,8.905 10.108,8.636 10.108,8.29L10.108,6.844C10.108,6.475 10.029,6.212 9.871,6.053C9.714,5.895 9.45,5.816 9.081,5.816L8.852,5.816L8.852,5.013L9.153,5.013C9.602,5.881 10.334,6.578 11.227,6.982ZM6.808,14.016C6.101,14.016 5.583,13.878 5.253,13.6C4.924,13.323 4.759,12.892 4.759,12.306L4.759,11.047C4.759,10.676 4.668,10.415 4.485,10.267C4.303,10.118 3.983,10.042 3.523,10.038L3.523,8.972C3.983,8.972 4.303,8.897 4.485,8.748C4.668,8.6 4.759,8.338 4.759,7.963L4.759,6.719C4.759,6.133 4.924,5.702 5.253,5.426C5.583,5.151 6.101,5.013 6.808,5.013L7.147,5.013L7.147,5.816L6.918,5.816C6.55,5.816 6.285,5.895 6.125,6.053C5.965,6.212 5.885,6.475 5.885,6.844L5.885,8.29C5.885,8.636 5.777,8.905 5.562,9.097C5.347,9.289 5.028,9.404 4.606,9.443L4.606,9.572C5.028,9.611 5.347,9.725 5.562,9.916C5.777,10.106 5.885,10.375 5.885,10.72L5.885,12.186C5.885,12.554 5.965,12.817 6.125,12.976C6.285,13.135 6.55,13.214 6.918,13.214L7.147,13.214L7.147,14.016L6.808,14.016Z" style="fill-opacity:0.5;"/>
        </g>
        <g id="Private" transform="matrix(54.2163,0,0,60.8226,-61.5645,66.1348)">
            <path d="M13.386,-0.117C15.027,-0.117 16.36,1.215 16.36,2.856C16.36,4.498 15.027,5.83 13.386,5.83C11.745,5.83 10.413,4.498 10.413,2.856C10.413,1.215 11.745,-0.117 13.386,-0.117ZM14.361,1.187C14.075,1.02 13.742,0.923 13.386,0.923C12.32,0.923 11.453,1.79 11.453,2.856C11.453,3.212 11.55,3.545 11.717,3.831L14.361,1.187ZM12.391,4.514C12.682,4.689 13.023,4.789 13.386,4.789C14.453,4.789 15.319,3.923 15.319,2.856C15.319,2.493 15.219,2.152 15.044,1.861L12.391,4.514Z" style="fill:rgb(0,102,210);"/>
        </g>
    </g>
</svg>
