<?xml version="1.0" encoding="UTF-8" standalone="no"?>
<!DOCTYPE svg PUBLIC "-//W3C//DTD SVG 1.1//EN" "http://www.w3.org/Graphics/SVG/1.1/DTD/svg11.dtd">
<svg width="100%" height="100%" viewBox="0 0 16 16" version="1.1" xmlns="http://www.w3.org/2000/svg" xmlns:xlink="http://www.w3.org/1999/xlink" xml:space="preserve" xmlns:serif="http://www.serif.com/" style="fill-rule:evenodd;clip-rule:evenodd;stroke-linejoin:round;stroke-miterlimit:2;fill:white;">
    <g id="mrsServiceLink" transform="matrix(0.015625,0,0,0.015625,0,0)">
        <path d="M477.609,1024L455.113,1024C439.406,1024 426.661,1011.27 426.661,995.549L426.661,964.261C426.52,928.941 404.685,897.355 371.712,884.704C363.756,881.696 355.895,878.434 348.192,874.921C315.896,860.302 277.945,867.092 252.723,891.983L230.463,914.243C225.122,919.568 217.876,922.577 210.33,922.577C202.784,922.577 195.537,919.568 190.212,914.243L109.82,833.851C98.729,822.745 98.729,804.738 109.82,793.632L132.096,771.34C157.003,746.118 163.793,708.151 149.173,675.872C145.66,668.168 142.383,660.307 139.374,652.398C126.771,619.347 95.106,597.465 59.739,597.339L28.451,597.339C12.729,597.339 -0,584.594 -0,568.887L-0,455.113C-0,439.406 12.729,426.661 28.451,426.661L59.739,426.661C95.074,426.504 126.661,404.653 139.296,371.649C142.336,363.693 145.581,355.848 149.079,348.128C163.714,315.849 156.924,277.882 132.017,252.66L109.757,230.4C104.432,225.075 101.423,217.813 101.423,210.282C101.423,202.72 104.432,195.489 109.757,190.149L190.149,109.82C201.271,98.729 219.262,98.729 230.384,109.82L252.66,132.096C277.882,157.019 315.849,163.824 348.128,149.173C355.832,145.66 363.693,142.383 371.602,139.374C404.653,126.755 426.535,95.106 426.661,59.739L426.661,28.436C426.661,12.729 439.406,-0 455.113,-0L568.887,-0C584.594,-0 597.339,12.729 597.339,28.436L597.339,59.739C597.48,95.059 619.315,126.645 652.288,139.296C660.244,142.336 668.089,145.581 675.808,149.079C708.104,163.714 746.071,156.94 771.277,132.017L793.537,109.757C804.691,98.729 822.634,98.729 833.788,109.757L914.18,190.149C925.286,201.271 925.286,219.262 914.18,230.368L891.904,252.66C866.997,277.882 860.207,315.849 874.827,348.128C878.34,355.832 881.617,363.693 884.626,371.602C897.229,404.653 928.894,426.535 964.261,426.661L995.549,426.661C1011.27,426.661 1024,439.406 1024,455.113L1024,478.92L950.785,478.92C949.088,467.108 938.929,458.023 926.637,458.023L899.809,458.023C869.482,457.915 842.329,419.952 831.522,391.61C828.942,384.829 826.132,378.088 823.12,371.482C810.583,343.803 797.206,292.047 818.563,270.419L837.664,251.304C847.188,241.781 847.188,226.354 837.664,216.817L800.729,186.282C791.165,176.825 775.779,176.825 766.215,186.282L747.127,205.369C725.513,226.74 680.157,213.349 652.464,200.799C645.845,197.8 639.117,195.018 632.295,192.41C604.021,181.563 559.698,154.478 559.577,124.191L559.577,97.35C559.577,83.881 548.648,72.966 535.18,72.966L488.82,72.966C475.352,72.966 464.423,83.881 464.423,97.35L464.423,124.191C464.315,154.518 419.952,181.657 391.61,192.478C384.829,195.058 378.088,197.868 371.482,200.88C343.803,213.444 292.047,226.808 270.419,205.437L251.318,186.336C241.781,176.825 226.354,176.825 216.817,186.336L186.282,216.817C181.716,221.396 179.135,227.597 179.135,234.081C179.135,240.538 181.716,246.765 186.282,251.331L205.369,270.419C226.727,292.047 213.349,343.803 200.799,371.482C197.8,378.101 195.018,384.829 192.41,391.651C181.576,419.952 154.491,457.888 124.191,458.023L97.363,458.023C83.881,458.023 72.966,468.952 72.966,482.42L72.966,541.58C72.966,555.048 83.881,565.977 97.363,565.977L124.191,565.977C154.518,566.085 181.671,604.048 192.478,632.39C195.058,639.171 197.868,645.912 200.88,652.518C213.417,680.197 226.794,731.953 205.437,753.581L186.336,772.696C176.825,782.219 176.825,797.66 186.336,807.183L216.871,837.718C221.437,842.284 227.651,844.865 234.121,844.865C240.592,844.865 246.806,842.284 251.385,837.718L270.473,818.631C292.101,797.287 343.843,810.665 371.536,823.201C378.142,826.213 384.883,829.009 391.705,831.59C419.979,842.437 457.902,869.522 458.023,899.809L458.023,926.637C458.023,938.47 466.443,948.326 477.609,950.56L477.609,1024ZM641.328,478.92C634.183,469.123 630.611,456.907 630.611,442.271L630.611,360.03C630.611,339.083 625.853,324.102 616.338,315.085C606.822,306.069 590.908,301.561 568.595,301.561L554.814,301.561L554.814,255.932L575.158,255.932C617.596,255.932 648.713,263.765 668.51,279.429C688.307,295.094 698.205,319.593 698.205,352.927L698.205,423.692C698.205,445.003 703.674,459.894 714.611,468.364C721.051,473.35 730.371,476.869 742.574,478.92L641.328,478.92ZM442.442,768.819C400.004,768.819 368.887,760.938 349.09,745.175C329.293,729.413 319.395,704.857 319.395,671.51L319.395,599.894C319.395,578.756 313.926,563.95 302.989,555.476C292.051,547.002 272.801,542.674 245.239,542.492L245.239,481.81C272.801,481.81 292.051,477.573 302.989,469.1C313.926,460.626 319.395,445.729 319.395,424.408L319.395,353.613C319.395,320.265 329.293,295.755 349.09,280.084C368.887,264.412 400.004,256.576 442.442,256.576L462.786,256.576L462.786,302.225L449.005,302.225C426.911,302.225 411.051,306.735 401.426,315.755C391.801,324.775 386.989,339.763 386.989,360.72L386.989,442.996C386.989,462.676 380.536,477.983 367.629,488.917C354.723,499.851 335.582,506.411 310.207,508.598L310.207,515.978C335.582,518.165 354.723,524.679 367.629,535.522C380.536,546.365 386.989,561.626 386.989,581.307L386.989,664.676C386.989,685.632 391.801,700.621 401.426,709.641C411.051,718.661 426.911,723.171 449.005,723.171L462.786,723.171L462.786,768.819L442.442,768.819Z"/>
        <g transform="matrix(64,0,0,64,448,64)">
            <path d="M8.5,7L1.5,7L1,7.5L1,14.5L1.5,15L8.5,15L9,14.5L9,7.5L8.5,7ZM8,14L2,14L2,8L8,8L8,14ZM7,9.5L7,12.5L6,12.5L6,10.707L3.354,13.354L2.646,12.646L5.293,10L3.53,10L3.53,9L6.5,9L7,9.5Z" style="fill:rgb(0,102,210);"/>
        </g>
    </g>
</svg>
