<?xml version="1.0" encoding="UTF-8" standalone="no"?>
<!DOCTYPE svg PUBLIC "-//W3C//DTD SVG 1.1//EN" "http://www.w3.org/Graphics/SVG/1.1/DTD/svg11.dtd">
<svg width="100%" height="100%" viewBox="0 0 16 16" version="1.1" xmlns="http://www.w3.org/2000/svg" xmlns:xlink="http://www.w3.org/1999/xlink" xml:space="preserve" xmlns:serif="http://www.serif.com/" style="fill-rule:evenodd;clip-rule:evenodd;stroke-linejoin:round;stroke-miterlimit:2;fill:white;">
    <g transform="matrix(0.0186099,0,0,0.0165886,0.639293,-0.979156)">
        <g id="mrsSchemaLocked">
            <path d="M771.678,541.264L771.669,903.133L770.187,903.133L771.705,903.391C771.705,969.251 603.293,1022.64 395.544,1022.64C187.974,1022.64 19.671,969.342 19.383,903.56L19.383,903.391L19.383,179.59C19.382,179.54 19.383,179.489 19.383,179.438C19.383,112.937 187.796,59.026 395.544,59.026C448.649,59.026 499.184,62.549 544.993,68.904L512.057,125.951C475.58,122.007 436.366,119.895 395.544,119.895C278.879,119.895 175.352,137.143 111.289,165.119C102.718,168.862 93.644,174.421 86.255,179.438C93.644,184.455 102.718,190.014 111.289,193.757C175.352,221.733 278.879,238.981 395.544,238.981C414.954,238.981 434.001,238.504 452.563,237.579L452.485,298.48C433.916,299.382 414.9,299.85 395.544,299.85C258.71,299.85 138.94,276.462 73.117,241.493L73.117,893.492C73.933,894.143 81.769,900.375 86.255,903.391C93.644,908.36 102.718,913.865 111.289,917.572C175.352,945.278 278.879,962.36 395.544,962.36C512.21,962.36 615.736,945.278 679.799,917.572C688.369,913.865 697.443,908.36 704.833,903.391L717.934,894.4L717.934,541.254L771.678,541.264ZM568.956,541.226C569.261,562.657 574.123,577.716 583.542,586.402C593.276,595.38 610.408,599.869 634.937,599.869L634.937,664.159C610.408,664.352 593.276,668.937 583.542,677.915C573.808,686.892 568.941,702.579 568.941,724.974L568.941,800.849C568.941,836.179 560.132,862.195 542.513,878.895C524.895,895.595 497.202,903.945 459.434,903.945L441.329,903.945L441.329,855.582L453.593,855.582C473.256,855.582 487.37,850.804 495.936,841.247C504.502,831.691 508.785,815.811 508.785,793.609L508.785,705.282C508.785,684.431 514.528,668.262 526.014,656.774C537.5,645.287 554.632,638.385 577.41,636.068L577.41,628.249C554.632,625.932 537.5,618.982 526.014,607.398C514.528,595.814 508.785,579.597 508.785,558.746L508.785,534.392L515.246,541.216L568.956,541.226ZM452.342,409.604L441.329,409.604L441.329,361.241L452.404,361.241L452.342,409.604ZM331.487,903.945C293.503,903.945 265.652,895.595 247.932,878.895C230.213,862.195 221.353,836.179 221.353,800.849L221.353,724.974C221.353,702.579 216.458,686.892 206.669,677.915C196.879,668.937 179.649,664.352 154.979,664.159L154.979,599.869C179.649,599.869 196.879,595.38 206.669,586.402C216.458,577.425 221.353,561.642 221.353,539.053L221.353,464.048C221.353,428.717 230.213,402.75 247.932,386.147C265.652,369.543 293.503,361.241 331.487,361.241L349.696,361.241L349.696,409.604L337.361,409.604C317.586,409.604 303.391,414.382 294.776,423.939C286.161,433.496 281.854,449.375 281.854,471.578L281.854,558.746C281.854,579.597 276.078,595.814 264.526,607.398C252.974,618.982 235.842,625.932 213.13,628.249L213.13,636.068C235.842,638.385 252.974,645.287 264.526,656.774C276.078,668.262 281.854,684.431 281.854,705.282L281.854,793.609C281.854,815.811 286.161,831.691 294.776,841.247C303.391,850.804 317.586,855.582 337.361,855.582L349.696,855.582L349.696,903.945L331.487,903.945Z"/>
            <g transform="matrix(32.3236,0,0,35.1372,405.197,-11.2486)">
                <path d="M3,8L3.933,7.144L11.933,7.144L13,8L13,13L12,14L4,14L3,13L3,8ZM4.655,8.851L4.672,12.309L11.338,12.318L11.337,8.877L4.655,8.851ZM11.317,7.144L11.33,5.009C11.33,3.363 9.646,2 8,2C6.354,2 4.673,3.373 4.673,5.018L4.684,7.144L6.36,7.144L6.322,5.514C6.322,4.417 6.898,3.744 7.995,3.744C9.092,3.744 9.673,4.425 9.673,5.523L9.686,7.144L11.317,7.144Z" style="fill:rgb(233,156,0);fill-rule:nonzero;"/>
            </g>
        </g>
    </g>
</svg>
