<?xml version="1.0" encoding="UTF-8" standalone="no"?>
<!DOCTYPE svg PUBLIC "-//W3C//DTD SVG 1.1//EN" "http://www.w3.org/Graphics/SVG/1.1/DTD/svg11.dtd">
<svg width="100%" height="100%" viewBox="0 0 16 16" version="1.1" xmlns="http://www.w3.org/2000/svg" xmlns:xlink="http://www.w3.org/1999/xlink" xml:space="preserve" xmlns:serif="http://www.serif.com/" style="fill-rule:evenodd;clip-rule:evenodd;stroke-linejoin:round;stroke-miterlimit:2;fill:white;">
    <g id="notebook">
        <path id="Notebook" d="M1,2L2,1L12,1L13,2L13,14L12,15L2,15L1,14L1,2ZM2,2L2,14L12,14L12,2L2,2ZM15,5L14,5L14,7L15,7L15,5ZM14,8L15,8L15,10L14,10L14,8ZM15,11L14,11L14,13L15,13L15,11Z"/>
        <g transform="matrix(1.14286,0,0,1,-1.57143,0)">
            <path d="M4,4L5,3L10,3L11,4L11,5L10,6L5,6L4,5L4,4ZM4.878,4L4.878,5L10.125,5L10.125,4L4.878,4Z"/>
        </g>
    </g>
</svg>
