<?xml version="1.0" encoding="UTF-8" standalone="no"?>
<!DOCTYPE svg PUBLIC "-//W3C//DTD SVG 1.1//EN" "http://www.w3.org/Graphics/SVG/1.1/DTD/svg11.dtd">
<svg width="100%" height="100%" viewBox="0 0 16 16" version="1.1" xmlns="http://www.w3.org/2000/svg" xmlns:xlink="http://www.w3.org/1999/xlink" xml:space="preserve" xmlns:serif="http://www.serif.com/" style="fill-rule:evenodd;clip-rule:evenodd;stroke-linejoin:round;stroke-miterlimit:2;">
    <g id="ociBastionNotActive">
        <path d="M4.207,15.061L1,11.854L1,11.147L4.207,7.94L4.914,8.647L2.561,11.001L9,11.001L9,12.001L2.56,12.001L4.914,14.354L4.207,15.061Z" style="fill:white;"/>
        <path d="M11.793,13.061L15,9.854L15,9.147L11.793,5.94L11.086,6.647L13.439,9L7,9L7,10L13.44,10L11.086,12.354L11.793,13.061Z" style="fill:white;"/>
        <path d="M9.524,1.22C9.312,1.121 9.083,1.054 8.843,1.021C7.742,0.871 6.669,1.479 6.231,2.5L5.898,3.262L5.089,3.073C4.904,3.027 4.714,3.003 4.523,3C3.861,3 3.226,3.263 2.759,3.732C2.293,4.201 2.031,4.836 2.031,5.497C2.031,6.129 2.27,6.709 2.664,7.15L1.651,7.532C1.229,6.943 1,6.233 1,5.501C1,3.824 2.205,2.371 3.853,2.06C4.34,1.968 4.84,1.982 5.321,2.1C5.942,0.678 7.44,-0.166 8.978,0.04C9.377,0.094 9.755,0.216 10.099,0.394C9.873,0.642 9.679,0.919 9.524,1.22ZM14.966,6.398C14.936,6.637 14.876,6.872 14.788,7.098L13.923,6.818C14.294,6.729 14.645,6.587 14.966,6.398Z" style="fill:white;"/>
        <g transform="matrix(0.862201,0,0,0.862201,2.28373,-7.77563)">
            <g id="NotActive">
                <circle cx="12.429" cy="12.517" r="3.479" style="fill:rgb(233,156,0);"/>
            </g>
        </g>
    </g>
</svg>
