<?xml version="1.0" encoding="UTF-8" standalone="no"?>
<!DOCTYPE svg PUBLIC "-//W3C//DTD SVG 1.1//EN" "http://www.w3.org/Graphics/SVG/1.1/DTD/svg11.dtd">
<svg width="100%" height="100%" viewBox="0 0 16 16" version="1.1" xmlns="http://www.w3.org/2000/svg" xmlns:xlink="http://www.w3.org/1999/xlink" xml:space="preserve" xmlns:serif="http://www.serif.com/" style="fill-rule:evenodd;clip-rule:evenodd;stroke-linejoin:round;stroke-miterlimit:2;fill:white;">
    <g transform="matrix(0.015625,0,0,0.015625,0,0)">
        <g id="router">
            <g transform="matrix(64,0,0,64,-638.987,-127.761)">
                <path d="M12.886,11.917L15,9.854L15,9.147L12.886,6.962L12.179,7.669L13.439,9L10.002,9L10.002,10L13.44,10L12.179,11.21L12.886,11.917Z"/>
            </g>
            <g transform="matrix(-64,0,0,64,1601.14,-127.761)">
                <path d="M12.886,11.917L15,9.854L15,9.147L12.886,6.962L12.179,7.669L13.439,9L10.002,9L10.002,10L13.44,10L12.179,11.21L12.886,11.917Z"/>
            </g>
            <g transform="matrix(1.17566e-14,-64,-64,-1.17566e-14,1087.82,960.146)">
                <path d="M12.886,11.917L15,9.854L15,9.147L12.886,6.962L12.179,7.669L13.439,9L10.002,9L10.002,10L13.44,10L12.179,11.21L12.886,11.917Z"/>
            </g>
            <g transform="matrix(1.17566e-14,64,-64,1.17566e-14,1087.82,0.0211346)">
                <path d="M12.886,11.917L15,9.854L15,9.147L12.886,6.962L12.179,7.669L13.439,9L10.002,9L10.002,10L13.44,10L12.179,11.21L12.886,11.917Z"/>
            </g>
        </g>
    </g>
</svg>
