<?xml version="1.0" encoding="UTF-8" standalone="no"?>
<!DOCTYPE svg PUBLIC "-//W3C//DTD SVG 1.1//EN" "http://www.w3.org/Graphics/SVG/1.1/DTD/svg11.dtd">
<svg width="100%" height="100%" viewBox="0 0 16 16" version="1.1" xmlns="http://www.w3.org/2000/svg" xmlns:xlink="http://www.w3.org/1999/xlink" xml:space="preserve" xmlns:serif="http://www.serif.com/" style="fill-rule:evenodd;clip-rule:evenodd;stroke-linejoin:round;stroke-miterlimit:2;fill:white;">
    <g transform="matrix(0.015625,0,0,0.015625,0,0)">
        <g id="routerNotActive">
            <g transform="matrix(64,0,0,64,-638.987,-127.761)">
                <path d="M12.886,11.917L15,9.854L15,9.147L12.886,6.962L12.179,7.669L13.439,9L10.002,9L10.002,10L13.44,10L12.179,11.21L12.886,11.917Z"/>
            </g>
            <g transform="matrix(-64,0,0,64,1601.14,-127.761)">
                <path d="M12.886,11.917L15,9.854L15,9.147L12.886,6.962L12.179,7.669L13.439,9L10.002,9L10.002,10L13.44,10L12.179,11.21L12.886,11.917Z"/>
            </g>
            <g transform="matrix(1.17566e-14,-64,-64,-1.17566e-14,1087.82,960.146)">
                <path d="M12.886,11.917L15,9.854L15,9.147L12.886,6.962L12.179,7.669L13.439,9L10.002,9L10.002,10L13.44,10L12.179,11.21L12.886,11.917Z"/>
            </g>
            <g transform="matrix(1.17566e-14,64,-64,1.17566e-14,1087.82,0.0211346)">
                <path d="M12.886,11.917L15,9.854L15,9.147L12.886,6.962L12.179,7.669L13.439,9L10.002,9L10.002,10L13.44,10L12.179,11.21L12.886,11.917Z"/>
            </g>
            <path d="M38.711,292.794C81.344,193.14 156.782,110.811 251.417,59.417L295.663,103.663C201.449,149.743 126.992,230.077 88.557,328.398L38.711,292.794ZM708.383,59.617C802.942,111.079 878.299,193.441 920.852,293.106L870.997,328.717C832.651,230.384 758.285,150.011 664.15,103.85L708.383,59.617ZM921.514,667.367C879.279,767.269 804.132,849.92 709.697,901.697L665.511,857.511C759.508,810.994 833.635,730.305 871.613,631.724L921.514,667.367ZM250.101,901.899C155.592,850.189 80.363,767.571 38.048,667.68L87.939,632.043C126.006,730.613 200.224,811.263 294.3,857.7L250.101,901.899Z"/>
            <g transform="matrix(55.1808,0,0,55.1808,146.159,-497.64)">
                <g id="NotActive">
                    <circle cx="12.429" cy="12.517" r="3.479" style="fill:rgb(233,156,0);"/>
                </g>
            </g>
        </g>
    </g>
</svg>
