<?xml version="1.0" encoding="UTF-8" standalone="no"?>
<!DOCTYPE svg PUBLIC "-//W3C//DTD SVG 1.1//EN" "http://www.w3.org/Graphics/SVG/1.1/DTD/svg11.dtd">
<svg width="100%" height="100%" viewBox="0 0 16 16" version="1.1" xmlns="http://www.w3.org/2000/svg" xmlns:xlink="http://www.w3.org/1999/xlink" xml:space="preserve" xmlns:serif="http://www.serif.com/" style="fill-rule:evenodd;clip-rule:evenodd;stroke-linejoin:round;stroke-miterlimit:2;fill:white;">
    <g transform="matrix(0.015625,0,0,0.015625,0,0)">
        <g id="routerNotActive">
            <path d="M185.726,634.946L140.478,589.698L221.173,512.239L1.138,512.239L1.138,448.239L221.109,448.239L140.478,363.073L185.726,317.825L321.013,457.647L321.013,502.895L185.726,634.946ZM776.426,634.946L641.138,502.895L641.138,457.647L776.426,317.825L821.674,363.073L741.042,448.239L961.013,448.239L961.013,512.239L740.978,512.239L821.674,589.698L776.426,634.946ZM325.114,135.434L457.165,0.146L502.413,0.146L642.235,135.434L596.987,180.682L511.821,100.05L511.821,320.021L447.821,320.021L447.821,99.986L370.362,180.682L325.114,135.434ZM325.114,824.734L370.362,779.486L447.821,860.181L447.821,640.146L511.821,640.146L511.821,860.117L596.987,779.486L642.235,824.734L502.413,960.021L457.165,960.021L325.114,824.734Z"/>
            <g transform="matrix(55.1808,0,0,55.1808,146.159,-497.64)">
                <g id="NotActive">
                    <circle cx="12.429" cy="12.517" r="3.479" style="fill:rgb(233,156,0);"/>
                </g>
            </g>
        </g>
    </g>
</svg>
