<?xml version="1.0" encoding="UTF-8" standalone="no"?>
<!DOCTYPE svg PUBLIC "-//W3C//DTD SVG 1.1//EN" "http://www.w3.org/Graphics/SVG/1.1/DTD/svg11.dtd">
<svg width="100%" height="100%" viewBox="0 0 16 16" version="1.1" xmlns="http://www.w3.org/2000/svg" xmlns:xlink="http://www.w3.org/1999/xlink" xml:space="preserve" xmlns:serif="http://www.serif.com/" style="fill-rule:evenodd;clip-rule:evenodd;stroke-linejoin:round;stroke-miterlimit:2;fill:white;">
    <g transform="matrix(0.169718,0,0,0.169718,0.188884,0.0446299)">
        <g id="schemaMySQLDefault">
            <path id="SQL-Editor-Icon" serif:id="SQL Editor Icon" d="M75.256,66.088L75.256,81.573L75.254,81.573L75.256,81.599C75.256,88.05 58.169,93.286 37.124,93.286C16.078,93.286 -1.008,88.05 -1.008,81.599L-1.007,81.573L-1.008,81.573L-1.008,61.18L-0.657,61.18C-0.877,61.75 -0.996,62.332 -1.008,62.923C-1.156,70.351 16.078,76.327 37.124,76.327C55.404,76.327 70.697,71.795 74.398,65.755L74.629,65.838C74.747,65.884 74.866,65.929 74.984,65.975L75.256,66.088ZM68.99,64.802C62.175,68.124 50.453,70.421 37.132,70.421C16.102,70.421 -0.96,64.697 -1.007,58.252L-1.008,58.224L-1.008,37.836C-1.005,47.042 16.066,52.818 37.124,52.818C38.465,52.818 39.79,52.783 41.094,52.716C41.991,56.16 43.66,59.346 46.569,61.639C50.78,64.958 58.205,65.29 59.996,60.277C62.276,63.38 65.969,64.193 68.317,64.79C68.544,64.79 68.769,64.794 68.99,64.802ZM91.946,49.524C92.448,50.194 92.898,50.117 92.879,48.608C92.86,47.083 92.744,46.686 92.391,45.061C92.131,43.866 90.533,39.427 89.113,36.178C88.144,33.96 86.62,30.882 85.412,28.894C79.614,19.35 73.372,13.588 63.704,7.926C61.647,6.723 59.199,6.105 56.553,5.626C54.72,5.294 53.743,5.456 52.338,5.369C51.481,5.013 50.589,3.962 49.785,3.451C46.582,1.426 38.366,-2.981 35.994,2.812C34.496,6.469 38.233,10.039 39.569,11.889C40.507,13.191 41.707,14.648 42.379,16.107C42.819,17.07 42.895,18.034 43.272,19.049C44.202,21.553 45.009,24.276 46.209,26.591C46.817,27.762 47.485,28.996 48.252,30.044C48.723,30.686 49.529,30.969 49.657,31.961C48.867,33.068 48.823,34.781 48.38,36.182C46.385,42.481 47.137,50.309 50.04,54.973C50.931,56.403 53.029,59.474 55.914,58.298C58.437,57.267 57.874,54.077 58.596,51.263C58.759,50.627 58.979,49.229 58.979,49.267C59.745,50.802 60.538,53.303 61.605,54.642C62.818,56.164 63.497,56.893 65.044,58.015C67.016,59.445 73.045,60.898 71.641,59.027C71.274,58.538 66.832,57.046 64.958,53.444C64.064,51.726 62.541,48.888 61.942,46.896C61.731,46.192 60.508,44.024 59.902,43.671C59.076,44.956 57.27,45.402 56.631,46.92C55.609,49.342 56.081,53.152 54.951,54.1C54.381,54.579 53.766,54.162 52.871,52.709C50.577,48.982 50.577,41.712 51.937,36.693C52.262,35.491 53.336,31.775 52.641,30.683C52.308,29.589 51.913,28.961 51.299,28.123C50.539,27.096 49.781,25.736 49.255,24.545C47.887,21.445 47.136,17.963 45.696,14.832C45.008,13.331 43.843,11.816 42.887,10.485C41.828,9.009 40.643,7.92 39.822,6.137C39.531,5.503 38.799,4.488 39.232,3.834C39.37,3.396 40.222,3.262 40.994,3.58C43.041,4.432 44.75,5.241 46.484,6.394C47.318,6.945 48.16,8.013 49.167,8.308L50.315,8.308C52.113,8.722 54.127,8.439 55.806,8.95C58.775,9.852 62.024,11.259 64.441,12.782C71.801,17.438 78.407,24.058 82.524,31.961C83.186,33.231 84.922,36.679 85.505,38.027C86.683,40.747 86.715,41.316 87.887,43.978C89.055,46.634 90.292,47.316 91.946,49.524ZM40.231,46.825C39.192,46.854 38.141,46.868 37.08,46.868C16.02,46.868 -1.008,41.319 -1.008,34.879L-1.008,14.486L-1.007,14.486C-0.974,23.374 15.924,29.211 36.963,29.211C37.831,29.211 38.693,29.196 39.549,29.167C40.166,30.242 40.827,31.168 41.519,31.814C41.647,32.695 39.854,39.553 40.231,46.825ZM-1.007,37.807L-1.008,37.831L-1.007,37.807ZM60.883,17.346C59.726,17.324 58.908,17.472 58.043,17.663L58.043,17.818C58.096,17.818 58.17,17.776 58.2,17.818C59.129,19.104 59.274,18.78 60.409,20.662C61.04,21.709 61.46,22.872 61.987,23.976C62.039,23.926 62.091,23.871 62.144,23.821C63.122,23.132 63.511,22.322 63.338,20.65C63.248,19.783 63.115,19.415 62.775,18.925C62.323,18.272 61.679,17.52 60.883,17.346ZM-0.89,12.454C5.495,6.084 15.351,2.273 30.119,2.542C26.566,7.586 34.331,15.194 35.207,18.005C35.413,18.67 36.034,20.85 36.944,23.339C16.993,23.307 0.639,18.467 -0.89,12.454Z"/>
        </g>
    </g>
</svg>
