<?xml version="1.0" encoding="UTF-8" standalone="no"?>
<!DOCTYPE svg PUBLIC "-//W3C//DTD SVG 1.1//EN" "http://www.w3.org/Graphics/SVG/1.1/DTD/svg11.dtd">
<svg width="100%" height="100%" viewBox="0 0 16 16" version="1.1" xmlns="http://www.w3.org/2000/svg" xmlns:xlink="http://www.w3.org/1999/xlink" xml:space="preserve" xmlns:serif="http://www.serif.com/" style="fill-rule:evenodd;clip-rule:evenodd;stroke-linejoin:round;stroke-miterlimit:2;fill:white;">
    <g id="schemaFunctionJs">
        <path d="M14.996,6L14.996,14.996L1,14.996L1,1L9.494,1L9.494,2.999L2,2.999L2,13.997L13.997,13.997L13.997,6L14.996,6Z"/>
        <g transform="matrix(0.959559,0,0,0.787222,0.396427,4.11863)">
            <path d="M8.97,1.834C8.932,1.909 8.895,1.986 8.859,2.067C8.698,2.426 8.558,2.822 8.44,3.255C8.321,3.687 8.229,4.136 8.163,4.601C8.097,5.066 8.064,5.524 8.064,5.974C8.064,6.426 8.097,6.884 8.163,7.349C8.229,7.814 8.321,8.263 8.44,8.696C8.558,9.129 8.698,9.524 8.859,9.882C9.02,10.24 9.194,10.539 9.381,10.778L8.402,10.778C8.066,10.344 7.788,9.878 7.57,9.38C7.351,8.882 7.188,8.349 7.082,7.782C6.976,7.216 6.923,6.613 6.923,5.974C6.923,5.332 6.975,4.729 7.08,4.164C7.186,3.598 7.347,3.066 7.566,2.567C7.785,2.068 8.064,1.603 8.402,1.172L8.97,1.172L8.97,1.834ZM11.361,2.387C11.389,2.446 11.417,2.507 11.443,2.567C11.662,3.066 11.824,3.598 11.929,4.164C12.034,4.729 12.086,5.332 12.086,5.974C12.086,6.613 12.033,7.216 11.927,7.782C11.821,8.349 11.659,8.882 11.442,9.38C11.225,9.879 10.946,10.345 10.607,10.778L9.628,10.778C9.815,10.539 9.989,10.24 10.15,9.882C10.312,9.524 10.451,9.129 10.57,8.696C10.688,8.263 10.78,7.814 10.847,7.349C10.913,6.884 10.946,6.426 10.946,5.974C10.946,5.524 10.913,5.066 10.847,4.601C10.78,4.136 10.688,3.687 10.57,3.255C10.485,2.947 10.39,2.658 10.285,2.387L11.361,2.387ZM3.754,8.741L3.748,4.93L2.713,4.93L2.718,3.674L3.754,3.674L3.754,2.77C3.754,2.399 3.785,2.091 3.911,1.847C4.036,1.603 4.227,1.42 4.484,1.3C4.741,1.18 5.062,1.119 5.449,1.119C5.575,1.119 5.691,1.124 5.799,1.133C5.907,1.142 6.01,1.155 6.108,1.172L6.108,2.183C6.056,2.174 5.994,2.167 5.92,2.163C5.846,2.159 5.767,2.157 5.681,2.157C5.374,2.157 5.154,2.229 5.022,2.375C4.891,2.52 4.788,2.735 4.788,3.018L4.788,3.674L5.834,3.674L5.828,4.93L4.793,4.93L4.799,8.741L3.754,8.741Z"/>
        </g>
        <g id="javascript" transform="matrix(0.403188,0,0,0.403188,6.42147,-3.95205)">
            <g id="javascript1" serif:id="javascript">
                <path id="javascript2" serif:id="javascript" d="M11.4,10L14.1,10L14.1,17.6C14.1,21 12.5,22.2 9.8,22.2C9.2,22.2 8.3,22.1 7.8,21.9L8.1,19.7C8.5,19.9 9,20 9.5,20C10.6,20 11.4,19.5 11.4,17.6L11.4,10ZM16.5,19.2C17.2,19.6 18.4,20 19.5,20C20.8,20 21.4,19.5 21.4,18.7C21.4,17.9 20.8,17.5 19.4,17C17.4,16.3 16.1,15.2 16.1,13.4C16.1,11.3 17.8,9.8 20.7,9.8C22.1,9.8 23.1,10.1 23.8,10.4L23.2,12.6C22.7,12.4 21.9,12 20.7,12C19.5,12 18.9,12.5 18.9,13.2C18.9,14 19.6,14.3 21.1,14.9C23.2,15.7 24.2,16.8 24.2,18.5C24.2,20.5 22.6,22.2 19.3,22.2C17.9,22.2 16.6,21.8 15.9,21.5L16.5,19.2Z" style="fill-rule:nonzero;"/>
            </g>
        </g>
    </g>
</svg>
