<?xml version="1.0" encoding="UTF-8" standalone="no"?>
<!DOCTYPE svg PUBLIC "-//W3C//DTD SVG 1.1//EN" "http://www.w3.org/Graphics/SVG/1.1/DTD/svg11.dtd">
<svg width="100%" height="100%" viewBox="0 0 16 16" version="1.1" xmlns="http://www.w3.org/2000/svg" xmlns:xlink="http://www.w3.org/1999/xlink" xml:space="preserve" xmlns:serif="http://www.serif.com/" style="fill-rule:evenodd;clip-rule:evenodd;stroke-linejoin:round;stroke-miterlimit:2;fill:white;">
    <g id="schemaView">
        <g transform="matrix(0.015621,0,0,0.015621,0.000254762,0.000254762)">
            <path d="M960,64L960,960L64,960L64,64L960,64ZM896,192L128,192L128,896L896,896L896,192Z" style="fill-rule:nonzero;"/>
        </g>
        <g transform="matrix(1,0,0,1,-1,-1)">
            <path d="M11,5L4,5L4,11L11,11L11,5ZM10,6L5,6L5,10L10,10L10,6Z"/>
        </g>
        <g transform="matrix(1,0,0,1,2,2)">
            <path d="M11,5L4,5L4,11L11,11L11,5ZM10,6L5,6L5,10L10,10L10,6Z"/>
        </g>
    </g>
</svg>
