<?xml version="1.0" encoding="UTF-8" standalone="no"?>
<!DOCTYPE svg PUBLIC "-//W3C//DTD SVG 1.1//EN" "http://www.w3.org/Graphics/SVG/1.1/DTD/svg11.dtd">
<svg width="100%" height="100%" viewBox="0 0 16 16" version="1.1" xmlns="http://www.w3.org/2000/svg" xmlns:xlink="http://www.w3.org/1999/xlink" xml:space="preserve" xmlns:serif="http://www.serif.com/" style="fill-rule:evenodd;clip-rule:evenodd;stroke-linejoin:round;stroke-miterlimit:2;fill:white;">
    <g id="schemaMySQL" transform="matrix(0.015625,0,0,0.015625,0,0)">
        <path d="M342.053,3.63C332.44,21.476 333.192,44.5 339.037,68.574C245.646,75.393 165.072,90.99 109.464,112.637C99.256,116.61 88.448,122.512 79.647,127.838C88.448,133.165 99.256,139.066 109.464,143.04C175.175,168.619 275.746,185.751 391.142,189.977C392.635,193.242 393.771,196.084 394.501,198.43C396.717,205.548 403.306,228.687 412.965,255.253C264.716,252.016 136.703,228.155 64,193.72L64,375.045C64.971,375.735 74.305,382.352 79.647,385.555C88.448,390.83 99.256,396.675 109.464,400.61C185.765,430.025 309.069,448.16 448.021,448.16L453.621,448.115C452.409,468.363 451.853,490.191 452.735,512.116L448.021,512.16C285.036,512.16 142.378,487.566 64,450.801L64,630.364C64.971,631.054 74.305,637.672 79.647,640.874C88.448,646.149 99.256,651.994 109.464,655.929C185.765,685.345 309.069,703.48 448.021,703.48C534.867,703.48 615.6,696.396 682.571,683.9C703.673,702.653 733.057,721.036 756.379,732.699C676.06,754.263 567.503,767.48 448.021,767.48C285.036,767.48 142.378,742.885 64,706.121L64,885.929C64.971,886.619 74.305,893.236 79.647,896.439C88.448,901.714 99.256,907.559 109.464,911.494C185.765,940.909 309.069,959.045 448.021,959.045C586.975,959.045 710.278,940.909 786.579,911.494C796.787,907.559 807.595,901.714 816.396,896.439L832,886.893L832,748.891C859.021,754.497 880.056,765.024 896,778.752L896,896.165L894.235,896.165L896.043,896.439C896.043,966.36 695.458,1023.05 448.021,1023.05C200.81,1023.05 0.361,966.462 0.001,896.618L0,896.618L0,128L0,128L-0,127.838C-0,67.65 145.778,17.175 342.053,3.63Z"/>
        <g transform="matrix(10.0335,0,0,10.0335,389.186,-62.7839)">
            <path d="M61.954,60.155C62.498,60.88 62.985,60.797 62.964,59.163C62.944,57.512 62.818,57.082 62.435,55.323C62.154,54.03 60.424,49.224 58.887,45.707C57.838,43.306 56.188,39.974 54.88,37.822C48.604,27.489 41.846,21.252 31.38,15.122C29.153,13.821 26.504,13.152 23.638,12.633C21.655,12.273 20.596,12.449 19.076,12.355C18.148,11.969 17.182,10.831 16.312,10.278C12.844,8.085 3.95,3.314 1.382,9.586C-0.239,13.545 3.806,17.41 5.252,19.413C6.268,20.822 7.567,22.399 8.294,23.979C8.771,25.022 8.853,26.065 9.261,27.164C10.267,29.875 11.141,32.823 12.44,35.329C13.098,36.596 13.821,37.933 14.652,39.067C15.162,39.762 16.035,40.068 16.173,41.142C15.318,42.34 15.27,44.195 14.791,45.712C12.631,52.53 13.445,61.005 16.588,66.054C17.553,67.602 19.824,70.926 22.947,69.653C25.678,68.537 25.068,65.084 25.85,62.038C26.027,61.349 26.265,59.836 26.265,59.877C27.094,61.539 27.952,64.246 29.108,65.696C30.421,67.344 31.156,68.132 32.831,69.347C34.966,70.896 41.492,72.468 39.972,70.443C39.575,69.913 35.404,68.298 33.375,64.399C32.407,62.539 30.121,59.466 29.473,57.31C29.244,56.549 27.985,53.583 27.264,53.819C26.038,54.221 23.959,55.667 23.268,57.31C22.161,59.932 22.26,65.006 21.662,65.696C21.134,66.305 21.009,65.271 20.041,63.698C17.558,59.663 17.807,51.699 19.279,46.265C19.632,44.964 20.794,40.941 20.041,39.759C19.681,38.574 18.615,37.257 17.95,36.35C17.128,35.237 16.211,33.693 15.643,32.404C14.161,29.048 13.452,25.978 11.892,22.588C11.147,20.964 9.879,19.334 8.844,17.893C7.698,16.295 6.415,15.116 5.526,13.185C5.211,12.5 4.399,11.51 4.868,10.802C5.017,10.328 5.959,10.073 6.795,10.418C9.011,11.34 10.861,12.215 12.739,13.464C13.641,14.061 14.553,15.217 15.643,15.536L16.886,15.536C18.832,15.985 21.012,15.678 22.83,16.231C26.044,17.207 29.562,18.731 32.178,20.38C40.146,25.42 47.297,32.586 51.754,41.142C52.471,42.517 54.35,46.249 54.982,47.709C56.257,50.654 56.291,51.27 57.56,54.151C58.825,57.027 60.163,57.765 61.954,60.155Z"/>
        </g>
        <g transform="matrix(12.3939,0,0,12.3939,409.545,-75.0715)">
            <path d="M21.288,21.489C20.275,21.47 19.558,21.6 18.8,21.767L18.8,21.903C18.846,21.903 18.911,21.866 18.938,21.903C19.752,23.031 19.879,22.746 20.873,24.396C21.426,25.313 21.795,26.333 22.256,27.3C22.302,27.256 22.348,27.208 22.394,27.164C23.251,26.56 23.592,25.85 23.44,24.385C23.361,23.625 23.245,23.303 22.947,22.873C22.551,22.301 21.986,21.642 21.288,21.489Z"/>
        </g>
    </g>
</svg>
