<?xml version="1.0" encoding="UTF-8" standalone="no"?>
<!DOCTYPE svg PUBLIC "-//W3C//DTD SVG 1.1//EN" "http://www.w3.org/Graphics/SVG/1.1/DTD/svg11.dtd">
<svg width="100%" height="100%" viewBox="0 0 16 16" version="1.1" xmlns="http://www.w3.org/2000/svg" xmlns:xlink="http://www.w3.org/1999/xlink" xml:space="preserve" xmlns:serif="http://www.serif.com/" style="fill-rule:evenodd;clip-rule:evenodd;stroke-linejoin:round;stroke-miterlimit:2;">
    <g id="schemaEnabled" transform="matrix(0.0186099,0,0,0.0165886,0.639293,-0.979156)">
        <g id="Schema" transform="matrix(53.7347,0,0,60.2823,-34.3522,59.0258)">
            <path d="M15,6.649L15,14.003L14.972,14.003L15.001,14.007C15.001,15.099 11.867,15.985 8,15.985C4.138,15.985 1.006,15.101 1,14.01L1,2L1,1.997C1,0.894 4.134,-0 8,-0C8.655,-0 9.289,0.026 9.89,0.076C9.618,0.362 9.387,0.688 9.207,1.043C8.816,1.02 8.413,1.01 8,1.01C5.829,1.01 3.903,1.296 2.71,1.76C2.551,1.822 2.382,1.914 2.244,1.997C2.382,2.081 2.551,2.173 2.71,2.235C3.903,2.699 5.829,2.985 8,2.985L8.743,2.973L8.764,3.391C8.786,3.53 8.807,3.67 8.828,3.81L8.872,3.978L8,3.995C5.454,3.995 3.225,3.607 2,3.027L2,5.86C2.015,5.871 2.161,5.974 2.244,6.024C2.382,6.107 2.551,6.198 2.71,6.26C3.903,6.719 5.829,7.003 8,7.003C9.152,7.003 10.235,6.923 11.176,6.777C11.716,7.035 12.322,7.177 12.96,7.177C13.7,7.177 14.396,6.986 15,6.649ZM2,11.033C3.225,11.608 5.454,11.992 8,11.992C10.546,11.992 12.775,11.608 14,11.033L14,13.858L13.756,14.007C13.619,14.089 13.45,14.181 13.29,14.242C12.098,14.702 10.171,14.985 8,14.985C5.829,14.985 3.903,14.702 2.71,14.242C2.551,14.181 2.382,14.089 2.244,14.007C2.161,13.957 2.015,13.853 2,13.843L2,11.033ZM2,7.044C3.225,7.618 5.454,8.003 8,8.003C10.546,8.003 12.775,7.618 14,7.044L14,9.865L13.756,10.014C13.619,10.096 13.45,10.187 13.29,10.249C12.098,10.709 10.171,10.992 8,10.992C5.829,10.992 3.903,10.709 2.71,10.249C2.551,10.187 2.382,10.096 2.244,10.014C2.161,9.964 2.015,9.86 2,9.849L2,7.044Z" style="fill:white;"/>
        </g>
        <g transform="matrix(46.3301,0,0,51.9754,88.3634,-410.702)">
            <g id="Enabled">
                <circle cx="12.429" cy="12.517" r="3.479" style="fill:rgb(4,179,7);"/>
            </g>
        </g>
    </g>
</svg>
