<?xml version="1.0" encoding="UTF-8" standalone="no"?>
<!DOCTYPE svg PUBLIC "-//W3C//DTD SVG 1.1//EN" "http://www.w3.org/Graphics/SVG/1.1/DTD/svg11.dtd">
<svg width="100%" height="100%" viewBox="0 0 16 16" version="1.1" xmlns="http://www.w3.org/2000/svg" xmlns:xlink="http://www.w3.org/1999/xlink" xml:space="preserve" xmlns:serif="http://www.serif.com/" style="fill-rule:evenodd;clip-rule:evenodd;stroke-linejoin:round;stroke-miterlimit:2;fill:white;">
    <g transform="matrix(0.557693,0,0,0.557693,2.97127,2.96607)">
        <g id="schemaTableColumn">
            <path d="M8.12,1.854C11.584,1.854 14.396,4.666 14.396,8.13C14.396,11.594 11.584,14.406 8.12,14.406C4.657,14.406 1.845,11.594 1.845,8.13C1.845,4.666 4.657,1.854 8.12,1.854ZM8.12,3.109C5.349,3.109 3.1,5.359 3.1,8.13C3.1,10.901 5.349,13.15 8.12,13.15C10.891,13.15 13.141,10.901 13.141,8.13C13.141,5.359 10.891,3.109 8.12,3.109Z"/>
        </g>
    </g>
</svg>
