<?xml version="1.0" encoding="UTF-8" standalone="no"?>
<!DOCTYPE svg PUBLIC "-//W3C//DTD SVG 1.1//EN" "http://www.w3.org/Graphics/SVG/1.1/DTD/svg11.dtd">
<svg width="100%" height="100%" viewBox="0 0 16 16" version="1.1" xmlns="http://www.w3.org/2000/svg" xmlns:xlink="http://www.w3.org/1999/xlink" xml:space="preserve" xmlns:serif="http://www.serif.com/" style="fill-rule:evenodd;clip-rule:evenodd;stroke-linejoin:round;stroke-miterlimit:2;fill:white;">
    <g id="schema">
        <path d="M1,2C1,1.993 1,1.986 1,1.978C1,0.886 4.134,-0 8,-0C11.704,-0 14.735,0.813 14.984,1.841C15.007,1.906 15.018,1.972 15.018,2.038C15.018,2.087 15.012,2.135 15,2.183L15,6L15.001,6C15.001,6.009 15,6.018 15,6.028L15,10.065L15.001,10.065C15.001,10.074 15,10.083 15,10.093L15,14.165L15.001,14.165C15.001,15.258 11.867,16.143 8,16.143C4.135,16.143 1.002,15.258 1,14.166L1,14.166L1,2L1,2ZM2,11.085C3.225,11.659 5.454,12.043 8,12.043C10.546,12.043 12.775,11.659 14,11.085L14,14.016L13.756,14.165C13.619,14.248 13.45,14.339 13.29,14.4C12.098,14.86 10.171,15.143 8,15.143C5.829,15.143 3.903,14.86 2.71,14.4C2.551,14.339 2.382,14.248 2.244,14.165C2.161,14.115 2.015,14.012 2,14.001L2,11.085ZM2,7.019C3.225,7.594 5.454,7.978 8,7.978C10.546,7.978 12.775,7.594 14,7.02L14,9.916L13.756,10.065C13.619,10.148 13.45,10.239 13.29,10.3C12.098,10.76 10.171,11.043 8,11.043C5.829,11.043 3.903,10.76 2.71,10.3C2.551,10.239 2.382,10.148 2.244,10.065C2.161,10.015 2.015,9.912 2,9.901L2,7.019ZM2,3.049C3.221,3.629 5.459,4.017 8.018,4.017C10.552,4.017 12.771,3.636 14,3.066L14,5.851L13.756,6C13.619,6.082 13.45,6.174 13.29,6.235C12.098,6.695 10.171,6.978 8,6.978C5.829,6.978 3.903,6.695 2.71,6.235C2.551,6.174 2.382,6.082 2.244,6C2.161,5.95 2.015,5.847 2,5.836L2,3.049ZM13.714,2.003C13.585,2.079 13.434,2.158 13.29,2.213C12.098,2.673 10.171,2.956 8,2.956C5.829,2.956 3.903,2.673 2.71,2.213C2.573,2.161 2.429,2.086 2.304,2.013C2.433,1.938 2.585,1.858 2.728,1.803C3.92,1.344 5.847,1.06 8.018,1.06C10.189,1.06 12.116,1.344 13.308,1.803C13.445,1.856 13.589,1.931 13.714,2.003Z"/>
    </g>
</svg>
