<?xml version="1.0" encoding="UTF-8" standalone="no"?>
<!DOCTYPE svg PUBLIC "-//W3C//DTD SVG 1.1//EN" "http://www.w3.org/Graphics/SVG/1.1/DTD/svg11.dtd">
<svg width="100%" height="100%" viewBox="0 0 16 16" version="1.1" xmlns="http://www.w3.org/2000/svg" xmlns:xlink="http://www.w3.org/1999/xlink" xml:space="preserve" xmlns:serif="http://www.serif.com/" style="fill-rule:evenodd;clip-rule:evenodd;stroke-linejoin:round;stroke-miterlimit:2;fill:white;">
    <g id="schemaSqliteDefault" transform="matrix(0.015625,0,0,0.015625,0,0)">
        <g id="SQL-Editor-Icon" serif:id="SQL Editor Icon" transform="matrix(10.8619,0,0,10.8619,12.0886,2.85631)">
            <path d="M66.073,68.47C70.518,66.539 73.139,64.159 73.139,61.588L73.139,82.108L73.137,82.108L73.139,82.134C73.139,88.625 56.517,93.894 36.044,93.894C15.571,93.894 -1.051,88.625 -1.051,82.134L-1.049,82.108L-1.051,82.108L-1.051,61.588L-1.003,62.191C-0.01,68.386 16.209,73.321 36.044,73.321C44.473,73.321 52.249,72.43 58.479,70.928C59.492,73.061 60.908,74.316 62.87,73.713C64.718,73.146 65.593,71.109 66.073,68.47ZM57.494,68.206C51.44,69.573 44.037,70.375 36.044,70.375C15.586,70.375 -1.005,65.124 -1.049,58.641L-1.051,58.641L-1.051,38.095C-1.048,44.59 15.559,49.854 36.044,49.854C42.909,49.854 49.339,49.263 54.855,48.229C55.49,50.696 55.995,53.214 55.983,54.905C55.964,57.471 56.21,63.606 57.494,68.206ZM73.139,50.256L73.139,58.641L73.137,58.641C73.12,61.133 70.659,63.442 66.471,65.338C67.05,59.009 66.806,51.392 71.36,50.902C71.898,50.845 72.497,50.616 73.139,50.256ZM54.077,45.375C48.739,46.319 42.589,46.855 36.044,46.855C15.557,46.855 -1.051,41.602 -1.051,35.121L-1.051,14.601L-1.049,14.601C-1.005,21.084 15.586,26.334 36.044,26.334C44.1,26.334 51.557,25.52 57.639,24.133C54.507,32.698 52.389,40.034 52.786,41.227C53.087,42.13 53.574,43.638 54.077,45.375ZM-1.049,38.068L-1.051,38.093L-1.051,38.068L-1.049,38.068ZM58.848,20.9C52.557,22.46 44.642,23.388 36.044,23.388C15.557,23.388 -1.051,18.123 -1.051,11.628C-1.051,5.133 15.557,-0.132 36.044,-0.132C48.268,-0.132 59.112,1.743 65.87,4.637C63.451,9.469 60.982,15.309 58.848,20.9Z"/>
        </g>
        <g id="feather" transform="matrix(5.90103,-1.55567e-31,-1.55567e-31,-5.90103,58.9473,1007.54)">
            <path d="M149.133,167.137C143.681,171.999 137.08,170.046 130.565,164.264C129.598,163.405 128.633,162.452 127.673,161.434C116.528,149.611 106.183,127.711 102.969,110.986C104.221,108.447 105.199,105.207 105.843,102.732C106.008,102.097 106.157,101.501 106.276,100.994C106.559,99.794 106.711,99.016 106.711,99.016C106.711,99.016 106.611,99.394 106.201,100.583C106.123,100.811 106.036,101.06 105.933,101.353C105.889,101.474 105.828,101.621 105.761,101.778C105.034,103.468 103.023,107.035 102.138,108.588C101.381,106.355 100.712,104.266 100.152,102.376C102.707,97.701 104.264,89.69 104.264,89.69C104.264,89.69 104.129,90.209 103.487,92.021C102.917,93.624 100.078,98.598 99.405,99.761C98.255,95.514 97.798,92.647 98.21,91.949C99.01,90.596 99.773,88.262 100.442,85.681C101.954,79.866 103.005,72.787 103.005,72.787C103.005,72.787 103.039,72.318 103.096,71.596C102.886,66.713 103.012,61.65 103.39,57.074C103.891,51.016 104.834,45.812 106.036,43.027L106.852,43.472C105.087,48.959 104.37,56.15 104.684,64.443C105.159,77.119 108.076,92.406 113.466,108.339C122.572,132.391 135.206,151.689 146.769,160.905C136.23,151.387 121.966,120.578 117.696,109.169C112.915,96.393 109.527,84.404 107.485,72.917C111.008,83.686 122.399,88.315 122.399,88.315C122.399,88.315 127.986,95.205 134.515,105.049C130.604,104.157 124.182,102.63 122.031,101.726C118.858,100.395 118.003,99.941 118.003,99.941C118.003,99.941 128.281,106.2 137.099,109.034C149.226,128.134 162.438,155.268 149.133,167.137" style="fill-rule:nonzero;"/>
        </g>
    </g>
</svg>
