<?xml version="1.0" encoding="UTF-8" standalone="no"?>
<!DOCTYPE svg PUBLIC "-//W3C//DTD SVG 1.1//EN" "http://www.w3.org/Graphics/SVG/1.1/DTD/svg11.dtd">
<svg width="100%" height="100%" viewBox="0 0 16 16" version="1.1" xmlns="http://www.w3.org/2000/svg" xmlns:xlink="http://www.w3.org/1999/xlink" xml:space="preserve" xmlns:serif="http://www.serif.com/" style="fill-rule:evenodd;clip-rule:evenodd;stroke-linejoin:round;stroke-miterlimit:2;fill:white;">
    <g id="schemaEvent">
        <g transform="matrix(0.015621,0,0,0.015621,0.000254762,0.000254762)">
            <path d="M960,64L960,960L64,960L64,64L960,64ZM896,192L128,192L128,896L896,896L896,192Z" style="fill-rule:nonzero;"/>
        </g>
        <g id="Clock" transform="matrix(1,0,0,1,0.5,0)">
            <path d="M7.5,4C9.984,4 12,6.016 12,8.5C12,10.984 9.984,13 7.5,13C5.016,13 3,10.984 3,8.5C3,6.016 5.016,4 7.5,4ZM7.5,5C9.432,5 11,6.568 11,8.5C11,10.432 9.432,12 7.5,12C5.568,12 4,10.432 4,8.5C4,6.568 5.568,5 7.5,5Z"/>
            <g transform="matrix(1,0,0,0.84091,0,1.43181)">
                <path d="M8,5.595C8,5.266 7.776,5 7.5,5C7.224,5 7,5.266 7,5.595L7,8.405C7,8.734 7.224,9 7.5,9C7.776,9 8,8.734 8,8.405L8,5.595Z"/>
            </g>
            <g transform="matrix(-0.707107,0.707107,-0.551801,-0.551801,17.4159,7.80926)">
                <path d="M8,5.641C8,5.287 7.776,5 7.5,5C7.224,5 7,5.287 7,5.641L7,8.359C7,8.713 7.224,9 7.5,9C7.776,9 8,8.713 8,8.359L8,5.641Z"/>
            </g>
        </g>
    </g>
</svg>
