<?xml version="1.0" encoding="UTF-8" standalone="no"?>
<!DOCTYPE svg PUBLIC "-//W3C//DTD SVG 1.1//EN" "http://www.w3.org/Graphics/SVG/1.1/DTD/svg11.dtd">
<svg width="100%" height="100%" viewBox="0 0 16 16" version="1.1" xmlns="http://www.w3.org/2000/svg" xmlns:xlink="http://www.w3.org/1999/xlink" xml:space="preserve" xmlns:serif="http://www.serif.com/" style="fill-rule:evenodd;clip-rule:evenodd;stroke-linejoin:round;stroke-miterlimit:2;">
    <g id="schemaDisabled" transform="matrix(0.0186099,0,0,0.0165886,0.639293,-0.979156)">
        <g id="Schema" transform="matrix(53.7347,0,0,60.2823,-34.3522,59.0258)">
            <path d="M15,6.885L15,14.003L14.972,14.003L15.001,14.007C15.001,15.099 11.867,15.985 8,15.985C4.138,15.985 1.006,15.101 1,14.01L1,2L1,1.997C1,0.894 4.134,-0 8,-0C8.632,-0 9.244,0.024 9.826,0.071C9.557,0.36 9.327,0.685 9.147,1.04C8.775,1.019 8.392,1.01 8,1.01C5.829,1.01 3.903,1.296 2.71,1.76C2.551,1.822 2.382,1.914 2.244,1.997C2.382,2.081 2.551,2.173 2.71,2.235C3.903,2.699 5.829,2.985 8,2.985L8.67,2.974L8.668,3.018C8.668,3.349 8.705,3.671 8.779,3.98L8,3.995C5.454,3.995 3.225,3.607 2,3.027L2,5.86C2.015,5.871 2.161,5.974 2.244,6.024C2.382,6.107 2.551,6.198 2.71,6.26C3.903,6.719 5.829,7.003 8,7.003C9.042,7.003 10.028,6.937 10.903,6.817C11.529,7.168 12.25,7.367 13.018,7.367L13.143,7.361C11.866,7.757 10.034,8.003 8,8.003C5.454,8.003 3.225,7.618 2,7.044L2,9.849C2.015,9.86 2.161,9.964 2.244,10.014C2.382,10.096 2.551,10.187 2.71,10.249C3.903,10.709 5.829,10.992 8,10.992C10.171,10.992 12.098,10.709 13.29,10.249C13.45,10.187 13.619,10.096 13.756,10.014L14,9.865L14,7.251L14.31,7.172C14.444,7.123 14.577,7.074 14.71,7.025L15,6.885ZM2,11.033C3.225,11.608 5.454,11.992 8,11.992C10.546,11.992 12.775,11.608 14,11.033L14,13.858L13.756,14.007C13.619,14.089 13.45,14.181 13.29,14.242C12.098,14.702 10.171,14.985 8,14.985C5.829,14.985 3.903,14.702 2.71,14.242C2.551,14.181 2.382,14.089 2.244,14.007C2.161,13.957 2.015,13.853 2,13.843L2,11.033Z" style="fill:white;"/>
        </g>
        <g transform="matrix(46.3301,0,0,51.9754,88.3634,-410.702)">
            <g id="Disabled">
                <circle cx="12.429" cy="12.517" r="3.479" style="fill:rgb(210,0,0);"/>
            </g>
        </g>
    </g>
</svg>
