<?xml version="1.0" encoding="UTF-8" standalone="no"?>
<!DOCTYPE svg PUBLIC "-//W3C//DTD SVG 1.1//EN" "http://www.w3.org/Graphics/SVG/1.1/DTD/svg11.dtd">
<svg width="100%" height="100%" viewBox="0 0 16 16" version="1.1" xmlns="http://www.w3.org/2000/svg" xmlns:xlink="http://www.w3.org/1999/xlink" xml:space="preserve" xmlns:serif="http://www.serif.com/" style="fill-rule:evenodd;clip-rule:evenodd;stroke-linejoin:round;stroke-miterlimit:2;fill:white;">
    <g id="schemaFunctions" transform="matrix(1,0,0,1,-1,-1)">
        <g transform="matrix(1,0,0,1,1,1)">
            <path d="M3,14L3,14.997L14.997,14.997L14.997,3.999L14,3.999L14,2L15.996,2L15.996,15.996L2,15.996L2,14L3,14Z" style="fill-rule:nonzero;"/>
        </g>
        <g transform="matrix(0.015621,0,0,0.015621,0.000254762,0.000254762)">
            <path d="M960,64L960,960L64,960L64,64L960,64ZM896,192L128,192L128,896L896,896L896,192Z" style="fill-rule:nonzero;"/>
        </g>
        <g transform="matrix(0.959559,0,0,0.787222,0.396427,4.11863)">
            <path d="M3.754,8.741L4.799,8.741L4.793,4.93L5.828,4.93L5.834,3.674L4.788,3.674L4.788,3.018C4.788,2.735 4.891,2.52 5.022,2.375C5.154,2.229 5.374,2.157 5.681,2.157C5.767,2.157 5.846,2.159 5.92,2.163C5.994,2.167 6.056,2.174 6.108,2.183L6.108,1.172C6.01,1.155 5.907,1.142 5.799,1.133C5.691,1.124 5.575,1.119 5.449,1.119C5.062,1.119 4.741,1.18 4.484,1.3C4.227,1.42 4.036,1.603 3.911,1.847C3.785,2.091 3.754,2.399 3.754,2.77L3.754,3.674L2.718,3.674L2.713,4.93L3.748,4.93L3.754,8.741Z" style="fill-rule:nonzero;"/>
            <path d="M8.402,10.778L9.381,10.778C9.194,10.539 9.02,10.24 8.859,9.882C8.698,9.524 8.558,9.129 8.44,8.696C8.321,8.263 8.229,7.814 8.163,7.349C8.097,6.884 8.064,6.426 8.064,5.974C8.064,5.524 8.097,5.066 8.163,4.601C8.229,4.136 8.321,3.687 8.44,3.255C8.558,2.822 8.698,2.426 8.859,2.067C9.02,1.708 9.194,1.409 9.381,1.172L8.402,1.172C8.064,1.603 7.785,2.068 7.566,2.567C7.347,3.066 7.186,3.598 7.08,4.164C6.975,4.729 6.923,5.332 6.923,5.974C6.923,6.613 6.976,7.216 7.082,7.782C7.188,8.349 7.351,8.882 7.57,9.38C7.788,9.878 8.066,10.344 8.402,10.778Z" style="fill-rule:nonzero;"/>
            <path d="M10.607,10.778C10.946,10.345 11.225,9.879 11.442,9.38C11.659,8.882 11.821,8.349 11.927,7.782C12.033,7.216 12.086,6.613 12.086,5.974C12.086,5.332 12.034,4.729 11.929,4.164C11.824,3.598 11.662,3.066 11.443,2.567C11.224,2.068 10.946,1.603 10.607,1.172L9.628,1.172C9.815,1.409 9.989,1.708 10.15,2.067C10.312,2.426 10.451,2.822 10.57,3.255C10.688,3.687 10.78,4.136 10.847,4.601C10.913,5.066 10.946,5.524 10.946,5.974C10.946,6.426 10.913,6.884 10.847,7.349C10.78,7.814 10.688,8.263 10.57,8.696C10.451,9.129 10.312,9.524 10.15,9.882C9.989,10.24 9.815,10.539 9.628,10.778L10.607,10.778Z" style="fill-rule:nonzero;"/>
        </g>
    </g>
</svg>
