<?xml version="1.0" encoding="UTF-8" standalone="no"?>
<!DOCTYPE svg PUBLIC "-//W3C//DTD SVG 1.1//EN" "http://www.w3.org/Graphics/SVG/1.1/DTD/svg11.dtd">
<svg width="100%" height="100%" viewBox="0 0 16 16" version="1.1" xmlns="http://www.w3.org/2000/svg" xmlns:xlink="http://www.w3.org/1999/xlink" xml:space="preserve" xmlns:serif="http://www.serif.com/" style="fill-rule:evenodd;clip-rule:evenodd;stroke-linejoin:round;stroke-miterlimit:2;fill:white;">
    <g id="schemaTableFK" transform="matrix(1,0,0,1,8,1.03306)">
        <g transform="matrix(1,0,0,1,0.00175568,-3.03306)">
            <path d="M1,10.337L1,7.496L0,7.496L0,10.53C0,11.481 0.479,11.999 1.431,11.999L7.962,11.999L7.962,10.999L1.499,10.999C0.989,10.999 1,10.703 1,10.337Z"/>
        </g>
        <g transform="matrix(1.14787,1.14787,-0.776589,0.776589,9.74882,-6.5731)">
            <path d="M6.994,12.604L4.386,12.6L4.386,13.509L7.567,13.451L6.994,12.604Z"/>
        </g>
        <g transform="matrix(1.49176,0,0,1.02356,-12.349,-3.2516)">
            <rect x="10.292" y="9.006" width="0.664" height="4.88"/>
        </g>
        <g transform="matrix(1.1536,-1.1536,-0.780466,-0.780466,9.7743,23.5996)">
            <path d="M6.971,12.588L4.386,12.6L4.386,13.509L7.596,13.51L6.971,12.588Z"/>
        </g>
        <g id="v" transform="matrix(-1,0,0,-1,1.0498,14.9664)">
            <path d="M1,10.337L1,7.496L0,7.496L0,10.53C0,11.481 0.479,11.999 1.431,11.999C2.299,11.999 2,11.999 2,11.999L2,10.999C2,10.999 2.175,10.999 1.499,10.999C0.989,10.999 1,10.703 1,10.337Z"/>
        </g>
        <g transform="matrix(1.45496,0,0,1.02006,-21.9749,-8.2193)">
            <rect x="10.292" y="9.006" width="0.664" height="4.88"/>
        </g>
        <path d="M-3.5,0.967C-2.12,0.967 -1,2.087 -1,3.467C-1,4.847 -2.12,5.967 -3.5,5.967C-4.88,5.967 -6,4.847 -6,3.467C-6,2.087 -4.88,0.967 -3.5,0.967ZM-3.5,1.958C-2.667,1.958 -1.991,2.634 -1.991,3.467C-1.991,4.3 -2.667,4.976 -3.5,4.976C-4.333,4.976 -5.009,4.3 -5.009,3.467C-5.009,2.634 -4.333,1.958 -3.5,1.958Z"/>
        <g transform="matrix(1,0,0,1,-8,-1.03306)">
            <rect x="0" y="4" width="1" height="1"/>
        </g>
    </g>
</svg>
