<?xml version="1.0" encoding="UTF-8" standalone="no"?>
<!DOCTYPE svg PUBLIC "-//W3C//DTD SVG 1.1//EN" "http://www.w3.org/Graphics/SVG/1.1/DTD/svg11.dtd">
<svg width="100%" height="100%" viewBox="0 0 16 16" version="1.1" xmlns="http://www.w3.org/2000/svg" xmlns:xlink="http://www.w3.org/1999/xlink" xml:space="preserve" xmlns:serif="http://www.serif.com/" style="fill-rule:evenodd;clip-rule:evenodd;stroke-linejoin:round;stroke-miterlimit:2;fill:white;">
    <g id="schemaDualityView">
        <path d="M14.996,7.454L14.996,14.996L1,14.996L1,1L10.043,1L10.043,1.001C10.043,2.17 10.2,2.991 9.031,2.991L9.031,2.999L2,2.999L2,13.997L13.997,13.997L13.997,7.452L14.996,7.454Z"/>
        <path d="M9.42,4L9.42,4.347C9.632,4.347 9.866,4.344 10,4.417L10,10L3,10L3,4L9.42,4ZM9,5L4,5L4,9L9,9L9,5Z"/>
        <path d="M10.788,7C11.305,7.561 12.589,7.476 12.589,7.476L13,7.479L13,13L6,13L6,7L10.788,7ZM12,8L7,8L7,12L12,12L12,8Z"/>
        <g transform="matrix(0.693735,0,0,0.699433,8.80699,-4.27207)">
            <path d="M5.103,16.129C4.316,16.129 3.74,15.975 3.373,15.667C3.006,15.358 2.823,14.878 2.823,14.227L2.823,12.827C2.823,12.413 2.722,12.124 2.519,11.958C2.316,11.793 1.96,11.708 1.449,11.704L1.449,10.518C1.96,10.518 2.316,10.435 2.519,10.27C2.722,10.104 2.823,9.813 2.823,9.396L2.823,8.012C2.823,7.36 3.006,6.881 3.373,6.575C3.74,6.268 4.316,6.115 5.103,6.115L5.48,6.115L5.48,7.007L5.224,7.007C4.815,7.007 4.521,7.096 4.343,7.272C4.165,7.448 4.075,7.741 4.075,8.151L4.075,9.759C4.075,10.144 3.956,10.443 3.717,10.657C3.478,10.871 3.123,10.999 2.653,11.042L2.653,11.186C3.123,11.229 3.478,11.356 3.717,11.568C3.956,11.78 4.075,12.078 4.075,12.463L4.075,14.093C4.075,14.503 4.165,14.796 4.343,14.972C4.521,15.148 4.815,15.236 5.224,15.236L5.48,15.236L5.48,16.129L5.103,16.129ZM6.813,16.119L6.438,16.119L6.438,15.227L6.692,15.227C7.099,15.227 7.391,15.139 7.569,14.963C7.746,14.786 7.835,14.493 7.835,14.084L7.835,12.454C7.835,12.069 7.954,11.771 8.191,11.559C8.429,11.347 8.784,11.219 9.255,11.177L9.255,11.032C8.784,10.99 8.429,10.861 8.191,10.648C7.954,10.434 7.835,10.135 7.835,9.75L7.835,8.141C7.835,7.732 7.747,7.439 7.572,7.262C7.396,7.086 7.103,6.998 6.692,6.998L6.438,6.998L6.438,6.106L6.813,6.106C7.595,6.106 8.168,6.259 8.533,6.565C8.898,6.872 9.08,7.351 9.08,8.003L9.08,9.387C9.08,9.803 9.181,10.095 9.382,10.26C9.584,10.426 9.938,10.509 10.446,10.509L10.446,11.695C9.938,11.699 9.584,11.783 9.382,11.949C9.181,12.114 9.08,12.404 9.08,12.817L9.08,14.217C9.08,14.869 8.898,15.349 8.533,15.657C8.168,15.965 7.595,16.119 6.813,16.119Z"/>
        </g>
    </g>
</svg>
