<?xml version="1.0" encoding="UTF-8" standalone="no"?>
<!DOCTYPE svg PUBLIC "-//W3C//DTD SVG 1.1//EN" "http://www.w3.org/Graphics/SVG/1.1/DTD/svg11.dtd">
<svg width="100%" height="100%" viewBox="0 0 16 16" version="1.1" xmlns="http://www.w3.org/2000/svg" xmlns:xlink="http://www.w3.org/1999/xlink" xml:space="preserve" xmlns:serif="http://www.serif.com/" style="fill-rule:evenodd;clip-rule:evenodd;stroke-linejoin:round;stroke-miterlimit:2;fill:white;">
    <g transform="matrix(1,0,0,1,-617,-162)">
        <g id="script">
            <g transform="matrix(1,0,0,1,616,161)">
                <path d="M14.71,4.29L11.71,1.29L11,1L4,1L3,2L3,15L4,16L14,16L15,15L15,5L14.71,4.29ZM14,15L4,15L4,2L10,2L10,6L14,6L14,15ZM11,5L11,2L14,5L11,5Z"/>
            </g>
            <g id="Sakila" transform="matrix(0.873417,0,0,0.873417,615.48,165.888)">
                <path d="M15.794,8.45C15.513,8.075 15.303,7.959 15.105,7.509C14.906,7.057 14.854,7.088 14.655,6.626C14.556,6.397 14.282,5.959 14.169,5.744C13.471,4.402 12.349,3.279 11.1,2.489C10.69,2.23 10.139,1.991 9.635,1.838C9.35,1.752 9.008,1.8 8.703,1.729L8.508,1.729C8.337,1.679 8.194,1.498 8.053,1.404C7.758,1.209 7.529,0.955 7.182,0.81C7.051,0.756 7.027,0.683 7.003,0.757C6.93,0.868 6.898,0.799 6.947,0.906C7.086,1.209 7.288,1.394 7.467,1.644C7.63,1.87 7.828,2.126 7.945,2.38C8.19,2.912 8.301,3.393 8.533,3.919C8.622,4.121 8.766,4.363 8.895,4.538C8.999,4.68 9.166,4.886 9.223,5.072C9.341,5.257 9.295,5.874 9.24,6.078C9.009,6.93 8.97,8.178 9.359,8.811C9.511,9.058 9.394,9.234 9.477,9.138C9.571,9.03 9.555,8.235 9.728,7.824C9.837,7.566 10.163,7.339 10.355,7.276C10.468,7.239 10.665,7.704 10.701,7.824C10.803,8.162 11.161,8.643 11.313,8.935C11.631,9.546 12.285,9.98 12.348,10.063C12.586,10.38 11.563,10.134 11.228,9.891C10.965,9.7 10.85,9.577 10.644,9.318C10.463,9.091 10.329,8.667 10.199,8.406C10.199,8.4 10.161,8.637 10.134,8.745C10.011,9.222 10.107,9.764 9.679,9.939C9.189,10.138 8.833,9.617 8.682,9.375C8.189,8.583 8.061,7.254 8.4,6.185C8.475,5.948 8.482,5.657 8.617,5.469C8.595,5.301 8.458,5.253 8.378,5.144C8.248,4.966 8.134,4.756 8.031,4.558C7.828,4.165 7.691,3.703 7.533,3.278C7.469,3.105 7.456,2.942 7.381,2.778C7.267,2.531 7.064,2.283 6.904,2.062C6.678,1.748 6.044,1.143 6.298,0.522C6.7,-0.461 8.095,0.287 8.638,0.63C8.775,0.717 8.926,0.895 9.072,0.956C9.31,0.971 9.476,0.943 9.787,0.999C10.236,1.081 10.651,1.186 11.001,1.39C12.641,2.351 13.701,3.329 14.685,4.948C14.89,5.286 15.149,5.808 15.313,6.185C15.554,6.736 15.825,7.49 15.869,7.692C15.929,7.968 15.949,8.035 15.952,8.294C15.955,8.55 15.879,8.563 15.794,8.45ZM10.522,2.989C10.657,3.018 10.766,3.146 10.843,3.257C10.901,3.34 10.923,3.402 10.938,3.549C10.968,3.833 10.902,3.971 10.736,4.087C10.727,4.096 10.508,4.2 10.499,4.208C10.409,4.021 10.338,3.824 10.231,3.646C10.038,3.327 10.014,3.382 9.856,3.163C9.851,3.156 9.838,3.163 9.829,3.163L9.829,3.137C9.976,3.105 10.325,2.985 10.522,2.989Z"/>
            </g>
        </g>
    </g>
</svg>
