<?xml version="1.0" encoding="UTF-8" standalone="no"?>
<!DOCTYPE svg PUBLIC "-//W3C//DTD SVG 1.1//EN" "http://www.w3.org/Graphics/SVG/1.1/DTD/svg11.dtd">
<svg width="100%" height="100%" viewBox="0 0 16 16" version="1.1" xmlns="http://www.w3.org/2000/svg" xmlns:xlink="http://www.w3.org/1999/xlink" xml:space="preserve" xmlns:serif="http://www.serif.com/" style="fill-rule:evenodd;clip-rule:evenodd;stroke-linejoin:round;stroke-miterlimit:2;fill:white;">
    <g transform="matrix(1,0,0,1,-617,-162)">
        <g id="script">
            <g transform="matrix(1,0,0,1,616,161)">
                <path d="M14.71,4.29L11.71,1.29L11,1L4,1L3,2L3,15L4,16L14,16L15,15L15,5L14.71,4.29ZM14,15L4,15L4,2L10,2L10,6L14,6L14,15ZM11,5L11,2L14,5L11,5Z"/>
            </g>
            <path id="Sqlite" d="M625.512,166.91C624.966,167.723 624.445,168.734 624.015,169.868C623.553,171.235 623.302,172.547 623.262,173.635C623.235,174.347 623.296,174.964 623.448,175.435L623.378,175.473C623.274,175.234 623.194,174.788 623.151,174.268C623.118,173.875 623.107,173.44 623.125,173.021C623.12,172.959 623.117,172.919 623.117,172.919C623.117,172.919 623.027,172.312 622.898,171.813C622.84,171.591 622.775,171.391 622.706,171.275C622.671,171.215 622.71,170.969 622.809,170.604C622.866,170.704 623.11,171.131 623.159,171.268C623.214,171.424 623.226,171.468 623.226,171.468C623.226,171.468 623.092,170.781 622.873,170.38C622.921,170.218 622.978,170.038 623.043,169.847C623.119,169.98 623.292,170.286 623.354,170.431C623.36,170.445 623.365,170.457 623.369,170.468C623.378,170.493 623.385,170.514 623.392,170.534C623.427,170.636 623.436,170.668 623.436,170.668C623.436,170.668 623.422,170.601 623.398,170.498C623.388,170.455 623.375,170.404 623.361,170.349C623.306,170.137 623.222,169.859 623.114,169.641C623.39,168.205 624.278,166.326 625.235,165.311C625.317,165.224 625.4,165.142 625.483,165.068C625.493,165.06 625.503,165.051 625.512,165.042L625.512,166.91ZM627.238,167.501C626.944,168.293 626.485,169.113 626.044,169.808C625.287,170.052 624.405,170.589 624.405,170.589C624.405,170.589 624.478,170.55 624.75,170.436C624.935,170.358 625.486,170.227 625.822,170.15C625.261,170.995 624.782,171.587 624.782,171.587C624.782,171.587 623.804,171.984 623.502,172.908C623.677,171.922 623.968,170.893 624.378,169.797C624.573,169.276 625.01,168.286 625.512,167.349L625.512,167.501L627.238,167.501Z"/>
        </g>
    </g>
</svg>
