<?xml version="1.0" encoding="UTF-8" standalone="no"?>
<!DOCTYPE svg PUBLIC "-//W3C//DTD SVG 1.1//EN" "http://www.w3.org/Graphics/SVG/1.1/DTD/svg11.dtd">
<svg width="100%" height="100%" viewBox="0 0 16 16" version="1.1" xmlns="http://www.w3.org/2000/svg" xmlns:xlink="http://www.w3.org/1999/xlink" xml:space="preserve" xmlns:serif="http://www.serif.com/" style="fill-rule:evenodd;clip-rule:evenodd;stroke-linejoin:round;stroke-miterlimit:2;">
    <g id="shellTaskRunning" transform="matrix(1,0,0,1,-1,0)">
        <g id="shellTask" transform="matrix(1,0,0,1,1,0)">
            <path d="M7.303,14.998L3.143,14.998L2,13.855L2,3.143L3.1,2L11.855,2L12.998,3.143L12.998,6.214C12.671,6.185 12.337,6.168 12,6.162L12,2.989L3,2.989L3,14L6.647,14C6.821,14.366 7.037,14.704 7.303,14.998ZM6.022,11.644L5.966,11L4.25,11C4.112,11 4,11.112 4,11.25L4,11.75C4,11.888 4.112,12 4.25,12L6.074,12L6.022,11.644ZM5.986,8.501L6.021,8L4.25,8C4.112,8 4,8.112 4,8.25L4,8.75C4,8.888 4.112,9 4.25,9L5.966,9L5.986,8.501ZM11,5.25C11,5.112 10.888,5 10.75,5L4.25,5C4.112,5 4,5.112 4,5.25L4,5.75C4,5.888 4.112,6 4.25,6L10.75,6C10.888,6 11,5.888 11,5.75L11,5.25Z" style="fill:white"/>
            <path d="M6.087,1C6.292,0.417 6.848,0 7.5,0C8.152,0 8.708,0.417 8.913,1L9.466,1C9.761,1 10,1.239 10,1.534L10,3.466C10,3.761 9.761,4 9.466,4L5.534,4C5.239,4 5,3.761 5,3.466L5,1.534C5,1.239 5.239,1 5.534,1L6.087,1ZM7.5,0.822C7.874,0.822 8.178,1.126 8.178,1.5C8.178,1.874 7.874,2.178 7.5,2.178C7.126,2.178 6.822,1.874 6.822,1.5C6.822,1.126 7.126,0.822 7.5,0.822Z" style="fill:white"/>
        </g>
        <g id="Spinner" transform="matrix(1,0,0,1,1,0)">
            <g transform="matrix(1.02548,0,0,1.02548,-0.293025,-0.293025)">
                <path d="M7.938,11C7.913,11.164 7.9,11.331 7.9,11.5C7.9,13.432 9.568,15.1 11.5,15.1C12.902,15.1 14.166,14.221 14.753,13L15.743,13C15.125,14.747 13.458,16 11.5,16C9.016,16 7,13.984 7,11.5C7,11.331 7.009,11.164 7.028,11L7.938,11ZM7.257,10C7.875,8.253 9.542,7 11.5,7C13.984,7 16,9.016 16,11.5C16,11.669 15.991,11.836 15.972,12L15.062,12C15.087,11.836 15.1,11.669 15.1,11.5C15.1,9.568 13.432,7.9 11.5,7.9C10.098,7.9 8.834,8.779 8.247,10L7.257,10Z" style="fill:rgb(233,156,0);"/>
            </g>
            <g transform="matrix(1,0,0,1,0,-2)">
                <path d="M10,11.25C10,11.112 9.888,11 9.75,11L7.25,11C7.112,11 7,11.112 7,11.25L7,11.75C7,11.888 7.112,12 7.25,12L9.75,12C9.888,12 10,11.888 10,11.75L10,11.25Z" style="fill:rgb(233,156,0);"/>
            </g>
            <g transform="matrix(6.12323e-17,-1,1,6.12323e-17,-4,17)">
                <path d="M10,11.25C10,11.112 9.888,11 9.75,11L7.25,11C7.112,11 7,11.112 7,11.25L7,11.75C7,11.888 7.112,12 7.25,12L9.75,12C9.888,12 10,11.888 10,11.75L10,11.25Z" style="fill:rgb(233,156,0);"/>
            </g>
            <g transform="matrix(-1,-1.22465e-16,1.22465e-16,-1,23,25)">
                <path d="M10,11.25C10,11.112 9.888,11 9.75,11L7.25,11C7.112,11 7,11.112 7,11.25L7,11.75C7,11.888 7.112,12 7.25,12L9.75,12C9.888,12 10,11.888 10,11.75L10,11.25Z" style="fill:rgb(233,156,0);"/>
            </g>
            <g transform="matrix(-1.83697e-16,1,-1,-1.83697e-16,27,6)">
                <path d="M10,11.25C10,11.112 9.888,11 9.75,11L7.25,11C7.112,11 7,11.112 7,11.25L7,11.75C7,11.888 7.112,12 7.25,12L9.75,12C9.888,12 10,11.888 10,11.75L10,11.25Z" style="fill:rgb(233,156,0);"/>
            </g>
        </g>
    </g>
</svg>
