<?xml version="1.0" encoding="UTF-8" standalone="no"?>
<!DOCTYPE svg PUBLIC "-//W3C//DTD SVG 1.1//EN" "http://www.w3.org/Graphics/SVG/1.1/DTD/svg11.dtd">
<svg width="100%" height="100%" viewBox="0 0 16 16" version="1.1" xmlns="http://www.w3.org/2000/svg" xmlns:xlink="http://www.w3.org/1999/xlink" xml:space="preserve" xmlns:serif="http://www.serif.com/" style="fill-rule:evenodd;clip-rule:evenodd;stroke-linejoin:round;stroke-miterlimit:2;fill:white;">
    <g id="VectorDB" transform="matrix(0.015625,0,0,0.015625,0,0)">
        <path d="M895.878,886.966L895.878,896.182L894.113,896.182L895.921,896.456C895.921,966.368 695.364,1023.05 447.96,1023.05C200.782,1023.05 0.361,966.47 0,896.635L-0,640.926L-0,385.641L0,128.122L-0,127.96C-0,57.367 200.56,0.139 447.96,0.139C457.706,0.139 467.379,0.228 476.97,0.403C464.369,21.127 453.224,42.857 443.403,64.76C306.333,65.155 184.905,83.388 109.449,112.76C99.242,116.733 88.436,122.634 79.637,127.96C88.436,133.285 99.242,139.186 109.449,143.159C176.76,169.361 280.654,186.698 399.6,190.417C393.195,214.674 388.466,236.598 385.15,254.534C248.78,249.074 132.107,226.095 63.991,193.833L63.991,375.133C64.962,375.823 74.294,382.439 79.637,385.641C88.436,390.916 99.242,396.76 109.449,400.694C172.323,424.933 267.115,441.512 376.279,446.593C377.595,467.968 379.549,489.489 382.084,510.871C247.032,505.246 131.596,482.59 63.991,450.879L63.991,630.418C64.962,631.108 74.294,637.724 79.637,640.926C88.436,646.2 99.242,652.044 109.449,655.979C181.087,683.597 294.165,701.27 422.724,703.323C430.369,726.85 438.738,748.477 447.697,767.515C284.844,767.488 142.316,742.904 63.991,706.164L63.991,885.948C64.962,886.637 74.294,893.254 79.637,896.456C88.436,901.73 99.242,907.574 109.449,911.509C185.74,940.92 309.027,959.053 447.96,959.053C586.895,959.053 710.182,940.92 786.473,911.509C796.679,907.574 807.485,901.73 816.285,896.456L831.19,887.338C853.178,887.28 875.308,887.104 895.878,886.966Z"/>
        <g transform="matrix(78.7273,0,0,84.8289,-251.239,163.309)">
            <path d="M10.361,7.683L11.34,7.683C11.153,7.444 10.978,7.145 10.817,6.787C10.656,6.429 10.516,6.034 10.398,5.601C10.28,5.168 10.187,4.719 10.121,4.254C10.055,3.789 10.022,3.331 10.022,2.879C10.022,2.429 10.055,1.971 10.121,1.506C10.187,1.041 10.28,0.592 10.398,0.16C10.516,-0.273 10.656,-0.669 10.817,-1.028C10.978,-1.387 11.153,-1.686 11.34,-1.924L10.361,-1.924C10.022,-1.492 9.743,-1.027 9.525,-0.528C9.306,-0.029 9.144,0.503 9.039,1.069C8.934,1.634 8.881,2.237 8.881,2.879C8.881,3.518 8.934,4.121 9.04,4.687C9.147,5.254 9.309,5.787 9.528,6.285C9.747,6.783 10.024,7.249 10.361,7.683Z" style="fill-rule:nonzero;"/>
            <path d="M14.719,7.683C15.058,7.249 15.336,6.784 15.554,6.285C15.771,5.787 15.933,5.254 16.039,4.687C16.145,4.121 16.198,3.518 16.198,2.879C16.198,2.237 16.146,1.634 16.041,1.069C15.936,0.503 15.774,-0.029 15.555,-0.528C15.336,-1.027 15.057,-1.492 14.719,-1.924L13.74,-1.924C13.927,-1.686 14.101,-1.387 14.262,-1.028C14.423,-0.669 14.563,-0.273 14.681,0.16C14.8,0.592 14.892,1.041 14.958,1.506C15.024,1.971 15.058,2.429 15.058,2.879C15.058,3.331 15.024,3.789 14.958,4.254C14.892,4.719 14.8,5.168 14.681,5.601C14.563,6.034 14.423,6.429 14.262,6.787C14.101,7.145 13.927,7.444 13.74,7.683L14.719,7.683Z" style="fill-rule:nonzero;"/>
        </g>
        <g transform="matrix(70.5363,0,0,63.8958,514.213,-37.1151)">
            <path d="M3.521,4.41L3.945,4.41L3.945,3.851L4.333,3.851L4.333,3.478L3.945,3.478L3.945,1.592L3.319,1.592C3.241,1.709 3.162,1.829 3.083,1.951C3.004,2.074 2.924,2.199 2.845,2.325C2.765,2.452 2.686,2.579 2.607,2.707C2.528,2.836 2.45,2.965 2.373,3.094C2.296,3.223 2.22,3.351 2.145,3.478L2.145,3.851L3.521,3.851L3.521,4.41ZM2.567,3.486L2.567,3.459C2.625,3.36 2.684,3.259 2.746,3.157C2.807,3.054 2.87,2.952 2.933,2.849C2.997,2.747 3.061,2.645 3.125,2.543C3.189,2.442 3.253,2.343 3.315,2.245C3.378,2.148 3.44,2.054 3.5,1.963L3.527,1.963L3.527,3.486L2.567,3.486Z" style="fill-rule:nonzero;"/>
            <path d="M2.227,8.41L4.127,8.41L4.127,8.036L2.714,8.036L2.826,8.111L2.826,7.914L2.712,8.111L3.423,7.402C3.594,7.233 3.727,7.088 3.823,6.968C3.919,6.848 3.986,6.738 4.025,6.638C4.063,6.538 4.083,6.435 4.083,6.328L4.083,6.323C4.083,6.167 4.043,6.029 3.964,5.909C3.885,5.789 3.777,5.695 3.64,5.626C3.502,5.558 3.346,5.523 3.171,5.523C2.982,5.523 2.814,5.561 2.669,5.636C2.524,5.71 2.41,5.814 2.327,5.946C2.245,6.078 2.203,6.23 2.202,6.402L2.205,6.406L2.618,6.408L2.619,6.401C2.619,6.299 2.641,6.209 2.685,6.132C2.729,6.055 2.791,5.994 2.87,5.951C2.95,5.908 3.041,5.886 3.146,5.886C3.249,5.886 3.338,5.907 3.412,5.949C3.486,5.99 3.543,6.047 3.583,6.119C3.623,6.191 3.643,6.273 3.643,6.365L3.643,6.37C3.643,6.446 3.629,6.517 3.601,6.583C3.573,6.65 3.524,6.725 3.454,6.809C3.385,6.894 3.288,7.001 3.164,7.13L2.227,8.112L2.227,8.41Z" style="fill-rule:nonzero;"/>
            <path d="M3.205,12.479C3.404,12.479 3.579,12.438 3.731,12.355C3.883,12.272 4.002,12.158 4.089,12.011C4.175,11.864 4.218,11.694 4.218,11.502L4.218,11.498C4.218,11.317 4.179,11.156 4.101,11.016C4.023,10.875 3.916,10.765 3.78,10.684C3.643,10.603 3.487,10.563 3.31,10.563C3.224,10.563 3.142,10.575 3.066,10.598C2.989,10.622 2.92,10.656 2.86,10.7C2.799,10.744 2.749,10.798 2.709,10.861L2.676,10.861L2.762,9.963L4.058,9.963L4.058,9.592L2.418,9.592L2.277,11.229L2.655,11.229C2.672,11.197 2.692,11.167 2.714,11.14C2.736,11.113 2.759,11.088 2.785,11.065C2.841,11.014 2.905,10.976 2.977,10.951C3.049,10.925 3.127,10.912 3.213,10.912C3.327,10.912 3.427,10.937 3.515,10.988C3.603,11.038 3.671,11.108 3.722,11.198C3.772,11.287 3.797,11.39 3.797,11.506L3.797,11.51C3.797,11.627 3.772,11.73 3.723,11.821C3.673,11.911 3.604,11.982 3.515,12.033C3.427,12.084 3.324,12.11 3.208,12.11C3.106,12.11 3.015,12.09 2.933,12.051C2.852,12.011 2.786,11.958 2.735,11.89C2.684,11.823 2.652,11.748 2.64,11.666L2.637,11.651L2.227,11.651L2.229,11.675C2.242,11.827 2.291,11.964 2.376,12.085C2.46,12.207 2.574,12.303 2.716,12.373C2.858,12.444 3.021,12.479 3.205,12.479Z" style="fill-rule:nonzero;"/>
        </g>
    </g>
</svg>
