<?xml version="1.0" encoding="UTF-8"?>
<!DOCTYPE svg PUBLIC "-//W3C//DTD SVG 1.1//EN" "http://www.w3.org/Graphics/SVG/1.1/DTD/svg11.dtd">
<svg version="1.1" xmlns="http://www.w3.org/2000/svg" xmlns:xlink="http://www.w3.org/1999/xlink" width="100%" height="100%" viewBox="0, 0, 963.367, 835.376">
  <g id="Reset" transform="translate(-30.316, -94.312)">
    <g>
      <path d="M771.376,512 C771.376,535.099 768.887,557.629 764.258,579.366 C733.177,725.434 603.198,835.372 447.997,835.372 C269.697,835.372 124.632,690.3 124.632,512 C124.632,333.692 269.697,188.636 447.997,188.636 C539.123,188.636 621.512,226.571 680.336,287.417 L724.425,199.24 C650.718,134.028 553.936,94.312 447.997,94.312 C217.696,94.312 30.316,281.683 30.316,512 C30.316,742.317 217.696,929.688 447.997,929.688 C655.378,929.688 827.859,777.754 860.184,579.366 C863.755,557.419 865.685,534.943 865.685,512 z" fill="#000000"/>
      <path d="M818.527,161.687 L773.831,251.086 L725.915,346.919 L643.37,512.001 L771.373,512.001 L865.688,512.001 L993.684,512.001 z" fill="#000000"/>
    </g>
  </g>
</svg>
