<?xml version="1.0" encoding="UTF-8" standalone="no"?>
<!DOCTYPE svg PUBLIC "-//W3C//DTD SVG 1.1//EN" "http://www.w3.org/Graphics/SVG/1.1/DTD/svg11.dtd">
<svg width="100%" height="100%" viewBox="0 0 16 16" version="1.1" xmlns="http://www.w3.org/2000/svg" xmlns:xlink="http://www.w3.org/1999/xlink" xml:space="preserve" xmlns:serif="http://www.serif.com/" style="fill-rule:evenodd;clip-rule:evenodd;stroke-linejoin:round;stroke-miterlimit:2;">
    <g transform="matrix(1,0,0,1,-618,-162)">
        <g id="scriptPy">
            <g transform="matrix(1,0,0,1,616,161)">
                <path d="M14.71,4.29L11.71,1.29L11,1L4,1L3,2L3,15L4,16L14,16L15,15L15,5L14.71,4.29ZM14,15L4,15L4,2L10,2L10,6L14,6L14,15ZM11,5L11,2L14,5L11,5Z" style="fill:rgb(255,215,67);"/>
            </g>
            <g transform="matrix(0.0727536,0,0,0.0727536,621,166)">
                <g id="javascript">
                    <g>
                        <path d="M82.294,22.827L82.294,40.563C82.294,48.05 76.342,54.188 68.888,54.188L42.106,54.188C33.013,54.188 25.356,61.995 25.356,70.845L25.356,83.095L16.138,83.095C8.345,83.095 3.793,77.439 1.888,69.501C-0.683,58.837 -0.574,52.464 1.888,42.251C4.022,33.341 10.845,28.657 18.638,28.657L55.513,28.657L55.513,25.251L28.7,25.251L28.7,15.032C28.7,7.295 30.76,3.099 42.106,1.095C45.958,0.413 50.335,0.022 54.919,0.001C56.476,-0.006 58.055,0.029 59.643,0.109L59.643,22.827L82.294,22.827ZM40.419,8.22C37.639,8.22 35.388,10.518 35.388,13.345C35.388,16.161 37.639,18.438 40.419,18.438C43.188,18.438 45.45,16.161 45.45,13.345C45.45,10.518 43.188,8.22 40.419,8.22Z" style="fill:url(#_Linear1);"/>
                        <path id="path1950" d="M85.638,28.657L85.638,40.563C85.638,49.794 77.812,57.563 68.888,57.563L42.106,57.563C34.77,57.563 28.7,63.842 28.7,71.188L28.7,96.72C28.7,103.986 35.019,108.26 42.106,110.345C50.594,112.84 58.733,113.291 68.888,110.345C75.638,108.39 82.294,104.457 82.294,96.72L82.294,86.501L55.513,86.501L55.513,83.095L95.7,83.095C103.493,83.095 106.396,77.659 109.106,69.501C111.906,61.102 111.787,53.025 109.106,42.251C107.181,34.493 103.502,28.657 95.7,28.657L85.638,28.657ZM70.575,93.313C73.355,93.313 75.606,95.591 75.606,98.407C75.606,101.234 73.355,103.532 70.575,103.532C67.805,103.532 65.544,101.234 65.544,98.407C65.544,95.591 67.805,93.313 70.575,93.313Z" style="fill:url(#_Linear2);fill-rule:nonzero;"/>
                    </g>
                </g>
            </g>
        </g>
    </g>
    <defs>
        <linearGradient id="_Linear1" x1="0" y1="0" x2="1" y2="0" gradientUnits="userSpaceOnUse" gradientTransform="matrix(61.3261,53.2723,-53.2723,61.3261,-3.31083e-07,-2.97868e-07)"><stop offset="0" style="stop-color:rgb(90,159,212);stop-opacity:1"/><stop offset="1" style="stop-color:rgb(48,105,152);stop-opacity:1"/></linearGradient>
        <linearGradient id="_Linear2" x1="0" y1="0" x2="1" y2="0" gradientUnits="userSpaceOnUse" gradientTransform="matrix(-21.8995,-31.2832,31.2832,-21.8995,69.9307,97.548)"><stop offset="0" style="stop-color:rgb(255,212,59);stop-opacity:1"/><stop offset="1" style="stop-color:rgb(255,232,115);stop-opacity:1"/></linearGradient>
    </defs>
</svg>
