<?xml version="1.0" encoding="UTF-8"?>
<!DOCTYPE svg PUBLIC "-//W3C//DTD SVG 1.1//EN" "http://www.w3.org/Graphics/SVG/1.1/DTD/svg11.dtd">
<svg version="1.1" xmlns="http://www.w3.org/2000/svg" xmlns:xlink="http://www.w3.org/1999/xlink" width="100%" height="100%" viewBox="0, 0, 800, 360">
  <g id="blob">
    <g>
      <path d="M750.5,0.5 C778.114,0.5 800.5,22.886 800.5,50.5 L800.5,310.5 C800.5,338.114 778.114,360.5 750.5,360.5 L50.5,360.5 C22.886,360.5 0.5,338.114 0.5,310.5 L0.5,50.5 C0.5,22.886 22.886,0.5 50.5,0.5 L750.5,0.5 z M458.909,87.75 Q438.409,87.75 422.034,95 Q405.659,102.25 394.409,115 Q383.159,127.75 377.159,144.875 Q371.159,162 371.159,182 Q371.159,201.5 377.159,218.375 Q383.159,235.25 394.409,247.75 Q405.659,260.25 422.034,267.375 Q438.409,274.5 458.909,274.5 Q479.659,274.5 495.909,267.375 Q512.159,260.25 523.409,247.75 Q534.659,235.25 540.659,218.375 Q546.659,201.5 546.659,182 Q546.659,162 540.659,144.875 Q534.659,127.75 523.409,115 Q512.159,102.25 495.909,95 Q479.659,87.75 458.909,87.75 z M458.909,120.75 Q472.159,120.75 481.409,125.875 Q490.659,131 496.409,139.625 Q502.159,148.25 504.784,159.25 Q507.409,170.25 507.409,182 Q507.409,193.25 504.784,203.875 Q502.159,214.5 496.409,223 Q490.659,231.5 481.409,236.625 Q472.159,241.75 458.909,241.75 Q445.659,241.75 436.409,236.625 Q427.159,231.5 421.409,223 Q415.659,214.5 413.034,203.875 Q410.409,193.25 410.409,182 Q410.409,170.25 413.034,159.25 Q415.659,148.25 421.409,139.625 Q427.159,131 436.409,125.875 Q445.659,120.75 458.909,120.75 z M657.409,92 L573.409,92 L573.409,270.5 L659.909,270.5 Q671.909,270.5 683.284,267.5 Q694.659,264.5 703.534,258.25 Q712.409,252 717.659,242.125 Q722.909,232.25 722.909,218.75 Q722.909,202 714.784,190.125 Q706.659,178.25 690.159,173.5 Q702.159,167.75 708.284,158.75 Q714.409,149.75 714.409,136.25 Q714.409,123.75 710.284,115.25 Q706.159,106.75 698.659,101.625 Q691.159,96.5 680.659,94.25 Q670.159,92 657.409,92 z M655.409,191 Q668.159,191 675.909,196.875 Q683.659,202.75 683.659,216.5 Q683.659,223.5 681.284,228 Q678.909,232.5 674.909,235.125 Q670.909,237.75 665.659,238.875 Q660.409,240 654.659,240 L612.659,240 L612.659,191 L655.409,191 z M649.409,122.5 Q654.659,122.5 659.534,123.375 Q664.409,124.25 668.159,126.5 Q671.909,128.75 674.159,132.75 Q676.409,136.75 676.409,143 Q676.409,154.25 669.659,159.25 Q662.909,164.25 652.409,164.25 L612.659,164.25 L612.659,122.5 L649.409,122.5 z M269.909,92 L230.658,92 L230.658,270.5 L356.909,270.5 L356.909,237.5 L269.909,237.5 L269.909,92 z M138.658,92 L54.659,92 L54.659,270.5 L141.158,270.5 Q153.159,270.5 164.534,267.5 Q175.909,264.5 184.784,258.25 Q193.659,252 198.909,242.125 Q204.159,232.25 204.159,218.75 Q204.159,202 196.034,190.125 Q187.909,178.25 171.409,173.5 Q183.409,167.75 189.534,158.75 Q195.659,149.75 195.659,136.25 Q195.659,123.75 191.534,115.25 Q187.409,106.75 179.909,101.625 Q172.409,96.5 161.909,94.25 Q151.409,92 138.659,92 z M136.658,191 Q149.409,191 157.159,196.875 Q164.909,202.75 164.909,216.5 Q164.909,223.5 162.534,228 Q160.159,232.5 156.159,235.125 Q152.159,237.75 146.909,238.875 Q141.659,240 135.909,240 L93.909,240 L93.909,191 L136.658,191 z M130.658,122.5 Q135.909,122.5 140.784,123.375 Q145.659,124.25 149.409,126.5 Q153.159,128.75 155.409,132.75 Q157.659,136.75 157.659,143 Q157.659,154.25 150.909,159.25 Q144.159,164.25 133.659,164.25 L93.909,164.25 L93.909,122.5 L130.658,122.5 z" fill="#000000"/>
      <path d="M750.5,0.5 C778.114,0.5 800.5,22.886 800.5,50.5 L800.5,310.5 C800.5,338.114 778.114,360.5 750.5,360.5 L50.5,360.5 C22.886,360.5 0.5,338.114 0.5,310.5 L0.5,50.5 C0.5,22.886 22.886,0.5 50.5,0.5 L750.5,0.5 z M458.909,87.75 Q438.409,87.75 422.034,95 Q405.659,102.25 394.409,115 Q383.159,127.75 377.159,144.875 Q371.159,162 371.159,182 Q371.159,201.5 377.159,218.375 Q383.159,235.25 394.409,247.75 Q405.659,260.25 422.034,267.375 Q438.409,274.5 458.909,274.5 Q479.659,274.5 495.909,267.375 Q512.159,260.25 523.409,247.75 Q534.659,235.25 540.659,218.375 Q546.659,201.5 546.659,182 Q546.659,162 540.659,144.875 Q534.659,127.75 523.409,115 Q512.159,102.25 495.909,95 Q479.659,87.75 458.909,87.75 z M458.909,120.75 Q472.159,120.75 481.409,125.875 Q490.659,131 496.409,139.625 Q502.159,148.25 504.784,159.25 Q507.409,170.25 507.409,182 Q507.409,193.25 504.784,203.875 Q502.159,214.5 496.409,223 Q490.659,231.5 481.409,236.625 Q472.159,241.75 458.909,241.75 Q445.659,241.75 436.409,236.625 Q427.159,231.5 421.409,223 Q415.659,214.5 413.034,203.875 Q410.409,193.25 410.409,182 Q410.409,170.25 413.034,159.25 Q415.659,148.25 421.409,139.625 Q427.159,131 436.409,125.875 Q445.659,120.75 458.909,120.75 z M657.409,92 L573.409,92 L573.409,270.5 L659.909,270.5 Q671.909,270.5 683.284,267.5 Q694.659,264.5 703.534,258.25 Q712.409,252 717.659,242.125 Q722.909,232.25 722.909,218.75 Q722.909,202 714.784,190.125 Q706.659,178.25 690.159,173.5 Q702.159,167.75 708.284,158.75 Q714.409,149.75 714.409,136.25 Q714.409,123.75 710.284,115.25 Q706.159,106.75 698.659,101.625 Q691.159,96.5 680.659,94.25 Q670.159,92 657.409,92 z M655.409,191 Q668.159,191 675.909,196.875 Q683.659,202.75 683.659,216.5 Q683.659,223.5 681.284,228 Q678.909,232.5 674.909,235.125 Q670.909,237.75 665.659,238.875 Q660.409,240 654.659,240 L612.659,240 L612.659,191 L655.409,191 z M649.409,122.5 Q654.659,122.5 659.534,123.375 Q664.409,124.25 668.159,126.5 Q671.909,128.75 674.159,132.75 Q676.409,136.75 676.409,143 Q676.409,154.25 669.659,159.25 Q662.909,164.25 652.409,164.25 L612.659,164.25 L612.659,122.5 L649.409,122.5 z M269.909,92 L230.658,92 L230.658,270.5 L356.909,270.5 L356.909,237.5 L269.909,237.5 L269.909,92 z M138.658,92 L54.659,92 L54.659,270.5 L141.158,270.5 Q153.159,270.5 164.534,267.5 Q175.909,264.5 184.784,258.25 Q193.659,252 198.909,242.125 Q204.159,232.25 204.159,218.75 Q204.159,202 196.034,190.125 Q187.909,178.25 171.409,173.5 Q183.409,167.75 189.534,158.75 Q195.659,149.75 195.659,136.25 Q195.659,123.75 191.534,115.25 Q187.409,106.75 179.909,101.625 Q172.409,96.5 161.909,94.25 Q151.409,92 138.659,92 z M136.658,191 Q149.409,191 157.159,196.875 Q164.909,202.75 164.909,216.5 Q164.909,223.5 162.534,228 Q160.159,232.5 156.159,235.125 Q152.159,237.75 146.909,238.875 Q141.659,240 135.909,240 L93.909,240 L93.909,191 L136.658,191 z M130.658,122.5 Q135.909,122.5 140.784,123.375 Q145.659,124.25 149.409,126.5 Q153.159,128.75 155.409,132.75 Q157.659,136.75 157.659,143 Q157.659,154.25 150.909,159.25 Q144.159,164.25 133.659,164.25 L93.909,164.25 L93.909,122.5 L130.658,122.5 z" fill-opacity="0" stroke="#000000" stroke-width="1"/>
    </g>
  </g>
</svg>
