<?xml version="1.0" encoding="UTF-8" standalone="no"?>
<!DOCTYPE svg PUBLIC "-//W3C//DTD SVG 1.1//EN" "http://www.w3.org/Graphics/SVG/1.1/DTD/svg11.dtd">
<svg width="100%" height="100%" viewBox="0 0 24 24" version="1.1" xmlns="http://www.w3.org/2000/svg" xmlns:xlink="http://www.w3.org/1999/xlink" xml:space="preserve" xmlns:serif="http://www.serif.com/" style="fill-rule:evenodd;clip-rule:evenodd;stroke-linejoin:round;stroke-miterlimit:2;">
    <g id="DB-Editor" serif:id="DB Editor" transform="matrix(0.25,0,0,0.25,0,0)">
        <g transform="matrix(0.0745096,0,0,0.0661274,38.1889,-3.88146)">
            <g id="Layer3">
                <g id="schema">
                    <path d="M19.383,325.28L19.383,179.59L19.389,179.59L19.383,179.438C19.383,112.937 187.796,59.026 395.544,59.026C603.293,59.026 771.705,112.937 771.705,179.438L771.669,180.345L771.669,422.178L771.705,422.184L771.669,423.082L771.669,662.666L771.705,662.672L771.669,663.57L771.669,903.133L770.187,903.133L771.705,903.391C771.705,952.437 678.307,994.568 544.808,1012.86C510.241,996.674 475.982,979.391 443.959,961.35C540.58,957.339 624.756,941.377 679.799,917.572C688.369,913.865 697.443,908.36 704.833,903.391L717.934,894.4L717.934,724.139C652.092,758.772 532.347,781.924 395.544,781.924C380.436,781.924 365.537,781.641 350.893,781.076C342.777,760.187 334.156,739.64 325.088,719.495C347.853,720.911 371.417,721.641 395.544,721.641C512.21,721.641 615.736,704.559 679.799,676.853C688.369,673.146 697.443,667.641 704.833,662.672L717.934,653.681L717.934,483.651C652.092,518.284 532.347,541.435 395.544,541.435C331.446,541.435 271.093,536.353 218.261,527.386C200.456,501.157 182.271,476.727 164.046,454.423C225.951,471.305 306.96,481.153 395.544,481.153C512.21,481.153 615.736,464.071 679.799,436.365C688.369,432.658 697.443,427.153 704.833,422.184L717.934,413.192L717.934,241.504C652.092,276.473 532.347,299.85 395.544,299.85C258.701,299.85 138.924,276.459 73.117,241.484L73.117,361.348C54.475,346.118 36.43,333.958 19.383,325.28ZM704.833,179.438C697.443,184.455 688.369,190.014 679.799,193.757C615.736,221.733 512.21,238.981 395.544,238.981C278.879,238.981 175.352,221.733 111.289,193.757C102.718,190.014 93.644,184.455 86.255,179.438C93.644,174.421 102.718,168.862 111.289,165.119C175.352,137.143 278.879,119.895 395.544,119.895C512.21,119.895 615.736,137.143 679.799,165.119C688.369,168.862 697.443,174.421 704.833,179.438Z"/>
                </g>
            </g>
        </g>
        <g id="SakilaThick" transform="matrix(1,0,0,0.991704,-0.5,1.46197)">
            <path d="M81.981,75.218C77.119,75.086 74.505,75.541 71.331,76.88C70.428,77.26 68.49,77.77 68.342,78.904C68.839,79.425 68.916,80.2 69.31,80.841C70.067,82.067 71.348,83.713 72.489,84.576C73.738,85.52 75.023,86.528 76.36,87.347C78.739,88.8 81.396,89.628 83.686,91.081C85.037,91.937 85.733,92.26 87.196,92.988C88.054,93.415 88.064,93.469 88.932,93.911C88.973,93.932 90.156,94.609 90.132,94.572C89.725,93.945 89.482,93.441 89.063,92.932C88.526,92.277 88.141,91.558 87.567,90.934C85.576,88.772 83.379,86.749 81.007,85.046C79.116,83.687 74.885,81.852 74.095,79.645C74.049,79.601 74.003,79.557 73.957,79.51C75.297,79.358 77.467,79.474 78.704,79.143C80.784,78.583 82.64,78.726 84.786,78.173C85.755,77.895 86.723,77.619 87.69,77.342C87.69,77.159 89.29,76.772 89.29,76.585C88.206,75.473 85.631,73.298 84.449,72.29C81.353,69.652 77.974,67.016 74.495,64.817C72.566,63.597 70.181,62.805 68.137,61.771C67.449,61.424 65.841,61.544 65.386,60.965C64.312,59.591 63.726,57.856 62.898,56.257C61.162,52.914 59.658,49.258 58.121,45.742C57.073,43.34 56.188,40.974 54.88,38.822C48.604,28.489 41.846,22.252 31.38,16.122C29.153,14.821 26.471,14.306 23.638,13.633C22.118,13.538 20.596,13.449 19.076,13.355C18.148,12.969 17.182,11.831 16.312,11.278C12.844,9.085 3.85,4.314 1.282,10.586C-0.339,14.545 3.006,18.41 4.452,20.413C5.468,21.822 6.767,23.399 7.494,24.979C7.971,26.022 8.053,27.065 8.461,28.164C9.467,30.875 10.041,33.823 11.34,36.329C11.998,37.596 13.121,38.933 13.952,40.067C14.462,40.762 15.335,41.068 15.473,42.142C14.618,43.34 14.37,45.195 13.891,46.712C11.731,53.53 12.345,62.005 15.488,67.054C16.453,68.602 19.824,72.926 22.947,71.653C25.678,70.537 25.068,66.084 25.85,63.038C26.027,62.349 25.918,61.843 26.265,61.379C26.265,61.427 26.565,61.274 26.565,61.315C27.394,62.977 28.224,64.639 29.053,66.298C30.895,69.268 33.863,72.574 36.633,74.665C38.069,75.75 39.2,77.626 41.056,78.265L41.056,78.122L40.917,78.122C40.557,77.567 41.395,77.332 40.936,76.88C39.854,75.819 38.951,74.498 38.056,73.281C35.537,69.857 33.311,66.109 31.283,62.21C30.314,60.349 29.473,58.292 28.655,56.396C28.341,55.666 27.644,54.164 26.988,53.781C26.094,55.172 23.777,56.693 23.085,58.336C21.979,60.959 21.837,64.153 21.426,67.468C21.183,67.557 21.292,67.496 21.15,67.607C19.225,67.143 18.548,65.158 17.832,63.455C16.023,59.148 15.686,52.216 17.279,47.265C17.692,45.982 19.553,41.941 18.8,40.759C18.44,39.574 17.253,38.895 16.588,37.988C15.766,36.875 14.945,35.403 14.376,34.114C12.895,30.758 12.203,26.989 10.644,23.598C9.898,21.974 8.838,20.334 7.803,18.893C6.656,17.295 5.873,16.516 4.985,14.585C4.669,13.9 4.239,12.8 4.708,12.092C4.857,11.618 5.068,11.419 5.538,11.264C6.34,10.645 7.873,11.473 8.708,11.818C10.925,12.74 12.774,13.615 14.652,14.864C15.555,15.461 16.466,16.617 17.556,16.936C17.97,16.936 18.385,17.036 18.8,17.036C20.746,17.485 22.926,17.178 24.744,17.731C27.957,18.707 30.137,20.431 32.754,22.08C40.721,27.12 47.435,33.686 51.892,42.242C52.609,43.617 53.119,45.035 53.75,46.495C55.025,49.439 56.429,52.27 57.698,55.151C58.962,58.027 60.196,61.527 61.983,63.919C62.923,65.174 66.755,65.55 68.404,66.245C69.561,66.734 71.456,67.547 72.551,68.207C74.644,69.468 76.371,70.675 78.334,72.059C79.315,72.751 81.3,74 82.381,75.218C83.111,76.041 81.981,75.218 81.981,75.218ZM21.257,21.426C20.286,21.331 18.067,21.843 18.109,21.887C19.212,23.052 20.525,24.116 21.257,25.396C22.029,26.746 22.488,27.983 23.103,29.274C23.165,29.215 23.226,29.152 23.288,29.092C24.431,28.286 25.27,26.969 24.949,25.03C24.831,24.316 24.604,23.748 24.207,23.175C23.678,22.411 22.323,21.53 21.257,21.426Z"/>
        </g>
    </g>
</svg>
