<?xml version="1.0" encoding="UTF-8"?>
<!DOCTYPE svg PUBLIC "-//W3C//DTD SVG 1.1//EN" "http://www.w3.org/Graphics/SVG/1.1/DTD/svg11.dtd">
<svg version="1.1" xmlns="http://www.w3.org/2000/svg" xmlns:xlink="http://www.w3.org/1999/xlink" width="100%" height="100%" viewBox="0, 0, 32, 32">
  <g id="python" transform="translate(0, 0)">
    <path d="M15.6,15.5 L13.6,15.5 C12.2,15.5 11.3,16.4 11.3,17.8 L11.3,19.6 C11.3,19.8 11.2,19.9 11,19.9 L10.1,19.9 C9.2,19.9 8.5,19.5 8.1,18.7 C7.8,18.1 7.6,17.5 7.6,16.9 C7.5,15.8 7.5,14.7 7.9,13.6 C8.2,12.7 8.8,12 9.8,11.8 L15.6,11.8 C15.7,11.8 15.9,11.8 15.9,11.7 L15.9,11.2 C15.9,11.2 15.7,11.1 15.6,11.1 L12.2,11.1 C11.9,11.1 11.8,11 11.8,10.7 L11.8,9.4 C11.8,8.7 12.1,8.2 12.7,8 C13.2,7.8 13.7,7.6 14.2,7.5 C15.4,7.3 16.6,7.3 17.8,7.6 C18.3,7.7 18.8,7.9 19.2,8.2 C19.6,8.6 19.9,9 19.8,9.6 L19.8,13.2 C19.8,14.6 19,15.4 17.6,15.4 C16.9,15.5 16.2,15.5 15.6,15.5 z M12.8,9.5 C12.8,9.9 13.1,10.3 13.6,10.3 C14,10.3 14.4,9.9 14.4,9.5 C14.4,9.1 14,8.8 13.6,8.7 C13.1,8.7 12.8,9.1 12.8,9.5 z M16.4,16.5 L18.4,16.5 C19.8,16.5 20.7,15.6 20.7,14.2 L20.7,12.4 C20.7,12.2 20.8,12.1 21,12.1 L21.9,12.1 C22.8,12.1 23.5,12.5 23.9,13.3 C24.2,13.9 24.4,14.5 24.4,15.1 C24.5,16.2 24.5,17.3 24.1,18.4 C23.8,19.3 23.2,20 22.2,20.2 L16.4,20.2 C16.3,20.2 16.1,20.2 16.1,20.3 L16.1,20.8 C16.1,20.8 16.3,20.9 16.4,20.9 L19.8,20.9 C20.1,20.9 20.2,21 20.2,21.3 L20.2,22.6 C20.2,23.3 19.9,23.8 19.3,24 C18.8,24.2 18.3,24.4 17.8,24.5 C16.6,24.7 15.4,24.7 14.2,24.4 C13.7,24.3 13.2,24.1 12.8,23.8 C12.4,23.4 12.1,23 12.2,22.4 L12.2,18.8 C12.2,17.4 13,16.6 14.4,16.6 C15.1,16.5 15.8,16.5 16.4,16.5 z M19.2,22.5 C19.2,22.1 18.9,21.7 18.4,21.7 C18,21.7 17.6,22.1 17.6,22.5 C17.6,22.9 18,23.2 18.4,23.3 C18.9,23.3 19.2,22.9 19.2,22.5 z" fill="#356EA1" id="python"/>
  </g>
</svg>
