<?xml version="1.0" encoding="UTF-8"?>
<!DOCTYPE svg PUBLIC "-//W3C//DTD SVG 1.1//EN" "http://www.w3.org/Graphics/SVG/1.1/DTD/svg11.dtd">
<svg version="1.1" xmlns="http://www.w3.org/2000/svg" xmlns:xlink="http://www.w3.org/1999/xlink" width="100%" height="100%" viewBox="0, 0, 32, 32">
  <g id="sqlite" transform="translate(0, 0)">
    <g>
      <path d="M17.022,22.959 C17.01,22.814 17.004,22.721 17.004,22.721 C17.004,22.721 16.567,19.775 16.047,18.896 C15.964,18.757 16.056,18.185 16.285,17.337 C16.419,17.569 16.986,18.562 17.1,18.882 C17.228,19.244 17.255,19.347 17.255,19.347 C17.255,19.347 16.944,17.748 16.434,16.815 C16.546,16.438 16.679,16.021 16.831,15.575 C17.024,15.914 17.486,16.735 17.588,17.019 C17.609,17.078 17.626,17.127 17.641,17.173 C17.646,17.146 17.651,17.118 17.656,17.091 C17.54,16.596 17.31,15.734 16.996,15.097 C17.693,11.471 20.069,6.625 22.504,4.463 L6.616,4.463 C5.551,4.463 4.68,5.334 4.68,6.399 L4.68,23.921 C4.68,24.986 5.551,25.857 6.616,25.857 L17.08,25.857 C17.005,24.944 16.98,23.933 17.022,22.959" fill-opacity="0" stroke="#0F80CC" stroke-width="1" id="path3005" opacity="0.55"/>
      <path d="M26.21,3.889 C25.122,2.919 23.805,3.309 22.504,4.463 C22.311,4.634 22.119,4.824 21.927,5.028 C19.703,7.387 17.638,11.758 16.996,15.097 C17.246,15.603 17.442,16.25 17.57,16.744 C17.603,16.871 17.633,16.99 17.656,17.091 C17.713,17.33 17.743,17.486 17.743,17.486 C17.743,17.486 17.723,17.41 17.641,17.173 C17.626,17.127 17.609,17.078 17.588,17.019 C17.579,16.995 17.567,16.966 17.554,16.934 C17.409,16.597 17.007,15.885 16.831,15.575 C16.679,16.021 16.546,16.438 16.434,16.815 C16.944,17.748 17.255,19.347 17.255,19.347 C17.255,19.347 17.228,19.244 17.1,18.882 C16.986,18.562 16.419,17.569 16.285,17.337 C16.056,18.185 15.964,18.757 16.047,18.896 C16.206,19.166 16.358,19.632 16.492,20.147 C16.794,21.308 17.004,22.721 17.004,22.721 C17.004,22.721 17.01,22.814 17.022,22.959 C16.98,23.933 17.005,24.944 17.08,25.857 C17.18,27.066 17.369,28.105 17.609,28.661 L17.771,28.572 C17.419,27.477 17.276,26.042 17.339,24.386 C17.434,21.856 17.799,18.618 18.875,15.438 C20.692,10.637 23.431,6.973 25.739,5.133 C23.635,7.033 21.29,13.41 20.438,15.687 C19.483,18.237 18.305,20.402 17.898,22.695 C18.601,20.546 20.874,19.622 20.874,19.622 C20.874,19.622 23,17.062 23,17.062 C23,17.062 20.562,17.5 20.562,17.5 C20.562,17.5 24.375,14.687 24.375,14.687 C24.375,14.687 28.866,6.258 26.21,3.889" fill="#0F80CC" id="path3045"/>
    </g>
  </g>
</svg>
