<?xml version="1.0" encoding="UTF-8"?>
<!DOCTYPE svg PUBLIC "-//W3C//DTD SVG 1.1//EN" "http://www.w3.org/Graphics/SVG/1.1/DTD/svg11.dtd">
<svg version="1.1" xmlns="http://www.w3.org/2000/svg" xmlns:xlink="http://www.w3.org/1999/xlink" width="100%" height="100%" viewBox="0, 0, 32, 32">
  <g id="xml" transform="translate(0, 0)">
    <path d="M9.697,9.601 C16.897,9.501 22.597,15.801 22.397,22.301 L19.797,22.301 C19.697,19.501 18.797,17.201 16.897,15.201 C14.997,13.201 12.497,12.301 9.797,12.301 C9.697,11.401 9.697,10.501 9.697,9.601 z M18.297,22.401 L15.697,22.401 C15.597,21.901 15.497,21.301 15.397,20.801 C14.597,18.401 13.097,17.001 10.597,16.501 C10.397,16.401 10.197,16.401 9.897,16.401 C9.697,16.401 9.697,16.301 9.697,16.201 L9.697,13.701 C11.797,13.701 13.597,14.401 15.197,15.701 C17.197,17.501 18.197,19.701 18.297,22.401 z M13.197,20.601 C13.197,21.601 12.397,22.401 11.397,22.401 C10.397,22.401 9.697,21.601 9.597,20.601 C9.597,19.601 10.397,18.801 11.397,18.801 C12.397,18.801 13.197,19.601 13.197,20.601 z" fill="#EF7623" id="xml"/>
  </g>
</svg>
