<?xml version="1.0" encoding="UTF-8" standalone="no"?>
<!DOCTYPE svg PUBLIC "-//W3C//DTD SVG 1.1//EN" "http://www.w3.org/Graphics/SVG/1.1/DTD/svg11.dtd">
<svg width="100%" height="100%" viewBox="0 0 16 16" version="1.1" xmlns="http://www.w3.org/2000/svg" xmlns:xlink="http://www.w3.org/1999/xlink" xml:space="preserve" xmlns:serif="http://www.serif.com/" style="fill-rule:evenodd;clip-rule:evenodd;stroke-linejoin:round;stroke-miterlimit:2;">
    <g id="pendingInvitation">
        <g transform="matrix(1,0,0,1,0,-1)">
            <path d="M6.195,14.98L1.282,14.98C0.565,14.98 0.017,14.442 0.017,13.739L0.017,6.295C0.017,5.592 0.565,5.054 1.282,5.054L4.232,5.054L4.232,5.881L1.282,5.881C1.029,5.881 0.86,6.047 0.86,6.295L0.86,13.739C0.86,13.987 1.029,14.152 1.282,14.152L6.683,14.152L6.195,14.98ZM10.134,8.306L10.134,6.295C10.134,6.047 9.965,5.881 9.712,5.881L6.761,5.881L6.761,5.054L9.712,5.054C10.429,5.054 10.977,5.592 10.977,6.295L10.977,6.878L10.134,8.306ZM5.918,8.445L7.731,6.667L8.321,7.246L5.497,10.017L2.673,7.246L3.263,6.667L5.075,8.445L5.075,1.002L5.918,1.002L5.918,8.445Z"/>
        </g>
        <g transform="matrix(1,0,0,1,6,7)">
            <path d="M0.987,8L5.556,0L10,8L0.987,8ZM6,2.573L5,2.573L5,5L6,5L6,2.573ZM5.5,6C5.224,6 5,6.224 5,6.5C5,6.776 5.224,7 5.5,7C5.776,7 6,6.776 6,6.5C6,6.224 5.776,6 5.5,6Z"/>
        </g>
    </g>
</svg>
