<?xml version="1.0" encoding="UTF-8"?>
<!DOCTYPE svg PUBLIC "-//W3C//DTD SVG 1.1//EN" "http://www.w3.org/Graphics/SVG/1.1/DTD/svg11.dtd">
<svg version="1.1" xmlns="http://www.w3.org/2000/svg" xmlns:xlink="http://www.w3.org/1999/xlink" width="100%" height="100%" viewBox="0, 0, 1024, 1024">
  <g id="Image" transform="translate(0, 0)">
    <path d="M132,312 L924,312 L924,864 L132,864 L132,312 z" fill="#E7E8E9"/>
    <path d="M204,370 L852,370 L852,806 L204,806 L204,370 z" fill="#BCBEC0"/>
    <path d="M306,534 C282.804,534 264,515.196 264,492 C264,468.804 282.804,450 306,450 C329.196,450 348,468.804 348,492 C348,515.196 329.196,534 306,534 z" fill="#E7E8E9"/>
    <path d="M252,744 L792,744 L612,492 L528,628.8 L468,571.2 L252,744" fill="#E7E8E9"/>
    <path d="M528,204 C504.804,204 486,185.196 486,162 C486,138.804 504.804,120 528,120 C551.196,120 570,138.804 570,162 C570,185.196 551.196,204 528,204 z" fill="#E7E8E9"/>
    <path d="M468.64,180 C470.009,188.562 474.334,196.108 480.25,202.331 C486.339,208.5 494.136,212.306 502.581,213.941 L440.522,276 L372.64,276 L468.64,180 z" fill="#E7E8E9"/>
    <path d="M585.941,180 C584.572,188.562 580.247,196.108 574.331,202.331 C568.242,208.5 560.445,212.306 552,213.941 L614.059,276 L681.941,276 L585.941,180 z" fill="#E7E8E9"/>
  </g>
</svg>
