<?xml version="1.0" encoding="UTF-8" standalone="no"?>
<!DOCTYPE svg PUBLIC "-//W3C//DTD SVG 1.1//EN" "http://www.w3.org/Graphics/SVG/1.1/DTD/svg11.dtd">
<svg width="100%" height="100%" viewBox="0 0 46 38" version="1.1" xmlns="http://www.w3.org/2000/svg" xmlns:xlink="http://www.w3.org/1999/xlink" xml:space="preserve" xmlns:serif="http://www.serif.com/" style="fill-rule:evenodd;clip-rule:evenodd;stroke-linejoin:round;stroke-miterlimit:2;">
    <g transform="matrix(1,0,0,1,-800,-135)">
        <g id="Menu">
        </g>
        <g transform="matrix(0.998995,0,0,1,-658.523,-1687)">
            <g id="Expand">
                <g>
                    <g transform="matrix(1.00101,0,0,1,-742.222,1145)">
                        <path d="M2210,684L2210,708L2233.97,708L2233.97,705L2234,705L2234,696L2230,696L2230,704L2214,704L2214,688L2222,688L2222,684L2210,684Z" style="fill:rgb(34,34,36);"/>
                    </g>
                    <g transform="matrix(1,0,0,1,-6.00603,5)">
                        <g transform="matrix(0.332663,0,0,0.666667,1002.01,606.667)">
                            <rect x="1470" y="1823" width="30" height="6" style="fill:rgb(34,34,36);"/>
                        </g>
                        <g transform="matrix(0.132462,0,0,1.83333,1303.31,-1520.17)">
                            <rect x="1470" y="1823" width="30" height="6" style="fill:rgb(34,34,36);"/>
                        </g>
                        <g transform="matrix(0.0936647,0.0935706,-2.43688,2.43443,5803.18,-2752.73)">
                            <rect x="1470" y="1823" width="30" height="6" style="fill:rgb(34,34,36);"/>
                        </g>
                    </g>
                </g>
            </g>
        </g>
        <g id="Grid">
        </g>
        <g id="Word-Wrap" serif:id="Word Wrap">
        </g>
        <g id="Special-Chars" serif:id="Special Chars">
        </g>
        <g id="Search">
        </g>
        <g transform="matrix(0.804283,0.804282,-0.804283,0.804282,723.382,-1009.13)">
            <g id="SQL-Beautifier" serif:id="SQL Beautifier">
                <g id="Broom">
                    <g id="Brush">
                    </g>
                    <g id="Handle">
                    </g>
                </g>
            </g>
        </g>
        <g transform="matrix(0.804283,0.804282,-0.804283,0.804282,653.382,-1009.13)">
            <g id="SQL-Beautifier1" serif:id="SQL Beautifier">
                <g id="Broom1" serif:id="Broom">
                    <g id="Brush1" serif:id="Brush">
                    </g>
                    <g id="Handle1" serif:id="Handle">
                    </g>
                </g>
            </g>
        </g>
        <g id="Auto-Commit" serif:id="Auto Commit" transform="matrix(1,0,0,1,524,-2050)">
            <g id="Auto-Commit1" serif:id="Auto Commit">
            </g>
        </g>
        <g id="Stop-on-Error" serif:id="Stop on Error" transform="matrix(1,0,0,1,260,-2050)">
            <g id="Stop-on-Error1" serif:id="Stop on Error">
            </g>
        </g>
        <g transform="matrix(1,0,0,1,83,-174)">
            <g id="Execute-Explain" serif:id="Execute Explain">
                <g id="Search1" serif:id="Search">
                </g>
            </g>
        </g>
        <g id="Execute-Current" serif:id="Execute Current">
        </g>
        <g id="Execute-and-Next-Cmd" serif:id="Execute and Next Cmd">
        </g>
    </g>
</svg>
