<?xml version="1.0" encoding="UTF-8" standalone="no"?>
<!DOCTYPE svg PUBLIC "-//W3C//DTD SVG 1.1//EN" "http://www.w3.org/Graphics/SVG/1.1/DTD/svg11.dtd">
<svg width="100%" height="100%" viewBox="0 0 46 38" version="1.1" xmlns="http://www.w3.org/2000/svg" xmlns:xlink="http://www.w3.org/1999/xlink" xml:space="preserve" xmlns:serif="http://www.serif.com/" style="fill-rule:evenodd;clip-rule:evenodd;stroke-linejoin:round;stroke-miterlimit:2;">
    <g transform="matrix(1,0,0,1,-584,-135)">
        <g id="Menu">
        </g>
        <g transform="matrix(0.998995,0,0,1,-664.523,-1682)">
            <g id="Expand">
            </g>
        </g>
        <g id="Grid" transform="matrix(0.998995,0,0,1,-876.508,-1684)">
            <rect x="1470" y="1823" width="30" height="6" style="fill:rgb(34,34,36);"/>
            <g transform="matrix(0.0657282,0,0,3.66667,1373.38,-4855.33)">
                <rect x="1470" y="1823" width="30" height="6" style="fill:rgb(34,34,36);"/>
            </g>
            <g transform="matrix(0.0657282,0,0,3.66667,1401.41,-4855.33)">
                <rect x="1470" y="1823" width="30" height="6" style="fill:rgb(34,34,36);"/>
            </g>
            <g transform="matrix(1,0,0,0.333333,0,1241.33)">
                <rect x="1470" y="1823" width="30" height="6" style="fill:rgb(34,34,36);"/>
            </g>
            <g transform="matrix(0.333669,0,0,0.333333,983.496,1224.33)">
                <rect x="1470" y="1823" width="30" height="6" style="fill:rgb(34,34,36);"/>
            </g>
            <g transform="matrix(0.333669,0,0,0.333333,995.523,1224.33)">
                <rect x="1470" y="1823" width="30" height="6" style="fill:rgb(34,34,36);"/>
            </g>
            <g transform="matrix(0.333669,0,0,0.333333,983.496,1228.33)">
                <rect x="1470" y="1823" width="30" height="6" style="fill:rgb(34,34,36);"/>
            </g>
            <g transform="matrix(0.333669,0,0,0.333333,995.523,1228.33)">
                <rect x="1470" y="1823" width="30" height="6" style="fill:rgb(34,34,36);"/>
            </g>
            <g transform="matrix(0.333669,0,0,0.333333,983.496,1232.33)">
                <rect x="1470" y="1823" width="30" height="6" style="fill:rgb(34,34,36);"/>
            </g>
            <g transform="matrix(0.333669,0,0,0.333333,995.523,1232.33)">
                <rect x="1470" y="1823" width="30" height="6" style="fill:rgb(34,34,36);"/>
            </g>
            <g transform="matrix(0.333669,0,0,0.333333,983.496,1236.33)">
                <rect x="1470" y="1823" width="30" height="6" style="fill:rgb(34,34,36);"/>
            </g>
            <g transform="matrix(0.333669,0,0,0.333333,995.523,1236.33)">
                <rect x="1470" y="1823" width="30" height="6" style="fill:rgb(34,34,36);"/>
            </g>
        </g>
        <g id="Word-Wrap" serif:id="Word Wrap">
        </g>
        <g id="Special-Chars" serif:id="Special Chars">
        </g>
        <g id="Search">
        </g>
        <g transform="matrix(0.804283,0.804282,-0.804283,0.804282,723.382,-1009.13)">
            <g id="SQL-Beautifier" serif:id="SQL Beautifier">
                <g id="Broom">
                    <g id="Brush">
                    </g>
                    <g id="Handle">
                    </g>
                </g>
            </g>
        </g>
        <g transform="matrix(0.804283,0.804282,-0.804283,0.804282,653.382,-1009.13)">
            <g id="SQL-Beautifier1" serif:id="SQL Beautifier">
                <g id="Broom1" serif:id="Broom">
                    <g id="Brush1" serif:id="Brush">
                    </g>
                    <g id="Handle1" serif:id="Handle">
                    </g>
                </g>
            </g>
        </g>
        <g id="Auto-Commit" serif:id="Auto Commit" transform="matrix(1,0,0,1,524,-2050)">
            <g id="Auto-Commit1" serif:id="Auto Commit">
            </g>
        </g>
        <g id="Stop-on-Error" serif:id="Stop on Error" transform="matrix(1,0,0,1,260,-2050)">
            <g id="Stop-on-Error1" serif:id="Stop on Error">
            </g>
        </g>
        <g transform="matrix(1,0,0,1,83,-174)">
            <g id="Execute-Explain" serif:id="Execute Explain">
                <g id="Search1" serif:id="Search">
                </g>
            </g>
        </g>
        <g id="Execute-Current" serif:id="Execute Current">
        </g>
        <g id="Execute-and-Next-Cmd" serif:id="Execute and Next Cmd">
        </g>
    </g>
</svg>
