<?xml version="1.0" encoding="UTF-8" standalone="no"?>
<!DOCTYPE svg PUBLIC "-//W3C//DTD SVG 1.1//EN" "http://www.w3.org/Graphics/SVG/1.1/DTD/svg11.dtd">
<svg width="100%" height="100%" viewBox="0 0 46 38" version="1.1" xmlns="http://www.w3.org/2000/svg" xmlns:xlink="http://www.w3.org/1999/xlink" xml:space="preserve" xmlns:serif="http://www.serif.com/" style="fill-rule:evenodd;clip-rule:evenodd;stroke-linejoin:round;stroke-miterlimit:2;">
    <g transform="matrix(1,0,0,1,-1131,-65)">
        <g id="Menu">
        </g>
        <g transform="matrix(0.998995,0,0,1,-664.523,-1682)">
            <g id="Expand">
            </g>
        </g>
        <g id="Grid">
        </g>
        <g id="Word-Wrap" serif:id="Word Wrap">
        </g>
        <g id="Special-Chars" serif:id="Special Chars">
        </g>
        <g id="Search">
        </g>
        <g transform="matrix(0.804283,0.804282,-0.804283,0.804282,723.382,-1009.13)">
            <g id="SQL-Beautifier" serif:id="SQL Beautifier">
                <g id="Broom">
                    <g id="Brush">
                    </g>
                    <g id="Handle">
                    </g>
                </g>
            </g>
        </g>
        <g transform="matrix(0.804283,0.804282,-0.804283,0.804282,653.382,-1009.13)">
            <g id="SQL-Beautifier1" serif:id="SQL Beautifier">
                <g id="Broom1" serif:id="Broom">
                    <g id="Brush1" serif:id="Brush">
                    </g>
                    <g id="Handle1" serif:id="Handle">
                    </g>
                </g>
            </g>
        </g>
        <g id="Auto-Commit" serif:id="Auto Commit" transform="matrix(1,0,0,1,524,-2050)">
            <g id="Auto-Commit1" serif:id="Auto Commit">
            </g>
        </g>
        <g id="Rollback" transform="matrix(1.13898,0,0,1.13898,-565.526,-83.3193)">
            <path d="M1508.97,131.032C1517.7,131.032 1524.78,138.108 1524.78,146.836C1524.78,155.564 1517.7,162.639 1508.97,162.639C1500.25,162.639 1493.17,155.564 1493.17,146.836C1493.17,138.108 1500.25,131.032 1508.97,131.032ZM1509.4,144.223L1514.56,139.057L1517.93,142.419L1512.76,147.585L1517.6,152.422L1514.24,155.784L1509.4,150.947L1504.56,155.784L1501.2,152.422L1506.04,147.585L1500.87,142.419L1504.23,139.057L1509.4,144.223Z" style="fill:rgb(34,34,36);"/>
        </g>
        <g id="Stop-on-Error" serif:id="Stop on Error" transform="matrix(1,0,0,1,260,-2050)">
            <g id="Stop-on-Error1" serif:id="Stop on Error">
            </g>
        </g>
        <g transform="matrix(1,0,0,1,83,-174)">
            <g id="Execute-Explain" serif:id="Execute Explain">
                <g id="Search1" serif:id="Search">
                </g>
            </g>
        </g>
        <g id="Execute-Current" serif:id="Execute Current">
        </g>
        <g id="Execute-and-Next-Cmd" serif:id="Execute and Next Cmd">
        </g>
    </g>
</svg>
