<?xml version="1.0" encoding="UTF-8" standalone="no"?>
<!DOCTYPE svg PUBLIC "-//W3C//DTD SVG 1.1//EN" "http://www.w3.org/Graphics/SVG/1.1/DTD/svg11.dtd">
<svg width="100%" height="100%" viewBox="0 0 24 20" version="1.1" xmlns="http://www.w3.org/2000/svg" xmlns:xlink="http://www.w3.org/1999/xlink" xml:space="preserve" xmlns:serif="http://www.serif.com/" style="fill-rule:evenodd;clip-rule:evenodd;stroke-linejoin:round;stroke-miterlimit:2;">
    <g transform="matrix(1,0,0,1,-864,-94)">
        <g id="Menu">
        </g>
        <g id="Expand">
        </g>
        <g id="Grid">
        </g>
        <g id="Word-Wrap" serif:id="Word Wrap">
        </g>
        <g id="Special-Chars" serif:id="Special Chars">
        </g>
        <g id="Search">
        </g>
        <g id="SQL-Beautifier" serif:id="SQL Beautifier">
        </g>
        <g id="SQL-Beautifier1" serif:id="SQL Beautifier">
        </g>
        <g id="Auto-Commit" serif:id="Auto Commit">
        </g>
        <g id="Stop-on-Error" serif:id="Stop on Error">
        </g>
        <g id="Execute-Explain" serif:id="Execute Explain">
        </g>
        <g id="Execute-Current" serif:id="Execute Current">
        </g>
        <g id="Execute-and-Next-Cmd" serif:id="Execute and Next Cmd">
        </g>
        <g id="Kill-Connection-2" serif:id="Kill Connection 2">
        </g>
        <g id="Sleeping-Connections" serif:id="Sleeping Connections">
        </g>
        <g id="Kill-Connection" serif:id="Kill Connection">
        </g>
        <g id="Kill-Query" serif:id="Kill Query">
        </g>
        <g id="Show-Details" serif:id="Show Details">
        </g>
        <g id="Infos">
        </g>
        <g id="Background-Threads" serif:id="Background Threads">
        </g>
        <g id="refresh">
        </g>
        <g id="New-File" serif:id="New File">
        </g>
        <g id="Minimize">
        </g>
        <g id="Maximize">
        </g>
        <g id="Close">
        </g>
        <g id="load">
        </g>
        <g id="save">
        </g>
        <g id="Execute-on-Heatwave" serif:id="Execute on Heatwave">
        </g>
        <g id="Execute-Current-on-Heatwave" serif:id="Execute Current on Heatwave">
        </g>
        <g id="Trace-Heatwave-Query" serif:id="Trace Heatwave Query">
        </g>
        <g id="Layer3">
        </g>
        <g id="New-Shell-Console" serif:id="New Shell Console">
        </g>
        <g id="New-File-Selector" serif:id="New File Selector">
        </g>
        <g id="saveNotebook">
        </g>
        <g id="saveNotebook1" serif:id="saveNotebook">
        </g>
        <g id="sqlPreview">
            <path id="enabled" d="M887,96.665L887,110.335C887,111.806 885.806,113 884.335,113L866.665,113C865.194,113 864,111.806 864,110.335L864,96.665C864,95.194 865.194,94 866.665,94L884.335,94C885.806,94 887,95.194 887,96.665ZM877.358,99.747C877.494,100.004 877.613,100.271 877.714,100.546C878.014,100.547 878.273,100.609 878.493,100.73C878.714,100.853 878.894,101.017 879.033,101.223C879.172,101.429 879.275,101.662 879.342,101.924C879.409,102.186 879.442,102.453 879.442,102.725C879.442,103.013 879.405,103.296 879.33,103.574C879.255,103.852 879.127,104.1 878.945,104.319L878.248,103.71L877.988,104.009C877.964,104.135 877.936,104.26 877.904,104.383L878.344,104.768C878.243,104.816 878.137,104.851 878.028,104.872C877.933,104.89 877.84,104.901 877.747,104.903C877.65,105.181 877.535,105.449 877.404,105.708C877.501,105.717 877.601,105.721 877.703,105.721C877.928,105.721 878.155,105.694 878.384,105.641C878.614,105.588 878.836,105.5 879.049,105.377L879.883,106.106L880.371,105.561L879.634,104.92C879.778,104.787 879.901,104.633 880.003,104.459C880.104,104.286 880.187,104.103 880.251,103.911C880.315,103.718 880.363,103.522 880.395,103.322C880.427,103.122 880.443,102.923 880.443,102.725C880.443,102.319 880.381,101.935 880.255,101.571C880.13,101.208 879.949,100.89 879.714,100.618C879.479,100.346 879.192,100.129 878.853,99.969C878.514,99.809 878.131,99.729 877.703,99.729C877.585,99.729 877.47,99.735 877.358,99.747ZM881.357,99.865L881.357,105.585L885.266,105.585L885.266,104.72L882.358,104.72L882.358,99.865L881.357,99.865ZM875.765,107.071L876.515,107.821L876.262,108.075L879.869,111.59L881.481,109.978L877.874,106.463L877.65,106.687L876.819,105.856C877.393,104.967 877.726,103.907 877.726,102.769C877.726,99.622 875.175,97.071 872.028,97.071C868.88,97.071 866.329,99.622 866.329,102.769C866.329,105.917 868.88,108.468 872.028,108.468C873.458,108.468 874.765,107.941 875.765,107.071ZM872.03,98.421C874.432,98.421 876.38,100.369 876.38,102.771C876.38,105.174 874.432,107.122 872.03,107.122C869.627,107.122 867.679,105.174 867.679,102.771C867.679,100.369 869.627,98.421 872.03,98.421ZM875.155,103.897C875.269,103.542 875.33,103.164 875.33,102.771C875.33,102.363 875.264,101.97 875.141,101.602C875.023,101.956 874.964,102.331 874.964,102.725C874.964,103.136 875.026,103.523 875.152,103.887L875.155,103.897ZM870.734,103.678L869.732,103.678C869.738,104.031 869.804,104.337 869.933,104.596C870.061,104.855 870.232,105.067 870.445,105.233C870.659,105.398 870.91,105.521 871.198,105.601C871.487,105.681 871.794,105.721 872.12,105.721C872.403,105.721 872.68,105.688 872.953,105.621C873.225,105.554 873.468,105.449 873.682,105.305C873.896,105.16 874.068,104.975 874.199,104.748C874.329,104.521 874.395,104.247 874.395,103.927C874.395,103.777 874.372,103.628 874.327,103.478C874.281,103.329 874.212,103.188 874.118,103.057C874.025,102.927 873.909,102.81 873.77,102.709C873.631,102.608 873.468,102.527 873.281,102.469C873.207,102.447 873.082,102.414 872.909,102.369C872.735,102.323 872.558,102.276 872.376,102.228C872.194,102.18 872.03,102.136 871.883,102.096C871.737,102.056 871.652,102.033 871.631,102.028C871.428,101.969 871.264,101.883 871.138,101.768C871.013,101.653 870.95,101.494 870.95,101.291C870.95,101.147 870.983,101.027 871.05,100.931C871.117,100.834 871.201,100.758 871.303,100.702C871.404,100.646 871.516,100.606 871.639,100.582C871.762,100.558 871.882,100.546 872,100.546C872.347,100.546 872.632,100.622 872.857,100.774C873.081,100.927 873.207,101.187 873.233,101.555L874.235,101.555C874.235,101.256 874.176,100.993 874.058,100.766C873.941,100.539 873.782,100.348 873.582,100.193C873.381,100.039 873.149,99.922 872.885,99.845C872.62,99.768 872.339,99.729 872.04,99.729C871.783,99.729 871.53,99.762 871.279,99.829C871.028,99.896 870.803,99.999 870.606,100.137C870.408,100.276 870.249,100.451 870.129,100.662C870.009,100.873 869.949,101.123 869.949,101.411C869.949,101.561 869.969,101.708 870.009,101.852C870.049,101.996 870.117,102.132 870.213,102.26C870.309,102.389 870.439,102.505 870.602,102.609C870.764,102.713 870.969,102.797 871.214,102.861C871.61,102.968 871.942,103.055 872.212,103.122C872.482,103.188 872.718,103.259 872.921,103.334C873.038,103.377 873.146,103.45 873.245,103.554C873.344,103.658 873.393,103.82 873.393,104.039C873.393,104.146 873.372,104.251 873.329,104.355C873.287,104.459 873.217,104.552 873.121,104.632C873.025,104.712 872.899,104.777 872.745,104.828C872.59,104.879 872.403,104.904 872.184,104.904C871.981,104.904 871.793,104.881 871.619,104.836C871.445,104.791 871.292,104.718 871.158,104.62C871.025,104.521 870.921,104.394 870.846,104.239C870.771,104.084 870.734,103.897 870.734,103.678Z"/>
            <g id="disabled">
            </g>
        </g>
    </g>
</svg>
