<?xml version="1.0" encoding="UTF-8" standalone="no"?>
<!DOCTYPE svg PUBLIC "-//W3C//DTD SVG 1.1//EN" "http://www.w3.org/Graphics/SVG/1.1/DTD/svg11.dtd">
<svg width="100%" height="100%" viewBox="0 0 24 20" version="1.1" xmlns="http://www.w3.org/2000/svg" xmlns:xlink="http://www.w3.org/1999/xlink" xml:space="preserve" xmlns:serif="http://www.serif.com/" style="fill-rule:evenodd;clip-rule:evenodd;stroke-linejoin:round;stroke-miterlimit:2;">
    <g transform="matrix(1,0,0,1,-412,-128)">
        <g id="Show-Details" serif:id="Show Details">
            <g id="Show-Details1" serif:id="Show Details" transform="matrix(1,0,0,1,1,0)">
                <path d="M430,132.077C430,131.483 429.517,131 428.923,131L417.077,131C416.483,131 416,131.483 416,132.077L416,143.923C416,144.517 416.483,145 417.077,145L428.923,145C429.517,145 430,144.517 430,143.923L430,132.077ZM429,132.537C429,132.241 428.759,132 428.463,132L417.537,132C417.241,132 417,132.241 417,132.537L417,143.463C417,143.759 417.241,144 417.537,144L428.463,144C428.759,144 429,143.759 429,143.463L429,132.537Z" style="fill:rgb(34,34,36);"/>
                <rect x="424" y="132" width="1" height="12" style="fill:rgb(34,34,36);"/>
            </g>
        </g>
    </g>
</svg>
