<?xml version="1.0" encoding="UTF-8" standalone="no"?>
<!DOCTYPE svg PUBLIC "-//W3C//DTD SVG 1.1//EN" "http://www.w3.org/Graphics/SVG/1.1/DTD/svg11.dtd">
<svg width="100%" height="100%" viewBox="0 0 24 20" version="1.1" xmlns="http://www.w3.org/2000/svg" xmlns:xlink="http://www.w3.org/1999/xlink" xml:space="preserve" xmlns:serif="http://www.serif.com/" style="fill-rule:evenodd;clip-rule:evenodd;stroke-linejoin:round;stroke-miterlimit:2;">
    <g transform="matrix(1,0,0,1,-486,-94)">
        <g id="Stop-on-Error" serif:id="Stop on Error" transform="matrix(0.5,0,0,0.5,143.5,-998.5)">
            <g id="Enabled" transform="matrix(1,0,0,1,-1,70)">
                <path d="M732,2120.33C732,2117.39 729.612,2115 726.67,2115L691.33,2115C688.388,2115 686,2117.39 686,2120.33L686,2147.67C686,2150.61 688.388,2153 691.33,2153L726.67,2153C729.612,2153 732,2150.61 732,2147.67L732,2120.33ZM712.054,2131L724.161,2131L730.215,2141L724.161,2151L712.054,2151L706,2141L712.054,2131ZM711.643,2144.27C711.643,2141.79 711.679,2137.02 711.679,2136.09C711.679,2134.82 713.663,2134.55 713.663,2136.09C713.663,2137.64 713.627,2139.11 713.627,2139.83C713.627,2140.55 714.168,2140.55 714.168,2139.72L714.168,2134.2C714.168,2133.17 716.225,2133.07 716.225,2134.3L716.225,2139.93C716.225,2140.45 716.875,2140.55 716.875,2139.83L716.875,2134.2C716.875,2132.86 718.787,2132.86 718.787,2134.1C718.787,2135.34 718.823,2139.31 718.823,2139.93C718.823,2140.55 719.472,2140.65 719.472,2139.93L719.472,2135.85C719.472,2134.72 721.349,2134.51 721.349,2135.85C721.349,2137.2 721.385,2141.79 721.385,2142.51C721.385,2143.24 723.045,2141.48 723.911,2140.65C724.776,2139.83 726.4,2140.76 725.643,2142.1C724.885,2143.44 721.421,2148.91 716.875,2148.91C713.122,2148.91 711.643,2145.09 711.643,2144.27ZM694.061,2116.97L706.184,2116.97L712.246,2126.99L706.184,2137L694.061,2137L688,2126.99L694.061,2116.97ZM699.943,2124.65L703.792,2120.8L706.297,2123.31L702.448,2127.16L706.052,2130.76L703.547,2133.27L699.943,2129.66L696.339,2133.27L693.834,2130.76L697.438,2127.16L693.589,2123.31L696.094,2120.8L699.943,2124.65ZM716.818,2126.08C716.845,2124.89 716.846,2123.89 716.717,2123.09C716.635,2122.57 716.514,2122.15 716.225,2121.88C715.941,2121.6 715.513,2121.49 714.916,2121.46C712.932,2121.36 714.303,2121.54 711.971,2121.47L712.027,2119.48C714.396,2119.54 713.003,2119.36 715.019,2119.47C716.222,2119.53 717.038,2119.88 717.612,2120.43C718.181,2120.98 718.529,2121.75 718.692,2122.77C718.837,2123.67 718.833,2124.81 718.805,2126.18L720.518,2124.47L721.972,2124.5L721.932,2125.88L718.397,2129.42L717.967,2129.99L717.251,2129.34L713.715,2125.8L713.676,2124.42L715.13,2124.39L716.818,2126.08Z" style="fill:rgb(34,34,36);"/>
            </g>
        </g>
    </g>
</svg>
