<?xml version="1.0" encoding="UTF-8" standalone="no"?>
<!DOCTYPE svg PUBLIC "-//W3C//DTD SVG 1.1//EN" "http://www.w3.org/Graphics/SVG/1.1/DTD/svg11.dtd">
<svg width="100%" height="100%" viewBox="0 0 24 20" version="1.1" xmlns="http://www.w3.org/2000/svg" xmlns:xlink="http://www.w3.org/1999/xlink" xml:space="preserve" xmlns:serif="http://www.serif.com/" style="fill-rule:evenodd;clip-rule:evenodd;stroke-linejoin:round;stroke-miterlimit:2;">
    <g transform="matrix(1,0,0,1,-785,-94)">
        <g transform="matrix(0.5,0,0,0.5,159.149,-27.0833)">
            <g id="Special-Chars" serif:id="Special Chars">
                <path id="Enabled" d="M1297.7,247.497C1297.7,244.555 1295.31,242.167 1292.37,242.167L1257.03,242.167C1254.09,242.167 1251.7,244.555 1251.7,247.497L1251.7,274.837C1251.7,277.778 1254.09,280.167 1257.03,280.167L1292.37,280.167C1295.31,280.167 1297.7,277.778 1297.7,274.837L1297.7,247.497ZM1273.9,274L1273.9,250.125L1277.63,250.125L1277.63,274L1279.78,274L1279.78,248.159L1272.09,248.159C1269.56,248.159 1268.23,248.598 1267.35,249.475C1266.45,250.363 1265.63,252.397 1265.63,254.077C1265.63,257.544 1267.65,258.981 1271.68,259.89L1271.68,274L1273.9,274Z" style="fill:rgb(34,34,36);"/>
            </g>
        </g>
    </g>
</svg>
