<?xml version="1.0" encoding="UTF-8" standalone="no"?>
<!DOCTYPE svg PUBLIC "-//W3C//DTD SVG 1.1//EN" "http://www.w3.org/Graphics/SVG/1.1/DTD/svg11.dtd">
<svg width="100%" height="100%" viewBox="0 0 24 20" version="1.1" xmlns="http://www.w3.org/2000/svg" xmlns:xlink="http://www.w3.org/1999/xlink" xml:space="preserve" xmlns:serif="http://www.serif.com/" style="fill-rule:evenodd;clip-rule:evenodd;stroke-linejoin:round;stroke-miterlimit:2;">
    <g transform="matrix(1,0,0,1,-752,-59)">
        <g id="Search" transform="matrix(0.609064,0,0,0.609064,310.159,-90.4288)">
            <g>
                <g id="Search-copy-4" serif:id="Search copy 4" transform="matrix(0.703781,0,0,0.70378,222.612,78.7521)">
                    <path d="M748.136,265.704L751.36,262.48L754.888,266.008L751.664,269.232L748.136,265.704Z" style="fill:rgb(34,34,36);"/>
                </g>
                <path id="Search-copy-3" serif:id="Search copy 3" d="M750.524,268.149L753.747,264.926L760.962,271.957L757.738,275.181L750.524,268.149Z" style="fill:rgb(34,34,36);"/>
                <path id="Search-copy" serif:id="Search copy" d="M742.055,246.142C748.35,246.142 753.452,251.244 753.452,257.539C753.452,263.833 748.35,268.936 742.055,268.936C735.761,268.936 730.658,263.833 730.658,257.539C730.658,251.244 735.761,246.142 742.055,246.142ZM742.059,248.842C746.864,248.842 750.76,252.737 750.76,257.543C750.76,262.348 746.864,266.243 742.059,266.243C737.254,266.243 733.358,262.348 733.358,257.543C733.358,252.737 737.254,248.842 742.059,248.842Z" style="fill:rgb(34,34,36);"/>
            </g>
            <g id="A" transform="matrix(2,0,0,2,747.366,262.872)">
                <text x="-5.52px" y="0px" style="font-family:'LucidaGrande', 'Lucida Grande', sans-serif;font-weight:500;font-size:8px;fill:rgb(34,34,36);">A</text>
            </g>
        </g>
    </g>
</svg>
