<?xml version="1.0" encoding="UTF-8" standalone="no"?>
<!DOCTYPE svg PUBLIC "-//W3C//DTD SVG 1.1//EN" "http://www.w3.org/Graphics/SVG/1.1/DTD/svg11.dtd">
<svg width="100%" height="100%" viewBox="0 0 24 20" version="1.1" xmlns="http://www.w3.org/2000/svg" xmlns:xlink="http://www.w3.org/1999/xlink" xml:space="preserve" xmlns:serif="http://www.serif.com/" style="fill-rule:evenodd;clip-rule:evenodd;stroke-linejoin:round;stroke-miterlimit:2;">
    <g transform="matrix(1,0,0,1,-412,-94)">
        <g transform="matrix(0.499498,0,0,0.5,-316.262,-816.5)">
            <g id="Expand">
                <g>
                    <g transform="matrix(1.00101,0,0,1,-742.222,1145)">
                        <path d="M2210,684L2210,708L2233.97,708L2233.97,705L2234,705L2234,696L2230,696L2230,704L2214,704L2214,688L2222,688L2222,684L2210,684Z" style="fill:rgb(34,34,36);"/>
                    </g>
                    <g transform="matrix(1,0,0,1,-6.00603,5)">
                        <g transform="matrix(0.332663,0,0,0.666667,1002.01,606.667)">
                            <rect x="1470" y="1823" width="30" height="6" style="fill:rgb(34,34,36);"/>
                        </g>
                        <g transform="matrix(0.132462,0,0,1.83333,1303.31,-1520.17)">
                            <rect x="1470" y="1823" width="30" height="6" style="fill:rgb(34,34,36);"/>
                        </g>
                        <g transform="matrix(0.0936647,0.0935706,-2.43688,2.43443,5803.18,-2752.73)">
                            <rect x="1470" y="1823" width="30" height="6" style="fill:rgb(34,34,36);"/>
                        </g>
                    </g>
                </g>
            </g>
        </g>
    </g>
</svg>
