<?xml version="1.0" encoding="UTF-8" standalone="no"?>
<!DOCTYPE svg PUBLIC "-//W3C//DTD SVG 1.1//EN" "http://www.w3.org/Graphics/SVG/1.1/DTD/svg11.dtd">
<svg width="100%" height="100%" viewBox="0 0 24 20" version="1.1" xmlns="http://www.w3.org/2000/svg" xmlns:xlink="http://www.w3.org/1999/xlink" xml:space="preserve" xmlns:serif="http://www.serif.com/" style="fill-rule:evenodd;clip-rule:evenodd;stroke-linejoin:round;stroke-miterlimit:2;">
    <g transform="matrix(1,0,0,1,-258,-94)">
        <g id="Execute-on-Heatwave" serif:id="Execute on Heatwave" transform="matrix(1,0,0,1,-1,0)">
            <g transform="matrix(0.364259,0,0,0.364259,-110.999,39.2925)">
                <path d="M1057,205C1050.37,205.004 1035.33,193.102 1048.37,177.402C1048.38,180.461 1052.15,182.904 1052.17,182.787C1052.19,182.67 1049.91,167.089 1067,162C1061.95,173.332 1071.61,174.902 1068.73,185.574C1069.78,181.492 1072.85,179.788 1075.93,179.113C1071.86,187.318 1084.44,194.498 1064.27,205.099C1069.01,198.504 1073.42,191.928 1069.21,188.337C1070.19,191.118 1066.64,193.499 1065.51,195.003C1063.78,181.633 1056.31,186.733 1061.87,174.251C1054.15,176.633 1054.09,183.008 1053.9,188.702C1052.31,187.75 1047.59,184.451 1049,182C1044.07,190.669 1050.16,201.471 1057,205Z"/>
            </g>
            <g transform="matrix(1,0,0,1,-2,0)">
                <path d="M270.216,107.556L262.705,114L267.437,105.474L262.705,105.474L268.383,96L276.901,96L270.276,101.684L274.046,102.313C273.829,102.995 273.706,103.705 273.76,104.197C273.372,104.022 273.306,103.486 273.114,102.915C271.241,104.205 270.428,106.028 270.216,107.556Z" style="fill:rgb(34,34,36);"/>
            </g>
        </g>
    </g>
</svg>
