<?xml version="1.0" encoding="UTF-8" standalone="no"?>
<!DOCTYPE svg PUBLIC "-//W3C//DTD SVG 1.1//EN" "http://www.w3.org/Graphics/SVG/1.1/DTD/svg11.dtd">
<svg width="100%" height="100%" viewBox="0 0 24 20" version="1.1" xmlns="http://www.w3.org/2000/svg" xmlns:xlink="http://www.w3.org/1999/xlink" xml:space="preserve" xmlns:serif="http://www.serif.com/" style="fill-rule:evenodd;clip-rule:evenodd;stroke-linejoin:round;stroke-miterlimit:2;">
    <g transform="matrix(1,0,0,1,-486,-161)">
        <g id="Background-Threads" serif:id="Background Threads">
            <path d="M510,163.665C510,162.194 508.806,161 507.335,161L489.665,161C488.194,161 487,162.194 487,163.665L487,177.335C487,178.806 488.194,180 489.665,180L507.335,180C508.806,180 510,178.806 510,177.335L510,163.665ZM497.387,168C498.277,168 499,167.277 499,166.387L499,165.613C499,164.723 498.277,164 497.387,164L490.613,164C489.723,164 489,164.723 489,165.613L489,166.387C489,167.277 489.723,168 490.613,168L493.999,168L493.999,175.233C493.999,175.233 494.046,176.009 495,176C495.279,176 495,176 495,176L497,176L497,176.393C497,177.28 497.72,178 498.607,178L505.393,178C506.28,178 507,177.28 507,176.393L507,175.607C507,174.72 506.28,174 505.393,174L498.607,174C497.935,174 497.359,174.413 497.12,175L495,175L495,171L497,171L497,171.425C497,172.294 497.706,173 498.575,173L505.425,173C506.294,173 507,172.294 507,171.425L507,170.575C507,169.706 506.294,169 505.425,169L498.575,169C497.909,169 497.339,169.415 497.11,170L495,170L495,168L497.387,168ZM506,175.401C506,175.18 505.82,175 505.599,175L498.401,175C498.18,175 498,175.18 498,175.401L498,176.599C498,176.82 498.18,177 498.401,177L505.599,177C505.82,177 506,176.82 506,176.599L506,175.401ZM506,170.402C506,170.18 505.82,170 505.598,170L498.402,170C498.18,170 498,170.18 498,170.402L498,171.598C498,171.82 498.18,172 498.402,172L505.598,172C505.82,172 506,171.82 506,171.598L506,170.402Z" style="fill:rgb(34,34,36);"/>
        </g>
    </g>
</svg>
