<?xml version="1.0" encoding="UTF-8" standalone="no"?>
<!DOCTYPE svg PUBLIC "-//W3C//DTD SVG 1.1//EN" "http://www.w3.org/Graphics/SVG/1.1/DTD/svg11.dtd">
<svg width="100%" height="100%" viewBox="0 0 24 20" version="1.1" xmlns="http://www.w3.org/2000/svg" xmlns:xlink="http://www.w3.org/1999/xlink" xml:space="preserve" xmlns:serif="http://www.serif.com/" style="fill-rule:evenodd;clip-rule:evenodd;stroke-linejoin:round;stroke-miterlimit:2;">
    <g transform="matrix(1,0,0,1,-340,-94)">
        <g id="Maximize" transform="matrix(1,0,0,1,-33,1)">
            <path d="M389.327,99L385.093,103.234C384.899,103.428 384.899,103.743 385.093,103.937L385.098,103.941C385.292,104.135 385.606,104.135 385.8,103.941L390,99.742L390,101.5C390,101.776 390.224,102 390.5,102C390.776,102 391,101.776 391,101.5L391,98.664C391.055,98.492 391.015,98.296 390.879,98.16L390.874,98.156C390.83,98.111 390.779,98.077 390.725,98.053C390.657,98.019 390.581,98 390.501,98L387.499,98C387.224,98 387,98.224 387,98.499L387,98.501C387,98.776 387.224,99 387.499,99L389.327,99Z" style="fill:rgb(34,34,36);"/>
            <path d="M379,103L380,103L380,97.537C380,97.241 380.241,97 380.537,97L391.463,97C391.759,97 392,97.241 392,97.537L392,108.463C392,108.759 391.759,109 391.463,109L386,109L386,110L391.923,110C392.517,110 393,109.517 393,108.923L393,97.077C393,96.483 392.517,96 391.923,96L380.077,96C379.483,96 379,96.483 379,97.077L379,103Z" style="fill:rgb(34,34,36);"/>
            <g transform="matrix(1,0,0,1,-37,-35)">
                <path d="M422,139.944C422,139.429 421.581,139.01 421.066,139.01L416.934,139.01C416.419,139.01 416,139.429 416,139.944L416,144.075C416,144.591 416.419,145.01 416.934,145.01L421.066,145.01C421.581,145.01 422,144.591 422,144.075L422,139.944ZM421,140.313C421,140.14 420.86,140 420.687,140L417.313,140C417.14,140 417,140.14 417,140.313L417,143.687C417,143.86 417.14,144 417.313,144L420.687,144C420.86,144 421,143.86 421,143.687L421,140.313Z" style="fill:rgb(34,34,36);"/>
            </g>
        </g>
    </g>
</svg>
