<?xml version="1.0" encoding="UTF-8" standalone="no"?>
<!DOCTYPE svg PUBLIC "-//W3C//DTD SVG 1.1//EN" "http://www.w3.org/Graphics/SVG/1.1/DTD/svg11.dtd">
<svg width="100%" height="100%" viewBox="0 0 24 20" version="1.1" xmlns="http://www.w3.org/2000/svg" xmlns:xlink="http://www.w3.org/1999/xlink" xml:space="preserve" xmlns:serif="http://www.serif.com/" style="fill-rule:evenodd;clip-rule:evenodd;stroke-linejoin:round;stroke-miterlimit:2;">
    <g transform="matrix(1,0,0,1,-578,-59)">
        <g id="Rollback" transform="matrix(0.56949,0,0,0.56949,-269.263,-15.1596)">
            <path d="M1508.97,131.032C1517.7,131.032 1524.78,138.108 1524.78,146.836C1524.78,155.564 1517.7,162.639 1508.97,162.639C1500.25,162.639 1493.17,155.564 1493.17,146.836C1493.17,138.108 1500.25,131.032 1508.97,131.032ZM1509.4,144.223L1514.56,139.057L1517.93,142.419L1512.76,147.585L1517.6,152.422L1514.24,155.784L1509.4,150.947L1504.56,155.784L1501.2,152.422L1506.04,147.585L1500.87,142.419L1504.23,139.057L1509.4,144.223Z" style="fill:rgb(34,34,36);"/>
        </g>
    </g>
</svg>
