<?xml version="1.0" encoding="UTF-8" standalone="no"?>
<!DOCTYPE svg PUBLIC "-//W3C//DTD SVG 1.1//EN" "http://www.w3.org/Graphics/SVG/1.1/DTD/svg11.dtd">
<svg width="100%" height="100%" viewBox="0 0 24 20" version="1.1" xmlns="http://www.w3.org/2000/svg" xmlns:xlink="http://www.w3.org/1999/xlink" xml:space="preserve" xmlns:serif="http://www.serif.com/" style="fill-rule:evenodd;clip-rule:evenodd;stroke-linejoin:round;stroke-miterlimit:2;">
    <g transform="matrix(1,0,0,1,-486,-59)">
        <g transform="matrix(0.5,0,0,0.5,143,-998.5)">
            <g id="Stop-on-Error" serif:id="Stop on Error">
                <g id="Stop-on-Error1" serif:id="Stop on Error">
                    <g transform="matrix(0.605365,0,0,0.577448,-125.966,2055.93)">
                        <path d="M1384.32,130L1404.32,130L1414.32,147.321L1404.32,164.641L1384.32,164.641L1374.32,147.321L1384.32,130ZM1383.64,152.983C1383.64,148.691 1383.7,140.436 1383.7,138.827C1383.7,136.622 1386.98,136.145 1386.98,138.827C1386.98,141.509 1386.92,144.042 1386.92,145.294C1386.92,146.546 1387.81,146.546 1387.81,145.115L1387.81,135.549C1387.81,133.761 1391.21,133.582 1391.21,135.728L1391.21,145.473C1391.21,146.367 1392.28,146.546 1392.28,145.294L1392.28,135.549C1392.28,133.224 1395.44,133.224 1395.44,135.37C1395.44,137.516 1395.5,144.4 1395.5,145.473C1395.5,146.546 1396.58,146.725 1396.58,145.473L1396.58,138.41C1396.58,136.443 1399.67,136.085 1399.67,138.41C1399.67,140.734 1399.73,148.691 1399.73,149.943C1399.73,151.195 1402.48,148.155 1403.91,146.725C1405.34,145.294 1408.02,146.903 1406.77,149.228C1405.52,151.552 1399.79,161.029 1392.28,161.029C1386.09,161.029 1383.64,154.413 1383.64,152.983Z" style="fill:rgb(34,34,36);"/>
                    </g>
                    <g transform="matrix(1.05416,0,0,1.05416,-867.937,1971.5)">
                        <path d="M1481.75,138L1493.25,138L1499,147.5L1493.25,157L1481.75,157L1476,147.5L1481.75,138ZM1487.33,145.288L1490.98,141.637L1493.36,144.014L1489.71,147.664L1493.12,151.084L1490.75,153.46L1487.33,150.041L1483.91,153.46L1481.53,151.084L1484.95,147.665L1481.3,144.014L1483.68,141.637L1487.33,145.288Z" style="fill:rgb(34,34,36);"/>
                    </g>
                    <g transform="matrix(1,0,0,1,-872,1987)">
                        <path d="M1588.82,139.077C1588.85,137.888 1588.85,136.889 1588.72,136.086C1588.63,135.569 1588.51,135.154 1588.23,134.877C1587.94,134.603 1587.51,134.494 1586.92,134.464C1584.93,134.361 1586.3,134.541 1583.97,134.475L1584.03,132.476C1586.4,132.543 1585,132.362 1587.02,132.466C1588.22,132.528 1589.04,132.883 1589.61,133.435C1590.18,133.982 1590.53,134.752 1590.69,135.77C1590.84,136.674 1590.83,137.814 1590.81,139.182L1592.52,137.469L1593.97,137.497L1593.93,138.883L1590.4,142.418L1589.97,142.985L1589.25,142.339L1585.72,138.803L1585.68,137.417L1587.13,137.389L1588.82,139.077Z" style="fill:rgb(34,34,36);"/>
                    </g>
                </g>
            </g>
        </g>
    </g>
</svg>
