<?xml version="1.0" encoding="UTF-8" standalone="no"?>
<!DOCTYPE svg PUBLIC "-//W3C//DTD SVG 1.1//EN" "http://www.w3.org/Graphics/SVG/1.1/DTD/svg11.dtd">
<svg width="100%" height="100%" viewBox="0 0 24 20" version="1.1" xmlns="http://www.w3.org/2000/svg" xmlns:xlink="http://www.w3.org/1999/xlink" xml:space="preserve" xmlns:serif="http://www.serif.com/" style="fill-rule:evenodd;clip-rule:evenodd;stroke-linejoin:round;stroke-miterlimit:2;">
    <g transform="matrix(1,0,0,1,-611,-94)">
        <g id="Auto-Commit" serif:id="Auto Commit" transform="matrix(0.5,0,0,0.5,275,-998.5)">
            <g id="Enabled" transform="matrix(1,0,0,1,0,70)">
                <path d="M718,2120.33C718,2117.39 715.612,2115 712.67,2115L677.33,2115C674.388,2115 672,2117.39 672,2120.33L672,2147.67C672,2150.61 674.388,2153 677.33,2153L712.67,2153C715.612,2153 718,2150.61 718,2147.67L718,2120.33ZM701.847,2130.97C707.394,2130.97 711.891,2135.47 711.891,2141.02C711.891,2146.57 707.394,2151.06 701.847,2151.06C696.299,2151.06 691.802,2146.57 691.802,2141.02C691.802,2135.47 696.299,2130.97 701.847,2130.97ZM700.683,2141.9L706.215,2136.37L708.352,2138.5L700.581,2146.27L696.189,2141.49L698.394,2139.42L700.683,2141.9ZM686.005,2118L678.433,2130.63L684.743,2130.63L678.433,2142L696.1,2126.84L688.528,2125.58L697.362,2118L686.005,2118ZM700.818,2126.08C700.845,2124.89 700.846,2123.89 700.717,2123.09C700.635,2122.57 700.514,2122.15 700.225,2121.88C699.941,2121.6 699.513,2121.49 698.916,2121.46C696.932,2121.36 699.613,2121.54 697.282,2121.47L697.338,2119.48C699.707,2119.54 697.003,2119.36 699.019,2119.47C700.222,2119.53 701.038,2119.88 701.612,2120.43C702.181,2120.98 702.529,2121.75 702.692,2122.77C702.837,2123.67 702.833,2124.81 702.805,2126.18L704.518,2124.47L705.972,2124.5L705.932,2125.88L702.397,2129.42L701.967,2129.99L701.251,2129.34L697.715,2125.8L697.676,2124.42L699.13,2124.39L700.818,2126.08Z" style="fill:rgb(34,34,36);"/>
            </g>
        </g>
    </g>
</svg>
