<?xml version="1.0" encoding="UTF-8" standalone="no"?>
<!DOCTYPE svg PUBLIC "-//W3C//DTD SVG 1.1//EN" "http://www.w3.org/Graphics/SVG/1.1/DTD/svg11.dtd">
<svg width="100%" height="100%" viewBox="0 0 24 20" version="1.1" xmlns="http://www.w3.org/2000/svg" xmlns:xlink="http://www.w3.org/1999/xlink" xml:space="preserve" xmlns:serif="http://www.serif.com/" style="fill-rule:evenodd;clip-rule:evenodd;stroke-linejoin:round;stroke-miterlimit:2;">
    <g transform="matrix(1,0,0,1,-611,-59)">
        <g id="Auto-Commit" serif:id="Auto Commit" transform="matrix(0.5,0,0,0.5,275,-998.5)">
            <g id="Auto-Commit1" serif:id="Auto Commit">
                <g id="Commit" transform="matrix(0.635566,0,0,0.635566,-227.969,2047.69)">
                    <path d="M1462.97,131.032C1471.7,131.032 1478.78,138.108 1478.78,146.836C1478.78,155.564 1471.7,162.639 1462.97,162.639C1454.25,162.639 1447.17,155.564 1447.17,146.836C1447.17,138.108 1454.25,131.032 1462.97,131.032ZM1461.14,148.22L1469.85,139.517L1473.21,142.879L1460.98,155.098L1454.07,147.578L1457.54,144.326L1461.14,148.22Z" style="fill:rgb(34,34,36);"/>
                </g>
                <g id="Execute" transform="matrix(1.26189,0,0,1.26316,-167.032,-424.737)">
                    <path d="M676,2013L670,2023L675,2023L670,2032L684,2020L678,2019L685,2013L676,2013Z" style="fill:rgb(34,34,36);"/>
                </g>
                <g transform="matrix(1,0,1.38778e-17,1,-888,1987)">
                    <path d="M1588.82,139.077C1588.85,137.888 1588.85,136.889 1588.72,136.086C1588.63,135.569 1588.51,135.154 1588.23,134.877C1587.94,134.603 1587.51,134.494 1586.92,134.464C1584.93,134.361 1587.61,134.541 1585.28,134.475L1585.34,132.476C1587.71,132.543 1585,132.362 1587.02,132.466C1588.22,132.528 1589.04,132.883 1589.61,133.435C1590.18,133.982 1590.53,134.752 1590.69,135.77C1590.84,136.674 1590.83,137.814 1590.81,139.182L1592.52,137.469L1593.97,137.497L1593.93,138.883L1590.4,142.418L1589.97,142.985L1589.25,142.339L1585.72,138.803L1585.68,137.417L1587.13,137.389L1588.82,139.077Z" style="fill:rgb(34,34,36);"/>
                </g>
            </g>
        </g>
    </g>
</svg>
