<?xml version="1.0" encoding="UTF-8" standalone="no"?>
<!DOCTYPE svg PUBLIC "-//W3C//DTD SVG 1.1//EN" "http://www.w3.org/Graphics/SVG/1.1/DTD/svg11.dtd">
<svg width="100%" height="100%" viewBox="0 0 24 20" version="1.1" xmlns="http://www.w3.org/2000/svg" xmlns:xlink="http://www.w3.org/1999/xlink" xml:space="preserve" xmlns:serif="http://www.serif.com/" style="fill-rule:evenodd;clip-rule:evenodd;stroke-linejoin:round;stroke-miterlimit:2;">
    <g transform="matrix(1,0,0,1,-340,-128)">
        <g id="Sleeping-Connections" serif:id="Sleeping Connections" transform="matrix(0.0299708,0,0,0.035632,344.296,128.499)">
            <path d="M188.044,238.567L307.108,238.567C316.315,238.567 323.79,232.279 323.79,224.535L323.79,196.47C323.79,188.725 316.315,182.438 307.108,182.438L188.044,182.438L188.044,126.308L307.108,126.308C316.315,126.308 323.79,120.021 323.79,112.276L323.79,84.212C323.79,76.467 316.315,70.179 307.108,70.179L188.044,70.179L188.044,26.767C188.044,4.259 169.408,-14.015 146.453,-14.015L63.272,-14.015C48.317,-14.015 35.195,-6.258 27.865,5.373L-64.102,95.55C-97.432,128.231 -97.432,181.298 -64.102,213.979L29.463,305.723C37.012,316.037 49.347,322.761 63.272,322.761L146.453,322.761C169.408,322.761 188.044,304.487 188.044,281.98L188.044,238.567Z"/>
            <g transform="matrix(1.14843,0,0,1.14843,26.895,-130.261)">
                <path d="M318.723,210.98C394.227,228.353 449.777,286.532 449.777,355.537C449.777,438.278 369.913,505.453 271.544,505.453C208.105,505.453 152.363,477.515 120.815,435.461C135.845,438.969 151.665,440.82 167.994,440.82C266.364,440.82 346.228,373.645 346.228,290.904C346.228,261.523 336.157,234.105 318.723,210.98Z" style="fill:rgb(34,34,36);"/>
            </g>
        </g>
    </g>
</svg>
