<?xml version="1.0" encoding="UTF-8" standalone="no"?>
<!DOCTYPE svg PUBLIC "-//W3C//DTD SVG 1.1//EN" "http://www.w3.org/Graphics/SVG/1.1/DTD/svg11.dtd">
<svg width="100%" height="100%" viewBox="0 0 24 20" version="1.1" xmlns="http://www.w3.org/2000/svg" xmlns:xlink="http://www.w3.org/1999/xlink" xml:space="preserve" xmlns:serif="http://www.serif.com/" style="fill-rule:evenodd;clip-rule:evenodd;stroke-linejoin:round;stroke-miterlimit:2;">
    <g transform="matrix(1,0,0,1,-864,-59)">
        <g id="Menu">
        </g>
        <g id="Expand">
        </g>
        <g id="Grid">
        </g>
        <g id="Word-Wrap" serif:id="Word Wrap">
        </g>
        <g id="Special-Chars" serif:id="Special Chars">
        </g>
        <g id="Search">
        </g>
        <g id="SQL-Beautifier" serif:id="SQL Beautifier">
        </g>
        <g id="SQL-Beautifier1" serif:id="SQL Beautifier">
        </g>
        <g id="Auto-Commit" serif:id="Auto Commit">
        </g>
        <g id="Stop-on-Error" serif:id="Stop on Error">
        </g>
        <g id="Execute-Explain" serif:id="Execute Explain">
        </g>
        <g id="Execute-Current" serif:id="Execute Current">
        </g>
        <g id="Execute-and-Next-Cmd" serif:id="Execute and Next Cmd">
        </g>
        <g id="Kill-Connection-2" serif:id="Kill Connection 2">
        </g>
        <g id="Sleeping-Connections" serif:id="Sleeping Connections">
        </g>
        <g id="Kill-Connection" serif:id="Kill Connection">
        </g>
        <g id="Kill-Query" serif:id="Kill Query">
        </g>
        <g id="Show-Details" serif:id="Show Details">
        </g>
        <g id="Infos">
        </g>
        <g id="Background-Threads" serif:id="Background Threads">
        </g>
        <g id="refresh">
        </g>
        <g id="New-File" serif:id="New File">
        </g>
        <g id="Minimize">
        </g>
        <g id="Maximize">
        </g>
        <g id="Close">
        </g>
        <g id="load">
        </g>
        <g id="save">
        </g>
        <g id="Execute-on-Heatwave" serif:id="Execute on Heatwave">
        </g>
        <g id="Execute-Current-on-Heatwave" serif:id="Execute Current on Heatwave">
        </g>
        <g id="Trace-Heatwave-Query" serif:id="Trace Heatwave Query">
        </g>
        <g id="Layer3">
        </g>
        <g id="New-Shell-Console" serif:id="New Shell Console">
        </g>
        <g id="New-File-Selector" serif:id="New File Selector">
        </g>
        <g id="saveNotebook">
        </g>
        <g id="saveNotebook1" serif:id="saveNotebook">
        </g>
        <g id="disabled" transform="matrix(1,0,0,1,1,1)">
            <g id="sqlPreview">
                <g id="disabled1" serif:id="disabled">
                    <path id="Search-copy-4" serif:id="Search copy 4" d="M874.765,71.071C873.765,71.941 872.458,72.468 871.028,72.468C867.88,72.468 865.329,69.917 865.329,66.769C865.329,63.622 867.88,61.071 871.028,61.071C874.175,61.071 876.726,63.622 876.726,66.769C876.726,67.907 876.393,68.967 875.819,69.856L876.65,70.687L876.874,70.463L880.481,73.978L878.869,75.59L875.262,72.075L875.515,71.821L874.765,71.071ZM871.03,62.421C868.627,62.421 866.679,64.369 866.679,66.771C866.679,69.174 868.627,71.122 871.03,71.122C873.432,71.122 875.38,69.174 875.38,66.771C875.38,64.369 873.432,62.421 871.03,62.421Z"/>
                    <path d="M876.358,63.747C876.47,63.735 876.585,63.729 876.703,63.729C877.131,63.729 877.514,63.809 877.853,63.969C878.192,64.129 878.479,64.346 878.714,64.618C878.949,64.89 879.13,65.208 879.255,65.571C879.381,65.935 879.443,66.319 879.443,66.725C879.443,66.923 879.427,67.122 879.395,67.322C879.363,67.522 879.315,67.718 879.251,67.911C879.187,68.103 879.104,68.286 879.003,68.459C878.901,68.633 878.778,68.787 878.634,68.92L879.371,69.561L878.883,70.106L878.049,69.377C877.836,69.5 877.614,69.588 877.384,69.641C877.155,69.694 876.928,69.721 876.703,69.721C876.601,69.721 876.501,69.717 876.404,69.708C876.535,69.449 876.65,69.181 876.747,68.903C876.84,68.901 876.933,68.89 877.028,68.872C877.137,68.851 877.243,68.816 877.344,68.768L876.904,68.383C876.936,68.26 876.964,68.135 876.988,68.009L877.248,67.71L877.945,68.319C878.127,68.1 878.255,67.852 878.33,67.574C878.405,67.296 878.442,67.013 878.442,66.725C878.442,66.453 878.409,66.186 878.342,65.924C878.275,65.662 878.172,65.429 878.033,65.223C877.894,65.017 877.714,64.853 877.493,64.73C877.273,64.609 877.014,64.547 876.714,64.546C876.613,64.271 876.494,64.004 876.358,63.747ZM874.155,67.897C874.154,67.893 874.153,67.89 874.152,67.887C874.026,67.523 873.964,67.136 873.964,66.725C873.964,66.331 874.023,65.956 874.141,65.602C874.264,65.97 874.33,66.363 874.33,66.771C874.33,67.164 874.269,67.542 874.155,67.897ZM869.734,67.678C869.734,67.897 869.771,68.084 869.846,68.239C869.921,68.394 870.025,68.521 870.158,68.62C870.292,68.718 870.445,68.791 870.619,68.836C870.793,68.881 870.981,68.904 871.184,68.904C871.403,68.904 871.59,68.879 871.745,68.828C871.899,68.777 872.025,68.712 872.121,68.632C872.217,68.552 872.287,68.459 872.329,68.355C872.372,68.251 872.393,68.146 872.393,68.039C872.393,67.82 872.344,67.658 872.245,67.554C872.146,67.45 872.038,67.377 871.921,67.334C871.718,67.259 871.482,67.188 871.212,67.122C870.942,67.055 870.61,66.968 870.214,66.861C869.969,66.797 869.764,66.713 869.602,66.609C869.439,66.505 869.309,66.389 869.213,66.26C869.117,66.132 869.049,65.996 869.009,65.852C868.969,65.708 868.949,65.561 868.949,65.411C868.949,65.123 869.009,64.873 869.129,64.662C869.249,64.451 869.408,64.276 869.606,64.137C869.803,63.999 870.028,63.896 870.279,63.829C870.53,63.762 870.783,63.729 871.04,63.729C871.339,63.729 871.62,63.768 871.885,63.845C872.149,63.922 872.381,64.039 872.582,64.193C872.782,64.348 872.941,64.539 873.058,64.766C873.176,64.993 873.235,65.256 873.235,65.555L872.233,65.555C872.207,65.187 872.081,64.927 871.857,64.774C871.632,64.622 871.347,64.546 871,64.546C870.882,64.546 870.762,64.558 870.639,64.582C870.516,64.606 870.404,64.646 870.303,64.702C870.201,64.758 870.117,64.834 870.05,64.931C869.983,65.027 869.95,65.147 869.95,65.291C869.95,65.494 870.013,65.653 870.138,65.768C870.264,65.883 870.428,65.969 870.631,66.028C870.652,66.033 870.737,66.056 870.883,66.096C871.03,66.136 871.194,66.18 871.376,66.228C871.558,66.276 871.735,66.323 871.909,66.369C872.082,66.414 872.207,66.447 872.281,66.469C872.468,66.527 872.631,66.608 872.77,66.709C872.909,66.81 873.025,66.927 873.118,67.057C873.212,67.188 873.281,67.329 873.327,67.478C873.372,67.628 873.395,67.777 873.395,67.927C873.395,68.247 873.329,68.521 873.199,68.748C873.068,68.975 872.896,69.16 872.682,69.305C872.468,69.449 872.225,69.554 871.953,69.621C871.68,69.688 871.403,69.721 871.12,69.721C870.794,69.721 870.487,69.681 870.198,69.601C869.91,69.521 869.659,69.398 869.445,69.233C869.232,69.067 869.061,68.855 868.933,68.596C868.804,68.337 868.738,68.031 868.732,67.678L869.734,67.678ZM880.357,63.865L881.358,63.865L881.358,68.72L884.266,68.72L884.266,69.585L880.357,69.585L880.357,63.865Z"/>
                </g>
            </g>
        </g>
    </g>
</svg>
