<?xml version="1.0" encoding="UTF-8" standalone="no"?>
<!DOCTYPE svg PUBLIC "-//W3C//DTD SVG 1.1//EN" "http://www.w3.org/Graphics/SVG/1.1/DTD/svg11.dtd">
<svg width="100%" height="100%" viewBox="0 0 24 20" version="1.1" xmlns="http://www.w3.org/2000/svg" xmlns:xlink="http://www.w3.org/1999/xlink" xml:space="preserve" xmlns:serif="http://www.serif.com/" style="fill-rule:evenodd;clip-rule:evenodd;stroke-linejoin:round;stroke-miterlimit:2;">
    <g transform="matrix(1,0,0,1,-373,-59)">
        <g id="Execute-Current" serif:id="Execute Current" transform="matrix(0.5,0,0,0.5,11.5,-999.5)">
            <g transform="matrix(1,0,0,1,-608,1990)">
                <path d="M1340,138L1340,154L1338,154L1338,157L1346,157L1346,154L1344,154L1344,138L1346,138L1346,135L1338,135L1338,138L1340,138Z" style="fill:rgb(34,34,36);"/>
            </g>
            <g id="Execute" transform="matrix(1.89283,0,0,1.89474,-529.789,-1695.11)">
                <path d="M676,2013L670,2023L675,2023L670,2032L684,2020L678,2019L685,2013L676,2013Z" style="fill:rgb(34,34,36);"/>
            </g>
        </g>
    </g>
</svg>
