<?xml version="1.0" encoding="UTF-8" standalone="no"?>
<!DOCTYPE svg PUBLIC "-//W3C//DTD SVG 1.1//EN" "http://www.w3.org/Graphics/SVG/1.1/DTD/svg11.dtd">
<svg width="100%" height="100%" viewBox="0 0 46 38" version="1.1" xmlns="http://www.w3.org/2000/svg" xmlns:xlink="http://www.w3.org/1999/xlink" xml:space="preserve" xmlns:serif="http://www.serif.com/" style="fill-rule:evenodd;clip-rule:evenodd;stroke-linejoin:round;stroke-miterlimit:2;">
    <g transform="matrix(1,0,0,1,-1544,-65)">
        <g id="Menu">
        </g>
        <g transform="matrix(0.998995,0,0,1,-664.523,-1682)">
            <g id="Expand">
            </g>
        </g>
        <g id="Grid">
        </g>
        <g id="Word-Wrap" serif:id="Word Wrap">
        </g>
        <g transform="matrix(1,0,0,1,292.938,-176.103)">
            <g id="Special-Chars" serif:id="Special Chars">
                <path id="Special-Chars1" serif:id="Special Chars" d="M1273.26,272.936L1273.26,249.061L1276.99,249.061L1276.99,272.936L1279.14,272.936L1279.14,247.095L1271.45,247.095C1268.92,247.095 1267.59,247.534 1266.71,248.411C1265.81,249.299 1264.99,251.333 1264.99,253.013C1264.99,256.48 1267.01,257.917 1271.04,258.826L1271.04,272.936L1273.26,272.936Z" style="fill:rgb(34,34,36);fill-rule:nonzero;"/>
            </g>
        </g>
        <g id="Search">
        </g>
        <g transform="matrix(0.804283,0.804282,-0.804283,0.804282,723.382,-1009.13)">
            <g id="SQL-Beautifier" serif:id="SQL Beautifier">
                <g id="Broom">
                    <g id="Brush">
                    </g>
                    <g id="Handle">
                    </g>
                </g>
            </g>
        </g>
        <g transform="matrix(0.804283,0.804282,-0.804283,0.804282,653.382,-1009.13)">
            <g id="SQL-Beautifier1" serif:id="SQL Beautifier">
                <g id="Broom1" serif:id="Broom">
                    <g id="Brush1" serif:id="Brush">
                    </g>
                    <g id="Handle1" serif:id="Handle">
                    </g>
                </g>
            </g>
        </g>
        <g id="Auto-Commit" serif:id="Auto Commit" transform="matrix(1,0,0,1,524,-2050)">
            <g id="Auto-Commit1" serif:id="Auto Commit">
            </g>
        </g>
        <g id="Stop-on-Error" serif:id="Stop on Error" transform="matrix(1,0,0,1,260,-2050)">
            <g id="Stop-on-Error1" serif:id="Stop on Error">
            </g>
        </g>
        <g transform="matrix(1,0,0,1,83,-174)">
            <g id="Execute-Explain" serif:id="Execute Explain">
                <g id="Search1" serif:id="Search">
                </g>
            </g>
        </g>
        <g id="Execute-Current" serif:id="Execute Current">
        </g>
        <g id="Execute-and-Next-Cmd" serif:id="Execute and Next Cmd">
        </g>
    </g>
</svg>
