<?xml version="1.0" encoding="UTF-8" standalone="no"?>
<!DOCTYPE svg PUBLIC "-//W3C//DTD SVG 1.1//EN" "http://www.w3.org/Graphics/SVG/1.1/DTD/svg11.dtd">
<svg width="100%" height="100%" viewBox="0 0 24 20" version="1.1" xmlns="http://www.w3.org/2000/svg" xmlns:xlink="http://www.w3.org/1999/xlink" xml:space="preserve" xmlns:serif="http://www.serif.com/" style="fill-rule:evenodd;clip-rule:evenodd;stroke-linejoin:round;stroke-miterlimit:2;">
    <g transform="matrix(1,0,0,1,-374,-128)">
        <g id="Kill-Query" serif:id="Kill Query">
            <g transform="matrix(0.0299708,0,0,0.035632,195.543,120.799)">
                <path d="M6538.18,536.857L6447.26,460.384L6376.48,519.919L6467.4,596.391L6376.48,672.864L6447.26,732.398L6538.18,655.925L6629.1,732.398L6699.88,672.864L6608.96,596.391L6699.88,519.919L6629.1,460.384L6538.18,536.857Z"/>
            </g>
            <g id="Execute" transform="matrix(0.946417,0,0,0.947368,-258.894,-1778.05)">
                <path d="M676,2013L670,2023L675,2023L670,2032L684,2020L678,2019L685,2013L676,2013Z" style="fill:rgb(34,34,36);"/>
            </g>
        </g>
    </g>
</svg>
