<?xml version="1.0" encoding="UTF-8" standalone="no"?>
<!DOCTYPE svg PUBLIC "-//W3C//DTD SVG 1.1//EN" "http://www.w3.org/Graphics/SVG/1.1/DTD/svg11.dtd">
<svg width="100%" height="100%" viewBox="0 0 24 20" version="1.1" xmlns="http://www.w3.org/2000/svg" xmlns:xlink="http://www.w3.org/1999/xlink" xml:space="preserve" xmlns:serif="http://www.serif.com/" style="fill-rule:evenodd;clip-rule:evenodd;stroke-linejoin:round;stroke-miterlimit:2;">
    <g transform="matrix(1,0,0,1,-818,-94)">
        <g transform="matrix(0.5,0,0,0.5,167.649,-27.0833)">
            <g id="Word-Wrap" serif:id="Word Wrap">
                <path id="Enabled" d="M1346.7,247.497C1346.7,244.555 1344.31,242.167 1341.37,242.167L1306.03,242.167C1303.09,242.167 1300.7,244.555 1300.7,247.497L1300.7,274.837C1300.7,277.778 1303.09,280.167 1306.03,280.167L1341.37,280.167C1344.31,280.167 1346.7,277.778 1346.7,274.837L1346.7,247.497ZM1319.98,266.111L1326.68,262.241L1326.68,269.98L1319.98,266.111ZM1326.7,267.167L1326.7,265.167L1331.7,265.167L1331.7,257.167L1328.7,257.167L1328.7,255.167L1333.7,255.167L1333.7,267.167L1326.7,267.167ZM1314.7,254.157L1326.7,254.157L1326.7,258.176L1314.7,258.176L1314.7,254.157Z" style="fill:rgb(34,34,36);"/>
            </g>
        </g>
    </g>
</svg>
