<?xml version="1.0" encoding="UTF-8" standalone="no"?>
<!DOCTYPE svg PUBLIC "-//W3C//DTD SVG 1.1//EN" "http://www.w3.org/Graphics/SVG/1.1/DTD/svg11.dtd">
<svg width="100%" height="100%" viewBox="0 0 24 20" version="1.1" xmlns="http://www.w3.org/2000/svg" xmlns:xlink="http://www.w3.org/1999/xlink" xml:space="preserve" xmlns:serif="http://www.serif.com/" style="fill-rule:evenodd;clip-rule:evenodd;stroke-linejoin:round;stroke-miterlimit:2;">
    <g transform="matrix(1,0,0,1,-340,-161)">
        <g transform="matrix(0.0299708,0,0,0.035632,344.296,127.499)">
            <g id="Sleeping-Connections" serif:id="Sleeping Connections">
                <path d="M624.083,1014.97C624.083,973.695 584.24,940.183 535.166,940.183L-54.414,940.183C-103.489,940.183 -143.331,973.695 -143.331,1014.97L-143.331,1398.62C-143.331,1439.9 -103.489,1473.41 -54.414,1473.41L535.166,1473.41C584.24,1473.41 624.083,1439.9 624.083,1398.62L624.083,1014.97ZM392.925,1094.3C479.637,1114.25 543.432,1181.06 543.432,1260.31C543.432,1355.33 451.714,1432.48 338.744,1432.48C265.889,1432.48 201.873,1400.39 165.643,1352.1C182.904,1356.13 201.071,1358.25 219.825,1358.25C332.795,1358.25 424.513,1281.11 424.513,1186.09C424.513,1152.34 412.948,1120.85 392.925,1094.3ZM188.044,1220.83L307.108,1220.83C316.315,1220.83 323.79,1214.54 323.79,1206.8L323.79,1178.73C323.79,1170.99 316.315,1164.7 307.108,1164.7L188.044,1164.7L188.044,1108.57L307.108,1108.57C316.315,1108.57 323.79,1102.28 323.79,1094.54L323.79,1066.47C323.79,1058.73 316.315,1052.44 307.108,1052.44L188.044,1052.44L188.044,1009.03C188.044,986.521 169.408,968.248 146.453,968.248L63.272,968.248C48.317,968.248 35.195,976.004 27.865,987.636L-64.102,1077.81C-97.432,1110.49 -97.432,1163.56 -64.102,1196.24L29.463,1287.99C37.012,1298.3 49.347,1305.02 63.272,1305.02L146.453,1305.02C169.408,1305.02 188.044,1286.75 188.044,1264.24L188.044,1220.83Z" style="fill:rgb(34,34,36);"/>
            </g>
        </g>
    </g>
</svg>
