<?xml version="1.0" encoding="UTF-8" standalone="no"?>
<!DOCTYPE svg PUBLIC "-//W3C//DTD SVG 1.1//EN" "http://www.w3.org/Graphics/SVG/1.1/DTD/svg11.dtd">
<svg width="100%" height="100%" viewBox="0 0 24 20" version="1.1" xmlns="http://www.w3.org/2000/svg" xmlns:xlink="http://www.w3.org/1999/xlink" xml:space="preserve" xmlns:serif="http://www.serif.com/" style="fill-rule:evenodd;clip-rule:evenodd;stroke-linejoin:round;stroke-miterlimit:2;">
    <g transform="matrix(1,0,0,1,-908,-59)">
        <g id="Menu">
        </g>
        <g id="Expand">
        </g>
        <g id="Grid">
        </g>
        <g id="Word-Wrap" serif:id="Word Wrap">
        </g>
        <g id="Special-Chars" serif:id="Special Chars">
        </g>
        <g id="Search">
        </g>
        <g id="SQL-Beautifier" serif:id="SQL Beautifier">
        </g>
        <g id="SQL-Beautifier1" serif:id="SQL Beautifier">
        </g>
        <g id="Auto-Commit" serif:id="Auto Commit">
        </g>
        <g id="Stop-on-Error" serif:id="Stop on Error">
        </g>
        <g id="Execute-Explain" serif:id="Execute Explain">
        </g>
        <g id="Execute-Current" serif:id="Execute Current">
        </g>
        <g id="Execute-and-Next-Cmd" serif:id="Execute and Next Cmd">
        </g>
        <g id="Kill-Connection-2" serif:id="Kill Connection 2">
        </g>
        <g id="Sleeping-Connections" serif:id="Sleeping Connections">
        </g>
        <g id="Kill-Connection" serif:id="Kill Connection">
        </g>
        <g id="Kill-Query" serif:id="Kill Query">
        </g>
        <g id="Show-Details" serif:id="Show Details">
        </g>
        <g id="Infos">
        </g>
        <g id="Background-Threads" serif:id="Background Threads">
        </g>
        <g id="refresh">
        </g>
        <g id="New-File" serif:id="New File">
        </g>
        <g id="Minimize">
        </g>
        <g id="Maximize">
        </g>
        <g id="Close">
        </g>
        <g id="load">
        </g>
        <g id="save">
        </g>
        <g id="Execute-on-Heatwave" serif:id="Execute on Heatwave">
        </g>
        <g id="Execute-Current-on-Heatwave" serif:id="Execute Current on Heatwave">
        </g>
        <g id="Trace-Heatwave-Query" serif:id="Trace Heatwave Query">
        </g>
        <g id="Layer3">
        </g>
        <g id="New-Shell-Console" serif:id="New Shell Console">
        </g>
        <g id="New-File-Selector" serif:id="New File Selector">
        </g>
        <g id="saveNotebook">
        </g>
        <g id="saveNotebook1" serif:id="saveNotebook">
        </g>
        <g id="sqlPreview">
        </g>
        <g id="historyBack" transform="matrix(1,0,0,1,912,60)">
            <path d="M13.507,12.324C15.468,9.826 15.495,6.292 13.572,3.764C12.249,2.024 10.185,1 7.999,1C5.545,1 3.264,2.29 2,4.393L2,2L1,2L1,5.5L1.5,6L5,6L5,5L2.811,5C3.884,3.146 5.87,2 8.012,2C11.308,2 14.02,4.712 14.02,8.008C14.02,11.304 11.308,14.016 8.012,14.016C5.77,14.016 3.707,12.761 2.676,10.77L1.789,11.232C2.992,13.546 5.392,15.003 8,15.003C10.148,15.003 12.181,14.014 13.507,12.324ZM10.146,11.354L10.854,10.647L8,7.792L8,4L7,4L7,8L7.146,8.354L10.146,11.354Z"/>
        </g>
        <g id="historyForward">
        </g>
    </g>
</svg>
