<?xml version="1.0" encoding="UTF-8" standalone="no"?>
<!DOCTYPE svg PUBLIC "-//W3C//DTD SVG 1.1//EN" "http://www.w3.org/Graphics/SVG/1.1/DTD/svg11.dtd">
<svg width="100%" height="100%" viewBox="0 0 24 20" version="1.1" xmlns="http://www.w3.org/2000/svg" xmlns:xlink="http://www.w3.org/1999/xlink" xml:space="preserve" xmlns:serif="http://www.serif.com/" style="fill-rule:evenodd;clip-rule:evenodd;stroke-linejoin:round;stroke-miterlimit:2;">
    <g transform="matrix(1,0,0,1,-486,-128)">
        <g id="Background-Threads" serif:id="Background Threads">
            <g transform="matrix(1,0,0,1,2,-8)">
                <path d="M497,140.613C497,139.723 496.277,139 495.387,139L488.613,139C487.723,139 487,139.723 487,140.613L487,141.387C487,142.277 487.723,143 488.613,143L495.387,143C496.277,143 497,142.277 497,141.387L497,140.613Z" style="fill:rgb(34,34,36);"/>
            </g>
            <g transform="matrix(1,0,0,1,1,-2)">
                <path d="M506,139.575C506,138.706 505.294,138 504.425,138L497.575,138C496.706,138 496,138.706 496,139.575L496,140.425C496,141.294 496.706,142 497.575,142L504.425,142C505.294,142 506,141.294 506,140.425L506,139.575ZM505,139.402C505,139.18 504.82,139 504.598,139L497.402,139C497.18,139 497,139.18 497,139.402L497,140.598C497,140.82 497.18,141 497.402,141L504.598,141C504.82,141 505,140.82 505,140.598L505,139.402Z" style="fill:rgb(34,34,36);"/>
            </g>
            <g transform="matrix(1,0,0,1,1,3)">
                <path d="M506,139.607C506,138.72 505.28,138 504.393,138L497.607,138C496.72,138 496,138.72 496,139.607L496,140.393C496,141.28 496.72,142 497.607,142L504.393,142C505.28,142 506,141.28 506,140.393L506,139.607ZM505,139.401C505,139.18 504.82,139 504.599,139L497.401,139C497.18,139 497,139.18 497,139.401L497,140.599C497,140.82 497.18,141 497.401,141L504.599,141C504.82,141 505,140.82 505,140.599L505,139.401Z" style="fill:rgb(34,34,36);"/>
            </g>
            <g transform="matrix(1,0,0,1,0,-6)">
                <path d="M495,148L495,144L497.207,144L497.207,143L495,143L495,141L493.999,141L493.999,148.233C493.999,148.233 494.046,149.009 495,149C495.279,149 495,149 495,149L495,149L497.256,149L497.256,148L495,148Z" style="fill:rgb(34,34,36);"/>
            </g>
        </g>
    </g>
</svg>
