<?xml version="1.0" encoding="UTF-8" standalone="no"?>
<!DOCTYPE svg PUBLIC "-//W3C//DTD SVG 1.1//EN" "http://www.w3.org/Graphics/SVG/1.1/DTD/svg11.dtd">
<svg width="100%" height="100%" viewBox="0 0 24 20" version="1.1" xmlns="http://www.w3.org/2000/svg" xmlns:xlink="http://www.w3.org/1999/xlink" xml:space="preserve" xmlns:serif="http://www.serif.com/" style="fill-rule:evenodd;clip-rule:evenodd;stroke-linejoin:round;stroke-miterlimit:2;">
    <g transform="matrix(1,0,0,1,-611,-128)">
        <g id="Preview-Sql" serif:id="Preview Sql" transform="matrix(0.499498,0,0,0.5,291.848,-1062.96)">
            <path d="M663.171,2383.92C673.122,2383.92 681.189,2391.98 681.189,2401.92C681.189,2411.87 673.122,2419.92 663.171,2419.92C653.22,2419.92 645.153,2411.87 645.153,2401.92C645.153,2391.98 653.22,2383.92 663.171,2383.92ZM663.912,2407.42L665.032,2408.54L664.654,2408.92L670.044,2414.17L672.452,2411.76L667.062,2406.51L666.727,2406.85L665.486,2405.61C666.344,2404.28 666.842,2402.7 666.842,2401C666.842,2396.3 663.03,2392.49 658.327,2392.49C653.625,2392.49 649.813,2396.3 649.813,2401C649.813,2405.7 653.625,2409.51 658.327,2409.51C660.464,2409.51 662.417,2408.72 663.912,2407.42ZM658.33,2394.51C661.92,2394.51 664.83,2397.41 664.83,2401C664.83,2404.59 661.92,2407.5 658.33,2407.5C654.74,2407.5 651.83,2404.59 651.83,2401C651.83,2397.41 654.74,2394.51 658.33,2394.51ZM656.394,2402.36L654.898,2402.36C654.906,2402.88 655.005,2403.34 655.197,2403.72C655.388,2404.11 655.644,2404.43 655.963,2404.68C656.282,2404.92 656.657,2405.11 657.088,2405.23C657.519,2405.35 657.978,2405.41 658.465,2405.41C658.888,2405.41 659.303,2405.36 659.71,2405.26C660.117,2405.16 660.48,2405 660.799,2404.78C661.118,2404.57 661.376,2404.29 661.571,2403.95C661.767,2403.61 661.864,2403.2 661.864,2402.73C661.864,2402.5 661.83,2402.28 661.763,2402.06C661.695,2401.83 661.591,2401.62 661.451,2401.43C661.312,2401.23 661.138,2401.06 660.931,2400.91C660.723,2400.76 660.48,2400.64 660.2,2400.55C660.089,2400.52 659.903,2400.47 659.644,2400.4C659.384,2400.33 659.119,2400.26 658.848,2400.19C658.576,2400.12 658.331,2400.05 658.112,2399.99C657.892,2399.93 657.767,2399.9 657.735,2399.89C657.431,2399.8 657.186,2399.68 656.998,2399.5C656.811,2399.33 656.717,2399.1 656.717,2398.79C656.717,2398.58 656.767,2398.4 656.867,2398.25C656.967,2398.11 657.092,2398 657.244,2397.91C657.395,2397.83 657.563,2397.77 657.747,2397.73C657.93,2397.7 658.11,2397.68 658.285,2397.68C658.804,2397.68 659.231,2397.79 659.566,2398.02C659.901,2398.25 660.089,2398.64 660.129,2399.19L661.625,2399.19C661.625,2398.74 661.537,2398.35 661.362,2398.01C661.186,2397.67 660.949,2397.39 660.649,2397.15C660.35,2396.92 660.003,2396.75 659.608,2396.63C659.213,2396.52 658.792,2396.46 658.345,2396.46C657.962,2396.46 657.583,2396.51 657.208,2396.61C656.833,2396.71 656.498,2396.86 656.202,2397.07C655.907,2397.28 655.67,2397.54 655.49,2397.85C655.311,2398.17 655.221,2398.54 655.221,2398.97C655.221,2399.2 655.251,2399.41 655.311,2399.63C655.371,2399.85 655.472,2400.05 655.616,2400.24C655.76,2400.43 655.953,2400.6 656.196,2400.76C656.44,2400.91 656.745,2401.04 657.112,2401.14C657.703,2401.3 658.199,2401.43 658.602,2401.53C659.005,2401.62 659.359,2401.73 659.662,2401.84C659.837,2401.91 659.999,2402.01 660.147,2402.17C660.294,2402.33 660.368,2402.57 660.368,2402.89C660.368,2403.05 660.336,2403.21 660.272,2403.37C660.208,2403.52 660.105,2403.66 659.961,2403.78C659.817,2403.9 659.63,2404 659.398,2404.07C659.167,2404.15 658.888,2404.18 658.561,2404.18C658.257,2404.18 657.976,2404.15 657.717,2404.08C657.457,2404.02 657.228,2403.91 657.028,2403.76C656.829,2403.61 656.673,2403.42 656.562,2403.19C656.45,2402.96 656.394,2402.68 656.394,2402.36ZM663.001,2402.68C663.17,2402.15 663.262,2401.59 663.262,2401C663.262,2400.39 663.163,2399.81 662.98,2399.26C662.803,2399.79 662.714,2400.34 662.714,2400.93C662.714,2401.55 662.808,2402.12 662.995,2402.67L663.001,2402.68ZM666.292,2396.49C666.495,2396.87 666.673,2397.27 666.823,2397.68C667.272,2397.68 667.66,2397.77 667.987,2397.95C668.318,2398.14 668.587,2398.38 668.795,2398.69C669.002,2399 669.156,2399.35 669.256,2399.74C669.356,2400.13 669.405,2400.53 669.405,2400.93C669.405,2401.36 669.35,2401.79 669.238,2402.2C669.126,2402.62 668.935,2402.99 668.663,2403.31L667.622,2402.4L667.233,2402.85C667.197,2403.04 667.155,2403.22 667.108,2403.41L667.766,2403.98C667.614,2404.05 667.456,2404.11 667.293,2404.14C667.151,2404.16 667.011,2404.18 666.873,2404.18C666.729,2404.6 666.557,2405 666.36,2405.39C666.506,2405.4 666.655,2405.41 666.808,2405.41C667.143,2405.41 667.482,2405.37 667.825,2405.29C668.169,2405.21 668.5,2405.07 668.819,2404.89L670.064,2405.98L670.794,2405.17L669.693,2404.21C669.908,2404.01 670.092,2403.78 670.243,2403.52C670.395,2403.26 670.519,2402.99 670.614,2402.7C670.71,2402.42 670.782,2402.12 670.83,2401.82C670.878,2401.53 670.902,2401.23 670.902,2400.93C670.902,2400.33 670.808,2399.75 670.62,2399.21C670.433,2398.67 670.164,2398.19 669.812,2397.79C669.461,2397.38 669.032,2397.06 668.526,2396.82C668.019,2396.58 667.446,2396.46 666.808,2396.46C666.631,2396.46 666.459,2396.47 666.292,2396.49ZM672.266,2396.66L672.266,2405.2L678.108,2405.2L678.108,2403.91L673.763,2403.91L673.763,2396.66L672.266,2396.66Z"/>
        </g>
    </g>
</svg>
