<?xml version="1.0" encoding="UTF-8" standalone="no"?>
<!DOCTYPE svg PUBLIC "-//W3C//DTD SVG 1.1//EN" "http://www.w3.org/Graphics/SVG/1.1/DTD/svg11.dtd">
<svg width="100%" height="100%" viewBox="0 0 46 38" version="1.1" xmlns="http://www.w3.org/2000/svg" xmlns:xlink="http://www.w3.org/1999/xlink" xml:space="preserve" xmlns:serif="http://www.serif.com/" style="fill-rule:evenodd;clip-rule:evenodd;stroke-linejoin:round;stroke-miterlimit:2;">
    <g transform="matrix(1,0,0,1,-1544,-135)">
        <g id="Menu">
        </g>
        <g transform="matrix(0.998995,0,0,1,-664.523,-1682)">
            <g id="Expand">
            </g>
        </g>
        <g id="Grid">
        </g>
        <g id="Word-Wrap" serif:id="Word Wrap">
        </g>
        <g transform="matrix(1,0,0,1,292.298,-107.167)">
            <g id="Special-Chars" serif:id="Special Chars">
                <path id="Enabled" d="M1297.7,247.497C1297.7,244.555 1295.31,242.167 1292.37,242.167L1257.03,242.167C1254.09,242.167 1251.7,244.555 1251.7,247.497L1251.7,274.837C1251.7,277.778 1254.09,280.167 1257.03,280.167L1292.37,280.167C1295.31,280.167 1297.7,277.778 1297.7,274.837L1297.7,247.497ZM1273.9,274L1273.9,250.125L1277.63,250.125L1277.63,274L1279.78,274L1279.78,248.159L1272.09,248.159C1269.56,248.159 1268.23,248.598 1267.35,249.475C1266.45,250.363 1265.63,252.397 1265.63,254.077C1265.63,257.544 1267.65,258.981 1271.68,259.89L1271.68,274L1273.9,274Z" style="fill:rgb(34,34,36);"/>
            </g>
        </g>
        <g id="Search">
        </g>
        <g transform="matrix(0.804283,0.804282,-0.804283,0.804282,723.382,-1009.13)">
            <g id="SQL-Beautifier" serif:id="SQL Beautifier">
                <g id="Broom">
                    <g id="Brush">
                    </g>
                    <g id="Handle">
                    </g>
                </g>
            </g>
        </g>
        <g transform="matrix(0.804283,0.804282,-0.804283,0.804282,653.382,-1009.13)">
            <g id="SQL-Beautifier1" serif:id="SQL Beautifier">
                <g id="Broom1" serif:id="Broom">
                    <g id="Brush1" serif:id="Brush">
                    </g>
                    <g id="Handle1" serif:id="Handle">
                    </g>
                </g>
            </g>
        </g>
        <g id="Auto-Commit" serif:id="Auto Commit" transform="matrix(1,0,0,1,524,-2050)">
            <g id="Auto-Commit1" serif:id="Auto Commit">
            </g>
        </g>
        <g id="Stop-on-Error" serif:id="Stop on Error" transform="matrix(1,0,0,1,260,-2050)">
            <g id="Stop-on-Error1" serif:id="Stop on Error">
            </g>
        </g>
        <g transform="matrix(1,0,0,1,83,-174)">
            <g id="Execute-Explain" serif:id="Execute Explain">
                <g id="Search1" serif:id="Search">
                </g>
            </g>
        </g>
        <g id="Execute-Current" serif:id="Execute Current">
        </g>
        <g id="Execute-and-Next-Cmd" serif:id="Execute and Next Cmd">
        </g>
    </g>
</svg>
