<?xml version="1.0" encoding="UTF-8"?>
<!DOCTYPE svg PUBLIC "-//W3C//DTD SVG 1.1//EN" "http://www.w3.org/Graphics/SVG/1.1/DTD/svg11.dtd">
<svg version="1.1" xmlns="http://www.w3.org/2000/svg" xmlns:xlink="http://www.w3.org/1999/xlink" x="0" y="0" width="100%" height="100%" viewBox="0, 0, 847.332, 950">
  <g id="Up">
    <path d="M382.373,116.79 C393.049,105.38 407.991,98.855 423.666,98.855 C439.342,98.855 454.283,105.38 464.96,116.79 L747.403,388.953 C762.768,405.421 766.864,429.371 757.91,449.99 C748.957,470.608 728.621,483.967 706.11,483.967 L564.888,483.967 L564.888,794.656 C564.888,825.867 539.581,851.144 508.399,851.144 L338.933,851.144 C307.723,851.144 282.444,825.867 282.444,794.656 L282.444,483.967 L141.222,483.967 C118.711,483.967 98.376,470.608 89.422,449.99 C80.469,429.371 84.564,405.421 99.929,388.953 z" style="fill:#000000"/>
  </g>
</svg>
