<?xml version="1.0" encoding="UTF-8" standalone="no"?>
<!DOCTYPE svg PUBLIC "-//W3C//DTD SVG 1.1//EN" "http://www.w3.org/Graphics/SVG/1.1/DTD/svg11.dtd">
<svg width="100%" height="100%" viewBox="0 0 96 96" version="1.1" xmlns="http://www.w3.org/2000/svg" xmlns:xlink="http://www.w3.org/1999/xlink" xml:space="preserve" xmlns:serif="http://www.serif.com/" style="fill-rule:evenodd;clip-rule:evenodd;stroke-linejoin:round;stroke-miterlimit:2;">
    <path id="Shell-Icon" serif:id="Shell Icon" d="M17.164,13.277C16.031,12.953 15.087,11.795 14.153,11.197C12.205,9.945 10.287,9.067 7.988,8.142C7.121,7.796 4.806,6.966 3.974,7.587C3.487,7.742 3.268,7.942 3.114,8.417C2.627,9.127 3.073,10.23 3.401,10.918C4.322,12.855 5.653,14.038 6.842,15.641C7.915,17.087 9.222,18.732 9.996,20.361C11.613,23.762 12.33,27.544 13.866,30.91C14.456,32.204 15.308,33.681 16.16,34.796C16.85,35.706 18.08,36.388 18.454,37.577C19.235,38.762 17.305,42.816 16.877,44.103C15.225,49.07 15.574,56.025 17.451,60.345C18.193,62.054 18.895,64.044 20.891,64.51C21.038,64.399 20.926,64.46 21.177,64.371C21.603,61.046 21.751,57.841 22.898,55.21C23.616,53.562 24.981,52.437 25.909,51.042C26.589,51.426 26.586,52.532 26.912,53.264C27.759,55.166 28.632,57.229 29.636,59.096C31.74,63.008 34.048,66.767 36.661,70.203C37.589,71.424 38.837,72.749 39.959,73.814C40.435,74.267 41.018,74.502 41.392,75.059L41.536,75.059L41.536,75.202C39.61,74.561 38.437,72.679 36.948,71.591C34.076,69.493 30.686,66.377 28.776,63.398C27.916,61.734 27.055,60.066 26.196,58.399L26.196,58.263C25.836,58.728 25.949,59.236 25.766,59.927C24.955,62.982 25.588,66.447 22.755,67.566C19.516,68.843 17.161,65.509 16.16,63.956C12.901,58.89 12.056,50.389 14.297,43.549C14.794,42.027 14.843,40.166 15.73,38.965C15.586,37.887 14.681,37.58 14.153,36.882C13.291,35.744 12.541,34.404 11.859,33.132C10.511,30.619 9.605,27.661 8.562,24.942C8.138,23.839 8.053,22.792 7.559,21.747C6.805,20.162 5.457,18.58 4.404,17.166C2.904,15.156 -1.291,11.28 0.39,7.308C3.054,1.016 12.277,5.802 15.874,8.002C16.776,8.557 17.778,9.698 18.74,10.085C20.317,10.18 21.895,10.269 23.472,10.364C26.41,11.039 29.191,11.556 31.501,12.862C42.355,19.011 49.363,25.268 55.872,35.633C57.228,37.792 57.938,40.166 59.026,42.575C60.62,46.103 62.387,49.771 64.187,53.124C65.046,54.728 65.653,56.469 66.767,57.847C67.239,58.428 68.492,58.608 69.205,58.957C71.325,59.993 73.799,60.789 75.799,62.013C79.407,64.219 82.912,66.862 86.122,69.51C87.348,70.52 88.151,72.001 89.276,73.116L89.276,73.674C88.273,73.953 87.269,74.229 86.265,74.508C84.039,75.063 82.114,74.92 79.957,75.481C78.674,75.814 77.046,76.299 75.656,76.451C75.704,76.499 75.751,76.543 75.799,76.587C76.618,78.8 81.006,80.642 82.968,82.005C85.427,83.713 87.74,85.774 89.563,88.112C90.184,88.715 90.806,89.314 91.426,89.916C91.85,90.512 91.968,91.292 92.43,91.863L92.43,92.002C91.552,91.701 91.097,90.953 90.423,90.474C89.057,89.504 87.665,88.417 86.265,87.558C83.889,86.1 81.134,85.27 78.667,83.812C77.28,82.99 75.948,81.979 74.653,81.032C73.469,80.166 72.141,78.515 71.356,77.285C70.947,76.642 70.866,75.865 70.352,75.342C70.505,74.204 71.997,74.194 72.933,73.814C76.225,72.47 80.077,72.013 85.118,72.146C84.963,70.891 81.835,69.37 80.817,68.676C78.782,67.287 76.68,65.775 74.51,64.51C73.373,63.848 71.408,63.334 70.209,62.843C68.498,62.146 64.732,61.467 63.757,60.209C61.904,57.809 60.624,54.9 59.313,52.015C57.997,49.124 56.333,46.084 55.011,43.13C54.357,41.666 54.035,40.344 53.292,38.965C48.669,30.381 41.914,23.192 33.651,18.136C30.938,16.481 27.951,14.953 24.618,13.974C22.734,13.42 20.476,13.726 18.454,13.277L17.164,13.277ZM96.002,34.587L72.257,34.587L72.257,28.69L96.002,28.69L96.002,34.587ZM48.364,23.659L59.214,18.745L43.096,10.742L43.096,4.003L47.701,4.564L68.424,15.796L68.424,21.412L53.242,29.381L48.364,23.659ZM18.454,19.664L18.454,19.528C19.241,19.36 19.984,19.23 21.035,19.249C21.552,19.734 22.344,20.063 22.755,20.637C23.064,21.068 23.116,21.525 23.472,21.889C23.475,23.366 23.07,24.336 22.181,24.942C22.134,24.986 22.086,25.034 22.038,25.078C21.56,24.108 21.082,23.135 20.604,22.165C19.986,21.307 19.101,20.664 18.597,19.664L18.454,19.664Z" style="fill:black;"/>
</svg>
