<?xml version="1.0" encoding="UTF-8" standalone="no"?>
<!DOCTYPE svg PUBLIC "-//W3C//DTD SVG 1.1//EN" "http://www.w3.org/Graphics/SVG/1.1/DTD/svg11.dtd">
<svg width="100%" height="100%" viewBox="0 0 96 96" version="1.1" xmlns="http://www.w3.org/2000/svg" xmlns:xlink="http://www.w3.org/1999/xlink" xml:space="preserve" xmlns:serif="http://www.serif.com/" style="fill-rule:evenodd;clip-rule:evenodd;stroke-linejoin:round;stroke-miterlimit:2;">
    <path id="Cluster-Icon" serif:id="Cluster Icon" d="M58.386,82.38L57.401,80.261L63.626,80.812L60.036,85.928L59,83.7L59,84.283C55.533,85.399 51.836,86 48,86C44.164,86 40.467,85.399 37,84.283L37,83.7L35.964,85.928L32.374,80.812L38.599,80.261L37.614,82.38C40.889,83.433 44.379,84 48,84C51.621,84 55.111,83.433 58.386,82.38ZM64.012,49.74C64.004,49.661 64,49.581 64,49.5C64,45.91 71.163,43 80,43C88.837,43 96,45.91 96,49.5C96,49.581 95.996,49.661 95.988,49.74L95.995,49.819L96,50L96,74C96,77.866 88.837,81 80,81C71.163,81 64,77.866 64,74L64,50L64.005,49.819L64.012,49.74ZM0.012,49.74C0.004,49.661 0,49.581 0,49.5C0,45.91 7.164,43 16,43C24.837,43 32,45.91 32,49.5C32,49.581 31.996,49.661 31.988,49.743L31.99,49.768L31.994,49.819L31.995,49.822C31.998,49.881 32,49.941 32,50C32,50 32,74 32,74C32,77.866 24.837,81 16,81C7.164,81 0,77.866 0,74L0,50L0.005,49.819L0.012,49.74ZM0.012,49.741L0.005,49.819L0,50C0,53.866 7.164,57 16,57C24.833,57 31.994,53.869 32,50C32,50 31.995,49.822 31.995,49.822L31.99,49.768L31.988,49.743C31.672,53.221 24.635,56 16,56C7.362,56 0.323,53.219 0.012,49.741ZM95.988,49.741C95.678,53.219 88.638,56 80,56C71.362,56 64.322,53.219 64.012,49.741L64.005,49.819L64,50C64,53.866 71.163,57 80,57C88.837,57 96,53.866 96,50L95.995,49.819L95.988,49.741ZM32.012,12.74C32.004,12.661 32,12.581 32,12.5C32,8.91 39.163,6 48,6C56.837,6 64,8.91 64,12.5C64,12.581 63.996,12.661 63.988,12.74L63.995,12.819L64,13L64,37C64,40.866 56.836,44 48,44C39.163,44 32,40.866 32,37L32,13L32.005,12.819L32.012,12.74ZM70.71,24.71L69.716,26.217L66.917,20.629L73.156,20.999L71.823,23.021C75.059,25.88 77.776,29.311 79.816,33.156L81.603,31.994L81.935,38.234L76.364,35.401L78.131,34.252C76.24,30.64 73.718,27.41 70.71,24.71ZM24.178,23.023L22.844,20.999L29.083,20.629L26.284,26.217L25.29,24.709C22.281,27.411 19.758,30.64 17.868,34.251L19.636,35.401L14.065,38.234L14.397,31.994L16.185,33.157C18.224,29.311 20.941,25.88 24.178,23.023ZM32.012,12.741L32.005,12.819L32,13C32,16.866 39.163,20 48,20C56.837,20 64,16.866 64,13L63.995,12.819L63.988,12.741C63.677,16.219 56.638,19 48,19C39.362,19 32.322,16.219 32.012,12.741Z" style="fill:white;"/>
</svg>
