<?xml version="1.0" encoding="UTF-8" standalone="no"?>
<!DOCTYPE svg PUBLIC "-//W3C//DTD SVG 1.1//EN" "http://www.w3.org/Graphics/SVG/1.1/DTD/svg11.dtd">
<svg width="100%" height="100%" viewBox="0 0 16 16" version="1.1" xmlns="http://www.w3.org/2000/svg" xmlns:xlink="http://www.w3.org/1999/xlink" xml:space="preserve" xmlns:serif="http://www.serif.com/" style="fill-rule:evenodd;clip-rule:evenodd;stroke-linejoin:round;stroke-miterlimit:2;">
    <g transform="matrix(1.00149,0,0,1.00149,-0.0491663,-0.06188)">
        <path d="M16.025,1.636C16.025,0.767 15.32,0.062 14.451,0.062L1.624,0.062C0.755,0.062 0.049,0.767 0.049,1.636L0.049,14.463C0.049,15.332 0.755,16.038 1.624,16.038L14.451,16.038C15.32,16.038 16.025,15.332 16.025,14.463L16.025,1.636Z" style="fill:rgb(0,90,133);"/>
    </g>
    <g transform="matrix(0.155099,-0.0255728,0.0257157,0.155965,1.261,1.38092)">
        <g id="sakilaZoomed">
            <path id="SQL-Editor-Icon" serif:id="SQL Editor Icon" d="M79.69,58.618C77.126,55.196 75.616,52.012 74.59,50.044C68.208,37.791 58.88,27.53 47.471,20.313C43.724,17.951 39.6,15.77 34.998,14.372C32.395,13.58 29.274,14.019 26.486,13.377L24.706,13.377C23.145,12.919 21.84,11.263 20.547,10.409C17.858,8.621 15.21,7.368 12.036,6.047C10.839,5.553 7.642,4.368 6.493,5.255C5.82,5.476 5.519,5.762 5.306,6.44C4.634,7.454 5.25,9.028 5.701,10.01C6.974,12.774 8.811,14.462 10.453,16.752C11.935,18.815 13.74,21.163 14.807,23.489C17.04,28.344 18.031,33.742 20.152,38.547C20.967,40.393 22.143,42.501 23.32,44.094C24.271,45.393 25.971,46.366 26.486,48.063C27.565,49.755 24.9,55.542 24.309,57.379C22.028,64.468 22.51,74.395 25.101,80.563C26.126,83.002 27.095,85.843 29.852,86.508C30.055,86.35 29.9,86.436 30.247,86.309C30.835,81.563 31.039,76.988 32.623,73.233C33.614,70.88 35.5,69.274 36.781,67.283C37.719,67.831 37.715,69.41 38.165,70.455C39.336,73.17 40.541,76.116 41.927,78.78C44.832,84.363 50.756,91.243 51.325,92.001C53.501,94.901 49.636,92.65 46.579,90.432C44.18,88.692 43.128,87.564 41.248,85.204C39.593,83.127 38.363,80.164 37.177,77.785L37.177,77.59C36.68,78.255 36.835,78.979 36.582,79.965C35.463,84.328 36.336,89.273 32.426,90.871C27.953,92.693 24.701,87.934 23.32,85.717C18.819,78.486 17.652,66.351 20.747,56.587C21.432,54.415 21.501,51.759 22.725,50.044C22.527,48.505 21.277,48.067 20.547,47.072C19.358,45.447 18.322,43.533 17.38,41.718C15.52,38.131 14.268,33.909 12.828,30.027C12.243,28.453 12.125,26.959 11.443,25.467C10.402,23.204 8.541,20.946 7.086,18.928C5.015,16.06 -0.777,10.525 1.545,4.856C5.222,-4.125 17.958,2.707 22.924,5.847C24.17,6.639 25.553,8.268 26.882,8.82C29.059,8.956 30.575,8.704 33.415,9.219C37.518,9.962 41.312,10.92 44.501,12.784C59.489,21.561 69.165,30.493 78.153,45.289C80.025,48.37 81.107,54.834 81.137,57.198C81.166,59.538 80.469,59.657 79.69,58.618ZM30.05,21.901C31.049,22.12 31.858,23.064 32.426,23.883C32.851,24.498 33.018,24.96 33.131,26.048C33.349,28.146 32.86,29.162 31.634,30.027C31.567,30.09 31.502,30.158 31.436,30.221C30.775,28.837 30.248,27.377 29.456,26.063C28.032,23.701 27.85,24.108 26.684,22.494C26.646,22.44 26.553,22.494 26.486,22.494L26.486,22.299C27.573,22.059 28.599,21.874 30.05,21.901Z" style="fill:white;"/>
        </g>
    </g>
</svg>
