<?xml version="1.0" encoding="UTF-8" standalone="no"?>
<!DOCTYPE svg PUBLIC "-//W3C//DTD SVG 1.1//EN" "http://www.w3.org/Graphics/SVG/1.1/DTD/svg11.dtd">
<svg width="100%" height="100%" viewBox="0 0 16 16" version="1.1" xmlns="http://www.w3.org/2000/svg" xmlns:xlink="http://www.w3.org/1999/xlink" xml:space="preserve" xmlns:serif="http://www.serif.com/" style="fill-rule:evenodd;clip-rule:evenodd;stroke-linejoin:round;stroke-miterlimit:2;">
    <g transform="matrix(1.00149,0,0,1.00149,-0.0491663,-0.06188)">
        <path d="M16.025,1.636C16.025,0.767 15.32,0.062 14.451,0.062L1.624,0.062C0.755,0.062 0.049,0.767 0.049,1.636L0.049,14.463C0.049,15.332 0.755,16.038 1.624,16.038L14.451,16.038C15.32,16.038 16.025,15.332 16.025,14.463L16.025,1.636Z" style="fill:rgb(0,90,133);"/>
    </g>
    <g id="mrs" transform="matrix(0.10995,-0.0181286,0.0182299,0.110564,2.922,0.75386)">
        <g id="sakilaZoomed" transform="matrix(1.43593,-2.2703e-16,-2.77556e-17,1.43593,-40.6252,56.9937)">
            <path d="M53.714,-15.589C52.063,-16.361 50.337,-17.043 48.53,-17.592C46.184,-18.306 43.371,-17.911 40.858,-18.489L39.253,-18.489C37.846,-18.902 36.67,-20.395 35.504,-21.165C33.081,-22.776 30.694,-23.906 27.833,-25.096C26.754,-25.542 23.872,-26.61 22.836,-25.81C22.23,-25.611 21.958,-25.353 21.766,-24.742C21.161,-23.828 21.716,-22.409 22.122,-21.524C23.27,-19.033 24.926,-17.511 26.406,-15.447C27.742,-13.588 29.369,-11.471 30.33,-9.374C32.343,-4.998 33.236,-0.133 35.148,4.199C35.883,5.863 36.943,7.763 38.004,9.199C38.861,10.37 40.394,11.247 40.858,12.776C41.83,14.301 39.428,19.518 38.895,21.174C36.839,27.564 37.274,36.512 39.609,42.071C40.533,44.27 41.407,46.831 43.892,47.43C44.075,47.288 43.935,47.365 44.248,47.251C44.778,42.973 44.962,38.849 46.39,35.464C47.283,33.343 48.983,31.896 50.138,30.101C50.983,30.595 50.979,32.018 51.385,32.96C52.441,35.407 53.527,38.063 54.776,40.464C57.395,45.497 62.734,51.698 63.247,52.382C65.209,54.996 61.725,52.967 58.969,50.967C56.807,49.399 55.859,48.382 54.164,46.255C52.672,44.383 51.564,41.712 50.494,39.567L50.494,39.392C50.046,39.991 50.186,40.644 49.958,41.532C48.949,45.465 49.736,49.923 46.212,51.363C42.18,53.005 39.249,48.716 38.004,46.717C33.947,40.199 32.895,29.261 35.685,20.46C36.302,18.502 36.364,16.108 37.468,14.562C37.289,13.175 36.162,12.78 35.504,11.883C34.433,10.418 33.499,8.693 32.65,7.057C30.973,3.824 29.845,0.018 28.547,-3.481C28.019,-4.9 27.913,-6.247 27.298,-7.592C26.36,-9.631 24.682,-11.667 23.371,-13.486C21.504,-16.071 16.283,-21.06 18.376,-26.17C21.691,-34.265 33.171,-28.107 37.647,-25.277C38.77,-24.563 40.017,-23.095 41.215,-22.597C43.177,-22.474 44.544,-22.701 47.103,-22.237C50.045,-21.705 52.811,-21.049 55.266,-19.958L53.714,-15.589ZM87.661,10.684C89.206,13.589 90.094,18.979 90.12,21.01C90.146,23.12 89.517,23.227 88.815,22.29C86.504,19.206 85.143,16.336 84.218,14.562C83.89,13.933 83.554,13.309 83.209,12.692L87.661,10.684ZM44.07,-10.806C44.971,-10.608 45.7,-9.758 46.212,-9.019C46.595,-8.465 46.746,-8.049 46.847,-7.068C47.044,-5.177 46.603,-4.261 45.498,-3.481C45.438,-3.424 45.379,-3.363 45.32,-3.306C44.724,-4.554 44.249,-5.87 43.535,-7.054C42.251,-9.183 42.087,-8.816 41.036,-10.271C41.002,-10.32 40.918,-10.271 40.858,-10.271L40.858,-10.447C41.838,-10.663 42.762,-10.83 44.07,-10.806Z" style="fill:white;"/>
        </g>
        <g transform="matrix(0.056268,0.00922598,-0.00927754,0.0559556,45.0239,9.49011)">
            <path d="M511.715,1.595C793.976,1.595 1023.13,230.755 1023.13,513.016C1023.13,795.277 793.976,1024.44 511.715,1024.44C229.454,1024.44 0.294,795.277 0.294,513.016C0.294,230.755 229.454,1.595 511.715,1.595ZM511.715,65.19C264.553,65.19 63.889,265.854 63.889,513.016C63.889,760.178 264.553,960.842 511.715,960.842C758.877,960.842 959.541,760.178 959.541,513.016C959.541,265.854 758.877,65.19 511.715,65.19Z" style="fill:white;"/>
        </g>
        <g transform="matrix(3.60115,0.590463,-0.593762,3.58116,54.2635,-0.441986)">
            <g transform="matrix(1.18578,0,0,1.04225,-0.781005,-0.466503)">
                <path d="M4.561,15.916L4.878,15.916L4.878,15.06L4.663,15.06C4.318,15.06 4.07,14.975 3.92,14.806C3.769,14.637 3.694,14.356 3.694,13.962L3.694,12.399C3.694,12.03 3.593,11.743 3.392,11.54C3.19,11.337 2.891,11.214 2.494,11.173L2.494,11.035C2.891,10.994 3.19,10.871 3.392,10.666C3.593,10.461 3.694,10.174 3.694,9.804L3.694,8.261C3.694,7.868 3.769,7.587 3.92,7.418C4.07,7.249 4.318,7.164 4.663,7.164L4.878,7.164L4.878,6.308L4.561,6.308C3.897,6.308 3.411,6.455 3.102,6.749C2.793,7.043 2.638,7.502 2.638,8.128L2.638,9.456C2.638,9.856 2.552,10.135 2.382,10.294C2.211,10.453 1.91,10.533 1.479,10.533L1.479,11.671C1.91,11.674 2.211,11.755 2.382,11.914C2.552,12.073 2.638,12.351 2.638,12.747L2.638,14.091C2.638,14.716 2.793,15.177 3.102,15.472C3.411,15.768 3.897,15.916 4.561,15.916Z" style="fill:white;fill-rule:nonzero;"/>
            </g>
            <g transform="matrix(1.17903,0,0,1.04225,-1.37196,-0.466503)">
                <path d="M7.334,15.916C7.997,15.916 8.483,15.768 8.793,15.472C9.102,15.177 9.257,14.716 9.257,14.091L9.257,12.747C9.257,12.351 9.342,12.073 9.513,11.914C9.684,11.755 9.985,11.674 10.415,11.671L10.415,10.533C9.985,10.533 9.684,10.453 9.513,10.294C9.342,10.135 9.257,9.856 9.257,9.456L9.257,8.128C9.257,7.502 9.102,7.043 8.793,6.749C8.483,6.455 7.997,6.308 7.334,6.308L7.016,6.308L7.016,7.164L7.232,7.164C7.58,7.164 7.829,7.249 7.978,7.418C8.126,7.587 8.201,7.868 8.201,8.261L8.201,9.804C8.201,10.174 8.301,10.461 8.503,10.666C8.705,10.871 9.006,10.994 9.405,11.035L9.405,11.173C9.006,11.214 8.705,11.337 8.503,11.54C8.301,11.743 8.201,12.03 8.201,12.399L8.201,13.962C8.201,14.356 8.125,14.637 7.975,14.806C7.825,14.975 7.577,15.06 7.232,15.06L7.016,15.06L7.016,15.916L7.334,15.916Z" style="fill:white;fill-rule:nonzero;"/>
            </g>
        </g>
    </g>
</svg>
