<?xml version="1.0" encoding="UTF-8"?>
<!DOCTYPE svg PUBLIC "-//W3C//DTD SVG 1.1//EN" "http://www.w3.org/Graphics/SVG/1.1/DTD/svg11.dtd">
<svg version="1.1" xmlns="http://www.w3.org/2000/svg" xmlns:xlink="http://www.w3.org/1999/xlink" width="100%" height="100%" viewBox="0, 0, 32, 32">
  <g id="javascript" transform="translate(0, 0)">
    <path d="M11.4,10 L14.1,10 L14.1,17.6 C14.1,21 12.5,22.2 9.8,22.2 C9.2,22.2 8.3,22.1 7.8,21.9 L8.1,19.7 C8.5,19.9 9,20 9.5,20 C10.6,20 11.4,19.5 11.4,17.6 L11.4,10 z M16.5,19.2 C17.2,19.6 18.4,20 19.5,20 C20.8,20 21.4,19.5 21.4,18.7 C21.4,17.9 20.8,17.5 19.4,17 C17.4,16.3 16.1,15.2 16.1,13.4 C16.1,11.3 17.8,9.8 20.7,9.8 C22.1,9.8 23.1,10.1 23.8,10.4 L23.2,12.6 C22.7,12.4 21.9,12 20.7,12 C19.5,12 18.9,12.5 18.9,13.2 C18.9,14 19.6,14.3 21.1,14.9 C23.2,15.7 24.2,16.8 24.2,18.5 C24.2,20.5 22.6,22.2 19.3,22.2 C17.9,22.2 16.6,21.8 15.9,21.5 L16.5,19.2 z" fill="#F1DD3F" id="javascript"/>
  </g>
</svg>
