<?xml version="1.0" encoding="UTF-8"?>
<!DOCTYPE svg PUBLIC "-//W3C//DTD SVG 1.1//EN" "http://www.w3.org/Graphics/SVG/1.1/DTD/svg11.dtd">
<svg version="1.1" xmlns="http://www.w3.org/2000/svg" xmlns:xlink="http://www.w3.org/1999/xlink" width="100%" height="100%" viewBox="0, 0, 32, 32">
  <g id="json" transform="translate(0, 0)">
    <path d="M7.5,15.05 C9,15.05 9.2,14.25 9.2,13.55 C9.2,12.95 9.1,12.45 9.1,11.85 C9.1,11.25 9,10.65 9,10.15 C9,8.05 10.3,7.15 12.4,7.15 L13.2,7.15 L13.2,9.05 L12.8,9.05 C11.8,9.05 11.5,9.65 11.5,10.65 C11.5,11.05 11.6,11.45 11.6,11.95 C11.6,12.35 11.7,12.85 11.7,13.45 C11.7,15.15 11,15.75 9.8,16.05 C11,16.35 11.7,16.95 11.7,18.65 C11.7,19.25 11.6,19.75 11.6,20.15 C11.6,20.55 11.5,21.05 11.5,21.35 C11.5,22.35 11.8,22.95 12.8,22.95 L13.2,22.95 L13.2,24.85 L12.4,24.85 C10.4,24.85 9.1,24.05 9.1,21.85 C9.1,21.25 9.1,20.75 9.2,20.15 C9.3,19.55 9.3,18.95 9.3,18.45 C9.3,17.85 9.1,16.95 7.6,16.95 L7.5,15.05 z M24.5,16.75 C23,16.75 22.8,17.65 22.8,18.25 C22.8,18.85 22.9,19.35 22.9,19.95 C23,20.55 23,21.15 23,21.65 C23,23.85 21.6,24.65 19.6,24.65 L18.8,24.65 L18.8,22.95 L19.2,22.95 C20.2,22.95 20.5,22.35 20.5,21.35 C20.5,20.95 20.5,20.55 20.4,20.15 C20.4,19.65 20.3,19.15 20.3,18.65 C20.3,16.95 21,16.35 22.2,16.05 C21,15.75 20.3,15.15 20.3,13.45 C20.3,12.85 20.4,12.35 20.4,11.95 C20.5,11.45 20.5,11.05 20.5,10.65 C20.5,9.65 20.1,9.15 19.2,9.05 L18.8,9.05 L18.8,7.15 L19.6,7.15 C21.7,7.15 23,8.05 23,10.15 C23,10.75 22.9,11.25 22.9,11.85 C22.8,12.45 22.8,13.05 22.8,13.55 C22.8,14.25 23,15.05 24.5,15.05 L24.5,16.75 z" fill="#DBCD68" id="json"/>
  </g>
</svg>
