<?xml version="1.0" encoding="UTF-8"?>
<!DOCTYPE svg PUBLIC "-//W3C//DTD SVG 1.1//EN" "http://www.w3.org/Graphics/SVG/1.1/DTD/svg11.dtd">
<svg version="1.1" xmlns="http://www.w3.org/2000/svg" xmlns:xlink="http://www.w3.org/1999/xlink" width="100%" height="100%" viewBox="0, 0, 32, 32">
  <g id="mysql"  transform="translate(0, 0)">
    <g>
      <path d="M26.446,22.659 C25.096,22.625 24.05,22.76 23.173,23.131 C22.92,23.232 22.515,23.232 22.481,23.553 C22.617,23.688 22.633,23.907 22.752,24.093 C22.954,24.43 23.307,24.885 23.628,25.122 C23.983,25.392 24.337,25.661 24.709,25.897 C25.366,26.304 26.109,26.539 26.749,26.944 C27.121,27.18 27.491,27.483 27.864,27.737 C28.049,27.872 28.166,28.092 28.403,28.175 L28.403,28.124 C28.284,27.973 28.251,27.753 28.133,27.584 C27.965,27.416 27.796,27.263 27.627,27.095 C27.137,26.438 26.529,25.864 25.873,25.392 C25.332,25.02 24.151,24.514 23.932,23.892 C23.932,23.892 23.915,23.874 23.898,23.857 C24.269,23.823 24.709,23.688 25.063,23.585 C25.636,23.434 26.159,23.468 26.749,23.317 C27.019,23.248 27.289,23.164 27.561,23.081 L27.561,22.928 C27.255,22.625 27.037,22.219 26.716,21.933 C25.857,21.191 24.911,20.466 23.932,19.857 C23.409,19.52 22.734,19.302 22.177,19.014 C21.975,18.913 21.638,18.863 21.52,18.693 C21.216,18.322 21.046,17.833 20.828,17.394 C20.339,16.467 19.865,15.438 19.444,14.458 C19.141,13.801 18.955,13.143 18.584,12.536 C16.845,9.667 14.956,7.93 12.055,6.226 C11.43,5.871 10.688,5.719 9.896,5.534 C9.473,5.516 9.052,5.483 8.63,5.467 C8.36,5.348 8.089,5.027 7.854,4.875 C6.892,4.268 4.413,2.953 3.704,4.69 C3.248,5.787 4.378,6.867 4.767,7.424 C5.053,7.811 5.425,8.251 5.626,8.689 C5.745,8.975 5.778,9.28 5.897,9.583 C6.167,10.325 6.419,11.152 6.774,11.844 C6.959,12.198 7.162,12.57 7.398,12.889 C7.534,13.076 7.769,13.159 7.82,13.464 C7.585,13.801 7.566,14.307 7.432,14.729 C6.825,16.636 7.06,18.997 7.921,20.397 C8.19,20.819 8.832,21.747 9.693,21.392 C10.452,21.089 10.283,20.127 10.502,19.284 C10.553,19.081 10.519,18.947 10.62,18.812 L10.62,18.846 C10.856,19.318 11.093,19.772 11.312,20.246 C11.836,21.072 12.746,21.933 13.506,22.506 C13.91,22.811 14.23,23.333 14.737,23.519 L14.737,23.468 L14.703,23.468 C14.602,23.317 14.45,23.248 14.315,23.131 C14.012,22.827 13.675,22.456 13.438,22.119 C12.729,21.174 12.104,20.127 11.549,19.048 C11.278,18.524 11.042,17.951 10.823,17.428 C10.722,17.226 10.722,16.922 10.553,16.821 C10.299,17.192 9.929,17.513 9.744,17.967 C9.423,18.693 9.389,19.587 9.27,20.515 C9.203,20.533 9.237,20.515 9.203,20.549 C8.664,20.414 8.478,19.857 8.275,19.386 C7.769,18.187 7.684,16.264 8.124,14.88 C8.241,14.527 8.749,13.413 8.545,13.076 C8.443,12.754 8.106,12.57 7.921,12.316 C7.702,11.996 7.465,11.591 7.314,11.236 C6.909,10.292 6.706,9.245 6.268,8.301 C6.066,7.862 5.711,7.406 5.425,7.002 C5.104,6.546 4.75,6.226 4.496,5.686 C4.413,5.5 4.294,5.197 4.429,4.995 C4.462,4.86 4.53,4.809 4.666,4.774 C4.884,4.589 5.509,4.825 5.728,4.926 C6.352,5.179 6.875,5.416 7.398,5.77 C7.634,5.939 7.887,6.259 8.19,6.344 L8.545,6.344 C9.085,6.461 9.693,6.377 10.199,6.53 C11.093,6.816 11.903,7.238 12.629,7.694 C14.838,9.094 16.66,11.085 17.891,13.464 C18.094,13.851 18.179,14.206 18.364,14.61 C18.719,15.438 19.158,16.282 19.511,17.091 C19.865,17.884 20.204,18.693 20.71,19.352 C20.963,19.706 21.975,19.891 22.431,20.077 C22.768,20.228 23.291,20.364 23.595,20.549 C24.169,20.903 24.741,21.308 25.282,21.697 C25.551,21.899 26.395,22.321 26.446,22.659" fill="#5D87A1"/>
      <path d="M9.237,7.997 C8.951,7.997 8.749,8.031 8.545,8.081 L8.545,8.115 L8.578,8.115 C8.714,8.385 8.951,8.572 9.118,8.807 C9.254,9.077 9.372,9.347 9.507,9.616 C9.524,9.6 9.54,9.582 9.54,9.582 C9.778,9.415 9.896,9.145 9.896,8.739 C9.794,8.62 9.778,8.503 9.693,8.385 C9.592,8.216 9.372,8.132 9.237,7.997" fill="#5D87A1"/>
    </g>
  </g>
</svg>
