<?xml version="1.0" encoding="UTF-8" standalone="no"?>
<!DOCTYPE svg PUBLIC "-//W3C//DTD SVG 1.1//EN" "http://www.w3.org/Graphics/SVG/1.1/DTD/svg11.dtd">
<svg width="100%" height="100%" viewBox="0 0 16 16" version="1.1" xmlns="http://www.w3.org/2000/svg" xmlns:xlink="http://www.w3.org/1999/xlink" xml:space="preserve" xmlns:serif="http://www.serif.com/" style="fill-rule:evenodd;clip-rule:evenodd;stroke-linejoin:round;stroke-miterlimit:2;">
    <g transform="matrix(1,0,0,1,-618,-162)">
        <g id="newScriptTs">
            <g transform="matrix(1,0,0,1,617,162)">
                <path d="M10.5,0.1L13.9,3.6L14,4L14,9.982L13,9.982L13,5L9,5L9,1L3,1L3,14L10.991,14L10.991,15L2.5,15L2,14.5L2,0.5L2.5,0L10.2,0L10.5,0.1ZM10,1L10,4L12.9,4L10,1ZM15,16L14,16L14,14L12,14L12,13L14,13L14,11L15,11L15,13L17,13L17,14L15,14L15,16Z" style="fill:rgb(82,155,186);"/>
            </g>
            <g id="typescript" transform="matrix(0.402921,0,0,0.406504,618.621,164.004)">
                <path id="typescript1" serif:id="typescript" d="M15.6,11.75L12.2,11.75L12.2,21.95L9.7,21.95L9.7,11.75L6.3,11.75L6.3,9.95L15.5,9.95L15.5,11.75L15.6,11.75ZM23.3,18.85C23.3,18.35 23.1,18.05 22.8,17.75C22.5,17.45 21.9,17.25 21.1,16.95C19.7,16.55 18.6,16.05 17.8,15.45C17.1,14.85 16.7,14.15 16.7,13.15C16.7,12.15 17.1,11.35 18,10.75C18.8,10.15 19.9,9.85 21.2,9.85C22.5,9.85 23.6,10.25 24.4,10.95C25.2,11.65 25.6,12.55 25.6,13.55L23.3,13.55C23.3,12.95 23.1,12.55 22.7,12.15C22.3,11.85 21.8,11.65 21.1,11.65C20.5,11.65 20,11.75 19.6,12.05C19.2,12.35 19.1,12.75 19.1,13.15C19.1,13.55 19.3,13.85 19.7,14.15C20.1,14.45 20.7,14.65 21.7,14.95C23,15.35 24,15.85 24.7,16.45C25.4,17.05 25.7,17.85 25.7,18.85C25.7,19.85 25.3,20.75 24.5,21.25C23.7,21.85 22.6,22.15 21.3,22.15C20,22.15 18.8,21.85 17.9,21.15C17,20.45 16.4,19.55 16.5,18.25L18.9,18.25C18.9,18.95 19.1,19.45 19.6,19.85C20,20.15 20.7,20.35 21.4,20.35C22.1,20.35 22.6,20.25 22.9,19.95C23.1,19.65 23.3,19.25 23.3,18.85Z" style="fill:rgb(82,155,186);fill-rule:nonzero;"/>
            </g>
        </g>
    </g>
</svg>
