<?xml version="1.0" encoding="UTF-8"?>
<!DOCTYPE svg PUBLIC "-//W3C//DTD SVG 1.1//EN" "http://www.w3.org/Graphics/SVG/1.1/DTD/svg11.dtd">
<svg version="1.1" xmlns="http://www.w3.org/2000/svg" xmlns:xlink="http://www.w3.org/1999/xlink" width="100%" height="100%" viewBox="0, 0, 32, 32">
  <g id="typescript" transform="translate(0, 0)">
    <path d="M15.6,11.75 L12.2,11.75 L12.2,21.95 L9.7,21.95 L9.7,11.75 L6.3,11.75 L6.3,9.95 L15.5,9.95 L15.5,11.75 z M23.3,18.85 C23.3,18.35 23.1,18.05 22.8,17.75 C22.5,17.45 21.9,17.25 21.1,16.95 C19.7,16.55 18.6,16.05 17.8,15.45 C17.1,14.85 16.7,14.15 16.7,13.15 C16.7,12.15 17.1,11.35 18,10.75 C18.8,10.15 19.9,9.85 21.2,9.85 C22.5,9.85 23.6,10.25 24.4,10.95 C25.2,11.65 25.6,12.55 25.6,13.55 L23.3,13.55 C23.3,12.95 23.1,12.55 22.7,12.15 C22.3,11.85 21.8,11.65 21.1,11.65 C20.5,11.65 20,11.75 19.6,12.05 C19.2,12.35 19.1,12.75 19.1,13.15 C19.1,13.55 19.3,13.85 19.7,14.15 C20.1,14.45 20.7,14.65 21.7,14.95 C23,15.35 24,15.85 24.7,16.45 C25.4,17.05 25.7,17.85 25.7,18.85 C25.7,19.85 25.3,20.75 24.5,21.25 C23.7,21.85 22.6,22.15 21.3,22.15 C20,22.15 18.8,21.85 17.9,21.15 C17,20.45 16.4,19.55 16.5,18.25 L18.9,18.25 C18.9,18.95 19.1,19.45 19.6,19.85 C20,20.15 20.7,20.35 21.4,20.35 C22.1,20.35 22.6,20.25 22.9,19.95 C23.1,19.65 23.3,19.25 23.3,18.85 z" fill="#529BBA" id="typescript"/>
  </g>
</svg>
