<?xml version="1.0" encoding="UTF-8" standalone="no"?>
<!DOCTYPE svg PUBLIC "-//W3C//DTD SVG 1.1//EN" "http://www.w3.org/Graphics/SVG/1.1/DTD/svg11.dtd">
<svg class="railroad-diagram" width="796" height="357" viewBox="0 0 796 357" id="alterRestProcedureStatement" xmlns="http://www.w3.org/2000/svg" xmlns:xlink="http://www.w3.org/1999/xlink"><g transform="translate(.5 .5)"><g><path d="M20 21v20m0 -10h20"></path></g><g><path d="M40 31h0"></path><path d="M756 327h0"></path><path d="M40 31h20"></path><g><path d="M60 31h0"></path><path d="M60 31h10"></path><g><path d="M70 31h0"></path><path d="M533 31h193"></path><g class="terminal "><path d="M70 31h0"></path><path d="M132.5 31h0"></path><rect x="70" y="20" width="62.5" height="22"></rect><text x="101.25" y="35">ALTER</text></g><path d="M132.5 31h10"></path><path d="M142.5 31h10"></path><g class="terminal "><path d="M152.5 31h0"></path><path d="M206.5 31h0"></path><rect x="152.5" y="20" width="54" height="22"></rect><text x="179.5" y="35">REST</text></g><path d="M206.5 31h10"></path><path d="M216.5 31h10"></path><g class="terminal "><path d="M226.5 31h0"></path><path d="M323 31h0"></path><rect x="226.5" y="20" width="96.5" height="22"></rect><text x="274.75" y="35">PROCEDURE</text></g><path d="M323 31h10"></path><path d="M333 31h10"></path><g class="non-terminal "><path d="M343 31h0"></path><path d="M533 31h0"></path><rect x="343" y="20" width="190" height="22" rx="10" ry="10"></rect><text x="438" y="35">procedureRequestPath</text></g></g><path d="M726 31a10 10 0 0 1 10 10v7a10 10 0 0 1 -10 10h-656a10 10 0 0 0 -10 10v23a10 10 0 0 0 10 10"></path><g><path d="M70 101h0"></path><path d="M624.5 101h101.5"></path><g><path d="M70 101h0"></path><path d="M624.5 101h0"></path><path d="M70 101a10 10 0 0 0 10 -10v-7a10 10 0 0 1 10 -10"></path><g><path d="M90 74h514.5"></path></g><path d="M604.5 74a10 10 0 0 1 10 10v7a10 10 0 0 0 10 10"></path><path d="M70 101h20"></path><g><path d="M90 101h0"></path><path d="M604.5 101h0"></path><path d="M90 101h20"></path><g><path d="M110 101h0"></path><g><path d="M110 101h0"></path><path d="M564.5 101h20"></path><g class="terminal "><path d="M110 101h0"></path><path d="M155.5 101h0"></path><rect x="110" y="90" width="45.5" height="22"></rect><text x="132.75" y="105">NEW</text></g><path d="M155.5 101h10"></path><path d="M165.5 101h10"></path><g class="terminal "><path d="M175.5 101h0"></path><path d="M255 101h0"></path><rect x="175.5" y="90" width="79.5" height="22"></rect><text x="215.25" y="105">REQUEST</text></g><path d="M255 101h10"></path><path d="M265 101h10"></path><g class="terminal "><path d="M275 101h0"></path><path d="M329 101h0"></path><rect x="275" y="90" width="54" height="22"></rect><text x="302" y="105">PATH</text></g><path d="M329 101h10"></path><path d="M339 101h10"></path><g class="non-terminal "><path d="M349 101h0"></path><path d="M564.5 101h0"></path><rect x="349" y="90" width="215.5" height="22" rx="10" ry="10"></rect><text x="456.75" y="105">newProcedureRequestPath</text></g></g><path d="M584.5 101h0"></path></g><path d="M584.5 101h20"></path></g><path d="M604.5 101h20"></path></g></g><path d="M726 101a10 10 0 0 1 10 10v7a10 10 0 0 1 -10 10h-656a10 10 0 0 0 -10 10v23a10 10 0 0 0 10 10"></path><g><path d="M70 171h0"></path><path d="M630 171h96"></path><g><path d="M70 171h0"></path><path d="M425.5 171h0"></path><path d="M70 171a10 10 0 0 0 10 -10v-7a10 10 0 0 1 10 -10"></path><g><path d="M90 144h315.5"></path></g><path d="M405.5 144a10 10 0 0 1 10 10v7a10 10 0 0 0 10 10"></path><path d="M70 171h20"></path><g><path d="M90 171h0"></path><path d="M405.5 171h0"></path><path d="M90 171h20"></path><g><path d="M110 171h0"></path><g><path d="M110 171h0"></path><path d="M365.5 171h20"></path><g class="terminal "><path d="M110 171h0"></path><path d="M147 171h0"></path><rect x="110" y="160" width="37" height="22"></rect><text x="128.5" y="175">ON</text></g><path d="M147 171h10"></path><path d="M157 171h10"></path><g class="non-terminal "><path d="M167 171h0"></path><path d="M365.5 171h0"></path><rect x="167" y="160" width="198.5" height="22" rx="10" ry="10"></rect><text x="266.25" y="175">serviceSchemaSelector</text></g></g><path d="M385.5 171h0"></path></g><path d="M385.5 171h20"></path></g><path d="M405.5 171h20"></path></g><g><path d="M425.5 171h0"></path><path d="M630 171h0"></path><path d="M425.5 171a10 10 0 0 0 10 -10v-7a10 10 0 0 1 10 -10"></path><g><path d="M445.5 144h164.5"></path></g><path d="M610 144a10 10 0 0 1 10 10v7a10 10 0 0 0 10 10"></path><path d="M425.5 171h20"></path><g class="non-terminal "><path d="M445.5 171h0"></path><path d="M610 171h0"></path><rect x="445.5" y="160" width="164.5" height="22" rx="10" ry="10"></rect><text x="527.75" y="175">restObjectOptions</text></g><path d="M610 171h20"></path></g></g><path d="M726 171a10 10 0 0 1 10 10v7a10 10 0 0 1 -10 10h-656a10 10 0 0 0 -10 10v39a10 10 0 0 0 10 10"></path><g><path d="M70 257h0"></path><path d="M706 257h20"></path><g><path d="M70 257h0"></path><path d="M706 257h0"></path><path d="M70 257a10 10 0 0 0 10 -10v-23a10 10 0 0 1 10 -10"></path><g><path d="M90 214h596"></path></g><path d="M686 214a10 10 0 0 1 10 10v23a10 10 0 0 0 10 10"></path><path d="M70 257h20"></path><g><path d="M90 257h0"></path><path d="M686 257h0"></path><path d="M90 257h20"></path><g><path d="M110 257h0"></path><g><path d="M110 257h0"></path><path d="M646 257h20"></path><g class="terminal "><path d="M110 257h0"></path><path d="M147 257h0"></path><rect x="110" y="246" width="37" height="22"></rect><text x="128.5" y="261">AS</text></g><path d="M147 257h10"></path><path d="M157 257h10"></path><g class="non-terminal "><path d="M167 257h0"></path><path d="M306 257h0"></path><rect x="167" y="246" width="139" height="22" rx="10" ry="10"></rect><text x="236.5" y="261">restObjectName</text></g><path d="M306 257h10"></path><g><path d="M316 257h0"></path><path d="M646 257h0"></path><path d="M316 257a10 10 0 0 0 10 -10v-7a10 10 0 0 1 10 -10"></path><g><path d="M336 230h290"></path></g><path d="M626 230a10 10 0 0 1 10 10v7a10 10 0 0 0 10 10"></path><path d="M316 257h20"></path><g><path d="M336 257h0"></path><path d="M626 257h0"></path><path d="M336 257h20"></path><g><path d="M356 257h0"></path><g><path d="M356 257h0"></path><path d="M586 257h20"></path><g class="terminal "><path d="M356 257h0"></path><path d="M461 257h0"></path><rect x="356" y="246" width="105" height="22"></rect><text x="408.5" y="261">PARAMETERS</text></g><path d="M461 257h10"></path><path d="M471 257h10"></path><g class="non-terminal "><path d="M481 257h0"></path><path d="M586 257h0"></path><rect x="481" y="246" width="105" height="22" rx="10" ry="10"></rect><text x="533.5" y="261">graphQlObj</text></g></g><path d="M606 257h0"></path></g><path d="M606 257h20"></path></g><path d="M626 257h20"></path></g></g><path d="M666 257h0"></path></g><path d="M666 257h20"></path></g><path d="M686 257h20"></path></g></g><path d="M726 257a10 10 0 0 1 10 10v7a10 10 0 0 1 -10 10h-656a10 10 0 0 0 -10 10v23a10 10 0 0 0 10 10"></path><g><path d="M70 327h0"></path><path d="M311.5 327h414.5"></path><g><path d="M70 327h0"></path><path d="M311.5 327h0"></path><path d="M70 327a10 10 0 0 0 10 -10v-7a10 10 0 0 1 10 -10"></path><g><path d="M90 300h201.5"></path></g><path d="M291.5 300a10 10 0 0 1 10 10v7a10 10 0 0 0 10 10"></path><path d="M70 327h20"></path><g><path d="M90 327h0"></path><path d="M291.5 327h0"></path><path d="M90 327h10"></path><g class="non-terminal "><path d="M100 327h0"></path><path d="M281.5 327h0"></path><rect x="100" y="316" width="181.5" height="22" rx="10" ry="10"></rect><text x="190.75" y="331">restProcedureResult</text></g><path d="M281.5 327h10"></path><path d="M100 327a10 10 0 0 0 -10 10v7a10 10 0 0 0 10 10"></path><g><path d="M100 354h181.5"></path></g><path d="M281.5 354a10 10 0 0 0 10 -10v-7a10 10 0 0 0 -10 -10"></path></g><path d="M291.5 327h20"></path></g></g><path d="M726 327h10"></path><path d="M736 327h0"></path></g><path d="M736 327h20"></path></g><path d="M 756 327 h 20 m 0 -10 v 20"></path></g><defs><style type="text/css"><![CDATA[
svg.railroad-diagram path { stroke-width: 2; stroke: darkgray; fill: rgba(0, 0, 0, 0); }svg.railroad-diagram text { font: bold 12px Hack, "Source Code Pro", monospace; text-anchor: middle; fill: #404040; }svg.railroad-diagram text.comment { font: italic 10px Hack, "Source Code Pro", monospace; fill: #404040; }svg.railroad-diagram g.terminal rect { stroke-width: 2; stroke: #404040; fill: rgba(200, 200, 200, 0.8); }svg.railroad-diagram g.non-terminal rect { stroke-width: 2; stroke: #404040; fill: rgba(255, 255, 255, 1); }svg.railroad-diagram text.diagram-text { font-size: 12px Hack, "Source Code Pro", monospace; fill: red; }svg.railroad-diagram path.diagram-text { stroke-width: 1; stroke: red; fill: red; cursor: help; }
 ]]>
</style></defs></svg>