<?xml version="1.0" encoding="UTF-8" standalone="no"?>
<!DOCTYPE svg PUBLIC "-//W3C//DTD SVG 1.1//EN" "http://www.w3.org/Graphics/SVG/1.1/DTD/svg11.dtd">
<svg class="railroad-diagram" width="697.5" height="201" viewBox="0 0 697.5 201" id="alterRestServiceStatement" xmlns="http://www.w3.org/2000/svg" xmlns:xlink="http://www.w3.org/1999/xlink"><g transform="translate(.5 .5)"><g><path d="M20 21v20m0 -10h20"></path></g><g><path d="M40 31h0"></path><path d="M657.5 171h0"></path><path d="M40 31h20"></path><g><path d="M60 31h0"></path><path d="M60 31h10"></path><g><path d="M70 31h0"></path><path d="M499 31h128.5"></path><g class="terminal "><path d="M70 31h0"></path><path d="M132.5 31h0"></path><rect x="70" y="20" width="62.5" height="22"></rect><text x="101.25" y="35">ALTER</text></g><path d="M132.5 31h10"></path><path d="M142.5 31h10"></path><g class="terminal "><path d="M152.5 31h0"></path><path d="M206.5 31h0"></path><rect x="152.5" y="20" width="54" height="22"></rect><text x="179.5" y="35">REST</text></g><path d="M206.5 31h10"></path><path d="M216.5 31h10"></path><g class="terminal "><path d="M226.5 31h0"></path><path d="M306 31h0"></path><rect x="226.5" y="20" width="79.5" height="22"></rect><text x="266.25" y="35">SERVICE</text></g><path d="M306 31h10"></path><path d="M316 31h10"></path><g class="non-terminal "><path d="M326 31h0"></path><path d="M499 31h0"></path><rect x="326" y="20" width="173" height="22" rx="10" ry="10"></rect><text x="412.5" y="35">serviceRequestPath</text></g></g><path d="M627.5 31a10 10 0 0 1 10 10v7a10 10 0 0 1 -10 10h-557.5a10 10 0 0 0 -10 10v23a10 10 0 0 0 10 10"></path><g><path d="M70 101h0"></path><path d="M607.5 101h20"></path><g><path d="M70 101h0"></path><path d="M607.5 101h0"></path><path d="M70 101a10 10 0 0 0 10 -10v-7a10 10 0 0 1 10 -10"></path><g><path d="M90 74h497.5"></path></g><path d="M587.5 74a10 10 0 0 1 10 10v7a10 10 0 0 0 10 10"></path><path d="M70 101h20"></path><g><path d="M90 101h0"></path><path d="M587.5 101h0"></path><path d="M90 101h20"></path><g><path d="M110 101h0"></path><g><path d="M110 101h0"></path><path d="M547.5 101h20"></path><g class="terminal "><path d="M110 101h0"></path><path d="M155.5 101h0"></path><rect x="110" y="90" width="45.5" height="22"></rect><text x="132.75" y="105">NEW</text></g><path d="M155.5 101h10"></path><path d="M165.5 101h10"></path><g class="terminal "><path d="M175.5 101h0"></path><path d="M255 101h0"></path><rect x="175.5" y="90" width="79.5" height="22"></rect><text x="215.25" y="105">REQUEST</text></g><path d="M255 101h10"></path><path d="M265 101h10"></path><g class="terminal "><path d="M275 101h0"></path><path d="M329 101h0"></path><rect x="275" y="90" width="54" height="22"></rect><text x="302" y="105">PATH</text></g><path d="M329 101h10"></path><path d="M339 101h10"></path><g class="non-terminal "><path d="M349 101h0"></path><path d="M547.5 101h0"></path><rect x="349" y="90" width="198.5" height="22" rx="10" ry="10"></rect><text x="448.25" y="105">newServiceRequestPath</text></g></g><path d="M567.5 101h0"></path></g><path d="M567.5 101h20"></path></g><path d="M587.5 101h20"></path></g></g><path d="M627.5 101a10 10 0 0 1 10 10v7a10 10 0 0 1 -10 10h-557.5a10 10 0 0 0 -10 10v23a10 10 0 0 0 10 10"></path><g><path d="M70 171h0"></path><path d="M283 171h344.5"></path><g><path d="M70 171h0"></path><path d="M283 171h0"></path><path d="M70 171a10 10 0 0 0 10 -10v-7a10 10 0 0 1 10 -10"></path><g><path d="M90 144h173"></path></g><path d="M263 144a10 10 0 0 1 10 10v7a10 10 0 0 0 10 10"></path><path d="M70 171h20"></path><g class="non-terminal "><path d="M90 171h0"></path><path d="M263 171h0"></path><rect x="90" y="160" width="173" height="22" rx="10" ry="10"></rect><text x="176.5" y="175">restServiceOptions</text></g><path d="M263 171h20"></path></g></g><path d="M627.5 171h10"></path><path d="M637.5 171h0"></path></g><path d="M637.5 171h20"></path></g><path d="M 657.5 171 h 20 m 0 -10 v 20"></path></g><defs><style type="text/css"><![CDATA[
svg.railroad-diagram path { stroke-width: 2; stroke: darkgray; fill: rgba(0, 0, 0, 0); }svg.railroad-diagram text { font: bold 12px Hack, "Source Code Pro", monospace; text-anchor: middle; fill: #404040; }svg.railroad-diagram text.comment { font: italic 10px Hack, "Source Code Pro", monospace; fill: #404040; }svg.railroad-diagram g.terminal rect { stroke-width: 2; stroke: #404040; fill: rgba(200, 200, 200, 0.8); }svg.railroad-diagram g.non-terminal rect { stroke-width: 2; stroke: #404040; fill: rgba(255, 255, 255, 1); }svg.railroad-diagram text.diagram-text { font-size: 12px Hack, "Source Code Pro", monospace; fill: red; }svg.railroad-diagram path.diagram-text { stroke-width: 1; stroke: red; fill: red; cursor: help; }
 ]]>
</style></defs></svg>