<?xml version="1.0" encoding="UTF-8" standalone="no"?>
<!DOCTYPE svg PUBLIC "-//W3C//DTD SVG 1.1//EN" "http://www.w3.org/Graphics/SVG/1.1/DTD/svg11.dtd">
<svg class="railroad-diagram" width="968" height="303" viewBox="0 0 968 303" id="alterRestSchemaStatement" xmlns="http://www.w3.org/2000/svg" xmlns:xlink="http://www.w3.org/1999/xlink"><g transform="translate(.5 .5)"><g><path d="M20 37v20m0 -10h20"></path></g><g><path d="M40 47h0"></path><path d="M928 273h0"></path><path d="M40 47h20"></path><g><path d="M60 47h0"></path><path d="M60 47h10"></path><g><path d="M70 47h0"></path><path d="M512 47h386"></path><g class="terminal "><path d="M70 47h0"></path><path d="M132.5 47h0"></path><rect x="70" y="36" width="62.5" height="22"></rect><text x="101.25" y="51">ALTER</text></g><path d="M132.5 47h10"></path><path d="M142.5 47h10"></path><g class="terminal "><path d="M152.5 47h0"></path><path d="M206.5 47h0"></path><rect x="152.5" y="36" width="54" height="22"></rect><text x="179.5" y="51">REST</text></g><path d="M206.5 47h10"></path><path d="M216.5 47h10"></path><g class="terminal "><path d="M226.5 47h0"></path><path d="M297.5 47h0"></path><rect x="226.5" y="36" width="71" height="22"></rect><text x="262" y="51">SCHEMA</text></g><path d="M297.5 47h10"></path><g><path d="M307.5 47h0"></path><path d="M512 47h0"></path><path d="M307.5 47a10 10 0 0 0 10 -10v-7a10 10 0 0 1 10 -10"></path><g><path d="M327.5 20h164.5"></path></g><path d="M492 20a10 10 0 0 1 10 10v7a10 10 0 0 0 10 10"></path><path d="M307.5 47h20"></path><g class="non-terminal "><path d="M327.5 47h0"></path><path d="M492 47h0"></path><rect x="327.5" y="36" width="164.5" height="22" rx="10" ry="10"></rect><text x="409.75" y="51">schemaRequestPath</text></g><path d="M492 47h20"></path></g></g><path d="M898 47a10 10 0 0 1 10 10v7a10 10 0 0 1 -10 10h-828a10 10 0 0 0 -10 10v39a10 10 0 0 0 10 10"></path><g><path d="M70 133h0"></path><path d="M519.5 133h378.5"></path><g><path d="M70 133h0"></path><path d="M519.5 133h0"></path><path d="M70 133a10 10 0 0 0 10 -10v-23a10 10 0 0 1 10 -10"></path><g><path d="M90 90h409.5"></path></g><path d="M499.5 90a10 10 0 0 1 10 10v23a10 10 0 0 0 10 10"></path><path d="M70 133h20"></path><g><path d="M90 133h0"></path><path d="M499.5 133h0"></path><path d="M90 133h20"></path><g><path d="M110 133h0"></path><g><path d="M110 133h0"></path><path d="M459.5 133h20"></path><g class="terminal "><path d="M110 133h0"></path><path d="M147 133h0"></path><rect x="110" y="122" width="37" height="22"></rect><text x="128.5" y="137">ON</text></g><path d="M147 133h10"></path><g><path d="M157 133h0"></path><path d="M276.5 133h0"></path><path d="M157 133a10 10 0 0 0 10 -10v-7a10 10 0 0 1 10 -10"></path><g><path d="M177 106h79.5"></path></g><path d="M256.5 106a10 10 0 0 1 10 10v7a10 10 0 0 0 10 10"></path><path d="M157 133h20"></path><g class="terminal "><path d="M177 133h0"></path><path d="M256.5 133h0"></path><rect x="177" y="122" width="79.5" height="22"></rect><text x="216.75" y="137">SERVICE</text></g><path d="M256.5 133h20"></path></g><path d="M276.5 133h10"></path><g class="non-terminal "><path d="M286.5 133h0"></path><path d="M459.5 133h0"></path><rect x="286.5" y="122" width="173" height="22" rx="10" ry="10"></rect><text x="373" y="137">serviceRequestPath</text></g></g><path d="M479.5 133h0"></path></g><path d="M479.5 133h20"></path></g><path d="M499.5 133h20"></path></g></g><path d="M898 133a10 10 0 0 1 10 10v7a10 10 0 0 1 -10 10h-828a10 10 0 0 0 -10 10v23a10 10 0 0 0 10 10"></path><g><path d="M70 203h0"></path><path d="M878 203h20"></path><g><path d="M70 203h0"></path><path d="M599 203h0"></path><path d="M70 203a10 10 0 0 0 10 -10v-7a10 10 0 0 1 10 -10"></path><g><path d="M90 176h489"></path></g><path d="M579 176a10 10 0 0 1 10 10v7a10 10 0 0 0 10 10"></path><path d="M70 203h20"></path><g><path d="M90 203h0"></path><path d="M579 203h0"></path><path d="M90 203h20"></path><g><path d="M110 203h0"></path><g><path d="M110 203h0"></path><path d="M539 203h20"></path><g class="terminal "><path d="M110 203h0"></path><path d="M155.5 203h0"></path><rect x="110" y="192" width="45.5" height="22"></rect><text x="132.75" y="207">NEW</text></g><path d="M155.5 203h10"></path><path d="M165.5 203h10"></path><g class="terminal "><path d="M175.5 203h0"></path><path d="M255 203h0"></path><rect x="175.5" y="192" width="79.5" height="22"></rect><text x="215.25" y="207">REQUEST</text></g><path d="M255 203h10"></path><path d="M265 203h10"></path><g class="terminal "><path d="M275 203h0"></path><path d="M329 203h0"></path><rect x="275" y="192" width="54" height="22"></rect><text x="302" y="207">PATH</text></g><path d="M329 203h10"></path><path d="M339 203h10"></path><g class="non-terminal "><path d="M349 203h0"></path><path d="M539 203h0"></path><rect x="349" y="192" width="190" height="22" rx="10" ry="10"></rect><text x="444" y="207">newSchemaRequestPath</text></g></g><path d="M559 203h0"></path></g><path d="M559 203h20"></path></g><path d="M579 203h20"></path></g><g><path d="M599 203h0"></path><path d="M878 203h0"></path><path d="M599 203a10 10 0 0 0 10 -10v-7a10 10 0 0 1 10 -10"></path><g><path d="M619 176h239"></path></g><path d="M858 176a10 10 0 0 1 10 10v7a10 10 0 0 0 10 10"></path><path d="M599 203h20"></path><g><path d="M619 203h0"></path><path d="M858 203h0"></path><path d="M619 203h20"></path><g><path d="M639 203h0"></path><g><path d="M639 203h0"></path><path d="M818 203h20"></path><g class="terminal "><path d="M639 203h0"></path><path d="M693 203h0"></path><rect x="639" y="192" width="54" height="22"></rect><text x="666" y="207">FROM</text></g><path d="M693 203h10"></path><path d="M703 203h10"></path><g class="non-terminal "><path d="M713 203h0"></path><path d="M818 203h0"></path><rect x="713" y="192" width="105" height="22" rx="10" ry="10"></rect><text x="765.5" y="207">schemaName</text></g></g><path d="M838 203h0"></path></g><path d="M838 203h20"></path></g><path d="M858 203h20"></path></g></g><path d="M898 203a10 10 0 0 1 10 10v7a10 10 0 0 1 -10 10h-828a10 10 0 0 0 -10 10v23a10 10 0 0 0 10 10"></path><g><path d="M70 273h0"></path><path d="M274.5 273h623.5"></path><g><path d="M70 273h0"></path><path d="M274.5 273h0"></path><path d="M70 273a10 10 0 0 0 10 -10v-7a10 10 0 0 1 10 -10"></path><g><path d="M90 246h164.5"></path></g><path d="M254.5 246a10 10 0 0 1 10 10v7a10 10 0 0 0 10 10"></path><path d="M70 273h20"></path><g class="non-terminal "><path d="M90 273h0"></path><path d="M254.5 273h0"></path><rect x="90" y="262" width="164.5" height="22" rx="10" ry="10"></rect><text x="172.25" y="277">restSchemaOptions</text></g><path d="M254.5 273h20"></path></g></g><path d="M898 273h10"></path><path d="M908 273h0"></path></g><path d="M908 273h20"></path></g><path d="M 928 273 h 20 m 0 -10 v 20"></path></g><defs><style type="text/css"><![CDATA[
svg.railroad-diagram path { stroke-width: 2; stroke: darkgray; fill: rgba(0, 0, 0, 0); }svg.railroad-diagram text { font: bold 12px Hack, "Source Code Pro", monospace; text-anchor: middle; fill: #404040; }svg.railroad-diagram text.comment { font: italic 10px Hack, "Source Code Pro", monospace; fill: #404040; }svg.railroad-diagram g.terminal rect { stroke-width: 2; stroke: #404040; fill: rgba(200, 200, 200, 0.8); }svg.railroad-diagram g.non-terminal rect { stroke-width: 2; stroke: #404040; fill: rgba(255, 255, 255, 1); }svg.railroad-diagram text.diagram-text { font-size: 12px Hack, "Source Code Pro", monospace; fill: red; }svg.railroad-diagram path.diagram-text { stroke-width: 1; stroke: red; fill: red; cursor: help; }
 ]]>
</style></defs></svg>