<?xml version="1.0" encoding="UTF-8" standalone="no"?>
<!DOCTYPE svg PUBLIC "-//W3C//DTD SVG 1.1//EN" "http://www.w3.org/Graphics/SVG/1.1/DTD/svg11.dtd">
<svg class="railroad-diagram" width="650" height="78" viewBox="0 0 650 78" id="configureRestMetadataStatement" xmlns="http://www.w3.org/2000/svg" xmlns:xlink="http://www.w3.org/1999/xlink"><g transform="translate(.5 .5)"><g><path d="M20 37v20m0 -10h20"></path></g><g><path d="M40 47h0"></path><path d="M610 47h0"></path><path d="M40 47h20"></path><g><path d="M60 47h0"></path><g><path d="M60 47h10"></path><path d="M580 47h10"></path><g class="terminal "><path d="M70 47h0"></path><path d="M166.5 47h0"></path><rect x="70" y="36" width="96.5" height="22"></rect><text x="118.25" y="51">CONFIGURE</text></g><path d="M166.5 47h10"></path><path d="M176.5 47h10"></path><g class="terminal "><path d="M186.5 47h0"></path><path d="M240.5 47h0"></path><rect x="186.5" y="36" width="54" height="22"></rect><text x="213.5" y="51">REST</text></g><path d="M240.5 47h10"></path><path d="M250.5 47h10"></path><g class="terminal "><path d="M260.5 47h0"></path><path d="M348.5 47h0"></path><rect x="260.5" y="36" width="88" height="22"></rect><text x="304.5" y="51">METADATA</text></g><path d="M348.5 47h10"></path><g><path d="M358.5 47h0"></path><path d="M580 47h0"></path><path d="M358.5 47a10 10 0 0 0 10 -10v-7a10 10 0 0 1 10 -10"></path><g><path d="M378.5 20h181.5"></path></g><path d="M560 20a10 10 0 0 1 10 10v7a10 10 0 0 0 10 10"></path><path d="M358.5 47h20"></path><g class="non-terminal "><path d="M378.5 47h0"></path><path d="M560 47h0"></path><rect x="378.5" y="36" width="181.5" height="22" rx="10" ry="10"></rect><text x="469.25" y="51">restMetadataOptions</text></g><path d="M560 47h20"></path></g></g><path d="M590 47h0"></path></g><path d="M590 47h20"></path></g><path d="M 610 47 h 20 m 0 -10 v 20"></path></g><defs><style type="text/css"><![CDATA[
svg.railroad-diagram path { stroke-width: 2; stroke: darkgray; fill: rgba(0, 0, 0, 0); }svg.railroad-diagram text { font: bold 12px Hack, "Source Code Pro", monospace; text-anchor: middle; fill: #404040; }svg.railroad-diagram text.comment { font: italic 10px Hack, "Source Code Pro", monospace; fill: #404040; }svg.railroad-diagram g.terminal rect { stroke-width: 2; stroke: #404040; fill: rgba(200, 200, 200, 0.8); }svg.railroad-diagram g.non-terminal rect { stroke-width: 2; stroke: #404040; fill: rgba(255, 255, 255, 1); }svg.railroad-diagram text.diagram-text { font-size: 12px Hack, "Source Code Pro", monospace; fill: red; }svg.railroad-diagram path.diagram-text { stroke-width: 1; stroke: red; fill: red; cursor: help; }
 ]]>
</style></defs></svg>