<?xml version="1.0" encoding="UTF-8" standalone="no"?>
<!DOCTYPE svg PUBLIC "-//W3C//DTD SVG 1.1//EN" "http://www.w3.org/Graphics/SVG/1.1/DTD/svg11.dtd">
<svg class="railroad-diagram" width="847" height="233" viewBox="0 0 847 233" id="createRestSchemaStatement" xmlns="http://www.w3.org/2000/svg" xmlns:xlink="http://www.w3.org/1999/xlink"><g transform="translate(.5 .5)"><g><path d="M20 37v20m0 -10h20"></path></g><g><path d="M40 47h0"></path><path d="M807 203h0"></path><path d="M40 47h20"></path><g><path d="M60 47h0"></path><path d="M60 47h10"></path><g><path d="M70 47h0"></path><path d="M757 47h20"></path><g class="terminal "><path d="M70 47h0"></path><path d="M141 47h0"></path><rect x="70" y="36" width="71" height="22"></rect><text x="105.5" y="51">CREATE</text></g><path d="M141 47h10"></path><g><path d="M151 47h0"></path><path d="M387.5 47h0"></path><path d="M151 47a10 10 0 0 0 10 -10v-7a10 10 0 0 1 10 -10"></path><g><path d="M171 20h196.5"></path></g><path d="M367.5 20a10 10 0 0 1 10 10v7a10 10 0 0 0 10 10"></path><path d="M151 47h20"></path><g><path d="M171 47h0"></path><path d="M367.5 47h0"></path><path d="M171 47h20"></path><g><path d="M191 47h0"></path><g><path d="M191 47h0"></path><path d="M327.5 47h20"></path><g class="terminal "><path d="M191 47h0"></path><path d="M228 47h0"></path><rect x="191" y="36" width="37" height="22"></rect><text x="209.5" y="51">OR</text></g><path d="M228 47h10"></path><path d="M238 47h10"></path><g class="terminal "><path d="M248 47h0"></path><path d="M327.5 47h0"></path><rect x="248" y="36" width="79.5" height="22"></rect><text x="287.75" y="51">REPLACE</text></g></g><path d="M347.5 47h0"></path></g><path d="M347.5 47h20"></path></g><path d="M367.5 47h20"></path></g><path d="M387.5 47h10"></path><g class="terminal "><path d="M397.5 47h0"></path><path d="M451.5 47h0"></path><rect x="397.5" y="36" width="54" height="22"></rect><text x="424.5" y="51">REST</text></g><path d="M451.5 47h10"></path><path d="M461.5 47h10"></path><g class="terminal "><path d="M471.5 47h0"></path><path d="M542.5 47h0"></path><rect x="471.5" y="36" width="71" height="22"></rect><text x="507" y="51">SCHEMA</text></g><path d="M542.5 47h10"></path><g><path d="M552.5 47h0"></path><path d="M757 47h0"></path><path d="M552.5 47a10 10 0 0 0 10 -10v-7a10 10 0 0 1 10 -10"></path><g><path d="M572.5 20h164.5"></path></g><path d="M737 20a10 10 0 0 1 10 10v7a10 10 0 0 0 10 10"></path><path d="M552.5 47h20"></path><g class="non-terminal "><path d="M572.5 47h0"></path><path d="M737 47h0"></path><rect x="572.5" y="36" width="164.5" height="22" rx="10" ry="10"></rect><text x="654.75" y="51">schemaRequestPath</text></g><path d="M737 47h20"></path></g></g><path d="M777 47a10 10 0 0 1 10 10v7a10 10 0 0 1 -10 10h-707a10 10 0 0 0 -10 10v39a10 10 0 0 0 10 10"></path><g><path d="M70 133h0"></path><path d="M708.5 133h68.5"></path><g><path d="M70 133h0"></path><path d="M519.5 133h0"></path><path d="M70 133a10 10 0 0 0 10 -10v-23a10 10 0 0 1 10 -10"></path><g><path d="M90 90h409.5"></path></g><path d="M499.5 90a10 10 0 0 1 10 10v23a10 10 0 0 0 10 10"></path><path d="M70 133h20"></path><g><path d="M90 133h0"></path><path d="M499.5 133h0"></path><path d="M90 133h20"></path><g><path d="M110 133h0"></path><g><path d="M110 133h0"></path><path d="M459.5 133h20"></path><g class="terminal "><path d="M110 133h0"></path><path d="M147 133h0"></path><rect x="110" y="122" width="37" height="22"></rect><text x="128.5" y="137">ON</text></g><path d="M147 133h10"></path><g><path d="M157 133h0"></path><path d="M276.5 133h0"></path><path d="M157 133a10 10 0 0 0 10 -10v-7a10 10 0 0 1 10 -10"></path><g><path d="M177 106h79.5"></path></g><path d="M256.5 106a10 10 0 0 1 10 10v7a10 10 0 0 0 10 10"></path><path d="M157 133h20"></path><g class="terminal "><path d="M177 133h0"></path><path d="M256.5 133h0"></path><rect x="177" y="122" width="79.5" height="22"></rect><text x="216.75" y="137">SERVICE</text></g><path d="M256.5 133h20"></path></g><path d="M276.5 133h10"></path><g class="non-terminal "><path d="M286.5 133h0"></path><path d="M459.5 133h0"></path><rect x="286.5" y="122" width="173" height="22" rx="10" ry="10"></rect><text x="373" y="137">serviceRequestPath</text></g></g><path d="M479.5 133h0"></path></g><path d="M479.5 133h20"></path></g><path d="M499.5 133h20"></path></g><path d="M519.5 133h10"></path><g class="terminal "><path d="M529.5 133h0"></path><path d="M583.5 133h0"></path><rect x="529.5" y="122" width="54" height="22"></rect><text x="556.5" y="137">FROM</text></g><path d="M583.5 133h10"></path><path d="M593.5 133h10"></path><g class="non-terminal "><path d="M603.5 133h0"></path><path d="M708.5 133h0"></path><rect x="603.5" y="122" width="105" height="22" rx="10" ry="10"></rect><text x="656" y="137">schemaName</text></g></g><path d="M777 133a10 10 0 0 1 10 10v7a10 10 0 0 1 -10 10h-707a10 10 0 0 0 -10 10v23a10 10 0 0 0 10 10"></path><g><path d="M70 203h0"></path><path d="M274.5 203h502.5"></path><g><path d="M70 203h0"></path><path d="M274.5 203h0"></path><path d="M70 203a10 10 0 0 0 10 -10v-7a10 10 0 0 1 10 -10"></path><g><path d="M90 176h164.5"></path></g><path d="M254.5 176a10 10 0 0 1 10 10v7a10 10 0 0 0 10 10"></path><path d="M70 203h20"></path><g class="non-terminal "><path d="M90 203h0"></path><path d="M254.5 203h0"></path><rect x="90" y="192" width="164.5" height="22" rx="10" ry="10"></rect><text x="172.25" y="207">restSchemaOptions</text></g><path d="M254.5 203h20"></path></g></g><path d="M777 203h10"></path><path d="M787 203h0"></path></g><path d="M787 203h20"></path></g><path d="M 807 203 h 20 m 0 -10 v 20"></path></g><defs><style type="text/css"><![CDATA[
svg.railroad-diagram path { stroke-width: 2; stroke: darkgray; fill: rgba(0, 0, 0, 0); }svg.railroad-diagram text { font: bold 12px Hack, "Source Code Pro", monospace; text-anchor: middle; fill: #404040; }svg.railroad-diagram text.comment { font: italic 10px Hack, "Source Code Pro", monospace; fill: #404040; }svg.railroad-diagram g.terminal rect { stroke-width: 2; stroke: #404040; fill: rgba(200, 200, 200, 0.8); }svg.railroad-diagram g.non-terminal rect { stroke-width: 2; stroke: #404040; fill: rgba(255, 255, 255, 1); }svg.railroad-diagram text.diagram-text { font-size: 12px Hack, "Source Code Pro", monospace; fill: red; }svg.railroad-diagram path.diagram-text { stroke-width: 1; stroke: red; fill: red; cursor: help; }
 ]]>
</style></defs></svg>