<?xml version="1.0" encoding="UTF-8" standalone="no"?>
<!DOCTYPE svg PUBLIC "-//W3C//DTD SVG 1.1//EN" "http://www.w3.org/Graphics/SVG/1.1/DTD/svg11.dtd">
<svg class="railroad-diagram" width="868" height="287" viewBox="0 0 868 287" id="createRestProcedureStatement" xmlns="http://www.w3.org/2000/svg" xmlns:xlink="http://www.w3.org/1999/xlink"><g transform="translate(.5 .5)"><g><path d="M20 37v20m0 -10h20"></path></g><g><path d="M40 47h0"></path><path d="M828 257h0"></path><path d="M40 47h20"></path><g><path d="M60 47h0"></path><path d="M60 47h10"></path><g><path d="M70 47h0"></path><path d="M778 47h20"></path><g class="terminal "><path d="M70 47h0"></path><path d="M141 47h0"></path><rect x="70" y="36" width="71" height="22"></rect><text x="105.5" y="51">CREATE</text></g><path d="M141 47h10"></path><g><path d="M151 47h0"></path><path d="M387.5 47h0"></path><path d="M151 47a10 10 0 0 0 10 -10v-7a10 10 0 0 1 10 -10"></path><g><path d="M171 20h196.5"></path></g><path d="M367.5 20a10 10 0 0 1 10 10v7a10 10 0 0 0 10 10"></path><path d="M151 47h20"></path><g><path d="M171 47h0"></path><path d="M367.5 47h0"></path><path d="M171 47h20"></path><g><path d="M191 47h0"></path><g><path d="M191 47h0"></path><path d="M327.5 47h20"></path><g class="terminal "><path d="M191 47h0"></path><path d="M228 47h0"></path><rect x="191" y="36" width="37" height="22"></rect><text x="209.5" y="51">OR</text></g><path d="M228 47h10"></path><path d="M238 47h10"></path><g class="terminal "><path d="M248 47h0"></path><path d="M327.5 47h0"></path><rect x="248" y="36" width="79.5" height="22"></rect><text x="287.75" y="51">REPLACE</text></g></g><path d="M347.5 47h0"></path></g><path d="M347.5 47h20"></path></g><path d="M367.5 47h20"></path></g><path d="M387.5 47h10"></path><g class="terminal "><path d="M397.5 47h0"></path><path d="M451.5 47h0"></path><rect x="397.5" y="36" width="54" height="22"></rect><text x="424.5" y="51">REST</text></g><path d="M451.5 47h10"></path><path d="M461.5 47h10"></path><g class="terminal "><path d="M471.5 47h0"></path><path d="M568 47h0"></path><rect x="471.5" y="36" width="96.5" height="22"></rect><text x="519.75" y="51">PROCEDURE</text></g><path d="M568 47h10"></path><path d="M578 47h10"></path><g class="non-terminal "><path d="M588 47h0"></path><path d="M778 47h0"></path><rect x="588" y="36" width="190" height="22" rx="10" ry="10"></rect><text x="683" y="51">procedureRequestPath</text></g></g><path d="M798 47a10 10 0 0 1 10 10v7a10 10 0 0 1 -10 10h-728a10 10 0 0 0 -10 10v23a10 10 0 0 0 10 10"></path><g><path d="M70 117h0"></path><path d="M691 117h107"></path><g><path d="M70 117h0"></path><path d="M425.5 117h0"></path><path d="M70 117a10 10 0 0 0 10 -10v-7a10 10 0 0 1 10 -10"></path><g><path d="M90 90h315.5"></path></g><path d="M405.5 90a10 10 0 0 1 10 10v7a10 10 0 0 0 10 10"></path><path d="M70 117h20"></path><g><path d="M90 117h0"></path><path d="M405.5 117h0"></path><path d="M90 117h20"></path><g><path d="M110 117h0"></path><g><path d="M110 117h0"></path><path d="M365.5 117h20"></path><g class="terminal "><path d="M110 117h0"></path><path d="M147 117h0"></path><rect x="110" y="106" width="37" height="22"></rect><text x="128.5" y="121">ON</text></g><path d="M147 117h10"></path><path d="M157 117h10"></path><g class="non-terminal "><path d="M167 117h0"></path><path d="M365.5 117h0"></path><rect x="167" y="106" width="198.5" height="22" rx="10" ry="10"></rect><text x="266.25" y="121">serviceSchemaSelector</text></g></g><path d="M385.5 117h0"></path></g><path d="M385.5 117h20"></path></g><path d="M405.5 117h20"></path></g><path d="M425.5 117h10"></path><g class="terminal "><path d="M435.5 117h0"></path><path d="M489.5 117h0"></path><rect x="435.5" y="106" width="54" height="22"></rect><text x="462.5" y="121">FROM</text></g><path d="M489.5 117h10"></path><path d="M499.5 117h10"></path><g class="non-terminal "><path d="M509.5 117h0"></path><path d="M691 117h0"></path><rect x="509.5" y="106" width="181.5" height="22" rx="10" ry="10"></rect><text x="600.25" y="121">qualifiedIdentifier</text></g></g><path d="M798 117a10 10 0 0 1 10 10v7a10 10 0 0 1 -10 10h-728a10 10 0 0 0 -10 10v23a10 10 0 0 0 10 10"></path><g><path d="M70 187h0"></path><path d="M605.5 187h192.5"></path><g><path d="M70 187h0"></path><path d="M274.5 187h0"></path><path d="M70 187a10 10 0 0 0 10 -10v-7a10 10 0 0 1 10 -10"></path><g><path d="M90 160h164.5"></path></g><path d="M254.5 160a10 10 0 0 1 10 10v7a10 10 0 0 0 10 10"></path><path d="M70 187h20"></path><g class="non-terminal "><path d="M90 187h0"></path><path d="M254.5 187h0"></path><rect x="90" y="176" width="164.5" height="22" rx="10" ry="10"></rect><text x="172.25" y="191">restObjectOptions</text></g><path d="M254.5 187h20"></path></g><path d="M274.5 187h10"></path><g class="terminal "><path d="M284.5 187h0"></path><path d="M321.5 187h0"></path><rect x="284.5" y="176" width="37" height="22"></rect><text x="303" y="191">AS</text></g><path d="M321.5 187h10"></path><path d="M331.5 187h10"></path><g class="non-terminal "><path d="M341.5 187h0"></path><path d="M480.5 187h0"></path><rect x="341.5" y="176" width="139" height="22" rx="10" ry="10"></rect><text x="411" y="191">restObjectName</text></g><path d="M480.5 187h10"></path><path d="M490.5 187h10"></path><g class="terminal "><path d="M500.5 187h0"></path><path d="M605.5 187h0"></path><rect x="500.5" y="176" width="105" height="22"></rect><text x="553" y="191">PARAMETERS</text></g></g><path d="M798 187a10 10 0 0 1 10 10v7a10 10 0 0 1 -10 10h-728a10 10 0 0 0 -10 10v23a10 10 0 0 0 10 10"></path><g><path d="M70 257h0"></path><path d="M426.5 257h371.5"></path><g class="non-terminal "><path d="M70 257h0"></path><path d="M175 257h0"></path><rect x="70" y="246" width="105" height="22" rx="10" ry="10"></rect><text x="122.5" y="261">graphQlObj</text></g><path d="M175 257h10"></path><g><path d="M185 257h0"></path><path d="M426.5 257h0"></path><path d="M185 257a10 10 0 0 0 10 -10v-7a10 10 0 0 1 10 -10"></path><g><path d="M205 230h201.5"></path></g><path d="M406.5 230a10 10 0 0 1 10 10v7a10 10 0 0 0 10 10"></path><path d="M185 257h20"></path><g><path d="M205 257h0"></path><path d="M406.5 257h0"></path><path d="M205 257h10"></path><g class="non-terminal "><path d="M215 257h0"></path><path d="M396.5 257h0"></path><rect x="215" y="246" width="181.5" height="22" rx="10" ry="10"></rect><text x="305.75" y="261">restProcedureResult</text></g><path d="M396.5 257h10"></path><path d="M215 257a10 10 0 0 0 -10 10v7a10 10 0 0 0 10 10"></path><g><path d="M215 284h181.5"></path></g><path d="M396.5 284a10 10 0 0 0 10 -10v-7a10 10 0 0 0 -10 -10"></path></g><path d="M406.5 257h20"></path></g></g><path d="M798 257h10"></path><path d="M808 257h0"></path></g><path d="M808 257h20"></path></g><path d="M 828 257 h 20 m 0 -10 v 20"></path></g><defs><style type="text/css"><![CDATA[
svg.railroad-diagram path { stroke-width: 2; stroke: darkgray; fill: rgba(0, 0, 0, 0); }svg.railroad-diagram text { font: bold 12px Hack, "Source Code Pro", monospace; text-anchor: middle; fill: #404040; }svg.railroad-diagram text.comment { font: italic 10px Hack, "Source Code Pro", monospace; fill: #404040; }svg.railroad-diagram g.terminal rect { stroke-width: 2; stroke: #404040; fill: rgba(200, 200, 200, 0.8); }svg.railroad-diagram g.non-terminal rect { stroke-width: 2; stroke: #404040; fill: rgba(255, 255, 255, 1); }svg.railroad-diagram text.diagram-text { font-size: 12px Hack, "Source Code Pro", monospace; fill: red; }svg.railroad-diagram path.diagram-text { stroke-width: 1; stroke: red; fill: red; cursor: help; }
 ]]>
</style></defs></svg>