<?xml version="1.0" encoding="UTF-8" standalone="no"?>
<!DOCTYPE svg PUBLIC "-//W3C//DTD SVG 1.1//EN" "http://www.w3.org/Graphics/SVG/1.1/DTD/svg11.dtd">
<svg class="railroad-diagram" width="686" height="185" viewBox="0 0 686 185" id="dropRestAuthAppStatement" xmlns="http://www.w3.org/2000/svg" xmlns:xlink="http://www.w3.org/1999/xlink"><g transform="translate(.5 .5)"><g><path d="M20 21v20m0 -10h20"></path></g><g><path d="M40 31h0"></path><path d="M646 155h0"></path><path d="M40 31h20"></path><g><path d="M60 31h0"></path><path d="M60 31h10"></path><g><path d="M70 31h0"></path><path d="M596 31h20"></path><g class="terminal "><path d="M70 31h0"></path><path d="M124 31h0"></path><rect x="70" y="20" width="54" height="22"></rect><text x="97" y="35">DROP</text></g><path d="M124 31h10"></path><path d="M134 31h10"></path><g class="terminal "><path d="M144 31h0"></path><path d="M198 31h0"></path><rect x="144" y="20" width="54" height="22"></rect><text x="171" y="35">REST</text></g><path d="M198 31h10"></path><g><path d="M208 31h0"></path><path d="M407 31h0"></path><path d="M208 31h20"></path><g><path d="M228 31h0"></path><g><path d="M228 31h0"></path><path d="M282 31h20"></path><g class="terminal "><path d="M228 31h0"></path><path d="M282 31h0"></path><rect x="228" y="20" width="54" height="22"></rect><text x="255" y="35">AUTH</text></g></g><path d="M302 31h85"></path></g><path d="M387 31h20"></path><path d="M208 31a10 10 0 0 1 10 10v18a10 10 0 0 0 10 10"></path><g><path d="M228 69h0"></path><g><path d="M228 69h0"></path><path d="M367 69h20"></path><g class="terminal "><path d="M228 69h0"></path><path d="M367 69h0"></path><rect x="228" y="58" width="139" height="22"></rect><text x="297.5" y="73">AUTHENTICATION</text></g></g><path d="M387 69h0"></path></g><path d="M387 69a10 10 0 0 0 10 -10v-18a10 10 0 0 1 10 -10"></path></g><path d="M407 31h10"></path><g class="terminal "><path d="M417 31h0"></path><path d="M462.5 31h0"></path><rect x="417" y="20" width="45.5" height="22"></rect><text x="439.75" y="35">APP</text></g><path d="M462.5 31h10"></path><path d="M472.5 31h10"></path><g class="non-terminal "><path d="M482.5 31h0"></path><path d="M596 31h0"></path><rect x="482.5" y="20" width="113.5" height="22" rx="10" ry="10"></rect><text x="539.25" y="35">authAppName</text></g></g><path d="M616 31a10 10 0 0 1 10 10v45a10 10 0 0 1 -10 10h-546a10 10 0 0 0 -10 10v39a10 10 0 0 0 10 10"></path><g><path d="M70 155h0"></path><path d="M536.5 155h79.5"></path><g><path d="M70 155h0"></path><path d="M536.5 155h0"></path><path d="M70 155a10 10 0 0 0 10 -10v-23a10 10 0 0 1 10 -10"></path><g><path d="M90 112h426.5"></path></g><path d="M516.5 112a10 10 0 0 1 10 10v23a10 10 0 0 0 10 10"></path><path d="M70 155h20"></path><g><path d="M90 155h0"></path><path d="M516.5 155h0"></path><path d="M90 155h20"></path><g><path d="M110 155h0"></path><g><path d="M110 155h0"></path><path d="M476.5 155h20"></path><g class="terminal "><path d="M110 155h0"></path><path d="M164 155h0"></path><rect x="110" y="144" width="54" height="22"></rect><text x="137" y="159">FROM</text></g><path d="M164 155h10"></path><g><path d="M174 155h0"></path><path d="M293.5 155h0"></path><path d="M174 155a10 10 0 0 0 10 -10v-7a10 10 0 0 1 10 -10"></path><g><path d="M194 128h79.5"></path></g><path d="M273.5 128a10 10 0 0 1 10 10v7a10 10 0 0 0 10 10"></path><path d="M174 155h20"></path><g class="terminal "><path d="M194 155h0"></path><path d="M273.5 155h0"></path><rect x="194" y="144" width="79.5" height="22"></rect><text x="233.75" y="159">SERVICE</text></g><path d="M273.5 155h20"></path></g><path d="M293.5 155h10"></path><g class="non-terminal "><path d="M303.5 155h0"></path><path d="M476.5 155h0"></path><rect x="303.5" y="144" width="173" height="22" rx="10" ry="10"></rect><text x="390" y="159">serviceRequestPath</text></g></g><path d="M496.5 155h0"></path></g><path d="M496.5 155h20"></path></g><path d="M516.5 155h20"></path></g></g><path d="M616 155h10"></path><path d="M626 155h0"></path></g><path d="M626 155h20"></path></g><path d="M 646 155 h 20 m 0 -10 v 20"></path></g><defs><style type="text/css"><![CDATA[
svg.railroad-diagram path { stroke-width: 2; stroke: darkgray; fill: rgba(0, 0, 0, 0); }svg.railroad-diagram text { font: bold 12px Hack, "Source Code Pro", monospace; text-anchor: middle; fill: #404040; }svg.railroad-diagram text.comment { font: italic 10px Hack, "Source Code Pro", monospace; fill: #404040; }svg.railroad-diagram g.terminal rect { stroke-width: 2; stroke: #404040; fill: rgba(200, 200, 200, 0.8); }svg.railroad-diagram g.non-terminal rect { stroke-width: 2; stroke: #404040; fill: rgba(255, 255, 255, 1); }svg.railroad-diagram text.diagram-text { font-size: 12px Hack, "Source Code Pro", monospace; fill: red; }svg.railroad-diagram path.diagram-text { stroke-width: 1; stroke: red; fill: red; cursor: help; }
 ]]>
</style></defs></svg>