<?xml version="1.0" encoding="UTF-8" standalone="no"?>
<!DOCTYPE svg PUBLIC "-//W3C//DTD SVG 1.1//EN" "http://www.w3.org/Graphics/SVG/1.1/DTD/svg11.dtd">
<svg class="railroad-diagram" width="535" height="62" viewBox="0 0 535 62" id="itemsPerPage" xmlns="http://www.w3.org/2000/svg" xmlns:xlink="http://www.w3.org/1999/xlink"><g transform="translate(.5 .5)"><g><path d="M20 21v20m0 -10h20"></path></g><g><path d="M40 31h0"></path><path d="M495 31h0"></path><path d="M40 31h20"></path><g><path d="M60 31h0"></path><g><path d="M60 31h10"></path><path d="M465 31h10"></path><g class="terminal "><path d="M70 31h0"></path><path d="M132.5 31h0"></path><rect x="70" y="20" width="62.5" height="22"></rect><text x="101.25" y="35">ITEMS</text></g><path d="M132.5 31h10"></path><path d="M142.5 31h10"></path><g class="terminal "><path d="M152.5 31h0"></path><path d="M198 31h0"></path><rect x="152.5" y="20" width="45.5" height="22"></rect><text x="175.25" y="35">PER</text></g><path d="M198 31h10"></path><path d="M208 31h10"></path><g class="terminal "><path d="M218 31h0"></path><path d="M272 31h0"></path><rect x="218" y="20" width="54" height="22"></rect><text x="245" y="35">PAGE</text></g><path d="M272 31h10"></path><path d="M282 31h10"></path><g class="non-terminal "><path d="M292 31h0"></path><path d="M465 31h0"></path><rect x="292" y="20" width="173" height="22" rx="10" ry="10"></rect><text x="378.5" y="35">itemsPerPageNumber</text></g></g><path d="M475 31h0"></path></g><path d="M475 31h20"></path></g><path d="M 495 31 h 20 m 0 -10 v 20"></path></g><defs><style type="text/css"><![CDATA[
svg.railroad-diagram path { stroke-width: 2; stroke: darkgray; fill: rgba(0, 0, 0, 0); }svg.railroad-diagram text { font: bold 12px Hack, "Source Code Pro", monospace; text-anchor: middle; fill: #404040; }svg.railroad-diagram text.comment { font: italic 10px Hack, "Source Code Pro", monospace; fill: #404040; }svg.railroad-diagram g.terminal rect { stroke-width: 2; stroke: #404040; fill: rgba(200, 200, 200, 0.8); }svg.railroad-diagram g.non-terminal rect { stroke-width: 2; stroke: #404040; fill: rgba(255, 255, 255, 1); }svg.railroad-diagram text.diagram-text { font-size: 12px Hack, "Source Code Pro", monospace; fill: red; }svg.railroad-diagram path.diagram-text { stroke-width: 1; stroke: red; fill: red; cursor: help; }
 ]]>
</style></defs></svg>