<?xml version="1.0" encoding="UTF-8" standalone="no"?>
<!DOCTYPE svg PUBLIC "-//W3C//DTD SVG 1.1//EN" "http://www.w3.org/Graphics/SVG/1.1/DTD/svg11.dtd">
<svg class="railroad-diagram" width="901" height="110" viewBox="0 0 901 110" id="jsonArr" xmlns="http://www.w3.org/2000/svg" xmlns:xlink="http://www.w3.org/1999/xlink"><g transform="translate(.5 .5)"><g><path d="M20 53v20m0 -10h20"></path></g><g><path d="M40 63h0"></path><path d="M861 63h0"></path><path d="M40 63h20"></path><g><path d="M60 63h0"></path><g><path d="M60 63h10"></path><path d="M831 63h10"></path><g class="terminal "><path d="M70 63h0"></path><path d="M183.5 63h0"></path><rect x="70" y="52" width="113.5" height="22"></rect><text x="126.75" y="67">OPEN_SQUARE</text></g><path d="M183.5 63h10"></path><g><path d="M193.5 63h0"></path><path d="M699 63h0"></path><path d="M193.5 63a10 10 0 0 0 10 -10v-23a10 10 0 0 1 10 -10"></path><g><path d="M213.5 20h465.5"></path></g><path d="M679 20a10 10 0 0 1 10 10v23a10 10 0 0 0 10 10"></path><path d="M193.5 63h20"></path><g><path d="M213.5 63h0"></path><path d="M679 63h0"></path><path d="M213.5 63h20"></path><g><path d="M233.5 63h0"></path><g><path d="M233.5 63h10"></path><path d="M649 63h10"></path><g class="non-terminal "><path d="M243.5 63h0"></path><path d="M340 63h0"></path><rect x="243.5" y="52" width="96.5" height="22" rx="10" ry="10"></rect><text x="291.75" y="67">jsonValue</text></g><path d="M340 63h10"></path><g><path d="M350 63h0"></path><path d="M649 63h0"></path><path d="M350 63a10 10 0 0 0 10 -10v-7a10 10 0 0 1 10 -10"></path><g><path d="M370 36h259"></path></g><path d="M629 36a10 10 0 0 1 10 10v7a10 10 0 0 0 10 10"></path><path d="M350 63h20"></path><g><path d="M370 63h0"></path><path d="M629 63h0"></path><path d="M370 63h10"></path><g><path d="M380 63h0"></path><path d="M619 63h0"></path><path d="M380 63h20"></path><g><path d="M400 63h0"></path><g><path d="M400 63h10"></path><path d="M589 63h10"></path><g class="terminal "><path d="M410 63h0"></path><path d="M472.5 63h0"></path><rect x="410" y="52" width="62.5" height="22"></rect><text x="441.25" y="67">COMMA</text></g><path d="M472.5 63h10"></path><path d="M482.5 63h10"></path><g class="non-terminal "><path d="M492.5 63h0"></path><path d="M589 63h0"></path><rect x="492.5" y="52" width="96.5" height="22" rx="10" ry="10"></rect><text x="540.75" y="67">jsonValue</text></g></g><path d="M599 63h0"></path></g><path d="M599 63h20"></path></g><path d="M619 63h10"></path><path d="M380 63a10 10 0 0 0 -10 10v7a10 10 0 0 0 10 10"></path><g><path d="M380 90h239"></path></g><path d="M619 90a10 10 0 0 0 10 -10v-7a10 10 0 0 0 -10 -10"></path></g><path d="M629 63h20"></path></g></g><path d="M659 63h0"></path></g><path d="M659 63h20"></path></g><path d="M679 63h20"></path></g><path d="M699 63h10"></path><g class="terminal "><path d="M709 63h0"></path><path d="M831 63h0"></path><rect x="709" y="52" width="122" height="22"></rect><text x="770" y="67">CLOSE_SQUARE</text></g></g><path d="M841 63h0"></path></g><path d="M841 63h20"></path></g><path d="M 861 63 h 20 m 0 -10 v 20"></path></g><defs><style type="text/css"><![CDATA[
svg.railroad-diagram path { stroke-width: 2; stroke: darkgray; fill: rgba(0, 0, 0, 0); }svg.railroad-diagram text { font: bold 12px Hack, "Source Code Pro", monospace; text-anchor: middle; fill: #404040; }svg.railroad-diagram text.comment { font: italic 10px Hack, "Source Code Pro", monospace; fill: #404040; }svg.railroad-diagram g.terminal rect { stroke-width: 2; stroke: #404040; fill: rgba(200, 200, 200, 0.8); }svg.railroad-diagram g.non-terminal rect { stroke-width: 2; stroke: #404040; fill: rgba(255, 255, 255, 1); }svg.railroad-diagram text.diagram-text { font-size: 12px Hack, "Source Code Pro", monospace; fill: red; }svg.railroad-diagram path.diagram-text { stroke-width: 1; stroke: red; fill: red; cursor: help; }
 ]]>
</style></defs></svg>