<?xml version="1.0" encoding="UTF-8" standalone="no"?>
<!DOCTYPE svg PUBLIC "-//W3C//DTD SVG 1.1//EN" "http://www.w3.org/Graphics/SVG/1.1/DTD/svg11.dtd">
<svg width="100%" height="100%" viewBox="0 0 2800 1600" version="1.1" xmlns="http://www.w3.org/2000/svg" xmlns:xlink="http://www.w3.org/1999/xlink" xml:space="preserve" xmlns:serif="http://www.serif.com/" style="fill-rule:evenodd;clip-rule:evenodd;stroke-linejoin:round;stroke-miterlimit:15;">
    <g id="Background" transform="matrix(1.75,0,0,2,0,0)">
        <path d="M1600,32C1600,14.339 1583.61,0 1563.43,0L36.571,0C16.387,0 0,14.339 0,32L0,768C0,785.661 16.387,800 36.571,800L1563.43,800C1583.61,800 1600,785.661 1600,768L1600,32Z" style="fill:rgb(13,65,91);"/>
    </g>
    <g id="App" transform="matrix(1,0,0,1,-2648.81,-607.161)">
        <g transform="matrix(1.08759,0,0,1.08759,-264.483,-109.087)">
            <g transform="matrix(-1.70683,0,0,1.99143,5806.32,115.12)">
                <rect x="1510.81" y="527.459" width="195.482" height="138.513" style="fill:none;stroke:white;stroke-width:8.26px;"/>
            </g>
            <g transform="matrix(1.15318e-16,0.741573,-1.8809,4.53506e-17,4444.27,-251.691)">
                <path d="M1949.72,646.839L1949.72,824.23" style="fill:none;stroke:white;stroke-width:10.72px;stroke-linejoin:miter;"/>
            </g>
            <g transform="matrix(3.10462e-17,0.741573,-0.506379,4.53506e-17,3555.18,-132.691)">
                <path d="M1949.72,646.839L1949.72,824.23" style="fill:none;stroke:white;stroke-width:24.13px;stroke-linejoin:miter;"/>
            </g>
            <g transform="matrix(1.4742e-17,0.741573,-0.24045,4.53506e-17,3115.17,-183.861)">
                <path d="M1949.72,646.839L1949.72,824.23" style="fill:none;stroke:white;stroke-width:27.8px;stroke-linejoin:miter;"/>
            </g>
            <g transform="matrix(1.4742e-17,0.741573,-0.24045,4.53506e-17,3115.17,-123.861)">
                <path d="M1949.72,646.839L1949.72,824.23" style="fill:none;stroke:white;stroke-width:27.8px;stroke-linejoin:miter;"/>
            </g>
            <g transform="matrix(1.1977e-17,0.741573,-0.195352,4.53506e-17,3077.99,-93.8612)">
                <path d="M1949.72,646.839L1949.72,824.23" style="fill:none;stroke:white;stroke-width:28.26px;stroke-linejoin:miter;"/>
            </g>
            <g transform="matrix(9.55769e-18,0.741573,-0.155891,4.53506e-17,3045.47,-153.861)">
                <path d="M1949.72,646.839L1949.72,824.23" style="fill:none;stroke:white;stroke-width:28.6px;stroke-linejoin:miter;"/>
            </g>
            <g transform="matrix(0.741573,3.58506e-17,3.58051e-17,0.155891,1667.95,1097.34)">
                <path d="M1949.72,646.839L1949.72,824.23" style="fill:none;stroke:white;stroke-width:28.6px;stroke-linejoin:miter;"/>
            </g>
            <g transform="matrix(0.741573,3.58506e-17,3.58051e-17,0.155891,1727.95,1097.34)">
                <path d="M1949.72,646.839L1949.72,824.23" style="fill:none;stroke:white;stroke-width:28.6px;stroke-linejoin:miter;"/>
            </g>
            <rect x="3017" y="1262" width="88" height="56" style="fill:none;stroke:white;stroke-width:15.26px;stroke-linecap:round;stroke-linejoin:miter;stroke-miterlimit:1.5;"/>
            <g transform="matrix(1,0,0,1,0,90)">
                <rect x="3017" y="1262" width="88" height="56" style="fill:none;stroke:white;stroke-width:15.26px;stroke-linecap:round;stroke-linejoin:miter;stroke-miterlimit:1.5;"/>
            </g>
            <g transform="matrix(1.4742e-17,0.741573,-0.24045,4.53506e-17,3359.58,-99.8612)">
                <path d="M1949.72,646.839L1949.72,824.23" style="fill:none;stroke:white;stroke-width:27.8px;stroke-linejoin:miter;"/>
            </g>
            <g transform="matrix(1.4742e-17,0.741573,-0.24045,4.53506e-17,3359.58,-39.8612)">
                <path d="M1949.72,646.839L1949.72,824.23" style="fill:none;stroke:white;stroke-width:27.8px;stroke-linejoin:miter;"/>
            </g>
            <g transform="matrix(9.55769e-18,0.741573,-0.155891,4.53506e-17,3289.88,-69.8612)">
                <path d="M1949.72,646.839L1949.72,824.23" style="fill:none;stroke:white;stroke-width:28.6px;stroke-linejoin:miter;"/>
            </g>
            <g transform="matrix(1.15318e-16,0.741573,-1.8809,4.53506e-17,4444.27,-218.691)">
                <path d="M1949.72,646.839L1949.72,824.23" style="fill:none;stroke:white;stroke-width:10.72px;stroke-linejoin:miter;"/>
            </g>
            <g transform="matrix(-0.741573,-1.34207e-17,3.00165e-16,-1.20742,4429.67,2222.36)">
                <path d="M1949.72,646.839L1949.72,824.23" style="fill:none;stroke:white;stroke-width:15.29px;stroke-linejoin:miter;"/>
            </g>
            <g transform="matrix(-0.741573,-1.34207e-17,3.00165e-16,-1.20742,4583.67,2222.36)">
                <path d="M1949.72,646.839L1949.72,824.23" style="fill:none;stroke:white;stroke-width:15.29px;stroke-linejoin:miter;"/>
            </g>
        </g>
        <g transform="matrix(1,0,0,1,2729.81,1007.07)">
            <path d="M314.898,538.658L306.514,538.658C305.575,538.658 304.802,538.439 304.194,538.002C303.586,537.564 303.164,537.004 302.93,536.322L300.178,528.194L282.45,528.194L279.698,536.322C279.484,536.919 279.068,537.458 278.45,537.938C277.831,538.418 277.074,538.658 276.178,538.658L267.73,538.658L285.778,492.034L296.85,492.034L314.898,538.658ZM284.946,520.834L297.682,520.834L293.394,508.066C293.116,507.255 292.791,506.3 292.418,505.202C292.044,504.103 291.676,502.914 291.314,501.634C290.972,502.935 290.62,504.14 290.258,505.25C289.895,506.359 289.554,507.319 289.234,508.13L284.946,520.834Z" style="fill:rgb(171,222,241);fill-rule:nonzero;"/>
            <path d="M329.49,523.074L329.49,538.658L318.674,538.658L318.674,492.034L335.122,492.034C338.407,492.034 341.228,492.423 343.586,493.202C345.943,493.98 347.884,495.052 349.41,496.418C350.935,497.783 352.06,499.394 352.786,501.25C353.511,503.106 353.874,505.111 353.874,507.266C353.874,509.591 353.5,511.724 352.754,513.666C352.007,515.607 350.866,517.271 349.33,518.658C347.794,520.044 345.847,521.127 343.49,521.906C341.132,522.684 338.343,523.074 335.122,523.074L329.49,523.074ZM329.49,514.914L335.122,514.914C337.938,514.914 339.964,514.242 341.202,512.898C342.439,511.554 343.058,509.676 343.058,507.266C343.058,506.199 342.898,505.228 342.578,504.354C342.258,503.479 341.772,502.727 341.122,502.098C340.471,501.468 339.65,500.983 338.658,500.642C337.666,500.3 336.487,500.13 335.122,500.13L329.49,500.13L329.49,514.914Z" style="fill:rgb(171,222,241);fill-rule:nonzero;"/>
            <path d="M370.322,523.074L370.322,538.658L359.506,538.658L359.506,492.034L375.954,492.034C379.239,492.034 382.06,492.423 384.418,493.202C386.775,493.98 388.716,495.052 390.242,496.418C391.767,497.783 392.892,499.394 393.618,501.25C394.343,503.106 394.706,505.111 394.706,507.266C394.706,509.591 394.332,511.724 393.586,513.666C392.839,515.607 391.698,517.271 390.162,518.658C388.626,520.044 386.679,521.127 384.322,521.906C381.964,522.684 379.175,523.074 375.954,523.074L370.322,523.074ZM370.322,514.914L375.954,514.914C378.77,514.914 380.796,514.242 382.034,512.898C383.271,511.554 383.89,509.676 383.89,507.266C383.89,506.199 383.73,505.228 383.41,504.354C383.09,503.479 382.604,502.727 381.954,502.098C381.303,501.468 380.482,500.983 379.49,500.642C378.498,500.3 377.319,500.13 375.954,500.13L370.322,500.13L370.322,514.914Z" style="fill:rgb(171,222,241);fill-rule:nonzero;"/>
        </g>
    </g>
    <g id="PUT-JSON" serif:id="PUT JSON" transform="matrix(1,0,0,1,-468.802,415.757)">
        <g id="JSON" transform="matrix(1,0,0,1,-30,0)">
            <g transform="matrix(-1.09807,0,0,2.17191,3635.67,-473.837)">
                <rect x="1510.81" y="527.459" width="195.482" height="138.513" style="fill:none;stroke:white;stroke-width:9.68px;"/>
            </g>
            <g transform="matrix(1,0,0,1,293.853,208.051)">
                <text x="1533.51px" y="602.707px" style="font-family:'Lato-Black', 'Lato', sans-serif;font-weight:900;font-size:62.5px;fill:white;">{...</text>
                <text x="1557.64px" y="665.207px" style="font-family:'Lato-Black', 'Lato', sans-serif;font-weight:900;font-size:62.5px;fill:white;">{...}</text>
                <g transform="matrix(62.5,0,0,62.5,1552.26,727.707)">
                </g>
                <text x="1533.51px" y="727.707px" style="font-family:'Lato-Black', 'Lato', sans-serif;font-weight:900;font-size:62.5px;fill:white;">}</text>
            </g>
            <g transform="matrix(1,0,0,1,1103.5,650.243)">
                <path d="M708.053,72.707C708.053,75.249 707.735,77.561 707.1,79.644C706.464,81.728 705.506,83.514 704.225,85.004C702.943,86.493 701.334,87.65 699.396,88.472C697.459,89.295 695.178,89.707 692.553,89.707C691.365,89.707 690.193,89.644 689.037,89.519C687.881,89.394 686.678,89.186 685.428,88.894L685.99,82.738C686.032,82.196 686.245,81.759 686.631,81.426C687.016,81.092 687.553,80.926 688.24,80.926C688.594,80.926 689.032,80.983 689.553,81.097C690.073,81.212 690.698,81.269 691.428,81.269C692.448,81.269 693.339,81.129 694.1,80.847C694.86,80.566 695.49,80.097 695.99,79.441C696.49,78.785 696.865,77.926 697.115,76.863C697.365,75.801 697.49,74.488 697.49,72.926L697.49,43.676L708.053,43.676L708.053,72.707Z" style="fill:white;fill-rule:nonzero;"/>
                <path d="M740.928,52.926C740.615,53.426 740.287,53.801 739.943,54.051C739.6,54.301 739.157,54.426 738.615,54.426C738.136,54.426 737.62,54.275 737.068,53.972C736.516,53.67 735.891,53.332 735.193,52.957C734.495,52.582 733.698,52.243 732.803,51.941C731.907,51.639 730.886,51.488 729.74,51.488C727.761,51.488 726.287,51.91 725.318,52.754C724.35,53.597 723.865,54.738 723.865,56.176C723.865,57.092 724.157,57.853 724.74,58.457C725.323,59.061 726.089,59.582 727.037,60.019C727.985,60.457 729.068,60.858 730.287,61.222C731.506,61.587 732.751,61.993 734.021,62.441C735.292,62.889 736.537,63.415 737.756,64.019C738.975,64.624 740.058,65.394 741.006,66.332C741.954,67.269 742.719,68.41 743.303,69.754C743.886,71.097 744.178,72.717 744.178,74.613C744.178,76.717 743.813,78.686 743.084,80.519C742.355,82.353 741.297,83.952 739.912,85.316C738.527,86.681 736.818,87.754 734.787,88.535C732.756,89.316 730.448,89.707 727.865,89.707C726.448,89.707 725.006,89.561 723.537,89.269C722.068,88.978 720.646,88.566 719.271,88.035C717.896,87.504 716.605,86.874 715.396,86.144C714.188,85.415 713.136,84.603 712.24,83.707L715.365,78.769C715.594,78.394 715.917,78.092 716.334,77.863C716.751,77.634 717.198,77.519 717.678,77.519C718.303,77.519 718.933,77.717 719.568,78.113C720.204,78.509 720.922,78.946 721.725,79.426C722.527,79.905 723.448,80.342 724.49,80.738C725.532,81.134 726.761,81.332 728.178,81.332C730.094,81.332 731.584,80.91 732.646,80.066C733.709,79.222 734.24,77.884 734.24,76.051C734.24,74.988 733.948,74.124 733.365,73.457C732.782,72.79 732.016,72.238 731.068,71.801C730.12,71.363 729.042,70.978 727.834,70.644C726.626,70.311 725.386,69.941 724.115,69.535C722.844,69.129 721.605,68.629 720.396,68.035C719.188,67.441 718.11,66.66 717.162,65.691C716.214,64.722 715.448,63.514 714.865,62.066C714.282,60.618 713.99,58.832 713.99,56.707C713.99,54.999 714.334,53.332 715.021,51.707C715.709,50.082 716.719,48.634 718.053,47.363C719.386,46.092 721.021,45.077 722.959,44.316C724.896,43.556 727.115,43.176 729.615,43.176C731.011,43.176 732.37,43.285 733.693,43.504C735.016,43.722 736.271,44.045 737.459,44.472C738.646,44.9 739.756,45.41 740.787,46.004C741.818,46.597 742.74,47.269 743.553,48.019L740.928,52.926Z" style="fill:white;fill-rule:nonzero;"/>
                <path d="M794.365,66.426C794.365,69.717 793.797,72.78 792.662,75.613C791.527,78.446 789.928,80.91 787.865,83.004C785.803,85.097 783.318,86.738 780.412,87.926C777.506,89.113 774.282,89.707 770.74,89.707C767.198,89.707 763.969,89.113 761.053,87.926C758.136,86.738 755.641,85.097 753.568,83.004C751.495,80.91 749.891,78.446 748.756,75.613C747.62,72.78 747.053,69.717 747.053,66.426C747.053,63.134 747.62,60.071 748.756,57.238C749.891,54.405 751.495,51.946 753.568,49.863C755.641,47.78 758.136,46.144 761.053,44.957C763.969,43.769 767.198,43.176 770.74,43.176C774.282,43.176 777.506,43.775 780.412,44.972C783.318,46.17 785.803,47.811 787.865,49.894C789.928,51.978 791.527,54.436 792.662,57.269C793.797,60.103 794.365,63.155 794.365,66.426ZM783.553,66.426C783.553,64.176 783.261,62.15 782.678,60.347C782.094,58.545 781.256,57.019 780.162,55.769C779.068,54.519 777.73,53.561 776.146,52.894C774.563,52.228 772.761,51.894 770.74,51.894C768.698,51.894 766.881,52.228 765.287,52.894C763.693,53.561 762.35,54.519 761.256,55.769C760.162,57.019 759.323,58.545 758.74,60.347C758.157,62.15 757.865,64.176 757.865,66.426C757.865,68.696 758.157,70.733 758.74,72.535C759.323,74.337 760.162,75.863 761.256,77.113C762.35,78.363 763.693,79.316 765.287,79.972C766.881,80.629 768.698,80.957 770.74,80.957C772.761,80.957 774.563,80.629 776.146,79.972C777.73,79.316 779.068,78.363 780.162,77.113C781.256,75.863 782.094,74.337 782.678,72.535C783.261,70.733 783.553,68.696 783.553,66.426Z" style="fill:white;fill-rule:nonzero;"/>
                <path d="M804.99,43.676C805.448,43.676 805.834,43.696 806.146,43.738C806.459,43.78 806.74,43.858 806.99,43.972C807.24,44.087 807.48,44.249 807.709,44.457C807.938,44.665 808.198,44.946 808.49,45.301L830.115,72.644C830.032,71.769 829.969,70.92 829.928,70.097C829.886,69.275 829.865,68.499 829.865,67.769L829.865,43.676L839.178,43.676L839.178,89.207L833.678,89.207C832.865,89.207 832.178,89.082 831.615,88.832C831.053,88.582 830.511,88.124 829.99,87.457L808.521,60.332C808.584,61.124 808.636,61.9 808.678,62.66C808.719,63.42 808.74,64.134 808.74,64.801L808.74,89.207L799.428,89.207L799.428,43.676L804.99,43.676Z" style="fill:white;fill-rule:nonzero;"/>
            </g>
        </g>
        <g transform="matrix(1,0,0,1,936.58,998.243)">
            <path d="M790.462,45.368L790.462,60.952L779.646,60.952L779.646,14.328L796.094,14.328C799.38,14.328 802.201,14.717 804.558,15.496C806.916,16.274 808.857,17.346 810.382,18.712C811.908,20.077 813.033,21.688 813.758,23.544C814.484,25.4 814.846,27.405 814.846,29.56C814.846,31.885 814.473,34.018 813.726,35.96C812.98,37.901 811.838,39.565 810.302,40.952C808.766,42.338 806.82,43.421 804.462,44.2C802.105,44.978 799.316,45.368 796.094,45.368L790.462,45.368ZM790.462,37.208L796.094,37.208C798.91,37.208 800.937,36.536 802.174,35.192C803.412,33.848 804.03,31.97 804.03,29.56C804.03,28.493 803.87,27.522 803.55,26.648C803.23,25.773 802.745,25.021 802.094,24.392C801.444,23.762 800.622,23.277 799.63,22.936C798.638,22.594 797.46,22.424 796.094,22.424L790.462,22.424L790.462,37.208Z" style="fill:white;fill-rule:nonzero;"/>
            <path d="M839.87,52.408C841.321,52.408 842.617,52.168 843.758,51.688C844.9,51.208 845.865,50.52 846.654,49.624C847.444,48.728 848.046,47.634 848.462,46.344C848.878,45.053 849.086,43.586 849.086,41.944L849.086,14.328L859.902,14.328L859.902,41.944C859.902,44.802 859.438,47.426 858.51,49.816C857.582,52.205 856.254,54.264 854.526,55.992C852.798,57.72 850.697,59.064 848.222,60.024C845.748,60.984 842.964,61.464 839.87,61.464C836.756,61.464 833.961,60.984 831.486,60.024C829.012,59.064 826.91,57.72 825.182,55.992C823.454,54.264 822.132,52.205 821.214,49.816C820.297,47.426 819.838,44.802 819.838,41.944L819.838,14.328L830.654,14.328L830.654,41.912C830.654,43.554 830.862,45.021 831.278,46.312C831.694,47.602 832.297,48.701 833.086,49.608C833.876,50.514 834.841,51.208 835.982,51.688C837.124,52.168 838.42,52.408 839.87,52.408Z" style="fill:white;fill-rule:nonzero;"/>
            <path d="M900.798,14.328L900.798,22.904L887.678,22.904L887.678,60.952L876.862,60.952L876.862,22.904L863.742,22.904L863.742,14.328L900.798,14.328Z" style="fill:white;fill-rule:nonzero;"/>
            <path d="M959.934,37.624C959.934,40.994 959.353,44.104 958.19,46.952C957.028,49.8 955.39,52.264 953.278,54.344C951.166,56.424 948.622,58.045 945.646,59.208C942.67,60.37 939.369,60.952 935.742,60.952L917.63,60.952L917.63,14.328L935.742,14.328C939.369,14.328 942.67,14.914 945.646,16.088C948.622,17.261 951.166,18.882 953.278,20.952C955.39,23.021 957.028,25.48 958.19,28.328C959.353,31.176 959.934,34.274 959.934,37.624ZM948.862,37.624C948.862,35.32 948.564,33.24 947.966,31.384C947.369,29.528 946.51,27.954 945.39,26.664C944.27,25.373 942.9,24.381 941.278,23.688C939.657,22.994 937.812,22.648 935.742,22.648L928.51,22.648L928.51,52.632L935.742,52.632C937.812,52.632 939.657,52.285 941.278,51.592C942.9,50.898 944.27,49.906 945.39,48.616C946.51,47.325 947.369,45.752 947.966,43.896C948.564,42.04 948.862,39.949 948.862,37.624Z" style="fill:white;fill-rule:nonzero;"/>
            <path d="M979.902,27.256C982.42,27.256 984.713,27.65 986.782,28.44C988.852,29.229 990.628,30.36 992.11,31.832C993.593,33.304 994.745,35.09 995.566,37.192C996.388,39.293 996.798,41.656 996.798,44.28C996.798,46.925 996.388,49.309 995.566,51.432C994.745,53.554 993.593,55.357 992.11,56.84C990.628,58.322 988.852,59.464 986.782,60.264C984.713,61.064 982.42,61.464 979.902,61.464C977.364,61.464 975.054,61.064 972.974,60.264C970.894,59.464 969.102,58.322 967.598,56.84C966.094,55.357 964.932,53.554 964.11,51.432C963.289,49.309 962.878,46.925 962.878,44.28C962.878,41.656 963.289,39.293 964.11,37.192C964.932,35.09 966.094,33.304 967.598,31.832C969.102,30.36 970.894,29.229 972.974,28.44C975.054,27.65 977.364,27.256 979.902,27.256ZM979.902,54.104C982.185,54.104 983.865,53.298 984.942,51.688C986.02,50.077 986.558,47.629 986.558,44.344C986.558,41.058 986.02,38.616 984.942,37.016C983.865,35.416 982.185,34.616 979.902,34.616C977.556,34.616 975.838,35.416 974.75,37.016C973.662,38.616 973.118,41.058 973.118,44.344C973.118,47.629 973.662,50.077 974.75,51.688C975.838,53.298 977.556,54.104 979.902,54.104Z" style="fill:white;fill-rule:nonzero;"/>
            <path d="M1026.17,35.64C1025.88,36.002 1025.59,36.29 1025.31,36.504C1025.03,36.717 1024.64,36.824 1024.13,36.824C1023.64,36.824 1023.19,36.706 1022.8,36.472C1022.4,36.237 1021.96,35.976 1021.47,35.688C1020.98,35.4 1020.4,35.138 1019.74,34.904C1019.08,34.669 1018.26,34.552 1017.28,34.552C1016.06,34.552 1015.01,34.776 1014.13,35.224C1013.24,35.672 1012.51,36.312 1011.93,37.144C1011.36,37.976 1010.93,38.994 1010.65,40.2C1010.38,41.405 1010.24,42.765 1010.24,44.28C1010.24,47.458 1010.85,49.901 1012.08,51.608C1013.31,53.314 1015,54.168 1017.15,54.168C1018.3,54.168 1019.21,54.024 1019.89,53.736C1020.56,53.448 1021.13,53.128 1021.6,52.776C1022.07,52.424 1022.5,52.098 1022.89,51.8C1023.29,51.501 1023.78,51.352 1024.38,51.352C1025.17,51.352 1025.77,51.64 1026.17,52.216L1029.05,55.768C1028.03,56.941 1026.95,57.896 1025.82,58.632C1024.69,59.368 1023.53,59.944 1022.35,60.36C1021.17,60.776 1019.98,61.064 1018.78,61.224C1017.59,61.384 1016.43,61.464 1015.29,61.464C1013.27,61.464 1011.33,61.08 1009.49,60.312C1007.64,59.544 1006.02,58.429 1004.62,56.968C1003.23,55.506 1002.12,53.709 1001.29,51.576C1000.47,49.442 1000.06,47.01 1000.06,44.28C1000.06,41.89 1000.42,39.656 1001.13,37.576C1001.85,35.496 1002.9,33.693 1004.3,32.168C1005.7,30.642 1007.43,29.442 1009.49,28.568C1011.55,27.693 1013.93,27.256 1016.64,27.256C1019.24,27.256 1021.52,27.672 1023.49,28.504C1025.45,29.336 1027.22,30.552 1028.8,32.152L1026.17,35.64Z" style="fill:white;fill-rule:nonzero;"/>
        </g>
    </g>
    <g id="Change-JSON" serif:id="Change JSON" transform="matrix(1,0,0,1,-1059.8,-14.2426)">
        <g id="JSON1" serif:id="JSON" transform="matrix(1,0,0,1,-30,0)">
            <g transform="matrix(-1.09807,0,0,2.17191,3635.67,-473.837)">
                <path d="M1555.37,665.972L1706.29,665.972L1706.29,527.459L1510.81,527.459L1510.81,614.295" style="fill:none;stroke:white;stroke-width:9.68px;"/>
            </g>
            <g transform="matrix(1,0,0,1,293.853,208.051)">
                <text x="1533.51px" y="602.707px" style="font-family:'Lato-Black', 'Lato', sans-serif;font-weight:900;font-size:62.5px;fill:white;">{...</text>
                <text x="1557.64px" y="665.207px" style="font-family:'Lato-Black', 'Lato', sans-serif;font-weight:900;font-size:62.5px;fill:white;">{...}</text>
                <g transform="matrix(62.5,0,0,62.5,1552.26,727.707)">
                </g>
                <text x="1533.51px" y="727.707px" style="font-family:'Lato-Black', 'Lato', sans-serif;font-weight:900;font-size:62.5px;fill:white;">}</text>
            </g>
            <g transform="matrix(1,0,0,1,1103.5,650.243)">
                <path d="M708.053,72.707C708.053,75.249 707.735,77.561 707.1,79.644C706.464,81.728 705.506,83.514 704.225,85.004C702.943,86.493 701.334,87.65 699.396,88.472C697.459,89.295 695.178,89.707 692.553,89.707C691.365,89.707 690.193,89.644 689.037,89.519C687.881,89.394 686.678,89.186 685.428,88.894L685.99,82.738C686.032,82.196 686.245,81.759 686.631,81.426C687.016,81.092 687.553,80.926 688.24,80.926C688.594,80.926 689.032,80.983 689.553,81.097C690.073,81.212 690.698,81.269 691.428,81.269C692.448,81.269 693.339,81.129 694.1,80.847C694.86,80.566 695.49,80.097 695.99,79.441C696.49,78.785 696.865,77.926 697.115,76.863C697.365,75.801 697.49,74.488 697.49,72.926L697.49,43.676L708.053,43.676L708.053,72.707Z" style="fill:white;fill-rule:nonzero;"/>
                <path d="M740.928,52.926C740.615,53.426 740.287,53.801 739.943,54.051C739.6,54.301 739.157,54.426 738.615,54.426C738.136,54.426 737.62,54.275 737.068,53.972C736.516,53.67 735.891,53.332 735.193,52.957C734.495,52.582 733.698,52.243 732.803,51.941C731.907,51.639 730.886,51.488 729.74,51.488C727.761,51.488 726.287,51.91 725.318,52.754C724.35,53.597 723.865,54.738 723.865,56.176C723.865,57.092 724.157,57.853 724.74,58.457C725.323,59.061 726.089,59.582 727.037,60.019C727.985,60.457 729.068,60.858 730.287,61.222C731.506,61.587 732.751,61.993 734.021,62.441C735.292,62.889 736.537,63.415 737.756,64.019C738.975,64.624 740.058,65.394 741.006,66.332C741.954,67.269 742.719,68.41 743.303,69.754C743.886,71.097 744.178,72.717 744.178,74.613C744.178,76.717 743.813,78.686 743.084,80.519C742.355,82.353 741.297,83.952 739.912,85.316C738.527,86.681 736.818,87.754 734.787,88.535C732.756,89.316 730.448,89.707 727.865,89.707C726.448,89.707 725.006,89.561 723.537,89.269C722.068,88.978 720.646,88.566 719.271,88.035C717.896,87.504 716.605,86.874 715.396,86.144C714.188,85.415 713.136,84.603 712.24,83.707L715.365,78.769C715.594,78.394 715.917,78.092 716.334,77.863C716.751,77.634 717.198,77.519 717.678,77.519C718.303,77.519 718.933,77.717 719.568,78.113C720.204,78.509 720.922,78.946 721.725,79.426C722.527,79.905 723.448,80.342 724.49,80.738C725.532,81.134 726.761,81.332 728.178,81.332C730.094,81.332 731.584,80.91 732.646,80.066C733.709,79.222 734.24,77.884 734.24,76.051C734.24,74.988 733.948,74.124 733.365,73.457C732.782,72.79 732.016,72.238 731.068,71.801C730.12,71.363 729.042,70.978 727.834,70.644C726.626,70.311 725.386,69.941 724.115,69.535C722.844,69.129 721.605,68.629 720.396,68.035C719.188,67.441 718.11,66.66 717.162,65.691C716.214,64.722 715.448,63.514 714.865,62.066C714.282,60.618 713.99,58.832 713.99,56.707C713.99,54.999 714.334,53.332 715.021,51.707C715.709,50.082 716.719,48.634 718.053,47.363C719.386,46.092 721.021,45.077 722.959,44.316C724.896,43.556 727.115,43.176 729.615,43.176C731.011,43.176 732.37,43.285 733.693,43.504C735.016,43.722 736.271,44.045 737.459,44.472C738.646,44.9 739.756,45.41 740.787,46.004C741.818,46.597 742.74,47.269 743.553,48.019L740.928,52.926Z" style="fill:white;fill-rule:nonzero;"/>
                <path d="M794.365,66.426C794.365,69.717 793.797,72.78 792.662,75.613C791.527,78.446 789.928,80.91 787.865,83.004C785.803,85.097 783.318,86.738 780.412,87.926C777.506,89.113 774.282,89.707 770.74,89.707C767.198,89.707 763.969,89.113 761.053,87.926C758.136,86.738 755.641,85.097 753.568,83.004C751.495,80.91 749.891,78.446 748.756,75.613C747.62,72.78 747.053,69.717 747.053,66.426C747.053,63.134 747.62,60.071 748.756,57.238C749.891,54.405 751.495,51.946 753.568,49.863C755.641,47.78 758.136,46.144 761.053,44.957C763.969,43.769 767.198,43.176 770.74,43.176C774.282,43.176 777.506,43.775 780.412,44.972C783.318,46.17 785.803,47.811 787.865,49.894C789.928,51.978 791.527,54.436 792.662,57.269C793.797,60.103 794.365,63.155 794.365,66.426ZM783.553,66.426C783.553,64.176 783.261,62.15 782.678,60.347C782.094,58.545 781.256,57.019 780.162,55.769C779.068,54.519 777.73,53.561 776.146,52.894C774.563,52.228 772.761,51.894 770.74,51.894C768.698,51.894 766.881,52.228 765.287,52.894C763.693,53.561 762.35,54.519 761.256,55.769C760.162,57.019 759.323,58.545 758.74,60.347C758.157,62.15 757.865,64.176 757.865,66.426C757.865,68.696 758.157,70.733 758.74,72.535C759.323,74.337 760.162,75.863 761.256,77.113C762.35,78.363 763.693,79.316 765.287,79.972C766.881,80.629 768.698,80.957 770.74,80.957C772.761,80.957 774.563,80.629 776.146,79.972C777.73,79.316 779.068,78.363 780.162,77.113C781.256,75.863 782.094,74.337 782.678,72.535C783.261,70.733 783.553,68.696 783.553,66.426Z" style="fill:white;fill-rule:nonzero;"/>
                <path d="M804.99,43.676C805.448,43.676 805.834,43.696 806.146,43.738C806.459,43.78 806.74,43.858 806.99,43.972C807.24,44.087 807.48,44.249 807.709,44.457C807.938,44.665 808.198,44.946 808.49,45.301L830.115,72.644C830.032,71.769 829.969,70.92 829.928,70.097C829.886,69.275 829.865,68.499 829.865,67.769L829.865,43.676L839.178,43.676L839.178,89.207L833.678,89.207C832.865,89.207 832.178,89.082 831.615,88.832C831.053,88.582 830.511,88.124 829.99,87.457L808.521,60.332C808.584,61.124 808.636,61.9 808.678,62.66C808.719,63.42 808.74,64.134 808.74,64.801L808.74,89.207L799.428,89.207L799.428,43.676L804.99,43.676Z" style="fill:white;fill-rule:nonzero;"/>
            </g>
        </g>
        <g id="Change" transform="matrix(13.6667,0,0,13.6667,1959.47,702.909)">
            <g transform="matrix(0.251292,0,0,0.251292,-2.53663,14.1153)">
                <path d="M19.85,8.75L24,9.58L24,14.42L19.85,15.25L22.2,18.77L18.77,22.2L15.25,19.85L14.42,24L9.58,24L8.75,19.85L5.23,22.2L1.8,18.77L4.15,15.25L0,14.42L0,9.58L4.15,8.75L1.8,5.23L5.23,1.8L8.75,4.15L9.58,0L14.42,0L15.25,4.15L18.77,1.8L22.2,5.23L19.85,8.75ZM18.28,13.82L22.28,13.01L22.28,11.01L18.28,10.2L17.74,8.9L20.03,5.47L18.6,4.04L15.17,6.33L13.87,5.79L13.06,1.79L11.06,1.79L10.25,5.79L8.95,6.33L5.52,4.04L4.09,5.47L6.38,8.9L5.84,10.2L1.84,11.01L1.84,13.01L5.84,13.82L6.38,15.12L4.09,18.55L5.52,19.98L8.95,17.69L10.25,18.23L11.06,22.23L13.06,22.23L13.87,18.23L15.17,17.69L18.6,19.98L20.03,18.55L17.74,15.12L18.28,13.82ZM10.094,9.148C10.658,8.771 11.322,8.57 12,8.57C13.88,8.575 15.425,10.12 15.43,12C15.43,13.882 13.882,15.43 12,15.43C10.118,15.43 8.57,13.881 8.57,12C8.57,10.855 9.143,9.784 10.094,9.148ZM11.05,13.422C11.331,13.61 11.662,13.71 12,13.71C12.003,13.71 12.007,13.71 12.01,13.71C12.943,13.71 13.71,12.943 13.71,12.01C13.71,12.007 13.71,12.003 13.71,12C13.71,11.062 12.938,10.29 12,10.29C11.062,10.29 10.29,11.062 10.29,12C10.29,12.571 10.576,13.105 11.05,13.422Z" style="fill:white;"/>
            </g>
            <g transform="matrix(0.0643158,0,0,0.0643158,-62.951,-31.6784)">
                <g transform="matrix(1.13768,-0,-0,1.13768,-44.7523,-290.938)">
                    <path d="M877.167,856.223L906.199,864.491L882.165,882.756L877.167,856.223Z" style="fill:white;"/>
                    <path d="M893.376,979.47C867.416,973.623 848,950.406 848,922.69C848,898.058 863.336,876.979 884.972,868.49" style="fill:none;stroke:white;stroke-width:9px;stroke-linecap:round;stroke-miterlimit:1.5;"/>
                </g>
            </g>
            <g transform="matrix(-0.0643158,-7.87641e-18,7.87641e-18,-0.0643158,63.8933,65.8218)">
                <g transform="matrix(-1.13768,1.39326e-16,-1.39326e-16,-1.13768,2016.96,1806.9)">
                    <path d="M935.045,987.738L906.013,979.47L930.047,961.205L935.045,987.738Z" style="fill:white;"/>
                    <path d="M918.836,864.491C944.796,870.338 964.212,893.555 964.212,921.271C964.212,945.903 948.876,966.982 927.24,975.471" style="fill:none;stroke:white;stroke-width:9px;stroke-linecap:round;stroke-miterlimit:1.5;"/>
                </g>
            </g>
        </g>
        <g transform="matrix(1,0,0,1,936.58,998.243)">
            <path d="M764.254,48.888C764.51,48.888 764.766,48.936 765.022,49.032C765.278,49.128 765.524,49.293 765.758,49.528L770.046,54.04C768.169,56.493 765.817,58.344 762.99,59.592C760.164,60.84 756.82,61.464 752.958,61.464C749.417,61.464 746.244,60.861 743.438,59.656C740.633,58.45 738.254,56.786 736.302,54.664C734.35,52.541 732.852,50.024 731.806,47.112C730.761,44.2 730.238,41.037 730.238,37.624C730.238,34.146 730.836,30.952 732.03,28.04C733.225,25.128 734.894,22.616 737.038,20.504C739.182,18.392 741.748,16.749 744.734,15.576C747.721,14.402 751.017,13.816 754.622,13.816C756.372,13.816 758.02,13.97 759.566,14.28C761.113,14.589 762.558,15.016 763.902,15.56C765.246,16.104 766.484,16.754 767.614,17.512C768.745,18.269 769.748,19.106 770.622,20.024L766.974,24.92C766.74,25.218 766.462,25.49 766.142,25.736C765.822,25.981 765.374,26.104 764.798,26.104C764.414,26.104 764.052,26.018 763.71,25.848C763.369,25.677 763.006,25.469 762.622,25.224C762.238,24.978 761.817,24.712 761.358,24.424C760.9,24.136 760.356,23.869 759.726,23.624C759.097,23.378 758.361,23.17 757.518,23C756.676,22.829 755.689,22.744 754.558,22.744C752.596,22.744 750.804,23.09 749.182,23.784C747.561,24.477 746.169,25.469 745.006,26.76C743.844,28.05 742.937,29.613 742.286,31.448C741.636,33.282 741.31,35.341 741.31,37.624C741.31,40.013 741.636,42.136 742.286,43.992C742.937,45.848 743.822,47.41 744.942,48.68C746.062,49.949 747.369,50.914 748.862,51.576C750.356,52.237 751.956,52.568 753.662,52.568C754.644,52.568 755.54,52.52 756.35,52.424C757.161,52.328 757.913,52.162 758.606,51.928C759.3,51.693 759.961,51.389 760.59,51.016C761.22,50.642 761.854,50.178 762.494,49.624C762.75,49.41 763.028,49.234 763.326,49.096C763.625,48.957 763.934,48.888 764.254,48.888Z" style="fill:white;fill-rule:nonzero;"/>
            <path d="M774.974,60.952L774.974,13.048L784.894,13.048L784.894,30.68C786.089,29.656 787.385,28.829 788.782,28.2C790.18,27.57 791.849,27.256 793.79,27.256C795.604,27.256 797.209,27.57 798.606,28.2C800.004,28.829 801.182,29.704 802.142,30.824C803.102,31.944 803.828,33.277 804.318,34.824C804.809,36.37 805.054,38.05 805.054,39.864L805.054,60.952L795.134,60.952L795.134,39.864C795.134,38.242 794.761,36.978 794.014,36.072C793.268,35.165 792.169,34.712 790.718,34.712C789.63,34.712 788.606,34.946 787.646,35.416C786.686,35.885 785.769,36.514 784.894,37.304L784.894,60.952L774.974,60.952Z" style="fill:white;fill-rule:nonzero;"/>
            <path d="M835.006,60.952C834.068,60.952 833.358,60.824 832.878,60.568C832.398,60.312 831.998,59.778 831.678,58.968L830.974,57.144C830.142,57.848 829.342,58.466 828.574,59C827.806,59.533 827.012,59.986 826.19,60.36C825.369,60.733 824.494,61.01 823.566,61.192C822.638,61.373 821.609,61.464 820.478,61.464C818.964,61.464 817.588,61.266 816.35,60.872C815.113,60.477 814.062,59.896 813.198,59.128C812.334,58.36 811.668,57.405 811.198,56.264C810.729,55.122 810.494,53.805 810.494,52.312C810.494,51.138 810.793,49.933 811.39,48.696C811.988,47.458 813.022,46.333 814.494,45.32C815.966,44.306 817.95,43.458 820.446,42.776C822.942,42.093 826.089,41.709 829.886,41.624L829.886,40.216C829.886,38.274 829.486,36.872 828.686,36.008C827.886,35.144 826.75,34.712 825.278,34.712C824.105,34.712 823.145,34.84 822.398,35.096C821.652,35.352 820.985,35.64 820.398,35.96C819.812,36.28 819.241,36.568 818.686,36.824C818.132,37.08 817.47,37.208 816.702,37.208C816.02,37.208 815.438,37.042 814.958,36.712C814.478,36.381 814.1,35.97 813.822,35.48L812.03,32.376C814.036,30.605 816.26,29.288 818.702,28.424C821.145,27.56 823.764,27.128 826.558,27.128C828.564,27.128 830.372,27.453 831.982,28.104C833.593,28.754 834.958,29.661 836.078,30.824C837.198,31.986 838.057,33.368 838.654,34.968C839.252,36.568 839.55,38.317 839.55,40.216L839.55,60.952L835.006,60.952ZM823.614,54.904C824.894,54.904 826.014,54.68 826.974,54.232C827.934,53.784 828.905,53.058 829.886,52.056L829.886,47.448C827.902,47.533 826.27,47.704 824.99,47.96C823.71,48.216 822.697,48.536 821.95,48.92C821.204,49.304 820.686,49.741 820.398,50.232C820.11,50.722 819.966,51.256 819.966,51.832C819.966,52.962 820.276,53.757 820.894,54.216C821.513,54.674 822.42,54.904 823.614,54.904Z" style="fill:white;fill-rule:nonzero;"/>
            <path d="M846.59,60.952L846.59,27.768L852.734,27.768C853.353,27.768 853.87,27.906 854.286,28.184C854.702,28.461 854.996,28.877 855.166,29.432L855.742,31.352C856.382,30.754 857.044,30.2 857.726,29.688C858.409,29.176 859.14,28.744 859.918,28.392C860.697,28.04 861.54,27.762 862.446,27.56C863.353,27.357 864.34,27.256 865.406,27.256C867.22,27.256 868.825,27.57 870.222,28.2C871.62,28.829 872.798,29.704 873.758,30.824C874.718,31.944 875.444,33.277 875.934,34.824C876.425,36.37 876.67,38.05 876.67,39.864L876.67,60.952L866.75,60.952L866.75,39.864C866.75,38.242 866.377,36.978 865.63,36.072C864.884,35.165 863.785,34.712 862.334,34.712C861.246,34.712 860.222,34.946 859.262,35.416C858.302,35.885 857.385,36.514 856.51,37.304L856.51,60.952L846.59,60.952Z" style="fill:white;fill-rule:nonzero;"/>
            <path d="M895.422,27.192C896.83,27.192 898.158,27.33 899.406,27.608C900.654,27.885 901.812,28.28 902.878,28.792L912.894,28.792L912.894,32.408C912.894,32.962 912.74,33.4 912.43,33.72C912.121,34.04 911.593,34.285 910.846,34.456L908.414,35C908.713,35.96 908.862,36.952 908.862,37.976C908.862,39.64 908.516,41.133 907.822,42.456C907.129,43.778 906.18,44.904 904.974,45.832C903.769,46.76 902.345,47.474 900.702,47.976C899.06,48.477 897.3,48.728 895.422,48.728C894.377,48.728 893.396,48.664 892.478,48.536C891.753,48.962 891.39,49.453 891.39,50.008C891.39,50.562 891.684,50.962 892.27,51.208C892.857,51.453 893.63,51.624 894.59,51.72C895.55,51.816 896.649,51.88 897.886,51.912C899.124,51.944 900.382,52.018 901.662,52.136C902.942,52.253 904.201,52.45 905.438,52.728C906.676,53.005 907.774,53.453 908.734,54.072C909.694,54.69 910.468,55.517 911.054,56.552C911.641,57.586 911.934,58.904 911.934,60.504C911.934,61.997 911.572,63.458 910.846,64.888C910.121,66.317 909.054,67.586 907.646,68.696C906.238,69.805 904.51,70.696 902.462,71.368C900.414,72.04 898.068,72.376 895.422,72.376C892.82,72.376 890.574,72.13 888.686,71.64C886.798,71.149 885.23,70.504 883.982,69.704C882.734,68.904 881.812,67.981 881.214,66.936C880.617,65.89 880.318,64.802 880.318,63.672C880.318,62.2 880.766,60.957 881.662,59.944C882.558,58.93 883.785,58.136 885.342,57.56C884.596,57.069 883.998,56.44 883.55,55.672C883.102,54.904 882.878,53.933 882.878,52.76C882.878,52.269 882.964,51.752 883.134,51.208C883.305,50.664 883.572,50.136 883.934,49.624C884.297,49.112 884.756,48.621 885.31,48.152C885.865,47.682 886.526,47.266 887.294,46.904C885.566,45.986 884.206,44.77 883.214,43.256C882.222,41.741 881.726,39.981 881.726,37.976C881.726,36.312 882.078,34.813 882.782,33.48C883.486,32.146 884.452,31.016 885.678,30.088C886.905,29.16 888.35,28.445 890.014,27.944C891.678,27.442 893.481,27.192 895.422,27.192ZM902.782,62.168C902.782,61.634 902.617,61.208 902.286,60.888C901.956,60.568 901.508,60.312 900.942,60.12C900.377,59.928 899.716,59.789 898.958,59.704C898.201,59.618 897.385,59.554 896.51,59.512C895.636,59.469 894.729,59.432 893.79,59.4C892.852,59.368 891.924,59.298 891.006,59.192C890.388,59.618 889.881,60.093 889.486,60.616C889.092,61.138 888.894,61.73 888.894,62.392C888.894,62.861 888.996,63.288 889.198,63.672C889.401,64.056 889.758,64.386 890.27,64.664C890.782,64.941 891.47,65.16 892.334,65.32C893.198,65.48 894.292,65.56 895.614,65.56C897.044,65.56 898.217,65.474 899.134,65.304C900.052,65.133 900.782,64.898 901.326,64.6C901.87,64.301 902.249,63.944 902.462,63.528C902.676,63.112 902.782,62.658 902.782,62.168ZM895.422,42.616C897.065,42.616 898.254,42.205 898.99,41.384C899.726,40.562 900.094,39.501 900.094,38.2C900.094,36.856 899.726,35.8 898.99,35.032C898.254,34.264 897.065,33.88 895.422,33.88C893.78,33.88 892.59,34.264 891.854,35.032C891.118,35.8 890.75,36.856 890.75,38.2C890.75,38.84 890.841,39.426 891.022,39.96C891.204,40.493 891.486,40.957 891.87,41.352C892.254,41.746 892.74,42.056 893.326,42.28C893.913,42.504 894.612,42.616 895.422,42.616Z" style="fill:white;fill-rule:nonzero;"/>
            <path d="M931.39,27.256C933.588,27.256 935.598,27.597 937.422,28.28C939.246,28.962 940.814,29.954 942.126,31.256C943.438,32.557 944.462,34.152 945.198,36.04C945.934,37.928 946.302,40.066 946.302,42.456C946.302,43.202 946.27,43.81 946.206,44.28C946.142,44.749 946.025,45.122 945.854,45.4C945.684,45.677 945.454,45.869 945.166,45.976C944.878,46.082 944.51,46.136 944.062,46.136L924.926,46.136C925.246,48.909 926.089,50.92 927.454,52.168C928.82,53.416 930.58,54.04 932.734,54.04C933.886,54.04 934.878,53.901 935.71,53.624C936.542,53.346 937.284,53.037 937.934,52.696C938.585,52.354 939.182,52.045 939.726,51.768C940.27,51.49 940.841,51.352 941.438,51.352C942.228,51.352 942.825,51.64 943.23,52.216L946.11,55.768C945.086,56.941 943.982,57.896 942.798,58.632C941.614,59.368 940.398,59.944 939.15,60.36C937.902,60.776 936.654,61.064 935.406,61.224C934.158,61.384 932.969,61.464 931.838,61.464C929.513,61.464 927.332,61.085 925.294,60.328C923.257,59.57 921.476,58.445 919.95,56.952C918.425,55.458 917.22,53.602 916.334,51.384C915.449,49.165 915.006,46.584 915.006,43.64C915.006,41.421 915.385,39.32 916.142,37.336C916.9,35.352 917.988,33.613 919.406,32.12C920.825,30.626 922.542,29.442 924.558,28.568C926.574,27.693 928.852,27.256 931.39,27.256ZM931.582,34.104C929.684,34.104 928.201,34.642 927.134,35.72C926.068,36.797 925.364,38.349 925.022,40.376L937.406,40.376C937.406,39.586 937.305,38.818 937.102,38.072C936.9,37.325 936.569,36.658 936.11,36.072C935.652,35.485 935.049,35.01 934.302,34.648C933.556,34.285 932.649,34.104 931.582,34.104Z" style="fill:white;fill-rule:nonzero;"/>
            <path d="M1006.65,37.624C1006.65,40.994 1006.07,44.104 1004.91,46.952C1003.75,49.8 1002.11,52.264 999.998,54.344C997.886,56.424 995.342,58.045 992.366,59.208C989.39,60.37 986.089,60.952 982.462,60.952L964.35,60.952L964.35,14.328L982.462,14.328C986.089,14.328 989.39,14.914 992.366,16.088C995.342,17.261 997.886,18.882 999.998,20.952C1002.11,23.021 1003.75,25.48 1004.91,28.328C1006.07,31.176 1006.65,34.274 1006.65,37.624ZM995.582,37.624C995.582,35.32 995.284,33.24 994.686,31.384C994.089,29.528 993.23,27.954 992.11,26.664C990.99,25.373 989.62,24.381 987.998,23.688C986.377,22.994 984.532,22.648 982.462,22.648L975.23,22.648L975.23,52.632L982.462,52.632C984.532,52.632 986.377,52.285 987.998,51.592C989.62,50.898 990.99,49.906 992.11,48.616C993.23,47.325 994.089,45.752 994.686,43.896C995.284,42.04 995.582,39.949 995.582,37.624Z" style="fill:white;fill-rule:nonzero;"/>
            <path d="M1026.62,27.256C1029.14,27.256 1031.43,27.65 1033.5,28.44C1035.57,29.229 1037.35,30.36 1038.83,31.832C1040.31,33.304 1041.46,35.09 1042.29,37.192C1043.11,39.293 1043.52,41.656 1043.52,44.28C1043.52,46.925 1043.11,49.309 1042.29,51.432C1041.46,53.554 1040.31,55.357 1038.83,56.84C1037.35,58.322 1035.57,59.464 1033.5,60.264C1031.43,61.064 1029.14,61.464 1026.62,61.464C1024.08,61.464 1021.77,61.064 1019.69,60.264C1017.61,59.464 1015.82,58.322 1014.32,56.84C1012.81,55.357 1011.65,53.554 1010.83,51.432C1010.01,49.309 1009.6,46.925 1009.6,44.28C1009.6,41.656 1010.01,39.293 1010.83,37.192C1011.65,35.09 1012.81,33.304 1014.32,31.832C1015.82,30.36 1017.61,29.229 1019.69,28.44C1021.77,27.65 1024.08,27.256 1026.62,27.256ZM1026.62,54.104C1028.9,54.104 1030.59,53.298 1031.66,51.688C1032.74,50.077 1033.28,47.629 1033.28,44.344C1033.28,41.058 1032.74,38.616 1031.66,37.016C1030.59,35.416 1028.9,34.616 1026.62,34.616C1024.28,34.616 1022.56,35.416 1021.47,37.016C1020.38,38.616 1019.84,41.058 1019.84,44.344C1019.84,47.629 1020.38,50.077 1021.47,51.688C1022.56,53.298 1024.28,54.104 1026.62,54.104Z" style="fill:white;fill-rule:nonzero;"/>
            <path d="M1072.89,35.64C1072.6,36.002 1072.31,36.29 1072.03,36.504C1071.75,36.717 1071.36,36.824 1070.85,36.824C1070.36,36.824 1069.91,36.706 1069.52,36.472C1069.12,36.237 1068.68,35.976 1068.19,35.688C1067.7,35.4 1067.12,35.138 1066.46,34.904C1065.8,34.669 1064.98,34.552 1064,34.552C1062.78,34.552 1061.73,34.776 1060.85,35.224C1059.96,35.672 1059.23,36.312 1058.65,37.144C1058.08,37.976 1057.65,38.994 1057.37,40.2C1057.1,41.405 1056.96,42.765 1056.96,44.28C1056.96,47.458 1057.57,49.901 1058.8,51.608C1060.03,53.314 1061.72,54.168 1063.87,54.168C1065.02,54.168 1065.93,54.024 1066.61,53.736C1067.28,53.448 1067.85,53.128 1068.32,52.776C1068.79,52.424 1069.22,52.098 1069.61,51.8C1070.01,51.501 1070.51,51.352 1071.1,51.352C1071.89,51.352 1072.49,51.64 1072.89,52.216L1075.77,55.768C1074.75,56.941 1073.67,57.896 1072.54,58.632C1071.41,59.368 1070.25,59.944 1069.07,60.36C1067.89,60.776 1066.7,61.064 1065.5,61.224C1064.31,61.384 1063.14,61.464 1062.01,61.464C1059.99,61.464 1058.05,61.08 1056.21,60.312C1054.36,59.544 1052.74,58.429 1051.34,56.968C1049.94,55.506 1048.84,53.709 1048.01,51.576C1047.19,49.442 1046.78,47.01 1046.78,44.28C1046.78,41.89 1047.14,39.656 1047.85,37.576C1048.57,35.496 1049.62,33.693 1051.02,32.168C1052.42,30.642 1054.15,29.442 1056.21,28.568C1058.27,27.693 1060.65,27.256 1063.36,27.256C1065.96,27.256 1068.24,27.672 1070.21,28.504C1072.17,29.336 1073.94,30.552 1075.52,32.152L1072.89,35.64Z" style="fill:white;fill-rule:nonzero;"/>
        </g>
    </g>
    <g id="GET-JSON" serif:id="GET JSON" transform="matrix(1,0,0,1,-468.802,-494.243)">
        <g id="JSON2" serif:id="JSON" transform="matrix(1,0,0,1,-30,0)">
            <g transform="matrix(-1.09807,0,0,2.17191,3635.67,-473.837)">
                <rect x="1510.81" y="527.459" width="195.482" height="138.513" style="fill:none;stroke:white;stroke-width:9.68px;"/>
            </g>
            <g transform="matrix(1,0,0,1,293.853,208.051)">
                <text x="1533.51px" y="602.707px" style="font-family:'Lato-Black', 'Lato', sans-serif;font-weight:900;font-size:62.5px;fill:white;">{...</text>
                <text x="1557.64px" y="665.207px" style="font-family:'Lato-Black', 'Lato', sans-serif;font-weight:900;font-size:62.5px;fill:white;">{...}</text>
                <g transform="matrix(62.5,0,0,62.5,1552.26,727.707)">
                </g>
                <text x="1533.51px" y="727.707px" style="font-family:'Lato-Black', 'Lato', sans-serif;font-weight:900;font-size:62.5px;fill:white;">}</text>
            </g>
            <g transform="matrix(1,0,0,1,1103.5,650.243)">
                <path d="M708.053,72.707C708.053,75.249 707.735,77.561 707.1,79.644C706.464,81.728 705.506,83.514 704.225,85.004C702.943,86.493 701.334,87.65 699.396,88.472C697.459,89.295 695.178,89.707 692.553,89.707C691.365,89.707 690.193,89.644 689.037,89.519C687.881,89.394 686.678,89.186 685.428,88.894L685.99,82.738C686.032,82.196 686.245,81.759 686.631,81.426C687.016,81.092 687.553,80.926 688.24,80.926C688.594,80.926 689.032,80.983 689.553,81.097C690.073,81.212 690.698,81.269 691.428,81.269C692.448,81.269 693.339,81.129 694.1,80.847C694.86,80.566 695.49,80.097 695.99,79.441C696.49,78.785 696.865,77.926 697.115,76.863C697.365,75.801 697.49,74.488 697.49,72.926L697.49,43.676L708.053,43.676L708.053,72.707Z" style="fill:white;fill-rule:nonzero;"/>
                <path d="M740.928,52.926C740.615,53.426 740.287,53.801 739.943,54.051C739.6,54.301 739.157,54.426 738.615,54.426C738.136,54.426 737.62,54.275 737.068,53.972C736.516,53.67 735.891,53.332 735.193,52.957C734.495,52.582 733.698,52.243 732.803,51.941C731.907,51.639 730.886,51.488 729.74,51.488C727.761,51.488 726.287,51.91 725.318,52.754C724.35,53.597 723.865,54.738 723.865,56.176C723.865,57.092 724.157,57.853 724.74,58.457C725.323,59.061 726.089,59.582 727.037,60.019C727.985,60.457 729.068,60.858 730.287,61.222C731.506,61.587 732.751,61.993 734.021,62.441C735.292,62.889 736.537,63.415 737.756,64.019C738.975,64.624 740.058,65.394 741.006,66.332C741.954,67.269 742.719,68.41 743.303,69.754C743.886,71.097 744.178,72.717 744.178,74.613C744.178,76.717 743.813,78.686 743.084,80.519C742.355,82.353 741.297,83.952 739.912,85.316C738.527,86.681 736.818,87.754 734.787,88.535C732.756,89.316 730.448,89.707 727.865,89.707C726.448,89.707 725.006,89.561 723.537,89.269C722.068,88.978 720.646,88.566 719.271,88.035C717.896,87.504 716.605,86.874 715.396,86.144C714.188,85.415 713.136,84.603 712.24,83.707L715.365,78.769C715.594,78.394 715.917,78.092 716.334,77.863C716.751,77.634 717.198,77.519 717.678,77.519C718.303,77.519 718.933,77.717 719.568,78.113C720.204,78.509 720.922,78.946 721.725,79.426C722.527,79.905 723.448,80.342 724.49,80.738C725.532,81.134 726.761,81.332 728.178,81.332C730.094,81.332 731.584,80.91 732.646,80.066C733.709,79.222 734.24,77.884 734.24,76.051C734.24,74.988 733.948,74.124 733.365,73.457C732.782,72.79 732.016,72.238 731.068,71.801C730.12,71.363 729.042,70.978 727.834,70.644C726.626,70.311 725.386,69.941 724.115,69.535C722.844,69.129 721.605,68.629 720.396,68.035C719.188,67.441 718.11,66.66 717.162,65.691C716.214,64.722 715.448,63.514 714.865,62.066C714.282,60.618 713.99,58.832 713.99,56.707C713.99,54.999 714.334,53.332 715.021,51.707C715.709,50.082 716.719,48.634 718.053,47.363C719.386,46.092 721.021,45.077 722.959,44.316C724.896,43.556 727.115,43.176 729.615,43.176C731.011,43.176 732.37,43.285 733.693,43.504C735.016,43.722 736.271,44.045 737.459,44.472C738.646,44.9 739.756,45.41 740.787,46.004C741.818,46.597 742.74,47.269 743.553,48.019L740.928,52.926Z" style="fill:white;fill-rule:nonzero;"/>
                <path d="M794.365,66.426C794.365,69.717 793.797,72.78 792.662,75.613C791.527,78.446 789.928,80.91 787.865,83.004C785.803,85.097 783.318,86.738 780.412,87.926C777.506,89.113 774.282,89.707 770.74,89.707C767.198,89.707 763.969,89.113 761.053,87.926C758.136,86.738 755.641,85.097 753.568,83.004C751.495,80.91 749.891,78.446 748.756,75.613C747.62,72.78 747.053,69.717 747.053,66.426C747.053,63.134 747.62,60.071 748.756,57.238C749.891,54.405 751.495,51.946 753.568,49.863C755.641,47.78 758.136,46.144 761.053,44.957C763.969,43.769 767.198,43.176 770.74,43.176C774.282,43.176 777.506,43.775 780.412,44.972C783.318,46.17 785.803,47.811 787.865,49.894C789.928,51.978 791.527,54.436 792.662,57.269C793.797,60.103 794.365,63.155 794.365,66.426ZM783.553,66.426C783.553,64.176 783.261,62.15 782.678,60.347C782.094,58.545 781.256,57.019 780.162,55.769C779.068,54.519 777.73,53.561 776.146,52.894C774.563,52.228 772.761,51.894 770.74,51.894C768.698,51.894 766.881,52.228 765.287,52.894C763.693,53.561 762.35,54.519 761.256,55.769C760.162,57.019 759.323,58.545 758.74,60.347C758.157,62.15 757.865,64.176 757.865,66.426C757.865,68.696 758.157,70.733 758.74,72.535C759.323,74.337 760.162,75.863 761.256,77.113C762.35,78.363 763.693,79.316 765.287,79.972C766.881,80.629 768.698,80.957 770.74,80.957C772.761,80.957 774.563,80.629 776.146,79.972C777.73,79.316 779.068,78.363 780.162,77.113C781.256,75.863 782.094,74.337 782.678,72.535C783.261,70.733 783.553,68.696 783.553,66.426Z" style="fill:white;fill-rule:nonzero;"/>
                <path d="M804.99,43.676C805.448,43.676 805.834,43.696 806.146,43.738C806.459,43.78 806.74,43.858 806.99,43.972C807.24,44.087 807.48,44.249 807.709,44.457C807.938,44.665 808.198,44.946 808.49,45.301L830.115,72.644C830.032,71.769 829.969,70.92 829.928,70.097C829.886,69.275 829.865,68.499 829.865,67.769L829.865,43.676L839.178,43.676L839.178,89.207L833.678,89.207C832.865,89.207 832.178,89.082 831.615,88.832C831.053,88.582 830.511,88.124 829.99,87.457L808.521,60.332C808.584,61.124 808.636,61.9 808.678,62.66C808.719,63.42 808.74,64.134 808.74,64.801L808.74,89.207L799.428,89.207L799.428,43.676L804.99,43.676Z" style="fill:white;fill-rule:nonzero;"/>
            </g>
        </g>
        <g transform="matrix(1,0,0,1,938.58,578.243)">
            <path d="M801.598,53.144C803.092,53.144 804.414,53.016 805.566,52.76C806.718,52.504 807.806,52.162 808.83,51.736L808.83,44.664L804.222,44.664C803.54,44.664 803.006,44.482 802.622,44.12C802.238,43.757 802.046,43.298 802.046,42.744L802.046,36.792L818.622,36.792L818.622,56.472C817.428,57.346 816.185,58.098 814.894,58.728C813.604,59.357 812.228,59.874 810.766,60.28C809.305,60.685 807.748,60.984 806.094,61.176C804.441,61.368 802.665,61.464 800.766,61.464C797.353,61.464 794.196,60.861 791.294,59.656C788.393,58.45 785.881,56.786 783.758,54.664C781.636,52.541 779.972,50.024 778.766,47.112C777.561,44.2 776.958,41.037 776.958,37.624C776.958,34.146 777.534,30.952 778.686,28.04C779.838,25.128 781.486,22.616 783.63,20.504C785.774,18.392 788.366,16.749 791.406,15.576C794.446,14.402 797.844,13.816 801.598,13.816C803.54,13.816 805.364,13.976 807.07,14.296C808.777,14.616 810.35,15.053 811.79,15.608C813.23,16.162 814.548,16.824 815.742,17.592C816.937,18.36 818.004,19.192 818.942,20.088L815.806,24.856C815.508,25.304 815.15,25.656 814.734,25.912C814.318,26.168 813.865,26.296 813.374,26.296C812.734,26.296 812.073,26.082 811.39,25.656C810.537,25.144 809.732,24.701 808.974,24.328C808.217,23.954 807.444,23.65 806.654,23.416C805.865,23.181 805.033,23.01 804.158,22.904C803.284,22.797 802.302,22.744 801.214,22.744C799.188,22.744 797.364,23.101 795.742,23.816C794.121,24.53 792.74,25.538 791.598,26.84C790.457,28.141 789.577,29.704 788.958,31.528C788.34,33.352 788.03,35.384 788.03,37.624C788.03,40.098 788.372,42.296 789.054,44.216C789.737,46.136 790.681,47.757 791.886,49.08C793.092,50.402 794.521,51.41 796.174,52.104C797.828,52.797 799.636,53.144 801.598,53.144Z" style="fill:white;fill-rule:nonzero;"/>
            <path d="M855.23,14.328L855.23,22.648L836.094,22.648L836.094,33.528L850.75,33.528L850.75,41.528L836.094,41.528L836.094,52.632L855.23,52.632L855.23,60.952L825.214,60.952L825.214,14.328L855.23,14.328Z" style="fill:white;fill-rule:nonzero;"/>
            <path d="M895.23,14.328L895.23,22.904L882.11,22.904L882.11,60.952L871.294,60.952L871.294,22.904L858.174,22.904L858.174,14.328L895.23,14.328Z" style="fill:white;fill-rule:nonzero;"/>
            <path d="M954.366,37.624C954.366,40.994 953.785,44.104 952.622,46.952C951.46,49.8 949.822,52.264 947.71,54.344C945.598,56.424 943.054,58.045 940.078,59.208C937.102,60.37 933.801,60.952 930.174,60.952L912.062,60.952L912.062,14.328L930.174,14.328C933.801,14.328 937.102,14.914 940.078,16.088C943.054,17.261 945.598,18.882 947.71,20.952C949.822,23.021 951.46,25.48 952.622,28.328C953.785,31.176 954.366,34.274 954.366,37.624ZM943.294,37.624C943.294,35.32 942.996,33.24 942.398,31.384C941.801,29.528 940.942,27.954 939.822,26.664C938.702,25.373 937.332,24.381 935.71,23.688C934.089,22.994 932.244,22.648 930.174,22.648L922.942,22.648L922.942,52.632L930.174,52.632C932.244,52.632 934.089,52.285 935.71,51.592C937.332,50.898 938.702,49.906 939.822,48.616C940.942,47.325 941.801,45.752 942.398,43.896C942.996,42.04 943.294,39.949 943.294,37.624Z" style="fill:white;fill-rule:nonzero;"/>
            <path d="M974.334,27.256C976.852,27.256 979.145,27.65 981.214,28.44C983.284,29.229 985.06,30.36 986.542,31.832C988.025,33.304 989.177,35.09 989.998,37.192C990.82,39.293 991.23,41.656 991.23,44.28C991.23,46.925 990.82,49.309 989.998,51.432C989.177,53.554 988.025,55.357 986.542,56.84C985.06,58.322 983.284,59.464 981.214,60.264C979.145,61.064 976.852,61.464 974.334,61.464C971.796,61.464 969.486,61.064 967.406,60.264C965.326,59.464 963.534,58.322 962.03,56.84C960.526,55.357 959.364,53.554 958.542,51.432C957.721,49.309 957.31,46.925 957.31,44.28C957.31,41.656 957.721,39.293 958.542,37.192C959.364,35.09 960.526,33.304 962.03,31.832C963.534,30.36 965.326,29.229 967.406,28.44C969.486,27.65 971.796,27.256 974.334,27.256ZM974.334,54.104C976.617,54.104 978.297,53.298 979.374,51.688C980.452,50.077 980.99,47.629 980.99,44.344C980.99,41.058 980.452,38.616 979.374,37.016C978.297,35.416 976.617,34.616 974.334,34.616C971.988,34.616 970.27,35.416 969.182,37.016C968.094,38.616 967.55,41.058 967.55,44.344C967.55,47.629 968.094,50.077 969.182,51.688C970.27,53.298 971.988,54.104 974.334,54.104Z" style="fill:white;fill-rule:nonzero;"/>
            <path d="M1020.61,35.64C1020.31,36.002 1020.02,36.29 1019.74,36.504C1019.47,36.717 1019.07,36.824 1018.56,36.824C1018.07,36.824 1017.62,36.706 1017.23,36.472C1016.84,36.237 1016.39,35.976 1015.9,35.688C1015.41,35.4 1014.84,35.138 1014.17,34.904C1013.51,34.669 1012.69,34.552 1011.71,34.552C1010.49,34.552 1009.44,34.776 1008.56,35.224C1007.67,35.672 1006.94,36.312 1006.37,37.144C1005.79,37.976 1005.36,38.994 1005.09,40.2C1004.81,41.405 1004.67,42.765 1004.67,44.28C1004.67,47.458 1005.28,49.901 1006.51,51.608C1007.74,53.314 1009.43,54.168 1011.58,54.168C1012.73,54.168 1013.65,54.024 1014.32,53.736C1014.99,53.448 1015.56,53.128 1016.03,52.776C1016.5,52.424 1016.93,52.098 1017.33,51.8C1017.72,51.501 1018.22,51.352 1018.81,51.352C1019.6,51.352 1020.2,51.64 1020.61,52.216L1023.49,55.768C1022.46,56.941 1021.38,57.896 1020.25,58.632C1019.12,59.368 1017.97,59.944 1016.78,60.36C1015.6,60.776 1014.41,61.064 1013.21,61.224C1012.02,61.384 1010.86,61.464 1009.73,61.464C1007.7,61.464 1005.76,61.08 1003.92,60.312C1002.07,59.544 1000.45,58.429 999.054,56.968C997.657,55.506 996.548,53.709 995.726,51.576C994.905,49.442 994.494,47.01 994.494,44.28C994.494,41.89 994.852,39.656 995.566,37.576C996.281,35.496 997.337,33.693 998.734,32.168C1000.13,30.642 1001.86,29.442 1003.92,28.568C1005.98,27.693 1008.36,27.256 1011.07,27.256C1013.67,27.256 1015.96,27.672 1017.92,28.504C1019.88,29.336 1021.65,30.552 1023.23,32.152L1020.61,35.64Z" style="fill:white;fill-rule:nonzero;"/>
        </g>
    </g>
    <g id="MRS">
        <g id="Icon-1024" serif:id="Icon 1024" transform="matrix(0.292969,0,0,0.292969,2186,408.355)">
            <g id="MRS1" serif:id="MRS">
                <g id="Icon-10241" serif:id="Icon 1024">
                    <path id="Rounded-Rectangle-1" serif:id="Rounded Rectangle 1" d="M1081,576L1081,1472C1081,1538.78 1026.78,1593 960,1593L64,1593C-2.783,1593 -57.003,1538.78 -57.003,1472L-57.003,576C-57.003,509.217 -2.783,454.997 64,454.997L960,454.997C1026.78,454.997 1081,509.217 1081,576ZM1024,576C1024,540.677 995.323,512 960,512L64,512C28.677,512 0,540.677 0,576L0,1472C0,1507.32 28.677,1536 64,1536L960,1536C995.323,1536 1024,1507.32 1024,1472L1024,576Z" style="fill:white;"/>
                    <g id="mrs" transform="matrix(0.433786,0,0,0.433786,489.64,605.593)">
                        <path d="M7.778,425.437C49.368,184.84 259.311,1.595 511.715,1.595C793.976,1.595 1023.13,230.755 1023.13,513.016C1023.13,795.277 793.976,1024.44 511.715,1024.44C473.98,1024.44 437.194,1020.34 401.779,1012.57C394.281,988.358 385.559,964.065 375.74,939.791C418.63,953.463 464.318,960.842 511.715,960.842C758.877,960.842 959.541,760.178 959.541,513.016C959.541,265.854 758.877,65.19 511.715,65.19C275.213,65.19 81.284,248.919 64.996,481.308C46.122,461.944 27.007,443.287 7.778,425.437Z" style="fill:white;"/>
                        <g transform="matrix(64,0,0,64,131.369,-199.16)">
                            <g transform="matrix(1.18578,0,0,1.04225,-0.781005,-0.466503)">
                                <path d="M4.561,15.916L4.878,15.916L4.878,15.06L4.663,15.06C4.318,15.06 4.07,14.975 3.92,14.806C3.769,14.637 3.694,14.356 3.694,13.962L3.694,12.399C3.694,12.03 3.593,11.743 3.392,11.54C3.19,11.337 2.891,11.214 2.494,11.173L2.494,11.035C2.891,10.994 3.19,10.871 3.392,10.666C3.593,10.461 3.694,10.174 3.694,9.804L3.694,8.261C3.694,7.868 3.769,7.587 3.92,7.418C4.07,7.249 4.318,7.164 4.663,7.164L4.878,7.164L4.878,6.308L4.561,6.308C3.897,6.308 3.411,6.455 3.102,6.749C2.793,7.043 2.638,7.502 2.638,8.128L2.638,9.456C2.638,9.856 2.552,10.135 2.382,10.294C2.211,10.453 1.91,10.533 1.479,10.533L1.479,11.671C1.91,11.674 2.211,11.755 2.382,11.914C2.552,12.073 2.638,12.351 2.638,12.747L2.638,14.091C2.638,14.716 2.793,15.177 3.102,15.472C3.411,15.768 3.897,15.916 4.561,15.916Z" style="fill:white;fill-rule:nonzero;"/>
                            </g>
                            <g transform="matrix(1.17903,0,0,1.04225,-1.37196,-0.466503)">
                                <path d="M7.334,15.916C7.997,15.916 8.483,15.768 8.793,15.472C9.102,15.177 9.257,14.716 9.257,14.091L9.257,12.747C9.257,12.351 9.342,12.073 9.513,11.914C9.684,11.755 9.985,11.674 10.415,11.671L10.415,10.533C9.985,10.533 9.684,10.453 9.513,10.294C9.342,10.135 9.257,9.856 9.257,9.456L9.257,8.128C9.257,7.502 9.102,7.043 8.793,6.749C8.483,6.455 7.997,6.308 7.334,6.308L7.016,6.308L7.016,7.164L7.232,7.164C7.58,7.164 7.829,7.249 7.978,7.418C8.126,7.587 8.201,7.868 8.201,8.261L8.201,9.804C8.201,10.174 8.301,10.461 8.503,10.666C8.705,10.871 9.006,10.994 9.405,11.035L9.405,11.173C9.006,11.214 8.705,11.337 8.503,11.54C8.301,11.743 8.201,12.03 8.201,12.399L8.201,13.962C8.201,14.356 8.125,14.637 7.975,14.806C7.825,14.975 7.577,15.06 7.232,15.06L7.016,15.06L7.016,15.916L7.334,15.916Z" style="fill:white;fill-rule:nonzero;"/>
                            </g>
                        </g>
                    </g>
                    <g id="Sakila" transform="matrix(1.06357,0,0,1.06357,-68.6954,-25.8009)">
                        <path d="M862.748,1225.02C861.425,1214.39 834.912,1201.51 826.284,1195.63C809.027,1183.88 791.207,1171.07 772.808,1160.36C763.175,1154.75 746.511,1150.4 736.343,1146.24C721.84,1140.34 689.913,1134.6 681.645,1123.94C665.936,1103.62 655.089,1078.98 643.975,1054.56C632.817,1030.08 618.71,1004.34 607.502,979.326C601.952,966.927 599.228,955.733 592.927,944.057C553.738,871.376 496.468,810.504 426.415,767.693C403.413,753.683 378.091,740.746 349.836,732.452C333.851,727.755 314.687,730.359 297.574,726.55L286.641,726.55C277.058,723.837 269.044,714.014 261.11,708.943C244.597,698.339 228.337,690.906 208.847,683.068C201.499,680.143 181.871,673.111 174.819,678.371C170.685,679.685 168.835,681.376 167.528,685.402C163.4,691.417 167.181,700.754 169.956,706.58C177.767,722.977 189.048,732.991 199.129,746.571C208.227,758.81 219.312,772.74 225.867,786.537C239.575,815.334 245.66,847.357 258.681,875.86C263.682,886.809 270.902,899.317 278.128,908.763C283.974,916.469 294.409,922.239 297.574,932.304C304.194,942.341 287.833,976.67 284.205,987.567C270.201,1029.62 273.157,1088.51 289.069,1125.09C295.363,1139.56 301.311,1156.42 318.235,1160.36C319.485,1159.42 318.531,1159.93 320.663,1159.18C324.277,1131.02 325.526,1103.89 335.253,1081.62C341.338,1067.66 352.914,1058.13 360.777,1046.32C366.544,1049.57 366.515,1058.93 369.282,1065.13C376.466,1081.24 383.865,1098.71 392.378,1114.52C410.213,1147.64 429.783,1179.47 451.932,1208.56C459.801,1218.9 470.381,1230.12 479.891,1239.13C483.931,1242.97 488.873,1244.96 492.038,1249.68L493.26,1249.68L493.26,1250.89C476.935,1245.47 466.991,1229.53 454.367,1220.32C430.013,1202.55 401.281,1176.17 385.087,1150.94C377.796,1136.85 370.496,1122.73 363.212,1108.62L363.212,1107.46C360.163,1111.4 361.117,1115.7 359.563,1121.55C352.69,1147.42 358.053,1176.76 334.039,1186.24C306.579,1197.05 286.612,1168.82 278.128,1155.66C250.494,1112.77 243.332,1040.79 262.331,982.87C266.544,969.985 266.964,954.23 274.479,944.057C273.264,934.932 265.59,932.328 261.11,926.426C253.803,916.79 247.445,905.436 241.663,894.672C230.239,873.39 222.557,848.349 213.712,825.319C210.12,815.981 209.398,807.122 205.206,798.266C198.818,784.846 187.392,771.45 178.461,759.48C165.743,742.465 130.181,709.638 144.432,676.008C167.014,622.734 245.211,663.259 275.7,681.886C283.352,686.584 291.844,696.246 300.002,699.521C313.371,700.325 326.747,701.08 340.117,701.884C365.026,707.601 388.605,711.976 408.182,723.034C500.204,775.102 559.62,828.083 614.801,915.851C626.298,934.128 632.318,954.23 641.539,974.629C655.053,1004.5 670.033,1035.56 685.296,1063.95C692.572,1077.53 697.725,1092.27 707.169,1103.94C711.166,1108.86 721.789,1110.39 727.837,1113.34C745.809,1122.12 766.781,1128.85 783.741,1139.21C814.331,1157.89 844.039,1180.28 871.253,1202.69C881.652,1211.25 888.46,1223.79 897.999,1233.23L897.999,1237.95C889.493,1240.32 880.98,1242.65 872.468,1245.01C853.599,1249.71 837.275,1248.5 818.992,1253.25C808.116,1256.07 794.313,1260.18 782.527,1261.47C782.931,1261.87 783.336,1262.24 783.741,1262.62C790.686,1281.36 827.887,1296.95 844.516,1308.49C865.364,1322.96 884.977,1340.41 900.427,1360.21C905.688,1365.31 910.963,1370.38 916.223,1375.48C919.816,1380.53 920.813,1387.13 924.737,1391.96L924.737,1393.14C917.294,1390.59 913.434,1384.26 907.718,1380.2C896.135,1371.99 884.34,1362.79 872.468,1355.51C852.328,1343.17 828.972,1336.14 808.052,1323.79C796.294,1316.84 784.999,1308.28 774.021,1300.25C763.984,1292.93 752.726,1278.94 746.07,1268.53C742.601,1263.08 741.922,1256.5 737.557,1252.07C738.858,1242.44 751.505,1242.36 759.439,1239.13C787.347,1227.76 820.004,1223.89 862.748,1225.02ZM319.456,777.115C326.228,779.751 330.556,784.014 334.039,788.872C336.655,792.52 338.439,795.551 339.625,801.17C342.209,813.409 336.706,820.191 329.176,825.319C328.771,825.696 328.366,826.098 327.961,826.472C323.908,818.259 320.839,809.459 315.806,801.806C308.496,790.689 306.139,787.864 298.788,780.631C298.5,780.348 297.986,780.631 297.574,780.631C297.574,780.23 297.219,779.666 297.574,779.478C305.273,775.398 313.278,774.71 319.456,777.115Z" style="fill:white;"/>
                    </g>
                </g>
            </g>
        </g>
        <g transform="matrix(1,0,0,1,2004.78,430.01)">
            <path d="M174.674,517.346C175.1,518.156 175.511,518.999 175.906,519.874C176.3,520.748 176.679,521.644 177.042,522.562C177.404,521.623 177.788,520.711 178.194,519.826C178.599,518.94 179.015,518.082 179.442,517.25L191.41,493.698C191.623,493.292 191.842,492.978 192.066,492.754C192.29,492.53 192.54,492.364 192.818,492.258C193.095,492.151 193.41,492.087 193.762,492.066C194.114,492.044 194.524,492.034 194.994,492.034L203.25,492.034L203.25,538.658L193.714,538.658L193.714,511.842C193.714,510.54 193.778,509.132 193.906,507.618L181.554,531.586C181.17,532.332 180.652,532.898 180.002,533.282C179.351,533.666 178.61,533.858 177.778,533.858L176.306,533.858C175.474,533.858 174.732,533.666 174.082,533.282C173.431,532.898 172.914,532.332 172.53,531.586L160.114,507.586C160.199,508.332 160.263,509.074 160.306,509.81C160.348,510.546 160.37,511.223 160.37,511.842L160.37,538.658L150.834,538.658L150.834,492.034L159.09,492.034C159.559,492.034 159.97,492.044 160.322,492.066C160.674,492.087 160.988,492.151 161.266,492.258C161.543,492.364 161.794,492.53 162.018,492.754C162.242,492.978 162.46,493.292 162.674,493.698L174.674,517.346Z" style="fill:rgb(171,222,241);fill-rule:nonzero;"/>
            <path d="M224.498,547.266C224.199,547.927 223.836,548.412 223.41,548.722C222.983,549.031 222.3,549.186 221.362,549.186L213.938,549.186L220.338,535.746L207.09,505.474L215.858,505.474C216.626,505.474 217.223,505.644 217.65,505.986C218.076,506.327 218.375,506.732 218.546,507.202L223.986,521.506C224.498,522.828 224.914,524.151 225.234,525.474C225.447,524.791 225.682,524.119 225.938,523.458C226.194,522.796 226.439,522.124 226.674,521.442L231.602,507.202C231.772,506.711 232.108,506.3 232.61,505.97C233.111,505.639 233.65,505.474 234.226,505.474L242.226,505.474L224.498,547.266Z" style="fill:rgb(171,222,241);fill-rule:nonzero;"/>
            <path d="M272.306,501.506C271.986,502.018 271.65,502.402 271.298,502.658C270.946,502.914 270.492,503.042 269.938,503.042C269.447,503.042 268.919,502.887 268.354,502.578C267.788,502.268 267.148,501.922 266.434,501.538C265.719,501.154 264.903,500.807 263.986,500.498C263.068,500.188 262.023,500.034 260.85,500.034C258.823,500.034 257.314,500.466 256.322,501.33C255.33,502.194 254.834,503.362 254.834,504.834C254.834,505.772 255.132,506.551 255.73,507.17C256.327,507.788 257.111,508.322 258.082,508.77C259.052,509.218 260.162,509.628 261.41,510.002C262.658,510.375 263.932,510.791 265.234,511.25C266.535,511.708 267.81,512.247 269.058,512.866C270.306,513.484 271.415,514.274 272.386,515.234C273.356,516.194 274.14,517.362 274.738,518.738C275.335,520.114 275.634,521.772 275.634,523.714C275.634,525.868 275.26,527.884 274.514,529.762C273.767,531.639 272.684,533.276 271.266,534.674C269.847,536.071 268.098,537.17 266.018,537.97C263.938,538.77 261.575,539.17 258.93,539.17C257.479,539.17 256.002,539.02 254.498,538.722C252.994,538.423 251.538,538.002 250.13,537.458C248.722,536.914 247.399,536.268 246.162,535.522C244.924,534.775 243.847,533.943 242.93,533.026L246.13,527.97C246.364,527.586 246.695,527.276 247.122,527.042C247.548,526.807 248.007,526.69 248.498,526.69C249.138,526.69 249.783,526.892 250.434,527.298C251.084,527.703 251.82,528.151 252.642,528.642C253.463,529.132 254.407,529.58 255.474,529.986C256.54,530.391 257.799,530.594 259.25,530.594C261.212,530.594 262.738,530.162 263.826,529.298C264.914,528.434 265.458,527.063 265.458,525.186C265.458,524.098 265.159,523.212 264.562,522.53C263.964,521.847 263.18,521.282 262.21,520.834C261.239,520.386 260.135,519.991 258.898,519.65C257.66,519.308 256.391,518.93 255.09,518.514C253.788,518.098 252.519,517.586 251.282,516.978C250.044,516.37 248.94,515.57 247.97,514.578C246.999,513.586 246.215,512.348 245.618,510.866C245.02,509.383 244.722,507.554 244.722,505.378C244.722,503.628 245.074,501.922 245.778,500.258C246.482,498.594 247.516,497.111 248.882,495.81C250.247,494.508 251.922,493.468 253.906,492.69C255.89,491.911 258.162,491.522 260.722,491.522C262.151,491.522 263.543,491.634 264.898,491.858C266.252,492.082 267.538,492.412 268.754,492.85C269.97,493.287 271.106,493.81 272.162,494.418C273.218,495.026 274.162,495.714 274.994,496.482L272.306,501.506Z" style="fill:rgb(171,222,241);fill-rule:nonzero;"/>
            <path d="M327.026,515.33C327.026,517.335 326.818,519.26 326.402,521.106C325.986,522.951 325.388,524.684 324.61,526.306C323.831,527.927 322.871,529.431 321.73,530.818C320.588,532.204 319.292,533.431 317.842,534.498L329.65,547.394L320.754,547.394C319.474,547.394 318.311,547.239 317.266,546.93C316.22,546.62 315.292,545.996 314.482,545.058L308.69,538.562C307.751,538.754 306.796,538.903 305.826,539.01C304.855,539.116 303.858,539.17 302.834,539.17C299.207,539.17 295.9,538.562 292.914,537.346C289.927,536.13 287.372,534.45 285.25,532.306C283.127,530.162 281.484,527.639 280.322,524.738C279.159,521.836 278.578,518.7 278.578,515.33C278.578,511.959 279.159,508.823 280.322,505.922C281.484,503.02 283.127,500.503 285.25,498.37C287.372,496.236 289.927,494.562 292.914,493.346C295.9,492.13 299.207,491.522 302.834,491.522C306.46,491.522 309.762,492.135 312.738,493.362C315.714,494.588 318.258,496.268 320.37,498.402C322.482,500.535 324.119,503.052 325.282,505.954C326.444,508.855 327.026,511.98 327.026,515.33ZM315.954,515.33C315.954,513.026 315.655,510.951 315.058,509.106C314.46,507.26 313.602,505.698 312.482,504.418C311.362,503.138 309.991,502.156 308.37,501.474C306.748,500.791 304.903,500.45 302.834,500.45C300.743,500.45 298.882,500.791 297.25,501.474C295.618,502.156 294.242,503.138 293.122,504.418C292.002,505.698 291.143,507.26 290.546,509.106C289.948,510.951 289.65,513.026 289.65,515.33C289.65,517.655 289.948,519.74 290.546,521.586C291.143,523.431 292.002,524.994 293.122,526.274C294.242,527.554 295.618,528.53 297.25,529.202C298.882,529.874 300.743,530.21 302.834,530.21C304.903,530.21 306.748,529.874 308.37,529.202C309.991,528.53 311.362,527.554 312.482,526.274C313.602,524.994 314.46,523.431 315.058,521.586C315.655,519.74 315.954,517.655 315.954,515.33Z" style="fill:rgb(171,222,241);fill-rule:nonzero;"/>
            <path d="M343.026,530.018L360.306,530.018L360.306,538.658L332.21,538.658L332.21,492.034L343.026,492.034L343.026,530.018Z" style="fill:rgb(171,222,241);fill-rule:nonzero;"/>
            <path d="M388.594,521.41L388.594,538.658L377.778,538.658L377.778,492.034L392.946,492.034C396.316,492.034 399.191,492.38 401.57,493.074C403.948,493.767 405.89,494.732 407.394,495.97C408.898,497.207 409.991,498.668 410.674,500.354C411.356,502.039 411.698,503.874 411.698,505.858C411.698,507.372 411.495,508.802 411.09,510.146C410.684,511.49 410.082,512.732 409.282,513.874C408.482,515.015 407.5,516.034 406.338,516.93C405.175,517.826 403.836,518.562 402.322,519.138C403.047,519.5 403.724,519.948 404.354,520.482C404.983,521.015 405.532,521.666 406.002,522.434L415.922,538.658L406.13,538.658C404.316,538.658 403.015,537.975 402.226,536.61L394.482,523.074C394.14,522.476 393.74,522.05 393.282,521.794C392.823,521.538 392.178,521.41 391.346,521.41L388.594,521.41ZM388.594,513.954L392.946,513.954C394.418,513.954 395.671,513.767 396.706,513.394C397.74,513.02 398.588,512.503 399.25,511.842C399.911,511.18 400.391,510.407 400.69,509.522C400.988,508.636 401.138,507.682 401.138,506.658C401.138,504.61 400.471,503.01 399.138,501.858C397.804,500.706 395.74,500.13 392.946,500.13L388.594,500.13L388.594,513.954Z" style="fill:rgb(171,222,241);fill-rule:nonzero;"/>
            <path d="M450.354,492.034L450.354,500.354L431.218,500.354L431.218,511.234L445.874,511.234L445.874,519.234L431.218,519.234L431.218,530.338L450.354,530.338L450.354,538.658L420.338,538.658L420.338,492.034L450.354,492.034Z" style="fill:rgb(171,222,241);fill-rule:nonzero;"/>
            <path d="M482.482,501.506C482.162,502.018 481.826,502.402 481.474,502.658C481.122,502.914 480.668,503.042 480.114,503.042C479.623,503.042 479.095,502.887 478.53,502.578C477.964,502.268 477.324,501.922 476.61,501.538C475.895,501.154 475.079,500.807 474.162,500.498C473.244,500.188 472.199,500.034 471.026,500.034C468.999,500.034 467.49,500.466 466.498,501.33C465.506,502.194 465.01,503.362 465.01,504.834C465.01,505.772 465.308,506.551 465.906,507.17C466.503,507.788 467.287,508.322 468.258,508.77C469.228,509.218 470.338,509.628 471.586,510.002C472.834,510.375 474.108,510.791 475.41,511.25C476.711,511.708 477.986,512.247 479.234,512.866C480.482,513.484 481.591,514.274 482.562,515.234C483.532,516.194 484.316,517.362 484.914,518.738C485.511,520.114 485.81,521.772 485.81,523.714C485.81,525.868 485.436,527.884 484.69,529.762C483.943,531.639 482.86,533.276 481.442,534.674C480.023,536.071 478.274,537.17 476.194,537.97C474.114,538.77 471.751,539.17 469.106,539.17C467.655,539.17 466.178,539.02 464.674,538.722C463.17,538.423 461.714,538.002 460.306,537.458C458.898,536.914 457.575,536.268 456.338,535.522C455.1,534.775 454.023,533.943 453.106,533.026L456.306,527.97C456.54,527.586 456.871,527.276 457.298,527.042C457.724,526.807 458.183,526.69 458.674,526.69C459.314,526.69 459.959,526.892 460.61,527.298C461.26,527.703 461.996,528.151 462.818,528.642C463.639,529.132 464.583,529.58 465.65,529.986C466.716,530.391 467.975,530.594 469.426,530.594C471.388,530.594 472.914,530.162 474.002,529.298C475.09,528.434 475.634,527.063 475.634,525.186C475.634,524.098 475.335,523.212 474.738,522.53C474.14,521.847 473.356,521.282 472.386,520.834C471.415,520.386 470.311,519.991 469.074,519.65C467.836,519.308 466.567,518.93 465.266,518.514C463.964,518.098 462.695,517.586 461.458,516.978C460.22,516.37 459.116,515.57 458.146,514.578C457.175,513.586 456.391,512.348 455.794,510.866C455.196,509.383 454.898,507.554 454.898,505.378C454.898,503.628 455.25,501.922 455.954,500.258C456.658,498.594 457.692,497.111 459.058,495.81C460.423,494.508 462.098,493.468 464.082,492.69C466.066,491.911 468.338,491.522 470.898,491.522C472.327,491.522 473.719,491.634 475.074,491.858C476.428,492.082 477.714,492.412 478.93,492.85C480.146,493.287 481.282,493.81 482.338,494.418C483.394,495.026 484.338,495.714 485.17,496.482L482.482,501.506Z" style="fill:rgb(171,222,241);fill-rule:nonzero;"/>
            <path d="M525.042,492.034L525.042,500.61L511.922,500.61L511.922,538.658L501.106,538.658L501.106,500.61L487.986,500.61L487.986,492.034L525.042,492.034Z" style="fill:rgb(171,222,241);fill-rule:nonzero;"/>
            <path d="M258.418,565.506C258.098,566.018 257.762,566.402 257.41,566.658C257.058,566.914 256.604,567.042 256.05,567.042C255.559,567.042 255.031,566.887 254.466,566.578C253.9,566.268 253.26,565.922 252.546,565.538C251.831,565.154 251.015,564.807 250.098,564.498C249.18,564.188 248.135,564.034 246.962,564.034C244.935,564.034 243.426,564.466 242.434,565.33C241.442,566.194 240.946,567.362 240.946,568.834C240.946,569.772 241.244,570.551 241.842,571.17C242.439,571.788 243.223,572.322 244.194,572.77C245.164,573.218 246.274,573.628 247.522,574.002C248.77,574.375 250.044,574.791 251.346,575.25C252.647,575.708 253.922,576.247 255.17,576.866C256.418,577.484 257.527,578.274 258.498,579.234C259.468,580.194 260.252,581.362 260.85,582.738C261.447,584.114 261.746,585.772 261.746,587.714C261.746,589.868 261.372,591.884 260.626,593.762C259.879,595.639 258.796,597.276 257.378,598.674C255.959,600.071 254.21,601.17 252.13,601.97C250.05,602.77 247.687,603.17 245.042,603.17C243.591,603.17 242.114,603.02 240.61,602.722C239.106,602.423 237.65,602.002 236.242,601.458C234.834,600.914 233.511,600.268 232.274,599.522C231.036,598.775 229.959,597.943 229.042,597.026L232.242,591.97C232.476,591.586 232.807,591.276 233.234,591.042C233.66,590.807 234.119,590.69 234.61,590.69C235.25,590.69 235.895,590.892 236.546,591.298C237.196,591.703 237.932,592.151 238.754,592.642C239.575,593.132 240.519,593.58 241.586,593.986C242.652,594.391 243.911,594.594 245.362,594.594C247.324,594.594 248.85,594.162 249.938,593.298C251.026,592.434 251.57,591.063 251.57,589.186C251.57,588.098 251.271,587.212 250.674,586.53C250.076,585.847 249.292,585.282 248.322,584.834C247.351,584.386 246.247,583.991 245.01,583.65C243.772,583.308 242.503,582.93 241.202,582.514C239.9,582.098 238.631,581.586 237.394,580.978C236.156,580.37 235.052,579.57 234.082,578.578C233.111,577.586 232.327,576.348 231.73,574.866C231.132,573.383 230.834,571.554 230.834,569.378C230.834,567.628 231.186,565.922 231.89,564.258C232.594,562.594 233.628,561.111 234.994,559.81C236.359,558.508 238.034,557.468 240.018,556.69C242.002,555.911 244.274,555.522 246.834,555.522C248.263,555.522 249.655,555.634 251.01,555.858C252.364,556.082 253.65,556.412 254.866,556.85C256.082,557.287 257.218,557.81 258.274,558.418C259.33,559.026 260.274,559.714 261.106,560.482L258.418,565.506Z" style="fill:rgb(171,222,241);fill-rule:nonzero;"/>
            <path d="M281.33,568.962C283.527,568.962 285.538,569.303 287.362,569.986C289.186,570.668 290.754,571.66 292.066,572.962C293.378,574.263 294.402,575.858 295.138,577.746C295.874,579.634 296.242,581.772 296.242,584.162C296.242,584.908 296.21,585.516 296.146,585.986C296.082,586.455 295.964,586.828 295.794,587.106C295.623,587.383 295.394,587.575 295.106,587.682C294.818,587.788 294.45,587.842 294.002,587.842L274.866,587.842C275.186,590.615 276.028,592.626 277.394,593.874C278.759,595.122 280.519,595.746 282.674,595.746C283.826,595.746 284.818,595.607 285.65,595.33C286.482,595.052 287.223,594.743 287.874,594.402C288.524,594.06 289.122,593.751 289.666,593.474C290.21,593.196 290.78,593.058 291.378,593.058C292.167,593.058 292.764,593.346 293.17,593.922L296.05,597.474C295.026,598.647 293.922,599.602 292.738,600.338C291.554,601.074 290.338,601.65 289.09,602.066C287.842,602.482 286.594,602.77 285.346,602.93C284.098,603.09 282.908,603.17 281.778,603.17C279.452,603.17 277.271,602.791 275.234,602.034C273.196,601.276 271.415,600.151 269.89,598.658C268.364,597.164 267.159,595.308 266.274,593.09C265.388,590.871 264.946,588.29 264.946,585.346C264.946,583.127 265.324,581.026 266.082,579.042C266.839,577.058 267.927,575.319 269.346,573.826C270.764,572.332 272.482,571.148 274.498,570.274C276.514,569.399 278.791,568.962 281.33,568.962ZM281.522,575.81C279.623,575.81 278.14,576.348 277.074,577.426C276.007,578.503 275.303,580.055 274.962,582.082L287.346,582.082C287.346,581.292 287.244,580.524 287.042,579.778C286.839,579.031 286.508,578.364 286.05,577.778C285.591,577.191 284.988,576.716 284.242,576.354C283.495,575.991 282.588,575.81 281.522,575.81Z" style="fill:rgb(171,222,241);fill-rule:nonzero;"/>
            <path d="M301.938,602.658L301.938,569.474L307.826,569.474C308.316,569.474 308.727,569.516 309.058,569.602C309.388,569.687 309.666,569.82 309.89,570.002C310.114,570.183 310.284,570.423 310.402,570.722C310.519,571.02 310.62,571.383 310.706,571.81L311.25,574.914C312.466,573.036 313.831,571.554 315.346,570.466C316.86,569.378 318.514,568.834 320.306,568.834C321.82,568.834 323.036,569.196 323.954,569.922L322.674,577.218C322.588,577.666 322.418,577.98 322.162,578.162C321.906,578.343 321.564,578.434 321.138,578.434C320.775,578.434 320.348,578.386 319.858,578.29C319.367,578.194 318.748,578.146 318.002,578.146C315.399,578.146 313.351,579.532 311.858,582.306L311.858,602.658L301.938,602.658Z" style="fill:rgb(171,222,241);fill-rule:nonzero;"/>
            <path d="M346.738,602.658L337.714,602.658L324.85,569.474L333.106,569.474C333.81,569.474 334.402,569.639 334.882,569.97C335.362,570.3 335.687,570.711 335.858,571.202L340.466,586.082C340.828,587.298 341.175,588.482 341.506,589.634C341.836,590.786 342.119,591.938 342.354,593.09C342.588,591.938 342.876,590.786 343.218,589.634C343.559,588.482 343.922,587.298 344.306,586.082L349.106,571.202C349.276,570.711 349.596,570.3 350.066,569.97C350.535,569.639 351.09,569.474 351.73,569.474L359.602,569.474L346.738,602.658Z" style="fill:rgb(171,222,241);fill-rule:nonzero;"/>
            <path d="M374.002,569.474L374.002,602.658L364.082,602.658L364.082,569.474L374.002,569.474ZM375.154,560.386C375.154,561.175 374.994,561.916 374.674,562.61C374.354,563.303 373.916,563.911 373.362,564.434C372.807,564.956 372.162,565.372 371.426,565.682C370.69,565.991 369.906,566.146 369.074,566.146C368.263,566.146 367.506,565.991 366.802,565.682C366.098,565.372 365.474,564.956 364.93,564.434C364.386,563.911 363.959,563.303 363.65,562.61C363.34,561.916 363.186,561.175 363.186,560.386C363.186,559.575 363.34,558.818 363.65,558.114C363.959,557.41 364.386,556.791 364.93,556.258C365.474,555.724 366.098,555.308 366.802,555.01C367.506,554.711 368.263,554.562 369.074,554.562C369.906,554.562 370.69,554.711 371.426,555.01C372.162,555.308 372.807,555.724 373.362,556.258C373.916,556.791 374.354,557.41 374.674,558.114C374.994,558.818 375.154,559.575 375.154,560.386Z" style="fill:rgb(171,222,241);fill-rule:nonzero;"/>
            <path d="M405.938,577.346C405.639,577.708 405.351,577.996 405.074,578.21C404.796,578.423 404.402,578.53 403.89,578.53C403.399,578.53 402.956,578.412 402.562,578.178C402.167,577.943 401.724,577.682 401.234,577.394C400.743,577.106 400.167,576.844 399.506,576.61C398.844,576.375 398.023,576.258 397.042,576.258C395.826,576.258 394.775,576.482 393.89,576.93C393.004,577.378 392.274,578.018 391.698,578.85C391.122,579.682 390.695,580.7 390.418,581.906C390.14,583.111 390.002,584.471 390.002,585.986C390.002,589.164 390.615,591.607 391.842,593.314C393.068,595.02 394.759,595.874 396.914,595.874C398.066,595.874 398.978,595.73 399.65,595.442C400.322,595.154 400.892,594.834 401.362,594.482C401.831,594.13 402.263,593.804 402.658,593.506C403.052,593.207 403.548,593.058 404.146,593.058C404.935,593.058 405.532,593.346 405.938,593.922L408.818,597.474C407.794,598.647 406.716,599.602 405.586,600.338C404.455,601.074 403.298,601.65 402.114,602.066C400.93,602.482 399.74,602.77 398.546,602.93C397.351,603.09 396.188,603.17 395.058,603.17C393.031,603.17 391.095,602.786 389.25,602.018C387.404,601.25 385.783,600.135 384.386,598.674C382.988,597.212 381.879,595.415 381.058,593.282C380.236,591.148 379.826,588.716 379.826,585.986C379.826,583.596 380.183,581.362 380.898,579.282C381.612,577.202 382.668,575.399 384.066,573.874C385.463,572.348 387.191,571.148 389.25,570.274C391.308,569.399 393.692,568.962 396.402,568.962C399.004,568.962 401.287,569.378 403.25,570.21C405.212,571.042 406.983,572.258 408.562,573.858L405.938,577.346Z" style="fill:rgb(171,222,241);fill-rule:nonzero;"/>
            <path d="M427.314,568.962C429.511,568.962 431.522,569.303 433.346,569.986C435.17,570.668 436.738,571.66 438.05,572.962C439.362,574.263 440.386,575.858 441.122,577.746C441.858,579.634 442.226,581.772 442.226,584.162C442.226,584.908 442.194,585.516 442.13,585.986C442.066,586.455 441.948,586.828 441.778,587.106C441.607,587.383 441.378,587.575 441.09,587.682C440.802,587.788 440.434,587.842 439.986,587.842L420.85,587.842C421.17,590.615 422.012,592.626 423.378,593.874C424.743,595.122 426.503,595.746 428.658,595.746C429.81,595.746 430.802,595.607 431.634,595.33C432.466,595.052 433.207,594.743 433.858,594.402C434.508,594.06 435.106,593.751 435.65,593.474C436.194,593.196 436.764,593.058 437.362,593.058C438.151,593.058 438.748,593.346 439.154,593.922L442.034,597.474C441.01,598.647 439.906,599.602 438.722,600.338C437.538,601.074 436.322,601.65 435.074,602.066C433.826,602.482 432.578,602.77 431.33,602.93C430.082,603.09 428.892,603.17 427.762,603.17C425.436,603.17 423.255,602.791 421.218,602.034C419.18,601.276 417.399,600.151 415.874,598.658C414.348,597.164 413.143,595.308 412.258,593.09C411.372,590.871 410.93,588.29 410.93,585.346C410.93,583.127 411.308,581.026 412.066,579.042C412.823,577.058 413.911,575.319 415.33,573.826C416.748,572.332 418.466,571.148 420.482,570.274C422.498,569.399 424.775,568.962 427.314,568.962ZM427.506,575.81C425.607,575.81 424.124,576.348 423.058,577.426C421.991,578.503 421.287,580.055 420.946,582.082L433.33,582.082C433.33,581.292 433.228,580.524 433.026,579.778C432.823,579.031 432.492,578.364 432.034,577.778C431.575,577.191 430.972,576.716 430.226,576.354C429.479,575.991 428.572,575.81 427.506,575.81Z" style="fill:rgb(171,222,241);fill-rule:nonzero;"/>
        </g>
    </g>
    <g id="Workflow">
        <path d="M2342.72,514L2342.72,327L1525,327" style="fill:none;stroke:rgb(171,222,241);stroke-width:9px;stroke-linecap:round;stroke-miterlimit:1.5;"/>
        <path d="M423.5,490.136L410,503.636L396.5,490.136" style="fill:none;stroke:rgb(171,222,241);stroke-width:9px;stroke-linecap:round;stroke-linejoin:miter;stroke-miterlimit:10;"/>
        <path d="M1214,327L410,326L410,503.636" style="fill:none;stroke:rgb(171,222,241);stroke-width:9px;stroke-linecap:round;stroke-miterlimit:1.5;"/>
        <g transform="matrix(-1,0,0,-1,2752.72,1590)">
            <path d="M2342.72,604L2342.72,327L1525,327" style="fill:none;stroke:rgb(171,222,241);stroke-width:9px;stroke-linecap:round;stroke-miterlimit:1.5;"/>
        </g>
        <g transform="matrix(-1,0,0,-1,2752.72,1590)">
            <g transform="matrix(-1,-0,-0,-1,2752.72,1590)">
                <path d="M2329.22,1099.86L2342.72,1086.36L2356.22,1099.86" style="fill:none;stroke:rgb(171,222,241);stroke-width:9px;stroke-linecap:round;stroke-linejoin:miter;stroke-miterlimit:10;"/>
                <path d="M1538.72,1263L2342.72,1264L2342.72,1086.36" style="fill:none;stroke:rgb(171,222,241);stroke-width:9px;stroke-linecap:round;stroke-miterlimit:1.5;"/>
            </g>
        </g>
    </g>
</svg>
