<?xml version="1.0" encoding="UTF-8" standalone="no"?>
<!DOCTYPE svg PUBLIC "-//W3C//DTD SVG 1.1//EN" "http://www.w3.org/Graphics/SVG/1.1/DTD/svg11.dtd">
<svg class="railroad-diagram" width="777" height="132" viewBox="0 0 777 132" id="jsonObj" xmlns="http://www.w3.org/2000/svg" xmlns:xlink="http://www.w3.org/1999/xlink"><g transform="translate(.5 .5)"><g><path d="M20 37v20m0 -10h20"></path></g><g><path d="M40 47h0"></path><path d="M737 47h0"></path><path d="M40 47h20"></path><g><path d="M60 47h0"></path><g><path d="M60 47h10"></path><path d="M707 47h10"></path><g class="terminal "><path d="M70 47h0"></path><path d="M175 47h0"></path><rect x="70" y="36" width="105" height="22"></rect><text x="122.5" y="51">OPEN_CURLY</text></g><path d="M175 47h10"></path><path d="M185 47h10"></path><g class="non-terminal "><path d="M195 47h0"></path><path d="M283 47h0"></path><rect x="195" y="36" width="88" height="22" rx="10" ry="10"></rect><text x="239" y="51">jsonPair</text></g><path d="M283 47h10"></path><g><path d="M293 47h0"></path><path d="M583.5 47h0"></path><path d="M293 47a10 10 0 0 0 10 -10v-7a10 10 0 0 1 10 -10"></path><g><path d="M313 20h250.5"></path></g><path d="M563.5 20a10 10 0 0 1 10 10v7a10 10 0 0 0 10 10"></path><path d="M293 47h20"></path><g><path d="M313 47h0"></path><path d="M563.5 47h0"></path><path d="M313 47h10"></path><g><path d="M323 47h0"></path><path d="M553.5 47h0"></path><path d="M323 47h20"></path><g><path d="M343 47h0"></path><g><path d="M343 47h10"></path><path d="M523.5 47h10"></path><g class="terminal "><path d="M353 47h0"></path><path d="M415.5 47h0"></path><rect x="353" y="36" width="62.5" height="22"></rect><text x="384.25" y="51">COMMA</text></g><path d="M415.5 47h10"></path><path d="M425.5 47h10"></path><g class="non-terminal "><path d="M435.5 47h0"></path><path d="M523.5 47h0"></path><rect x="435.5" y="36" width="88" height="22" rx="10" ry="10"></rect><text x="479.5" y="51">jsonPair</text></g></g><path d="M533.5 47h0"></path></g><path d="M533.5 47h20"></path></g><path d="M553.5 47h10"></path><path d="M323 47a10 10 0 0 0 -10 10v7a10 10 0 0 0 10 10"></path><g><path d="M323 74h230.5"></path></g><path d="M553.5 74a10 10 0 0 0 10 -10v-7a10 10 0 0 0 -10 -10"></path></g><path d="M563.5 47h20"></path></g><path d="M583.5 47h10"></path><g class="terminal "><path d="M593.5 47h0"></path><path d="M707 47h0"></path><rect x="593.5" y="36" width="113.5" height="22"></rect><text x="650.25" y="51">CLOSE_CURLY</text></g></g><path d="M717 47h0"></path></g><path d="M717 47h20"></path><path d="M40 47a10 10 0 0 1 10 10v34a10 10 0 0 0 10 10"></path><g><path d="M60 101h199.25"></path><g><path d="M259.25 101h10"></path><path d="M507.75 101h10"></path><g class="terminal "><path d="M269.25 101h0"></path><path d="M374.25 101h0"></path><rect x="269.25" y="90" width="105" height="22"></rect><text x="321.75" y="105">OPEN_CURLY</text></g><path d="M374.25 101h10"></path><path d="M384.25 101h10"></path><g class="terminal "><path d="M394.25 101h0"></path><path d="M507.75 101h0"></path><rect x="394.25" y="90" width="113.5" height="22"></rect><text x="451" y="105">CLOSE_CURLY</text></g></g><path d="M517.75 101h199.25"></path></g><path d="M717 101a10 10 0 0 0 10 -10v-34a10 10 0 0 1 10 -10"></path></g><path d="M 737 47 h 20 m 0 -10 v 20"></path></g><defs><style type="text/css"><![CDATA[
svg.railroad-diagram path { stroke-width: 2; stroke: darkgray; fill: rgba(0, 0, 0, 0); }svg.railroad-diagram text { font: bold 12px Hack, "Source Code Pro", monospace; text-anchor: middle; fill: #404040; }svg.railroad-diagram text.comment { font: italic 10px Hack, "Source Code Pro", monospace; fill: #404040; }svg.railroad-diagram g.terminal rect { stroke-width: 2; stroke: #404040; fill: rgba(200, 200, 200, 0.8); }svg.railroad-diagram g.non-terminal rect { stroke-width: 2; stroke: #404040; fill: rgba(255, 255, 255, 1); }svg.railroad-diagram text.diagram-text { font-size: 12px Hack, "Source Code Pro", monospace; fill: red; }svg.railroad-diagram path.diagram-text { stroke-width: 1; stroke: red; fill: red; cursor: help; }
 ]]>
</style></defs></svg>