<svg xmlns="http://www.w3.org/2000/svg" width="100%" height="100%" viewBox="0 460 4000 1550" fill-rule="evenodd" stroke-miterlimit="10" xmlns:v="https://vecta.io/nano"><style><![CDATA[.B{font-size:41.667px}.C{fill:#fcfbfa}.D{font-family:Helvetica}.E{font-family:Menlo-Regular, Menlo, monospace}.F{font-size:33.333px}.G{font-family:ArialMT, Arial, sans-serif}.H{fill:#312d2a}.I{fill-rule:nonzero}.J{font-family:HelveticaNeue, Helvetica Neue}.K{fill:#66bb8a}.L{fill:#facd62}.M{fill-opacity:.4}.N{font-size:58.333px}.O{stroke-width:2.25}.P{stroke-width:9.375}.Q{fill:#ffc000}.R{fill:#cdbcac}]]></style><g class="I"><path d="M118.556 923.692c0-33.621 27.667-61.292 61.292-61.292h913.651c33.625 0 61.292 27.671 61.292 61.292v446.78c0 33.625-27.667 61.292-61.292 61.292H179.848c-33.625 0-61.292-27.667-61.292-61.292v-446.78z" class="M"/><path d="M0 418.956c0-8.011 6.592-14.603 14.602-14.603h218.492c8.01 0 14.602 6.592 14.602 14.603v106.442c0 8.01-6.592 14.602-14.602 14.602H14.602C6.592 540 0 533.408 0 525.398V418.956z" fill="url(#A)" transform="matrix(4.16667 0 0 4.16667 111.8 -829.161)"/><path d="M1422.55 572.138c0-33.888 27.883-61.771 61.767-61.771h1050.638c33.883 0 61.767 27.883 61.767 61.771v247.067c0 33.883-27.883 61.767-61.767 61.767H1484.317c-33.883 0-61.767-27.883-61.767-61.767V572.138z" fill="#4e3f2f"/><path d="M898.369 1443.268c0-36.975 30.429-67.404 67.404-67.404h982.588c36.979 0 67.408 30.429 67.408 67.404v438.509c0 36.975-30.429 67.404-67.408 67.404H965.773c-36.975 0-67.404-30.429-67.404-67.404v-438.509z" class="M"/><path d="M0 419.464c0-8.81 7.25-16.06 16.06-16.06h235.056c8.81 0 16.06 7.25 16.06 16.06V523.94c0 8.81-7.25 16.06-16.06 16.06H16.06C7.25 540 0 532.75 0 523.94V419.464z" fill="url(#B)" transform="matrix(4.16667 0 0 4.16667 891.613 -311.743)"/><path d="M978.148 1564.943c0-7.175 5.904-13.079 13.079-13.079h923.384c7.175 0 13.079 5.904 13.079 13.079v180.704c0 7.175-5.904 13.079-13.079 13.079H991.227c-7.175 0-13.079-5.904-13.079-13.079v-180.704z" fill="#050504"/><path d="M1949.06 1260.049c0-30.063 24.738-54.8 54.8-54.8h989.942c30.063 0 54.8 24.738 54.8 54.8v420.638c0 30.063-24.738 54.8-54.8 54.8H2003.86c-30.063 0-54.8-24.738-54.8-54.8v-420.638z" class="M"/><path d="M0 426.792c0-7.158 5.89-13.049 13.049-13.049h236.792c7.158 0 13.049 5.891 13.049 13.049v100.159c0 7.159-5.891 13.049-13.049 13.049H13.049C5.89 540 0 534.11 0 526.951V426.792z" fill="url(#C)" transform="matrix(4.16667 0 0 4.16667 1942.31 -525.437)"/><path d="M2843.85 913.923c0-30.021 24.7-54.721 54.721-54.721h908.734c30.017 0 54.721 24.7 54.721 54.721v370.721c0 30.021-24.704 54.721-54.721 54.721h-908.734c-30.021 0-54.721-24.7-54.721-54.721V913.923z" class="M"/><path d="M0 438.78c0-7.142 5.877-13.019 13.019-13.019h217.324c7.142 0 13.019 5.877 13.019 13.019v88.201c0 7.142-5.877 13.019-13.019 13.019H13.019C5.877 540 0 534.123 0 526.981V438.78z" fill="url(#D)" transform="matrix(4.16667 0 0 4.16667 2837.1 -921.559)"/></g><text x="45.282" y="269.273" transform="translate(143.394 720.806)" class="C J N">1. R<tspan x="152.266px 190.066px 227.924px 263.551px 282.961px 317.538px 332.632px 348.847px 403.914px 437.397px 473.039px 490.305px 528.164px 561.647px 584.339px 614.672px 629.761px 663.225px 696.689px" y="269.273px 269.273px 269.273px 269.273px 269.273px 269.273px 269.273px 269.273px 269.273px 269.273px 269.273px 269.273px 269.273px 269.273px 269.273px 269.273px 269.273px 269.273px 269.273px">ESTful Web Services</tspan></text><text x="188.676" y="1078.912" class="B C G">•</text><text x="116.741" y="358.106" transform="translate(143.394 720.806)" class="B C D">A<tspan x="143.764px 166.954px 180.102px 204.041px 216.385px 244.949px 270.431px 297.448px 321.394px 332.196px 344.546px 368.493px" y="358.106px 358.106px 358.106px 358.106px 358.106px 358.106px 358.106px 358.106px 358.106px 358.106px 358.106px 358.106px">uto REST for</tspan> t<tspan x="407.138px 429.536px 454.268px 463.541px 485.939px" y="358.106px 358.106px 358.106px 358.106px 358.106px">ables</tspan>, vi<tspan x="560.131px 582.529px 614.136px" y="358.106px 358.106px 358.106px">ews</tspan> a<tspan x="668.99px 692.18px 716.911px 727.862px 741.76px 765.7px 788.89px 802.038px" y="358.106px 358.106px 358.106px 358.106px 358.106px 358.106px 358.106px 358.106px">nd routi</tspan>ne<tspan x="856.899px" y="358.106px">s</tspan></text><text x="188.676" y="1164.246" class="B C G">•</text><text x="116.741" y="443.44" transform="translate(143.394 720.806)" class="B C D">{J<tspan x="152.243px 179.268px 210.912px" y="443.44px 443.44px 443.44px">SON</tspan>} re<tspan x="302.692px 323.526px 348.236px 372.154px" y="443.44px 443.44px 443.44px 443.44px">spon</tspan>se<tspan x="438.532px" y="443.44px">s</tspan> w<tspan x="502.534px 511.785px 524.912px" y="443.44px 443.44px 443.44px">ith</tspan> p<tspan x="584.365px 606.742px 630.659px 653.036px 677.745px 690.864px 704.74px 727.116px" y="443.44px 443.44px 443.44px 443.44px 443.44px 443.44px 443.44px 443.44px">aged res</tspan>ult<tspan x="793.496px" y="443.44px">s</tspan></text><text x="188.676" y="1249.579" class="B C G">•</text><text x="116.741" y="528.773" transform="translate(143.394 720.806)" class="B C D">D<tspan x="146.08px 168.502px 189.362px 211.764px 221.041px 244.984px 269.719px 292.121px" y="528.773px 528.773px 528.773px 528.773px 528.773px 528.773px 528.773px 528.773px">eveloper</tspan> sup<tspan x="386.411px 411.146px 435.09px 448.991px 462.143px 475.295px 486.113px 517.765px 547.875px 558.693px 570.294px 579.739px" y="528.773px 528.773px 528.773px 528.773px 528.773px 528.773px 528.773px 528.773px 528.773px 528.773px 528.773px 528.773px">port (GUI, C</tspan>LI<tspan x="643.87px" y="528.773px">,</tspan> A<tspan x="693.975px 721.004px 731.818px" y="528.773px 528.773px 528.773px">PI)</tspan></text><text x="188.676" y="1334.912" class="B C G">•</text><text x="116.741" y="614.106" transform="translate(143.394 720.806)" class="B C D">S<tspan x="143.766px 166.958px 191.692px 216.425px 240.368px 254.268px 267.418px 280.569px 292.921px 316.869px" y="614.106px 614.106px 614.106px 614.106px 614.106px 614.106px 614.106px 614.106px 614.106px 614.106px">upport for</tspan> p<tspan x="367.105px 391.047px 415.781px" y="614.106px 614.106px 614.106px">opu</tspan>la<tspan x="470.649px" y="614.106px">r</tspan> O<tspan x="527.818px 554.868px 578.06px 591.21px" y="614.106px 614.106px 614.106px 614.106px">Auth</tspan>2 <tspan x="646.988px 667.843px 690.243px" y="614.106px 614.106px 614.106px">ser</tspan>vic<tspan x="756.678px 779.079px" y="614.106px 614.106px">es</tspan></text><text x="360.417" y="207.416" font-size="100" transform="translate(1141.32 430.719)" class="C J">M<tspan x="451.117px 503.017px 567.917px 645.717px 705.017px 732.815px 805.015px 869.815px 934.715px 995.815px" y="207.416px 207.416px 207.416px 207.416px 207.416px 207.416px 207.416px 207.416px 207.416px 207.416px">ySQL REST </tspan>Se<tspan x="1145.91px 1184.81px 1236.81px 1262.66px 1320.01px" y="207.416px 207.416px 207.416px 207.416px 207.416px">rvice</tspan></text><text x="398.569" y="307.791" font-size="66.667" transform="translate(1141.32 430.719)" class="C D">F<tspan x="436.836px 472.636px 505.969px 526.969px" y="307.791px 307.791px 307.791px 307.791px">ast,</tspan> S<tspan x="607.241px 643.047px 678.847px" y="307.791px 307.791px 307.791px">ecu</tspan>re<tspan x="773.913px 791.168px 839.302px 877.568px 915.835px 959.035px 1002.24px 1022.03px 1065.24px 1101.04px 1136.84px 1172.63px" y="307.791px 307.791px 307.791px 307.791px 307.791px 307.791px 307.791px 307.791px 307.791px 307.791px 307.791px 307.791px"> HTTPS Acces</tspan>s f<tspan x="1277.56px 1315.83px" y="307.791px 307.791px">or</tspan></text><text x="560.771" y="387.791" font-size="66.667" transform="translate(1141.32 430.719)" class="C D">M<tspan x="618.837px 652.171px 695.409px 746.037px 783.104px 801.636px 848.537px 884.37px 905.37px 941.17px 958.425px 1000.43px 1020.24px 1063.43px 1102.97px 1142.5px" y="387.791px 387.791px 387.791px 387.791px 387.791px 387.791px 387.791px 387.791px 387.791px 387.791px 387.791px 387.791px 387.791px 387.791px 387.791px 387.791px">ySQL Data &amp; Apps</tspan></text><text x="232.864" y="392.931" transform="translate(737.403 1112.39)" class="C J N">2. R<tspan x="339.847px 377.647px 415.506px 451.147px" y="392.931px 392.931px 392.931px 392.931px">EST </tspan>SQ<tspan x="550.604px 585.196px 601.411px 639.211px 670.536px 691.06px 724.534px 759.116px 790.431px 805.529px 841.161px" y="392.931px 392.931px 392.931px 392.931px 392.931px 392.931px 392.931px 392.931px 392.931px 392.931px 392.931px">L Extension</tspan></text><text x="1045.463" y="1604.071" class="E F Q">sql&gt;</text><text x="1145.803" y="1604.071" class="E F K">CONFIGURE REST METADATA</text><text x="1607.364" y="1604.071" class="E F R">;</text><text x="1045.463" y="1638.071" class="E F Q">sql&gt;</text><text x="1145.805" y="1638.071" class="E F K">CREATE REST SERVICE</text><text x="1547.168" y="1638.071" class="E F L">/myService</text><text x="1747.843" y="1638.071" class="E F R">;</text><text x="1045.463" y="1672.071" class="E F Q">sql&gt;</text><text x="1145.803" y="1672.071" class="E F K">CREATE REST SCHEMA</text><text x="1527.09" y="1672.071" class="E F L">/sakila</text><text x="1145.804" y="1706.071" class="E F K">ON SERVICE</text><text x="1366.555" y="1706.071" class="E F L">/myService</text><text x="1587.3" y="1706.071" class="E F K">FROM</text><text x="1687.642" y="1706.071" class="E F L">`sakila</text><text x="1828.113" y="1706.071" class="E F R">`;</text><text x="976.752" y="1813.988" class="B C G">•</text><text x="310.802" y="701.598" transform="translate(737.403 1112.39)" class="B C D">F<tspan x="334.758px" y="701.598px">u</tspan>ll<tspan x="376.551px" y="701.598px">y</tspan> m<tspan x="444.613px 467.028px 490.235px 512.651px 536.608px 559.023px 581.438px 606.187px 615.477px 637.892px 648.711px 661.876px" y="701.598px 701.598px 701.598px 701.598px 701.598px 701.598px 701.598px 701.598px 701.598px 701.598px 701.598px 701.598px">anageable th</tspan>ro<tspan x="722.955px 746.162px 770.119px" y="701.598px 701.598px 701.598px">ugh</tspan> R<tspan x="833.519px 859.017px 886.057px 910.014px 920.096px 947.161px 978.843px 1002.05px 1013.66px 1036.08px 1057.7px 1070.87px 1093.28px" y="701.598px 701.598px 701.598px 701.598px 701.598px 701.598px 701.598px 701.598px 701.598px 701.598px 701.598px 701.598px 701.598px">EST SQL exten</tspan>si<tspan x="1146.65px 1170.61px" y="701.598px 701.598px">on</tspan></text><text x="976.752" y="1880.988" class="B C G">•</text><text x="310.802" y="768.598" transform="translate(737.403 1112.39)" class="B C D">F<tspan x="334.76px" y="768.598px">u</tspan>ll<tspan x="376.55px 388.161px 419.828px 449.952px 460.785px 471.618px" y="768.598px 768.598px 768.598px 768.598px 768.598px 768.598px"> GUI s</tspan>up<tspan x="540.451px 565.201px 589.159px 603.075px 616.241px 629.408px 641.776px 665.741px" y="768.598px 768.598px 768.598px 768.598px 768.598px 768.598px 768.598px 768.598px">port for</tspan> i<tspan x="700.56px 723.77px 746.186px 760.102px 782.519px 804.935px 825.81px 848.226px 872.976px 882.591px 905.007px 927.424px 948.298px 970.715px 986.965px 1010.93px 1023.3px 1039.55px" y="768.598px 768.598px 768.598px 768.598px 768.598px 768.598px 768.598px 768.598px 768.598px 768.598px 768.598px 768.598px 768.598px 768.598px 768.598px 768.598px 768.598px 768.598px">ncreased ease-of-u</tspan>se</text><text x="484.149" y="351.102" transform="translate(1533.14 979.93)" class="H J N">3. P<tspan x="587.939px 623.58px 671.064px 704.547px 727.239px 746.651px 781.229px 796.325px 812.506px 855.718px 889.188px 909.709px 943.179px 959.447px 1012.4px 1045.87px 1081.51px 1117.15px 1132.23px 1166.8px" y="351.102px 351.102px 351.102px 351.102px 351.102px 351.102px 351.102px 351.102px 351.102px 351.102px 351.102px 351.102px 351.102px 351.102px 351.102px 351.102px 351.102px 351.102px 351.102px 351.102px">owerful Data Mapping</tspan></text><text x="2017.289" y="1419.865" class="B G H">•</text><text x="506.502" y="363.485" transform="translate(1603.92 1056.39)" class="B D H">Ne<tspan x="558.96px 579.794px 592.919px 615.294px 640.002px 653.121px 677.038px 704.038px 732.579px 755.746px 781.204px" y="363.485px 363.485px 363.485px 363.485px 363.485px 363.485px 363.485px 363.485px 363.485px 363.485px 363.485px">sted TABLEs</tspan> t<tspan x="826.745px 850.662px 860.708px 889.25px 914.708px 941.708px 965.625px 975.672px 998.047px 1021.21px 1045.92px 1070.63px 1094.55px" y="363.485px 363.485px 363.485px 363.485px 363.485px 363.485px 363.485px 363.485px 363.485px 363.485px 363.485px 363.485px 363.485px">o REST endpoi</tspan>nt<tspan x="1140.09px" y="363.485px">s</tspan> m<tspan x="1208.05px 1230.42px 1255.13px 1279.84px" y="363.485px 363.485px 363.485px 363.485px">appi</tspan>ng</text><text x="2017.289" y="1505.214" class="B G H">•</text><text x="506.502" y="383.965" transform="translate(1603.92 1121.25)" class="B D H">V<tspan x="531.96px 541.213px" y="383.965px 383.965px">is</tspan>ua<tspan x="607.585px" y="383.965px">l</tspan> D<tspan x="657.724px 680.119px 693.244px 715.619px 726.403px 762.695px 785.07px 809.778px 834.486px" y="383.965px 383.965px 383.965px 383.965px 383.965px 383.965px 383.965px 383.965px 383.965px">ata Mappi</tspan>ng<tspan x="890.82px 903.146px 928.605px 953.313px 962.563px 975.688px 999.605px" y="383.965px 383.965px 383.965px 383.965px 383.965px 383.965px 383.965px"> Editor</tspan> t<tspan x="1038.19px 1062.1px 1074.43px 1099.14px" y="383.965px 383.965px 383.965px 383.965px">o bu</tspan>ild<tspan x="1165.52px 1176.42px 1198.79px 1222.75px 1258.25px 1282.95px 1292.2px 1314.58px" y="383.965px 383.965px 383.965px 383.965px 383.965px 383.965px 383.965px 383.965px"> complex</tspan></text><text x="506.502" y="433.965" transform="translate(1603.92 1121.25)" class="B D H">J<tspan x="528.127px 555.151px 586.794px" y="433.965px 433.965px 433.965px">SON</tspan> st<tspan x="662.413px" y="433.965px">r</tspan>uc<tspan x="721.833px 734.955px" y="433.965px 433.965px">tu</tspan>re<tspan x="794.372px" y="433.965px">s</tspan> w<tspan x="858.37px 867.62px 880.745px" y="433.965px 433.965px 433.965px">ith</tspan> e<tspan x="937.862px 960.237px" y="433.965px 433.965px">as</tspan>e</text><text x="2017.289" y="1640.544" class="B G H">•</text><text x="506.502" y="416.445" transform="translate(1603.92 1224.1)" class="B D H">S<tspan x="533.526px 565.169px 588.335px 599.911px 626.161px 636.201px 663.218px 692.534px" y="416.445px 416.445px 416.445px 416.445px 416.445px 416.445px 416.445px 416.445px">QL &amp; SDK</tspan> P<tspan x="758.908px 772.783px 795.158px" y="416.445px 416.445px 416.445px">rev</tspan>ie<tspan x="847.617px" y="416.445px">w</tspan></text><text x="698.89" y="268.041" transform="translate(2213.15 716.906)" class="C J N">4. C<tspan x="807.008px 822.093px 837.178px 870.638px 905.206px 925.716px" y="268.041px 268.041px 268.041px 268.041px 268.041px 268.041px">lient </tspan>SD<tspan x="1022.99px 1065.1px 1076.69px 1120.96px 1154.45px 1189.04px 1222.52px 1245.21px 1278.68px 1299.2px 1314.29px 1349.92px" y="268.041px 268.041px 268.041px 268.041px 268.041px 268.041px 268.041px 268.041px 268.041px 268.041px 268.041px 268.041px">K Generation</tspan></text><text x="2912.04" y="1073.781" class="B C G">•</text><text x="770.348" y="356.875" transform="translate(2213.15 716.906)" class="B C D">T<tspan x="794.311px 816.733px" y="356.875px 356.875px">ai</tspan>lo<tspan x="859.288px 873.21px 895.631px 920.386px 933.544px 960.607px 989.97px 1017.81px 1027.31px 1039.68px 1063.65px" y="356.875px 356.875px 356.875px 356.875px 356.875px 356.875px 356.875px 356.875px 356.875px 356.875px 356.875px">red SDK for</tspan> a<tspan x="1111.61px" y="356.875px">l</tspan>l <tspan x="1141.82px 1170.41px 1195.91px 1222.96px 1246.92px 1259.3px" y="356.875px 356.875px 356.875px 356.875px 356.875px 356.875px">RESTfu</tspan>l <tspan x="1303.43px 1328.93px 1352.15px 1376.9px 1401.66px 1425.62px" y="356.875px 356.875px 356.875px 356.875px 356.875px 356.875px">Endpoi</tspan>nt<tspan x="1471.3px" y="356.875px">s</tspan></text><text x="2912.04" y="1159.114" class="B C G">•</text><text x="770.348" y="442.208" transform="translate(2213.15 716.906)" class="B C D">F<tspan x="794.318px" y="442.208px">u</tspan>ll<tspan x="836.148px 857.029px 873.29px 886.468px 907.354px 932.115px 954.543px 979.304px 990.306px 1017.38px 1046.75px 1074.59px 1086.22px 1099.4px 1123.37px 1135.74px 1160.5px 1174.43px 1196.86px 1217.74px 1240.17px 1263.39px 1276.57px 1286.68px 1309.11px 1323.03px 1336.96px 1360.93px" y="442.208px 442.208px 442.208px 442.208px 442.208px 442.208px 442.208px 442.208px 442.208px 442.208px 442.208px 442.208px 442.208px 442.208px 442.208px 442.208px 442.208px 442.208px 442.208px 442.208px 442.208px 442.208px 442.208px 442.208px 442.208px 442.208px 442.208px 442.208px">y-typed SDK to prevent error</tspan>s</text><text x="2912.04" y="1244.447" class="B C G">•</text><text x="770.348" y="527.541" transform="translate(2213.15 716.906)" class="B C D">P<tspan x="797.369px 821.306px 846.035px" y="527.541px 527.541px 527.541px">opu</tspan>la<tspan x="900.889px 914.788px 926.389px 937.989px 965.01px" y="527.541px 527.541px 527.541px 527.541px 527.541px">r, Pr</tspan>ism<tspan x="1044.59px 1066.99px 1083.22px" y="527.541px 527.541px 527.541px">a-l</tspan>ik<tspan x="1123.4px 1145.81px 1156.61px 1183.63px 1210.65px 1221.46px" y="527.541px 527.541px 527.541px 527.541px 527.541px 527.541px">e API,</tspan> live<tspan x="1306.45px 1317.25px 1341.98px 1355.87px 1379.81px 1392.96px 1416.89px 1430.04px 1450.89px 1475.62px" y="527.541px 527.541px 527.541px 527.541px 527.541px 527.541px 527.541px 527.541px 527.541px 527.541px"> prototypi</tspan>ng</text><g stroke="#678a8a"><path d="M-77.409 436.103h216.858" fill="none" transform="matrix(-3.99248 1.19201 1.19201 3.99248 1180.11 -768.826)" class="O"/><path d="M2000.017 882.714c4.025 13.475 21.987 8.108 17.967-5.367s-21.987-8.108-17.967 5.367m-847.829 253.131c-4.025-13.475-21.991-8.108-17.967 5.367s21.987 8.108 17.967-5.367" fill="#678a8a" class="I P"/></g><g stroke="#2b6242"><path d="M-30.645 472.633h178.738" fill="none" transform="matrix(-3.14083 2.73787 2.73787 3.14083 619.302 -520.82)" class="O"/><path d="M2002.493 885.898c9.242 10.604 23.375-1.717 14.133-12.317s-23.375 1.717-14.133 12.317m-547.25 477.042c-9.242-10.6-23.375 1.721-14.133 12.321s23.375-1.721 14.133-12.321" fill="#2b6242" class="I P"/></g><g stroke="#facd62"><path d="M2009.557 879.742l480.369 318.749" fill="none" class="P"/><g class="I L O"><path d="M1.244 541.875c-2.812 1.866-5.3-1.884-2.488-3.75s5.3 1.884 2.488 3.75" transform="matrix(0 4.16663 4.16663 0 -240.417 879.743)"/><path d="M75.257 422.835c2.812-1.866 5.3 1.884 2.488 3.75s-5.301-1.884-2.488-3.75" transform="matrix(0 4.16663 4.16663 0 720.325 879.743)"/></g></g><g stroke="#c74634"><path d="M2009.56 879.746l827.527 210.7" fill="none" class="P"/><g fill="#c74634" class="I O"><path d="M.555 542.18c-3.27.833-4.381-3.528-1.11-4.36s4.381 3.528 1.11 4.36" transform="matrix(0 4.16663 4.16663 0 -240.416 879.744)"/><path d="M50.013 339.211c3.271-.833 4.381 3.528 1.111 4.361s-4.381-3.528-1.111-4.361" transform="matrix(0 4.16663 4.16663 0 1414.64 879.744)"/></g></g><defs><linearGradient id="A" x1="0" y1="0" x2="1" y2="0" gradientTransform="matrix(8.30596e-15,135.647,135.647,-8.30596e-15,0,404.353)" href="#E"><stop offset="0" stop-color="#2c5967"/><stop offset="1" stop-color="#1d4d5c"/></linearGradient><linearGradient id="B" x1="0" y1="0" x2="1" y2="0" gradientTransform="matrix(8.36409e-15,136.596,136.596,-8.36409e-15,0,403.404)" href="#E"><stop offset="0" stop-color="#2b6242"/></linearGradient><linearGradient id="C" x1="0" y1="0" x2="1" y2="0" gradientTransform="matrix(7.73099e-15,126.257,126.257,-7.73099e-15,0,413.743)" href="#E"><stop offset="0" stop-color="#facd62"/><stop offset="1" stop-color="#f2b738"/></linearGradient><linearGradient id="D" x1="0" y1="0" x2="1" y2="0" gradientTransform="matrix(6.99511e-15,114.239,114.239,-6.99511e-15,0,425.761)" href="#E"><stop offset="0" stop-color="#c74634"/><stop offset="1" stop-color="#ad3b2b"/></linearGradient><linearGradient id="E" gradientUnits="userSpaceOnUse"/></defs></svg>