<svg xmlns="http://www.w3.org/2000/svg" width="100%" height="100%" viewBox="0 0 1280 720" fill-rule="evenodd" stroke-miterlimit="10" xmlns:v="https://vecta.io/nano"><style><![CDATA[.B{stroke-width:3}.C{fill:#63231a}.D{font-family:Helvetica}.E{fill-rule:nonzero}.F{fill:#312d2a}.G{font-size:13.333px}.H{fill:none}.I{stroke:#005a85}.J{fill:#eaefef}.K{fill:#f2f5f5}.L{fill:#fcfbfa}.M{fill:#f5dad5}.N{stroke:#64231a}.O{stroke-width:2}.P{font-size:24px}.Q{stroke-width:2.25}.R{stroke:#312d2a}.S{stroke:#cdc8c8}]]></style><path d="M0 0h1279.997v719.998H0z" class="L"/><path d="M104.64 162.293h-24" stroke="#facd62" stroke-width="4" class="H"/><path d="M0 410.134h937.145V540H0z" fill="url(#A)" transform="matrix(1.33333 0 0 -1.33333 15.5164 1218.75)"/><path d="M0 281.111h937.145V540H0z" fill="url(#B)" transform="matrix(1.33333 0 0 1.33333 15.5164 -224.647)"/><use href="#C" class="E J"/><ellipse cx="17.902" cy="535.66" rx="4.34" ry="17.902" transform="matrix(0 1.33333 1.33333 0 -144.762 246.299)" class="K"/><use href="#D" class="B H I"/><use href="#E" class="E J"/><ellipse cx="17.902" cy="535.66" rx="4.34" ry="17.902" transform="matrix(0 1.33333 1.33333 0 -144.648 234.725)" class="K"/><use href="#F" class="B H I"/><use href="#E" y="-11.574" class="E J"/><ellipse cx="17.902" cy="535.66" rx="4.34" ry="17.902" transform="matrix(0 1.33333 1.33333 0 -144.648 223.151)" class="K"/><g class="B H I"><use href="#F" y="-11.574"/><path d="M534.608 264.59H180.924m344.684 4.5l9-4.5-9-4.5"/><path d="M189.924 260.09l-9 4.5 9 4.5"/></g><g class="E"><use href="#G" class="M N O"/><g class="C"><use href="#H"/><use href="#I"/><use href="#I" x="4.96" y="0.077"/></g></g><ellipse cx="1.271" cy="538.847" rx="1.153" ry="1.271" transform="matrix(0 1.33333 1.33333 0 311.875 406.027)" class="C"/><ellipse cx="1.271" cy="538.847" rx="1.153" ry="1.271" transform="matrix(0 1.33333 1.33333 0 317.149 406.027)" class="C"/><g class="E"><use href="#G" y="27.346" class="M N O"/><g class="C"><use href="#I" x="-4.96" y="27.423"/><use href="#I" y="27.346"/><use href="#I" x="4.96" y="27.423"/></g></g><ellipse cx="1.271" cy="538.847" rx="1.153" ry="1.271" transform="matrix(0 1.33333 1.33333 0 311.875 433.374)" class="C"/><ellipse cx="1.271" cy="538.847" rx="1.153" ry="1.271" transform="matrix(0 1.33333 1.33333 0 317.149 433.374)" class="C"/><g class="E"><use href="#G" y="54.692" class="M N O"/><g class="C"><use href="#I" x="-4.96" y="54.769"/><use href="#I" y="54.693"/><use href="#I" x="4.96" y="54.769"/></g></g><ellipse cx="1.271" cy="538.847" rx="1.153" ry="1.271" transform="matrix(0 1.33333 1.33333 0 311.875 460.72)" class="C"/><ellipse cx="1.271" cy="538.847" rx="1.153" ry="1.271" transform="matrix(0 1.33333 1.33333 0 317.149 460.72)" class="C"/><use href="#E" x="602.674" y="180.864" class="E J"/><ellipse cx="17.902" cy="535.66" rx="4.34" ry="17.902" transform="matrix(0 1.33333 1.33333 0 458.028 415.589)" class="K"/><use href="#F" x="602.674" y="180.864" class="B H I"/><use href="#E" x="602.794" y="169.29" class="E J"/><ellipse cx="17.902" cy="535.66" rx="4.34" ry="17.902" transform="matrix(0 1.33333 1.33333 0 458.143 404.015)" class="K"/><use href="#F" x="602.794" y="169.29" class="B H I"/><use href="#E" x="602.794" y="157.716" class="E J"/><ellipse cx="17.902" cy="535.66" rx="4.34" ry="17.902" transform="matrix(0 1.33333 1.33333 0 458.143 392.441)" class="K"/><g class="H"><g class="I"><g class="B"><use href="#F" x="602.794" y="157.716"/><path d="M1148.49 433.567h-107.067m98.067 4.5l9-4.5-9-4.5"/><path d="M1050.423 429.067l-9 4.5 9 4.5m-165.343-4.673h-30.727"/><path d="M876.08 437.894l9-4.5-9-4.5m-12.727 0l-9 4.5 9 4.5"/></g><path d="M-1.327 529.594h82.954" transform="matrix(-1.29067 -.334527 -.334527 1.29067 1323.94 -250.304)" class="Q"/><g class="B"><path d="M1138.649 435.772l9.841-2.099-7.583-6.613m-89.643-23.237l-9.841 2.099 7.584 6.613"/><path d="M1148.488 433.671l-107.066 26.942m99.439-20.381l7.629-6.56-9.827-2.168"/><path d="M1049.054 454.053l-7.631 6.56 9.827 2.168"/></g></g><g class="S B"><path d="M813.555 249.335a11.89 11.89 0 0 1-.143-1.832c0-7.452 7.027-13.585 15.567-13.585 2.765 0 5.481.644 7.868 1.864 2.131-3.504 6.315-5.703 10.856-5.703 3.225 0 6.324 1.109 8.623 3.087 1.7-2.977 5.195-4.865 9.004-4.865 3.136 0 6.099 1.28 8 3.459 2.125-2.184 5.252-3.445 8.54-3.445 5.396 0 10.061 3.396 11.017 8.021 5.335 1.269 9.064 5.539 9.064 10.373 0 1.457-.339 2.899-.996 4.237 2.096 2.38 3.232 5.3 3.232 8.303 0 6.751-5.748 12.536-13.405 13.492-.059 6.344-6.06 11.536-13.335 11.536-2.496 0-4.943-.611-7.061-1.764-1.981 5.729-8.056 9.675-14.895 9.675-5.192 0-10.053-2.273-12.939-6.052-2.768 1.457-5.937 2.228-9.168 2.228-6.369 0-12.272-2.996-15.439-7.837-.389.04-.78.06-1.171.06-5.513 0-10.051-3.949-10.051-8.748 0-2.22.971-4.359 2.713-5.979-3.065-1.575-4.955-4.467-4.955-7.584 0-4.481 3.908-8.281 8.988-8.741l.084-.199z"/><path d="M815.383 266.789l-.777.027c-1.78 0-3.527-.416-5.061-1.204m10.991 14.072a11.32 11.32 0 0 1-2.555.563m24.567 5.632c-.616-.807-1.132-1.669-1.54-2.572m30.004-3.843c-.091.957-.297 1.904-.615 2.823m12.836-20.261c4.577 1.945 7.495 6.013 7.495 10.455l-.001.093m10.183-21.783c-.748 1.525-1.891 2.88-3.337 3.955m-4.669-18.632c.117.571.177 1.149.177 1.729l-.001.139m-21.488-4.047c.435-.861 1.011-1.664 1.709-2.383m-17.699 3.519c.177-.712.455-1.403.828-2.055m-19.593 2.752c1.088.556 2.093 1.225 2.996 1.993m-25.753 13.672c-.237-.685-.412-1.387-.523-2.097l.523 2.097z"/></g><path d="M925.685 432.398h73.99m-64.99-4.5l-9 4.5 9 4.5m55.991 0l9-4.5-9-4.5" class="I B"/></g><text x="427.366" y="78.182" font-size="32" transform="translate(20.125 18.41)" class="D F">M<tspan x="455.078px 472.55px 494.662px 520.321px 538.566px 547.904px 570.688px 589.285px 607.882px 616.324px 639.881px 658.734px 676.174px 695.027px 703.768px 722.312px 740.855px 768.258px 787.111px 805.74px" y="78.182px 78.182px 78.182px 78.182px 78.182px 78.182px 78.182px 78.182px 78.182px 78.182px 78.182px 78.182px 78.182px 78.182px 78.182px 78.182px 78.182px 78.182px 78.182px 78.182px">ySQL App Development</tspan></text><text x="286.935" y="111.342" font-size="18.667" fill="#c74634" transform="translate(20.125 18.41)" class="D">Common DB Development <tspan x="513.113px 525.564px" y="111.342px 111.342px">Ar</tspan>chitectures vs. MySQL<tspan x="717.818px 723.004px" y="111.342px 111.342px"> R</tspan>EST<tspan x="772.46px 777.646px" y="111.342px 111.342px"> S</tspan>ervice Development</text><text x="81.457" y="158.775" transform="translate(27.152 47.187)" class="D F P">Cla<tspan x="117.575px" y="158.775px">s</tspan>si<tspan x="147.013px" y="158.775px">c</tspan> C<tspan x="183.119px" y="158.775px">l</tspan>ie<tspan x="207.236px" y="158.775px">n</tspan>t/<tspan x="234.026px" y="158.775px">S</tspan>er<tspan x="271.479px" y="158.775px">v</tspan>er<tspan x="304.925px 310.372px" y="158.775px 158.775px"> J</tspan>av<tspan x="347.825px" y="158.775px">a</tspan>/C<tspan x="385.279px" y="158.775px">#</tspan>/.<tspan x="412.068px" y="158.775px">.</tspan>. A<tspan x="448.165px" y="158.775px">p</tspan>ps</text><text x="220.073" y="216.15" transform="translate(73.358 68.862)" class="D F G">MySQ<tspan x="257.245px 264.205px 267.943px" y="216.15px 216.15px 216.15px">L P</tspan>rot<tspan x="292.529px" y="216.15px">o</tspan>co<tspan x="314.127px" y="216.15px">l</tspan>/S<tspan x="329.786px" y="216.15px">Q</tspan>L</text><text x="81.457" y="274.624" transform="translate(27.152 85.803)" class="D F P">App<tspan x="124.263px" y="274.624px">l</tspan>ic<tspan x="147.03px" y="274.624px">a</tspan>ti<tspan x="172.481px" y="274.624px">o</tspan>n <tspan x="205.947px" y="274.624px">S</tspan>er<tspan x="243.397px" y="274.624px">v</tspan>er<tspan x="276.84px 288.874px 294.891px" y="274.624px 274.624px 274.624px">s +</tspan> O<tspan x="334.345px" y="274.624px">R</tspan>M <tspan x="378.44px 400.705px 414.087px 427.469px 432.859px 448.901px" y="274.624px 274.624px 274.624px 274.624px 274.624px 274.624px">Web Ap</tspan>ps</text><text x="81.457" y="412.179" transform="translate(27.152 131.655)" class="D F P">M<tspan x="101.789px 114.441px 130.573px 149.364px 161.717px 170.708px 188.356px 204.224px 220.379px 234.909px 243.448px 259.604px 273.255px 281.551px 293.699px 299.611px 311.543px 325.23px 335.123px 343.455px 349.845px 366.193px 379.88px 388.212px 400.552px 414.24px 422.572px 428.244px 441.931px 454.271px 466.611px 468.287px 484.634px 492.966px 505.306px 518.993px 524.665px 531.673px 545.36px 557.7px 564.708px 578.395px 586.727px" y="412.179px 412.179px 412.179px 412.179px 412.179px 412.179px 412.179px 412.179px 412.179px 412.179px 412.179px 412.179px 412.179px 412.179px 412.179px 412.179px 412.179px 412.179px 412.179px 412.179px 412.179px 412.179px 412.179px 412.179px 412.179px 412.179px 412.179px 412.179px 412.179px 412.179px 412.179px 412.179px 412.179px 412.179px 412.179px 412.179px 412.179px 412.179px 412.179px 412.179px 412.179px 412.179px 412.179px">ySQL REST Service - Serverless Architecture</tspan></text><text x="762.998" y="295.886" transform="translate(214.061 95.441)" class="D F G">MicroServi<tspan x="829.451px" y="295.886px">c</tspan>es</text><text x="642.183" y="303.941" transform="translate(214.061 95.441)" class="D F G">API <tspan x="667.485px" y="303.941px">G</tspan>ate<tspan x="696.498px" y="303.941px">w</tspan>ays</text><text x="530.765" y="158.618" transform="translate(176.922 47.134)" class="D F P">C<tspan x="548.289px 553.813px 567.353px 579.545px 591.737px 597.261px 609.453px 614.537px 630.736px 648.26px 664.46px 671.32px 683.512px 697.052px 709.244px 722.783px 729.643px 736.503px 743.363px 750.223px 758.667px 781.09px 794.629px 808.169px 813.716px 829.916px 843.456px 856.995px" y="158.618px 158.618px 158.618px 158.618px 158.618px 158.618px 158.618px 158.618px 158.618px 158.618px 158.618px 158.618px 158.618px 158.618px 158.618px 158.618px 158.618px 158.618px 158.618px 158.618px 158.618px 158.618px 158.618px 158.618px 158.618px 158.618px 158.618px 158.618px">lassic PHP/Java/... Web Apps</tspan></text><g class="H I"><g class="B"><path d="M925.685 431.734l73.99-25.815"/><path d="M932.7 424.528l-7.015 7.213 9.98 1.284m56.996-19.885l7.015-7.213-9.98-1.284"/></g><path d="M-2.038 529.171h59.569" transform="matrix(1.24209 .484768 .484768 -1.24209 671.691 1090)" class="Q"/><path d="M935.705 430.814l-10.02.92 6.748 7.464m57.223 22.333l10.02-.92-6.748-7.464" class="B"/></g><g class="E"><use href="#G" x="-668.7" y="3.125" class="M N O"/><g class="C"><use href="#H" x="-668.695" y="3.125"/><use href="#I" x="-668.698" y="3.126"/><use href="#I" x="-663.741" y="3.202"/></g></g><ellipse cx="1.271" cy="538.847" rx="1.153" ry="1.271" transform="matrix(0 1.33333 1.33333 0 -356.825 409.153)" class="C"/><ellipse cx="1.271" cy="538.847" rx="1.153" ry="1.271" transform="matrix(0 1.33333 1.33333 0 -351.551 409.153)" class="C"/><g class="E"><use href="#G" x="-668.7" y="17.138" class="M N O"/><g class="C"><use href="#I" x="-673.656" y="17.215"/><use href="#I" x="-668.698" y="17.138"/><use href="#I" x="-663.741" y="17.215"/></g></g><ellipse cx="1.271" cy="538.847" rx="1.153" ry="1.271" transform="matrix(0 1.33333 1.33333 0 -356.825 423.166)" class="C"/><ellipse cx="1.271" cy="538.847" rx="1.153" ry="1.271" transform="matrix(0 1.33333 1.33333 0 -351.551 423.166)" class="C"/><g class="E"><use href="#G" x="-668.7" y="31.151" class="M N O"/><g class="C"><use href="#I" x="-673.656" y="31.228"/><use href="#I" x="-668.698" y="31.151"/><use href="#I" x="-663.741" y="31.228"/></g></g><ellipse cx="1.271" cy="538.847" rx="1.153" ry="1.271" transform="matrix(0 1.33333 1.33333 0 -356.825 437.179)" class="C"/><ellipse cx="1.271" cy="538.847" rx="1.153" ry="1.271" transform="matrix(0 1.33333 1.33333 0 -351.551 437.179)" class="C"/><use href="#E" x="-0.504" y="172.041" class="E J"/><ellipse cx="17.902" cy="535.66" rx="4.34" ry="17.902" transform="matrix(0 1.33333 1.33333 0 -145.152 406.765)" class="K"/><use href="#F" x="-0.504" y="172.041" class="B H I"/><use href="#E" x="-0.39" y="160.467" class="E J"/><ellipse cx="17.902" cy="535.66" rx="4.34" ry="17.902" transform="matrix(0 1.33333 1.33333 0 -145.038 395.191)" class="K"/><use href="#F" x="-0.39" y="160.467" class="B H I"/><use href="#E" x="-0.39" y="148.893" class="E J"/><ellipse cx="17.902" cy="535.66" rx="4.34" ry="17.902" transform="matrix(0 1.33333 1.33333 0 -145.038 383.617)" class="K"/><g class="B H I"><use href="#F" x="-0.39" y="148.893"/><path d="M544.64 423.957H443.526m92.114 4.5l9-4.5-9-4.5"/><path d="M452.526 419.457l-9 4.5 9 4.5m-177.208-4.641H170.494"/><path d="M266.318 428.316l9-4.5-9-4.5m-86.824 0l-9 4.5 9 4.5"/></g><g class="E"><use href="#G" x="-69.52" y="-163.974" class="M N O"/><g class="C"><use href="#H" x="-69.516" y="-163.974"/><use href="#I" x="-69.518" y="-163.973"/><use href="#I" x="-64.561" y="-163.897"/></g></g><ellipse cx="1.271" cy="538.847" rx="1.153" ry="1.271" transform="matrix(0 1.33333 1.33333 0 242.355 242.054)" class="C"/><ellipse cx="1.271" cy="538.847" rx="1.153" ry="1.271" transform="matrix(0 1.33333 1.33333 0 247.629 242.054)" class="C"/><g class="E"><use href="#G" x="-69.52" y="-149.961" class="M N O"/><g class="C"><use href="#I" x="-74.476" y="-149.884"/><use href="#I" x="-69.518" y="-149.961"/><use href="#I" x="-64.561" y="-149.884"/></g></g><ellipse cx="1.271" cy="538.847" rx="1.153" ry="1.271" transform="matrix(0 1.33333 1.33333 0 242.355 256.067)" class="C"/><ellipse cx="1.271" cy="538.847" rx="1.153" ry="1.271" transform="matrix(0 1.33333 1.33333 0 247.628 256.067)" class="C"/><g class="E"><use href="#G" x="-69.52" y="-135.948" class="M N O"/><g class="C"><use href="#I" x="-74.476" y="-135.871"/><use href="#I" x="-69.518" y="-135.948"/><use href="#I" x="-64.561" y="-135.871"/></g></g><ellipse cx="1.271" cy="538.847" rx="1.153" ry="1.271" transform="matrix(0 1.33333 1.33333 0 242.355 270.08)" class="C"/><ellipse cx="1.271" cy="538.847" rx="1.153" ry="1.271" transform="matrix(0 1.33333 1.33333 0 247.628 270.08)" class="C"/><use href="#E" x="598.674" y="4.942" class="E J"/><ellipse cx="17.902" cy="535.66" rx="4.34" ry="17.902" transform="matrix(0 1.33333 1.33333 0 454.028 239.666)" class="K"/><use href="#F" x="598.674" y="4.942" class="B H I"/><path d="M1144.49 251.96c0 3.175 10.775 5.787 23.869 5.787s23.869-2.612 23.869-5.787v11.575c0 3.175-10.776 5.787-23.869 5.787s-23.869-2.612-23.869-5.787V251.96z" class="E J"/><ellipse cx="17.902" cy="535.66" rx="4.34" ry="17.902" transform="matrix(0 1.33333 1.33333 0 454.142 228.092)" class="K"/><path d="M1192.229 251.96c0 3.175-10.776 5.787-23.869 5.787s-23.869-2.612-23.869-5.787 10.775-5.787 23.869-5.787 23.869 2.612 23.869 5.787v11.575c0 3.175-10.776 5.787-23.869 5.787s-23.869-2.612-23.869-5.787V251.96" class="B H I"/><use href="#E" x="598.794" y="-18.206" class="E J"/><ellipse cx="17.902" cy="535.66" rx="4.34" ry="17.902" transform="matrix(0 1.33333 1.33333 0 454.142 216.518)" class="K"/><g class="B H I"><use href="#F" x="598.794" y="-18.206"/><path d="M1144.49 256.854H971.904m163.586 4.5l9-4.5-9-4.5"/><path d="M980.904 252.354l-9 4.5 9 4.5m-50.748-4.637H769.675"/><path d="M921.156 261.217l9-4.5-9-4.5m-142.481 0l-9 4.5 9 4.5"/></g><text x="477.125" y="446.425" class="D F G">MySQL</text><text x="355.416" y="353.21" transform="translate(118.472 109.215)" class="D F G">Pr<tspan x="368.902px 376.394px 380.174px 387.666px 394.409px" y="353.21px 353.21px 353.21px 353.21px 353.21px">otoco</tspan>l</text><text x="530.765" y="274.466" transform="translate(176.922 85.75)" class="D F P">Micro-Servi<tspan x="652.211px" y="274.466px">c</tspan>e <tspan x="682.944px 698.962px" y="274.466px 274.466px">Ar</tspan>chitecture</text><text x="530.765" y="412.022" transform="translate(176.922 131.602)" class="D F P">M<tspan x="551.136px 563.826px 579.997px 598.828px 611.219px 620.011px 637.698px 653.604px 669.799px 684.368px 692.746px 708.94px 722.631px 730.966px 743.152px 749.103px 761.074px 774.8px 784.416px 792.787px 799.133px 819.504px 833.23px 846.957px 852.667px 858.378px 872.104px 875.15px 891.536px 905.262px 918.989px 931.367px 938.414px 954.801px 976.953px 993.339px 1005.72px 1012.76px 1029.15px 1042.88px 1056.6px" y="412.022px 412.022px 412.022px 412.022px 412.022px 412.022px 412.022px 412.022px 412.022px 412.022px 412.022px 412.022px 412.022px 412.022px 412.022px 412.022px 412.022px 412.022px 412.022px 412.022px 412.022px 412.022px 412.022px 412.022px 412.022px 412.022px 412.022px 412.022px 412.022px 412.022px 412.022px 412.022px 412.022px 412.022px 412.022px 412.022px 412.022px 412.022px 412.022px 412.022px 412.022px">ySQL REST Service - Mobile Apps/PWAs/Edge</tspan></text><text x="142.293" y="298.352" transform="translate(47.431 96.263)" class="D F G">Applic<tspan x="178.711px" y="298.352px">a</tspan>tion <tspan x="211.431px" y="298.352px">S</tspan>erver+ ORM+ W<tspan x="324.825px 332.258px" y="298.352px 298.352px">eb</tspan> Serv<tspan x="370.896px" y="298.352px">e</tspan>rs</text><text x="744.725" y="210.732" transform="translate(248.242 67.056)" class="D F G">MyS<tspan x="771.491px 781.896px 788.856px 792.594px" y="210.732px 210.732px 210.732px 210.732px">QL P</tspan>ro<tspan x="813.443px" y="210.732px">t</tspan>oc<tspan x="831.329px" y="210.732px">o</tspan>l/S<tspan x="854.438px" y="210.732px">Q</tspan>L</text><text x="621.507" y="210.732" transform="translate(207.169 67.056)" class="D F G">HT<tspan x="639.147px 647.225px 656.052px" y="210.732px 210.732px 210.732px">TPS</tspan></text><text x="670.364" y="173.559" transform="translate(223.455 54.665)" class="D F G">W<tspan x="682.755px 690.212px" y="173.559px 173.559px">eb</tspan> S<tspan x="710.348px" y="173.559px">e</tspan>rv<tspan x="728.993px" y="173.559px">e</tspan>rs+ <tspan x="762.957px" y="173.559px">P</tspan>HP</text><path d="M384.495 419.318l23.847-17.349 23.845 17.349-9.108 28.072h-29.476l-9.108-28.072z" stroke="#f7b20d" class="B H"/><use href="#C" x="599.078" y="344.554" class="E J"/><ellipse cx="17.902" cy="535.66" rx="4.34" ry="17.902" transform="matrix(0 1.33333 1.33333 0 454.315 590.853)" class="K"/><use href="#D" x="599.078" y="344.554" class="B H I"/><use href="#E" x="599.074" y="344.555" class="E J"/><ellipse cx="17.902" cy="535.66" rx="4.34" ry="17.902" transform="matrix(0 1.33333 1.33333 0 454.429 579.279)" class="K"/><use href="#F" x="599.074" y="344.554" class="B H I"/><use href="#E" x="599.074" y="332.98" class="E J"/><ellipse cx="17.902" cy="535.66" rx="4.34" ry="17.902" transform="matrix(0 1.33333 1.33333 0 454.429 567.705)" class="K"/><g class="H B"><g class="I"><use href="#F" x="599.074" y="332.98"/><path d="M1133.68 609.144H779.996m344.684 4.5l9-4.5-9-4.5"/><path d="M788.996 604.644l-9 4.5 9 4.5"/></g><g stroke="#9d7e5e"><path d="M912.139 456.95c-2.039 0-3.717-10.764-3.717-23.847s1.679-23.845 3.717-23.845"/><use href="#J"/></g></g><g class="E"><use href="#G" x="-715.778" y="2.202" class="M N O"/><g class="C"><use href="#H" x="-715.773" y="2.202"/><use href="#I" x="-715.775" y="2.202"/><use href="#I" x="-710.818" y="2.279"/></g></g><ellipse cx="1.271" cy="538.847" rx="1.153" ry="1.271" transform="matrix(0 1.33333 1.33333 0 -403.902 408.229)" class="C"/><ellipse cx="1.271" cy="538.847" rx="1.153" ry="1.271" transform="matrix(0 1.33333 1.33333 0 -398.629 408.23)" class="C"/><g class="E"><use href="#G" x="-715.778" y="16.215" class="M N O"/><g class="C"><use href="#I" x="-720.733" y="16.292"/><use href="#I" x="-715.775" y="16.215"/><use href="#I" x="-710.818" y="16.292"/></g></g><ellipse cx="1.271" cy="538.847" rx="1.153" ry="1.271" transform="matrix(0 1.33333 1.33333 0 -403.902 422.242)" class="C"/><ellipse cx="1.271" cy="538.847" rx="1.153" ry="1.271" transform="matrix(0 1.33333 1.33333 0 -398.629 422.242)" class="C"/><g class="E"><use href="#G" x="-715.778" y="30.228" class="M N O"/><g class="C"><use href="#I" x="-720.733" y="30.305"/><use href="#I" x="-715.775" y="30.228"/><use href="#I" x="-710.818" y="30.305"/></g></g><ellipse cx="1.271" cy="538.847" rx="1.153" ry="1.271" transform="matrix(0 1.33333 1.33333 0 -403.902 436.255)" class="C"/><ellipse cx="1.271" cy="538.847" rx="1.153" ry="1.271" transform="matrix(0 1.33333 1.33333 0 -398.629 436.255)" class="C"/><g class="B H S"><path d="M195.176 418.028a9.96 9.96 0 0 1-.096-1.38c0-5.619 4.699-10.241 10.409-10.241 1.849 0 3.667.485 5.261 1.404 1.425-2.641 4.224-4.299 7.26-4.299 2.157 0 4.229.836 5.767 2.327 1.137-2.244 3.473-3.668 6.021-3.668 2.096 0 4.077.967 5.349 2.608 1.421-1.647 3.512-2.597 5.711-2.597 3.608 0 6.728 2.561 7.368 6.047 3.567.957 6.061 4.175 6.061 7.82 0 1.099-.227 2.185-.665 3.195 1.4 1.795 2.16 3.995 2.16 6.257 0 5.091-3.843 9.451-8.964 10.172-.039 4.783-4.052 8.696-8.917 8.696a9.03 9.03 0 0 1-4.721-1.331c-1.325 4.32-5.388 7.293-9.961 7.293-3.472 0-6.723-1.713-8.652-4.561-1.851 1.099-3.971 1.679-6.131 1.679-4.26 0-8.207-2.257-10.324-5.907a6.99 6.99 0 0 1-.784.045c-3.687 0-6.72-2.977-6.72-6.596 0-1.672.648-3.284 1.813-4.507-2.049-1.187-3.312-3.367-3.312-5.716 0-3.379 2.612-6.244 6.009-6.591l.057-.149z"/><path d="M196.397 431.186l-.52.02c-1.189 0-2.357-.315-3.384-.909m7.349 10.608a6.85 6.85 0 0 1-1.708.425m16.428 4.245a10.23 10.23 0 0 1-1.029-1.939m20.064-2.897c-.06.723-.199 1.435-.411 2.128m8.583-15.273c3.063 1.465 5.012 4.533 5.012 7.881v.071m6.809-16.421a8.1 8.1 0 0 1-2.232 2.981m-3.123-14.045a7.25 7.25 0 0 1 .119 1.303l-.001.105m-14.369-3.051a7.32 7.32 0 0 1 1.144-1.796m-11.836 2.652a6.54 6.54 0 0 1 .553-1.548m-13.101 2.075a10.36 10.36 0 0 1 2.003 1.503m-17.221 10.305a10.01 10.01 0 0 1-.349-1.58l.349 1.58z"/></g><text x="298.017" y="326.567" font-size="9.333" transform="translate(99.339 106.624)" class="D F">O<tspan x="305.491px 312.53px" y="326.567px 326.567px">RM</tspan></text><text x="674.896" y="474.566" transform="translate(224.965 155.001)" class="D F G">HTTP<tspan x="709.825px" y="474.566px">S</tspan>/CR<tspan x="741.799px" y="474.566px">U</tspan>D</text><text x="149.073" y="331.966" transform="translate(49.691 107.467)" class="D F G">HT<tspan x="166.713px 174.791px 183.618px" y="331.966px 331.966px 331.966px">TPS</tspan></text><text x="1086.566" y="467.592" class="D F G">MySQL</text><text x="812.497" y="369.085" transform="translate(270.832 114.507)" class="D F G">Pr<tspan x="825.983px 833.474px 837.255px 844.746px 851.489px" y="369.085px 369.085px 369.085px 369.085px 369.085px">otoco</tspan>l</text><g class="B H S"><path d="M896.636 610.002c-.121-.785-.183-1.576-.183-2.369 0-9.643 9.033-17.579 20.011-17.579 3.555 0 7.047.832 10.115 2.412 2.739-4.535 8.119-7.38 13.956-7.38 4.147 0 8.131 1.436 11.085 3.995 2.185-3.852 6.679-6.296 11.575-6.296 4.031 0 7.84 1.657 10.284 4.476 2.733-2.827 6.752-4.459 10.979-4.459 6.936 0 12.935 4.396 14.164 10.379 6.857 1.644 11.651 7.167 11.651 13.424a12.5 12.5 0 0 1-1.279 5.483c2.693 3.08 4.155 6.857 4.155 10.743 0 8.736-7.389 16.221-17.235 17.459-.075 8.209-7.789 14.927-17.14 14.927-3.209 0-6.356-.791-9.079-2.283-2.547 7.413-10.356 12.519-19.148 12.519-6.675 0-12.924-2.943-16.633-7.831-3.559 1.885-7.633 2.883-11.785 2.883-8.188 0-15.776-3.876-19.847-10.14-.5.051-1.003.077-1.507.077-7.087 0-12.919-5.111-12.919-11.32 0-2.872 1.247-5.64 3.487-7.736-3.94-2.039-6.368-5.78-6.368-9.813 0-5.799 5.023-10.717 11.553-11.312l.108-.257z"/><path d="M898.985 632.587l-.999.035c-2.287 0-4.533-.539-6.507-1.559m14.128 18.208a14.45 14.45 0 0 1-3.284.729m31.583 7.287a17 17 0 0 1-1.979-3.328m38.571-4.971c-.117 1.237-.381 2.463-.791 3.652m16.501-26.219c5.884 2.517 9.635 7.783 9.635 13.529l-.001.12m13.091-28.187c-.963 1.975-2.431 3.727-4.291 5.119m-6.004-24.109a11.09 11.09 0 0 1 .228 2.237l-.001.18m-27.624-5.236c.56-1.116 1.3-2.153 2.199-3.083m-22.753 4.551c.228-.921.585-1.815 1.064-2.657m-25.187 3.561a19.99 19.99 0 0 1 3.852 2.579m-33.107 17.691c-.305-.887-.531-1.795-.673-2.713l.673 2.713z"/></g><g class="E"><use href="#G" x="-602.606" y="176.064" class="M N O"/><g class="C"><use href="#I" x="-607.561" y="176.141"/><use href="#I" x="-602.603" y="176.065"/><use href="#I" x="-597.646" y="176.141"/></g></g><ellipse cx="1.271" cy="538.847" rx="1.153" ry="1.271" transform="matrix(0 1.33333 1.33333 0 -290.73 582.092)" class="C"/><ellipse cx="1.271" cy="538.847" rx="1.153" ry="1.271" transform="matrix(0 1.33333 1.33333 0 -285.457 582.092)" class="C"/><g class="E"><use href="#G" x="-602.606" y="203.411" class="M N O"/><g class="C"><use href="#I" x="-607.561" y="203.488"/><use href="#I" x="-602.603" y="203.411"/><use href="#I" x="-597.646" y="203.488"/></g></g><ellipse cx="1.271" cy="538.847" rx="1.153" ry="1.271" transform="matrix(0 1.33333 1.33333 0 -290.731 609.438)" class="C"/><ellipse cx="1.271" cy="538.847" rx="1.153" ry="1.271" transform="matrix(0 1.33333 1.33333 0 -285.457 609.438)" class="C"/><g class="E"><use href="#G" x="-602.606" y="230.756" class="M N O"/><g class="C"><use href="#I" x="-607.561" y="230.833"/><use href="#I" x="-602.603" y="230.757"/><use href="#I" x="-597.646" y="230.833"/></g></g><ellipse cx="1.271" cy="538.847" rx="1.153" ry="1.271" transform="matrix(0 1.33333 1.33333 0 -290.731 636.785)" class="C"/><ellipse cx="1.271" cy="538.847" rx="1.153" ry="1.271" transform="matrix(0 1.33333 1.33333 0 -285.457 636.785)" class="C"/><use href="#E" x="0.071" y="356.929" class="E J"/><ellipse cx="17.902" cy="535.66" rx="4.34" ry="17.902" transform="matrix(0 1.33333 1.33333 0 -144.577 591.654)" class="K"/><use href="#F" x="0.071" y="356.929" class="B H I"/><use href="#E" x="0.185" y="345.355" class="E J"/><ellipse cx="17.902" cy="535.66" rx="4.34" ry="17.902" transform="matrix(0 1.33333 1.33333 0 -144.463 580.079)" class="K"/><use href="#F" x="0.185" y="345.355" class="B H I"/><use href="#E" x="0.185" y="333.781" class="E J"/><ellipse cx="17.902" cy="535.66" rx="4.34" ry="17.902" transform="matrix(0 1.33333 1.33333 0 -144.463 568.505)" class="K"/><g class="H I"><g class="B"><use href="#F" x="0.185" y="333.781"/><path d="M545.881 609.637l-107.067.001m98.067 4.499l9-4.5-9-4.5"/><path d="M447.814 605.138l-9 4.5 9 4.5"/></g><path d="M-1.327 529.594h82.954" transform="matrix(-1.29068 -.334513 -.334513 1.29068 721.325 -74.2421)" class="Q"/><g class="B"><path d="M536.04 611.832l9.841-2.099-7.583-6.613m-89.643-23.236l-9.841 2.099 7.584 6.613"/><path d="M545.881 609.731l-107.066 26.943"/></g><g class="Q"><path d="M5.722 541.626L0 536.706l7.37-1.626" transform="matrix(-1.33332 .000013 .000013 1.33332 545.873 -105.865)"/><path d="M74.578 518.168l5.723 4.92-7.37 1.626" transform="matrix(-1.33332 .000013 .000013 1.33332 545.874 -60.7668)"/></g><path d="M323.079 608.463h73.99m-64.99-4.5l-9 4.5 9 4.5m55.991 0l9-4.5-9-4.5" class="B"/></g><text x="325.061" y="427.935" transform="translate(63.415 139.457)" class="D F G">Func<tspan x="354.569px" y="427.935px">t</tspan>ion<tspan x="375.933px" y="427.935px">s</tspan></text><text x="190.243" y="435.99" transform="translate(63.415 139.457)" class="D F G">API <tspan x="215.545px" y="435.99px">G</tspan>ate<tspan x="244.558px" y="435.99px">w</tspan>ays</text><text x="352.231" y="485.133" transform="translate(117.41 158.523)" class="D F G">HT<tspan x="369.898px 377.989px 386.829px" y="485.133px 485.133px 485.133px">TPS</tspan>/</text><text x="476.341" y="659.656" class="D F G">CRUD</text><g class="H"><g class="I"><g class="B"><path d="M323.079 607.798l73.99-25.815"/><path d="M330.094 600.588l-7.015 7.213 9.98 1.284m56.994-19.885l7.016-7.213-9.98-1.284"/></g><path d="M-2.038 529.171h59.569" transform="matrix(1.24209 .484767 .484767 -1.24209 69.0865 1266.06)" class="Q"/><path d="M333.099 606.879l-10.02.92 6.748 7.464m57.223 22.333l10.02-.92-6.748-7.464" class="B"/></g><g stroke="#9d7e5e" class="B"><path d="M309.533 633.014c-2.04 0-3.717-10.764-3.717-23.847s1.677-23.845 3.717-23.845"/><use href="#J" x="-602.606" y="176.064"/></g><g stroke="#204931"><use href="#K" class="B"/><circle cx="14.444" cy="525.556" r="14.444" transform="matrix(0 1.33333 1.33333 0 126.588 416.094)" class="Q"/></g><g class="B I"><path d="M800.399 432.398h-30.727m21.727 4.5l9-4.5-9-4.5"/><path d="M778.672 427.898l-9 4.5 9 4.5M282.493 608.794h-30.727"/><path d="M273.493 613.294l9-4.5-9-4.5m-12.727 0l-9 4.5 9 4.5"/></g><g stroke="#204931"><use href="#K" x="-602.586" y="175.4" class="B"/><circle cx="14.444" cy="525.556" r="14.444" transform="matrix(0 1.33333 1.33333 0 -475.999 591.494)" class="Q"/></g><g class="B I"><path d="M197.813 607.798h-30.727m21.727 4.5l9-4.5-9-4.5"/><path d="M176.086 603.298l-9 4.5 9 4.5"/></g><path d="M0 539.986h937.145" stroke="#f7b20d" transform="matrix(1.33333 .00004 .00004 -1.33333 15.4946 1217.52)" class="B"/><use href="#L" class="B R"/></g><use href="#M" class="E F"/><use href="#L" x="-2.5" y="160.409" class="B H R"/><use href="#M" x="-2.5" y="160.412" class="E F"/><use href="#L" x="594.5" y="-8.5" class="B H R"/><use href="#M" x="594.5" y="-8.5" class="E F"/><use href="#L" x="600" y="171.409" class="B H R"/><use href="#M" x="600" y="171.412" class="E F"/><use href="#L" x="-6.5" y="348.921" class="B H R"/><use href="#M" x="-6.5" y="348.922" class="E F"/><use href="#L" x="601.5" y="348.921" class="B H R"/><g class="E"><use href="#M" x="601.5" y="348.922" class="F"/><path d="M390.112 229.124c0-3.359 2.764-6.124 6.124-6.124h121.473c3.36 0 6.124 2.765 6.124 6.124v24.497h0c0 3.359-2.764 6.124-6.124 6.124h-71.88l-34.003 11.568.572-11.568h-16.163c-3.36 0-6.124-2.765-6.124-6.124h0v-24.497zm544.57 63.127c0-3.36 2.764-6.124 6.124-6.124h22.848l1.304-11.864 42.153 11.864h95.277c3.36 0 6.125 2.764 6.125 6.124h0v24.496c0 3.36-2.765 6.125-6.125 6.125H940.806c-3.36 0-6.124-2.765-6.124-6.125v-24.496h0zM294.745 449.706c0-3.36 2.764-6.124 6.124-6.124h17.051l1.043-11.864 33.719 11.864h74.986c3.36 0 6.124 2.764 6.124 6.124h0v24.496c0 3.36-2.764 6.125-6.124 6.125H300.869c-3.36 0-6.124-2.765-6.124-6.125v-24.496h0zm639.087.459c0-3.359 2.764-6.124 6.124-6.124h126.798c3.36 0 6.124 2.765 6.124 6.124v15.311l10.283 3.64-10.283 5.547h0c0 3.36-2.764 6.124-6.124 6.124H939.956c-3.36 0-6.124-2.764-6.124-6.124h0v-24.497z" fill="#c74634"/><path d="M999.694 645.592c0-4.892 4.025-8.916 8.917-8.916h121.213c4.891 0 8.916 4.024 8.916 8.916h0v35.667c0 4.892-4.025 8.917-8.916 8.917h-121.213c-4.892 0-8.917-4.025-8.917-8.917v-22.292l-13.675-16.46 13.675 3.085h0zm-465.086-11.028c0-4.879 4.015-8.892 8.892-8.892h147.3c4.877 0 8.892 4.013 8.892 8.892h0v35.568a8.94 8.94 0 0 1-8.892 8.892H543.5a8.94 8.94 0 0 1-8.892-8.892v-22.231l-13.208-8.197 13.208-5.14h0z" fill="#2b6242"/></g><text x="304.39" y="180.795" transform="translate(101.463 57.077)" class="D G L">L<tspan x="311.992px 315.528px 326.928px 330.463px 335.061px 342.796px 350.532px 354.574px 359.171px 366.898px 370.263px 377.99px 385.716px 392.596px 400.358px" y="180.795px 180.795px 180.795px 180.795px 180.795px 180.795px 180.795px 180.795px 180.795px 180.795px 180.795px 180.795px 180.795px 180.795px 180.795px">imited to Local</tspan></text><text x="325.069" y="195.195" transform="translate(101.463 57.077)" class="D G L">N<tspan x="335.018px 342.753px 346.951px 357.207px 364.929px 369.902px 377.275px" y="195.195px 195.195px 195.195px 195.195px 195.195px 195.195px 195.195px">etworks</tspan></text><text x="713.835" y="228.14" transform="translate(237.945 72.859)" class="D G L">S<tspan x="723.061px 727.526px 731.061px 734.703px 738.346px 742.049px 749.785px 756.692px 764.547px 772.296px 776.427px 780.558px 788.306px 796.055px 800.52px 803.796px 807.439px 810.974px 822.374px 825.91px 830.374px 833.91px 841.672px" y="228.14px 228.14px 228.14px 228.14px 228.14px 228.14px 228.14px 228.14px 228.14px 228.14px 228.14px 228.14px 228.14px 228.14px 228.14px 228.14px 228.14px 228.14px 228.14px 228.14px 228.14px 228.14px 228.14px">till used, but limiting</tspan></text><text x="728.333" y="242.54" transform="translate(237.945 72.859)" class="D G L">f<tspan x="733.131px 740.853px 745.826px 750.064px 761.611px 769.353px 777.095px 780.63px 784.273px 792.128px 796.659px 805.872px 819.089px 828.582px" y="242.54px 242.54px 242.54px 242.54px 242.54px 242.54px 242.54px 242.54px 242.54px 242.54px 242.54px 242.54px 242.54px 242.54px">or Mobile/PWAs</tspan></text><text x="255.809" y="346.231" transform="translate(77.399 112.222)" class="D G L">Go<tspan x="273.991px 281.722px 289.453px 293.584px 297.716px 305.464px 313.213px" y="346.231px 346.231px 346.231px 346.231px 346.231px 346.231px 346.231px">od, but</tspan></text><text x="232.197" y="360.631" transform="translate(77.399 112.222)" class="D G L">c<tspan x="239.077px 246.792px 258.199px 266.081px 269.723px 277.579px 284.845px 289.15px 296.056px 303.912px 307.554px 315.289px 319.594px 323.156px 330.878px" y="360.631px 360.631px 360.631px 360.631px 360.631px 360.631px 360.631px 360.631px 360.631px 360.631px 360.631px 360.631px 360.631px 360.631px 360.631px">omplex solution</tspan></text><text x="710.747" y="346.575" transform="translate(236.916 112.337)" class="D G L">G<tspan x="721.332px 729.063px 736.794px 744.524px 748.656px 752.787px 760.535px 768.284px 772.748px 776.025px 783.787px 791.549px 796.523px 804.272px 808.309px 812.774px" y="346.575px 346.575px 346.575px 346.575px 346.575px 346.575px 346.575px 346.575px 346.575px 346.575px 346.575px 346.575px 346.575px 346.575px 346.575px 346.575px">ood, but hard to</tspan></text><text x="737.06" y="360.975" transform="translate(236.916 112.337)" class="D G L">i<tspan x="740.595px 748.357px 752.955px 760.81px 768.559px 773.799px 781.561px 786.159px" y="360.975px 360.975px 360.975px 360.975px 360.975px 360.975px 360.975px 360.975px">ntegrate</tspan></text><text x="764.389" y="491.935" transform="translate(254.796 160.79)" class="D G L">P<tspan x="773.602px 781.337px 786.311px 794.16px 798.297px 802.435px 809.342px 812.877px 824.297px 832.026px 835.668px 839.204px 843.602px 847.137px 854.993px" y="491.935px 491.935px 491.935px 491.935px 491.935px 491.935px 491.935px 491.935px 491.935px 491.935px 491.935px 491.935px 491.935px 491.935px 491.935px">ure, simplified</tspan></text><text x="777.335" y="506.335" transform="translate(254.796 160.79)" class="D G L">s<tspan x="784.241px 791.963px 795.606px 803.341px 807.805px 811.341px 819.083px 826.825px 830.883px 835.281px 843.003px" y="506.335px 506.335px 506.335px 506.335px 506.335px 506.335px 506.335px 506.335px 506.335px 506.335px 506.335px">olution for</tspan></text><text x="770.168" y="520.735" transform="translate(254.796 160.79)" class="D G L">P<tspan x="779.381px 792.597px 802.091px 808.997px 813.528px 825.075px 832.817px 840.559px 844.095px 847.737px" y="520.735px 520.735px 520.735px 520.735px 520.735px 520.735px 520.735px 520.735px 520.735px 520.735px">WAs/Mobile</tspan></text><text x="413.657" y="483.626" transform="translate(137.886 158.021)" class="D G L">H<tspan x="423.566px 431.991px 440.549px 449.629px 458.855px 463.92px 473.629px 483.684px 493.526px 503.369px 507.286px 511.684px 515.246px 519.551px 523.855px 527.417px 535.18px" y="483.626px 483.626px 483.626px 483.626px 483.626px 483.626px 483.626px 483.626px 483.626px 483.626px 483.626px 483.626px 483.626px 483.626px 483.626px 483.626px 483.626px">TTPS/CRUD fitting</tspan></text><text x="425.464" y="498.026" transform="translate(137.886 158.021)" class="D G L">w<tspan x="435.72px 443.575px 447.218px 450.86px 454.564px 458.099px 465.861px 470.326px 478.051px 482.066px 493.482px 501.208px 508.933px 516.788px 521.762px" y="498.026px 498.026px 498.026px 498.026px 498.026px 498.026px 498.026px 498.026px 498.026px 498.026px 498.026px 498.026px 498.026px 498.026px 498.026px">ell into modern</tspan></text><text x="440.51" y="512.426" transform="translate(137.886 158.021)" class="D G L">a<tspan x="448.272px 453.246px 460.126px 467.888px 471.423px 475.888px 483.743px 490.623px 495.088px 502.823px 507.796px" y="512.426px 512.426px 512.426px 512.426px 512.426px 512.426px 512.426px 512.426px 512.426px 512.426px 512.426px">rchitecture</tspan></text><text x="-353.088" y="40.825" transform="matrix(0 -1 1 0 7.8702 117.696)" class="D F P">Classic <tspan x="-270.389px -254.382px" y="40.825px 40.825px">Ap</tspan>p Development</text><text x="-497.92" y="40.825" transform="matrix(0 -1 1 0 7.87005 175.973)" class="D F P">RE<tspan x="-464.724px -448.789px -434.623px -427.947px -412.011px -398.736px -390.816px -378.888px -373.628px -361.7px" y="40.825px 40.825px 40.825px 40.825px 40.825px 40.825px 40.825px 40.825px 40.825px 40.825px">ST Service</tspan></text><defs><linearGradient id="A" x1="0" y1="0" x2="1" y2="0" gradientUnits="userSpaceOnUse" gradientTransform="matrix(7.95203e-15,129.866,129.866,-7.95203e-15,0,410.134)"><stop offset="0" stop-color="#fcfbfa"/><stop offset="1" stop-color="#688b8b" stop-opacity=".29"/></linearGradient><linearGradient id="B" x1="0" y1="0" x2="1" y2="0" gradientUnits="userSpaceOnUse" gradientTransform="matrix(1.58524e-14,258.889,258.889,-1.58524e-14,0,281.111)"><stop offset="0" stop-color="#fcfbfa"/><stop offset="1" stop-color="#f7b20e" stop-opacity=".23"/></linearGradient><path id="C" d="M545.582 270.167c0 3.175 10.775 5.787 23.869 5.787s23.869-2.612 23.869-5.787v11.575c0 3.175-10.775 5.787-23.869 5.787s-23.869-2.612-23.869-5.787v-11.575z"/><path id="D" d="M593.321 270.167c0 3.175-10.775 5.787-23.869 5.787s-23.869-2.612-23.869-5.787 10.775-5.787 23.869-5.787 23.869 2.612 23.869 5.787v11.575c0 3.175-10.775 5.787-23.869 5.787s-23.869-2.612-23.869-5.787v-11.575"/><path id="E" d="M545.696 258.592c0 3.175 10.775 5.787 23.869 5.787s23.869-2.612 23.869-5.787v11.575c0 3.175-10.776 5.787-23.869 5.787s-23.869-2.612-23.869-5.787v-11.575z"/><path id="F" d="M593.435 258.592c0 3.175-10.776 5.787-23.869 5.787s-23.869-2.612-23.869-5.787 10.775-5.787 23.869-5.787 23.869 2.612 23.869 5.787v11.575c0 3.175-10.776 5.787-23.869 5.787s-23.869-2.612-23.869-5.787v-11.575"/><path id="G" d="M999.676 402.125c0-1.041.856-1.897 1.897-1.897h37.948c1.041 0 1.897.856 1.897 1.897v7.589c0 1.041-.856 1.897-1.897 1.897h-37.948c-1.041 0-1.897-.856-1.897-1.897v-7.589z"/><path id="H" d="M1003.4 403.305c0-.28.231-.512.512-.512h2.049c.281 0 .512.232.512.512v5.38c0 .281-.231.512-.512.512h-2.049c-.281 0-.512-.231-.512-.512v-5.38z"/><path id="I" d="M1008.36 403.23c0-.281.231-.513.512-.513h2.049c.281 0 .512.232.512.513v5.379c0 .281-.231.512-.512.512h-2.049c-.281 0-.512-.231-.512-.512v-5.379z"/><path id="J" d="M897.267 409.258h14.872c2.04 0 3.719 10.764 3.719 23.845s-1.679 23.847-3.719 23.847h-14.872c-2.039 0-3.717-10.764-3.717-23.847s1.679-23.845 3.717-23.845z"/><path id="K" d="M813.71 421.733l27.236 27.236m0-27.236l-27.236 27.236"/><path id="L" d="M127.978 239.956h34.264v26.881h-34.264z"/><path id="M" d="M114.776 286.301h57.037l-9.545-15.601h-35.999l-11.493 15.601z"/></defs></svg>