<?xml version="1.0" encoding="UTF-8" standalone="no"?>
<!DOCTYPE svg PUBLIC "-//W3C//DTD SVG 1.1//EN" "http://www.w3.org/Graphics/SVG/1.1/DTD/svg11.dtd">
<svg class="railroad-diagram" width="393" height="192" viewBox="0 0 393 192" id="restServiceOptions" xmlns="http://www.w3.org/2000/svg" xmlns:xlink="http://www.w3.org/1999/xlink"><g transform="translate(.5 .5)"><g><path d="M20 21v20m0 -10h20"></path></g><g><path d="M40 31h0"></path><path d="M353 31h0"></path><path d="M40 31h20"></path><g><path d="M60 31h0"></path><g><path d="M60 31h10"></path><path d="M323 31h10"></path><g><path d="M70 31h0"></path><path d="M323 31h0"></path><path d="M70 31h10"></path><g><path d="M80 31h0"></path><path d="M313 31h0"></path><path d="M80 31h20"></path><g><path d="M100 31h12.75"></path><g><path d="M112.75 31h10"></path><path d="M270.25 31h10"></path><g class="non-terminal "><path d="M122.75 31h0"></path><path d="M270.25 31h0"></path><rect x="122.75" y="20" width="147.5" height="22" rx="10" ry="10"></rect><text x="196.5" y="35">enabledDisabled</text></g></g><path d="M280.25 31h12.75"></path></g><path d="M293 31h20"></path><path d="M80 31a10 10 0 0 1 10 10v18a10 10 0 0 0 10 10"></path><g><path d="M100 69h0"></path><g><path d="M100 69h10"></path><path d="M283 69h10"></path><g class="non-terminal "><path d="M110 69h0"></path><path d="M283 69h0"></path><rect x="110" y="58" width="173" height="22" rx="10" ry="10"></rect><text x="196.5" y="73">restAuthentication</text></g></g><path d="M293 69h0"></path></g><path d="M293 69a10 10 0 0 0 10 -10v-18a10 10 0 0 1 10 -10"></path><path d="M80 31a10 10 0 0 1 10 10v56a10 10 0 0 0 10 10"></path><g><path d="M100 107h29.75"></path><g><path d="M129.75 107h10"></path><path d="M253.25 107h10"></path><g class="non-terminal "><path d="M139.75 107h0"></path><path d="M253.25 107h0"></path><rect x="139.75" y="96" width="113.5" height="22" rx="10" ry="10"></rect><text x="196.5" y="111">jsonOptions</text></g></g><path d="M263.25 107h29.75"></path></g><path d="M293 107a10 10 0 0 0 10 -10v-56a10 10 0 0 1 10 -10"></path><path d="M80 31a10 10 0 0 1 10 10v94a10 10 0 0 0 10 10"></path><g><path d="M100 145h42.5"></path><g><path d="M142.5 145h10"></path><path d="M240.5 145h10"></path><g class="non-terminal "><path d="M152.5 145h0"></path><path d="M240.5 145h0"></path><rect x="152.5" y="134" width="88" height="22" rx="10" ry="10"></rect><text x="196.5" y="149">comments</text></g></g><path d="M250.5 145h42.5"></path></g><path d="M293 145a10 10 0 0 0 10 -10v-94a10 10 0 0 1 10 -10"></path></g><path d="M313 31h10"></path><path d="M80 31a10 10 0 0 0 -10 10v121a10 10 0 0 0 10 10"></path><g><path d="M80 172h233"></path></g><path d="M313 172a10 10 0 0 0 10 -10v-121a10 10 0 0 0 -10 -10"></path></g></g><path d="M333 31h0"></path></g><path d="M333 31h20"></path></g><path d="M 353 31 h 20 m 0 -10 v 20"></path></g><defs><style type="text/css"><![CDATA[
svg.railroad-diagram path { stroke-width: 2; stroke: darkgray; fill: rgba(0, 0, 0, 0); }svg.railroad-diagram text { font: bold 12px Hack, "Source Code Pro", monospace; text-anchor: middle; fill: #404040; }svg.railroad-diagram text.comment { font: italic 10px Hack, "Source Code Pro", monospace; fill: #404040; }svg.railroad-diagram g.terminal rect { stroke-width: 2; stroke: #404040; fill: rgba(200, 200, 200, 0.8); }svg.railroad-diagram g.non-terminal rect { stroke-width: 2; stroke: #404040; fill: rgba(255, 255, 255, 1); }svg.railroad-diagram text.diagram-text { font-size: 12px Hack, "Source Code Pro", monospace; fill: red; }svg.railroad-diagram path.diagram-text { stroke-width: 1; stroke: red; fill: red; cursor: help; }
 ]]>
</style></defs></svg>