<?xml version="1.0" encoding="UTF-8" standalone="no"?>
<!DOCTYPE svg PUBLIC "-//W3C//DTD SVG 1.1//EN" "http://www.w3.org/Graphics/SVG/1.1/DTD/svg11.dtd">
<svg class="railroad-diagram" width="556.5" height="208" viewBox="0 0 556.5 208" id="restAuthentication" xmlns="http://www.w3.org/2000/svg" xmlns:xlink="http://www.w3.org/1999/xlink"><g transform="translate(.5 .5)"><g><path d="M20 37v20m0 -10h20"></path></g><g><path d="M40 47h0"></path><path d="M516.5 47h0"></path><path d="M40 47h20"></path><g><path d="M60 47h0"></path><g><path d="M60 47h10"></path><path d="M486.5 47h10"></path><g class="terminal "><path d="M70 47h0"></path><path d="M209 47h0"></path><rect x="70" y="36" width="139" height="22"></rect><text x="139.5" y="51">AUTHENTICATION</text></g><path d="M209 47h10"></path><g><path d="M219 47h0"></path><path d="M486.5 47h0"></path><path d="M219 47a10 10 0 0 0 10 -10v-7a10 10 0 0 1 10 -10"></path><g><path d="M239 20h227.5"></path></g><path d="M466.5 20a10 10 0 0 1 10 10v7a10 10 0 0 0 10 10"></path><path d="M219 47h20"></path><g><path d="M239 47h0"></path><path d="M466.5 47h0"></path><path d="M239 47h10"></path><g><path d="M249 47h0"></path><path d="M456.5 47h0"></path><path d="M249 47h20"></path><g><path d="M269 47h29.75"></path><g><path d="M298.75 47h10"></path><path d="M396.75 47h10"></path><g class="non-terminal "><path d="M308.75 47h0"></path><path d="M396.75 47h0"></path><rect x="308.75" y="36" width="88" height="22" rx="10" ry="10"></rect><text x="352.75" y="51">authPath</text></g></g><path d="M406.75 47h29.75"></path></g><path d="M436.5 47h20"></path><path d="M249 47a10 10 0 0 1 10 10v18a10 10 0 0 0 10 10"></path><g><path d="M269 85h0"></path><g><path d="M269 85h10"></path><path d="M426.5 85h10"></path><g class="non-terminal "><path d="M279 85h0"></path><path d="M426.5 85h0"></path><rect x="279" y="74" width="147.5" height="22" rx="10" ry="10"></rect><text x="352.75" y="89">authRedirection</text></g></g><path d="M436.5 85h0"></path></g><path d="M436.5 85a10 10 0 0 0 10 -10v-18a10 10 0 0 1 10 -10"></path><path d="M249 47a10 10 0 0 1 10 10v56a10 10 0 0 0 10 10"></path><g><path d="M269 123h4.25"></path><g><path d="M273.25 123h10"></path><path d="M422.25 123h10"></path><g class="non-terminal "><path d="M283.25 123h0"></path><path d="M422.25 123h0"></path><rect x="283.25" y="112" width="139" height="22" rx="10" ry="10"></rect><text x="352.75" y="127">authValidation</text></g></g><path d="M432.25 123h4.25"></path></g><path d="M436.5 123a10 10 0 0 0 10 -10v-56a10 10 0 0 1 10 -10"></path><path d="M249 47a10 10 0 0 1 10 10v94a10 10 0 0 0 10 10"></path><g><path d="M269 161h0"></path><g><path d="M269 161h10"></path><path d="M426.5 161h10"></path><g class="non-terminal "><path d="M279 161h0"></path><path d="M426.5 161h0"></path><rect x="279" y="150" width="147.5" height="22" rx="10" ry="10"></rect><text x="352.75" y="165">authPageContent</text></g></g><path d="M436.5 161h0"></path></g><path d="M436.5 161a10 10 0 0 0 10 -10v-94a10 10 0 0 1 10 -10"></path></g><path d="M456.5 47h10"></path><path d="M249 47a10 10 0 0 0 -10 10v121a10 10 0 0 0 10 10"></path><g><path d="M249 188h207.5"></path></g><path d="M456.5 188a10 10 0 0 0 10 -10v-121a10 10 0 0 0 -10 -10"></path></g><path d="M466.5 47h20"></path></g></g><path d="M496.5 47h0"></path></g><path d="M496.5 47h20"></path></g><path d="M 516.5 47 h 20 m 0 -10 v 20"></path></g><defs><style type="text/css"><![CDATA[
svg.railroad-diagram path { stroke-width: 2; stroke: darkgray; fill: rgba(0, 0, 0, 0); }svg.railroad-diagram text { font: bold 12px Hack, "Source Code Pro", monospace; text-anchor: middle; fill: #404040; }svg.railroad-diagram text.comment { font: italic 10px Hack, "Source Code Pro", monospace; fill: #404040; }svg.railroad-diagram g.terminal rect { stroke-width: 2; stroke: #404040; fill: rgba(200, 200, 200, 0.8); }svg.railroad-diagram g.non-terminal rect { stroke-width: 2; stroke: #404040; fill: rgba(255, 255, 255, 1); }svg.railroad-diagram text.diagram-text { font-size: 12px Hack, "Source Code Pro", monospace; fill: red; }svg.railroad-diagram path.diagram-text { stroke-width: 1; stroke: red; fill: red; cursor: help; }
 ]]>
</style></defs></svg>