<?xml version="1.0" encoding="UTF-8" standalone="no"?>
<!DOCTYPE svg PUBLIC "-//W3C//DTD SVG 1.1//EN" "http://www.w3.org/Graphics/SVG/1.1/DTD/svg11.dtd">
<svg class="railroad-diagram" width="503.5" height="344" viewBox="0 0 503.5 344" id="restObjectOptions" xmlns="http://www.w3.org/2000/svg" xmlns:xlink="http://www.w3.org/1999/xlink"><g transform="translate(.5 .5)"><g><path d="M20 21v20m0 -10h20"></path></g><g><path d="M40 31h0"></path><path d="M463.5 31h0"></path><path d="M40 31h20"></path><g><path d="M60 31h0"></path><g><path d="M60 31h10"></path><path d="M433.5 31h10"></path><g><path d="M70 31h0"></path><path d="M433.5 31h0"></path><path d="M70 31h10"></path><g><path d="M80 31h0"></path><path d="M423.5 31h0"></path><path d="M80 31h20"></path><g><path d="M100 31h68"></path><g><path d="M168 31h10"></path><path d="M325.5 31h10"></path><g class="non-terminal "><path d="M178 31h0"></path><path d="M325.5 31h0"></path><rect x="178" y="20" width="147.5" height="22" rx="10" ry="10"></rect><text x="251.75" y="35">enabledDisabled</text></g></g><path d="M335.5 31h68"></path></g><path d="M403.5 31h20"></path><path d="M80 31a10 10 0 0 1 10 10v18a10 10 0 0 0 10 10"></path><g><path d="M100 69h38.25"></path><g><path d="M138.25 69h10"></path><path d="M355.25 69h10"></path><g class="non-terminal "><path d="M148.25 69h0"></path><path d="M355.25 69h0"></path><rect x="148.25" y="58" width="207" height="22" rx="10" ry="10"></rect><text x="251.75" y="73">authenticationRequired</text></g></g><path d="M365.25 69h38.25"></path></g><path d="M403.5 69a10 10 0 0 0 10 -10v-18a10 10 0 0 1 10 -10"></path><path d="M80 31a10 10 0 0 1 10 10v56a10 10 0 0 0 10 10"></path><g><path d="M100 107h80.75"></path><g><path d="M180.75 107h10"></path><path d="M312.75 107h10"></path><g class="non-terminal "><path d="M190.75 107h0"></path><path d="M312.75 107h0"></path><rect x="190.75" y="96" width="122" height="22" rx="10" ry="10"></rect><text x="251.75" y="111">itemsPerPage</text></g></g><path d="M322.75 107h80.75"></path></g><path d="M403.5 107a10 10 0 0 0 10 -10v-56a10 10 0 0 1 10 -10"></path><path d="M80 31a10 10 0 0 1 10 10v94a10 10 0 0 0 10 10"></path><g><path d="M100 145h85"></path><g><path d="M185 145h10"></path><path d="M308.5 145h10"></path><g class="non-terminal "><path d="M195 145h0"></path><path d="M308.5 145h0"></path><rect x="195" y="134" width="113.5" height="22" rx="10" ry="10"></rect><text x="251.75" y="149">jsonOptions</text></g></g><path d="M318.5 145h85"></path></g><path d="M403.5 145a10 10 0 0 0 10 -10v-94a10 10 0 0 1 10 -10"></path><path d="M80 31a10 10 0 0 1 10 10v132a10 10 0 0 0 10 10"></path><g><path d="M100 183h97.75"></path><g><path d="M197.75 183h10"></path><path d="M295.75 183h10"></path><g class="non-terminal "><path d="M207.75 183h0"></path><path d="M295.75 183h0"></path><rect x="207.75" y="172" width="88" height="22" rx="10" ry="10"></rect><text x="251.75" y="187">comments</text></g></g><path d="M305.75 183h97.75"></path></g><path d="M403.5 183a10 10 0 0 0 10 -10v-132a10 10 0 0 1 10 -10"></path><path d="M80 31a10 10 0 0 1 10 10v170a10 10 0 0 0 10 10"></path><g><path d="M100 221h59.5"></path><g><path d="M159.5 221h10"></path><path d="M334 221h10"></path><g class="non-terminal "><path d="M169.5 221h0"></path><path d="M334 221h0"></path><rect x="169.5" y="210" width="164.5" height="22" rx="10" ry="10"></rect><text x="251.75" y="225">restViewMediaType</text></g></g><path d="M344 221h59.5"></path></g><path d="M403.5 221a10 10 0 0 0 10 -10v-170a10 10 0 0 1 10 -10"></path><path d="M80 31a10 10 0 0 1 10 10v208a10 10 0 0 0 10 10"></path><g><path d="M100 259h72.25"></path><g><path d="M172.25 259h10"></path><path d="M321.25 259h10"></path><g class="non-terminal "><path d="M182.25 259h0"></path><path d="M321.25 259h0"></path><rect x="182.25" y="248" width="139" height="22" rx="10" ry="10"></rect><text x="251.75" y="263">restViewFormat</text></g></g><path d="M331.25 259h72.25"></path></g><path d="M403.5 259a10 10 0 0 0 10 -10v-208a10 10 0 0 1 10 -10"></path><path d="M80 31a10 10 0 0 1 10 10v246a10 10 0 0 0 10 10"></path><g><path d="M100 297h0"></path><g><path d="M100 297h10"></path><path d="M393.5 297h10"></path><g class="non-terminal "><path d="M110 297h0"></path><path d="M393.5 297h0"></path><rect x="110" y="286" width="283.5" height="22" rx="10" ry="10"></rect><text x="251.75" y="301">restViewAuthenticationProcedure</text></g></g><path d="M403.5 297h0"></path></g><path d="M403.5 297a10 10 0 0 0 10 -10v-246a10 10 0 0 1 10 -10"></path></g><path d="M423.5 31h10"></path><path d="M80 31a10 10 0 0 0 -10 10v273a10 10 0 0 0 10 10"></path><g><path d="M80 324h343.5"></path></g><path d="M423.5 324a10 10 0 0 0 10 -10v-273a10 10 0 0 0 -10 -10"></path></g></g><path d="M443.5 31h0"></path></g><path d="M443.5 31h20"></path></g><path d="M 463.5 31 h 20 m 0 -10 v 20"></path></g><defs><style type="text/css"><![CDATA[
svg.railroad-diagram path { stroke-width: 2; stroke: darkgray; fill: rgba(0, 0, 0, 0); }svg.railroad-diagram text { font: bold 12px Hack, "Source Code Pro", monospace; text-anchor: middle; fill: #404040; }svg.railroad-diagram text.comment { font: italic 10px Hack, "Source Code Pro", monospace; fill: #404040; }svg.railroad-diagram g.terminal rect { stroke-width: 2; stroke: #404040; fill: rgba(200, 200, 200, 0.8); }svg.railroad-diagram g.non-terminal rect { stroke-width: 2; stroke: #404040; fill: rgba(255, 255, 255, 1); }svg.railroad-diagram text.diagram-text { font-size: 12px Hack, "Source Code Pro", monospace; fill: red; }svg.railroad-diagram path.diagram-text { stroke-width: 1; stroke: red; fill: red; cursor: help; }
 ]]>
</style></defs></svg>