<?xml version="1.0" encoding="UTF-8" standalone="no"?>
<!DOCTYPE svg PUBLIC "-//W3C//DTD SVG 1.1//EN" "http://www.w3.org/Graphics/SVG/1.1/DTD/svg11.dtd">
<svg class="railroad-diagram" width="384.5" height="154" viewBox="0 0 384.5 154" id="restMetadataOptions" xmlns="http://www.w3.org/2000/svg" xmlns:xlink="http://www.w3.org/1999/xlink"><g transform="translate(.5 .5)"><g><path d="M20 21v20m0 -10h20"></path></g><g><path d="M40 31h0"></path><path d="M344.5 31h0"></path><path d="M40 31h20"></path><g><path d="M60 31h0"></path><g><path d="M60 31h10"></path><path d="M314.5 31h10"></path><g><path d="M70 31h0"></path><path d="M314.5 31h0"></path><path d="M70 31h10"></path><g><path d="M80 31h0"></path><path d="M304.5 31h0"></path><path d="M80 31h20"></path><g><path d="M100 31h8.5"></path><g><path d="M108.5 31h10"></path><path d="M266 31h10"></path><g class="non-terminal "><path d="M118.5 31h0"></path><path d="M266 31h0"></path><rect x="118.5" y="20" width="147.5" height="22" rx="10" ry="10"></rect><text x="192.25" y="35">enabledDisabled</text></g></g><path d="M276 31h8.5"></path></g><path d="M284.5 31h20"></path><path d="M80 31a10 10 0 0 1 10 10v18a10 10 0 0 0 10 10"></path><g><path d="M100 69h25.5"></path><g><path d="M125.5 69h10"></path><path d="M249 69h10"></path><g class="non-terminal "><path d="M135.5 69h0"></path><path d="M249 69h0"></path><rect x="135.5" y="58" width="113.5" height="22" rx="10" ry="10"></rect><text x="192.25" y="73">jsonOptions</text></g></g><path d="M259 69h25.5"></path></g><path d="M284.5 69a10 10 0 0 0 10 -10v-18a10 10 0 0 1 10 -10"></path><path d="M80 31a10 10 0 0 1 10 10v56a10 10 0 0 0 10 10"></path><g><path d="M100 107h0"></path><g><path d="M100 107h10"></path><path d="M274.5 107h10"></path><g class="non-terminal "><path d="M110 107h0"></path><path d="M274.5 107h0"></path><rect x="110" y="96" width="164.5" height="22" rx="10" ry="10"></rect><text x="192.25" y="111">updateIfAvailable</text></g></g><path d="M284.5 107h0"></path></g><path d="M284.5 107a10 10 0 0 0 10 -10v-56a10 10 0 0 1 10 -10"></path></g><path d="M304.5 31h10"></path><path d="M80 31a10 10 0 0 0 -10 10v83a10 10 0 0 0 10 10"></path><g><path d="M80 134h224.5"></path></g><path d="M304.5 134a10 10 0 0 0 10 -10v-83a10 10 0 0 0 -10 -10"></path></g></g><path d="M324.5 31h0"></path></g><path d="M324.5 31h20"></path></g><path d="M 344.5 31 h 20 m 0 -10 v 20"></path></g><defs><style type="text/css"><![CDATA[
svg.railroad-diagram path { stroke-width: 2; stroke: darkgray; fill: rgba(0, 0, 0, 0); }svg.railroad-diagram text { font: bold 12px Hack, "Source Code Pro", monospace; text-anchor: middle; fill: #404040; }svg.railroad-diagram text.comment { font: italic 10px Hack, "Source Code Pro", monospace; fill: #404040; }svg.railroad-diagram g.terminal rect { stroke-width: 2; stroke: #404040; fill: rgba(200, 200, 200, 0.8); }svg.railroad-diagram g.non-terminal rect { stroke-width: 2; stroke: #404040; fill: rgba(255, 255, 255, 1); }svg.railroad-diagram text.diagram-text { font-size: 12px Hack, "Source Code Pro", monospace; fill: red; }svg.railroad-diagram path.diagram-text { stroke-width: 1; stroke: red; fill: red; cursor: help; }
 ]]>
</style></defs></svg>