<?xml version="1.0" encoding="UTF-8" standalone="no"?>
<!DOCTYPE svg PUBLIC "-//W3C//DTD SVG 1.1//EN" "http://www.w3.org/Graphics/SVG/1.1/DTD/svg11.dtd">
<svg class="railroad-diagram" width="968" height="132" viewBox="0 0 968 132" id="showRestContentSetsStatement" xmlns="http://www.w3.org/2000/svg" xmlns:xlink="http://www.w3.org/1999/xlink"><g transform="translate(.5 .5)"><g><path d="M20 53v20m0 -10h20"></path></g><g><path d="M40 63h0"></path><path d="M928 63h0"></path><path d="M40 63h20"></path><g><path d="M60 63h0"></path><g><path d="M60 63h10"></path><path d="M898 63h10"></path><g class="terminal "><path d="M70 63h0"></path><path d="M124 63h0"></path><rect x="70" y="52" width="54" height="22"></rect><text x="97" y="67">SHOW</text></g><path d="M124 63h10"></path><path d="M134 63h10"></path><g class="terminal "><path d="M144 63h0"></path><path d="M198 63h0"></path><rect x="144" y="52" width="54" height="22"></rect><text x="171" y="67">REST</text></g><path d="M198 63h10"></path><path d="M208 63h10"></path><g class="terminal "><path d="M218 63h0"></path><path d="M297.5 63h0"></path><rect x="218" y="52" width="79.5" height="22"></rect><text x="257.75" y="67">CONTENT</text></g><path d="M297.5 63h10"></path><path d="M307.5 63h10"></path><g class="terminal "><path d="M317.5 63h0"></path><path d="M371.5 63h0"></path><rect x="317.5" y="52" width="54" height="22"></rect><text x="344.5" y="67">SETS</text></g><path d="M371.5 63h10"></path><g><path d="M381.5 63h0"></path><path d="M898 63h0"></path><path d="M381.5 63a10 10 0 0 0 10 -10v-23a10 10 0 0 1 10 -10"></path><g><path d="M401.5 20h476.5"></path></g><path d="M878 20a10 10 0 0 1 10 10v23a10 10 0 0 0 10 10"></path><path d="M381.5 63h20"></path><g><path d="M401.5 63h0"></path><path d="M878 63h0"></path><path d="M401.5 63h20"></path><g><path d="M421.5 63h0"></path><g><path d="M421.5 63h10"></path><path d="M848 63h10"></path><g><path d="M431.5 63h0"></path><path d="M545.5 63h0"></path><path d="M431.5 63h20"></path><g><path d="M451.5 63h8.5"></path><g><path d="M460 63h10"></path><path d="M507 63h10"></path><g class="terminal "><path d="M470 63h0"></path><path d="M507 63h0"></path><rect x="470" y="52" width="37" height="22"></rect><text x="488.5" y="67">IN</text></g></g><path d="M517 63h8.5"></path></g><path d="M525.5 63h20"></path><path d="M431.5 63a10 10 0 0 1 10 10v18a10 10 0 0 0 10 10"></path><g><path d="M451.5 101h0"></path><g><path d="M451.5 101h10"></path><path d="M515.5 101h10"></path><g class="terminal "><path d="M461.5 101h0"></path><path d="M515.5 101h0"></path><rect x="461.5" y="90" width="54" height="22"></rect><text x="488.5" y="105">FROM</text></g></g><path d="M525.5 101h0"></path></g><path d="M525.5 101a10 10 0 0 0 10 -10v-18a10 10 0 0 1 10 -10"></path></g><g><path d="M545.5 63h0"></path><path d="M665 63h0"></path><path d="M545.5 63a10 10 0 0 0 10 -10v-7a10 10 0 0 1 10 -10"></path><g><path d="M565.5 36h79.5"></path></g><path d="M645 36a10 10 0 0 1 10 10v7a10 10 0 0 0 10 10"></path><path d="M545.5 63h20"></path><g class="terminal "><path d="M565.5 63h0"></path><path d="M645 63h0"></path><rect x="565.5" y="52" width="79.5" height="22"></rect><text x="605.25" y="67">SERVICE</text></g><path d="M645 63h20"></path></g><path d="M665 63h10"></path><g class="non-terminal "><path d="M675 63h0"></path><path d="M848 63h0"></path><rect x="675" y="52" width="173" height="22" rx="10" ry="10"></rect><text x="761.5" y="67">serviceRequestPath</text></g></g><path d="M858 63h0"></path></g><path d="M858 63h20"></path></g><path d="M878 63h20"></path></g></g><path d="M908 63h0"></path></g><path d="M908 63h20"></path></g><path d="M 928 63 h 20 m 0 -10 v 20"></path></g><defs><style type="text/css"><![CDATA[
svg.railroad-diagram path { stroke-width: 2; stroke: darkgray; fill: rgba(0, 0, 0, 0); }svg.railroad-diagram text { font: bold 12px Hack, "Source Code Pro", monospace; text-anchor: middle; fill: #404040; }svg.railroad-diagram text.comment { font: italic 10px Hack, "Source Code Pro", monospace; fill: #404040; }svg.railroad-diagram g.terminal rect { stroke-width: 2; stroke: #404040; fill: rgba(200, 200, 200, 0.8); }svg.railroad-diagram g.non-terminal rect { stroke-width: 2; stroke: #404040; fill: rgba(255, 255, 255, 1); }svg.railroad-diagram text.diagram-text { font-size: 12px Hack, "Source Code Pro", monospace; fill: red; }svg.railroad-diagram path.diagram-text { stroke-width: 1; stroke: red; fill: red; cursor: help; }
 ]]>
</style></defs></svg>