<?xml version="1.0" encoding="UTF-8" standalone="no"?>
<!DOCTYPE svg PUBLIC "-//W3C//DTD SVG 1.1//EN" "http://www.w3.org/Graphics/SVG/1.1/DTD/svg11.dtd">
<svg class="railroad-diagram" width="676.5" height="147" viewBox="0 0 676.5 147" id="showCreateRestAuthAppStatement" xmlns="http://www.w3.org/2000/svg" xmlns:xlink="http://www.w3.org/1999/xlink"><g transform="translate(.5 .5)"><g><path d="M20 21v20m0 -10h20"></path></g><g><path d="M40 31h0"></path><path d="M636.5 117h0"></path><path d="M40 31h20"></path><g><path d="M60 31h0"></path><path d="M60 31h10"></path><g><path d="M70 31h0"></path><path d="M562 31h44.5"></path><g class="terminal "><path d="M70 31h0"></path><path d="M124 31h0"></path><rect x="70" y="20" width="54" height="22"></rect><text x="97" y="35">SHOW</text></g><path d="M124 31h10"></path><path d="M134 31h10"></path><g class="terminal "><path d="M144 31h0"></path><path d="M215 31h0"></path><rect x="144" y="20" width="71" height="22"></rect><text x="179.5" y="35">CREATE</text></g><path d="M215 31h10"></path><path d="M225 31h10"></path><g class="terminal "><path d="M235 31h0"></path><path d="M289 31h0"></path><rect x="235" y="20" width="54" height="22"></rect><text x="262" y="35">REST</text></g><path d="M289 31h10"></path><path d="M299 31h10"></path><g class="terminal "><path d="M309 31h0"></path><path d="M363 31h0"></path><rect x="309" y="20" width="54" height="22"></rect><text x="336" y="35">AUTH</text></g><path d="M363 31h10"></path><path d="M373 31h10"></path><g class="terminal "><path d="M383 31h0"></path><path d="M428.5 31h0"></path><rect x="383" y="20" width="45.5" height="22"></rect><text x="405.75" y="35">APP</text></g><path d="M428.5 31h10"></path><path d="M438.5 31h10"></path><g class="non-terminal "><path d="M448.5 31h0"></path><path d="M562 31h0"></path><rect x="448.5" y="20" width="113.5" height="22" rx="10" ry="10"></rect><text x="505.25" y="35">authAppName</text></g></g><path d="M606.5 31a10 10 0 0 1 10 10v7a10 10 0 0 1 -10 10h-536.5a10 10 0 0 0 -10 10v39a10 10 0 0 0 10 10"></path><g><path d="M70 117h0"></path><path d="M586.5 117h20"></path><g><path d="M70 117h0"></path><path d="M586.5 117h0"></path><path d="M70 117a10 10 0 0 0 10 -10v-23a10 10 0 0 1 10 -10"></path><g><path d="M90 74h476.5"></path></g><path d="M566.5 74a10 10 0 0 1 10 10v23a10 10 0 0 0 10 10"></path><path d="M70 117h20"></path><g><path d="M90 117h0"></path><path d="M566.5 117h0"></path><path d="M90 117h20"></path><g><path d="M110 117h0"></path><g><path d="M110 117h0"></path><path d="M526.5 117h20"></path><g><path d="M110 117h0"></path><path d="M224 117h0"></path><path d="M110 117h20"></path><g><path d="M130 117h0"></path><g><path d="M130 117h0"></path><path d="M167 117h20"></path><g class="terminal "><path d="M130 117h0"></path><path d="M167 117h0"></path><rect x="130" y="106" width="37" height="22"></rect><text x="148.5" y="121">ON</text></g></g><path d="M187 117h17"></path></g><path d="M204 117h20"></path><path d="M110 117a10 10 0 0 1 10 10v18a10 10 0 0 0 10 10"></path><g><path d="M130 155h0"></path><g><path d="M130 155h0"></path><path d="M184 155h20"></path><g class="terminal "><path d="M130 155h0"></path><path d="M184 155h0"></path><rect x="130" y="144" width="54" height="22"></rect><text x="157" y="159">FROM</text></g></g><path d="M204 155h0"></path></g><path d="M204 155a10 10 0 0 0 10 -10v-18a10 10 0 0 1 10 -10"></path></g><g><path d="M224 117h0"></path><path d="M343.5 117h0"></path><path d="M224 117a10 10 0 0 0 10 -10v-7a10 10 0 0 1 10 -10"></path><g><path d="M244 90h79.5"></path></g><path d="M323.5 90a10 10 0 0 1 10 10v7a10 10 0 0 0 10 10"></path><path d="M224 117h20"></path><g class="terminal "><path d="M244 117h0"></path><path d="M323.5 117h0"></path><rect x="244" y="106" width="79.5" height="22"></rect><text x="283.75" y="121">SERVICE</text></g><path d="M323.5 117h20"></path></g><path d="M343.5 117h10"></path><g class="non-terminal "><path d="M353.5 117h0"></path><path d="M526.5 117h0"></path><rect x="353.5" y="106" width="173" height="22" rx="10" ry="10"></rect><text x="440" y="121">serviceRequestPath</text></g></g><path d="M546.5 117h0"></path></g><path d="M546.5 117h20"></path></g><path d="M566.5 117h20"></path></g></g><path d="M606.5 117h10"></path><path d="M616.5 117h0"></path></g><path d="M616.5 117h20"></path></g><path d="M 636.5 117 h 20 m 0 -10 v 20"></path></g><defs><style type="text/css"><![CDATA[
svg.railroad-diagram path { stroke-width: 2; stroke: darkgray; fill: rgba(0, 0, 0, 0); }svg.railroad-diagram text { font: bold 12px Hack, "Source Code Pro", monospace; text-anchor: middle; fill: #404040; }svg.railroad-diagram text.comment { font: italic 10px Hack, "Source Code Pro", monospace; fill: #404040; }svg.railroad-diagram g.terminal rect { stroke-width: 2; stroke: #404040; fill: rgba(200, 200, 200, 0.8); }svg.railroad-diagram g.non-terminal rect { stroke-width: 2; stroke: #404040; fill: rgba(255, 255, 255, 1); }svg.railroad-diagram text.diagram-text { font-size: 12px Hack, "Source Code Pro", monospace; fill: red; }svg.railroad-diagram path.diagram-text { stroke-width: 1; stroke: red; fill: red; cursor: help; }
 ]]>
</style></defs></svg>