<?xml version="1.0" encoding="UTF-8" standalone="no"?>
<!DOCTYPE svg PUBLIC "-//W3C//DTD SVG 1.1//EN" "http://www.w3.org/Graphics/SVG/1.1/DTD/svg11.dtd">
<svg class="railroad-diagram" width="585" height="100" viewBox="0 0 585 100" id="userManagementSchema" xmlns="http://www.w3.org/2000/svg" xmlns:xlink="http://www.w3.org/1999/xlink"><g transform="translate(.5 .5)"><g><path d="M20 21v20m0 -10h20"></path></g><g><path d="M40 31h0"></path><path d="M545 31h0"></path><path d="M40 31h20"></path><g><path d="M60 31h0"></path><g><path d="M60 31h10"></path><path d="M515 31h10"></path><g class="terminal "><path d="M70 31h0"></path><path d="M124 31h0"></path><rect x="70" y="20" width="54" height="22"></rect><text x="97" y="35">USER</text></g><path d="M124 31h10"></path><path d="M134 31h10"></path><g class="terminal "><path d="M144 31h0"></path><path d="M249 31h0"></path><rect x="144" y="20" width="105" height="22"></rect><text x="196.5" y="35">MANAGEMENT</text></g><path d="M249 31h10"></path><path d="M259 31h10"></path><g class="terminal "><path d="M269 31h0"></path><path d="M340 31h0"></path><rect x="269" y="20" width="71" height="22"></rect><text x="304.5" y="35">SCHEMA</text></g><path d="M340 31h10"></path><g><path d="M350 31h0"></path><path d="M515 31h0"></path><path d="M350 31h20"></path><g><path d="M370 31h0"></path><g><path d="M370 31h10"></path><path d="M485 31h10"></path><g class="non-terminal "><path d="M380 31h0"></path><path d="M485 31h0"></path><rect x="380" y="20" width="105" height="22" rx="10" ry="10"></rect><text x="432.5" y="35">schemaName</text></g></g><path d="M495 31h0"></path></g><path d="M495 31h20"></path><path d="M350 31a10 10 0 0 1 10 10v18a10 10 0 0 0 10 10"></path><g><path d="M370 69h12.75"></path><g><path d="M382.75 69h10"></path><path d="M472.25 69h10"></path><g class="terminal "><path d="M392.75 69h0"></path><path d="M472.25 69h0"></path><rect x="392.75" y="58" width="79.5" height="22"></rect><text x="432.5" y="73">DEFAULT</text></g></g><path d="M482.25 69h12.75"></path></g><path d="M495 69a10 10 0 0 0 10 -10v-18a10 10 0 0 1 10 -10"></path></g></g><path d="M525 31h0"></path></g><path d="M525 31h20"></path></g><path d="M 545 31 h 20 m 0 -10 v 20"></path></g><defs><style type="text/css"><![CDATA[
svg.railroad-diagram path { stroke-width: 2; stroke: darkgray; fill: rgba(0, 0, 0, 0); }svg.railroad-diagram text { font: bold 12px Hack, "Source Code Pro", monospace; text-anchor: middle; fill: #404040; }svg.railroad-diagram text.comment { font: italic 10px Hack, "Source Code Pro", monospace; fill: #404040; }svg.railroad-diagram g.terminal rect { stroke-width: 2; stroke: #404040; fill: rgba(200, 200, 200, 0.8); }svg.railroad-diagram g.non-terminal rect { stroke-width: 2; stroke: #404040; fill: rgba(255, 255, 255, 1); }svg.railroad-diagram text.diagram-text { font-size: 12px Hack, "Source Code Pro", monospace; fill: red; }svg.railroad-diagram path.diagram-text { stroke-width: 1; stroke: red; fill: red; cursor: help; }
 ]]>
</style></defs></svg>