<svg xmlns="http://www.w3.org/2000/svg" width="100%" height="100%" viewBox="0 0 1920 1300" fill-rule="evenodd" xmlns:v="https://vecta.io/nano"><style><![CDATA[.B{font-family:HelveticaNeue, Helvetica Neue}.C{fill-rule:nonzero}.D{fill:#fff}.E{font-size:7.81px}.F{stroke-width:.56}.G{fill:#f0f0f0}.H{fill:#bfbfbf}.I{fill:#909090}.J{font-size:5.579px}.K{fill:#797979}.L{fill:#3c3c3c}.M{stroke:#3c3c3c}.N{fill-opacity:.04}.O{fill:#222225}.P{font-size:8.368px}.Q{fill:#606060}.R{fill:#282828}.S{font-size:7.949px}.T{fill:#2a2727}.U{stroke:#3a3a3a}.V{font-size:7.531px}.W{font-family:HelveticaNeue-Italic, Helvetica Neue}.X{font-style:italic}.Y{fill:#9cdcfe}.Z{fill:#212121}.a{fill:#1e1e1e}.b{font-size:7.14px}.c{stroke:#343434}.d{font-family:ArialMT, Arial, sans-serif}]]></style><g transform="matrix(4.16667 0 0 4.16667 -282.667 605)"><clipPath id="A"><path d="M28 28h540v138.8H28z"/></clipPath><g clip-path="url(#A)"><path d="M68.78 163.251V-109.65h458.554v272.901a2.39 2.39 0 0 1-.182.918c-.121.294-.295.553-.52.779a2.38 2.38 0 0 1-.778.52c-.293.122-.6.182-.918.182H71.179a2.37 2.37 0 0 1-.918-.182 2.39 2.39 0 0 1-.778-.52 2.38 2.38 0 0 1-.52-.778c-.122-.293-.182-.6-.182-.918l-.001-.001z" class="C Z"/><clipPath id="B"><use href="#AD"/></clipPath><g clip-path="url(#B)"><g transform="matrix(-.394463 -.394458 -.394458 .394463 460.95 326.867)"><clipPath id="C"><path d="M875.575 117.908L704.138 289.347a3.66 3.66 0 0 1-2.687 1.113 3.66 3.66 0 0 1-2.687-1.113L123.6-285.81a3.66 3.66 0 0 1-1.113-2.687 3.66 3.66 0 0 1 1.113-2.687l171.437-171.439-.707-.708-174.831 174.834 581.952 581.945 174.831-174.833-.707-.707z"/></clipPath><g clip-path="url(#C)" class="C O"><path d="M119.499-288.497h4.101l577.851 577.844v4.101L119.499-288.497z"/></g></g></g><clipPath id="D"><use href="#AD"/></clipPath><g clip-path="url(#D)"><clipPath id="E"><use href="#AE"/></clipPath><g clip-path="url(#E)"><clipPath id="F"><path d="M525.995-109.706h1.618v275.634h-1.618z"/></clipPath><g clip-path="url(#F)"><g transform="matrix(.557851 0 0 -.557851 68.5009 165.929)"><clipPath id="G"><path d="M823 494h-2.9V2.8L823-.1V494z"/></clipPath><g clip-path="url(#G)" class="O"><path d="M0 0h823v494H0z"/></g></g></g></g></g><clipPath id="H"><use href="#AD"/></clipPath><g clip-path="url(#H)"><clipPath id="I"><use href="#AE"/></clipPath><g clip-path="url(#I)"><clipPath id="J"><path d="M68.501 165.985l1.618-1.618V-109.65h-1.618v275.635z"/></clipPath><g clip-path="url(#J)"><g transform="matrix(.557851 0 0 -.557851 68.5009 165.929)"><clipPath id="K"><path d="M0 0h2.9v494.1H0z"/></clipPath><g clip-path="url(#K)" class="O"><path d="M0 0h823v494H0z"/></g></g></g></g></g><path d="M69.059 160.331h457.996V139.71H69.059z" class="Z"/><path d="M69.059 139.71h457.996v.558H69.059z" fill="#3b3b3b"/><path d="M99.183 28H496.93v94.974H99.183z" class="a"/><path d="M412.416 157.561v-9.483c0-.256.05-.51.148-.747a1.94 1.94 0 0 1 1.057-1.057c.239-.099.488-.148.747-.148h40.165c.256 0 .51.05.747.148s.453.241.634.423a1.93 1.93 0 0 1 .572 1.381v9.483a1.93 1.93 0 0 1-.572 1.381c-.181.182-.397.325-.634.423s-.488.148-.747.148h-40.165c-.256 0-.51-.05-.747-.148a1.94 1.94 0 0 1-1.057-1.057c-.099-.239-.148-.488-.148-.747zm55.785 0v-9.483c0-.256.05-.51.148-.747a1.94 1.94 0 0 1 1.057-1.057c.239-.099.488-.148.747-.148h40.165c.256 0 .51.05.747.148a1.94 1.94 0 0 1 1.057 1.057c.099.239.148.488.148.747v9.483c0 .256-.05.51-.148.747a1.94 1.94 0 0 1-1.057 1.057c-.239.099-.488.148-.747.148h-40.165c-.256 0-.51-.05-.747-.148a1.94 1.94 0 0 1-1.057-1.057c-.099-.239-.148-.488-.148-.747z" fill="#333" stroke="#3d3d3d" class="C F"/><text x="421.316" y="155.887" class="B I P">Cancel</text><text x="484.152" y="155.887" class="B I P">OK</text></g></g><path d="M4.162 969.69V12.956c0-.901.253-1.768.76-2.601s1.23-1.566 2.166-2.204 2.02-1.126 3.243-1.473 2.501-.517 3.826-.517H1904.81c1.32 0 2.6.172 3.82.517 1.23.345 2.31.836 3.25 1.473.93.637 1.66 1.373 2.16 2.204.51.831.76 1.7.76 2.601V969.69H4.162z" class="C Z"/><g transform="matrix(4.16667 0 0 4.16667 -282.42 -931.011)"><clipPath id="L"><use href="#AF"/></clipPath><g clip-path="url(#L)"><g transform="matrix(.39446 .394461 .394461 -.39446 -141.787 340.653)"><clipPath id="M"><path d="M701.449 995.55L119.501 413.6 618.012-84.909l.707.707-495.117 495.115a3.66 3.66 0 0 0-1.113 2.687 3.66 3.66 0 0 0 1.113 2.687l575.159 575.162a3.66 3.66 0 0 0 2.687 1.113c1.011.016 1.985-.387 2.688-1.113l495.114-495.115.71.707L701.449 995.55z"/></clipPath><g clip-path="url(#M)" class="C O"><path d="M119.501 413.6h4.101l577.847 577.849v4.101L119.501 413.6z"/></g></g></g><clipPath id="N"><use href="#AF"/></clipPath><g clip-path="url(#N)"><clipPath id="O"><use href="#AG"/></clipPath><g clip-path="url(#O)"><clipPath id="P"><path d="M527.612 224.587l-1.617 1.618v391.723h1.617V224.587z"/></clipPath><g clip-path="url(#P)"><g transform="matrix(.557851 0 0 -.435979 68.5009 532.008)"><clipPath id="Q"><path d="M820.1-.1h2.9V705h-2.9z"/></clipPath><g clip-path="url(#Q)" class="O"><path d="M0 0h823v705H0z"/></g></g></g></g></g><clipPath id="R"><use href="#AF"/></clipPath><g clip-path="url(#R)"><clipPath id="S"><use href="#AG"/></clipPath><g clip-path="url(#S)"><clipPath id="T"><path d="M68.501 224.643h1.618v393.341h-1.618z"/></clipPath><g clip-path="url(#T)"><g transform="matrix(.557851 0 0 -.435979 68.5009 532.008)"><clipPath id="U"><path d="M0 0h2.9v702.2L0 705.1V0z"/></clipPath><g clip-path="url(#U)" class="O"><path d="M0 0h823v705H0z"/></g></g></g></g></g><g transform="matrix(.047162 0 0 .047162 494.512 221.863)" class="D"><path d="M512.55 229.663h8.926v11.715h-8.926z"/><g class="C"><use href="#AH"/><use href="#AH"/><use href="#AI"/><use href="#AI"/></g></g><path d="M74.663 231.785l-.549.549v6.583l.549.549h6.583l.549-.549v-6.583l-.549-.549h-6.583zm0 7.131v-6.583h6.583v6.583h-6.583zm2.068-1.467l.38.388 1.924-1.917v-.334l-1.924-1.924-.379.388 1.679 1.72-1.68 1.679z" class="H"/><text x="84.679" y="238.589" class="B H P">MySQL REST Object</text><clipPath id="V"><path d="M99.183 254.209h92.603v38.492H99.183z"/></clipPath><g clip-path="url(#V)"><text x="99.183" y="262.019" class="B K S">REST Service Path</text><text x="99.183" y="284.337" class="B J Q">The path of the REST Service</text><use href="#AJ" class="C F T U"/></g><clipPath id="W"><use href="#AK"/></clipPath><g clip-path="url(#W)"><clipPath id="X"><path d="M106.435 273.176v-3.905l-.002-.084a2.16 2.16 0 0 1 2.15-2.15l.083.002h73.637c.616 0 1.142.218 1.577.654a2.15 2.15 0 0 1 .654 1.578v3.905c0 .616-.218 1.142-.654 1.577a2.15 2.15 0 0 1-1.577.654h-73.637l-.083.002a2.16 2.16 0 0 1-2.15-2.15l.002-.083z"/></clipPath><g clip-path="url(#X)" class="B G b"><text x="106.435" y="273.733">/myService</text></g></g><clipPath id="Y"><path d="M200.712 254.209h92.603v38.492h-92.603z"/></clipPath><g clip-path="url(#Y)"><text x="200.816" y="262.019" class="B K S">REST Schema Path</text><text x="200.816" y="284.337" class="B J Q">The path of the REST Schema</text><path d="M200.991 274.849v-7.81a1.95 1.95 0 0 1 .148-.747 1.94 1.94 0 0 1 1.057-1.057c.239-.099.488-.148.747-.148h88.14a1.95 1.95 0 0 1 .747.148 1.94 1.94 0 0 1 1.057 1.057c.099.239.148.488.148.747v7.81a1.95 1.95 0 0 1-.148.747 1.94 1.94 0 0 1-1.057 1.057c-.239.099-.488.148-.747.148h-88.14a1.95 1.95 0 0 1-.747-.148 1.94 1.94 0 0 1-1.057-1.057c-.099-.239-.148-.488-.148-.747z" class="C F T U"/></g><clipPath id="Z"><use href="#AL"/></clipPath><g clip-path="url(#Z)"><clipPath id="a"><path d="M207.964 273.176v-3.905l-.002-.084a2.16 2.16 0 0 1 2.15-2.15l.083.002h73.636c.617 0 1.143.218 1.578.654a2.15 2.15 0 0 1 .654 1.578v3.905c0 .616-.218 1.142-.654 1.577a2.15 2.15 0 0 1-1.578.654h-73.636l-.083.002a2.16 2.16 0 0 1-2.15-2.15l.002-.083z"/></clipPath><g clip-path="url(#a)" class="B G b"><text x="208.068" y="273.733">/sakila</text></g></g><text x="302.458" y="262.019" class="B K S">REST Object Path</text><text x="302.458" y="283.777" class="B J Q">The path, has to starts with /</text><clipPath id="b"><use href="#AK"/></clipPath><g clip-path="url(#b)" class="G"><g transform="matrix(.39446 .39446 .39446 -.39446 181.868 272.359)"><path d="M0 5h6v1H0z"/></g><g transform="matrix(.39446 .39446 .39446 -.39446 183.841 270.386)"><path d="M5 0h1v6H5z"/></g></g><clipPath id="c"><use href="#AL"/></clipPath><g clip-path="url(#c)" class="G"><g transform="matrix(.39446 .39446 .39446 -.39446 283.397 272.359)"><path d="M0 5h6v1H0z"/></g><g transform="matrix(.39446 .39446 .39446 -.39446 285.37 270.386)"><path d="M5 0h1v6H5z"/></g></g><clipPath id="d"><path d="M302.241 264.808h93.161v11.715h-93.161z"/></clipPath><g clip-path="url(#d)" class="C F R c"><path d="M302.519 274.291v-7.252a1.95 1.95 0 0 1 .148-.747 1.94 1.94 0 0 1 1.057-1.057c.239-.099.488-.148.747-.148h88.698a1.95 1.95 0 0 1 .747.148c.237.098.453.241.634.423a1.93 1.93 0 0 1 .572 1.381v7.252a1.93 1.93 0 0 1-.572 1.381c-.181.182-.397.325-.634.423s-.488.148-.747.148h-88.698a1.95 1.95 0 0 1-.747-.148 1.94 1.94 0 0 1-1.057-1.057c-.099-.239-.148-.488-.148-.747z"/></g><path d="M405.722 288.684v-5.355a1.48 1.48 0 0 1 .441-1.065 1.49 1.49 0 0 1 1.065-.441h5.355a1.49 1.49 0 0 1 1.506 1.506v5.355a1.49 1.49 0 0 1-1.506 1.506h-5.355a1.49 1.49 0 0 1-1.065-.441 1.48 1.48 0 0 1-.441-1.065z" class="C F L M"/><path d="M99.183 301.626H496.93v15.062H99.183z" fill="#2c2c2c"/><path d="M99.183 301.626H234.74v15.062H99.183z" class="a"/><path d="M99.183 301.626H234.74v1.116H99.183z" fill="#007acc"/><g fill="#2e2e2e"><path d="M234.74 301.626h82.004v15.062H234.74z"/><path d="M316.745 301.626h98.74v15.062h-98.74z"/><path d="M415.484 301.626h81.446v15.062h-81.446z"/></g><clipPath id="e"><path d="M302.798 274.291v-7.252l-.001-.064a1.62 1.62 0 0 1 1.61-1.61l.065.001h88.698a1.61 1.61 0 0 1 1.184.49c.326.327.49.721.49 1.183v7.252c0 .462-.164.857-.49 1.184a1.61 1.61 0 0 1-1.184.49h-88.698a1.61 1.61 0 0 1-1.183-.49c-.327-.327-.491-.722-.491-1.184z"/></clipPath><g clip-path="url(#e)" class="d"><text font-size="7.436" fill="#ccc" x="307.479" y="273.176">/city</text></g><text transform="translate(404.101 262.019)" x="0" y="0" class="B K S">Access Contr<tspan x="47.845px 52.408px" y="0px 0px">ol</tspan></text><text transform="translate(418.605 288.794)" x="0" y="0" class="B H P">Auth. Requir<tspan x="46.35px 50.844px" y="0px 0px">ed</tspan></text><text x="142.135" y="312.783" class="B D V">Data Mapping</text><text fill="#999" x="258.493" y="312.783" class="B V">Settings</text><text fill="#999" x="340.715" y="312.783" class="B V">Authorization</text><text fill="#999" x="439.664" y="312.783" class="B V">Options</text><path d="M99.183 316.689H496.93v174.999H99.183z" class="a"/><clipPath id="f"><path d="M108.108 325.614h135v11.715h-135z"/></clipPath><g clip-path="url(#f)"><path d="M152.457 335.098v-7.252a1.95 1.95 0 0 1 .148-.747 1.94 1.94 0 0 1 1.057-1.057c.239-.099.488-.148.747-.148h86.467a1.95 1.95 0 0 1 .747.148 1.94 1.94 0 0 1 1.057 1.057c.099.239.148.488.148.747v7.252a1.95 1.95 0 0 1-.148.747 1.94 1.94 0 0 1-1.057 1.057c-.239.099-.488.148-.747.148H154.41a1.95 1.95 0 0 1-.747-.148 1.94 1.94 0 0 1-1.057-1.057c-.099-.239-.148-.488-.148-.747h-.001z" class="C F R c"/><text x="108.108" y="334.539" class="B K P">DB Object:</text><clipPath id="g"><path d="M152.736 335.097v-7.252l-.001-.065a1.62 1.62 0 0 1 1.61-1.61l.065.001h86.467l.064-.001a1.62 1.62 0 0 1 1.61 1.61l-.001.065v7.252l.001.065a1.62 1.62 0 0 1-1.61 1.61c-.021 0-.043 0-.064-.001H154.41l-.065.001a1.62 1.62 0 0 1-1.61-1.61l.001-.065z"/></clipPath><g clip-path="url(#g)" class="d"><text font-size="7.436" fill="#ccc" x="156.999" y="333.981">city</text></g></g></g><g transform="translate(-6)"><path d="M1407.616 214.194v-32.542a8.13 8.13 0 0 1 .617-3.113c.821-1.996 2.408-3.583 4.404-4.404.996-.413 2.033-.617 3.113-.617H1783a8.13 8.13 0 0 1 3.113.617c1.996.821 3.583 2.408 4.404 4.404.413.996.617 2.033.617 3.113v32.542a8.13 8.13 0 0 1-.617 3.113c-.821 1.996-2.408 3.583-4.404 4.404-.996.413-2.033.617-3.113.617h-367.25a8.13 8.13 0 0 1-3.113-.617c-1.996-.821-3.583-2.408-4.404-4.404-.413-.996-.617-2.033-.617-3.113z" stroke-width="2.333" class="C T U"/><g transform="matrix(4.16667 0 0 4.16667 570.124 -931.011)"><clipPath id="h"><use href="#AL"/></clipPath><g clip-path="url(#h)" class="G"><g transform="matrix(.39446 .39446 .39446 -.39446 283.397 272.359)"><path d="M0 5h6v1H0z"/></g><g transform="matrix(.39446 .39446 .39446 -.39446 285.37 270.386)"><path d="M5 0h1v6H5z"/></g></g></g><text transform="matrix(4.16667 0 0 4.16667 1422.54 210.059)" x="0" y="0" class="B H P">Access Enabled</text></g><path d="M1116.38 483.822h4.65v-55.785h-4.65v55.785zm348.66 0h4.64v-55.785h-4.64v55.785z" fill="#3d3d3d"/><path d="M1494.09 472.2v-32.541c0-1.079.21-2.118.62-3.112a8.07 8.07 0 0 1 1.76-2.64c.76-.762 1.65-1.35 2.64-1.764 1-.414 2.04-.618 3.11-.618h234.77a8.08 8.08 0 0 1 3.11.618c.99.411 1.88 1.002 2.64 1.764a8.04 8.04 0 0 1 1.76 2.64c.42.997.62 2.034.62 3.112V472.2c0 1.079-.21 2.118-.62 3.112a8.07 8.07 0 0 1-1.76 2.64 8.03 8.03 0 0 1-2.64 1.764c-1 .414-2.04.618-3.11.618h-234.77a8.08 8.08 0 0 1-3.11-.618c-.99-.411-1.88-1.002-2.64-1.764a8.04 8.04 0 0 1-1.76-2.64c-.42-.997-.62-2.034-.62-3.112z" fill="#333" stroke="#3d3d3d" stroke-width="2.32" class="C"/><g transform="matrix(4.16667 0 0 4.16667 -282.42 -928.011)" class="B K"><text font-size="7.252" x="440.544" y="334.585">DDL Pr</text><text font-size="7.252" x="463.787" y="334.585">eview</text></g><path d="M1527.63 439.005c-6.44 0-11.73 5.295-11.73 11.731 0 2.865 1.05 5.633 2.95 7.778l-11.48 13.025 1.59 1.422 11.45-12.968a11.75 11.75 0 0 0 7.23 2.491c6.44 0 11.73-5.297 11.73-11.732s-5.29-11.732-11.73-11.732l-.01-.014v-.001zm0 21.329c-5.26 0-9.59-4.333-9.59-9.598s4.33-9.598 9.59-9.598c5.27 0 9.6 4.333 9.6 9.598s-4.33 9.598-9.6 9.598z" class="C I"/><g transform="matrix(4.16667 0 0 4.16667 -282.42 -931.011)"><clipPath id="i"><path d="M341.29 326.729h72.521v12.273H341.29z"/></clipPath><g clip-path="url(#i)"><path d="M341.569 336.771v-7.81a1.95 1.95 0 0 1 .148-.747 1.94 1.94 0 0 1 1.057-1.057c.239-.099.488-.148.747-.148h68.058a1.95 1.95 0 0 1 .747.148 1.94 1.94 0 0 1 1.057 1.057c.099.239.148.488.148.747v7.81a1.95 1.95 0 0 1-.148.747 1.94 1.94 0 0 1-1.057 1.057c-.239.099-.488.148-.747.148h-68.058a1.95 1.95 0 0 1-.747-.148 1.94 1.94 0 0 1-1.057-1.057c-.099-.239-.148-.488-.148-.747z" class="C F T U"/><clipPath id="j"><use href="#AM"/></clipPath><g clip-path="url(#j)"><clipPath id="k"><path d="M348.542 335.097v-3.905l-.002-.083a2.16 2.16 0 0 1 2.15-2.15l.084.002h53.553l.084-.002a2.16 2.16 0 0 1 2.15 2.15l-.002.083v3.905l.002.083a2.16 2.16 0 0 1-2.15 2.15c-.028 0-.056-.001-.084-.002h-53.553c-.617 0-1.143-.217-1.578-.653-.426-.413-.663-.985-.654-1.578z"/></clipPath><g clip-path="url(#k)" class="b"><text font-family="HelveticaNeue-Thin, Helvetica Neue, sans-serif" font-weight="200" fill="#595959" x="348.499" y="335.655">SDK Language</text></g></g><clipPath id="l"><use href="#AM"/></clipPath><g clip-path="url(#l)" class="G"><g transform="matrix(.39446 .39446 .39446 -.39446 403.893 334.28)"><path d="M0 5h6v1H0z"/></g><g transform="matrix(.39446 .39446 .39446 -.39446 405.865 332.308)"><path d="M5 0h1v6H5z"/></g></g></g><path d="M108.387 446.109v-99.297a4.22 4.22 0 0 1 .08-.816c.053-.269.133-.532.238-.785a4.16 4.16 0 0 1 .387-.724 4.17 4.17 0 0 1 .52-.634 4.16 4.16 0 0 1 .634-.52c.228-.152.47-.282.724-.387s.516-.185.785-.238a4.22 4.22 0 0 1 .816-.08h369.855a4.22 4.22 0 0 1 .816.08c.269.053.532.133.785.238a4.16 4.16 0 0 1 .724.387 4.17 4.17 0 0 1 .634.52 4.16 4.16 0 0 1 .907 1.358c.105.253.185.516.238.785a4.22 4.22 0 0 1 .08.816v99.297a4.22 4.22 0 0 1-.08.816c-.053.269-.133.532-.238.785a4.16 4.16 0 0 1-.387.724c-.306.456-.698.848-1.154 1.154a4.16 4.16 0 0 1-.724.387c-.253.105-.516.185-.785.238a4.22 4.22 0 0 1-.816.08H112.571a4.22 4.22 0 0 1-.816-.08c-.269-.053-.532-.133-.785-.238a4.16 4.16 0 0 1-1.358-.907 4.1 4.1 0 0 1-.52-.634c-.152-.228-.282-.47-.387-.724s-.185-.516-.238-.785a4.22 4.22 0 0 1-.08-.816z" fill="none" class="F c"/><g class="C"><path d="M108.666 356.295v-10.041c-.001-.44.086-.875.255-1.281.337-.821.99-1.474 1.811-1.811.406-.169.841-.256 1.281-.255h370.971c.44-.001.875.086 1.281.255.821.337 1.474.99 1.811 1.811.169.406.256.841.255 1.281v10.041H108.666z" fill="#009dff" fill-opacity=".2"/><path d="M120.414 345.859v7.68h-7.68v-7.68h7.68zm-.549 1.097h-6.583v6.034h6.583v-6.034z" class="D"/></g><path d="M115.921 352.452c-.388 0-.672-.076-.853-.228s-.271-.389-.271-.711v-.691c0-.204-.05-.346-.15-.428s-.276-.123-.528-.125v-.585c.252 0 .428-.041.528-.122s.15-.225.15-.431v-.683c0-.322.09-.558.271-.709s.465-.226.853-.226h.186v.44h-.126c-.202 0-.347.043-.435.131s-.132.231-.132.434v.793c0 .19-.059.337-.177.443s-.293.169-.525.19v.071c.232.021.407.084.525.188s.177.252.177.442v.804c0 .202.044.347.132.434s.233.13.435.13h.126v.441h-.186v-.002zm1.306 0h-.185v-.441h.125c.201 0 .345-.043.433-.13s.131-.231.131-.434v-.804c0-.19.059-.337.176-.442s.293-.167.525-.188v-.071c-.232-.021-.407-.084-.525-.19s-.176-.253-.176-.443v-.793c0-.202-.043-.347-.13-.434s-.231-.131-.434-.131h-.125v-.44h.185c.386 0 .668.075.848.226s.27.388.27.709v.683c0 .206.05.349.149.431s.274.122.525.122v.585c-.251.002-.425.043-.525.125s-.149.224-.149.428v.691c0 .322-.09.558-.27.711s-.463.228-.848.228v.002z" class="D"/><use href="#AN" class="C D N"/><text fill="#dfdfdf" x="124.286" y="352.39" class="B E">MyServiceSakilaCity</text><text fill="#dfdfdf" x="198.933" y="352.39" class="B E">{</text><clipPath id="m"><path d="M286.063 349.601a5.53 5.53 0 0 1 .424-2.135c.284-.683.687-1.286 1.21-1.809a5.52 5.52 0 0 1 1.81-1.21c.684-.283 1.395-.424 2.134-.424a5.53 5.53 0 0 1 2.135.424c.683.283 1.287.686 1.81 1.21s.926 1.126 1.209 1.809c.282.676.426 1.402.425 2.135 0 .74-.142 1.452-.425 2.135a5.53 5.53 0 0 1-1.209 1.81 5.52 5.52 0 0 1-1.81 1.209c-.683.283-1.395.425-2.135.425a5.52 5.52 0 0 1-3.944-1.634c-.523-.523-.926-1.127-1.21-1.81s-.424-1.395-.424-2.135z"/></clipPath><g clip-path="url(#m)" class="B I J"><text x="288.643" y="351.833">…</text></g><text x="311.637" y="352.39" class="E H W X">sakila.city</text><clipPath id="n"><path d="M298.893 344.581h186.322v10.041H298.893z"/></clipPath><g clip-path="url(#n)"><path d="M307.171 345.894v7.2h-7.2v-7.2h7.2zm-.514 1.028h-6.171v5.657h6.171v-5.657zm-1.542 4.115h1.029v.514h-1.029v-.514zm0-1.028h1.029v.514h-1.029v-.514zm0-1.029h1.029v.514h-1.029v-.514zm0-1.028h1.029v.514h-1.029v-.514zm-2.573 3.085h2.058v.514h-2.058v-.514zm0-1.028h2.058v.514h-2.058v-.514zm0-1.029h2.058v.514h-2.058v-.514zm0-1.028h2.058v.514h-2.058v-.514zM301 351.037h1.029v.514H301v-.514zm0-1.028h1.029v.514H301v-.514zm0-1.029h1.029v.514H301v-.514zm0-1.028h1.029v.514H301v-.514z" class="C D"/><path d="M351.052 350.159v-1.116a4.22 4.22 0 0 1 .08-.816c.053-.269.133-.532.238-.785a4.16 4.16 0 0 1 .387-.724 4.17 4.17 0 0 1 .52-.634 4.16 4.16 0 0 1 .634-.52c.228-.152.47-.282.724-.387s.516-.185.785-.238a4.22 4.22 0 0 1 .816-.08h83.93a4.22 4.22 0 0 1 .816.08c.269.053.532.133.785.238a4.16 4.16 0 0 1 .724.387 4.17 4.17 0 0 1 .634.52 4.16 4.16 0 0 1 .907 1.358c.105.253.184.516.238.785a4.22 4.22 0 0 1 .08.816v1.116a4.22 4.22 0 0 1-.08.816c-.054.269-.133.532-.238.785a4.16 4.16 0 0 1-.907 1.358 4.1 4.1 0 0 1-.634.52c-.228.152-.47.282-.724.387s-.516.185-.785.238a4.22 4.22 0 0 1-.816.08h-83.93a4.22 4.22 0 0 1-.816-.08c-.269-.053-.532-.133-.785-.238a4.16 4.16 0 0 1-.724-.387 4.17 4.17 0 0 1-.634-.52 4.16 4.16 0 0 1-.52-.634c-.152-.228-.282-.47-.387-.724s-.185-.516-.238-.785a4.22 4.22 0 0 1-.08-.816z" fill="none" stroke="#009dff" stroke-opacity=".3" class="F"/></g><g transform="matrix(.557851 0 0 -.557851 108.108 356.853)"><clipPath id="o"><use href="#AO"/></clipPath><g clip-path="url(#o)" class="R"><g transform="matrix(4.18703 0 0 1 -1389.54 0)"><path d="M436 5h21v16h-21z"/></g></g><clipPath id="p"><path d="M436 12v2c-.035 1.862.823 3.655 2.369 4.95 1.496 1.337 3.568 2.08 5.719 2.05h80.874c2.151.03 4.222-.713 5.719-2.05 1.545-1.295 2.403-3.088 2.368-4.95v-2c.035-1.862-.823-3.655-2.368-4.95-1.497-1.337-3.568-2.08-5.719-2.05h-80.874c-2.151-.03-4.223.713-5.719 2.05-1.546 1.295-2.404 3.088-2.369 4.95z"/></clipPath><g clip-path="url(#p)" class="R"><g transform="matrix(3.64364 0 0 1 -1286.9 0)"><path d="M477 5h22v16h-22z"/></g></g><g transform="translate(80.452)"><clipPath id="q"><use href="#AO"/></clipPath><g clip-path="url(#q)" class="R"><g transform="matrix(8.01433 0 0 1 -3636.77 0)"><path d="M499 5h20v16h-20z"/></g></g></g></g><use href="#AP" class="C F L M"/><g class="G"><use href="#AQ"/><use href="#AR"/></g><g class="C D"><path d="M274.348 362.99a5.6 5.6 0 0 1 .107-1.088c.071-.359.177-.708.317-1.047s.312-.661.515-.965a5.58 5.58 0 0 1 1.539-1.539c.304-.203.627-.375.965-.515s.687-.246 1.047-.317a5.6 5.6 0 0 1 1.088-.107h11.715a5.6 5.6 0 0 1 1.088.107c.359.071.708.177 1.047.317s.661.312.965.515a5.58 5.58 0 0 1 1.539 1.539c.203.304.375.627.515.965s.246.687.317 1.047c.143.719.143 1.458 0 2.177-.071.359-.177.708-.317 1.047s-.312.661-.515.965a5.58 5.58 0 0 1-1.539 1.539c-.304.203-.627.375-.965.515s-.687.246-1.047.317a5.6 5.6 0 0 1-1.088.107h-11.715a5.6 5.6 0 0 1-1.088-.107c-.359-.071-.708-.177-1.047-.317s-.661-.312-.965-.515a5.58 5.58 0 0 1-1.539-1.539c-.203-.304-.375-.627-.515-.965s-.246-.687-.317-1.047a5.6 5.6 0 0 1-.107-1.088v-.001z" class="N"/><use href="#AS"/><use href="#AS" y="13.44"/><use href="#AS" y="26.64"/><use href="#AS" y="40.08"/><use href="#AS" y="53.52"/><use href="#AS" y="66.96"/></g><path d="M314.118 359.943a2.02 2.02 0 0 1 2.078-.087 2.04 2.04 0 0 1 .732.673c.512.799.402 1.855-.262 2.531-.138.138-.295.255-.467.347l.044.547-.064.174-.307.307.473.473v.315l-.472.472.473.473v.315l-.944.944h-.315l-.727-.727-.065-.157-.002-3.133a1.98 1.98 0 0 1-.506-.38 2.03 2.03 0 0 1 .018-2.832c.095-.095.2-.181.313-.256v.001zm2.683 1.854c.037-.358-.048-.719-.242-1.022h.003c-.061-.093-.131-.181-.21-.259-.612-.612-1.62-.613-2.231-.001-.077.077-.146.162-.205.253-.388.616-.31 1.423.19 1.952a1.51 1.51 0 0 0 .494.344l.136.206.002 3.18.504.504.629-.629-.473-.473v-.315l.472-.472-.473-.473v-.315l.392-.392-.044-.596.132-.221c.177-.077.338-.187.474-.324.252-.256.41-.591.448-.949l.002.002zm-1.124-.597a.45.45 0 0 0-.755-.245c-.109.109-.154.268-.118.418.019.08.06.153.119.212.174.17.456.17.63 0 .101-.101.147-.244.125-.385h-.001z" class="D"/><path d="M124.007 379.056V373.7a1.49 1.49 0 0 1 1.506-1.506h5.355a1.49 1.49 0 0 1 1.506 1.506v5.355a1.49 1.49 0 0 1-1.506 1.506h-5.355a1.49 1.49 0 0 1-1.506-1.506v.001z" class="C F L M"/><g class="G"><use href="#AQ" y="13.389"/><use href="#AR" y="13.388"/></g><g class="D"><use href="#AN" y="26.777" class="C N"/><circle cx="8.12" cy="8.13" r="6.276" transform="matrix(.267686 0 0 .267686 313.517 374.557)"/></g><use href="#AP" y="26.777" class="C F L M"/><g class="G"><use href="#AQ" y="26.777"/><use href="#AR" y="26.777"/></g><g class="D"><use href="#AN" y="40.166" class="C N"/><circle cx="8.12" cy="8.13" r="6.276" transform="matrix(.267686 0 0 .267686 313.517 387.757)"/></g><use href="#AP" y="40.166" class="C F L M"/><g class="G"><use href="#AQ" y="40.166"/><use href="#AR" y="40.165"/></g><g class="D"><path d="M297.219 403.155a5.6 5.6 0 0 1-.107 1.088c-.071.359-.177.708-.317 1.047s-.312.661-.515.965a5.58 5.58 0 0 1-1.539 1.539c-.304.203-.627.375-.965.515s-.687.246-1.047.317c-.719.143-1.458.143-2.177 0-.359-.071-.708-.177-1.047-.317s-.66-.312-.965-.515a5.58 5.58 0 0 1-1.539-1.539c-.203-.304-.375-.627-.515-.965s-.246-.687-.317-1.047c-.143-.719-.143-1.458 0-2.177.071-.359.177-.708.317-1.047s.312-.661.515-.965a5.58 5.58 0 0 1 1.539-1.539c.304-.203.627-.376.965-.515s.687-.246 1.047-.317c.719-.143 1.458-.143 2.177 0 .359.071.708.177 1.047.317s.661.312.965.515a5.58 5.58 0 0 1 1.539 1.539c.203.304.375.627.515.965s.246.687.317 1.047a5.6 5.6 0 0 1 .107 1.088v.001z" class="C N"/><circle cx="8.12" cy="8.13" r="6.276" transform="matrix(.267686 0 0 .267686 313.517 400.957)"/></g><g fill="#b3b3b3"><use href="#AT"/><use href="#AU"/></g><g class="C"><use href="#AP" y="53.555" class="F L M"/><path d="M251.476 416.544a5.6 5.6 0 0 1-.107 1.088c-.071.359-.177.708-.317 1.047s-.312.661-.515.965a5.58 5.58 0 0 1-1.539 1.539c-.304.203-.627.375-.965.515s-.687.246-1.047.317c-.719.143-1.458.143-2.177 0-.359-.071-.708-.177-1.047-.317s-.661-.312-.965-.515a5.58 5.58 0 0 1-1.539-1.539c-.203-.304-.375-.627-.515-.965s-.246-.687-.317-1.047c-.143-.719-.143-1.458 0-2.177.071-.359.177-.708.317-1.047s.312-.661.515-.965a5.58 5.58 0 0 1 1.539-1.539c.304-.203.627-.376.965-.515s.687-.246 1.047-.317c.719-.143 1.458-.143 2.177 0 .359.071.708.177 1.047.317s.661.312.965.515a5.58 5.58 0 0 1 1.539 1.539c.203.304.375.627.515.965s.246.687.317 1.047a5.6 5.6 0 0 1 .107 1.088v.001z" class="D N"/></g><clipPath id="r"><path d="M121.497 409.849H297.22v13.388H121.497z"/></clipPath><g clip-path="url(#r)"><clipPath id="s"><path d="M254.265 417.101v-1.115c0-.592.114-1.162.34-1.708s.552-1.034.967-1.448.902-.741 1.448-.968a4.43 4.43 0 0 1 1.708-.339h34.029a4.43 4.43 0 0 1 1.708.339c.547.227 1.029.549 1.448.968a4.41 4.41 0 0 1 1.307 3.156v1.115a4.41 4.41 0 0 1-.34 1.708c-.226.547-.549 1.029-.967 1.448s-.901.741-1.448.967a4.41 4.41 0 0 1-1.708.34h-34.029a4.41 4.41 0 0 1-1.708-.34c-.546-.226-1.029-.549-1.448-.967a4.44 4.44 0 0 1-.967-1.448 4.43 4.43 0 0 1-.34-1.708z"/></clipPath><g clip-path="url(#s)"><clipPath id="t"><path d="M254.16 411.36h43.2v10.32h-43.2z"/></clipPath><g clip-path="url(#t)"><path d="M254.265 411.523h42.955v10.041h-42.955z" class="R"/><path d="M297.917 410.802h-44.316v11.436h44.316v-11.436zm-43.095 5.184v1.116c-.001.513.1 1.021.297 1.494a3.88 3.88 0 0 0 .846 1.267c.366.367.789.648 1.267.846.473.197.981.298 1.494.297h34.029c.513.001 1.021-.1 1.494-.297a3.88 3.88 0 0 0 1.267-.846c.367-.366.648-.789.846-1.267s.298-.981.297-1.494v-1.116c.001-.513-.1-1.021-.297-1.494a3.86 3.86 0 0 0-.846-1.267 3.87 3.87 0 0 0-1.267-.846c-.473-.197-.981-.298-1.494-.297h-34.029c-.513-.001-1.021.1-1.494.297a3.88 3.88 0 0 0-1.267.846c-.367.366-.648.788-.846 1.267-.197.473-.298.981-.297 1.494z" fill="#009dff" fill-opacity=".3"/></g></g></g><g class="D"><path d="M317.853 416.815l-2.163 2.163-2.163-2.163 2.163-2.163 2.163 2.163zm-3.786 0l1.622 1.622v-3.245l-1.622 1.622v.001z"/><path d="M312.091 416.577h1.44v.48h-1.44v-.48zm5.76 0h1.44v.48h-1.44v-.48z"/><g class="C"><use href="#AV"/><use href="#AW"/><use href="#AX"/><use href="#AW" x="-4.115" y="-0.001"/></g></g><g fill="#b3b3b3"><use href="#AT" y="13.389"/><use href="#AU" y="13.388"/></g><g class="C"><path d="M124.007 432.609v-5.355a1.49 1.49 0 0 1 .93-1.391c.182-.076.378-.116.576-.115h5.355c.198-.001.394.039.576.115a1.49 1.49 0 0 1 .815.815c.076.182.115.378.115.576v5.355a1.49 1.49 0 0 1-1.506 1.506h-5.355a1.49 1.49 0 0 1-1.506-1.506z" class="F L M"/><use href="#AN" y="80.33" class="D N"/></g><clipPath id="u"><path d="M351.331 350.159v-1.116c0-1.078.382-1.998 1.144-2.761a3.76 3.76 0 0 1 2.761-1.144h82.25l.148-.003a3.78 3.78 0 0 1 3.76 3.76l-.003.148v1.116l.003.148a3.78 3.78 0 0 1-3.76 3.76c-.049 0-.099-.001-.148-.003h-82.25l-.148.003a3.78 3.78 0 0 1-3.76-3.76l.003-.148z"/></clipPath><g clip-path="url(#u)" class="B D"><text font-size="7.029" transform="translate(354.53 352.39)" x="0" y="0">INSER<tspan x="20.433px 24.468px" y="0px 0px">T </tspan> UPDA<tspan x="46.862px 50.897px" y="0px 0px">TE</tspan>  DELETE</text></g><text x="137.117" y="365.779" class="B E Y">cityId</text><clipPath id="v"><path d="M274.348 362.99c0-.74.142-1.452.425-2.135a5.52 5.52 0 0 1 3.019-3.019c.683-.283 1.395-.425 2.134-.425h11.715c.74 0 1.452.142 2.135.425a5.52 5.52 0 0 1 3.019 3.019c.283.683.425 1.395.425 2.135a5.52 5.52 0 0 1-3.444 5.153c-.683.284-1.395.425-2.135.425h-11.715c-.739 0-1.451-.141-2.134-.425a5.52 5.52 0 0 1-3.019-3.019c-.283-.683-.425-1.395-.425-2.134z"/></clipPath><g clip-path="url(#v)" class="B I J"><text x="288.643" y="365.221">…</text></g><path d="M283.182 363.929v-2.717h-.48v2.716l-.681-.688-.386.258 1.319 1.377.386-.403h0l.932-.973-.386-.258-.705.688zm-.96-2.717h-2.4v.48h2.4v-.48zm-.48.96h-1.92v.48h1.92v-.48zm-.48.96h-1.44v.48h1.44v-.48zm-.48.96h-.96v.48h.96v-.48zm.96-4.8c2.119 0 3.84 1.721 3.84 3.84s-1.721 3.84-3.84 3.84-3.84-1.721-3.84-3.84 1.721-3.84 3.84-3.84zm0 .48a3.38 3.38 0 0 0-3.36 3.36 3.38 3.38 0 0 0 3.36 3.36 3.38 3.38 0 0 0 3.36-3.361 3.38 3.38 0 0 0-3.36-3.36h0z" class="D"/><text x="323.352" y="365.779" class="B E H">city_id</text><text x="137.117" y="379.167" class="B E Y">city</text><clipPath id="w"><path d="M286.063 376.378a5.53 5.53 0 0 1 .424-2.135c.284-.683.687-1.287 1.21-1.81a5.52 5.52 0 0 1 1.81-1.209c.683-.283 1.395-.424 2.134-.424a5.53 5.53 0 0 1 2.135.424 5.52 5.52 0 0 1 1.81 1.209c1.05 1.043 1.639 2.465 1.634 3.945.005 1.48-.584 2.902-1.634 3.945a5.52 5.52 0 0 1-1.81 1.209c-.683.283-1.395.425-2.135.425a5.52 5.52 0 0 1-3.944-1.634c-.523-.523-.926-1.127-1.21-1.81a5.53 5.53 0 0 1-.424-2.135z"/></clipPath><g clip-path="url(#w)" class="B I J"><text x="288.643" y="378.609">…</text></g><text x="323.352" y="379.167" class="B E H">city</text><text x="137.117" y="392.556" class="B E Y">countryId</text><clipPath id="x"><path d="M286.063 389.766c0-.739.141-1.451.424-2.134a5.53 5.53 0 0 1 1.21-1.81 5.52 5.52 0 0 1 1.81-1.209c.683-.283 1.395-.425 2.134-.425a5.53 5.53 0 0 1 2.135.425 5.52 5.52 0 0 1 3.019 3.019c.283.683.425 1.395.425 2.134a5.53 5.53 0 0 1-.425 2.135 5.52 5.52 0 0 1-3.019 3.019c-.683.283-1.395.425-2.135.425a5.52 5.52 0 0 1-3.944-1.634c-.523-.523-.926-1.126-1.21-1.81a5.51 5.51 0 0 1-.424-2.135z"/></clipPath><g clip-path="url(#x)" class="B I J"><text x="288.643" y="391.998">…</text></g><text x="323.352" y="392.556" class="B E H">country_id</text><text x="137.117" y="405.944" class="B E Y">lastUpdate</text><clipPath id="y"><path d="M286.063 403.155a5.53 5.53 0 0 1 .424-2.135c.284-.683.687-1.287 1.21-1.81a5.52 5.52 0 0 1 1.81-1.209c.683-.283 1.395-.425 2.134-.425a5.53 5.53 0 0 1 2.135.425 5.52 5.52 0 0 1 1.81 1.209c1.05 1.043 1.639 2.465 1.634 3.945.001.733-.143 1.459-.425 2.135-.283.683-.686 1.286-1.209 1.809a5.52 5.52 0 0 1-1.81 1.21 5.53 5.53 0 0 1-2.135.424 5.52 5.52 0 0 1-3.944-1.633 5.56 5.56 0 0 1-1.21-1.81 5.53 5.53 0 0 1-.424-2.135z"/></clipPath><g clip-path="url(#y)" class="B I J"><text x="288.643" y="405.386">…</text></g><text x="323.352" y="405.944" class="B E H">last_update</text><text x="137.221" y="419.333" class="B E Q">country</text><clipPath id="z"><path d="M240.319 416.543c0-.739.142-1.451.425-2.134a5.52 5.52 0 0 1 1.209-1.81c.523-.523 1.126-.926 1.81-1.21a5.51 5.51 0 0 1 2.135-.424 5.52 5.52 0 0 1 2.134.424 5.53 5.53 0 0 1 1.81 1.21c.523.523.926 1.126 1.209 1.809a5.53 5.53 0 0 1 .425 2.135 5.51 5.51 0 0 1-.425 2.135 5.52 5.52 0 0 1-3.019 3.019c-.683.283-1.395.425-2.134.425a5.53 5.53 0 0 1-2.135-.425 5.52 5.52 0 0 1-3.019-3.019c-.283-.683-.425-1.395-.425-2.135z"/></clipPath><g clip-path="url(#z)" class="B I J"><text x="243.37" y="418.775">…</text></g><clipPath id="AA"><path d="M254.823 417.101v-1.116l-.003-.147a3.78 3.78 0 0 1 3.76-3.76l.148.003h34.029l.148-.003a3.78 3.78 0 0 1 3.76 3.76l-.003.147v1.116c0 1.079-.381 1.999-1.144 2.761a3.76 3.76 0 0 1-2.761 1.144h-34.029a3.76 3.76 0 0 1-2.761-1.144c-.763-.762-1.144-1.682-1.144-2.761z"/></clipPath><g clip-path="url(#AA)" class="D"><text font-size="7.029" x="269.589" y="419.333" class="B">Unnest</text><g transform="matrix(.310093 0 0 .310093 74.2157 131.568)"><path d="M596 908h24v2h-24v-2zm0 20h24v2h-24v-2zm12-16h12v2h-12v-2zm0 4h12v2h-12v-2zm0 4h12v2h-12v-2zm0 4h12v2h-12v-2zm-11.497-6H606v2h-9.497v-2z"/><g transform="matrix(.420974 -.420974 .864876 .864876 -450.028 378.071)"><path d="M601 917h12v2h-12z"/></g><g transform="matrix(.490585 .490585 .864876 -.864876 -492.699 1417.25)"><path d="M601 917h12v2h-12z"/></g></g></g><text x="336.182" y="419.333" class="E H W X">sakila.country</text><text x="137.221" y="432.721" class="B E Q">addr</text><text x="153.138" y="432.721" class="B E Q">ess</text><clipPath id="AB"><path d="M286.063 429.932c0-.74.141-1.452.424-2.135a5.53 5.53 0 0 1 1.21-1.81 5.52 5.52 0 0 1 1.81-1.209c.683-.283 1.395-.425 2.134-.425a5.53 5.53 0 0 1 2.135.425 5.52 5.52 0 0 1 1.81 1.209 5.53 5.53 0 0 1 1.209 1.81c.283.683.425 1.395.425 2.135.001.733-.143 1.459-.425 2.135-.283.683-.686 1.286-1.209 1.809s-1.126.926-1.81 1.21a5.51 5.51 0 0 1-2.135.424 5.52 5.52 0 0 1-3.944-1.634c-.523-.523-.926-1.126-1.21-1.809a5.53 5.53 0 0 1-.424-2.135z"/></clipPath><g clip-path="url(#AB)" class="B I J"><text x="288.643" y="432.163">…</text></g><text x="336.182" y="432.721" class="E H W X">sakila.addr</text><text x="373.217" y="432.721" class="E H W X">ess</text><text x="113.129" y="446.109" class="B E H">}</text><g transform="matrix(-.48 0 0 .48 319.291 426.657)" class="D"><path d="M12.004 7.496l-4.507 4.507L2.99 7.496l4.507-4.507 4.507 4.507zm-7.887 0l3.38 3.38v-6.76l-3.38 3.38z"/><path d="M0 7h3v1H0V7zm12 0h3v1h-3V7z"/></g><g class="C D"><use href="#AV" y="13.44"/><use href="#AW" y="13.44"/><use href="#AX" y="13.44"/><use href="#AW" x="-4.115" y="13.439"/></g></g><defs ><path id="AD" d="M68.501 163.251V-109.65h459.111v272.901c0 .739-.261 1.371-.784 1.893a2.58 2.58 0 0 1-1.893.785H71.179a2.58 2.58 0 0 1-1.894-.785c-.523-.522-.784-1.154-.784-1.893z"/><path id="AE" d="M69.059 28v135.251l-.002.082a2.05 2.05 0 0 0 2.04 2.04l.082-.002h453.756a2.04 2.04 0 0 0 1.499-.621c.414-.414.62-.914.621-1.499V28h.557v137.929H68.501V28h.558z"/><path id="AF" d="M68.501 617.928V227.32c0-.739.261-1.37.784-1.893.496-.511 1.182-.795 1.894-.784h453.756c.739 0 1.37.261 1.893.784s.784 1.154.784 1.893v390.608H68.501z"/><path id="AG" d="M527.612 224.643H68.501v393.285h.558V227.32l-.002-.082a2.05 2.05 0 0 1 2.04-2.04l.082.002h453.756a2.04 2.04 0 0 1 1.499.621c.414.414.62.914.621 1.499v390.608h.557V224.643z"/><path id="AH" d="M440.445 228.504l97.75 97.75c6.748 6.748 6.748 17.689 0 24.438s-17.689 6.748-24.438 0l-97.75-97.75c-6.748-6.748-6.748-17.689 0-24.438s17.689-6.748 24.438 0z"/><path id="AI" d="M416.007 326.254l97.75-97.75c6.748-6.748 17.689-6.748 24.438 0s6.748 17.689 0 24.438l-97.75 97.75c-6.748 6.748-17.689 6.748-24.438 0s-6.748-17.689 0-24.438z"/><path id="AJ" d="M99.462 274.849v-7.81a1.95 1.95 0 0 1 .148-.747 1.94 1.94 0 0 1 1.057-1.057c.239-.099.488-.148.747-.148h88.14a1.95 1.95 0 0 1 .747.148 1.94 1.94 0 0 1 1.057 1.057c.099.239.148.488.148.747v7.81a1.95 1.95 0 0 1-.148.747 1.94 1.94 0 0 1-1.057 1.057c-.239.099-.488.148-.747.148h-88.14a1.95 1.95 0 0 1-.747-.148 1.94 1.94 0 0 1-1.057-1.057c-.099-.239-.148-.488-.148-.747z"/><path id="AK" d="M99.741 274.849v-7.81l-.001-.064a1.62 1.62 0 0 1 1.61-1.61l.064.001h88.141l.064-.001a1.62 1.62 0 0 1 1.61 1.61l-.001.064v7.81a1.61 1.61 0 0 1-.49 1.184c-.327.326-.721.49-1.183.49h-88.141l-.064.001a1.62 1.62 0 0 1-1.61-1.61l.001-.065z"/><path id="AL" d="M201.269 274.849v-7.81l-.001-.064a1.62 1.62 0 0 1 1.61-1.61l.065.001h88.14l.065-.001a1.62 1.62 0 0 1 1.61 1.61l-.001.064v7.81a1.61 1.61 0 0 1-.49 1.184c-.327.326-.721.49-1.184.49h-88.14a1.61 1.61 0 0 1-1.183-.49c-.327-.327-.491-.722-.491-1.184z"/><path id="AM" d="M341.848 336.771v-7.81a1.61 1.61 0 0 1 .49-1.184c.327-.326.721-.49 1.184-.49h68.057c.462 0 .857.164 1.184.49a1.61 1.61 0 0 1 .49 1.184v7.81c0 .462-.164.856-.49 1.183a1.61 1.61 0 0 1-1.184.49h-68.057l-.065.001a1.62 1.62 0 0 1-1.61-1.61l.001-.064z"/><path id="AN" d="M297.219 349.601a5.6 5.6 0 0 1-.107 1.088c-.071.359-.177.708-.317 1.047s-.312.661-.515.965a5.58 5.58 0 0 1-1.539 1.539c-.304.203-.627.375-.965.515s-.687.246-1.047.317c-.719.143-1.458.143-2.177 0-.359-.071-.708-.177-1.047-.317s-.661-.312-.965-.515a5.58 5.58 0 0 1-1.539-1.539c-.203-.304-.375-.627-.515-.965s-.246-.687-.317-1.047c-.143-.719-.143-1.458 0-2.177.071-.359.177-.708.317-1.047s.312-.661.515-.965a5.58 5.58 0 0 1 1.539-1.539c.304-.203.627-.375.965-.515s.687-.246 1.047-.317c.719-.143 1.458-.143 2.177 0 .359.071.708.177 1.047.317s.661.312.965.515a5.58 5.58 0 0 1 1.539 1.539c.203.304.375.627.515.965s.246.687.317 1.047a5.6 5.6 0 0 1 .107 1.088v.001z"/><path id="AO" d="M436 12v2c-.03 1.862.713 3.655 2.05 4.95 1.295 1.337 3.088 2.08 4.95 2.05h70c1.862.03 3.655-.713 4.95-2.05 1.337-1.295 2.08-3.088 2.05-4.95v-2c.03-1.862-.713-3.655-2.05-4.95-1.295-1.337-3.088-2.08-4.95-2.05h-70c-1.862-.03-3.655.713-4.95 2.05-1.337 1.295-2.08 3.088-2.05 4.95z"/><path id="AP" d="M124.007 365.667v-5.355a1.49 1.49 0 0 1 1.506-1.506h5.355a1.49 1.49 0 0 1 1.506 1.506v5.355a1.49 1.49 0 0 1-1.506 1.506h-5.355a1.49 1.49 0 0 1-1.506-1.506z"/><path id="AQ" d="M125.036 363.22l2.367 2.367.789-.789-2.367-2.367-.789.789z"/><path id="AR" d="M126.613 364.799l.789.789 3.945-3.945-.789-.789-3.945 3.945z"/><path id="AS" d="M300.028 363.262c.054.083.167.177.255.211.108.034.864.054 2.42.054h2.263l-.471.476c-.564.574-.633.672-.633.888a.56.56 0 0 0 .52.501c.177 0 .24-.054 1.286-1.099 1.09-1.085 1.104-1.099 1.104-1.306s-.015-.221-1.09-1.296l-1.019-1.009c-.134-.138-.477-.125-.641.027a.55.55 0 0 0-.108.623c.029.059.28.334.55.609l.501.506h-2.272c-2.493 0-2.533.005-2.68.29-.103.196-.098.339.015.525z"/><path id="AT" d="M114.803 419.699l3.156-3.156-.394-.394-3.156 3.156.394.394z"/><path id="AU" d="M117.564 416.938l.394-.394-3.156-3.156-.394.394 3.156 3.156z"/><path id="AV" d="M331.501 413.086v7.2h-7.2v-7.2h7.2zm-.514 1.029h-6.171v5.657h6.171v-5.657z"/><path id="AW" d="M329.445 418.23h1.029v.514h-1.029v-.514zm0-1.028h1.029v.514h-1.029v-.514zm0-1.029h1.029v.514h-1.029v-.514zm0-1.028h1.029v.514h-1.029v-.514z"/><path id="AX" d="M326.873 418.23h2.058v.514h-2.058v-.514zm0-1.028h2.058v.514h-2.058v-.514zm0-1.029h2.058v.514h-2.058v-.514zm0-1.028h2.058v.514h-2.058v-.514z"/></defs></svg>