<svg xmlns="http://www.w3.org/2000/svg" xmlns:xlink="http://www.w3.org/1999/xlink" width="100%" height="100%" viewBox="0 0 1920 1300" fill-rule="evenodd" xmlns:v="https://vecta.io/nano"><style><![CDATA[.B{font-family:HelveticaNeue, Helvetica Neue, Arial}.C{fill-rule:nonzero}.D{fill:#fff}.E{stroke-width:.558}.F{font-size:7.81px}.G{fill:#f0f0f0}.H{fill:#bfbfbf}.I{font-family:ArialMT, Arial, sans-serif}.J{fill:#909090}.K{font-size:5.579px}.L{fill:none}.M{font-size:32px}.N{fill:#3c3c3c}.O{stroke:#3c3c3c}.P{stroke-linecap:round}.Q{stroke-width:2}.R{fill-opacity:.04}.S{stroke-linejoin:round}.T{stroke-miterlimit:1.5}.U{fill:#222225}.V{font-size:8.368px}.W{fill:#797979}.X{fill:#282828}.Y{fill:#606060}.Z{font-size:7.949px}.a{font-size:7.531px}.b{fill:#9cdcfe}.c{stroke:#ffb300}.d{fill:#212121}.e{fill:#1e1e1e}.f{fill:#2a2727}.g{stroke:#3a3a3a}.h{font-size:7.14px}.i{stroke:#343434}.j{font-family:HelveticaNeue-Italic, Helvetica Neue, Arial}.k{font-style:italic}.l{stroke:#00fceb}.m{fill:#ff2d8c}]]></style><g transform="matrix(4.16667 0 0 4.16667 -282.667 605)"><clipPath id="A"><path d="M28 28h540v138.8H28z"/></clipPath><g clip-path="url(#A)"><path d="M68.78 163.251v-272.901h458.554v272.901c0 .318-.061.624-.182.918s-.295.553-.52.779a2.38 2.38 0 0 1-.778.52c-.293.122-.6.182-.918.182H71.179a2.38 2.38 0 0 1-.918-.182c-.293-.122-.553-.295-.778-.52a2.38 2.38 0 0 1-.52-.778c-.122-.293-.182-.6-.182-.918z" class="C d"/><clipPath id="B"><use xlink:href="#AE"/></clipPath><g clip-path="url(#B)"><g transform="matrix(-.394463 -.394458 -.394458 .394463 460.95 326.867)"><clipPath id="C"><path d="M875.575 117.908L704.138 289.347a3.66 3.66 0 0 1-2.687 1.113 3.66 3.66 0 0 1-2.687-1.113L123.6-285.81a3.66 3.66 0 0 1-1.113-2.687 3.66 3.66 0 0 1 1.113-2.687l171.437-171.439-.707-.708-174.831 174.834 581.952 581.945 174.831-174.833-.707-.707z"/></clipPath><g clip-path="url(#C)" class="C U"><path d="M119.499-288.497h4.101l577.851 577.844v4.101L119.499-288.497z"/></g></g></g><clipPath id="D"><use xlink:href="#AE"/></clipPath><g clip-path="url(#D)"><clipPath id="E"><use xlink:href="#AF"/></clipPath><g clip-path="url(#E)"><clipPath id="F"><path d="M525.995-109.706h1.618v275.634h-1.618z"/></clipPath><g clip-path="url(#F)"><g transform="matrix(.557851 0 0 -.557851 68.5009 165.929)"><clipPath id="G"><path d="M823 494h-2.9V2.8L823-.1V494z"/></clipPath><g clip-path="url(#G)" class="U"><path d="M0 0h823v494H0z"/></g></g></g></g></g><clipPath id="H"><path d="M28 28h540v786.57H28z"/></clipPath><g clip-path="url(#H)"><clipPath id="I"><use xlink:href="#AE"/></clipPath><g clip-path="url(#I)"><clipPath id="J"><use xlink:href="#AF"/></clipPath><g clip-path="url(#J)"><clipPath id="K"><path d="M68.501 165.985l1.618-1.618V-109.65h-1.618v275.635z"/></clipPath><g clip-path="url(#K)"><g transform="matrix(.557851 0 0 -.557851 68.5009 165.929)"><clipPath id="L"><path d="M0 0h2.9v494.1H0z"/></clipPath><g clip-path="url(#L)" class="U"><path d="M0 0h823v494H0z"/></g></g></g></g></g></g><g transform="matrix(.557851 0 0 -.448286 68.5009 360.715)" class="d"><path d="M1 447h821v46H1z"/></g><path d="M69.059 140.268h457.996v-.558H69.059z" fill="#3b3b3b"/><path d="M99.183 122.974H496.93V28H99.183z" class="e"/><g fill="#333" stroke="#3d3d3d" class="C E"><path d="M412.416 157.561v-9.483a1.95 1.95 0 0 1 .148-.747 1.94 1.94 0 0 1 1.057-1.057c.239-.099.488-.148.747-.148h40.165a1.95 1.95 0 0 1 .747.148 1.94 1.94 0 0 1 .634.423 1.93 1.93 0 0 1 .572 1.381v9.483a1.93 1.93 0 0 1-.572 1.381 1.94 1.94 0 0 1-.634.423c-.239.099-.488.148-.747.148h-40.165a1.95 1.95 0 0 1-.747-.148 1.94 1.94 0 0 1-1.057-1.057c-.099-.239-.148-.488-.148-.747zm55.785 0v-9.483a1.95 1.95 0 0 1 .148-.747 1.94 1.94 0 0 1 1.057-1.057c.239-.099.488-.148.747-.148h40.165a1.95 1.95 0 0 1 .747.148 1.94 1.94 0 0 1 1.057 1.057c.099.239.148.488.148.747v9.483a1.95 1.95 0 0 1-.148.747 1.94 1.94 0 0 1-1.057 1.057c-.239.099-.488.148-.747.148h-40.165a1.95 1.95 0 0 1-.747-.148 1.94 1.94 0 0 1-1.057-1.057c-.099-.239-.148-.488-.148-.747z"/></g><text x="421.316" y="155.887" class="B J V">Cancel</text><text x="484.152" y="155.887" class="B J V">OK</text></g></g><path d="M4.162 969.69V12.956c0-.901.253-1.768.76-2.601s1.23-1.566 2.166-2.204 2.02-1.126 3.243-1.473 2.501-.517 3.826-.517h1890.651c1.325 0 2.601.172 3.824.517s2.306.836 3.243 1.473 1.66 1.373 2.169 2.204.76 1.7.76 2.601V969.69H4.162z" class="C d"/><g transform="matrix(4.16667 0 0 4.16667 -282.42 -931.011)"><clipPath id="M"><use xlink:href="#AG"/></clipPath><g clip-path="url(#M)"><g transform="matrix(.39446 .394461 .394461 -.39446 -141.787 340.653)"><clipPath id="N"><path d="M701.449 995.55L119.501 413.6 618.012-84.909l.707.707-495.117 495.115a3.66 3.66 0 0 0-1.113 2.687 3.66 3.66 0 0 0 1.113 2.687l575.159 575.162a3.66 3.66 0 0 0 2.687 1.113 3.66 3.66 0 0 0 2.688-1.113l495.114-495.115.71.707L701.449 995.55z"/></clipPath><g clip-path="url(#N)" class="C U"><path d="M119.501 413.6h4.101l577.847 577.849v4.101L119.501 413.6z"/></g></g></g><clipPath id="O"><use xlink:href="#AG"/></clipPath><g clip-path="url(#O)"><clipPath id="P"><use xlink:href="#AH"/></clipPath><g clip-path="url(#P)"><clipPath id="Q"><path d="M527.612 224.587l-1.617 1.618v391.723h1.617V224.587z"/></clipPath><g clip-path="url(#Q)"><g transform="matrix(.557851 0 0 -.435979 68.5009 532.008)"><clipPath id="R"><path d="M820.1-.1h2.9V705h-2.9z"/></clipPath><g clip-path="url(#R)" class="U"><path d="M0 0h823v705H0z"/></g></g></g></g></g><clipPath id="S"><use xlink:href="#AG"/></clipPath><g clip-path="url(#S)"><clipPath id="T"><use xlink:href="#AH"/></clipPath><g clip-path="url(#T)"><clipPath id="U"><path d="M68.501 224.643h1.618v393.341h-1.618z"/></clipPath><g clip-path="url(#U)"><g transform="matrix(.557851 0 0 -.435979 68.5009 532.008)"><clipPath id="V"><path d="M0 0h2.9v702.2L0 705.1V0z"/></clipPath><g clip-path="url(#V)" class="U"><path d="M0 0h823v705H0z"/></g></g></g></g></g><g transform="matrix(.047162 0 0 .047162 494.512 221.863)" class="D"><path d="M512.55 241.378h8.926v-11.715h-8.926z"/><g transform="matrix(.24 0 0 .24 354.101 166.598)" class="C"><use xlink:href="#AI"/><use xlink:href="#AI"/><use xlink:href="#AJ"/><use xlink:href="#AJ"/></g></g><path d="M74.663 231.785l-.549.549v6.583l.549.549h6.583l.549-.549v-6.583l-.549-.549h-6.583zm0 7.131v-6.583h6.583v6.583h-6.583zm2.068-1.467l.38.388 1.924-1.917v-.334l-1.924-1.924-.379.388 1.679 1.72-1.68 1.679z" class="H"/><text x="84.679" y="238.589" class="B H V">MySQL REST Object</text><clipPath id="W"><path d="M99.183 254.209h92.603v38.492H99.183z"/></clipPath><g clip-path="url(#W)"><text x="99.183" y="262.019" class="B W Z">REST Service Path</text><text x="99.183" y="284.337" class="B K Y">The path of the REST Service</text><use xlink:href="#AK" class="C E f g"/></g><clipPath id="X"><use xlink:href="#AL"/></clipPath><g clip-path="url(#X)"><clipPath id="Y"><path d="M106.435 273.176v-3.905a2.15 2.15 0 0 1 2.231-2.232h73.637c.616 0 1.142.218 1.577.654s.654.961.654 1.578v3.905c0 .616-.218 1.142-.654 1.577s-.961.654-1.577.654h-73.637a2.15 2.15 0 0 1-2.231-2.231z"/></clipPath><g clip-path="url(#Y)" class="B G h"><text x="106.435" y="273.733">/myService</text></g></g><clipPath id="Z"><path d="M200.712 254.209h92.603v38.492h-92.603z"/></clipPath><g clip-path="url(#Z)"><text x="200.816" y="262.019" class="B W Z">REST Schema Path</text><text x="200.816" y="284.337" class="B K Y">The path of the REST Schema</text><path d="M200.991 274.849v-7.81c0-.259.05-.508.148-.747a1.94 1.94 0 0 1 1.057-1.057c.239-.099.488-.148.747-.148h88.14c.259 0 .508.05.747.148a1.94 1.94 0 0 1 1.057 1.057c.099.239.148.488.148.747v7.81c0 .259-.05.508-.148.747a1.94 1.94 0 0 1-1.057 1.057c-.239.099-.488.148-.747.148h-88.14c-.259 0-.508-.05-.747-.148a1.94 1.94 0 0 1-1.057-1.057c-.099-.239-.148-.488-.148-.747z" class="C E f g"/></g><clipPath id="a"><use xlink:href="#AM"/></clipPath><g clip-path="url(#a)"><clipPath id="b"><path d="M207.964 273.176v-3.905a2.15 2.15 0 0 1 2.231-2.232h73.636c.617 0 1.143.218 1.578.654s.654.961.654 1.578v3.905c0 .616-.218 1.142-.654 1.577s-.961.654-1.578.654h-73.636a2.15 2.15 0 0 1-2.231-2.231z"/></clipPath><g clip-path="url(#b)" class="B G h"><text x="208.068" y="273.733">/sakila</text></g></g><text x="302.458" y="262.019" class="B W Z">REST Object Path</text><text x="302.458" y="283.777" class="B K Y">The path, has to starts with /</text><clipPath id="c"><use xlink:href="#AL"/></clipPath><g clip-path="url(#c)" class="G"><g transform="matrix(.39446 .39446 .39446 -.39446 181.868 272.359)"><path d="M0 5h6v1H0z"/></g><g transform="matrix(.39446 .39446 .39446 -.39446 183.841 270.386)"><path d="M5 0h1v6H5z"/></g></g><clipPath id="d"><use xlink:href="#AM"/></clipPath><g clip-path="url(#d)" class="G"><g transform="matrix(.39446 .39446 .39446 -.39446 283.397 272.359)"><path d="M0 5h6v1H0z"/></g><g transform="matrix(.39446 .39446 .39446 -.39446 285.37 270.386)"><path d="M5 0h1v6H5z"/></g></g><clipPath id="e"><path d="M302.241 264.808h93.161v11.715h-93.161z"/></clipPath><g clip-path="url(#e)" class="C E X i"><path d="M302.519 274.291v-7.252c0-.259.05-.508.148-.747a1.94 1.94 0 0 1 1.057-1.057c.239-.099.488-.148.747-.148h88.698c.259 0 .508.05.747.148a1.94 1.94 0 0 1 .634.423 1.93 1.93 0 0 1 .572 1.381v7.252a1.93 1.93 0 0 1-.572 1.381 1.94 1.94 0 0 1-.634.423c-.239.099-.488.148-.747.148h-88.698c-.259 0-.508-.05-.747-.148a1.94 1.94 0 0 1-1.057-1.057c-.099-.239-.148-.488-.148-.747z"/></g><use xlink:href="#AN" class="C E N O"/><g class="G"><path d="M406.75 272.291l2.367 2.367.789-.789-2.367-2.367z"/><path d="M408.328 273.869l.789.789 3.945-3.945-.789-.789z"/></g><use xlink:href="#AN" y="13.947" class="C E N O"/><path d="M99.183 316.688H496.93v-15.062H99.183z" fill="#2c2c2c"/><path d="M99.183 316.688H234.74v-15.062H99.183z" class="e"/><path d="M99.183 302.742H234.74v-1.116H99.183z" fill="#007acc"/><g fill="#2e2e2e"><path d="M234.74 316.688h82.004v-15.062H234.74z"/><path d="M316.745 316.688h98.74v-15.062h-98.74z"/><path d="M415.484 316.688h81.446v-15.062h-81.446z"/></g><clipPath id="f"><path d="M302.798 274.291v-7.252a1.61 1.61 0 0 1 1.674-1.673h88.698a1.61 1.61 0 0 1 1.184.49c.326.327.49.721.49 1.183v7.252c0 .462-.164.857-.49 1.184s-.722.49-1.184.49h-88.698a1.61 1.61 0 0 1-1.183-.49c-.327-.327-.491-.722-.491-1.184z"/></clipPath><g clip-path="url(#f)" class="I"><text x="307.479" y="273.176" font-size="7.436" fill="#ccc">/city</text></g><text x="404.101" y="262.019" class="B W Z">MRS Object Flags</text><text x="418.605" y="274.846" class="B H V">Enabled</text><text x="418.605" y="288.794" class="B H V">Requir<tspan x="442.938px 447.432px" y="288.794px 288.794px">es</tspan> Auth</text><text x="123.135" y="312.783" class="B D a">JSON/Relational Duality</text><text x="258.493" y="312.783" fill="#999" class="B a">Settings</text><text x="340.715" y="312.783" fill="#999" class="B a">Authorization</text><text x="439.664" y="312.783" fill="#999" class="B a">Options</text><path d="M99.183 491.688H496.93V316.689H99.183z" class="e"/><clipPath id="g"><path d="M108.108 325.614h135v11.715h-135z"/></clipPath><g clip-path="url(#g)"><path d="M152.457 335.098v-7.252c0-.259.05-.508.148-.747a1.94 1.94 0 0 1 1.057-1.057c.239-.099.488-.148.747-.148h86.467c.259 0 .508.05.747.148a1.94 1.94 0 0 1 1.057 1.057c.099.239.148.488.148.747v7.252c0 .259-.05.508-.148.747a1.94 1.94 0 0 1-1.057 1.057c-.239.099-.488.148-.747.148H154.41c-.259 0-.508-.05-.747-.148a1.94 1.94 0 0 1-1.057-1.057c-.099-.239-.148-.488-.148-.747z" class="C E X i"/><text x="108.108" y="334.539" class="B V W">DB Object:</text><clipPath id="h"><path d="M152.736 335.097v-7.252a1.61 1.61 0 0 1 1.674-1.674h86.467a1.61 1.61 0 0 1 1.673 1.674v7.252a1.61 1.61 0 0 1-1.673 1.674H154.41a1.61 1.61 0 0 1-1.674-1.674z"/></clipPath><g clip-path="url(#h)" class="I"><text x="156.999" y="333.981" font-size="7.436" fill="#ccc">city</text></g></g></g><path d="M1116.378 483.822h4.649v-55.785h-4.649zm348.657 0h4.649v-55.785h-4.649z" fill="#3d3d3d"/><path d="M1494.09 472.2v-32.541c0-1.079.207-2.118.618-3.112s1.002-1.878 1.764-2.64 1.643-1.35 2.64-1.764 2.034-.618 3.112-.618h234.762c1.079 0 2.118.207 3.112.618s1.878 1.002 2.64 1.764 1.35 1.643 1.764 2.64.618 2.034.618 3.112V472.2c0 1.079-.207 2.118-.618 3.112s-1.002 1.878-1.764 2.64-1.643 1.35-2.64 1.764-2.034.618-3.112.618h-234.762c-1.079 0-2.118-.207-3.112-.618s-1.878-1.002-2.64-1.764-1.35-1.643-1.764-2.64-.618-2.034-.618-3.112z" fill="#333" stroke="#3d3d3d" stroke-width="2.324" class="C"/><text x="440.544" y="334.585" font-size="7.252" transform="matrix(4.16667 0 0 4.16667 -282.42 -928.011)" class="B W"><tspan x="440.544px" y="334.585px">D</tspan>DL Pr<tspan x="463.787px 467.681px" y="334.585px 334.585px">ev</tspan>iew</text><path d="M1527.635 439.005c-6.441 0-11.737 5.295-11.737 11.731a11.73 11.73 0 0 0 2.949 7.778l-11.475 13.025 1.593 1.422 11.447-12.968c2.063 1.614 4.609 2.491 7.229 2.491 6.436 0 11.732-5.297 11.732-11.732s-5.297-11.732-11.732-11.732l-.006-.014zm0 21.329c-5.265 0-9.598-4.333-9.598-9.598s4.333-9.598 9.598-9.598 9.598 4.333 9.598 9.598-4.333 9.598-9.598 9.598z" class="C J"/><g transform="matrix(4.16667 0 0 4.16667 -282.42 -931.011)"><clipPath id="i"><path d="M341.29 326.729h72.521v12.273H341.29z"/></clipPath><g clip-path="url(#i)"><path d="M341.569 336.771v-7.81c0-.259.05-.508.148-.747a1.94 1.94 0 0 1 1.057-1.057c.239-.099.488-.148.747-.148h68.058c.259 0 .508.05.747.148a1.94 1.94 0 0 1 1.057 1.057c.099.239.148.488.148.747v7.81c0 .259-.05.508-.148.747a1.94 1.94 0 0 1-1.057 1.057c-.239.099-.488.148-.747.148h-68.058c-.259 0-.508-.05-.747-.148a1.94 1.94 0 0 1-1.057-1.057c-.099-.239-.148-.488-.148-.747z" class="C E f g"/><clipPath id="j"><use xlink:href="#AO"/></clipPath><g clip-path="url(#j)"><clipPath id="k"><path d="M348.542 335.097v-3.905a2.15 2.15 0 0 1 2.232-2.231h53.553a2.15 2.15 0 0 1 2.232 2.231v3.905a2.15 2.15 0 0 1-2.232 2.231h-53.553c-.617 0-1.143-.217-1.578-.653a2.15 2.15 0 0 1-.654-1.578z"/></clipPath><g clip-path="url(#k)" class="h"><text x="348.499" y="335.655" font-family="HelveticaNeue-Thin, Helvetica Neue, sans-serif" font-weight="200" fill="#595959">SDK Language</text></g></g><clipPath id="l"><use xlink:href="#AO"/></clipPath><g clip-path="url(#l)" class="G"><g transform="matrix(.39446 .39446 .39446 -.39446 403.893 334.28)"><path d="M0 5h6v1H0z"/></g><g transform="matrix(.39446 .39446 .39446 -.39446 405.865 332.308)"><path d="M5 0h1v6H5z"/></g></g></g><path d="M108.387 446.109v-99.297a4.18 4.18 0 0 1 .08-.816 4.15 4.15 0 0 1 .238-.785c.105-.254.234-.495.387-.724s.326-.44.52-.634.406-.368.634-.52.47-.282.724-.387a4.15 4.15 0 0 1 .785-.238 4.18 4.18 0 0 1 .816-.08h369.855a4.18 4.18 0 0 1 .816.08 4.15 4.15 0 0 1 .785.238c.254.105.495.234.724.387s.44.326.634.52a4.2 4.2 0 0 1 .52.634c.153.229.282.47.387.724a4.19 4.19 0 0 1 .238.785 4.18 4.18 0 0 1 .08.816v99.297a4.18 4.18 0 0 1-.08.816 4.19 4.19 0 0 1-.238.785c-.105.254-.234.495-.387.724a4.2 4.2 0 0 1-1.154 1.154c-.229.153-.47.282-.724.387a4.15 4.15 0 0 1-.785.238 4.18 4.18 0 0 1-.816.08H112.571a4.18 4.18 0 0 1-.816-.08 4.15 4.15 0 0 1-.785-.238c-.254-.105-.495-.234-.724-.387a4.2 4.2 0 0 1-.634-.52c-.195-.194-.368-.406-.52-.634s-.282-.47-.387-.724a4.15 4.15 0 0 1-.238-.785 4.18 4.18 0 0 1-.08-.816z" class="E L i"/><g class="C"><path d="M108.666 356.295v-10.041a3.31 3.31 0 0 1 .255-1.281 3.32 3.32 0 0 1 1.811-1.811 3.31 3.31 0 0 1 1.281-.255h370.971a3.31 3.31 0 0 1 1.281.255 3.32 3.32 0 0 1 1.811 1.811 3.31 3.31 0 0 1 .255 1.281v10.041H108.666z" fill="#009dff" fill-opacity=".2"/><path d="M120.414 345.859v7.68h-7.68v-7.68h7.68zm-.549 1.097h-6.583v6.034h6.583v-6.034z" class="D"/></g><path d="M115.921 352.452c-.388 0-.672-.076-.853-.228s-.271-.389-.271-.711v-.691c0-.204-.05-.346-.15-.428s-.276-.123-.528-.125v-.585c.252 0 .428-.041.528-.122s.15-.225.15-.431v-.683c0-.322.09-.558.271-.709s.465-.226.853-.226h.186v.44h-.126c-.202 0-.347.043-.435.131s-.132.231-.132.434v.793c0 .19-.059.337-.177.443s-.293.169-.525.19v.071c.232.021.407.084.525.188s.177.252.177.442v.804c0 .202.044.347.132.434s.233.13.435.13h.126v.441h-.186zm1.306 0h-.185v-.441h.125c.201 0 .345-.043.433-.13s.131-.231.131-.434v-.804c0-.19.059-.337.176-.442s.293-.167.525-.188v-.071c-.232-.021-.407-.084-.525-.19s-.176-.253-.176-.443v-.793c0-.202-.043-.347-.13-.434s-.231-.131-.434-.131h-.125v-.44h.185c.386 0 .668.075.848.226s.27.388.27.709v.683c0 .206.05.349.149.431s.274.122.525.122v.585c-.251.002-.425.043-.525.125s-.149.224-.149.428v.691c0 .322-.09.558-.27.711s-.463.228-.848.228z" class="D"/><use xlink:href="#AP" class="C D R"/><text x="124.286" y="352.39" fill="#dfdfdf" class="B F">MyServiceSakilaCity <tspan x="198.933px" y="352.39px">{</tspan></text><clipPath id="m"><path d="M286.063 349.601a5.53 5.53 0 0 1 .424-2.135c.284-.683.687-1.286 1.21-1.809s1.126-.927 1.81-1.21 1.395-.424 2.134-.424 1.452.141 2.135.424 1.287.686 1.81 1.21.926 1.126 1.209 1.809a5.53 5.53 0 0 1 .425 2.135c0 .74-.142 1.452-.425 2.135a5.53 5.53 0 0 1-1.209 1.81 5.52 5.52 0 0 1-1.81 1.209c-.683.283-1.395.425-2.135.425s-1.451-.142-2.134-.425a5.52 5.52 0 0 1-1.81-1.209c-.523-.523-.926-1.127-1.21-1.81s-.424-1.395-.424-2.135z"/></clipPath><g clip-path="url(#m)" class="B J K"><text x="288.643" y="351.833">…</text></g><text x="311.637" y="352.39" class="F H j k">sakila.city</text><clipPath id="n"><path d="M298.893 344.581h186.322v10.041H298.893z"/></clipPath><g clip-path="url(#n)"><g transform="matrix(.514417 0 0 .514417 299.457 345.38)" class="C D"><path d="M14.996 1v13.996H1V1h13.996zm-1 1.999H2v10.997h11.997V2.999zM11 10.998h2v1h-2v-1zm0-1.999h2v1h-2v-1zm0-2h2v1h-2v-1zM11 5h2v1h-2V5zm-5.001 5.998h4v1h-4v-1zm0-1.999h4v1h-4v-1zm0-2h4v1h-4v-1zm0-1.999h4v1h-4V5zm-3 5.997H5v1H2.999v-1zm0-1.999H5v1H2.999v-1zm0-2H5v1H2.999v-1zm0-1.999H5v1H2.999v-1z"/></g><path d="M351.052 350.159v-1.116a4.18 4.18 0 0 1 .08-.816 4.15 4.15 0 0 1 .238-.785c.105-.254.234-.495.387-.724s.326-.44.52-.634.406-.368.634-.52.47-.282.724-.387a4.15 4.15 0 0 1 .785-.238 4.18 4.18 0 0 1 .816-.08h39.05a4.18 4.18 0 0 1 .816.08 4.15 4.15 0 0 1 .785.238c.254.105.495.234.724.387s.44.326.634.52a4.2 4.2 0 0 1 .52.634c.153.229.282.47.387.724a4.19 4.19 0 0 1 .238.785 4.18 4.18 0 0 1 .08.816v1.116a4.18 4.18 0 0 1-.08.816 4.19 4.19 0 0 1-.238.785c-.105.254-.234.495-.387.724a4.2 4.2 0 0 1-.52.634c-.194.195-.406.368-.634.52s-.47.282-.724.387a4.15 4.15 0 0 1-.785.238 4.18 4.18 0 0 1-.816.08h-39.05a4.18 4.18 0 0 1-.816-.08 4.15 4.15 0 0 1-.785-.238c-.254-.105-.495-.234-.724-.387s-.44-.326-.634-.52-.368-.406-.52-.634-.282-.47-.387-.724a4.15 4.15 0 0 1-.238-.785 4.18 4.18 0 0 1-.08-.816z" stroke="#009dff" stroke-opacity=".3" class="E L"/></g><g transform="matrix(.557851 0 0 -.557851 108.108 356.853)"><clipPath id="o"><use xlink:href="#AQ"/></clipPath><g clip-path="url(#o)" class="X"><path d="M436 5h21v16h-21z"/></g><clipPath id="p"><use xlink:href="#AQ"/></clipPath><g clip-path="url(#p)"><path d="M457 5h20v16h-20z" fill="#0c7ed9"/></g><clipPath id="q"><use xlink:href="#AQ"/></clipPath><g clip-path="url(#q)" class="X"><path d="M477 5h22v16h-22z"/></g><clipPath id="r"><use xlink:href="#AQ"/></clipPath><g clip-path="url(#r)" class="X"><path d="M499 5h20v16h-20z"/></g></g><use xlink:href="#AR" class="C E N O"/><g class="G"><path d="M125.036 363.22l2.367 2.367.789-.789-2.367-2.367z"/><path d="M126.613 364.799l.789.789 3.945-3.945-.789-.789z"/></g><g class="C D"><path d="M274.348 362.99a5.57 5.57 0 0 1 .107-1.088c.071-.359.177-.708.317-1.047a5.6 5.6 0 0 1 .515-.965 5.57 5.57 0 0 1 1.539-1.539 5.58 5.58 0 0 1 .965-.515c.339-.14.687-.246 1.047-.317a5.57 5.57 0 0 1 1.088-.107h11.715a5.57 5.57 0 0 1 1.088.107c.359.071.708.177 1.047.317a5.6 5.6 0 0 1 .965.515 5.57 5.57 0 0 1 1.539 1.539 5.64 5.64 0 0 1 .515.965c.14.339.246.687.317 1.047a5.57 5.57 0 0 1 0 2.177c-.071.359-.177.708-.317 1.047a5.64 5.64 0 0 1-.515.965 5.57 5.57 0 0 1-1.539 1.539 5.6 5.6 0 0 1-.965.515c-.339.14-.687.246-1.047.317a5.57 5.57 0 0 1-1.088.107h-11.715a5.57 5.57 0 0 1-1.088-.107c-.359-.071-.708-.177-1.047-.317a5.58 5.58 0 0 1-.965-.515 5.57 5.57 0 0 1-1.539-1.539 5.6 5.6 0 0 1-.515-.965c-.14-.339-.246-.687-.317-1.047a5.57 5.57 0 0 1-.107-1.088z" class="R"/><use xlink:href="#AS"/><use xlink:href="#AS" y="13.44"/><use xlink:href="#AS" y="26.64"/><use xlink:href="#AS" y="40.08"/><use xlink:href="#AS" y="53.52"/><use xlink:href="#AS" y="66.96"/></g><path d="M314.118 359.943a2.02 2.02 0 0 1 2.078-.087c.296.16.547.392.732.673.512.799.402 1.855-.262 2.531a1.98 1.98 0 0 1-.467.347l.044.547-.064.174-.307.307.473.473v.315l-.472.472.473.473v.315l-.944.944h-.315l-.727-.727-.065-.157-.002-3.133a1.99 1.99 0 0 1-.506-.38c-.764-.786-.756-2.058.018-2.832.095-.095.2-.181.313-.256h0zm2.683 1.854a1.59 1.59 0 0 0-.242-1.022h.003c-.061-.093-.131-.181-.21-.259-.612-.612-1.62-.613-2.231-.001a1.58 1.58 0 0 0-.205.253 1.6 1.6 0 0 0 .19 1.952c.141.147.308.264.494.344l.136.206.002 3.18.504.504.629-.629-.473-.473v-.315l.472-.472-.473-.473v-.315l.392-.392-.044-.596.132-.221a1.54 1.54 0 0 0 .474-.324 1.59 1.59 0 0 0 .448-.949zm-1.124-.597a.45.45 0 0 0-.755-.245c-.109.109-.154.268-.118.418.019.08.06.153.119.212a.45.45 0 0 0 .63 0c.101-.101.147-.244.125-.385z" class="D"/><path d="M124.007 379.056V373.7a1.49 1.49 0 0 1 .441-1.065 1.49 1.49 0 0 1 1.065-.441h5.355a1.49 1.49 0 0 1 1.065.441 1.49 1.49 0 0 1 .441 1.065v5.355a1.49 1.49 0 0 1-.441 1.065 1.49 1.49 0 0 1-1.065.441h-5.355a1.49 1.49 0 0 1-1.065-.441 1.49 1.49 0 0 1-.441-1.065z" class="C E N O"/><g class="G"><path d="M125.036 376.609l2.367 2.367.789-.789-2.367-2.367z"/><path d="M126.613 378.187l.789.789 3.945-3.945-.789-.789z"/></g><g class="D"><use xlink:href="#AP" y="26.777" class="C R"/><circle cx="8.12" cy="8.13" r="6.276" transform="matrix(.267686 0 0 .267686 313.517 374.557)"/></g><use xlink:href="#AR" y="26.777" class="C E N O"/><g class="G"><path d="M125.036 389.997l2.367 2.367.789-.789-2.367-2.367z"/><path d="M126.613 391.576l.789.789 3.945-3.945-.789-.789z"/></g><g class="D"><use xlink:href="#AP" y="40.166" class="C R"/><circle cx="8.12" cy="8.13" r="6.276" transform="matrix(.267686 0 0 .267686 313.517 387.757)"/></g><use xlink:href="#AR" y="40.166" class="C E N O"/><g class="G"><path d="M125.036 403.386l2.367 2.367.789-.789-2.367-2.367z"/><path d="M126.613 404.964l.789.789 3.945-3.945-.789-.789z"/></g><g class="D"><path d="M297.219 403.155a5.57 5.57 0 0 1-.107 1.088c-.071.359-.177.708-.317 1.047a5.64 5.64 0 0 1-.515.965 5.57 5.57 0 0 1-1.539 1.539 5.6 5.6 0 0 1-.965.515c-.339.14-.687.246-1.047.317a5.57 5.57 0 0 1-2.177 0c-.359-.071-.708-.177-1.047-.317s-.66-.312-.965-.515a5.57 5.57 0 0 1-1.539-1.539 5.6 5.6 0 0 1-.515-.965c-.14-.339-.246-.687-.317-1.047a5.57 5.57 0 0 1 0-2.177c.071-.359.177-.708.317-1.047a5.6 5.6 0 0 1 .515-.965 5.57 5.57 0 0 1 1.539-1.539 5.54 5.54 0 0 1 .965-.515c.339-.14.687-.246 1.047-.317a5.57 5.57 0 0 1 2.177 0c.359.071.708.177 1.047.317a5.6 5.6 0 0 1 .965.515 5.57 5.57 0 0 1 1.539 1.539 5.64 5.64 0 0 1 .515.965c.14.339.246.687.317 1.047a5.57 5.57 0 0 1 .107 1.088z" class="C R"/><circle cx="8.12" cy="8.13" r="6.276" transform="matrix(.267686 0 0 .267686 313.517 400.957)"/></g><g fill="#b3b3b3"><path d="M114.803 419.699l3.156-3.156-.394-.394-3.156 3.156z"/><path d="M117.564 416.938l.394-.394-3.156-3.156-.394.394z"/></g><g class="C"><use xlink:href="#AR" y="53.555" class="E N O"/><path d="M251.476 416.544a5.57 5.57 0 0 1-.107 1.088c-.071.359-.177.708-.317 1.047a5.64 5.64 0 0 1-.515.965 5.57 5.57 0 0 1-1.539 1.539 5.6 5.6 0 0 1-.965.515c-.339.14-.687.246-1.047.317a5.57 5.57 0 0 1-2.177 0c-.359-.071-.708-.177-1.047-.317a5.58 5.58 0 0 1-.965-.515 5.57 5.57 0 0 1-1.539-1.539 5.56 5.56 0 0 1-.515-.965c-.14-.339-.246-.687-.317-1.047a5.57 5.57 0 0 1 0-2.177c.071-.359.177-.708.317-1.047a5.56 5.56 0 0 1 .515-.965 5.57 5.57 0 0 1 1.539-1.539 5.54 5.54 0 0 1 .965-.515c.339-.14.687-.246 1.047-.317a5.57 5.57 0 0 1 2.177 0c.359.071.708.177 1.047.317a5.56 5.56 0 0 1 .965.515 5.57 5.57 0 0 1 1.539 1.539 5.64 5.64 0 0 1 .515.965c.14.339.246.687.317 1.047a5.57 5.57 0 0 1 .107 1.088z" class="D R"/></g><clipPath id="s"><path d="M121.497 409.849H297.22v13.388H121.497z"/></clipPath><g clip-path="url(#s)"><clipPath id="t"><path d="M254.265 417.101v-1.115c0-.592.114-1.162.34-1.708a4.43 4.43 0 0 1 .967-1.448c.419-.419.902-.741 1.448-.968a4.43 4.43 0 0 1 1.708-.339h34.029a4.43 4.43 0 0 1 1.708.339c.547.227 1.029.549 1.448.968a4.41 4.41 0 0 1 1.307 3.156v1.115a4.41 4.41 0 0 1-.34 1.708c-.226.547-.549 1.029-.967 1.448s-.901.741-1.448.967a4.41 4.41 0 0 1-1.708.34h-34.029a4.41 4.41 0 0 1-1.708-.34c-.546-.226-1.029-.549-1.448-.967a4.44 4.44 0 0 1-.967-1.448 4.43 4.43 0 0 1-.34-1.708z"/></clipPath><g clip-path="url(#t)"><clipPath id="u"><path d="M254.16 411.36h43.2v10.32h-43.2z"/></clipPath><g clip-path="url(#u)"><path d="M254.265 421.564h42.955v-10.041h-42.955z" class="X"/><path d="M297.917 410.802h-44.316v11.436h44.316v-11.436zm-43.095 5.184v1.116a3.87 3.87 0 0 0 .297 1.494c.198.478.48.9.846 1.267s.789.648 1.267.846a3.87 3.87 0 0 0 1.494.297h34.029a3.87 3.87 0 0 0 1.494-.297c.478-.198.9-.48 1.267-.846s.648-.789.846-1.267a3.87 3.87 0 0 0 .297-1.494v-1.116a3.87 3.87 0 0 0-.297-1.494c-.198-.479-.48-.901-.846-1.267s-.789-.648-1.267-.846a3.86 3.86 0 0 0-1.494-.297h-34.029a3.86 3.86 0 0 0-1.494.297c-.478.198-.9.48-1.267.846s-.648.788-.846 1.267a3.87 3.87 0 0 0-.297 1.494z" fill="#009dff" fill-opacity=".3"/></g></g></g><g class="D"><path d="M317.853 416.815l-2.163 2.163-2.163-2.163 2.163-2.163 2.163 2.163zm-3.786 0l1.622 1.622v-3.245l-1.622 1.622z"/><path d="M312.091 416.577h1.44v.48h-1.44zm5.76 0h1.44v.48h-1.44z"/><g class="C"><path d="M331.501 413.086v7.2h-7.2v-7.2h7.2zm-.514 1.029h-6.171v5.657h6.171v-5.657z"/><use xlink:href="#AT"/><use xlink:href="#AU"/><use xlink:href="#AT" x="-4.115" y="-0.001"/></g></g><g fill="#b3b3b3"><path d="M114.803 433.088l3.156-3.156-.394-.394-3.156 3.156z"/><path d="M117.564 430.326l.394-.394-3.156-3.156-.394.394z"/></g><g class="C"><path d="M124.007 432.609v-5.355a1.49 1.49 0 0 1 .441-1.065 1.49 1.49 0 0 1 .489-.326 1.48 1.48 0 0 1 .576-.115h5.355a1.48 1.48 0 0 1 .576.115 1.49 1.49 0 0 1 .815.815 1.49 1.49 0 0 1 .115.576v5.355a1.49 1.49 0 0 1-.441 1.065 1.49 1.49 0 0 1-1.065.441h-5.355a1.49 1.49 0 0 1-1.065-.441 1.49 1.49 0 0 1-.441-1.065z" class="E N O"/><use xlink:href="#AP" y="80.33" class="D R"/></g><clipPath id="v"><path d="M351.331 350.159v-1.116c0-1.078.382-1.998 1.144-2.761s1.683-1.144 2.761-1.144h39.05a3.76 3.76 0 0 1 3.905 3.905v1.116a3.76 3.76 0 0 1-3.905 3.905h-39.05a3.76 3.76 0 0 1-3.905-3.905z"/></clipPath><g clip-path="url(#v)" class="B D"><text x="354.53" y="352.39" font-size="7.029">C <tspan x="366.306px 371.121px 377.821px 382.896px 389.597px" y="352.39px 352.39px 352.39px 352.39px 352.39px">R U D</tspan></text></g><text x="137.117" y="365.779" class="B F b">cityId</text><clipPath id="w"><path d="M274.348 362.99c0-.74.142-1.452.425-2.135a5.52 5.52 0 0 1 3.019-3.019c.683-.283 1.395-.425 2.134-.425h11.715c.74 0 1.452.142 2.135.425a5.52 5.52 0 0 1 3.019 3.019c.283.683.425 1.395.425 2.135s-.142 1.451-.425 2.134a5.52 5.52 0 0 1-3.019 3.019c-.683.284-1.395.425-2.135.425h-11.715c-.739 0-1.451-.141-2.134-.425a5.52 5.52 0 0 1-3.019-3.019c-.283-.683-.425-1.395-.425-2.134z"/></clipPath><g clip-path="url(#w)" class="B J K"><text x="288.643" y="365.221">…</text></g><path d="M782.999 924.318V913H781v11.318l-2.836-2.868-1.609 1.076 5.497 5.739 1.609-1.68-.002-.002 3.885-4.056-1.609-1.076-2.936 2.868zM779 913h-10v2h10zm-2 4h-8v2h8zm-2 4h-6v2h6zm-2 4h-4v2h4zm3.999-20c8.831 0 16.002 7.171 16.002 16s-7.171 16.002-16.002 16.002-16-7.171-16-16.002 7.171-16 16-16zm0 2.001A14.01 14.01 0 0 0 763 921a14.01 14.01 0 0 0 13.999 14.002A14.01 14.01 0 0 0 791 920.999 14.01 14.01 0 0 0 776.999 907z" transform="matrix(.24 0 0 .24 95.2627 142.092)" class="D"/><text x="323.352" y="365.779" class="B F H">city_id</text><text x="137.117" y="379.167" class="B F b">city</text><clipPath id="x"><path d="M286.063 376.378a5.53 5.53 0 0 1 .424-2.135c.284-.683.687-1.287 1.21-1.81a5.52 5.52 0 0 1 1.81-1.209c.683-.283 1.395-.424 2.134-.424s1.452.141 2.135.424a5.52 5.52 0 0 1 1.81 1.209 5.53 5.53 0 0 1 1.634 3.945 5.53 5.53 0 0 1-1.634 3.945 5.52 5.52 0 0 1-1.81 1.209c-.683.283-1.395.425-2.135.425s-1.451-.142-2.134-.425a5.52 5.52 0 0 1-1.81-1.209c-.523-.523-.926-1.127-1.21-1.81a5.53 5.53 0 0 1-.424-2.135z"/></clipPath><g clip-path="url(#x)" class="B J K"><text x="288.643" y="378.609">…</text></g><text x="323.352" y="379.167" class="B F H">city</text><text x="137.117" y="392.556" class="B F b">countryId</text><clipPath id="y"><path d="M286.063 389.766c0-.739.141-1.451.424-2.134s.687-1.287 1.21-1.81a5.52 5.52 0 0 1 1.81-1.209c.683-.283 1.395-.425 2.134-.425s1.452.142 2.135.425a5.52 5.52 0 0 1 3.019 3.019c.283.683.425 1.395.425 2.134s-.142 1.452-.425 2.135a5.52 5.52 0 0 1-3.019 3.019c-.683.283-1.395.425-2.135.425s-1.451-.142-2.134-.425a5.52 5.52 0 0 1-1.81-1.209c-.523-.523-.926-1.126-1.21-1.81s-.424-1.395-.424-2.135z"/></clipPath><g clip-path="url(#y)" class="B J K"><text x="288.643" y="391.998">…</text></g><text x="323.352" y="392.556" class="B F H">country_id</text><text x="137.117" y="405.944" class="B F b">lastUpdate</text><clipPath id="z"><path d="M286.063 403.155a5.53 5.53 0 0 1 .424-2.135c.284-.683.687-1.287 1.21-1.81a5.52 5.52 0 0 1 1.81-1.209c.683-.283 1.395-.425 2.134-.425s1.452.142 2.135.425a5.52 5.52 0 0 1 1.81 1.209 5.53 5.53 0 0 1 1.634 3.945 5.53 5.53 0 0 1-.425 2.135c-.283.683-.686 1.286-1.209 1.809s-1.126.927-1.81 1.21-1.395.424-2.135.424-1.451-.141-2.134-.424a5.52 5.52 0 0 1-1.81-1.209 5.56 5.56 0 0 1-1.21-1.81 5.53 5.53 0 0 1-.424-2.135z"/></clipPath><g clip-path="url(#z)" class="B J K"><text x="288.643" y="405.386">…</text></g><text x="323.352" y="405.944" class="B F H">last_update</text><text x="137.221" y="419.333" class="B F Y">country</text><clipPath id="AA"><path d="M240.319 416.543c0-.739.142-1.451.425-2.134a5.52 5.52 0 0 1 1.209-1.81c.523-.523 1.126-.926 1.81-1.21s1.395-.424 2.135-.424 1.451.141 2.134.424 1.287.687 1.81 1.21.926 1.126 1.209 1.809.425 1.396.425 2.135-.141 1.452-.425 2.135a5.52 5.52 0 0 1-3.019 3.019c-.683.283-1.395.425-2.134.425s-1.452-.142-2.135-.425a5.52 5.52 0 0 1-3.019-3.019c-.283-.683-.425-1.395-.425-2.135z"/></clipPath><g clip-path="url(#AA)" class="B J K"><text x="243.37" y="418.775">…</text></g><clipPath id="AB"><path d="M254.823 417.101v-1.116a3.76 3.76 0 0 1 3.905-3.904h34.029a3.76 3.76 0 0 1 3.905 3.904v1.116c0 1.079-.381 1.999-1.144 2.761a3.76 3.76 0 0 1-2.761 1.144h-34.029a3.76 3.76 0 0 1-2.761-1.144c-.763-.762-1.144-1.682-1.144-2.761z"/></clipPath><g clip-path="url(#AB)" class="D"><text x="269.589" y="419.333" font-size="7.029" class="B">Unnest</text><g transform="matrix(.310093 0 0 .310093 74.2157 131.568)"><path d="M596 908h24v2h-24zm0 20h24v2h-24zm12-16h12v2h-12zm0 4h12v2h-12zm0 4h12v2h-12zm0 4h12v2h-12zm-11.497-6H606v2h-9.497z"/><g transform="matrix(.420974 -.420974 .864876 .864876 -450.028 378.071)"><path d="M601 917h12v2h-12z"/></g><g transform="matrix(.490585 .490585 .864876 -.864876 -492.699 1417.25)"><path d="M601 917h12v2h-12z"/></g></g></g><text x="336.182" y="419.333" class="F H j k">sakila.country</text><text x="137.221" y="432.721" class="B F Y">addr<tspan x="153.138px 157.332px" y="432.721px 432.721px">es</tspan>s</text><clipPath id="AC"><path d="M286.063 429.932c0-.74.141-1.452.424-2.135s.687-1.287 1.21-1.81a5.52 5.52 0 0 1 1.81-1.209c.683-.283 1.395-.425 2.134-.425s1.452.142 2.135.425a5.52 5.52 0 0 1 1.81 1.209 5.53 5.53 0 0 1 1.209 1.81c.283.683.425 1.395.425 2.135a5.53 5.53 0 0 1-.425 2.135c-.283.683-.686 1.286-1.209 1.809s-1.126.926-1.81 1.21-1.395.424-2.135.424-1.451-.141-2.134-.424a5.52 5.52 0 0 1-1.81-1.21c-.523-.523-.926-1.126-1.21-1.809a5.53 5.53 0 0 1-.424-2.135z"/></clipPath><g clip-path="url(#AC)" class="B J K"><text x="288.643" y="432.163">…</text></g><text x="336.182" y="432.721" class="F H j k">sakila.addr<tspan x="373.217px 377.411px" y="432.721px 432.721px">es</tspan>s</text><text x="113.129" y="446.109" class="B F H">}</text><g transform="matrix(-.48 0 0 .48 319.291 426.657)" class="D"><path d="M12.004 7.496l-4.507 4.507-4.507-4.507 4.507-4.507 4.507 4.507zm-7.887 0l3.38 3.38v-6.76l-3.38 3.38z"/><path d="M0 7h3v1H0zm12 0h3v1h-3z"/></g><g class="C D"><path d="M331.501 426.526v7.2h-7.2v-7.2h7.2zm-.514 1.029h-6.171v5.657h6.171v-5.657z"/><use xlink:href="#AT" y="13.44"/><use xlink:href="#AU" y="13.44"/><use xlink:href="#AT" x="-4.115" y="13.439"/></g></g><text x="178.664" y="385.391" fill="#66f900" transform="translate(319.193 459.761)" class="I M">Referenced <tspan x="352.414px 368.414px 386.211px" y="385.391px 385.391px 385.391px">Tab</tspan>les</text><g stroke="#66f900" class="L P S T"><path d="M426.193 834.761h59" class="Q"/><path d="M772.195 834.758h235" stroke-width="1.982"/></g><text x="1337.857" y="678.98" fill="#ffb300" class="I M">Mapped Relational Object Columns</text><path d="M1266.193 669.691h59" class="L P Q S T c"/><text x="539.857" y="681.152" fill="#00fceb" class="I M">JSON Fields</text><path d="M468.193 669.691h59" class="L P Q S T l"/><text x="612.857" y="539.152" fill="#00fceb" class="I M">MRS Object Name</text><g class="L S T"><path d="M541.193 527.691h59" class="P Q l"/><g stroke="#66f900"><path d="M426.193 802.584c0-11.491-9.33-20.821-20.82-20.821H297.013c-11.491 0-20.82 9.33-20.82 20.821v69.358c0 11.491 9.33 20.821 20.82 20.821h108.359c11.491 0 20.82-9.33 20.82-20.821v-69.358z" stroke-width="2.002"/><path d="M1395.192 799.558a17.81 17.81 0 0 0-17.798-17.798H1024.99a17.81 17.81 0 0 0-17.798 17.798v76.404a17.81 17.81 0 0 0 17.798 17.798h352.404a17.81 17.81 0 0 0 17.798-17.798v-76.404z" stroke-width="2.008"/></g><path d="M743.193 432.011c0-10.072-8.178-18.25-18.25-18.25h-560.5c-10.072 0-18.25 8.178-18.25 18.25v36.5c0 10.072 8.178 18.25 18.25 18.25h560.5c10.072 0 18.25-8.178 18.25-18.25v-36.5zm523.006 146.64a16.9 16.9 0 0 0-16.891-16.89h-225.219a16.9 16.9 0 0 0-16.891 16.89V758.87a16.9 16.9 0 0 0 16.891 16.89h225.219a16.9 16.9 0 0 0 16.891-16.89V578.651z" class="c Q"/><g class="l"><path d="M468.192 576.915c0-8.364-6.792-15.154-15.157-15.154H291.349c-8.365 0-15.157 6.791-15.157 15.154v183.692c0 8.364 6.792 15.154 15.157 15.154h161.687c8.365 0 15.157-6.791 15.157-15.154V576.915z" stroke-width="2.001"/><path d="M541.198 515.418c0-9.193-7.471-16.657-16.662-16.657H182.86c-9.191 0-16.662 7.464-16.662 16.657v22.687c0 9.193 7.471 16.657 16.662 16.657h341.677c9.191 0 16.662-7.464 16.662-16.657v-22.687z" stroke-width="2.005"/></g></g><text x="774.857" y="457.152" fill="#ffb300" class="I M">Database Object</text><g class="L Q S T"><path d="M745.193 446.761h22" class="P c"/><g stroke="#ff4300"><path d="M1396.193 511.511a14.76 14.76 0 0 0-14.749-14.75h-202.503a14.76 14.76 0 0 0-14.749 14.75v29.5a14.76 14.76 0 0 0 14.749 14.75h202.503a14.76 14.76 0 0 0 14.749-14.75v-29.5z"/><path d="M1399.193 525.761h59" class="P"/></g></g><text x="1468.857" y="536.152" fill="#ff4300" class="I M">Allowed CRUD Operations</text><g class="L Q S T"><path d="M1025.193 443.761h35s16.06.773 16 14v47" class="P c"/><path d="M1724.92 246.761c0-8.831-7.17-16-16-16h-300c-8.83 0-16 7.169-16 16v32c0 8.831 7.17 16 16 16h300c8.83 0 16-7.169 16-16v-32z" stroke="#ff2d8b"/></g><text x="178.664" y="385.391" transform="translate(1506.923 -291.239)" class="I M m">Restrict <tspan x="294.242px 315.586px" y="385.391px 385.391px">Ac</tspan>cess</text><text x="1685.587" y="127.198" class="I M m">to Users that</text><text x="1685.587" y="160.245" class="I M m">are Logged in</text><path d="M1704.423 230.261v-59" stroke="#ff2d8b" class="L P Q S T"/><defs ><path id="AE" d="M68.501 163.251V-109.65h459.111v272.901c0 .739-.261 1.371-.784 1.893a2.58 2.58 0 0 1-1.893.785H71.179a2.58 2.58 0 0 1-1.894-.785c-.523-.522-.784-1.154-.784-1.893z"/><path id="AF" d="M69.059 28v135.251a2.04 2.04 0 0 0 2.12 2.12h453.756a2.04 2.04 0 0 0 1.499-.621c.414-.414.62-.914.621-1.499V28h.557v137.929H68.501V28h.558z"/><path id="AG" d="M68.501 617.928V227.32c0-.739.261-1.37.784-1.893a2.58 2.58 0 0 1 1.894-.784h453.756c.739 0 1.37.261 1.893.784s.784 1.154.784 1.893v390.608H68.501z"/><path id="AH" d="M527.612 224.643H68.501v393.285h.558V227.32a2.04 2.04 0 0 1 2.12-2.12h453.756a2.04 2.04 0 0 1 1.499.621c.414.414.62.914.621 1.499v390.608h.557V224.643z"/><path id="AI" d="M359.765 257.942l407.293 407.293c28.118 28.118 28.118 73.706 0 101.823s-73.705 28.118-101.823 0L257.942 359.765c-28.118-28.118-28.118-73.706 0-101.823s73.705-28.118 101.823 0z"/><path id="AJ" d="M257.942 665.235l407.293-407.293c28.118-28.118 73.706-28.118 101.823 0s28.118 73.705 0 101.823L359.765 767.058c-28.118 28.118-73.706 28.118-101.823 0s-28.118-73.705 0-101.823z"/><path id="AK" d="M99.462 274.849v-7.81c0-.259.05-.508.148-.747a1.94 1.94 0 0 1 1.057-1.057c.239-.099.488-.148.747-.148h88.14c.259 0 .508.05.747.148a1.94 1.94 0 0 1 1.057 1.057c.099.239.148.488.148.747v7.81c0 .259-.05.508-.148.747a1.94 1.94 0 0 1-1.057 1.057c-.239.099-.488.148-.747.148h-88.14c-.259 0-.508-.05-.747-.148a1.94 1.94 0 0 1-1.057-1.057c-.099-.239-.148-.488-.148-.747z"/><path id="AL" d="M99.741 274.849v-7.81a1.61 1.61 0 0 1 1.673-1.673h88.141a1.61 1.61 0 0 1 1.673 1.673v7.81a1.61 1.61 0 0 1-.49 1.184c-.327.326-.721.49-1.183.49h-88.141a1.61 1.61 0 0 1-1.673-1.674z"/><path id="AM" d="M201.269 274.849v-7.81a1.61 1.61 0 0 1 1.674-1.673h88.14a1.61 1.61 0 0 1 1.674 1.673v7.81a1.61 1.61 0 0 1-.49 1.184c-.327.326-.721.49-1.184.49h-88.14a1.61 1.61 0 0 1-1.183-.49c-.327-.327-.491-.722-.491-1.184z"/><path id="AN" d="M405.722 274.737v-5.355a1.48 1.48 0 0 1 .441-1.065 1.49 1.49 0 0 1 1.065-.441h5.355a1.49 1.49 0 0 1 1.065.441 1.49 1.49 0 0 1 .441 1.065v5.355a1.49 1.49 0 0 1-.441 1.065 1.49 1.49 0 0 1-1.065.441h-5.355a1.49 1.49 0 0 1-1.065-.441 1.48 1.48 0 0 1-.441-1.065z"/><path id="AO" d="M341.848 336.771v-7.81a1.61 1.61 0 0 1 .49-1.184c.327-.326.721-.49 1.184-.49h68.057c.462 0 .857.164 1.184.49s.49.722.49 1.184v7.81c0 .462-.164.856-.49 1.183a1.61 1.61 0 0 1-1.184.49h-68.057a1.61 1.61 0 0 1-1.674-1.673z"/><path id="AP" d="M297.219 349.601a5.57 5.57 0 0 1-.107 1.088c-.071.359-.177.708-.317 1.047a5.64 5.64 0 0 1-.515.965 5.57 5.57 0 0 1-1.539 1.539 5.6 5.6 0 0 1-.965.515c-.339.14-.687.246-1.047.317a5.57 5.57 0 0 1-2.177 0c-.359-.071-.708-.177-1.047-.317a5.58 5.58 0 0 1-.965-.515 5.57 5.57 0 0 1-1.539-1.539 5.6 5.6 0 0 1-.515-.965c-.14-.339-.246-.687-.317-1.047a5.57 5.57 0 0 1 0-2.177c.071-.359.177-.708.317-1.047a5.6 5.6 0 0 1 .515-.965 5.57 5.57 0 0 1 1.539-1.539 5.58 5.58 0 0 1 .965-.515c.339-.14.687-.246 1.047-.317a5.57 5.57 0 0 1 2.177 0c.359.071.708.177 1.047.317a5.6 5.6 0 0 1 .965.515 5.57 5.57 0 0 1 1.539 1.539 5.64 5.64 0 0 1 .515.965c.14.339.246.687.317 1.047a5.57 5.57 0 0 1 .107 1.088z"/><path id="AQ" d="M436 12v2a6.74 6.74 0 0 0 2.05 4.95A6.74 6.74 0 0 0 443 21h70a6.74 6.74 0 0 0 4.95-2.05A6.74 6.74 0 0 0 520 14v-2a6.74 6.74 0 0 0-2.05-4.95A6.74 6.74 0 0 0 513 5h-70a6.74 6.74 0 0 0-4.95 2.05A6.74 6.74 0 0 0 436 12z"/><path id="AR" d="M124.007 365.667v-5.355a1.49 1.49 0 0 1 .441-1.065 1.49 1.49 0 0 1 1.065-.441h5.355a1.49 1.49 0 0 1 1.065.441 1.49 1.49 0 0 1 .441 1.065v5.355a1.49 1.49 0 0 1-.441 1.065 1.49 1.49 0 0 1-1.065.441h-5.355a1.49 1.49 0 0 1-1.065-.441 1.49 1.49 0 0 1-.441-1.065z"/><path id="AS" d="M300.028 363.262c.054.083.167.177.255.211.108.034.864.054 2.42.054h2.263l-.471.476c-.564.574-.633.672-.633.888a.56.56 0 0 0 .52.501c.177 0 .24-.054 1.286-1.099 1.09-1.085 1.104-1.099 1.104-1.306s-.015-.221-1.09-1.296l-1.019-1.009c-.134-.138-.477-.125-.641.027a.55.55 0 0 0-.108.623c.029.059.28.334.55.609l.501.506h-2.272c-2.493 0-2.533.005-2.68.29-.103.196-.098.339.015.525z"/><path id="AT" d="M329.445 418.23h1.029v.514h-1.029v-.514zm0-1.028h1.029v.514h-1.029v-.514zm0-1.029h1.029v.514h-1.029v-.514zm0-1.028h1.029v.514h-1.029v-.514z"/><path id="AU" d="M326.873 418.23h2.058v.514h-2.058v-.514zm0-1.028h2.058v.514h-2.058v-.514zm0-1.029h2.058v.514h-2.058v-.514zm0-1.028h2.058v.514h-2.058v-.514z"/></defs></svg>