<svg xmlns="http://www.w3.org/2000/svg" xmlns:xlink="http://www.w3.org/1999/xlink" width="100%" height="100%" viewBox="0 0 988 594" fill-rule="evenodd" stroke-linejoin="round" stroke-miterlimit="2" xmlns:v="https://vecta.io/nano"><style><![CDATA[.B{font-family:SanFranciscoDisplay-Medium, San Francisco Display, Segoe, Tahoma, sans-serif}.C{font-weight:500}.D{fill:#e4e3e4}.E{font-size:33.6px}.F{font-size:28px}.G{fill-rule:nonzero}]]></style><path d="M0 0h988v594H0z" fill="#1e1e1e"/><path d="M0 0h609v594H0z" fill="#181818"/><path d="M609 0v594H0V0h609zm-2 2H2v589.999H607V2z" fill="#2b2b2b"/><g transform="matrix(.037151 0 0 .037151 99.994 113.966)" fill="#fff"><path d="M511.715 1.595c282.261 0 511.415 229.16 511.415 511.421S793.976 1024.44 511.715 1024.44.294 795.277.294 513.016 229.454 1.595 511.715 1.595zm0 63.595c-247.162 0-447.826 200.664-447.826 447.826s200.664 447.826 447.826 447.826 447.826-200.664 447.826-447.826S758.877 65.19 511.715 65.19z"/><path d="M427.519 832.645h24.057v-57.099H435.26c-26.182 0-45.003-5.67-56.386-16.943-11.459-11.273-17.151-30.017-17.151-56.298V598.047c0-24.614-7.665-43.758-22.919-57.299-15.33-13.541-38.021-21.746-68.149-24.48v-9.205c30.128-2.735 52.819-10.939 68.149-24.614 15.254-13.674 22.919-32.818 22.919-57.499V322.026c0-26.215 5.692-44.958 17.151-56.231 11.383-11.273 30.204-16.943 56.386-16.943h16.316v-57.099h-24.057c-50.391 0-87.273 9.805-110.723 29.416s-35.213 50.228-35.213 91.985v88.583c0 26.682-6.527 45.292-19.428 55.898-12.977 10.606-35.82 15.942-68.529 15.942v75.909c32.709.2 55.551 5.603 68.529 16.209 12.901 10.606 19.428 29.15 19.428 55.564v89.65c0 41.69 11.763 72.441 35.213 92.118 23.45 19.744 60.332 29.617 110.723 29.617zm169.453 0c50.029 0 86.701-9.872 110.093-29.617 23.316-19.678 35.012-50.428 35.012-92.118v-89.65c0-26.415 6.414-44.958 19.317-55.564s35.616-16.009 68.063-16.209v-75.909c-32.447 0-55.16-5.336-68.063-15.942s-19.317-29.216-19.317-55.898v-88.583c0-41.757-11.696-72.374-35.012-91.985-23.392-19.611-60.065-29.416-110.093-29.416h-23.996v57.099h16.299c26.259 0 45.048 5.67 56.292 16.943 11.168 11.273 16.827 30.017 16.827 56.231V424.95c0 24.68 7.546 43.825 22.788 57.499s37.955 21.879 68.063 24.614v9.205c-30.108 2.735-52.821 10.939-68.063 24.48s-22.788 32.685-22.788 57.299v104.258c0 26.281-5.735 45.025-17.053 56.298s-30.032 16.943-56.065 16.943h-16.299v57.099h23.996z" class="G"/></g><g fill="#fff"><path d="M117.694 91.17c-.064-.533-1.35-1.18-1.768-1.475l-2.593-1.77c-.467-.281-1.275-.5-1.768-.709-.703-.296-2.252-.584-2.652-1.119-.762-1.02-1.288-2.256-1.827-3.483l-1.768-3.776c-.269-.622-.401-1.184-.707-1.77-1.9-3.648-4.677-6.704-8.074-8.852-1.115-.703-2.344-1.352-3.714-1.769-.775-.236-1.705-.105-2.535-.296h-.53c-.465-.136-.853-.629-1.238-.884-.801-.532-1.589-.905-2.535-1.299-.356-.147-1.303-.53-1.65-.273-.089.066-.179.124-.242.215-.208.297.095.946.229 1.238.379.823.926 1.326 1.415 2.007.441.614.978 1.314 1.296 2.006.665 1.445.96 3.053 1.591 4.483a9.19 9.19 0 0 0 .943 1.651c.283.387.789.676.943 1.181.321.504-.481 2.214-.611 2.774-.791 3.41-.462 5.067.31 6.903.305.726.557 1.498 1.08 1.622.075.018.015-.021.118-.059.175-1.413.236-2.627.708-3.745.295-.701.856-1.179 1.237-1.772.28.163.353.633.487.944.349.808.819 1.685 1.231 2.479.865 1.662 1.406 2.629 2.48 4.089.382.519 1.006 1.416 1.467 1.869a6.43 6.43 0 0 1 .701.826h.059v.061c-.792-.272-1.682-.998-2.183-1.461-1.087-1.004-2.277-2.29-3.063-3.556l-1.061-2.124v-.058c-.148.198-.102.414-.177.707-.333 1.299-.073 2.771-1.238 3.247-1.331.543-2.3-.875-2.711-1.535-1.34-2.153-1.687-5.766-.766-8.673.204-.647.225-1.437.589-1.948-.059-.458-.431-.589-.648-.885-.354-.483-.663-1.053-.943-1.594-.554-1.068-.927-2.325-1.356-3.481-.174-.469-.209-.913-.412-1.358-.31-.674-.864-1.346-1.297-1.946-.617-.854-2.341-2.502-1.65-4.19 1.095-2.674 4.887-.64 6.365.295.371.236.783.721 1.179.885l1.945.119c1.208.287 2.351.506 3.3 1.061 4.462 2.614 7.344 5.273 10.02 9.678.557.917.849 1.926 1.297 2.95.655 1.499 1.382 3.058 2.122 4.483.353.682.603 1.421 1.061 2.007.194.247.709.323 1.002.472.871.441 1.888.778 2.711 1.299 1.484.938 2.924 2.061 4.244 3.186.504.43.834 1.059 1.297 1.533v.237l-1.238.354c-.915.236-1.707.175-2.593.414-.527.141-1.197.347-1.768.412.019.021.039.039.058.058.337.94 2.141 1.723 2.947 2.302 1.011.726 1.962 1.602 2.712 2.596l.766.767c.174.253.223.585.413.827v.059c-.361-.128-.548-.446-.825-.649-.562-.412-1.134-.874-1.709-1.239-.977-.62-2.109-.973-3.124-1.592-.57-.349-1.118-.779-1.65-1.181-.487-.368-1.033-1.07-1.356-1.592-.168-.274-.201-.604-.413-.826.063-.484.676-.488 1.061-.65 1.353-.571 2.937-.765 5.009-.709zM91.307 68.734c.297.054.597.268.711.433.127.183.279.373.332.643a1.42 1.42 0 0 1-.53 1.298l-.059.058c-.197-.412-.439-.989-.589-1.238s-.211-.341-.566-.729c-.013-.015-.299-.334-.319-.334v-.058c.324-.071.7-.132 1.021-.073zm65.637 119.433h-1.161c-1.311.005-2.483.816-2.952 2.039l-.363.873c-.543 1.198-.291 2.607.633 3.543l.826.826a1.06 1.06 0 0 1 0 1.494l-2.983 2.983c-.413.412-1.08.412-1.492 0l-.827-.827c-.936-.925-2.345-1.177-3.543-.634l-.871.364c-1.226.468-2.039 1.643-2.043 2.955v1.161c0 .583-.473 1.056-1.056 1.056h-4.222c-.583 0-1.056-.472-1.056-1.056v-1.161c-.005-1.311-.816-2.483-2.039-2.952l-.873-.363a3.18 3.18 0 0 0-3.543.633l-.826.826a1.06 1.06 0 0 1-1.494 0l-2.983-2.983c-.412-.412-.412-1.08 0-1.492l.827-.827a3.18 3.18 0 0 0 .634-3.543l-.364-.871c-.468-1.226-1.643-2.039-2.955-2.043h-1.161c-.583 0-1.056-.473-1.056-1.056v-4.222c0-.583.472-1.056 1.056-1.056h1.161c1.311-.006 2.483-.817 2.952-2.041l.363-.873c.543-1.198.291-2.607-.633-3.543l-.826-.826a1.06 1.06 0 0 1 0-1.494l2.983-2.981c.413-.412 1.08-.412 1.493 0l.827.827c.936.925 2.345 1.177 3.543.634l.871-.364c1.226-.468 2.039-1.643 2.043-2.955v-1.162c0-.583.473-1.055 1.056-1.055h4.222c.583 0 1.056.472 1.056 1.055v1.162c.005 1.311.816 2.483 2.039 2.952l.873.363c1.198.543 2.607.292 3.543-.633l.826-.826a1.06 1.06 0 0 1 1.494 0l2.983 2.983c.412.413.412 1.08 0 1.492l-.827.827a3.18 3.18 0 0 0-.634 3.543l.364.871c.468 1.226 1.643 2.039 2.955 2.043h1.161c.583 0 1.056.473 1.056 1.056v4.222c0 .583-.472 1.056-1.056 1.056zm-14.648 6.343c1.572 0 2.726-.295 3.46-.885s1.102-1.51 1.102-2.759v-2.674c0-.794.203-1.35.61-1.666s1.121-.476 2.142-.478v-2.273c-1.02-.002-1.734-.162-2.141-.478s-.611-.872-.611-1.666v-2.656c0-1.246-.367-2.162-1.101-2.748s-1.888-.879-3.461-.879h-.755v1.71h.505c.828 0 1.419.169 1.773.506s.531.898.531 1.681v3.079c0 .738.24 1.31.72 1.716s1.193.651 2.138.733v.275c-.945.081-1.658.325-2.138.732s-.72.979-.72 1.717v3.117c0 .782-.177 1.342-.532 1.68s-.945.507-1.772.507h-.505v1.708h.755zm-6.59 0h.755v-1.708h-.505c-.826 0-1.417-.169-1.772-.507s-.532-.898-.532-1.68v-3.117c0-.738-.24-1.31-.721-1.717s-1.193-.651-2.138-.732v-.275c.945-.082 1.658-.327 2.138-.733s.721-.978.721-1.716v-3.079c0-.783.177-1.343.531-1.681s.945-.506 1.773-.506h.505v-1.71h-.755c-1.572 0-2.726.293-3.46.879s-1.102 1.502-1.102 2.748v2.656c0 .794-.203 1.35-.61 1.666s-1.121.476-2.142.478v2.273c1.021.002 1.736.162 2.142.478s.61.872.61 1.666v2.674c0 1.249.367 2.169 1.102 2.759s1.888.885 3.46.885zm21.062 47.657h-1.161c-1.311.005-2.483.816-2.952 2.039l-.363.873c-.543 1.198-.291 2.607.633 3.543l.826.826a1.06 1.06 0 0 1 0 1.494l-2.983 2.983c-.413.412-1.08.412-1.492 0l-.827-.827c-.936-.925-2.345-1.177-3.543-.634l-.871.364c-1.226.468-2.039 1.643-2.043 2.955v1.161c0 .583-.473 1.056-1.056 1.056h-4.222c-.583 0-1.056-.472-1.056-1.056v-1.161c-.005-1.311-.816-2.483-2.039-2.952l-.873-.363a3.18 3.18 0 0 0-3.543.633l-.826.826a1.06 1.06 0 0 1-1.494 0l-2.983-2.983c-.412-.412-.412-1.08 0-1.492l.827-.827a3.18 3.18 0 0 0 .634-3.543l-.364-.871c-.468-1.226-1.643-2.039-2.955-2.043h-1.161c-.583 0-1.056-.473-1.056-1.056v-4.222c0-.583.472-1.056 1.056-1.056h1.161c1.311-.006 2.483-.817 2.952-2.041l.363-.873c.543-1.198.291-2.607-.633-3.543l-.826-.826a1.06 1.06 0 0 1 0-1.494l2.983-2.981c.413-.412 1.08-.412 1.493 0l.827.827c.936.925 2.345 1.177 3.543.634l.871-.364c1.226-.468 2.039-1.643 2.043-2.955v-1.162c0-.583.473-1.055 1.056-1.055h4.222c.583 0 1.056.472 1.056 1.055v1.162c.005 1.311.816 2.483 2.039 2.952l.873.363c1.198.543 2.607.292 3.543-.633l.826-.826a1.06 1.06 0 0 1 1.494 0l2.983 2.983c.412.413.412 1.08 0 1.492l-.827.827a3.18 3.18 0 0 0-.634 3.543l.364.871c.468 1.226 1.643 2.039 2.955 2.043h1.161c.583 0 1.056.473 1.056 1.056v4.222c0 .583-.472 1.056-1.056 1.056zm-2.557-1.164c.5 0 .905-.406.905-.905v-2.195c0-.5-.405-.905-.905-.905h-.996c-1.125-.004-2.133-1.413-2.534-2.465l-.312-.747c-.465-1.027-.962-2.948-.169-3.75l.709-.709c.353-.353.353-.926 0-1.28l-1.371-1.133a.91.91 0 0 0-1.281 0l-.708.708c-.802.793-2.485.296-3.513-.17l-.748-.311c-1.049-.403-2.694-1.408-2.698-2.532v-.996c0-.5-.406-.905-.905-.905h-1.72c-.5 0-.905.405-.905.905v.996c-.004 1.125-1.65 2.133-2.702 2.534l-.747.312c-1.027.466-2.948.962-3.75.169l-.709-.709c-.354-.353-.926-.353-1.28 0l-1.133 1.131a.91.91 0 0 0-.265.641c0 .241.096.471.265.64l.708.708c.793.803.296 2.723-.17 3.75l-.311.748c-.402 1.05-1.407 2.458-2.532 2.463h-.996c-.5 0-.905.406-.905.905v2.195c0 .5.405.905.905.905h.996c1.125.004 2.133 1.413 2.534 2.465l.312.747c.465 1.027.962 2.948.169 3.75l-.709.709c-.353.353-.353.926 0 1.28l1.133 1.133c.169.169.4.265.64.265a.91.91 0 0 0 .641-.265l.708-.708c.803-.792 2.723-.296 3.75.17l.748.311c1.049.403 2.457 1.408 2.461 2.532v.996c0 .5.406.905.905.905h2.195c.5 0 .905-.405.905-.905v-.996c.004-1.125 1.413-2.133 2.465-2.534l.747-.312c1.027-.466 2.948-.963 3.75-.169l.709.709c.353.353.926.353 1.28 0l1.133-1.133c.169-.169.265-.4.265-.64a.91.91 0 0 0-.265-.641l-.708-.708c-.793-.803-.296-2.723.17-3.75l.311-.748c.403-1.049 1.408-2.457 2.532-2.461h.996zm-13.043 7.495h-.755v-1.693h.511c.82 0 1.408-.167 1.766-.502s.536-.891.536-1.668v-3.092c0-.73.239-1.296.718-1.698s1.193-.644 2.143-.725v-.274c-.95-.081-1.664-.324-2.143-.73s-.718-.973-.718-1.703v-3.052c0-.777-.177-1.333-.53-1.668s-.944-.502-1.772-.502h-.511v-1.693h.755c1.575 0 2.73.291 3.464.872s1.102 1.49 1.102 2.727v2.626c0 .791.203 1.343.609 1.658s1.12.471 2.143.471v2.251c-1.023.007-1.737.167-2.143.482s-.609.863-.609 1.648v2.656c0 1.237-.367 2.148-1.102 2.732s-1.889.877-3.464.877zm-4.925.032c-1.575 0-2.73-.292-3.464-.877s-1.102-1.496-1.102-2.734v-2.658c0-.784-.203-1.334-.609-1.648s-1.12-.475-2.143-.482v-2.252c1.023 0 1.737-.157 2.143-.472s.609-.867.609-1.658v-2.627c0-1.238.367-2.147 1.102-2.729s1.889-.872 3.464-.872h.755v1.694h-.511c-.82 0-1.408.167-1.766.502s-.536.891-.536 1.669v3.053c0 .73-.239 1.298-.718 1.704s-1.189.649-2.131.73v.274c.942.081 1.652.323 2.131.725s.718.969.718 1.699v3.094c0 .778.179 1.334.536 1.669s.946.502 1.766.502h.511v1.694h-.755zm-10.112 47.603l5.356-5.227v-1.791l-5.356-5.536-1.791 1.791 3.192 3.372h-8.708v2.534h8.711l-3.195 3.066 1.791 1.791zm23.386 0l-5.356-5.227v-1.791l5.356-5.536 1.791 1.791-3.192 3.372h8.708v2.534h-8.711l3.195 3.066-1.791 1.791zm-17.866-19.774l5.227-5.356h1.791l5.536 5.356-1.791 1.791-3.372-3.192v8.708h-2.534v-8.711l-3.066 3.195-1.791-1.791zm0 27.288l5.227 5.356h1.791l5.536-5.356-1.791-1.791-3.372 3.192v-8.708h-2.534v8.711l-3.066-3.195-1.791 1.791zm6.154-18.463a4.8 4.8 0 0 1 4.797 4.795 4.8 4.8 0 0 1-4.797 4.797 4.8 4.8 0 0 1-4.797-4.797 4.8 4.8 0 0 1 4.797-4.795zm0 1.783c-1.662 0-3.013 1.351-3.013 3.013s1.351 3.013 3.013 3.013 3.013-1.349 3.013-3.013-1.349-3.013-3.013-3.013z"/><use xlink:href="#B"/><use xlink:href="#B" x="7.375" y="9.701"/><path d="M125.362 341.493a3.62 3.62 0 0 1 3.618 3.618c0 1.999-1.622 3.621-3.618 3.621s-3.621-1.622-3.621-3.621a3.62 3.62 0 0 1 3.621-3.618zm0 2.114c-.832 0-1.506.674-1.506 1.504s.674 1.506 1.506 1.506 1.504-.674 1.504-1.506-.674-1.504-1.504-1.504zm-15.955 1.843h2.48v8.176h-2.48zm14.751 4.164h2.48v4.013h-2.48zm-7.415-13.197h2.441v8.321h-2.441zm7.414.017h2.441v3.585h-2.441zm7.381-2.473v22.154h-27.077v-22.154m27.077-2.462h-27.077c-1.351 0-2.462 1.11-2.462 2.462v22.154c0 1.351 1.11 2.462 2.462 2.462h27.077c1.351 0 2.462-1.11 2.462-2.462v-22.154c0-1.351-1.11-2.462-2.462-2.462z"/><use xlink:href="#C"/><use xlink:href="#D"/><use xlink:href="#C" y="52"/><use xlink:href="#D" y="52"/><use xlink:href="#C" y="106"/><use xlink:href="#D" y="106"/><use xlink:href="#C" y="158"/><use xlink:href="#D" y="158"/><path d="M449.618 15.5h-6.702V13h8.75l1.25 1.25V23h-2.5v-5c-3.145 2.36-4.998 6.067-4.998 9.997 0 6.858 5.642 12.5 12.5 12.5s12.5-5.642 12.5-12.5a12.53 12.53 0 0 0-8.678-11.9l.755-2.385c6.192 1.985 10.42 7.782 10.42 14.283 0 8.23-6.772 15-15 15s-15-6.77-15-15a15.01 15.01 0 0 1 6.702-12.495z"/></g><g fill="#ccc"><path d="M506.666 30.333h11.667v2.333h-11.667z" class="G"/><path d="M509 16.333L511.333 14h16.333L530 16.333v16.333L527.666 35H523v4.667L520.666 42h-16.333L502 39.667V23.333L504.333 21H509v-4.667zM511.333 21h9.333L523 23.333v9.333h4.667V16.333h-16.333V21zm9.333 2.333h-16.333v16.333h16.333V23.333z"/></g><path d="M414 25.847v4.306h-11.848v11.848h-4.306V30.153h-11.848v-4.306h11.848V13.999h4.306v11.848H414z" fill="#fff" class="G"/><g fill="#ccc" transform="matrix(2.30769 0 0 2.30769 392.692 10.6923)"><circle cx="561.5" cy="27.5" r="2.5" transform="matrix(.433333 0 0 .433333 -170.167 -4.63333)"/><circle cx="561.5" cy="27.5" r="2.5" transform="matrix(.433333 0 0 .433333 -164.967 -4.63333)"/><circle cx="561.5" cy="27.5" r="2.5" transform="matrix(.433333 0 0 .433333 -159.767 -4.63333)"/></g><path d="M569.785 119h-13.357l-.85.364-1.579 1.554-1.579-1.554-.85-.364h-13.357L537 120.214V144.5l1.214 1.214h12.847l2.089 2.064h1.7l2.089-2.064h12.847L571 144.5v-24.286L569.785 119zm-17 25.063l-.437-.413-.777-.364h-12.143v-21.857h11.633l1.797 1.797-.073 20.837zm15.786-.777h-12.143l-.85.364-.34.316v-20.837l1.7-1.7h11.633v21.857zm-19.429-17h-7.286v2.429h7.286v-2.429zm0 9.714h-7.286v2.429h7.286V136zm-7.286-4.857h7.286v2.429h-7.286v-2.429zm24.286-4.857h-7.286v2.429h7.286v-2.429zm-7.286 4.857h7.286v2.429h-7.286v-2.429zm0 4.857h7.286v2.429h-7.286V136z" fill="#fff"/><g fill="#ccc"><path d="M27 35h-2L14.038 24.038l2.017-2.017 9.956 9.955 10.005-10.005 2.048 2.048L27 35zm21 52h-2L35.038 76.038l2.017-2.017 9.956 9.955 10.005-10.005 2.048 2.048L48 87zm20 53h-2l-10.962-10.962 2.017-2.017 9.956 9.955 10.005-10.005 2.048 2.048L68 140z"/><use xlink:href="#E"/><use xlink:href="#E" y="53"/><use xlink:href="#E" x="-20" y="158"/><use xlink:href="#E" x="-20" y="211"/><use xlink:href="#E" x="-20" y="264"/><use xlink:href="#E" x="-20" y="317"/><use xlink:href="#E" x="-20" y="369"/></g><path d="M42 106.998v486.998h-2V106.998z" fill="#313131"/><path d="M62 160v158h-1.995V160z" fill="#585858"/><text x="492.201" y="196.707" transform="translate(-359 -105.145)" class="B C D E">L<tspan x="508.02px 526.02px 542.708px 559.643px 567.389px 585.964px 603.965px 619.816px 630.943px 637.065px 656.001px 662.928px" y="196.707px 196.707px 196.707px 196.707px 196.707px 196.707px 196.707px 196.707px 196.707px 196.707px 196.707px 196.707px">ocalhost 8.0</tspan></text><text x="510.569" y="249.507" transform="translate(-359 -105.145)" class="B C D E"><tspan x="510.569px 536.247px 551.853px 570.51px 591.71px 607.528px 613.651px 619.773px 639.349px 656.939px 675.596px 692.317px 698.44px 704.563px 723.219px 740.58px 753.15px 768.411px 776.273px 792.961px" y="249.507px 249.507px 249.507px 249.507px 249.507px 249.507px 249.507px 249.507px 249.507px 249.507px 249.507px 249.507px 249.507px 249.507px 249.507px 249.507px 249.507px 249.507px 249.507px 249.507px">MySQL  REST  Service</tspan></text><text x="528.936" y="302.307" transform="translate(-359 -105.145)" class="B C D E"><tspan x="528.936px 539.669px 567.792px 583.398px 602.055px 619.415px 631.986px 647.246px 655.108px 671.796px" y="302.307px 302.307px 302.307px 302.307px 302.307px 302.307px 302.307px 302.307px 302.307px 302.307px">/myService</tspan></text><text x="528.936" y="355.107" transform="translate(-359 -105.145)" class="B C D E"><tspan x="528.936px 539.669px 567.792px 583.398px 602.202px 620.629px 639.45px 647.197px 655.059px 671.747px 690.404px 707.765px 720.335px 735.596px 743.457px 760.146px" y="355.107px 355.107px 355.107px 355.107px 355.107px 355.107px 355.107px 355.107px 355.107px 355.107px 355.107px 355.107px 355.107px 355.107px 355.107px 355.107px">/myPublicService</tspan></text><text x="528.936" y="407.907" transform="translate(-359 -105.145)" class="B C D E"><tspan x="528.936px 554.615px 562.477px 578.246px 595.607px 611.524px 623.864px 649.543px 669.217px 687.759px 700.1px 725.779px 738.087px 745.702px 753.449px 771.449px 788.138px 805.072px" y="407.907px 407.907px 407.907px 407.907px 407.907px 407.907px 407.907px 407.907px 407.907px 407.907px 407.907px 407.907px 407.907px 407.907px 407.907px 407.907px 407.907px 407.907px">Mikes-MBP-M1.local</tspan></text><text x="510.569" y="460.707" transform="translate(-359 -105.145)" class="B C D E"><tspan x="510.569px 536.247px 551.853px 570.51px 591.71px 607.528px 613.651px 619.773px 639.201px 657.973px 686.096px 693.958px 712.467px 720.329px 736.18px 747.569px 758.778px 775.712px 787.101px 794.963px 812.963px" y="460.707px 460.707px 460.707px 460.707px 460.707px 460.707px 460.707px 460.707px 460.707px 460.707px 460.707px 460.707px 460.707px 460.707px 460.707px 460.707px 460.707px 460.707px 460.707px 460.707px 460.707px">MySQL  Administration</tspan></text><text x="510.569" y="513.507" transform="translate(-359 -105.145)" class="B C D E">forum</text><text x="510.569" y="566.307" transform="translate(-359 -105.145)" class="B C D E"><tspan x="510.569px 518.43px 536.939px 547.738px 565.738px 577.488px 605.612px 622.546px 633.935px 641.797px 659.797px 678.306px 691.615px 707.532px 724.22px 742.795px 760.156px 788.279px" y="566.307px 566.307px 566.307px 566.307px 566.307px 566.307px 566.307px 566.307px 566.307px 566.307px 566.307px 566.307px 566.307px 566.307px 566.307px 566.307px 566.307px 566.307px">information_schema</tspan></text><text x="510.569" y="619.107" transform="translate(-359 -105.145)" class="B C D E"><tspan x="510.569px 538.692px 549.9px 565.817px 579.667px 598.177px 616.177px 627.304px 644.665px" y="619.107px 619.107px 619.107px 619.107px 619.107px 619.107px 619.107px 619.107px 619.107px">mrs_notes</tspan></text><text x="510.569" y="671.907" transform="translate(-359 -105.145)" class="B C D E">mrstestdb</text><path d="M607 160v52H2v-52h605zm-2 2H4v48H605v-48z" fill="#1175c6"/><text x="52.434" y="52.574" font-family="SanFranciscoDisplay-Heavy, San Francisco Display, sans-serif, Segoe, Tahoma" font-weight="700" fill="#ccc" transform="matrix(1.075 0 0 1.075 -6.06279 -18.5178)" class="F">DATABASE CONNECTI...</text><path d="M974.998 179.48a12.49 12.49 0 0 0-12.48-12.48h-483.04a12.49 12.49 0 0 0-12.48 12.48v391.04a12.49 12.49 0 0 0 12.48 12.48h483.04a12.49 12.49 0 0 0 12.48-12.48V179.48z" fill="#2c2626"/><path d="M974.998 179.48v391.04a12.49 12.49 0 0 1-12.48 12.48h-483.04a12.49 12.49 0 0 1-12.48-12.48V179.48a12.49 12.49 0 0 1 12.48-12.48h483.04a12.49 12.49 0 0 1 12.48 12.48zm-2 0a10.49 10.49 0 0 0-10.48-10.48h-483.04a10.49 10.49 0 0 0-10.48 10.48v391.04a10.49 10.49 0 0 0 10.48 10.48h483.04a10.49 10.49 0 0 0 10.48-10.48V179.48z" fill="#565151"/><path d="M964.002 227.153a6.16 6.16 0 0 0-6.154-6.153H483.155a6.16 6.16 0 0 0-6.154 6.153v31.694a6.16 6.16 0 0 0 6.154 6.153h474.694a6.16 6.16 0 0 0 6.154-6.153v-31.694z" fill="#0e5ab4"/><path d="M495 275h452v2H495zm0 110h452v2H495zm0 66h452v2H495zm0 66h452v2H495z" fill="#504a4a"/><text x="492.201" y="196.707" transform="translate(3 12)" class="B C D F">Edit REST Service...</text><text x="492.201" y="240.707" transform="translate(3 12)" class="B C D F">Set as Current REST Service</text><text x="495.201" y="318.707" class="B C D F">Load REST Schema From JSON File...</text><text x="492.201" y="350.707" transform="translate(3 12)" class="B C D F">Export REST Service SDK Files ...</text><text x="492.201" y="416.707" transform="translate(3 12)" class="B C D F">Add New Authentication App</text><text x="492.201" y="482.707" transform="translate(3 12)" class="B C D F">Delete REST Service ...</text><text x="492.201" y="548.707" transform="translate(3 12)" class="B C D F">MRS Service Documentation</text><defs ><path id="B" d="M110.595 336.592a3.62 3.62 0 0 1 3.618 3.618c0 1.999-1.622 3.621-3.618 3.621s-3.621-1.622-3.621-3.621 1.622-3.618 3.621-3.618zm0 2.149a1.47 1.47 0 0 0-1.47 1.47 1.47 1.47 0 0 0 1.47 1.47 1.47 1.47 0 0 0 1.47-1.47 1.47 1.47 0 0 0-1.47-1.47z"/><path id="C" d="M133.244 406.722v4.306h-.065l.066.01c0 2.56-7.344 4.636-16.404 4.636-9.051 0-16.391-2.072-16.404-4.629v-9.364-9.348-9.43-.006c0-2.204 5.337-4.052 12.524-4.549-.35.653-.322 1.496-.109 2.377-3.42.251-6.371.822-8.407 1.615a7.42 7.42 0 0 0-1.092.557c.322.195.718.411 1.092.557 2.407.937 6.092 1.564 10.319 1.72.052.117.093.219.119.304.081.261.323 1.111.678 2.086-5.429-.12-10.118-.993-12.781-2.254v6.639a11.82 11.82 0 0 0 .573.385c.322.193.718.407 1.092.551 2.794 1.077 7.308 1.741 12.396 1.741h.206c-.044.741-.064 1.54-.033 2.343h-.173c-5.968 0-11.191-.9-14.061-2.247v6.575a11.82 11.82 0 0 0 .573.385c.322.193.718.407 1.092.551 2.794 1.077 7.308 1.741 12.396 1.741 3.181 0 6.139-.26 8.591-.718.773.686 1.849 1.359 2.703 1.787-2.941.789-6.918 1.274-11.294 1.274-5.968 0-11.191-.9-14.061-2.247v6.584c.036.025.377.268.573.385.322.193.718.407 1.092.551 2.794 1.077 7.308 1.741 12.396 1.741s9.602-.664 12.396-1.741c.374-.144.769-.358 1.092-.551l.571-.35v-5.055c.988.204 1.758.588 2.343 1.088z"/><path id="D" d="M137.453 398.015c-.659-.879-1.151-1.151-1.615-2.205l-.947-2.367-1.186-2.414c-1.638-3.143-4.265-5.777-7.193-7.628-.961-.607-2.255-1.165-3.436-1.523-.668-.204-1.469-.091-2.184-.255h-.457c-.401-.117-.734-.544-1.066-.762-.689-.459-1.369-.78-2.184-1.12-.307-.127-.652-.033-.708.141-.171.26.127.626.241.877.328.71.799 1.144 1.221 1.73.38.53.846 1.13 1.118 1.725.574 1.247.834 2.374 1.378 3.607.211.473.546 1.041.848 1.451.244.333.637.816.769 1.251.277.434-.15 1.912-.279 2.39-.541 1.997-.633 4.924.279 6.405.356.579.401.959.595.734.22-.253.183-2.116.591-3.08.253-.605 1.017-1.137 1.467-1.284.265-.087.729 1.003.813 1.284.237.792 1.078 1.919 1.432 2.604.745 1.432 2.278 2.027 2.426 2.222.558.743-1.84.166-2.625-.403-.616-.448-.886-.736-1.369-1.343-.424-.532-.738-1.526-1.043-2.137 0-.014-.089.541-.152.794-.288 1.118-.063 2.388-1.066 2.798-1.148.466-1.983-.755-2.337-1.322-1.155-1.856-1.455-4.971-.661-7.476.176-.555.192-1.237.509-1.678-.052-.394-.373-.506-.56-.762-.305-.417-.572-.909-.813-1.373-.476-.921-.797-2.004-1.167-3-.15-.405-.18-.787-.356-1.172-.267-.579-.743-1.16-1.118-1.678-.53-.736-2.016-2.154-1.42-3.609.942-2.304 4.211-.551 5.484.253.321.204.675.621 1.017.764.558.035.947-.03 1.676.101 1.052.192 2.025.438 2.845.916 3.844 2.252 6.328 4.544 8.634 8.339.48.792 1.087 2.016 1.472 2.899.565 1.291 1.2 3.058 1.303 3.532.141.647.187.804.195 1.411.007.6-.171.63-.37.366zm-12.356-12.798c.316.068.572.368.752.628.136.195.187.34.223.684.07.666-.084.989-.473 1.261l-.063.063c-.209-.441-.377-.902-.628-1.319-.45-.748-.509-.619-.877-1.13-.014-.019-.042 0-.063 0v-.063c.345-.075.668-.134 1.13-.124z"/><path id="E" d="M93.566 185.537v2l-10.962 10.962-2.017-2.017 9.955-9.956-10.005-10.005 2.048-2.048 10.981 11.064z"/></defs></svg>