<?xml version="1.0" encoding="UTF-8" standalone="no"?>
<!DOCTYPE svg PUBLIC "-//W3C//DTD SVG 1.1//EN" "http://www.w3.org/Graphics/SVG/1.1/DTD/svg11.dtd">
<svg width="100%" height="100%" viewBox="0 0 96 96" version="1.1" xmlns="http://www.w3.org/2000/svg" xmlns:xlink="http://www.w3.org/1999/xlink" xml:space="preserve" xmlns:serif="http://www.serif.com/" style="fill-rule:evenodd;clip-rule:evenodd;stroke-linejoin:round;stroke-miterlimit:2;">
    <path id="MySQLaaS-Icon" serif:id="MySQLaaS Icon" d="M51.15,78.92L51.15,79.005C50.004,78.624 49.306,77.504 48.42,76.856C46.711,75.608 44.694,73.754 43.558,71.981C43.046,70.991 42.534,69.999 42.023,69.007L42.023,68.926C41.809,69.203 41.876,69.505 41.766,69.916C41.284,71.734 41.66,73.796 39.975,74.462C38.048,75.221 36.646,73.237 36.051,72.313C34.112,69.299 33.609,64.241 34.942,60.17C35.238,59.265 35.267,58.158 35.795,57.443C35.71,56.802 35.171,56.619 34.856,56.204C34.344,55.527 33.898,54.729 33.492,53.973C32.69,52.477 32.151,50.717 31.53,49.099C31.278,48.443 31.227,47.82 30.933,47.198C30.485,46.255 29.683,45.314 29.056,44.472C28.163,43.277 25.667,40.97 26.667,38.606C28.252,34.863 33.741,37.711 35.881,39.02C36.418,39.35 37.014,40.029 37.586,40.259C38.525,40.315 39.463,40.368 40.402,40.425C42.15,40.827 43.805,41.134 45.179,41.911C51.637,45.57 55.808,49.293 59.68,55.461C60.487,56.745 60.91,58.158 61.557,59.591C62.505,61.691 63.557,63.873 64.628,65.868C65.139,66.823 65.5,67.858 66.163,68.678C66.444,69.024 67.189,69.131 67.614,69.339C68.875,69.955 70.347,70.429 71.537,71.157C73.684,72.47 75.769,74.043 77.679,75.618C78.409,76.219 78.887,77.1 79.557,77.764L79.557,78.096C78.96,78.262 78.362,78.426 77.765,78.592C76.44,78.922 75.295,78.837 74.012,79.171C73.248,79.369 72.279,79.658 71.452,79.748C71.481,79.777 71.509,79.803 71.537,79.829C72.025,81.146 74.636,82.242 75.803,83.053C77.266,84.069 78.643,85.295 79.727,86.687C80.096,87.045 80.466,87.402 80.836,87.76C81.088,88.115 81.158,88.579 81.433,88.918L81.433,89.001C80.911,88.822 80.64,88.377 80.239,88.092C79.426,87.515 78.598,86.868 77.765,86.357C76.351,85.489 74.712,84.995 73.244,84.128C72.419,83.639 71.626,83.037 70.855,82.474C70.151,81.959 69.361,80.976 68.894,80.244C68.65,79.861 68.602,79.399 68.296,79.088C68.387,78.411 69.275,78.405 69.832,78.179C71.79,77.379 74.083,77.107 77.083,77.187C76.99,76.44 75.129,75.535 74.523,75.122C73.312,74.295 72.061,73.396 70.77,72.643C70.094,72.249 68.924,71.943 68.211,71.651C67.193,71.236 64.952,70.833 64.372,70.084C63.269,68.656 62.508,66.924 61.728,65.208C60.945,63.488 59.955,61.679 59.168,59.921C58.779,59.05 58.587,58.263 58.145,57.443C55.395,52.335 51.375,48.058 46.459,45.049C44.844,44.065 43.067,43.156 41.084,42.573C39.963,42.243 38.619,42.426 37.416,42.158L36.648,42.158C35.974,41.966 35.413,41.277 34.856,40.921C33.698,40.176 32.556,39.653 31.189,39.103C30.673,38.897 29.295,38.403 28.8,38.773C28.51,38.865 28.38,38.984 28.289,39.267C27.999,39.689 28.264,40.346 28.459,40.755C29.007,41.907 29.799,42.611 30.506,43.565C31.145,44.425 31.923,45.404 32.383,46.374C33.345,48.397 33.772,50.648 34.686,52.651C35.037,53.42 35.544,54.299 36.051,54.963C36.461,55.504 37.194,55.91 37.416,56.617C37.88,57.322 36.732,59.735 36.477,60.5C35.495,63.456 35.702,67.594 36.819,70.165C37.261,71.181 37.678,72.366 38.866,72.643C38.954,72.577 38.887,72.613 39.036,72.56C39.29,70.582 39.378,68.675 40.06,67.109C40.487,66.129 41.3,65.459 41.852,64.629C42.256,64.857 42.254,65.516 42.449,65.951C42.953,67.083 43.472,68.311 44.07,69.422C45.321,71.749 46.695,73.986 48.249,76.03C48.802,76.757 49.544,77.545 50.212,78.179C50.495,78.448 50.841,78.588 51.064,78.92L51.15,78.92ZM52.02,14.28C60.143,13.204 67.936,16.631 72.675,25.074C74.09,25.236 75.598,25.258 77.032,25.595C91.354,28.961 97.14,45.727 88.007,57.275C84.826,61.297 80.681,63.668 75.683,64.604C73.682,64.979 72.241,64.438 71.532,63.146C70.41,61.101 71.586,58.865 74.235,58.449C76.86,58.037 79.143,57.066 81.18,55.384C85.364,51.929 87.137,46.022 85.517,40.773C83.929,35.627 79.242,31.799 73.796,31.425C72.091,31.307 70.353,31.67 68.404,31.832C67.155,27.798 65.343,24.159 61.425,22.017C57.5,19.87 53.499,19.942 49.238,21.562C45.304,14.579 39.547,11.141 31.832,14.204C24.103,17.273 22.44,23.835 24.08,31.585C22.4,31.812 20.943,32.003 19.489,32.208C13.615,33.037 8.508,38.187 8.654,45.396C8.793,52.275 13.934,57.685 20.465,58.347C23.429,58.647 24.881,59.82 24.747,61.806C24.615,63.781 22.908,64.831 20.061,64.69C12.361,64.308 5.308,58.257 3.055,50.1C0.427,40.586 5.697,30.329 14.986,26.883C15.603,26.654 16.23,26.448 17.034,26.168C17.88,17.494 21.912,10.87 30.441,7.957C38.899,5.069 46.074,7.659 52.02,14.28ZM37.416,45.959L37.416,45.878C37.884,45.778 38.326,45.7 38.952,45.711C39.259,46 39.731,46.196 39.975,46.538C40.159,46.794 40.19,47.066 40.402,47.283C40.404,48.161 40.162,48.739 39.634,49.099C39.605,49.125 39.577,49.154 39.549,49.18C39.264,48.603 38.98,48.024 38.695,47.447C38.327,46.936 37.801,46.554 37.501,45.959L37.416,45.959Z" style="fill:white;"/>
</svg>
