<?xml version="1.0" encoding="UTF-8" standalone="no"?>
<!DOCTYPE svg PUBLIC "-//W3C//DTD SVG 1.1//EN" "http://www.w3.org/Graphics/SVG/1.1/DTD/svg11.dtd">
<svg width="100%" height="100%" viewBox="0 0 96 96" version="1.1" xmlns="http://www.w3.org/2000/svg" xmlns:xlink="http://www.w3.org/1999/xlink" xml:space="preserve" xmlns:serif="http://www.serif.com/" style="fill-rule:evenodd;clip-rule:evenodd;stroke-linejoin:round;stroke-miterlimit:2;">
    <g id="SQL-Editor-Icon" serif:id="SQL Editor Icon" transform="matrix(1,0,0,1,0,1)">
        <path d="M17.556,15.536C16.464,15.214 15.553,14.06 14.652,13.464C12.774,12.215 10.925,11.34 8.708,10.418C7.873,10.073 5.64,9.245 4.838,9.864C4.368,10.019 4.157,10.218 4.008,10.692C3.539,11.4 3.969,12.5 4.285,13.185C5.173,15.116 6.456,16.295 7.603,17.893C8.638,19.334 9.898,20.974 10.644,22.598C12.203,25.989 12.895,29.758 14.376,33.114C14.945,34.403 15.766,35.875 16.588,36.988C17.253,37.895 18.44,38.574 18.8,39.759C19.553,40.941 17.692,44.982 17.279,46.265C15.686,51.216 16.023,58.148 17.832,62.455C18.548,64.158 19.225,66.143 21.15,66.607C21.292,66.496 21.183,66.557 21.426,66.468C21.837,63.153 21.979,59.959 23.085,57.336C23.777,55.693 25.094,54.572 25.988,53.181C26.644,53.564 26.641,54.666 26.955,55.396C27.773,57.292 28.614,59.349 29.583,61.21C31.611,65.109 33.837,68.857 36.356,72.281C37.251,73.498 38.454,74.819 39.536,75.88C39.995,76.332 40.557,76.567 40.917,77.122L41.056,77.122L41.056,77.265C39.2,76.626 38.069,74.75 36.633,73.665C33.863,71.574 30.595,68.468 28.753,65.498C27.924,63.839 27.094,62.177 26.265,60.515L26.265,60.379C25.918,60.843 26.027,61.349 25.85,62.038C25.068,65.084 25.678,68.537 22.947,69.653C19.824,70.926 17.553,67.602 16.588,66.054C13.445,61.005 12.631,52.53 14.791,45.712C15.27,44.195 15.318,42.34 16.173,41.142C16.035,40.068 15.162,39.762 14.652,39.067C13.821,37.933 13.098,36.596 12.44,35.329C11.141,32.823 10.267,29.875 9.261,27.164C8.853,26.065 8.771,25.022 8.294,23.979C7.567,22.399 6.268,20.822 5.252,19.413C3.806,17.41 -0.239,13.545 1.382,9.586C3.95,3.314 12.844,8.085 16.312,10.278C17.182,10.831 18.148,11.969 19.076,12.355C20.596,12.449 22.118,12.538 23.638,12.633C26.471,13.306 29.153,13.821 31.38,15.122C41.846,21.252 48.604,27.489 54.88,37.822C56.188,39.974 56.873,42.34 57.921,44.742C59.458,48.258 61.162,51.914 62.898,55.257C63.726,56.856 64.312,58.591 65.386,59.965C65.841,60.544 67.049,60.724 67.737,61.071C69.781,62.105 72.166,62.897 74.095,64.117C77.574,66.316 80.953,68.952 84.049,71.59C85.231,72.598 86.006,74.073 87.09,75.185L87.09,75.742C86.123,76.019 85.155,76.295 84.186,76.573C82.04,77.126 80.184,76.983 78.104,77.543C76.867,77.874 75.297,78.358 73.957,78.51C74.003,78.557 74.049,78.601 74.095,78.645C74.885,80.852 79.116,82.687 81.007,84.046C83.379,85.749 85.61,87.803 87.367,90.134C87.965,90.735 88.565,91.332 89.163,91.932C89.572,92.526 89.685,93.304 90.132,93.872L90.132,94.011C89.285,93.711 88.846,92.965 88.196,92.488C86.878,91.521 85.537,90.437 84.186,89.581C81.896,88.128 79.239,87.3 76.86,85.847C75.523,85.028 74.238,84.02 72.989,83.076C71.848,82.213 70.567,80.567 69.81,79.341C69.416,78.7 69.339,77.925 68.842,77.404C68.99,76.27 70.428,76.26 71.331,75.88C74.505,74.541 78.219,74.086 83.081,74.218C82.931,72.968 79.915,71.451 78.934,70.759C76.971,69.375 74.944,67.868 72.851,66.607C71.756,65.947 69.861,65.434 68.704,64.945C67.055,64.25 63.423,63.574 62.483,62.319C60.696,59.927 59.462,57.027 58.198,54.151C56.929,51.27 55.325,48.239 54.05,45.295C53.419,43.835 53.109,42.517 52.392,41.142C47.935,32.586 41.421,25.42 33.454,20.38C30.837,18.731 27.957,17.207 24.744,16.231C22.927,15.679 20.75,15.984 18.8,15.536L17.556,15.536ZM87.625,48.688L87.624,48.688L87.625,48.703C87.625,49.037 87.551,49.366 87.406,49.688C87.169,50.047 86.924,50.398 86.672,50.738C83.92,53.602 75.519,55.688 65.594,55.688C65.163,55.688 64.736,55.684 64.312,55.675C63.257,51.938 61.585,47.588 59.442,43.191C61.395,43.372 63.459,43.469 65.594,43.469C77.753,43.469 87.625,40.346 87.625,36.5L87.625,48.688ZM87.625,34.75L87.624,34.75C87.571,38.609 77.728,41.719 65.594,41.719C63.117,41.719 60.737,41.589 58.516,41.348C55.915,36.304 52.724,31.302 49.169,27.2C53.203,28.632 59.067,29.531 65.594,29.531C77.761,29.531 87.625,26.404 87.625,22.547L87.624,22.531L87.625,22.531L87.625,34.75ZM43.974,22.127C43.703,21.691 43.562,21.242 43.562,20.781L43.563,20.78L43.563,8.594L43.563,8.594C43.59,12.444 53.443,15.563 65.594,15.563C77.744,15.563 87.597,12.444 87.624,8.594L87.625,8.594L87.625,20.781L87.625,20.781L87.625,20.781C87.625,24.63 77.761,27.75 65.594,27.75C57.243,27.75 49.978,26.28 46.242,24.114C45.497,23.404 44.74,22.738 43.974,22.127ZM18.8,21.903L18.8,21.767C19.558,21.6 20.275,21.47 21.288,21.489C21.788,21.973 22.551,22.301 22.947,22.873C23.245,23.303 23.295,23.758 23.638,24.121C23.641,25.594 23.251,26.56 22.394,27.164C22.348,27.208 22.302,27.256 22.256,27.3C21.795,26.333 21.334,25.363 20.873,24.396C20.277,23.541 19.424,22.9 18.938,21.903L18.8,21.903ZM65.594,-0.156C77.761,-0.156 87.625,2.971 87.625,6.828C87.625,10.685 77.761,13.813 65.594,13.813C53.426,13.813 43.562,10.685 43.562,6.828C43.562,2.971 53.426,-0.156 65.594,-0.156Z" style="fill:white;"/>
    </g>
</svg>
