<?xml version="1.0" encoding="UTF-8" standalone="no"?>
<!DOCTYPE svg PUBLIC "-//W3C//DTD SVG 1.1//EN" "http://www.w3.org/Graphics/SVG/1.1/DTD/svg11.dtd">
<svg width="100%" height="100%" viewBox="0 0 96 96" version="1.1" xmlns="http://www.w3.org/2000/svg" xmlns:xlink="http://www.w3.org/1999/xlink" xml:space="preserve" xmlns:serif="http://www.serif.com/" style="fill-rule:evenodd;clip-rule:evenodd;stroke-linejoin:round;stroke-miterlimit:2;">
    <path id="Docs-Icon" serif:id="Docs Icon" d="M48.014,73.25C50.876,68.289 55.991,66.345 62.138,66.303C70.248,66.249 77.858,75.111 92.935,75.467C93.007,79.925 93.007,79.461 93.007,83.99C76.894,83.99 66.925,75.467 61.959,75.467C57.35,75.467 52.205,79.354 52.277,83.99C50.553,83.981 48.389,83.988 48.017,83.99L48.017,83.99L47.989,83.99L47.962,83.99L47.962,83.99C47.59,83.988 45.425,83.981 43.702,83.99C43.774,79.354 38.629,75.467 34.02,75.467C29.053,75.467 19.085,83.99 2.972,83.99C2.972,79.461 2.972,79.925 3.043,75.467C18.121,75.111 25.731,66.249 33.841,66.303C39.988,66.345 45.151,68.289 48.014,73.25ZM55.513,57.128L55.513,57.223C54.269,56.796 53.511,55.543 52.549,54.818C50.693,53.421 48.503,51.346 47.269,49.362C46.713,48.254 46.157,47.144 45.602,46.034L45.602,45.943C45.369,46.253 45.442,46.591 45.323,47.051C44.8,49.086 45.208,51.393 43.378,52.138C41.285,52.988 39.764,50.768 39.117,49.734C37.011,46.361 36.465,40.7 37.913,36.145C38.234,35.132 38.266,33.893 38.839,33.093C38.747,32.375 38.162,32.171 37.82,31.706C37.263,30.949 36.779,30.056 36.338,29.209C35.467,27.536 34.882,25.566 34.208,23.755C33.934,23.021 33.879,22.324 33.56,21.628C33.073,20.573 32.202,19.519 31.521,18.578C30.552,17.24 27.842,14.658 28.928,12.013C30.649,7.824 36.608,11.011 38.932,12.476C39.515,12.845 40.163,13.605 40.784,13.863C41.803,13.926 42.823,13.985 43.841,14.048C45.74,14.498 47.537,14.842 49.029,15.712C56.042,19.806 60.57,23.973 64.775,30.875C65.652,32.312 66.111,33.893 66.813,35.497C67.843,37.846 68.985,40.288 70.148,42.522C70.702,43.59 71.095,44.748 71.815,45.666C72.12,46.053 72.929,46.173 73.39,46.405C74.76,47.096 76.358,47.625 77.65,48.44C79.982,49.909 82.246,51.669 84.32,53.432C85.112,54.105 85.631,55.091 86.358,55.833L86.358,56.205C85.71,56.391 85.061,56.574 84.413,56.76C82.975,57.13 81.73,57.035 80.337,57.408C79.508,57.63 78.456,57.953 77.558,58.054C77.589,58.086 77.62,58.115 77.65,58.145C78.18,59.619 81.015,60.845 82.282,61.752C83.871,62.89 85.366,64.262 86.544,65.819C86.944,66.221 87.346,66.62 87.747,67.02C88.021,67.417 88.097,67.936 88.396,68.316L88.396,68.409C87.829,68.209 87.535,67.711 87.099,67.392C86.216,66.746 85.318,66.022 84.413,65.45C82.878,64.479 81.098,63.926 79.503,62.956C78.607,62.409 77.747,61.735 76.91,61.104C76.145,60.528 75.287,59.428 74.78,58.609C74.515,58.181 74.463,57.664 74.131,57.316C74.23,56.558 75.194,56.551 75.799,56.298C77.925,55.403 80.414,55.099 83.672,55.188C83.571,54.352 81.55,53.339 80.893,52.877C79.578,51.952 78.22,50.945 76.817,50.103C76.083,49.662 74.813,49.32 74.038,48.993C72.933,48.528 70.5,48.077 69.87,47.239C68.673,45.641 67.846,43.704 66.999,41.783C66.148,39.858 65.073,37.834 64.219,35.866C63.796,34.891 63.589,34.011 63.108,33.093C60.122,27.377 55.757,22.59 50.418,19.224C48.665,18.122 46.736,17.104 44.582,16.452C43.365,16.083 41.906,16.287 40.599,15.988L39.766,15.988C39.034,15.773 38.424,15.002 37.82,14.603C36.562,13.77 35.323,13.185 33.837,12.569C33.277,12.339 31.781,11.786 31.244,12.199C30.929,12.303 30.788,12.436 30.688,12.752C30.374,13.225 30.662,13.959 30.873,14.418C31.469,15.707 32.328,16.495 33.097,17.563C33.79,18.525 34.635,19.62 35.134,20.706C36.179,22.97 36.643,25.488 37.635,27.73C38.016,28.591 38.567,29.574 39.117,30.317C39.563,30.923 40.358,31.377 40.599,32.169C41.104,32.958 39.857,35.658 39.58,36.515C38.513,39.822 38.738,44.453 39.951,47.33C40.431,48.467 40.884,49.793 42.174,50.103C42.269,50.029 42.196,50.07 42.359,50.011C42.634,47.796 42.73,45.662 43.471,43.91C43.935,42.813 44.817,42.064 45.416,41.135C45.855,41.39 45.853,42.127 46.064,42.614C46.612,43.881 47.176,45.255 47.825,46.498C49.184,49.103 50.675,51.606 52.363,53.894C52.963,54.707 53.769,55.589 54.494,56.298C54.801,56.599 55.177,56.756 55.42,57.128L55.513,57.128ZM40.599,20.241L40.599,20.15C41.108,20.038 41.588,19.952 42.267,19.965C42.601,20.287 43.113,20.507 43.378,20.889C43.578,21.176 43.611,21.48 43.841,21.723C43.844,22.706 43.582,23.352 43.008,23.755C42.977,23.785 42.946,23.816 42.915,23.846C42.606,23.2 42.297,22.552 41.989,21.906C41.589,21.335 41.017,20.907 40.692,20.241L40.599,20.241Z" style="fill:white;"/>
</svg>
