<?xml version="1.0" encoding="UTF-8" standalone="no"?>
<!DOCTYPE svg PUBLIC "-//W3C//DTD SVG 1.1//EN" "http://www.w3.org/Graphics/SVG/1.1/DTD/svg11.dtd">
<svg width="100%" height="100%" viewBox="0 0 96 96" version="1.1" xmlns="http://www.w3.org/2000/svg" xmlns:xlink="http://www.w3.org/1999/xlink" xml:space="preserve" xmlns:serif="http://www.serif.com/" style="fill-rule:evenodd;clip-rule:evenodd;stroke-linejoin:round;stroke-miterlimit:2;">
    <path id="Settings-Icon" serif:id="Settings Icon" d="M78.194,52.917C79.192,52.917 80,52.108 80,51.111L80,43.889C80,42.892 79.192,42.083 78.194,42.083L76.208,42.083C73.963,42.075 71.953,40.686 71.153,38.588C70.962,38.086 70.754,37.587 70.531,37.098C69.603,35.049 70.034,32.639 71.615,31.038L73.029,29.623C73.734,28.918 73.734,27.776 73.029,27.07L67.926,21.967C67.218,21.267 66.079,21.267 65.371,21.967L63.958,23.38C62.358,24.962 59.948,25.392 57.898,24.463C57.408,24.241 56.91,24.035 56.405,23.842C54.312,23.039 52.926,21.034 52.917,18.792L52.917,16.805C52.917,15.808 52.108,15 51.111,15L43.889,15C42.892,15 42.083,15.808 42.083,16.805L42.083,18.792C42.075,21.037 40.686,23.046 38.588,23.847C38.086,24.038 37.587,24.246 37.098,24.469C35.049,25.399 32.639,24.967 31.038,23.385L29.624,21.971C28.918,21.267 27.776,21.267 27.07,21.971L21.967,27.07C21.629,27.409 21.438,27.868 21.438,28.348C21.438,28.826 21.629,29.287 21.967,29.625L23.38,31.038C24.961,32.639 25.392,35.049 24.463,37.098C24.241,37.588 24.035,38.086 23.842,38.591C23.04,40.686 21.035,42.073 18.792,42.083L16.806,42.083C15.808,42.083 15,42.892 15,43.889L15,51.111C15,52.108 15.808,52.917 16.806,52.917L18.792,52.917C21.037,52.925 23.047,54.314 23.847,56.412C24.038,56.914 24.246,57.413 24.469,57.902C25.397,59.951 24.966,62.361 23.385,63.962L21.971,65.377C21.267,66.082 21.267,67.225 21.971,67.93L27.074,73.033C27.412,73.371 27.872,73.562 28.351,73.562C28.83,73.562 29.29,73.371 29.629,73.033L31.042,71.62C32.643,70.04 35.052,69.609 37.102,70.537C37.591,70.76 38.09,70.967 38.595,71.158C40.688,71.961 42.074,73.966 42.083,76.208L42.083,78.194C42.083,79.192 42.892,80 43.889,80L51.111,80C52.108,80 52.917,79.192 52.917,78.194L52.917,76.208C52.925,73.963 54.314,71.953 56.412,71.153C56.914,70.962 57.413,70.754 57.902,70.531C59.951,69.601 62.361,70.032 63.962,71.615L65.377,73.029C66.082,73.734 67.224,73.734 67.93,73.029L73.033,67.926C73.371,67.588 73.562,67.128 73.562,66.649C73.562,66.17 73.371,65.71 73.033,65.371L71.62,63.958C70.039,62.357 69.608,59.948 70.537,57.898C70.76,57.408 70.967,56.91 71.158,56.405C71.961,54.312 73.966,52.926 76.208,52.917L78.194,52.917ZM61.987,47.784C61.987,48.074 61.965,48.363 61.942,48.655C61.918,48.977 61.877,49.283 61.832,49.593C61.489,51.941 60.663,54.193 59.406,56.205C59.167,56.595 58.877,56.95 58.543,57.262C57.306,58.434 55.917,59.436 54.413,60.241L54.404,60.241C54.132,60.386 53.863,60.508 53.598,60.632C53.39,60.728 53.182,60.828 52.97,60.915C52.757,61.002 52.517,61.076 52.292,61.163C52.066,61.25 51.852,61.324 51.626,61.387C51.336,61.472 51.054,61.548 50.77,61.607C50.61,61.642 50.463,61.683 50.305,61.713C49.901,61.794 49.5,61.852 49.113,61.895C49.062,61.895 49.01,61.911 48.951,61.917C48.468,61.965 47.985,61.995 47.529,61.995C47.268,61.995 47.034,61.958 46.783,61.945C46.406,61.928 46.031,61.918 45.655,61.871C45.087,61.796 44.523,61.688 43.967,61.55C43.939,61.55 43.912,61.541 43.886,61.535C37.481,59.884 33.004,54.113 33.002,47.504C32.999,40.896 37.471,35.122 43.875,33.466C44.389,33.341 44.911,33.243 45.437,33.174C45.618,33.149 45.801,33.128 45.984,33.108C46.33,33.073 46.675,33.054 47.019,33.044C47.179,33.044 47.34,33.014 47.502,33.014C50.617,33.014 53.647,34.024 56.139,35.891L56.403,36.087C56.606,36.248 56.806,36.412 57.001,36.58C57.162,36.722 57.323,36.87 57.484,37.02C57.616,37.145 57.748,37.267 57.874,37.398C58.114,37.641 58.343,37.895 58.565,38.158C58.613,38.214 58.667,38.268 58.713,38.326C59.259,38.985 59.744,39.692 60.163,40.437C60.184,40.474 60.197,40.514 60.218,40.551C60.484,41.039 60.722,41.542 60.929,42.057C61.019,42.278 61.09,42.5 61.173,42.724C61.286,43.046 61.388,43.372 61.478,43.704C61.549,43.965 61.623,44.224 61.679,44.487C61.765,44.887 61.826,45.291 61.877,45.708C61.924,46.091 61.952,46.476 61.968,46.862C61.977,47.075 62,47.284 62,47.506C62,47.606 61.989,47.692 61.987,47.784Z" style="fill:white;fill-rule:nonzero;"/>
</svg>
