<?xml version="1.0" encoding="UTF-8" standalone="no"?>
<!DOCTYPE svg PUBLIC "-//W3C//DTD SVG 1.1//EN" "http://www.w3.org/Graphics/SVG/1.1/DTD/svg11.dtd">
<svg class="railroad-diagram" width="420" height="71" viewBox="0 0 420 71" xmlns="http://www.w3.org/2000/svg" xmlns:xlink="http://www.w3.org/1999/xlink">
<g transform="translate(.5 .5)">
<g>
<path d="M20 30v20m10 -20v20m-10 -10h20"></path>
</g>
<path d="M40 40h10"></path>
<g>
<path d="M50 40h0"></path>
<path d="M182 40h0"></path>
<g class="non-terminal ">
<path d="M50 40h0"></path>
<path d="M182 40h0"></path>
<rect x="50" y="29" width="132" height="22"></rect>
<text x="116" y="44">AUTHENTICATION</text>
</g>
</g>
<path d="M182 40h10"></path>
<g>
<path d="M192 40h0"></path>
<path d="M276 40h0"></path>
<path d="M192 40a10 10 0 0 0 10 -10v0a10 10 0 0 1 10 -10"></path>
<g>
<path d="M212 20h44"></path>
</g>
<path d="M256 20a10 10 0 0 1 10 10v0a10 10 0 0 0 10 10"></path>
<path d="M192 40h20"></path>
<g class="non-terminal ">
<path d="M212 40h0"></path>
<path d="M256 40h0"></path>
<rect x="212" y="29" width="44" height="22"></rect>
<text x="234" y="44">NOT</text>
</g>
<path d="M256 40h20"></path>
</g>
<path d="M276 40h10"></path>
<g class="non-terminal ">
<path d="M286 40h0"></path>
<path d="M370 40h0"></path>
<rect x="286" y="29" width="84" height="22"></rect>
<text x="328" y="44">REQUIRED</text>
</g>
<path d="M370 40h10"></path>
<path d="M 380 40 h 20 m -10 -10 v 20 m 10 -20 v 20"></path>
</g>
<defs><style type="text/css"><![CDATA[
svg.railroad-diagram path { stroke-width: 2; stroke: darkgray; fill: rgba(0, 0, 0, 0); }
svg.railroad-diagram text { font: bold 12px Hack, "Source Code Pro", monospace; text-anchor: middle; fill: #404040; }
svg.railroad-diagram text.comment { font: italic 10px Hack, "Source Code Pro", monospace; fill: #404040; }
svg.railroad-diagram g.terminal rect { stroke-width: 2; stroke: #404040; fill: rgba(255, 255, 255, 1); }
svg.railroad-diagram g.non-terminal rect { stroke-width: 2; stroke: #404040; fill: rgba(200, 200, 200, 0.8); }
svg.railroad-diagram text.diagram-text { font-size: 12px Hack, "Source Code Pro", monospace; fill: red; }
svg.railroad-diagram path.diagram-text { stroke-width: 1; stroke: red; fill: red; cursor: help; }
svg.railroad-diagram g.diagram-text:hover path.diagram-text { fill: #f00; } ]]></style></defs></svg>