<?xml version="1.0" encoding="UTF-8" standalone="no"?>
<!DOCTYPE svg PUBLIC "-//W3C//DTD SVG 1.1//EN" "http://www.w3.org/Graphics/SVG/1.1/DTD/svg11.dtd">
<svg class="railroad-diagram" width="925" height="217" viewBox="0 0 925 217" id="createRestContentSetStatement" xmlns="http://www.w3.org/2000/svg" xmlns:xlink="http://www.w3.org/1999/xlink"><g transform="translate(.5 .5)"><g><path d="M20 37v20m0 -10h20"></path></g><g><path d="M40 47h0"></path><path d="M885 187h0"></path><path d="M40 47h20"></path><g><path d="M60 47h0"></path><path d="M60 47h10"></path><g><path d="M70 47h0"></path><path d="M835 47h20"></path><g class="terminal "><path d="M70 47h0"></path><path d="M141 47h0"></path><rect x="70" y="36" width="71" height="22"></rect><text x="105.5" y="51">CREATE</text></g><path d="M141 47h10"></path><g><path d="M151 47h0"></path><path d="M387.5 47h0"></path><path d="M151 47a10 10 0 0 0 10 -10v-7a10 10 0 0 1 10 -10"></path><g><path d="M171 20h196.5"></path></g><path d="M367.5 20a10 10 0 0 1 10 10v7a10 10 0 0 0 10 10"></path><path d="M151 47h20"></path><g><path d="M171 47h0"></path><path d="M367.5 47h0"></path><path d="M171 47h20"></path><g><path d="M191 47h0"></path><g><path d="M191 47h0"></path><path d="M327.5 47h20"></path><g class="terminal "><path d="M191 47h0"></path><path d="M228 47h0"></path><rect x="191" y="36" width="37" height="22"></rect><text x="209.5" y="51">OR</text></g><path d="M228 47h10"></path><path d="M238 47h10"></path><g class="terminal "><path d="M248 47h0"></path><path d="M327.5 47h0"></path><rect x="248" y="36" width="79.5" height="22"></rect><text x="287.75" y="51">REPLACE</text></g></g><path d="M347.5 47h0"></path></g><path d="M347.5 47h20"></path></g><path d="M367.5 47h20"></path></g><path d="M387.5 47h10"></path><g class="terminal "><path d="M397.5 47h0"></path><path d="M451.5 47h0"></path><rect x="397.5" y="36" width="54" height="22"></rect><text x="424.5" y="51">REST</text></g><path d="M451.5 47h10"></path><path d="M461.5 47h10"></path><g class="terminal "><path d="M471.5 47h0"></path><path d="M551 47h0"></path><rect x="471.5" y="36" width="79.5" height="22"></rect><text x="511.25" y="51">CONTENT</text></g><path d="M551 47h10"></path><path d="M561 47h10"></path><g class="terminal "><path d="M571 47h0"></path><path d="M616.5 47h0"></path><rect x="571" y="36" width="45.5" height="22"></rect><text x="593.75" y="51">SET</text></g><path d="M616.5 47h10"></path><path d="M626.5 47h10"></path><g class="non-terminal "><path d="M636.5 47h0"></path><path d="M835 47h0"></path><rect x="636.5" y="36" width="198.5" height="22" rx="10" ry="10"></rect><text x="735.75" y="51">contentSetRequestPath</text></g></g><path d="M855 47a10 10 0 0 1 10 10v7a10 10 0 0 1 -10 10h-785a10 10 0 0 0 -10 10v23a10 10 0 0 0 10 10"></path><g><path d="M70 117h0"></path><path d="M764 117h91"></path><g><path d="M70 117h0"></path><path d="M425.5 117h0"></path><path d="M70 117a10 10 0 0 0 10 -10v-7a10 10 0 0 1 10 -10"></path><g><path d="M90 90h315.5"></path></g><path d="M405.5 90a10 10 0 0 1 10 10v7a10 10 0 0 0 10 10"></path><path d="M70 117h20"></path><g><path d="M90 117h0"></path><path d="M405.5 117h0"></path><path d="M90 117h20"></path><g><path d="M110 117h0"></path><g><path d="M110 117h0"></path><path d="M365.5 117h20"></path><g class="terminal "><path d="M110 117h0"></path><path d="M147 117h0"></path><rect x="110" y="106" width="37" height="22"></rect><text x="128.5" y="121">ON</text></g><path d="M147 117h10"></path><path d="M157 117h10"></path><g class="non-terminal "><path d="M167 117h0"></path><path d="M365.5 117h0"></path><rect x="167" y="106" width="198.5" height="22" rx="10" ry="10"></rect><text x="266.25" y="121">serviceSchemaSelector</text></g></g><path d="M385.5 117h0"></path></g><path d="M385.5 117h20"></path></g><path d="M405.5 117h20"></path></g><g><path d="M425.5 117h0"></path><path d="M764 117h0"></path><path d="M425.5 117a10 10 0 0 0 10 -10v-7a10 10 0 0 1 10 -10"></path><g><path d="M445.5 90h298.5"></path></g><path d="M744 90a10 10 0 0 1 10 10v7a10 10 0 0 0 10 10"></path><path d="M425.5 117h20"></path><g><path d="M445.5 117h0"></path><path d="M744 117h0"></path><path d="M445.5 117h20"></path><g><path d="M465.5 117h0"></path><g><path d="M465.5 117h0"></path><path d="M704 117h20"></path><g class="terminal "><path d="M465.5 117h0"></path><path d="M519.5 117h0"></path><rect x="465.5" y="106" width="54" height="22"></rect><text x="492.5" y="121">FROM</text></g><path d="M519.5 117h10"></path><path d="M529.5 117h10"></path><g class="non-terminal "><path d="M539.5 117h0"></path><path d="M704 117h0"></path><rect x="539.5" y="106" width="164.5" height="22" rx="10" ry="10"></rect><text x="621.75" y="121">directoryFilePath</text></g></g><path d="M724 117h0"></path></g><path d="M724 117h20"></path></g><path d="M744 117h20"></path></g></g><path d="M855 117a10 10 0 0 1 10 10v7a10 10 0 0 1 -10 10h-785a10 10 0 0 0 -10 10v23a10 10 0 0 0 10 10"></path><g><path d="M70 187h0"></path><path d="M308.5 187h546.5"></path><g><path d="M70 187h0"></path><path d="M308.5 187h0"></path><path d="M70 187a10 10 0 0 0 10 -10v-7a10 10 0 0 1 10 -10"></path><g><path d="M90 160h198.5"></path></g><path d="M288.5 160a10 10 0 0 1 10 10v7a10 10 0 0 0 10 10"></path><path d="M70 187h20"></path><g class="non-terminal "><path d="M90 187h0"></path><path d="M288.5 187h0"></path><rect x="90" y="176" width="198.5" height="22" rx="10" ry="10"></rect><text x="189.25" y="191">restContentSetOptions</text></g><path d="M288.5 187h20"></path></g></g><path d="M855 187h10"></path><path d="M865 187h0"></path></g><path d="M865 187h20"></path></g><path d="M 885 187 h 20 m 0 -10 v 20"></path></g><defs><style type="text/css"><![CDATA[
svg.railroad-diagram path { stroke-width: 2; stroke: darkgray; fill: rgba(0, 0, 0, 0); }svg.railroad-diagram text { font: bold 12px Hack, "Source Code Pro", monospace; text-anchor: middle; fill: #404040; }svg.railroad-diagram text.comment { font: italic 10px Hack, "Source Code Pro", monospace; fill: #404040; }svg.railroad-diagram g.terminal rect { stroke-width: 2; stroke: #404040; fill: rgba(200, 200, 200, 0.8); }svg.railroad-diagram g.non-terminal rect { stroke-width: 2; stroke: #404040; fill: rgba(255, 255, 255, 1); }svg.railroad-diagram text.diagram-text { font-size: 12px Hack, "Source Code Pro", monospace; fill: red; }svg.railroad-diagram path.diagram-text { stroke-width: 1; stroke: red; fill: red; cursor: help; }
 ]]>
</style></defs></svg>