<?xml version="1.0" encoding="UTF-8" standalone="no"?>
<!DOCTYPE svg PUBLIC "-//W3C//DTD SVG 1.1//EN" "http://www.w3.org/Graphics/SVG/1.1/DTD/svg11.dtd">
<svg class="railroad-diagram" width="868" height="271" viewBox="0 0 868 271" xmlns="http://www.w3.org/2000/svg" xmlns:xlink="http://www.w3.org/1999/xlink"><g transform="translate(.5 .5)"><g><path d="M20 37v20m0 -10h20"></path></g><g><path d="M40 47h0"></path><path d="M828 241h0"></path><path d="M40 47h20"></path><g><path d="M60 47h0"></path><path d="M60 47h10"></path><g><path d="M70 47h0"></path><path d="M778 47h20"></path><g class="terminal "><path d="M70 47h0"></path><path d="M141 47h0"></path><rect x="70" y="36" width="71" height="22"></rect><text x="105.5" y="51">CREATE</text></g><path d="M141 47h10"></path><g><path d="M151 47h0"></path><path d="M387.5 47h0"></path><path d="M151 47a10 10 0 0 0 10 -10v-7a10 10 0 0 1 10 -10"></path><g><path d="M171 20h196.5"></path></g><path d="M367.5 20a10 10 0 0 1 10 10v7a10 10 0 0 0 10 10"></path><path d="M151 47h20"></path><g><path d="M171 47h0"></path><path d="M367.5 47h0"></path><path d="M171 47h20"></path><g><path d="M191 47h0"></path><g><path d="M191 47h0"></path><path d="M327.5 47h20"></path><g class="terminal "><path d="M191 47h0"></path><path d="M228 47h0"></path><rect x="191" y="36" width="37" height="22"></rect><text x="209.5" y="51">OR</text></g><path d="M228 47h10"></path><path d="M238 47h10"></path><g class="terminal "><path d="M248 47h0"></path><path d="M327.5 47h0"></path><rect x="248" y="36" width="79.5" height="22"></rect><text x="287.75" y="51">REPLACE</text></g></g><path d="M347.5 47h0"></path></g><path d="M347.5 47h20"></path></g><path d="M367.5 47h20"></path></g><path d="M387.5 47h10"></path><g class="terminal "><path d="M397.5 47h0"></path><path d="M451.5 47h0"></path><rect x="397.5" y="36" width="54" height="22"></rect><text x="424.5" y="51">REST</text></g><path d="M451.5 47h10"></path><path d="M461.5 47h10"></path><g class="terminal "><path d="M471.5 47h0"></path><path d="M568 47h0"></path><rect x="471.5" y="36" width="96.5" height="22"></rect><text x="519.75" y="51">PROCEDURE</text></g><path d="M568 47h10"></path><path d="M578 47h10"></path><g class="non-terminal "><path d="M588 47h0"></path><path d="M778 47h0"></path><rect x="588" y="36" width="190" height="22" rx="10" ry="10"></rect><text x="683" y="51">procedureRequestPath</text></g></g><path d="M798 47a10 10 0 0 1 10 10v7a10 10 0 0 1 -10 10h-728a10 10 0 0 0 -10 10v23a10 10 0 0 0 10 10"></path><g><path d="M70 117h0"></path><path d="M631 117h167"></path><g><path d="M70 117h0"></path><path d="M308.5 117h0"></path><path d="M70 117a10 10 0 0 0 10 -10v-7a10 10 0 0 1 10 -10"></path><g><path d="M90 90h198.5"></path></g><path d="M288.5 90a10 10 0 0 1 10 10v7a10 10 0 0 0 10 10"></path><path d="M70 117h20"></path><g class="non-terminal "><path d="M90 117h0"></path><path d="M288.5 117h0"></path><rect x="90" y="106" width="198.5" height="22" rx="10" ry="10"></rect><text x="189.25" y="121">serviceSchemaSelector</text></g><path d="M288.5 117h20"></path></g><path d="M308.5 117h10"></path><g class="terminal "><path d="M318.5 117h0"></path><path d="M372.5 117h0"></path><rect x="318.5" y="106" width="54" height="22"></rect><text x="345.5" y="121">FROM</text></g><path d="M372.5 117h10"></path><path d="M382.5 117h10"></path><g class="non-terminal "><path d="M392.5 117h0"></path><path d="M574 117h0"></path><rect x="392.5" y="106" width="181.5" height="22" rx="10" ry="10"></rect><text x="483.25" y="121">qualifiedIdentifier</text></g><path d="M574 117h10"></path><path d="M584 117h10"></path><g class="terminal "><path d="M594 117h0"></path><path d="M631 117h0"></path><rect x="594" y="106" width="37" height="22"></rect><text x="612.5" y="121">AS</text></g></g><path d="M798 117a10 10 0 0 1 10 10v7a10 10 0 0 1 -10 10h-728a10 10 0 0 0 -10 10v7a10 10 0 0 0 10 10"></path><g><path d="M70 171h0"></path><path d="M459 171h339"></path><g class="non-terminal "><path d="M70 171h0"></path><path d="M209 171h0"></path><rect x="70" y="160" width="139" height="22" rx="10" ry="10"></rect><text x="139.5" y="175">restObjectName</text></g><path d="M209 171h10"></path><path d="M219 171h10"></path><g class="terminal "><path d="M229 171h0"></path><path d="M334 171h0"></path><rect x="229" y="160" width="105" height="22"></rect><text x="281.5" y="175">PARAMETERS</text></g><path d="M334 171h10"></path><path d="M344 171h10"></path><g class="non-terminal "><path d="M354 171h0"></path><path d="M459 171h0"></path><rect x="354" y="160" width="105" height="22" rx="10" ry="10"></rect><text x="406.5" y="175">graphGlObj</text></g></g><path d="M798 171a10 10 0 0 1 10 10v7a10 10 0 0 1 -10 10h-728a10 10 0 0 0 -10 10v23a10 10 0 0 0 10 10"></path><g><path d="M70 241h0"></path><path d="M311.5 241h486.5"></path><g><path d="M70 241h0"></path><path d="M311.5 241h0"></path><path d="M70 241a10 10 0 0 0 10 -10v-7a10 10 0 0 1 10 -10"></path><g><path d="M90 214h201.5"></path></g><path d="M291.5 214a10 10 0 0 1 10 10v7a10 10 0 0 0 10 10"></path><path d="M70 241h20"></path><g><path d="M90 241h0"></path><path d="M291.5 241h0"></path><path d="M90 241h10"></path><g class="non-terminal "><path d="M100 241h0"></path><path d="M281.5 241h0"></path><rect x="100" y="230" width="181.5" height="22" rx="10" ry="10"></rect><text x="190.75" y="245">restProcedureResult</text></g><path d="M281.5 241h10"></path><path d="M100 241a10 10 0 0 0 -10 10v7a10 10 0 0 0 10 10"></path><g><path d="M100 268h181.5"></path></g><path d="M281.5 268a10 10 0 0 0 10 -10v-7a10 10 0 0 0 -10 -10"></path></g><path d="M291.5 241h20"></path></g></g><path d="M798 241h10"></path><path d="M808 241h0"></path></g><path d="M808 241h20"></path></g><path d="M 828 241 h 20 m 0 -10 v 20"></path></g><defs><style type="text/css"><![CDATA[
svg.railroad-diagram path { stroke-width: 2; stroke: darkgray; fill: rgba(0, 0, 0, 0); }
svg.railroad-diagram text { font: bold 12px Hack, "Source Code Pro", monospace; text-anchor: middle; fill: #404040; }
svg.railroad-diagram text.comment { font: italic 10px Hack, "Source Code Pro", monospace; fill: #404040; }
svg.railroad-diagram g.terminal rect { stroke-width: 2; stroke: #404040; fill: rgba(200, 200, 200, 0.8); }
svg.railroad-diagram g.non-terminal rect { stroke-width: 2; stroke: #404040; fill: rgba(255, 255, 255, 1); }
svg.railroad-diagram text.diagram-text { font-size: 12px Hack, "Source Code Pro", monospace; fill: red; }
svg.railroad-diagram path.diagram-text { stroke-width: 1; stroke: red; fill: red; cursor: help; }
svg.railroad-diagram g.diagram-text:hover path.diagram-text { fill: #f00; } ]]></style></defs></svg>