<?xml version="1.0" encoding="UTF-8" standalone="no"?>
<!DOCTYPE svg PUBLIC "-//W3C//DTD SVG 1.1//EN" "http://www.w3.org/Graphics/SVG/1.1/DTD/svg11.dtd">
<svg class="railroad-diagram" width="614" height="119" viewBox="0 0 614 119" xmlns="http://www.w3.org/2000/svg" xmlns:xlink="http://www.w3.org/1999/xlink">
<g transform="translate(.5 .5)">
<g>
<path d="M20 30v20m10 -20v20m-10 -10h20"></path>
</g>
<path d="M40 40h10"></path>
<g>
<path d="M50 40h0"></path>
<path d="M50 40h10"></path>
<g>
<path d="M60 40h0"></path>
<path d="M372 40h182"></path>
<g class="non-terminal ">
<path d="M60 40h0"></path>
<path d="M128 40h0"></path>
<rect x="60" y="29" width="68" height="22"></rect>
<text x="94" y="44">CREATE</text>
</g>
<path d="M128 40h10"></path>
<g>
<path d="M138 40h0"></path>
<path d="M310 40h0"></path>
<path d="M138 40a10 10 0 0 0 10 -10v0a10 10 0 0 1 10 -10"></path>
<g>
<path d="M158 20h132"></path>
</g>
<path d="M290 20a10 10 0 0 1 10 10v0a10 10 0 0 0 10 10"></path>
<path d="M138 40h20"></path>
<g>
<path d="M158 40h0"></path>
<path d="M290 40h0"></path>
<g class="non-terminal ">
<path d="M158 40h0"></path>
<path d="M194 40h0"></path>
<rect x="158" y="29" width="36" height="22"></rect>
<text x="176" y="44">OR</text>
</g>
<path d="M194 40h10"></path>
<path d="M204 40h10"></path>
<g class="non-terminal ">
<path d="M214 40h0"></path>
<path d="M290 40h0"></path>
<rect x="214" y="29" width="76" height="22"></rect>
<text x="252" y="44">REPLACE</text>
</g>
</g>
<path d="M290 40h20"></path>
</g>
<path d="M310 40h10"></path>
<g class="non-terminal ">
<path d="M320 40h0"></path>
<path d="M372 40h0"></path>
<rect x="320" y="29" width="52" height="22"></rect>
<text x="346" y="44">REST</text>
</g>
</g>
<path d="M554 40a10 10 0 0 1 10 10v0a10 10 0 0 1 -10 10h-494a10 10 0 0 0 -10 10v8a10 10 0 0 0 10 10"></path>
<g>
<path d="M60 88h0"></path>
<path d="M534 88h20"></path>
<g class="non-terminal ">
<path d="M60 88h0"></path>
<path d="M136 88h0"></path>
<rect x="60" y="77" width="76" height="22"></rect>
<text x="98" y="92">SERVICE</text>
</g>
<path d="M136 88h10"></path>
<path d="M146 88h10"></path>
<g class="terminal ">
<path d="M156 88h0"></path>
<path d="M320 88h0"></path>
<rect x="156" y="77" width="164" height="22" rx="10" ry="10"></rect>
<text x="238" y="92">serviceRequestPath</text>
</g>
<path d="M320 88h10"></path>
<g>
<path d="M330 88h0"></path>
<path d="M534 88h0"></path>
<path d="M330 88a10 10 0 0 0 10 -10v0a10 10 0 0 1 10 -10"></path>
<g>
<path d="M350 68h164"></path>
</g>
<path d="M514 68a10 10 0 0 1 10 10v0a10 10 0 0 0 10 10"></path>
<path d="M330 88h20"></path>
<g class="terminal ">
<path d="M350 88h0"></path>
<path d="M514 88h0"></path>
<rect x="350" y="77" width="164" height="22" rx="10" ry="10"></rect>
<text x="432" y="92">restServiceOptions</text>
</g>
<path d="M514 88h20"></path>
</g>
</g>
<path d="M554 88h10"></path>
<path d="M564 88h0"></path>
</g>
<path d="M564 88h10"></path>
<path d="M 574 88 h 20 m -10 -10 v 20 m 10 -20 v 20"></path>
</g>
<defs><style type="text/css"><![CDATA[
svg.railroad-diagram path { stroke-width: 2; stroke: darkgray; fill: rgba(0, 0, 0, 0); }
svg.railroad-diagram text { font: bold 12px Hack, "Source Code Pro", monospace; text-anchor: middle; fill: #404040; }
svg.railroad-diagram text.comment { font: italic 10px Hack, "Source Code Pro", monospace; fill: #404040; }
svg.railroad-diagram g.terminal rect { stroke-width: 2; stroke: #404040; fill: rgba(255, 255, 255, 1); }
svg.railroad-diagram g.non-terminal rect { stroke-width: 2; stroke: #404040; fill: rgba(200, 200, 200, 0.8); }
svg.railroad-diagram text.diagram-text { font-size: 12px Hack, "Source Code Pro", monospace; fill: red; }
svg.railroad-diagram path.diagram-text { stroke-width: 1; stroke: red; fill: red; cursor: help; }
svg.railroad-diagram g.diagram-text:hover path.diagram-text { fill: #f00; } ]]></style></defs></svg>
