<?xml version="1.0" encoding="UTF-8" standalone="no"?>
<!DOCTYPE svg PUBLIC "-//W3C//DTD SVG 1.1//EN" "http://www.w3.org/Graphics/SVG/1.1/DTD/svg11.dtd">
<svg class="railroad-diagram" width="204" height="92" viewBox="0 0 204 92" xmlns="http://www.w3.org/2000/svg" xmlns:xlink="http://www.w3.org/1999/xlink">
<g transform="translate(.5 .5)">
<g>
<path d="M20 21v20m10 -20v20m-10 -10h20"></path>
</g>
<g>
<path d="M40 31h0"></path>
<path d="M164 31h0"></path>
<path d="M40 31h20"></path>
<g class="non-terminal ">
<path d="M60 31h4"></path>
<path d="M140 31h4"></path>
<rect x="64" y="20" width="76" height="22"></rect>
<text x="102" y="35">ENABLED</text>
</g>
<path d="M144 31h20"></path>
<path d="M40 31a10 10 0 0 1 10 10v10a10 10 0 0 0 10 10"></path>
<g class="non-terminal ">
<path d="M60 61h0"></path>
<path d="M144 61h0"></path>
<rect x="60" y="50" width="84" height="22"></rect>
<text x="102" y="65">DISABLED</text>
</g>
<path d="M144 61a10 10 0 0 0 10 -10v-10a10 10 0 0 1 10 -10"></path>
</g>
<path d="M 164 31 h 20 m -10 -10 v 20 m 10 -20 v 20"></path>
</g>
<defs><style type="text/css"><![CDATA[
svg.railroad-diagram path { stroke-width: 2; stroke: darkgray; fill: rgba(0, 0, 0, 0); }
svg.railroad-diagram text { font: bold 12px Hack, "Source Code Pro", monospace; text-anchor: middle; fill: #404040; }
svg.railroad-diagram text.comment { font: italic 10px Hack, "Source Code Pro", monospace; fill: #404040; }
svg.railroad-diagram g.terminal rect { stroke-width: 2; stroke: #404040; fill: rgba(255, 255, 255, 1); }
svg.railroad-diagram g.non-terminal rect { stroke-width: 2; stroke: #404040; fill: rgba(200, 200, 200, 0.8); }
svg.railroad-diagram text.diagram-text { font-size: 12px Hack, "Source Code Pro", monospace; fill: red; }
svg.railroad-diagram path.diagram-text { stroke-width: 1; stroke: red; fill: red; cursor: help; }
svg.railroad-diagram g.diagram-text:hover path.diagram-text { fill: #f00; } ]]></style></defs></svg>
