<?xml version="1.0" encoding="UTF-8" standalone="no"?>
<!DOCTYPE svg PUBLIC "-//W3C//DTD SVG 1.1//EN" "http://www.w3.org/Graphics/SVG/1.1/DTD/svg11.dtd">
<svg class="railroad-diagram" width="828" height="132" viewBox="0 0 828 132" xmlns="http://www.w3.org/2000/svg" xmlns:xlink="http://www.w3.org/1999/xlink"><g transform="translate(.5 .5)"><g><path d="M20 37v20m0 -10h20"></path></g><g><path d="M40 47h0"></path><path d="M788 47h0"></path><path d="M40 47h20"></path><g><path d="M60 47h0"></path><g><path d="M60 47h0"></path><path d="M748 47h20"></path><g class="terminal "><path d="M60 47h0"></path><path d="M165 47h0"></path><rect x="60" y="36" width="105" height="22"></rect><text x="112.5" y="51">OPEN_CURLY</text></g><path d="M165 47h10"></path><path d="M175 47h10"></path><g class="non-terminal "><path d="M185 47h0"></path><path d="M298.5 47h0"></path><rect x="185" y="36" width="113.5" height="22" rx="10" ry="10"></rect><text x="241.75" y="51">graphGlPair</text></g><path d="M298.5 47h10"></path><g><path d="M308.5 47h0"></path><path d="M624.5 47h0"></path><path d="M308.5 47a10 10 0 0 0 10 -10v-7a10 10 0 0 1 10 -10"></path><g><path d="M328.5 20h276"></path></g><path d="M604.5 20a10 10 0 0 1 10 10v7a10 10 0 0 0 10 10"></path><path d="M308.5 47h20"></path><g><path d="M328.5 47h0"></path><path d="M604.5 47h0"></path><path d="M328.5 47h10"></path><g><path d="M338.5 47h0"></path><path d="M594.5 47h0"></path><path d="M338.5 47h20"></path><g><path d="M358.5 47h0"></path><g><path d="M358.5 47h0"></path><path d="M554.5 47h20"></path><g class="terminal "><path d="M358.5 47h0"></path><path d="M421 47h0"></path><rect x="358.5" y="36" width="62.5" height="22"></rect><text x="389.75" y="51">COMMA</text></g><path d="M421 47h10"></path><path d="M431 47h10"></path><g class="non-terminal "><path d="M441 47h0"></path><path d="M554.5 47h0"></path><rect x="441" y="36" width="113.5" height="22" rx="10" ry="10"></rect><text x="497.75" y="51">graphGlPair</text></g></g><path d="M574.5 47h0"></path></g><path d="M574.5 47h20"></path></g><path d="M594.5 47h10"></path><path d="M338.5 47a10 10 0 0 0 -10 10v7a10 10 0 0 0 10 10"></path><g><path d="M338.5 74h256"></path></g><path d="M594.5 74a10 10 0 0 0 10 -10v-7a10 10 0 0 0 -10 -10"></path></g><path d="M604.5 47h20"></path></g><path d="M624.5 47h10"></path><g class="terminal "><path d="M634.5 47h0"></path><path d="M748 47h0"></path><rect x="634.5" y="36" width="113.5" height="22"></rect><text x="691.25" y="51">CLOSE_CURLY</text></g></g><path d="M768 47h0"></path></g><path d="M768 47h20"></path><path d="M40 47a10 10 0 0 1 10 10v34a10 10 0 0 0 10 10"></path><g><path d="M60 101h0"></path><g><path d="M60 101h0"></path><path d="M298.5 101h20"></path><g class="terminal "><path d="M60 101h0"></path><path d="M165 101h0"></path><rect x="60" y="90" width="105" height="22"></rect><text x="112.5" y="105">OPEN_CURLY</text></g><path d="M165 101h10"></path><path d="M175 101h10"></path><g class="terminal "><path d="M185 101h0"></path><path d="M298.5 101h0"></path><rect x="185" y="90" width="113.5" height="22"></rect><text x="241.75" y="105">CLOSE_CURLY</text></g></g><path d="M318.5 101h449.5"></path></g><path d="M768 101a10 10 0 0 0 10 -10v-34a10 10 0 0 1 10 -10"></path></g><path d="M 788 47 h 20 m 0 -10 v 20"></path></g><defs><style type="text/css"><![CDATA[
svg.railroad-diagram path { stroke-width: 2; stroke: darkgray; fill: rgba(0, 0, 0, 0); }
svg.railroad-diagram text { font: bold 12px Hack, "Source Code Pro", monospace; text-anchor: middle; fill: #404040; }
svg.railroad-diagram text.comment { font: italic 10px Hack, "Source Code Pro", monospace; fill: #404040; }
svg.railroad-diagram g.terminal rect { stroke-width: 2; stroke: #404040; fill: rgba(200, 200, 200, 0.8); }
svg.railroad-diagram g.non-terminal rect { stroke-width: 2; stroke: #404040; fill: rgba(255, 255, 255, 1); }
svg.railroad-diagram text.diagram-text { font-size: 12px Hack, "Source Code Pro", monospace; fill: red; }
svg.railroad-diagram path.diagram-text { stroke-width: 1; stroke: red; fill: red; cursor: help; }
svg.railroad-diagram g.diagram-text:hover path.diagram-text { fill: #f00; } ]]></style></defs></svg>