<?xml version="1.0" encoding="UTF-8" standalone="no"?>
<!DOCTYPE svg PUBLIC "-//W3C//DTD SVG 1.1//EN" "http://www.w3.org/Graphics/SVG/1.1/DTD/svg11.dtd">
<svg class="railroad-diagram" width="313" height="138" viewBox="0 0 313 138" id="graphGlReduceToValue" xmlns="http://www.w3.org/2000/svg" xmlns:xlink="http://www.w3.org/1999/xlink"><g transform="translate(.5 .5)"><g><path d="M20 21v20m0 -10h20"></path></g><g><path d="M40 31h0"></path><path d="M273 31h0"></path><path d="M40 31h20"></path><g><path d="M60 31h29.75"></path><g><path d="M89.75 31h10"></path><path d="M213.25 31h10"></path><g class="terminal "><path d="M99.75 31h0"></path><path d="M213.25 31h0"></path><rect x="99.75" y="20" width="113.5" height="22"></rect><text x="156.5" y="35">JSON_STRING</text></g></g><path d="M223.25 31h29.75"></path></g><path d="M253 31h20"></path><path d="M40 31a10 10 0 0 1 10 10v18a10 10 0 0 0 10 10"></path><g><path d="M60 69h0"></path><g><path d="M60 69h10"></path><path d="M243 69h10"></path><g class="terminal "><path d="M70 69h0"></path><path d="M243 69h0"></path><rect x="70" y="58" width="173" height="22"></rect><text x="156.5" y="73">DOUBLE_QUOTED_TEXT</text></g></g><path d="M253 69h0"></path></g><path d="M253 69a10 10 0 0 0 10 -10v-18a10 10 0 0 1 10 -10"></path><path d="M40 31a10 10 0 0 1 10 10v56a10 10 0 0 0 10 10"></path><g><path d="M60 107h34"></path><g><path d="M94 107h10"></path><path d="M209 107h10"></path><g class="non-terminal "><path d="M104 107h0"></path><path d="M209 107h0"></path><rect x="104" y="96" width="105" height="22" rx="10" ry="10"></rect><text x="156.5" y="111">identifier</text></g></g><path d="M219 107h34"></path></g><path d="M253 107a10 10 0 0 0 10 -10v-56a10 10 0 0 1 10 -10"></path></g><path d="M 273 31 h 20 m 0 -10 v 20"></path></g><defs><style type="text/css"><![CDATA[
svg.railroad-diagram path { stroke-width: 2; stroke: darkgray; fill: rgba(0, 0, 0, 0); }svg.railroad-diagram text { font: bold 12px Hack, "Source Code Pro", monospace; text-anchor: middle; fill: #404040; }svg.railroad-diagram text.comment { font: italic 10px Hack, "Source Code Pro", monospace; fill: #404040; }svg.railroad-diagram g.terminal rect { stroke-width: 2; stroke: #404040; fill: rgba(200, 200, 200, 0.8); }svg.railroad-diagram g.non-terminal rect { stroke-width: 2; stroke: #404040; fill: rgba(255, 255, 255, 1); }svg.railroad-diagram text.diagram-text { font-size: 12px Hack, "Source Code Pro", monospace; fill: red; }svg.railroad-diagram path.diagram-text { stroke-width: 1; stroke: red; fill: red; cursor: help; }
 ]]>
</style></defs></svg>