<?xml version="1.0" encoding="UTF-8" standalone="no"?>
<!DOCTYPE svg PUBLIC "-//W3C//DTD SVG 1.1//EN" "http://www.w3.org/Graphics/SVG/1.1/DTD/svg11.dtd">
<svg class="railroad-diagram" width="653.5" height="78" viewBox="0 0 653.5 78" id="hostAndPortIdentifier" xmlns="http://www.w3.org/2000/svg" xmlns:xlink="http://www.w3.org/1999/xlink"><g transform="translate(.5 .5)"><g><path d="M20 37v20m0 -10h20"></path></g><g><path d="M40 47h0"></path><path d="M613.5 47h0"></path><path d="M40 47h20"></path><g><path d="M60 47h0"></path><g><path d="M60 47h10"></path><path d="M583.5 47h10"></path><g><path d="M70 47h0"></path><path d="M583.5 47h0"></path><path d="M70 47h20"></path><g><path d="M90 47h0"></path><g><path d="M90 47h10"></path><path d="M553.5 47h10"></path><g class="non-terminal "><path d="M100 47h0"></path><path d="M256 47h0"></path><rect x="100" y="36" width="156" height="22" rx="10" ry="10"></rect><text x="178" y="51">dottedIdentifier</text></g><path d="M256 47h10"></path><g><path d="M266 47h0"></path><path d="M553.5 47h0"></path><path d="M266 47a10 10 0 0 0 10 -10v-7a10 10 0 0 1 10 -10"></path><g><path d="M286 20h247.5"></path></g><path d="M533.5 20a10 10 0 0 1 10 10v7a10 10 0 0 0 10 10"></path><path d="M266 47h20"></path><g><path d="M286 47h0"></path><path d="M533.5 47h0"></path><path d="M286 47h20"></path><g><path d="M306 47h0"></path><g><path d="M306 47h10"></path><path d="M503.5 47h10"></path><g class="terminal "><path d="M316 47h0"></path><path d="M378.5 47h0"></path><rect x="316" y="36" width="62.5" height="22"></rect><text x="347.25" y="51">COLON</text></g><path d="M378.5 47h10"></path><path d="M388.5 47h10"></path><g class="terminal "><path d="M398.5 47h0"></path><path d="M503.5 47h0"></path><rect x="398.5" y="36" width="105" height="22"></rect><text x="451" y="51">INT_NUMBER</text></g></g><path d="M513.5 47h0"></path></g><path d="M513.5 47h20"></path></g><path d="M533.5 47h20"></path></g></g><path d="M563.5 47h0"></path></g><path d="M563.5 47h20"></path></g></g><path d="M593.5 47h0"></path></g><path d="M593.5 47h20"></path></g><path d="M 613.5 47 h 20 m 0 -10 v 20"></path></g><defs><style type="text/css"><![CDATA[
svg.railroad-diagram path { stroke-width: 2; stroke: darkgray; fill: rgba(0, 0, 0, 0); }svg.railroad-diagram text { font: bold 12px Hack, "Source Code Pro", monospace; text-anchor: middle; fill: #404040; }svg.railroad-diagram text.comment { font: italic 10px Hack, "Source Code Pro", monospace; fill: #404040; }svg.railroad-diagram g.terminal rect { stroke-width: 2; stroke: #404040; fill: rgba(200, 200, 200, 0.8); }svg.railroad-diagram g.non-terminal rect { stroke-width: 2; stroke: #404040; fill: rgba(255, 255, 255, 1); }svg.railroad-diagram text.diagram-text { font-size: 12px Hack, "Source Code Pro", monospace; fill: red; }svg.railroad-diagram path.diagram-text { stroke-width: 1; stroke: red; fill: red; cursor: help; }
 ]]>
</style></defs></svg>