<?xml version="1.0" encoding="UTF-8" standalone="no"?>
<!DOCTYPE svg PUBLIC "-//W3C//DTD SVG 1.1//EN" "http://www.w3.org/Graphics/SVG/1.1/DTD/svg11.dtd">
<svg class="railroad-diagram" width="562.5" height="94" viewBox="0 0 562.5 94" xmlns="http://www.w3.org/2000/svg" xmlns:xlink="http://www.w3.org/1999/xlink"><g transform="translate(.5 .5)"><g><path d="M20 37v20m0 -10h20"></path></g><g><path d="M40 47h0"></path><path d="M522.5 47h0"></path><path d="M40 47h20"></path><g><path d="M60 47h0"></path><g><path d="M60 47h0"></path><path d="M482.5 47h20"></path><g class="non-terminal "><path d="M60 47h0"></path><path d="M165 47h0"></path><rect x="60" y="36" width="105" height="22" rx="10" ry="10"></rect><text x="112.5" y="51">identifier</text></g><path d="M165 47h10"></path><g><path d="M175 47h0"></path><path d="M482.5 47h0"></path><path d="M175 47a10 10 0 0 0 10 -10v-7a10 10 0 0 1 10 -10"></path><g><path d="M195 20h267.5"></path></g><path d="M462.5 20a10 10 0 0 1 10 10v7a10 10 0 0 0 10 10"></path><path d="M175 47h20"></path><g><path d="M195 47h0"></path><path d="M462.5 47h0"></path><path d="M195 47h10"></path><g><path d="M205 47h0"></path><path d="M452.5 47h0"></path><path d="M205 47h20"></path><g><path d="M225 47h0"></path><g><path d="M225 47h0"></path><path d="M412.5 47h20"></path><g class="terminal "><path d="M225 47h0"></path><path d="M287.5 47h0"></path><rect x="225" y="36" width="62.5" height="22"></rect><text x="256.25" y="51">COMMA</text></g><path d="M287.5 47h10"></path><path d="M297.5 47h10"></path><g class="non-terminal "><path d="M307.5 47h0"></path><path d="M412.5 47h0"></path><rect x="307.5" y="36" width="105" height="22" rx="10" ry="10"></rect><text x="360" y="51">identifier</text></g></g><path d="M432.5 47h0"></path></g><path d="M432.5 47h20"></path></g><path d="M452.5 47h10"></path><path d="M205 47a10 10 0 0 0 -10 10v7a10 10 0 0 0 10 10"></path><g><path d="M205 74h247.5"></path></g><path d="M452.5 74a10 10 0 0 0 10 -10v-7a10 10 0 0 0 -10 -10"></path></g><path d="M462.5 47h20"></path></g></g><path d="M502.5 47h0"></path></g><path d="M502.5 47h20"></path></g><path d="M 522.5 47 h 20 m 0 -10 v 20"></path></g><defs><style type="text/css"><![CDATA[
svg.railroad-diagram path { stroke-width: 2; stroke: darkgray; fill: rgba(0, 0, 0, 0); }
svg.railroad-diagram text { font: bold 12px Hack, "Source Code Pro", monospace; text-anchor: middle; fill: #404040; }
svg.railroad-diagram text.comment { font: italic 10px Hack, "Source Code Pro", monospace; fill: #404040; }
svg.railroad-diagram g.terminal rect { stroke-width: 2; stroke: #404040; fill: rgba(200, 200, 200, 0.8); }
svg.railroad-diagram g.non-terminal rect { stroke-width: 2; stroke: #404040; fill: rgba(255, 255, 255, 1); }
svg.railroad-diagram text.diagram-text { font-size: 12px Hack, "Source Code Pro", monospace; fill: red; }
svg.railroad-diagram path.diagram-text { stroke-width: 1; stroke: red; fill: red; cursor: help; }
svg.railroad-diagram g.diagram-text:hover path.diagram-text { fill: #f00; } ]]></style></defs></svg>