<?xml version="1.0" encoding="UTF-8" standalone="no"?>
<!DOCTYPE svg PUBLIC "-//W3C//DTD SVG 1.1//EN" "http://www.w3.org/Graphics/SVG/1.1/DTD/svg11.dtd">
<svg class="railroad-diagram" width="666.5" height="132" viewBox="0 0 666.5 132" xmlns="http://www.w3.org/2000/svg" xmlns:xlink="http://www.w3.org/1999/xlink"><g transform="translate(.5 .5)"><g><path d="M20 37v20m0 -10h20"></path></g><g><path d="M40 47h0"></path><path d="M626.5 47h0"></path><path d="M40 47h20"></path><g><path d="M60 47h0"></path><g><path d="M60 47h0"></path><path d="M586.5 47h20"></path><g class="terminal "><path d="M60 47h0"></path><path d="M105.5 47h0"></path><rect x="60" y="36" width="45.5" height="22"></rect><text x="82.75" y="51">'['</text></g><path d="M105.5 47h10"></path><path d="M115.5 47h10"></path><g class="non-terminal "><path d="M125.5 47h0"></path><path d="M222 47h0"></path><rect x="125.5" y="36" width="96.5" height="22" rx="10" ry="10"></rect><text x="173.75" y="51">jsonValue</text></g><path d="M222 47h10"></path><g><path d="M232 47h0"></path><path d="M531 47h0"></path><path d="M232 47a10 10 0 0 0 10 -10v-7a10 10 0 0 1 10 -10"></path><g><path d="M252 20h259"></path></g><path d="M511 20a10 10 0 0 1 10 10v7a10 10 0 0 0 10 10"></path><path d="M232 47h20"></path><g><path d="M252 47h0"></path><path d="M511 47h0"></path><path d="M252 47h10"></path><g><path d="M262 47h0"></path><path d="M501 47h0"></path><path d="M262 47h20"></path><g><path d="M282 47h0"></path><g><path d="M282 47h0"></path><path d="M461 47h20"></path><g class="terminal "><path d="M282 47h0"></path><path d="M344.5 47h0"></path><rect x="282" y="36" width="62.5" height="22"></rect><text x="313.25" y="51">COMMA</text></g><path d="M344.5 47h10"></path><path d="M354.5 47h10"></path><g class="non-terminal "><path d="M364.5 47h0"></path><path d="M461 47h0"></path><rect x="364.5" y="36" width="96.5" height="22" rx="10" ry="10"></rect><text x="412.75" y="51">jsonValue</text></g></g><path d="M481 47h0"></path></g><path d="M481 47h20"></path></g><path d="M501 47h10"></path><path d="M262 47a10 10 0 0 0 -10 10v7a10 10 0 0 0 10 10"></path><g><path d="M262 74h239"></path></g><path d="M501 74a10 10 0 0 0 10 -10v-7a10 10 0 0 0 -10 -10"></path></g><path d="M511 47h20"></path></g><path d="M531 47h10"></path><g class="terminal "><path d="M541 47h0"></path><path d="M586.5 47h0"></path><rect x="541" y="36" width="45.5" height="22"></rect><text x="563.75" y="51">']'</text></g></g><path d="M606.5 47h0"></path></g><path d="M606.5 47h20"></path><path d="M40 47a10 10 0 0 1 10 10v34a10 10 0 0 0 10 10"></path><g><path d="M60 101h0"></path><g><path d="M60 101h0"></path><path d="M171 101h20"></path><g class="terminal "><path d="M60 101h0"></path><path d="M105.5 101h0"></path><rect x="60" y="90" width="45.5" height="22"></rect><text x="82.75" y="105">'['</text></g><path d="M105.5 101h10"></path><path d="M115.5 101h10"></path><g class="terminal "><path d="M125.5 101h0"></path><path d="M171 101h0"></path><rect x="125.5" y="90" width="45.5" height="22"></rect><text x="148.25" y="105">']'</text></g></g><path d="M191 101h415.5"></path></g><path d="M606.5 101a10 10 0 0 0 10 -10v-34a10 10 0 0 1 10 -10"></path></g><path d="M 626.5 47 h 20 m 0 -10 v 20"></path></g><defs><style type="text/css"><![CDATA[
svg.railroad-diagram path { stroke-width: 2; stroke: darkgray; fill: rgba(0, 0, 0, 0); }
svg.railroad-diagram text { font: bold 12px Hack, "Source Code Pro", monospace; text-anchor: middle; fill: #404040; }
svg.railroad-diagram text.comment { font: italic 10px Hack, "Source Code Pro", monospace; fill: #404040; }
svg.railroad-diagram g.terminal rect { stroke-width: 2; stroke: #404040; fill: rgba(200, 200, 200, 0.8); }
svg.railroad-diagram g.non-terminal rect { stroke-width: 2; stroke: #404040; fill: rgba(255, 255, 255, 1); }
svg.railroad-diagram text.diagram-text { font-size: 12px Hack, "Source Code Pro", monospace; fill: red; }
svg.railroad-diagram path.diagram-text { stroke-width: 1; stroke: red; fill: red; cursor: help; }
svg.railroad-diagram g.diagram-text:hover path.diagram-text { fill: #f00; } ]]></style></defs></svg>