<?xml version="1.0" encoding="UTF-8" standalone="no"?>
<!DOCTYPE svg PUBLIC "-//W3C//DTD SVG 1.1//EN" "http://www.w3.org/Graphics/SVG/1.1/DTD/svg11.dtd">
<svg class="railroad-diagram" width="288" height="62" viewBox="0 0 288 62" xmlns="http://www.w3.org/2000/svg" xmlns:xlink="http://www.w3.org/1999/xlink">
<g transform="translate(.5 .5)">
<g>
<path d="M20 21v20m10 -20v20m-10 -10h20"></path>
</g>
<path d="M40 31h10"></path>
<g>
<path d="M50 31h0"></path>
<path d="M126 31h0"></path>
<g class="non-terminal ">
<path d="M50 31h0"></path>
<path d="M126 31h0"></path>
<rect x="50" y="20" width="76" height="22"></rect>
<text x="88" y="35">OPTIONS</text>
</g>
</g>
<path d="M126 31h10"></path>
<path d="M136 31h10"></path>
<g class="terminal ">
<path d="M146 31h0"></path>
<path d="M238 31h0"></path>
<rect x="146" y="20" width="92" height="22" rx="10" ry="10"></rect>
<text x="192" y="35">jsonValue</text>
</g>
<path d="M238 31h10"></path>
<path d="M 248 31 h 20 m -10 -10 v 20 m 10 -20 v 20"></path>
</g>
<defs><style type="text/css"><![CDATA[
svg.railroad-diagram path { stroke-width: 2; stroke: darkgray; fill: rgba(0, 0, 0, 0); }
svg.railroad-diagram text { font: bold 12px Hack, "Source Code Pro", monospace; text-anchor: middle; fill: #404040; }
svg.railroad-diagram text.comment { font: italic 10px Hack, "Source Code Pro", monospace; fill: #404040; }
svg.railroad-diagram g.terminal rect { stroke-width: 2; stroke: #404040; fill: rgba(255, 255, 255, 1); }
svg.railroad-diagram g.non-terminal rect { stroke-width: 2; stroke: #404040; fill: rgba(200, 200, 200, 0.8); }
svg.railroad-diagram text.diagram-text { font-size: 12px Hack, "Source Code Pro", monospace; fill: red; }
svg.railroad-diagram path.diagram-text { stroke-width: 1; stroke: red; fill: red; cursor: help; }
svg.railroad-diagram g.diagram-text:hover path.diagram-text { fill: #f00; } ]]></style></defs></svg>