<?xml version="1.0" encoding="UTF-8" standalone="no"?>
<!DOCTYPE svg PUBLIC "-//W3C//DTD SVG 1.1//EN" "http://www.w3.org/Graphics/SVG/1.1/DTD/svg11.dtd">
<svg class="railroad-diagram" width="777" height="132" viewBox="0 0 777 132" xmlns="http://www.w3.org/2000/svg" xmlns:xlink="http://www.w3.org/1999/xlink"><g transform="translate(.5 .5)"><g><path d="M20 37v20m0 -10h20"></path></g><g><path d="M40 47h0"></path><path d="M737 47h0"></path><path d="M40 47h20"></path><g><path d="M60 47h0"></path><g><path d="M60 47h0"></path><path d="M697 47h20"></path><g class="terminal "><path d="M60 47h0"></path><path d="M165 47h0"></path><rect x="60" y="36" width="105" height="22"></rect><text x="112.5" y="51">OPEN_CURLY</text></g><path d="M165 47h10"></path><path d="M175 47h10"></path><g class="non-terminal "><path d="M185 47h0"></path><path d="M273 47h0"></path><rect x="185" y="36" width="88" height="22" rx="10" ry="10"></rect><text x="229" y="51">jsonPair</text></g><path d="M273 47h10"></path><g><path d="M283 47h0"></path><path d="M573.5 47h0"></path><path d="M283 47a10 10 0 0 0 10 -10v-7a10 10 0 0 1 10 -10"></path><g><path d="M303 20h250.5"></path></g><path d="M553.5 20a10 10 0 0 1 10 10v7a10 10 0 0 0 10 10"></path><path d="M283 47h20"></path><g><path d="M303 47h0"></path><path d="M553.5 47h0"></path><path d="M303 47h10"></path><g><path d="M313 47h0"></path><path d="M543.5 47h0"></path><path d="M313 47h20"></path><g><path d="M333 47h0"></path><g><path d="M333 47h0"></path><path d="M503.5 47h20"></path><g class="terminal "><path d="M333 47h0"></path><path d="M395.5 47h0"></path><rect x="333" y="36" width="62.5" height="22"></rect><text x="364.25" y="51">COMMA</text></g><path d="M395.5 47h10"></path><path d="M405.5 47h10"></path><g class="non-terminal "><path d="M415.5 47h0"></path><path d="M503.5 47h0"></path><rect x="415.5" y="36" width="88" height="22" rx="10" ry="10"></rect><text x="459.5" y="51">jsonPair</text></g></g><path d="M523.5 47h0"></path></g><path d="M523.5 47h20"></path></g><path d="M543.5 47h10"></path><path d="M313 47a10 10 0 0 0 -10 10v7a10 10 0 0 0 10 10"></path><g><path d="M313 74h230.5"></path></g><path d="M543.5 74a10 10 0 0 0 10 -10v-7a10 10 0 0 0 -10 -10"></path></g><path d="M553.5 47h20"></path></g><path d="M573.5 47h10"></path><g class="terminal "><path d="M583.5 47h0"></path><path d="M697 47h0"></path><rect x="583.5" y="36" width="113.5" height="22"></rect><text x="640.25" y="51">CLOSE_CURLY</text></g></g><path d="M717 47h0"></path></g><path d="M717 47h20"></path><path d="M40 47a10 10 0 0 1 10 10v34a10 10 0 0 0 10 10"></path><g><path d="M60 101h0"></path><g><path d="M60 101h0"></path><path d="M298.5 101h20"></path><g class="terminal "><path d="M60 101h0"></path><path d="M165 101h0"></path><rect x="60" y="90" width="105" height="22"></rect><text x="112.5" y="105">OPEN_CURLY</text></g><path d="M165 101h10"></path><path d="M175 101h10"></path><g class="terminal "><path d="M185 101h0"></path><path d="M298.5 101h0"></path><rect x="185" y="90" width="113.5" height="22"></rect><text x="241.75" y="105">CLOSE_CURLY</text></g></g><path d="M318.5 101h398.5"></path></g><path d="M717 101a10 10 0 0 0 10 -10v-34a10 10 0 0 1 10 -10"></path></g><path d="M 737 47 h 20 m 0 -10 v 20"></path></g><defs><style type="text/css"><![CDATA[
svg.railroad-diagram path { stroke-width: 2; stroke: darkgray; fill: rgba(0, 0, 0, 0); }
svg.railroad-diagram text { font: bold 12px Hack, "Source Code Pro", monospace; text-anchor: middle; fill: #404040; }
svg.railroad-diagram text.comment { font: italic 10px Hack, "Source Code Pro", monospace; fill: #404040; }
svg.railroad-diagram g.terminal rect { stroke-width: 2; stroke: #404040; fill: rgba(200, 200, 200, 0.8); }
svg.railroad-diagram g.non-terminal rect { stroke-width: 2; stroke: #404040; fill: rgba(255, 255, 255, 1); }
svg.railroad-diagram text.diagram-text { font-size: 12px Hack, "Source Code Pro", monospace; fill: red; }
svg.railroad-diagram path.diagram-text { stroke-width: 1; stroke: red; fill: red; cursor: help; }
svg.railroad-diagram g.diagram-text:hover path.diagram-text { fill: #f00; } ]]></style></defs></svg>