<?xml version="1.0" encoding="UTF-8" standalone="no"?>
<!DOCTYPE svg PUBLIC "-//W3C//DTD SVG 1.1//EN" "http://www.w3.org/Graphics/SVG/1.1/DTD/svg11.dtd">
<svg class="railroad-diagram" width="562" height="100" viewBox="0 0 562 100" id="jsonPair" xmlns="http://www.w3.org/2000/svg" xmlns:xlink="http://www.w3.org/1999/xlink"><g transform="translate(.5 .5)"><g><path d="M20 21v20m0 -10h20"></path></g><g><path d="M40 31h0"></path><path d="M522 31h0"></path><path d="M40 31h20"></path><g><path d="M60 31h0"></path><g><path d="M60 31h10"></path><path d="M492 31h10"></path><g><path d="M70 31h0"></path><path d="M303 31h0"></path><path d="M70 31h20"></path><g><path d="M90 31h29.75"></path><g><path d="M119.75 31h10"></path><path d="M243.25 31h10"></path><g class="terminal "><path d="M129.75 31h0"></path><path d="M243.25 31h0"></path><rect x="129.75" y="20" width="113.5" height="22"></rect><text x="186.5" y="35">JSON_STRING</text></g></g><path d="M253.25 31h29.75"></path></g><path d="M283 31h20"></path><path d="M70 31a10 10 0 0 1 10 10v18a10 10 0 0 0 10 10"></path><g><path d="M90 69h0"></path><g><path d="M90 69h10"></path><path d="M273 69h10"></path><g class="terminal "><path d="M100 69h0"></path><path d="M273 69h0"></path><rect x="100" y="58" width="173" height="22"></rect><text x="186.5" y="73">DOUBLE_QUOTED_TEXT</text></g></g><path d="M283 69h0"></path></g><path d="M283 69a10 10 0 0 0 10 -10v-18a10 10 0 0 1 10 -10"></path></g><path d="M303 31h10"></path><g class="terminal "><path d="M313 31h0"></path><path d="M375.5 31h0"></path><rect x="313" y="20" width="62.5" height="22"></rect><text x="344.25" y="35">COLON</text></g><path d="M375.5 31h10"></path><path d="M385.5 31h10"></path><g class="non-terminal "><path d="M395.5 31h0"></path><path d="M492 31h0"></path><rect x="395.5" y="20" width="96.5" height="22" rx="10" ry="10"></rect><text x="443.75" y="35">jsonValue</text></g></g><path d="M502 31h0"></path></g><path d="M502 31h20"></path></g><path d="M 522 31 h 20 m 0 -10 v 20"></path></g><defs><style type="text/css"><![CDATA[
svg.railroad-diagram path { stroke-width: 2; stroke: darkgray; fill: rgba(0, 0, 0, 0); }svg.railroad-diagram text { font: bold 12px Hack, "Source Code Pro", monospace; text-anchor: middle; fill: #404040; }svg.railroad-diagram text.comment { font: italic 10px Hack, "Source Code Pro", monospace; fill: #404040; }svg.railroad-diagram g.terminal rect { stroke-width: 2; stroke: #404040; fill: rgba(200, 200, 200, 0.8); }svg.railroad-diagram g.non-terminal rect { stroke-width: 2; stroke: #404040; fill: rgba(255, 255, 255, 1); }svg.railroad-diagram text.diagram-text { font-size: 12px Hack, "Source Code Pro", monospace; fill: red; }svg.railroad-diagram path.diagram-text { stroke-width: 1; stroke: red; fill: red; cursor: help; }
 ]]>
</style></defs></svg>