<?xml version="1.0" encoding="UTF-8" standalone="no"?>
<!DOCTYPE svg PUBLIC "-//W3C//DTD SVG 1.1//EN" "http://www.w3.org/Graphics/SVG/1.1/DTD/svg11.dtd">
<svg class="railroad-diagram" width="313" height="366" viewBox="0 0 313 366" xmlns="http://www.w3.org/2000/svg" xmlns:xlink="http://www.w3.org/1999/xlink"><g transform="translate(.5 .5)"><g><path d="M20 21v20m0 -10h20"></path></g><g><path d="M40 31h0"></path><path d="M273 31h0"></path><path d="M40 31h20"></path><g><path d="M60 31h0"></path><g><path d="M60 31h0"></path><path d="M173.5 31h20"></path><g class="terminal "><path d="M60 31h0"></path><path d="M173.5 31h0"></path><rect x="60" y="20" width="113.5" height="22"></rect><text x="116.75" y="35">JSON_STRING</text></g></g><path d="M193.5 31h59.5"></path></g><path d="M253 31h20"></path><path d="M40 31a10 10 0 0 1 10 10v18a10 10 0 0 0 10 10"></path><g><path d="M60 69h0"></path><g><path d="M60 69h0"></path><path d="M233 69h20"></path><g class="terminal "><path d="M60 69h0"></path><path d="M233 69h0"></path><rect x="60" y="58" width="173" height="22"></rect><text x="146.5" y="73">DOUBLE_QUOTED_TEXT</text></g></g><path d="M253 69h0"></path></g><path d="M253 69a10 10 0 0 0 10 -10v-18a10 10 0 0 1 10 -10"></path><path d="M40 31a10 10 0 0 1 10 10v56a10 10 0 0 0 10 10"></path><g><path d="M60 107h0"></path><g><path d="M60 107h0"></path><path d="M173.5 107h20"></path><g class="terminal "><path d="M60 107h0"></path><path d="M173.5 107h0"></path><rect x="60" y="96" width="113.5" height="22"></rect><text x="116.75" y="111">JSON_NUMBER</text></g></g><path d="M193.5 107h59.5"></path></g><path d="M253 107a10 10 0 0 0 10 -10v-56a10 10 0 0 1 10 -10"></path><path d="M40 31a10 10 0 0 1 10 10v94a10 10 0 0 0 10 10"></path><g><path d="M60 145h0"></path><g><path d="M60 145h0"></path><path d="M165 145h20"></path><g class="terminal "><path d="M60 145h0"></path><path d="M165 145h0"></path><rect x="60" y="134" width="105" height="22"></rect><text x="112.5" y="149">INT_NUMBER</text></g></g><path d="M185 145h68"></path></g><path d="M253 145a10 10 0 0 0 10 -10v-94a10 10 0 0 1 10 -10"></path><path d="M40 31a10 10 0 0 1 10 10v132a10 10 0 0 0 10 10"></path><g><path d="M60 183h0"></path><g><path d="M60 183h0"></path><path d="M139.5 183h20"></path><g class="non-terminal "><path d="M60 183h0"></path><path d="M139.5 183h0"></path><rect x="60" y="172" width="79.5" height="22" rx="10" ry="10"></rect><text x="99.75" y="187">jsonObj</text></g></g><path d="M159.5 183h93.5"></path></g><path d="M253 183a10 10 0 0 0 10 -10v-132a10 10 0 0 1 10 -10"></path><path d="M40 31a10 10 0 0 1 10 10v170a10 10 0 0 0 10 10"></path><g><path d="M60 221h0"></path><g><path d="M60 221h0"></path><path d="M139.5 221h20"></path><g class="non-terminal "><path d="M60 221h0"></path><path d="M139.5 221h0"></path><rect x="60" y="210" width="79.5" height="22" rx="10" ry="10"></rect><text x="99.75" y="225">jsonArr</text></g></g><path d="M159.5 221h93.5"></path></g><path d="M253 221a10 10 0 0 0 10 -10v-170a10 10 0 0 1 10 -10"></path><path d="M40 31a10 10 0 0 1 10 10v208a10 10 0 0 0 10 10"></path><g><path d="M60 259h0"></path><g><path d="M60 259h0"></path><path d="M131 259h20"></path><g class="terminal "><path d="M60 259h0"></path><path d="M131 259h0"></path><rect x="60" y="248" width="71" height="22"></rect><text x="95.5" y="263">'true'</text></g></g><path d="M151 259h102"></path></g><path d="M253 259a10 10 0 0 0 10 -10v-208a10 10 0 0 1 10 -10"></path><path d="M40 31a10 10 0 0 1 10 10v246a10 10 0 0 0 10 10"></path><g><path d="M60 297h0"></path><g><path d="M60 297h0"></path><path d="M139.5 297h20"></path><g class="terminal "><path d="M60 297h0"></path><path d="M139.5 297h0"></path><rect x="60" y="286" width="79.5" height="22"></rect><text x="99.75" y="301">'false'</text></g></g><path d="M159.5 297h93.5"></path></g><path d="M253 297a10 10 0 0 0 10 -10v-246a10 10 0 0 1 10 -10"></path><path d="M40 31a10 10 0 0 1 10 10v284a10 10 0 0 0 10 10"></path><g><path d="M60 335h0"></path><g><path d="M60 335h0"></path><path d="M131 335h20"></path><g class="terminal "><path d="M60 335h0"></path><path d="M131 335h0"></path><rect x="60" y="324" width="71" height="22"></rect><text x="95.5" y="339">'null'</text></g></g><path d="M151 335h102"></path></g><path d="M253 335a10 10 0 0 0 10 -10v-284a10 10 0 0 1 10 -10"></path></g><path d="M 273 31 h 20 m 0 -10 v 20"></path></g><defs><style type="text/css"><![CDATA[
svg.railroad-diagram path { stroke-width: 2; stroke: darkgray; fill: rgba(0, 0, 0, 0); }
svg.railroad-diagram text { font: bold 12px Hack, "Source Code Pro", monospace; text-anchor: middle; fill: #404040; }
svg.railroad-diagram text.comment { font: italic 10px Hack, "Source Code Pro", monospace; fill: #404040; }
svg.railroad-diagram g.terminal rect { stroke-width: 2; stroke: #404040; fill: rgba(200, 200, 200, 0.8); }
svg.railroad-diagram g.non-terminal rect { stroke-width: 2; stroke: #404040; fill: rgba(255, 255, 255, 1); }
svg.railroad-diagram text.diagram-text { font-size: 12px Hack, "Source Code Pro", monospace; fill: red; }
svg.railroad-diagram path.diagram-text { stroke-width: 1; stroke: red; fill: red; cursor: help; }
svg.railroad-diagram g.diagram-text:hover path.diagram-text { fill: #f00; } ]]></style></defs></svg>