<?xml version="1.0" encoding="UTF-8" standalone="no"?>
<!DOCTYPE svg PUBLIC "-//W3C//DTD SVG 1.1//EN" "http://www.w3.org/Graphics/SVG/1.1/DTD/svg11.dtd">
<svg class="railroad-diagram" width="942.5" height="126" viewBox="0 0 942.5 126" id="mrsScript" xmlns="http://www.w3.org/2000/svg" xmlns:xlink="http://www.w3.org/1999/xlink"><g transform="translate(.5 .5)"><g><path d="M20 53v20m0 -10h20"></path></g><g><path d="M40 63h0"></path><path d="M902.5 63h0"></path><path d="M40 63h20"></path><g><path d="M60 63h0"></path><g><path d="M60 63h10"></path><path d="M872.5 63h10"></path><g><path d="M70 63h0"></path><path d="M680.5 63h0"></path><path d="M70 63a10 10 0 0 0 10 -10v-23a10 10 0 0 1 10 -10"></path><g><path d="M90 20h570.5"></path></g><path d="M660.5 20a10 10 0 0 1 10 10v23a10 10 0 0 0 10 10"></path><path d="M70 63h20"></path><g><path d="M90 63h0"></path><path d="M660.5 63h0"></path><path d="M90 63h20"></path><g><path d="M110 63h0"></path><g><path d="M110 63h10"></path><path d="M630.5 63h10"></path><g class="non-terminal "><path d="M120 63h0"></path><path d="M242 63h0"></path><rect x="120" y="52" width="122" height="22" rx="10" ry="10"></rect><text x="181" y="67">mrsStatement</text></g><path d="M242 63h10"></path><g><path d="M252 63h0"></path><path d="M630.5 63h0"></path><path d="M252 63a10 10 0 0 0 10 -10v-7a10 10 0 0 1 10 -10"></path><g><path d="M272 36h338.5"></path></g><path d="M610.5 36a10 10 0 0 1 10 10v7a10 10 0 0 0 10 10"></path><path d="M252 63h20"></path><g><path d="M272 63h0"></path><path d="M610.5 63h0"></path><path d="M272 63h10"></path><g><path d="M282 63h0"></path><path d="M600.5 63h0"></path><path d="M282 63h20"></path><g><path d="M302 63h0"></path><g><path d="M302 63h10"></path><path d="M570.5 63h10"></path><g><path d="M312 63h0"></path><path d="M428.5 63h0"></path><path d="M312 63h10"></path><g class="terminal "><path d="M322 63h0"></path><path d="M418.5 63h0"></path><rect x="322" y="52" width="96.5" height="22"></rect><text x="370.25" y="67">SEMICOLON</text></g><path d="M418.5 63h10"></path><path d="M322 63a10 10 0 0 0 -10 10v7a10 10 0 0 0 10 10"></path><g><path d="M322 90h96.5"></path></g><path d="M418.5 90a10 10 0 0 0 10 -10v-7a10 10 0 0 0 -10 -10"></path></g><path d="M428.5 63h10"></path><path d="M438.5 63h10"></path><g class="non-terminal "><path d="M448.5 63h0"></path><path d="M570.5 63h0"></path><rect x="448.5" y="52" width="122" height="22" rx="10" ry="10"></rect><text x="509.5" y="67">mrsStatement</text></g></g><path d="M580.5 63h0"></path></g><path d="M580.5 63h20"></path></g><path d="M600.5 63h10"></path><path d="M282 63a10 10 0 0 0 -10 10v23a10 10 0 0 0 10 10"></path><g><path d="M282 106h318.5"></path></g><path d="M600.5 106a10 10 0 0 0 10 -10v-23a10 10 0 0 0 -10 -10"></path></g><path d="M610.5 63h20"></path></g></g><path d="M640.5 63h0"></path></g><path d="M640.5 63h20"></path></g><path d="M660.5 63h20"></path></g><g><path d="M680.5 63h0"></path><path d="M817 63h0"></path><path d="M680.5 63a10 10 0 0 0 10 -10v-7a10 10 0 0 1 10 -10"></path><g><path d="M700.5 36h96.5"></path></g><path d="M797 36a10 10 0 0 1 10 10v7a10 10 0 0 0 10 10"></path><path d="M680.5 63h20"></path><g class="terminal "><path d="M700.5 63h0"></path><path d="M797 63h0"></path><rect x="700.5" y="52" width="96.5" height="22"></rect><text x="748.75" y="67">SEMICOLON</text></g><path d="M797 63h20"></path></g><path d="M817 63h10"></path><g class="terminal "><path d="M827 63h0"></path><path d="M872.5 63h0"></path><rect x="827" y="52" width="45.5" height="22"></rect><text x="849.75" y="67">EOF</text></g></g><path d="M882.5 63h0"></path></g><path d="M882.5 63h20"></path></g><path d="M 902.5 63 h 20 m 0 -10 v 20"></path></g><defs><style type="text/css"><![CDATA[
svg.railroad-diagram path { stroke-width: 2; stroke: darkgray; fill: rgba(0, 0, 0, 0); }svg.railroad-diagram text { font: bold 12px Hack, "Source Code Pro", monospace; text-anchor: middle; fill: #404040; }svg.railroad-diagram text.comment { font: italic 10px Hack, "Source Code Pro", monospace; fill: #404040; }svg.railroad-diagram g.terminal rect { stroke-width: 2; stroke: #404040; fill: rgba(200, 200, 200, 0.8); }svg.railroad-diagram g.non-terminal rect { stroke-width: 2; stroke: #404040; fill: rgba(255, 255, 255, 1); }svg.railroad-diagram text.diagram-text { font-size: 12px Hack, "Source Code Pro", monospace; fill: red; }svg.railroad-diagram path.diagram-text { stroke-width: 1; stroke: red; fill: red; cursor: help; }
 ]]>
</style></defs></svg>