<?xml version="1.0" encoding="UTF-8" standalone="no"?>
<!DOCTYPE svg PUBLIC "-//W3C//DTD SVG 1.1//EN" "http://www.w3.org/Graphics/SVG/1.1/DTD/svg11.dtd">
<svg class="railroad-diagram" width="962.5" height="154" viewBox="0 0 962.5 154" xmlns="http://www.w3.org/2000/svg" xmlns:xlink="http://www.w3.org/1999/xlink"><g transform="translate(.5 .5)"><g><path d="M20 21v20m0 -10h20"></path></g><g><path d="M40 31h0"></path><path d="M922.5 31h0"></path><path d="M40 31h20"></path><g><path d="M60 31h0"></path><g><path d="M60 31h0"></path><path d="M105.5 31h20"></path><g class="terminal "><path d="M60 31h0"></path><path d="M105.5 31h0"></path><rect x="60" y="20" width="45.5" height="22"></rect><text x="82.75" y="35">EOF</text></g></g><path d="M125.5 31h777"></path></g><path d="M902.5 31h20"></path><path d="M40 31a10 10 0 0 1 10 10v34a10 10 0 0 0 10 10"></path><g><path d="M60 85h0"></path><g><path d="M60 85h0"></path><path d="M882.5 85h20"></path><g><path d="M60 85h0"></path><path d="M630.5 85h0"></path><path d="M60 85h20"></path><g><path d="M80 85h0"></path><g><path d="M80 85h0"></path><path d="M590.5 85h20"></path><g class="non-terminal "><path d="M80 85h0"></path><path d="M202 85h0"></path><rect x="80" y="74" width="122" height="22" rx="10" ry="10"></rect><text x="141" y="89">mrsStatement</text></g><path d="M202 85h10"></path><g><path d="M212 85h0"></path><path d="M590.5 85h0"></path><path d="M212 85a10 10 0 0 0 10 -10v-7a10 10 0 0 1 10 -10"></path><g><path d="M232 58h338.5"></path></g><path d="M570.5 58a10 10 0 0 1 10 10v7a10 10 0 0 0 10 10"></path><path d="M212 85h20"></path><g><path d="M232 85h0"></path><path d="M570.5 85h0"></path><path d="M232 85h10"></path><g><path d="M242 85h0"></path><path d="M560.5 85h0"></path><path d="M242 85h20"></path><g><path d="M262 85h0"></path><g><path d="M262 85h0"></path><path d="M520.5 85h20"></path><g><path d="M262 85h0"></path><path d="M378.5 85h0"></path><path d="M262 85h10"></path><g class="terminal "><path d="M272 85h0"></path><path d="M368.5 85h0"></path><rect x="272" y="74" width="96.5" height="22"></rect><text x="320.25" y="89">SEMICOLON</text></g><path d="M368.5 85h10"></path><path d="M272 85a10 10 0 0 0 -10 10v7a10 10 0 0 0 10 10"></path><g><path d="M272 112h96.5"></path></g><path d="M368.5 112a10 10 0 0 0 10 -10v-7a10 10 0 0 0 -10 -10"></path></g><path d="M378.5 85h10"></path><path d="M388.5 85h10"></path><g class="non-terminal "><path d="M398.5 85h0"></path><path d="M520.5 85h0"></path><rect x="398.5" y="74" width="122" height="22" rx="10" ry="10"></rect><text x="459.5" y="89">mrsStatement</text></g></g><path d="M540.5 85h0"></path></g><path d="M540.5 85h20"></path></g><path d="M560.5 85h10"></path><path d="M242 85a10 10 0 0 0 -10 10v23a10 10 0 0 0 10 10"></path><g><path d="M242 128h318.5"></path></g><path d="M560.5 128a10 10 0 0 0 10 -10v-23a10 10 0 0 0 -10 -10"></path></g><path d="M570.5 85h20"></path></g></g><path d="M610.5 85h0"></path></g><path d="M610.5 85h20"></path></g><g><path d="M630.5 85h0"></path><path d="M882.5 85h0"></path><path d="M630.5 85h20"></path><g><path d="M650.5 85h0"></path><g><path d="M650.5 85h0"></path><path d="M842.5 85h20"></path><g class="terminal "><path d="M650.5 85h0"></path><path d="M747 85h0"></path><rect x="650.5" y="74" width="96.5" height="22"></rect><text x="698.75" y="89">SEMICOLON</text></g><path d="M747 85h10"></path><g><path d="M757 85h0"></path><path d="M842.5 85h0"></path><path d="M757 85a10 10 0 0 0 10 -10v-7a10 10 0 0 1 10 -10"></path><g><path d="M777 58h45.5"></path></g><path d="M822.5 58a10 10 0 0 1 10 10v7a10 10 0 0 0 10 10"></path><path d="M757 85h20"></path><g class="terminal "><path d="M777 85h0"></path><path d="M822.5 85h0"></path><rect x="777" y="74" width="45.5" height="22"></rect><text x="799.75" y="89">EOF</text></g><path d="M822.5 85h20"></path></g></g><path d="M862.5 85h0"></path></g><path d="M862.5 85h20"></path><path d="M630.5 85a10 10 0 0 1 10 10v18a10 10 0 0 0 10 10"></path><g><path d="M650.5 123h0"></path><g><path d="M650.5 123h0"></path><path d="M696 123h20"></path><g class="terminal "><path d="M650.5 123h0"></path><path d="M696 123h0"></path><rect x="650.5" y="112" width="45.5" height="22"></rect><text x="673.25" y="127">EOF</text></g></g><path d="M716 123h146.5"></path></g><path d="M862.5 123a10 10 0 0 0 10 -10v-18a10 10 0 0 1 10 -10"></path></g></g><path d="M902.5 85h0"></path></g><path d="M902.5 85a10 10 0 0 0 10 -10v-34a10 10 0 0 1 10 -10"></path></g><path d="M 922.5 31 h 20 m 0 -10 v 20"></path></g><defs><style type="text/css"><![CDATA[
svg.railroad-diagram path { stroke-width: 2; stroke: darkgray; fill: rgba(0, 0, 0, 0); }
svg.railroad-diagram text { font: bold 12px Hack, "Source Code Pro", monospace; text-anchor: middle; fill: #404040; }
svg.railroad-diagram text.comment { font: italic 10px Hack, "Source Code Pro", monospace; fill: #404040; }
svg.railroad-diagram g.terminal rect { stroke-width: 2; stroke: #404040; fill: rgba(200, 200, 200, 0.8); }
svg.railroad-diagram g.non-terminal rect { stroke-width: 2; stroke: #404040; fill: rgba(255, 255, 255, 1); }
svg.railroad-diagram text.diagram-text { font-size: 12px Hack, "Source Code Pro", monospace; fill: red; }
svg.railroad-diagram path.diagram-text { stroke-width: 1; stroke: red; fill: red; cursor: help; }
svg.railroad-diagram g.diagram-text:hover path.diagram-text { fill: #f00; } ]]></style></defs></svg>