<?xml version="1.0" encoding="UTF-8" standalone="no"?>
<!DOCTYPE svg PUBLIC "-//W3C//DTD SVG 1.1//EN" "http://www.w3.org/Graphics/SVG/1.1/DTD/svg11.dtd">
<svg class="railroad-diagram" width="432" height="898" viewBox="0 0 432 898" xmlns="http://www.w3.org/2000/svg" xmlns:xlink="http://www.w3.org/1999/xlink"><g transform="translate(.5 .5)"><g><path d="M20 21v20m0 -10h20"></path></g><g><path d="M40 31h0"></path><path d="M392 31h0"></path><path d="M40 31h20"></path><g><path d="M60 31h0"></path><g><path d="M60 31h0"></path><path d="M335 31h20"></path><g class="non-terminal "><path d="M60 31h0"></path><path d="M335 31h0"></path><rect x="60" y="20" width="275" height="22" rx="10" ry="10"></rect><text x="197.5" y="35">configureRestMetadataStatement</text></g></g><path d="M355 31h17"></path></g><path d="M372 31h20"></path><path d="M40 31a10 10 0 0 1 10 10v18a10 10 0 0 0 10 10"></path><g><path d="M60 69h0"></path><g><path d="M60 69h0"></path><path d="M301 69h20"></path><g class="non-terminal "><path d="M60 69h0"></path><path d="M301 69h0"></path><rect x="60" y="58" width="241" height="22" rx="10" ry="10"></rect><text x="180.5" y="73">createRestServiceStatement</text></g></g><path d="M321 69h51"></path></g><path d="M372 69a10 10 0 0 0 10 -10v-18a10 10 0 0 1 10 -10"></path><path d="M40 31a10 10 0 0 1 10 10v56a10 10 0 0 0 10 10"></path><g><path d="M60 107h0"></path><g><path d="M60 107h0"></path><path d="M292.5 107h20"></path><g class="non-terminal "><path d="M60 107h0"></path><path d="M292.5 107h0"></path><rect x="60" y="96" width="232.5" height="22" rx="10" ry="10"></rect><text x="176.25" y="111">createRestSchemaStatement</text></g></g><path d="M312.5 107h59.5"></path></g><path d="M372 107a10 10 0 0 0 10 -10v-56a10 10 0 0 1 10 -10"></path><path d="M40 31a10 10 0 0 1 10 10v94a10 10 0 0 0 10 10"></path><g><path d="M60 145h0"></path><g><path d="M60 145h0"></path><path d="M275.5 145h20"></path><g class="non-terminal "><path d="M60 145h0"></path><path d="M275.5 145h0"></path><rect x="60" y="134" width="215.5" height="22" rx="10" ry="10"></rect><text x="167.75" y="149">createRestViewStatement</text></g></g><path d="M295.5 145h76.5"></path></g><path d="M372 145a10 10 0 0 0 10 -10v-94a10 10 0 0 1 10 -10"></path><path d="M40 31a10 10 0 0 1 10 10v132a10 10 0 0 0 10 10"></path><g><path d="M60 183h0"></path><g><path d="M60 183h0"></path><path d="M318 183h20"></path><g class="non-terminal "><path d="M60 183h0"></path><path d="M318 183h0"></path><rect x="60" y="172" width="258" height="22" rx="10" ry="10"></rect><text x="189" y="187">createRestProcedureStatement</text></g></g><path d="M338 183h34"></path></g><path d="M372 183a10 10 0 0 0 10 -10v-132a10 10 0 0 1 10 -10"></path><path d="M40 31a10 10 0 0 1 10 10v170a10 10 0 0 0 10 10"></path><g><path d="M60 221h0"></path><g><path d="M60 221h0"></path><path d="M292.5 221h20"></path><g class="non-terminal "><path d="M60 221h0"></path><path d="M292.5 221h0"></path><rect x="60" y="210" width="232.5" height="22" rx="10" ry="10"></rect><text x="176.25" y="225">alterRestServiceStatement</text></g></g><path d="M312.5 221h59.5"></path></g><path d="M372 221a10 10 0 0 0 10 -10v-170a10 10 0 0 1 10 -10"></path><path d="M40 31a10 10 0 0 1 10 10v208a10 10 0 0 0 10 10"></path><g><path d="M60 259h0"></path><g><path d="M60 259h0"></path><path d="M284 259h20"></path><g class="non-terminal "><path d="M60 259h0"></path><path d="M284 259h0"></path><rect x="60" y="248" width="224" height="22" rx="10" ry="10"></rect><text x="172" y="263">alterRestSchemaStatement</text></g></g><path d="M304 259h68"></path></g><path d="M372 259a10 10 0 0 0 10 -10v-208a10 10 0 0 1 10 -10"></path><path d="M40 31a10 10 0 0 1 10 10v246a10 10 0 0 0 10 10"></path><g><path d="M60 297h0"></path><g><path d="M60 297h0"></path><path d="M267 297h20"></path><g class="non-terminal "><path d="M60 297h0"></path><path d="M267 297h0"></path><rect x="60" y="286" width="207" height="22" rx="10" ry="10"></rect><text x="163.5" y="301">alterRestViewStatement</text></g></g><path d="M287 297h85"></path></g><path d="M372 297a10 10 0 0 0 10 -10v-246a10 10 0 0 1 10 -10"></path><path d="M40 31a10 10 0 0 1 10 10v284a10 10 0 0 0 10 10"></path><g><path d="M60 335h0"></path><g><path d="M60 335h0"></path><path d="M309.5 335h20"></path><g class="non-terminal "><path d="M60 335h0"></path><path d="M309.5 335h0"></path><rect x="60" y="324" width="249.5" height="22" rx="10" ry="10"></rect><text x="184.75" y="339">alterRestProcedureStatement</text></g></g><path d="M329.5 335h42.5"></path></g><path d="M372 335a10 10 0 0 0 10 -10v-284a10 10 0 0 1 10 -10"></path><path d="M40 31a10 10 0 0 1 10 10v322a10 10 0 0 0 10 10"></path><g><path d="M60 373h0"></path><g><path d="M60 373h0"></path><path d="M284 373h20"></path><g class="non-terminal "><path d="M60 373h0"></path><path d="M284 373h0"></path><rect x="60" y="362" width="224" height="22" rx="10" ry="10"></rect><text x="172" y="377">dropRestServiceStatement</text></g></g><path d="M304 373h68"></path></g><path d="M372 373a10 10 0 0 0 10 -10v-322a10 10 0 0 1 10 -10"></path><path d="M40 31a10 10 0 0 1 10 10v360a10 10 0 0 0 10 10"></path><g><path d="M60 411h0"></path><g><path d="M60 411h0"></path><path d="M275.5 411h20"></path><g class="non-terminal "><path d="M60 411h0"></path><path d="M275.5 411h0"></path><rect x="60" y="400" width="215.5" height="22" rx="10" ry="10"></rect><text x="167.75" y="415">dropRestSchemaStatement</text></g></g><path d="M295.5 411h76.5"></path></g><path d="M372 411a10 10 0 0 0 10 -10v-360a10 10 0 0 1 10 -10"></path><path d="M40 31a10 10 0 0 1 10 10v398a10 10 0 0 0 10 10"></path><g><path d="M60 449h0"></path><g><path d="M60 449h0"></path><path d="M318 449h20"></path><g class="non-terminal "><path d="M60 449h0"></path><path d="M318 449h0"></path><rect x="60" y="438" width="258" height="22" rx="10" ry="10"></rect><text x="189" y="453">dropRestDualityViewStatement</text></g></g><path d="M338 449h34"></path></g><path d="M372 449a10 10 0 0 0 10 -10v-398a10 10 0 0 1 10 -10"></path><path d="M40 31a10 10 0 0 1 10 10v436a10 10 0 0 0 10 10"></path><g><path d="M60 487h0"></path><g><path d="M60 487h0"></path><path d="M301 487h20"></path><g class="non-terminal "><path d="M60 487h0"></path><path d="M301 487h0"></path><rect x="60" y="476" width="241" height="22" rx="10" ry="10"></rect><text x="180.5" y="491">dropRestProcedureStatement</text></g></g><path d="M321 487h51"></path></g><path d="M372 487a10 10 0 0 0 10 -10v-436a10 10 0 0 1 10 -10"></path><path d="M40 31a10 10 0 0 1 10 10v474a10 10 0 0 0 10 10"></path><g><path d="M60 525h0"></path><g><path d="M60 525h0"></path><path d="M182 525h20"></path><g class="non-terminal "><path d="M60 525h0"></path><path d="M182 525h0"></path><rect x="60" y="514" width="122" height="22" rx="10" ry="10"></rect><text x="121" y="529">useStatement</text></g></g><path d="M202 525h170"></path></g><path d="M372 525a10 10 0 0 0 10 -10v-474a10 10 0 0 1 10 -10"></path><path d="M40 31a10 10 0 0 1 10 10v512a10 10 0 0 0 10 10"></path><g><path d="M60 563h0"></path><g><path d="M60 563h0"></path><path d="M343.5 563h20"></path><g class="non-terminal "><path d="M60 563h0"></path><path d="M343.5 563h0"></path><rect x="60" y="552" width="283.5" height="22" rx="10" ry="10"></rect><text x="201.75" y="567">showRestMetadataStatusStatement</text></g></g><path d="M363.5 563h8.5"></path></g><path d="M372 563a10 10 0 0 0 10 -10v-512a10 10 0 0 1 10 -10"></path><path d="M40 31a10 10 0 0 1 10 10v550a10 10 0 0 0 10 10"></path><g><path d="M60 601h0"></path><g><path d="M60 601h0"></path><path d="M292.5 601h20"></path><g class="non-terminal "><path d="M60 601h0"></path><path d="M292.5 601h0"></path><rect x="60" y="590" width="232.5" height="22" rx="10" ry="10"></rect><text x="176.25" y="605">showRestServicesStatement</text></g></g><path d="M312.5 601h59.5"></path></g><path d="M372 601a10 10 0 0 0 10 -10v-550a10 10 0 0 1 10 -10"></path><path d="M40 31a10 10 0 0 1 10 10v588a10 10 0 0 0 10 10"></path><g><path d="M60 639h0"></path><g><path d="M60 639h0"></path><path d="M284 639h20"></path><g class="non-terminal "><path d="M60 639h0"></path><path d="M284 639h0"></path><rect x="60" y="628" width="224" height="22" rx="10" ry="10"></rect><text x="172" y="643">showRestSchemasStatement</text></g></g><path d="M304 639h68"></path></g><path d="M372 639a10 10 0 0 0 10 -10v-588a10 10 0 0 1 10 -10"></path><path d="M40 31a10 10 0 0 1 10 10v626a10 10 0 0 0 10 10"></path><g><path d="M60 677h0"></path><g><path d="M60 677h0"></path><path d="M267 677h20"></path><g class="non-terminal "><path d="M60 677h0"></path><path d="M267 677h0"></path><rect x="60" y="666" width="207" height="22" rx="10" ry="10"></rect><text x="163.5" y="681">showRestViewsStatement</text></g></g><path d="M287 677h85"></path></g><path d="M372 677a10 10 0 0 0 10 -10v-626a10 10 0 0 1 10 -10"></path><path d="M40 31a10 10 0 0 1 10 10v664a10 10 0 0 0 10 10"></path><g><path d="M60 715h0"></path><g><path d="M60 715h0"></path><path d="M309.5 715h20"></path><g class="non-terminal "><path d="M60 715h0"></path><path d="M309.5 715h0"></path><rect x="60" y="704" width="249.5" height="22" rx="10" ry="10"></rect><text x="184.75" y="719">showRestProceduresStatement</text></g></g><path d="M329.5 715h42.5"></path></g><path d="M372 715a10 10 0 0 0 10 -10v-664a10 10 0 0 1 10 -10"></path><path d="M40 31a10 10 0 0 1 10 10v702a10 10 0 0 0 10 10"></path><g><path d="M60 753h0"></path><g><path d="M60 753h0"></path><path d="M335 753h20"></path><g class="non-terminal "><path d="M60 753h0"></path><path d="M335 753h0"></path><rect x="60" y="742" width="275" height="22" rx="10" ry="10"></rect><text x="197.5" y="757">showCreateRestServiceStatement</text></g></g><path d="M355 753h17"></path></g><path d="M372 753a10 10 0 0 0 10 -10v-702a10 10 0 0 1 10 -10"></path><path d="M40 31a10 10 0 0 1 10 10v740a10 10 0 0 0 10 10"></path><g><path d="M60 791h0"></path><g><path d="M60 791h0"></path><path d="M326.5 791h20"></path><g class="non-terminal "><path d="M60 791h0"></path><path d="M326.5 791h0"></path><rect x="60" y="780" width="266.5" height="22" rx="10" ry="10"></rect><text x="193.25" y="795">showCreateRestSchemaStatement</text></g></g><path d="M346.5 791h25.5"></path></g><path d="M372 791a10 10 0 0 0 10 -10v-740a10 10 0 0 1 10 -10"></path><path d="M40 31a10 10 0 0 1 10 10v778a10 10 0 0 0 10 10"></path><g><path d="M60 829h0"></path><g><path d="M60 829h0"></path><path d="M309.5 829h20"></path><g class="non-terminal "><path d="M60 829h0"></path><path d="M309.5 829h0"></path><rect x="60" y="818" width="249.5" height="22" rx="10" ry="10"></rect><text x="184.75" y="833">showCreateRestViewStatement</text></g></g><path d="M329.5 829h42.5"></path></g><path d="M372 829a10 10 0 0 0 10 -10v-778a10 10 0 0 1 10 -10"></path><path d="M40 31a10 10 0 0 1 10 10v816a10 10 0 0 0 10 10"></path><g><path d="M60 867h0"></path><g><path d="M60 867h0"></path><path d="M352 867h20"></path><g class="non-terminal "><path d="M60 867h0"></path><path d="M352 867h0"></path><rect x="60" y="856" width="292" height="22" rx="10" ry="10"></rect><text x="206" y="871">showCreateRestProcedureStatement</text></g></g><path d="M372 867h0"></path></g><path d="M372 867a10 10 0 0 0 10 -10v-816a10 10 0 0 1 10 -10"></path></g><path d="M 392 31 h 20 m 0 -10 v 20"></path></g><defs><style type="text/css"><![CDATA[
svg.railroad-diagram path { stroke-width: 2; stroke: darkgray; fill: rgba(0, 0, 0, 0); }
svg.railroad-diagram text { font: bold 12px Hack, "Source Code Pro", monospace; text-anchor: middle; fill: #404040; }
svg.railroad-diagram text.comment { font: italic 10px Hack, "Source Code Pro", monospace; fill: #404040; }
svg.railroad-diagram g.terminal rect { stroke-width: 2; stroke: #404040; fill: rgba(200, 200, 200, 0.8); }
svg.railroad-diagram g.non-terminal rect { stroke-width: 2; stroke: #404040; fill: rgba(255, 255, 255, 1); }
svg.railroad-diagram text.diagram-text { font-size: 12px Hack, "Source Code Pro", monospace; fill: red; }
svg.railroad-diagram path.diagram-text { stroke-width: 1; stroke: red; fill: red; cursor: help; }
svg.railroad-diagram g.diagram-text:hover path.diagram-text { fill: #f00; } ]]></style></defs></svg>