<?xml version="1.0" encoding="UTF-8" standalone="no"?>
<!DOCTYPE svg PUBLIC "-//W3C//DTD SVG 1.1//EN" "http://www.w3.org/Graphics/SVG/1.1/DTD/svg11.dtd">
<svg class="railroad-diagram" width="432" height="1240" viewBox="0 0 432 1240" id="mrsStatement" xmlns="http://www.w3.org/2000/svg" xmlns:xlink="http://www.w3.org/1999/xlink"><g transform="translate(.5 .5)"><g><path d="M20 21v20m0 -10h20"></path></g><g><path d="M40 31h0"></path><path d="M392 31h0"></path><path d="M40 31h20"></path><g><path d="M60 31h8.5"></path><g><path d="M68.5 31h10"></path><path d="M353.5 31h10"></path><g class="non-terminal "><path d="M78.5 31h0"></path><path d="M353.5 31h0"></path><rect x="78.5" y="20" width="275" height="22" rx="10" ry="10"></rect><text x="216" y="35">configureRestMetadataStatement</text></g></g><path d="M363.5 31h8.5"></path></g><path d="M372 31h20"></path><path d="M40 31a10 10 0 0 1 10 10v18a10 10 0 0 0 10 10"></path><g><path d="M60 69h25.5"></path><g><path d="M85.5 69h10"></path><path d="M336.5 69h10"></path><g class="non-terminal "><path d="M95.5 69h0"></path><path d="M336.5 69h0"></path><rect x="95.5" y="58" width="241" height="22" rx="10" ry="10"></rect><text x="216" y="73">createRestServiceStatement</text></g></g><path d="M346.5 69h25.5"></path></g><path d="M372 69a10 10 0 0 0 10 -10v-18a10 10 0 0 1 10 -10"></path><path d="M40 31a10 10 0 0 1 10 10v56a10 10 0 0 0 10 10"></path><g><path d="M60 107h29.75"></path><g><path d="M89.75 107h10"></path><path d="M332.25 107h10"></path><g class="non-terminal "><path d="M99.75 107h0"></path><path d="M332.25 107h0"></path><rect x="99.75" y="96" width="232.5" height="22" rx="10" ry="10"></rect><text x="216" y="111">createRestSchemaStatement</text></g></g><path d="M342.25 107h29.75"></path></g><path d="M372 107a10 10 0 0 0 10 -10v-56a10 10 0 0 1 10 -10"></path><path d="M40 31a10 10 0 0 1 10 10v94a10 10 0 0 0 10 10"></path><g><path d="M60 145h38.25"></path><g><path d="M98.25 145h10"></path><path d="M323.75 145h10"></path><g class="non-terminal "><path d="M108.25 145h0"></path><path d="M323.75 145h0"></path><rect x="108.25" y="134" width="215.5" height="22" rx="10" ry="10"></rect><text x="216" y="149">createRestViewStatement</text></g></g><path d="M333.75 145h38.25"></path></g><path d="M372 145a10 10 0 0 0 10 -10v-94a10 10 0 0 1 10 -10"></path><path d="M40 31a10 10 0 0 1 10 10v132a10 10 0 0 0 10 10"></path><g><path d="M60 183h17"></path><g><path d="M77 183h10"></path><path d="M345 183h10"></path><g class="non-terminal "><path d="M87 183h0"></path><path d="M345 183h0"></path><rect x="87" y="172" width="258" height="22" rx="10" ry="10"></rect><text x="216" y="187">createRestProcedureStatement</text></g></g><path d="M355 183h17"></path></g><path d="M372 183a10 10 0 0 0 10 -10v-132a10 10 0 0 1 10 -10"></path><path d="M40 31a10 10 0 0 1 10 10v170a10 10 0 0 0 10 10"></path><g><path d="M60 221h12.75"></path><g><path d="M72.75 221h10"></path><path d="M349.25 221h10"></path><g class="non-terminal "><path d="M82.75 221h0"></path><path d="M349.25 221h0"></path><rect x="82.75" y="210" width="266.5" height="22" rx="10" ry="10"></rect><text x="216" y="225">createRestContentSetStatement</text></g></g><path d="M359.25 221h12.75"></path></g><path d="M372 221a10 10 0 0 0 10 -10v-170a10 10 0 0 1 10 -10"></path><path d="M40 31a10 10 0 0 1 10 10v208a10 10 0 0 0 10 10"></path><g><path d="M60 259h25.5"></path><g><path d="M85.5 259h10"></path><path d="M336.5 259h10"></path><g class="non-terminal "><path d="M95.5 259h0"></path><path d="M336.5 259h0"></path><rect x="95.5" y="248" width="241" height="22" rx="10" ry="10"></rect><text x="216" y="263">createRestAuthAppStatement</text></g></g><path d="M346.5 259h25.5"></path></g><path d="M372 259a10 10 0 0 0 10 -10v-208a10 10 0 0 1 10 -10"></path><path d="M40 31a10 10 0 0 1 10 10v246a10 10 0 0 0 10 10"></path><g><path d="M60 297h38.25"></path><g><path d="M98.25 297h10"></path><path d="M323.75 297h10"></path><g class="non-terminal "><path d="M108.25 297h0"></path><path d="M323.75 297h0"></path><rect x="108.25" y="286" width="215.5" height="22" rx="10" ry="10"></rect><text x="216" y="301">createRestUserStatement</text></g></g><path d="M333.75 297h38.25"></path></g><path d="M372 297a10 10 0 0 0 10 -10v-246a10 10 0 0 1 10 -10"></path><path d="M40 31a10 10 0 0 1 10 10v284a10 10 0 0 0 10 10"></path><g><path d="M60 335h29.75"></path><g><path d="M89.75 335h10"></path><path d="M332.25 335h10"></path><g class="non-terminal "><path d="M99.75 335h0"></path><path d="M332.25 335h0"></path><rect x="99.75" y="324" width="232.5" height="22" rx="10" ry="10"></rect><text x="216" y="339">alterRestServiceStatement</text></g></g><path d="M342.25 335h29.75"></path></g><path d="M372 335a10 10 0 0 0 10 -10v-284a10 10 0 0 1 10 -10"></path><path d="M40 31a10 10 0 0 1 10 10v322a10 10 0 0 0 10 10"></path><g><path d="M60 373h34"></path><g><path d="M94 373h10"></path><path d="M328 373h10"></path><g class="non-terminal "><path d="M104 373h0"></path><path d="M328 373h0"></path><rect x="104" y="362" width="224" height="22" rx="10" ry="10"></rect><text x="216" y="377">alterRestSchemaStatement</text></g></g><path d="M338 373h34"></path></g><path d="M372 373a10 10 0 0 0 10 -10v-322a10 10 0 0 1 10 -10"></path><path d="M40 31a10 10 0 0 1 10 10v360a10 10 0 0 0 10 10"></path><g><path d="M60 411h42.5"></path><g><path d="M102.5 411h10"></path><path d="M319.5 411h10"></path><g class="non-terminal "><path d="M112.5 411h0"></path><path d="M319.5 411h0"></path><rect x="112.5" y="400" width="207" height="22" rx="10" ry="10"></rect><text x="216" y="415">alterRestViewStatement</text></g></g><path d="M329.5 411h42.5"></path></g><path d="M372 411a10 10 0 0 0 10 -10v-360a10 10 0 0 1 10 -10"></path><path d="M40 31a10 10 0 0 1 10 10v398a10 10 0 0 0 10 10"></path><g><path d="M60 449h21.25"></path><g><path d="M81.25 449h10"></path><path d="M340.75 449h10"></path><g class="non-terminal "><path d="M91.25 449h0"></path><path d="M340.75 449h0"></path><rect x="91.25" y="438" width="249.5" height="22" rx="10" ry="10"></rect><text x="216" y="453">alterRestProcedureStatement</text></g></g><path d="M350.75 449h21.25"></path></g><path d="M372 449a10 10 0 0 0 10 -10v-398a10 10 0 0 1 10 -10"></path><path d="M40 31a10 10 0 0 1 10 10v436a10 10 0 0 0 10 10"></path><g><path d="M60 487h34"></path><g><path d="M94 487h10"></path><path d="M328 487h10"></path><g class="non-terminal "><path d="M104 487h0"></path><path d="M328 487h0"></path><rect x="104" y="476" width="224" height="22" rx="10" ry="10"></rect><text x="216" y="491">dropRestServiceStatement</text></g></g><path d="M338 487h34"></path></g><path d="M372 487a10 10 0 0 0 10 -10v-436a10 10 0 0 1 10 -10"></path><path d="M40 31a10 10 0 0 1 10 10v474a10 10 0 0 0 10 10"></path><g><path d="M60 525h38.25"></path><g><path d="M98.25 525h10"></path><path d="M323.75 525h10"></path><g class="non-terminal "><path d="M108.25 525h0"></path><path d="M323.75 525h0"></path><rect x="108.25" y="514" width="215.5" height="22" rx="10" ry="10"></rect><text x="216" y="529">dropRestSchemaStatement</text></g></g><path d="M333.75 525h38.25"></path></g><path d="M372 525a10 10 0 0 0 10 -10v-474a10 10 0 0 1 10 -10"></path><path d="M40 31a10 10 0 0 1 10 10v512a10 10 0 0 0 10 10"></path><g><path d="M60 563h17"></path><g><path d="M77 563h10"></path><path d="M345 563h10"></path><g class="non-terminal "><path d="M87 563h0"></path><path d="M345 563h0"></path><rect x="87" y="552" width="258" height="22" rx="10" ry="10"></rect><text x="216" y="567">dropRestDualityViewStatement</text></g></g><path d="M355 563h17"></path></g><path d="M372 563a10 10 0 0 0 10 -10v-512a10 10 0 0 1 10 -10"></path><path d="M40 31a10 10 0 0 1 10 10v550a10 10 0 0 0 10 10"></path><g><path d="M60 601h25.5"></path><g><path d="M85.5 601h10"></path><path d="M336.5 601h10"></path><g class="non-terminal "><path d="M95.5 601h0"></path><path d="M336.5 601h0"></path><rect x="95.5" y="590" width="241" height="22" rx="10" ry="10"></rect><text x="216" y="605">dropRestProcedureStatement</text></g></g><path d="M346.5 601h25.5"></path></g><path d="M372 601a10 10 0 0 0 10 -10v-550a10 10 0 0 1 10 -10"></path><path d="M40 31a10 10 0 0 1 10 10v588a10 10 0 0 0 10 10"></path><g><path d="M60 639h21.25"></path><g><path d="M81.25 639h10"></path><path d="M340.75 639h10"></path><g class="non-terminal "><path d="M91.25 639h0"></path><path d="M340.75 639h0"></path><rect x="91.25" y="628" width="249.5" height="22" rx="10" ry="10"></rect><text x="216" y="643">dropRestContentSetStatement</text></g></g><path d="M350.75 639h21.25"></path></g><path d="M372 639a10 10 0 0 0 10 -10v-588a10 10 0 0 1 10 -10"></path><path d="M40 31a10 10 0 0 1 10 10v626a10 10 0 0 0 10 10"></path><g><path d="M60 677h34"></path><g><path d="M94 677h10"></path><path d="M328 677h10"></path><g class="non-terminal "><path d="M104 677h0"></path><path d="M328 677h0"></path><rect x="104" y="666" width="224" height="22" rx="10" ry="10"></rect><text x="216" y="681">dropRestAuthAppStatement</text></g></g><path d="M338 677h34"></path></g><path d="M372 677a10 10 0 0 0 10 -10v-626a10 10 0 0 1 10 -10"></path><path d="M40 31a10 10 0 0 1 10 10v664a10 10 0 0 0 10 10"></path><g><path d="M60 715h46.75"></path><g><path d="M106.75 715h10"></path><path d="M315.25 715h10"></path><g class="non-terminal "><path d="M116.75 715h0"></path><path d="M315.25 715h0"></path><rect x="116.75" y="704" width="198.5" height="22" rx="10" ry="10"></rect><text x="216" y="719">dropRestUserStatement</text></g></g><path d="M325.25 715h46.75"></path></g><path d="M372 715a10 10 0 0 0 10 -10v-664a10 10 0 0 1 10 -10"></path><path d="M40 31a10 10 0 0 1 10 10v702a10 10 0 0 0 10 10"></path><g><path d="M60 753h85"></path><g><path d="M145 753h10"></path><path d="M277 753h10"></path><g class="non-terminal "><path d="M155 753h0"></path><path d="M277 753h0"></path><rect x="155" y="742" width="122" height="22" rx="10" ry="10"></rect><text x="216" y="757">useStatement</text></g></g><path d="M287 753h85"></path></g><path d="M372 753a10 10 0 0 0 10 -10v-702a10 10 0 0 1 10 -10"></path><path d="M40 31a10 10 0 0 1 10 10v740a10 10 0 0 0 10 10"></path><g><path d="M60 791h4.25"></path><g><path d="M64.25 791h10"></path><path d="M357.75 791h10"></path><g class="non-terminal "><path d="M74.25 791h0"></path><path d="M357.75 791h0"></path><rect x="74.25" y="780" width="283.5" height="22" rx="10" ry="10"></rect><text x="216" y="795">showRestMetadataStatusStatement</text></g></g><path d="M367.75 791h4.25"></path></g><path d="M372 791a10 10 0 0 0 10 -10v-740a10 10 0 0 1 10 -10"></path><path d="M40 31a10 10 0 0 1 10 10v778a10 10 0 0 0 10 10"></path><g><path d="M60 829h29.75"></path><g><path d="M89.75 829h10"></path><path d="M332.25 829h10"></path><g class="non-terminal "><path d="M99.75 829h0"></path><path d="M332.25 829h0"></path><rect x="99.75" y="818" width="232.5" height="22" rx="10" ry="10"></rect><text x="216" y="833">showRestServicesStatement</text></g></g><path d="M342.25 829h29.75"></path></g><path d="M372 829a10 10 0 0 0 10 -10v-778a10 10 0 0 1 10 -10"></path><path d="M40 31a10 10 0 0 1 10 10v816a10 10 0 0 0 10 10"></path><g><path d="M60 867h34"></path><g><path d="M94 867h10"></path><path d="M328 867h10"></path><g class="non-terminal "><path d="M104 867h0"></path><path d="M328 867h0"></path><rect x="104" y="856" width="224" height="22" rx="10" ry="10"></rect><text x="216" y="871">showRestSchemasStatement</text></g></g><path d="M338 867h34"></path></g><path d="M372 867a10 10 0 0 0 10 -10v-816a10 10 0 0 1 10 -10"></path><path d="M40 31a10 10 0 0 1 10 10v854a10 10 0 0 0 10 10"></path><g><path d="M60 905h42.5"></path><g><path d="M102.5 905h10"></path><path d="M319.5 905h10"></path><g class="non-terminal "><path d="M112.5 905h0"></path><path d="M319.5 905h0"></path><rect x="112.5" y="894" width="207" height="22" rx="10" ry="10"></rect><text x="216" y="909">showRestViewsStatement</text></g></g><path d="M329.5 905h42.5"></path></g><path d="M372 905a10 10 0 0 0 10 -10v-854a10 10 0 0 1 10 -10"></path><path d="M40 31a10 10 0 0 1 10 10v892a10 10 0 0 0 10 10"></path><g><path d="M60 943h21.25"></path><g><path d="M81.25 943h10"></path><path d="M340.75 943h10"></path><g class="non-terminal "><path d="M91.25 943h0"></path><path d="M340.75 943h0"></path><rect x="91.25" y="932" width="249.5" height="22" rx="10" ry="10"></rect><text x="216" y="947">showRestProceduresStatement</text></g></g><path d="M350.75 943h21.25"></path></g><path d="M372 943a10 10 0 0 0 10 -10v-892a10 10 0 0 1 10 -10"></path><path d="M40 31a10 10 0 0 1 10 10v930a10 10 0 0 0 10 10"></path><g><path d="M60 981h17"></path><g><path d="M77 981h10"></path><path d="M345 981h10"></path><g class="non-terminal "><path d="M87 981h0"></path><path d="M345 981h0"></path><rect x="87" y="970" width="258" height="22" rx="10" ry="10"></rect><text x="216" y="985">showRestContentSetsStatement</text></g></g><path d="M355 981h17"></path></g><path d="M372 981a10 10 0 0 0 10 -10v-930a10 10 0 0 1 10 -10"></path><path d="M40 31a10 10 0 0 1 10 10v968a10 10 0 0 0 10 10"></path><g><path d="M60 1019h29.75"></path><g><path d="M89.75 1019h10"></path><path d="M332.25 1019h10"></path><g class="non-terminal "><path d="M99.75 1019h0"></path><path d="M332.25 1019h0"></path><rect x="99.75" y="1008" width="232.5" height="22" rx="10" ry="10"></rect><text x="216" y="1023">showRestAuthAppsStatement</text></g></g><path d="M342.25 1019h29.75"></path></g><path d="M372 1019a10 10 0 0 0 10 -10v-968a10 10 0 0 1 10 -10"></path><path d="M40 31a10 10 0 0 1 10 10v1006a10 10 0 0 0 10 10"></path><g><path d="M60 1057h8.5"></path><g><path d="M68.5 1057h10"></path><path d="M353.5 1057h10"></path><g class="non-terminal "><path d="M78.5 1057h0"></path><path d="M353.5 1057h0"></path><rect x="78.5" y="1046" width="275" height="22" rx="10" ry="10"></rect><text x="216" y="1061">showCreateRestServiceStatement</text></g></g><path d="M363.5 1057h8.5"></path></g><path d="M372 1057a10 10 0 0 0 10 -10v-1006a10 10 0 0 1 10 -10"></path><path d="M40 31a10 10 0 0 1 10 10v1044a10 10 0 0 0 10 10"></path><g><path d="M60 1095h12.75"></path><g><path d="M72.75 1095h10"></path><path d="M349.25 1095h10"></path><g class="non-terminal "><path d="M82.75 1095h0"></path><path d="M349.25 1095h0"></path><rect x="82.75" y="1084" width="266.5" height="22" rx="10" ry="10"></rect><text x="216" y="1099">showCreateRestSchemaStatement</text></g></g><path d="M359.25 1095h12.75"></path></g><path d="M372 1095a10 10 0 0 0 10 -10v-1044a10 10 0 0 1 10 -10"></path><path d="M40 31a10 10 0 0 1 10 10v1082a10 10 0 0 0 10 10"></path><g><path d="M60 1133h21.25"></path><g><path d="M81.25 1133h10"></path><path d="M340.75 1133h10"></path><g class="non-terminal "><path d="M91.25 1133h0"></path><path d="M340.75 1133h0"></path><rect x="91.25" y="1122" width="249.5" height="22" rx="10" ry="10"></rect><text x="216" y="1137">showCreateRestViewStatement</text></g></g><path d="M350.75 1133h21.25"></path></g><path d="M372 1133a10 10 0 0 0 10 -10v-1082a10 10 0 0 1 10 -10"></path><path d="M40 31a10 10 0 0 1 10 10v1120a10 10 0 0 0 10 10"></path><g><path d="M60 1171h0"></path><g><path d="M60 1171h10"></path><path d="M362 1171h10"></path><g class="non-terminal "><path d="M70 1171h0"></path><path d="M362 1171h0"></path><rect x="70" y="1160" width="292" height="22" rx="10" ry="10"></rect><text x="216" y="1175">showCreateRestProcedureStatement</text></g></g><path d="M372 1171h0"></path></g><path d="M372 1171a10 10 0 0 0 10 -10v-1120a10 10 0 0 1 10 -10"></path><path d="M40 31a10 10 0 0 1 10 10v1158a10 10 0 0 0 10 10"></path><g><path d="M60 1209h8.5"></path><g><path d="M68.5 1209h10"></path><path d="M353.5 1209h10"></path><g class="non-terminal "><path d="M78.5 1209h0"></path><path d="M353.5 1209h0"></path><rect x="78.5" y="1198" width="275" height="22" rx="10" ry="10"></rect><text x="216" y="1213">showCreateRestAuthAppStatement</text></g></g><path d="M363.5 1209h8.5"></path></g><path d="M372 1209a10 10 0 0 0 10 -10v-1158a10 10 0 0 1 10 -10"></path></g><path d="M 392 31 h 20 m 0 -10 v 20"></path></g><defs><style type="text/css"><![CDATA[
svg.railroad-diagram path { stroke-width: 2; stroke: darkgray; fill: rgba(0, 0, 0, 0); }svg.railroad-diagram text { font: bold 12px Hack, "Source Code Pro", monospace; text-anchor: middle; fill: #404040; }svg.railroad-diagram text.comment { font: italic 10px Hack, "Source Code Pro", monospace; fill: #404040; }svg.railroad-diagram g.terminal rect { stroke-width: 2; stroke: #404040; fill: rgba(200, 200, 200, 0.8); }svg.railroad-diagram g.non-terminal rect { stroke-width: 2; stroke: #404040; fill: rgba(255, 255, 255, 1); }svg.railroad-diagram text.diagram-text { font-size: 12px Hack, "Source Code Pro", monospace; fill: red; }svg.railroad-diagram path.diagram-text { stroke-width: 1; stroke: red; fill: red; cursor: help; }
 ]]>
</style></defs></svg>