<?xml version="1.0" encoding="UTF-8" standalone="no"?>
<!DOCTYPE svg PUBLIC "-//W3C//DTD SVG 1.1//EN" "http://www.w3.org/Graphics/SVG/1.1/DTD/svg11.dtd">
<svg class="railroad-diagram" width="558" height="131" viewBox="0 0 558 131" xmlns="http://www.w3.org/2000/svg" xmlns:xlink="http://www.w3.org/1999/xlink"><g transform="translate(.5 .5)"><g><path d="M20 21v20m0 -10h20"></path></g><g><path d="M40 31h0"></path><path d="M518 101h0"></path><path d="M40 31h20"></path><g><path d="M60 31h0"></path><path d="M60 31h10"></path><g><path d="M70 31h0"></path><path d="M368 31h120"></path><g class="terminal "><path d="M70 31h0"></path><path d="M192 31h0"></path><rect x="70" y="20" width="122" height="22"></rect><text x="131" y="35">DIV_OPERATOR</text></g><path d="M192 31h10"></path><path d="M202 31h10"></path><g class="non-terminal "><path d="M212 31h0"></path><path d="M368 31h0"></path><rect x="212" y="20" width="156" height="22" rx="10" ry="10"></rect><text x="290" y="35">dottedIdentifier</text></g></g><path d="M488 31a10 10 0 0 1 10 10v7a10 10 0 0 1 -10 10h-418a10 10 0 0 0 -10 10v23a10 10 0 0 0 10 10"></path><g><path d="M70 101h0"></path><path d="M468 101h20"></path><g><path d="M70 101h0"></path><path d="M468 101h0"></path><path d="M70 101a10 10 0 0 0 10 -10v-7a10 10 0 0 1 10 -10"></path><g><path d="M90 74h358"></path></g><path d="M448 74a10 10 0 0 1 10 10v7a10 10 0 0 0 10 10"></path><path d="M70 101h20"></path><g><path d="M90 101h0"></path><path d="M448 101h0"></path><path d="M90 101h20"></path><g><path d="M110 101h0"></path><g><path d="M110 101h0"></path><path d="M408 101h20"></path><g class="terminal "><path d="M110 101h0"></path><path d="M232 101h0"></path><rect x="110" y="90" width="122" height="22"></rect><text x="171" y="105">DIV_OPERATOR</text></g><path d="M232 101h10"></path><path d="M242 101h10"></path><g class="non-terminal "><path d="M252 101h0"></path><path d="M408 101h0"></path><rect x="252" y="90" width="156" height="22" rx="10" ry="10"></rect><text x="330" y="105">dottedIdentifier</text></g></g><path d="M428 101h0"></path></g><path d="M428 101h20"></path></g><path d="M448 101h20"></path></g></g><path d="M488 101h10"></path><path d="M498 101h0"></path></g><path d="M498 101h20"></path></g><path d="M 518 101 h 20 m 0 -10 v 20"></path></g><defs><style type="text/css"><![CDATA[
svg.railroad-diagram path { stroke-width: 2; stroke: darkgray; fill: rgba(0, 0, 0, 0); }
svg.railroad-diagram text { font: bold 12px Hack, "Source Code Pro", monospace; text-anchor: middle; fill: #404040; }
svg.railroad-diagram text.comment { font: italic 10px Hack, "Source Code Pro", monospace; fill: #404040; }
svg.railroad-diagram g.terminal rect { stroke-width: 2; stroke: #404040; fill: rgba(200, 200, 200, 0.8); }
svg.railroad-diagram g.non-terminal rect { stroke-width: 2; stroke: #404040; fill: rgba(255, 255, 255, 1); }
svg.railroad-diagram text.diagram-text { font-size: 12px Hack, "Source Code Pro", monospace; fill: red; }
svg.railroad-diagram path.diagram-text { stroke-width: 1; stroke: red; fill: red; cursor: help; }
svg.railroad-diagram g.diagram-text:hover path.diagram-text { fill: #f00; } ]]></style></defs></svg>