<?xml version="1.0" encoding="UTF-8" standalone="no"?>
<!DOCTYPE svg PUBLIC "-//W3C//DTD SVG 1.1//EN" "http://www.w3.org/Graphics/SVG/1.1/DTD/svg11.dtd">
<svg class="railroad-diagram" width="503.5" height="344" viewBox="0 0 503.5 344" xmlns="http://www.w3.org/2000/svg" xmlns:xlink="http://www.w3.org/1999/xlink"><g transform="translate(.5 .5)"><g><path d="M20 21v20m0 -10h20"></path></g><g><path d="M40 31h0"></path><path d="M463.5 31h0"></path><path d="M40 31h20"></path><g><path d="M60 31h0"></path><g><path d="M60 31h0"></path><path d="M423.5 31h20"></path><g><path d="M60 31h0"></path><path d="M423.5 31h0"></path><path d="M60 31h10"></path><g><path d="M70 31h0"></path><path d="M413.5 31h0"></path><path d="M70 31h20"></path><g><path d="M90 31h0"></path><g><path d="M90 31h0"></path><path d="M237.5 31h20"></path><g class="non-terminal "><path d="M90 31h0"></path><path d="M237.5 31h0"></path><rect x="90" y="20" width="147.5" height="22" rx="10" ry="10"></rect><text x="163.75" y="35">enabledDisabled</text></g></g><path d="M257.5 31h136"></path></g><path d="M393.5 31h20"></path><path d="M70 31a10 10 0 0 1 10 10v18a10 10 0 0 0 10 10"></path><g><path d="M90 69h0"></path><g><path d="M90 69h0"></path><path d="M297 69h20"></path><g class="non-terminal "><path d="M90 69h0"></path><path d="M297 69h0"></path><rect x="90" y="58" width="207" height="22" rx="10" ry="10"></rect><text x="193.5" y="73">authenticationRequired</text></g></g><path d="M317 69h76.5"></path></g><path d="M393.5 69a10 10 0 0 0 10 -10v-18a10 10 0 0 1 10 -10"></path><path d="M70 31a10 10 0 0 1 10 10v56a10 10 0 0 0 10 10"></path><g><path d="M90 107h0"></path><g><path d="M90 107h0"></path><path d="M212 107h20"></path><g class="non-terminal "><path d="M90 107h0"></path><path d="M212 107h0"></path><rect x="90" y="96" width="122" height="22" rx="10" ry="10"></rect><text x="151" y="111">itemsPerPage</text></g></g><path d="M232 107h161.5"></path></g><path d="M393.5 107a10 10 0 0 0 10 -10v-56a10 10 0 0 1 10 -10"></path><path d="M70 31a10 10 0 0 1 10 10v94a10 10 0 0 0 10 10"></path><g><path d="M90 145h0"></path><g><path d="M90 145h0"></path><path d="M203.5 145h20"></path><g class="non-terminal "><path d="M90 145h0"></path><path d="M203.5 145h0"></path><rect x="90" y="134" width="113.5" height="22" rx="10" ry="10"></rect><text x="146.75" y="149">jsonOptions</text></g></g><path d="M223.5 145h170"></path></g><path d="M393.5 145a10 10 0 0 0 10 -10v-94a10 10 0 0 1 10 -10"></path><path d="M70 31a10 10 0 0 1 10 10v132a10 10 0 0 0 10 10"></path><g><path d="M90 183h0"></path><g><path d="M90 183h0"></path><path d="M178 183h20"></path><g class="non-terminal "><path d="M90 183h0"></path><path d="M178 183h0"></path><rect x="90" y="172" width="88" height="22" rx="10" ry="10"></rect><text x="134" y="187">comments</text></g></g><path d="M198 183h195.5"></path></g><path d="M393.5 183a10 10 0 0 0 10 -10v-132a10 10 0 0 1 10 -10"></path><path d="M70 31a10 10 0 0 1 10 10v170a10 10 0 0 0 10 10"></path><g><path d="M90 221h0"></path><g><path d="M90 221h0"></path><path d="M254.5 221h20"></path><g class="non-terminal "><path d="M90 221h0"></path><path d="M254.5 221h0"></path><rect x="90" y="210" width="164.5" height="22" rx="10" ry="10"></rect><text x="172.25" y="225">restViewMediaType</text></g></g><path d="M274.5 221h119"></path></g><path d="M393.5 221a10 10 0 0 0 10 -10v-170a10 10 0 0 1 10 -10"></path><path d="M70 31a10 10 0 0 1 10 10v208a10 10 0 0 0 10 10"></path><g><path d="M90 259h0"></path><g><path d="M90 259h0"></path><path d="M229 259h20"></path><g class="non-terminal "><path d="M90 259h0"></path><path d="M229 259h0"></path><rect x="90" y="248" width="139" height="22" rx="10" ry="10"></rect><text x="159.5" y="263">restViewFormat</text></g></g><path d="M249 259h144.5"></path></g><path d="M393.5 259a10 10 0 0 0 10 -10v-208a10 10 0 0 1 10 -10"></path><path d="M70 31a10 10 0 0 1 10 10v246a10 10 0 0 0 10 10"></path><g><path d="M90 297h0"></path><g><path d="M90 297h0"></path><path d="M373.5 297h20"></path><g class="non-terminal "><path d="M90 297h0"></path><path d="M373.5 297h0"></path><rect x="90" y="286" width="283.5" height="22" rx="10" ry="10"></rect><text x="231.75" y="301">restViewAuthenticationProcedure</text></g></g><path d="M393.5 297h0"></path></g><path d="M393.5 297a10 10 0 0 0 10 -10v-246a10 10 0 0 1 10 -10"></path></g><path d="M413.5 31h10"></path><path d="M70 31a10 10 0 0 0 -10 10v273a10 10 0 0 0 10 10"></path><g><path d="M70 324h343.5"></path></g><path d="M413.5 324a10 10 0 0 0 10 -10v-273a10 10 0 0 0 -10 -10"></path></g></g><path d="M443.5 31h0"></path></g><path d="M443.5 31h20"></path></g><path d="M 463.5 31 h 20 m 0 -10 v 20"></path></g><defs><style type="text/css"><![CDATA[
svg.railroad-diagram path { stroke-width: 2; stroke: darkgray; fill: rgba(0, 0, 0, 0); }
svg.railroad-diagram text { font: bold 12px Hack, "Source Code Pro", monospace; text-anchor: middle; fill: #404040; }
svg.railroad-diagram text.comment { font: italic 10px Hack, "Source Code Pro", monospace; fill: #404040; }
svg.railroad-diagram g.terminal rect { stroke-width: 2; stroke: #404040; fill: rgba(200, 200, 200, 0.8); }
svg.railroad-diagram g.non-terminal rect { stroke-width: 2; stroke: #404040; fill: rgba(255, 255, 255, 1); }
svg.railroad-diagram text.diagram-text { font-size: 12px Hack, "Source Code Pro", monospace; fill: red; }
svg.railroad-diagram path.diagram-text { stroke-width: 1; stroke: red; fill: red; cursor: help; }
svg.railroad-diagram g.diagram-text:hover path.diagram-text { fill: #f00; } ]]></style></defs></svg>