<?xml version="1.0" encoding="UTF-8" standalone="no"?>
<!DOCTYPE svg PUBLIC "-//W3C//DTD SVG 1.1//EN" "http://www.w3.org/Graphics/SVG/1.1/DTD/svg11.dtd">
<svg class="railroad-diagram" width="517" height="176" viewBox="0 0 517 176" xmlns="http://www.w3.org/2000/svg" xmlns:xlink="http://www.w3.org/1999/xlink"><g transform="translate(.5 .5)"><g><path d="M20 21v20m0 -10h20"></path></g><g><path d="M40 31h0"></path><path d="M477 31h0"></path><path d="M40 31h20"></path><g><path d="M60 31h0"></path><g><path d="M60 31h0"></path><path d="M437 31h20"></path><g class="terminal "><path d="M60 31h0"></path><path d="M148 31h0"></path><rect x="60" y="20" width="88" height="22"></rect><text x="104" y="35">PROTOCOL</text></g><path d="M148 31h10"></path><g><path d="M158 31h0"></path><path d="M437 31h0"></path><path d="M158 31h20"></path><g><path d="M178 31h0"></path><g><path d="M178 31h0"></path><path d="M232 31h20"></path><g class="terminal "><path d="M178 31h0"></path><path d="M232 31h0"></path><rect x="178" y="20" width="54" height="22"></rect><text x="205" y="35">HTTP</text></g></g><path d="M252 31h165"></path></g><path d="M417 31h20"></path><path d="M158 31a10 10 0 0 1 10 10v18a10 10 0 0 0 10 10"></path><g><path d="M178 69h0"></path><g><path d="M178 69h0"></path><path d="M240.5 69h20"></path><g class="terminal "><path d="M178 69h0"></path><path d="M240.5 69h0"></path><rect x="178" y="58" width="62.5" height="22"></rect><text x="209.25" y="73">HTTPS</text></g></g><path d="M260.5 69h156.5"></path></g><path d="M417 69a10 10 0 0 0 10 -10v-18a10 10 0 0 1 10 -10"></path><path d="M158 31a10 10 0 0 1 10 10v56a10 10 0 0 0 10 10"></path><g><path d="M178 107h0"></path><g><path d="M178 107h0"></path><path d="M397 107h20"></path><g class="terminal "><path d="M178 107h0"></path><path d="M232 107h0"></path><rect x="178" y="96" width="54" height="22"></rect><text x="205" y="111">HTTP</text></g><path d="M232 107h10"></path><path d="M242 107h10"></path><g class="terminal "><path d="M252 107h0"></path><path d="M314.5 107h0"></path><rect x="252" y="96" width="62.5" height="22"></rect><text x="283.25" y="111">COMMA</text></g><path d="M314.5 107h10"></path><path d="M324.5 107h10"></path><g class="terminal "><path d="M334.5 107h0"></path><path d="M397 107h0"></path><rect x="334.5" y="96" width="62.5" height="22"></rect><text x="365.75" y="111">HTTPS</text></g></g><path d="M417 107h0"></path></g><path d="M417 107a10 10 0 0 0 10 -10v-56a10 10 0 0 1 10 -10"></path><path d="M158 31a10 10 0 0 1 10 10v94a10 10 0 0 0 10 10"></path><g><path d="M178 145h0"></path><g><path d="M178 145h0"></path><path d="M397 145h20"></path><g class="terminal "><path d="M178 145h0"></path><path d="M240.5 145h0"></path><rect x="178" y="134" width="62.5" height="22"></rect><text x="209.25" y="149">HTTPS</text></g><path d="M240.5 145h10"></path><path d="M250.5 145h10"></path><g class="terminal "><path d="M260.5 145h0"></path><path d="M323 145h0"></path><rect x="260.5" y="134" width="62.5" height="22"></rect><text x="291.75" y="149">COMMA</text></g><path d="M323 145h10"></path><path d="M333 145h10"></path><g class="terminal "><path d="M343 145h0"></path><path d="M397 145h0"></path><rect x="343" y="134" width="54" height="22"></rect><text x="370" y="149">HTTP</text></g></g><path d="M417 145h0"></path></g><path d="M417 145a10 10 0 0 0 10 -10v-94a10 10 0 0 1 10 -10"></path></g></g><path d="M457 31h0"></path></g><path d="M457 31h20"></path></g><path d="M 477 31 h 20 m 0 -10 v 20"></path></g><defs><style type="text/css"><![CDATA[
svg.railroad-diagram path { stroke-width: 2; stroke: darkgray; fill: rgba(0, 0, 0, 0); }
svg.railroad-diagram text { font: bold 12px Hack, "Source Code Pro", monospace; text-anchor: middle; fill: #404040; }
svg.railroad-diagram text.comment { font: italic 10px Hack, "Source Code Pro", monospace; fill: #404040; }
svg.railroad-diagram g.terminal rect { stroke-width: 2; stroke: #404040; fill: rgba(200, 200, 200, 0.8); }
svg.railroad-diagram g.non-terminal rect { stroke-width: 2; stroke: #404040; fill: rgba(255, 255, 255, 1); }
svg.railroad-diagram text.diagram-text { font-size: 12px Hack, "Source Code Pro", monospace; fill: red; }
svg.railroad-diagram path.diagram-text { stroke-width: 1; stroke: red; fill: red; cursor: help; }
svg.railroad-diagram g.diagram-text:hover path.diagram-text { fill: #f00; } ]]></style></defs></svg>