<?xml version="1.0" encoding="UTF-8" standalone="no"?>
<!DOCTYPE svg PUBLIC "-//W3C//DTD SVG 1.1//EN" "http://www.w3.org/Graphics/SVG/1.1/DTD/svg11.dtd">
<svg class="railroad-diagram" width="276" height="122" viewBox="0 0 276 122" xmlns="http://www.w3.org/2000/svg" xmlns:xlink="http://www.w3.org/1999/xlink">
<g transform="translate(.5 .5)">
<g>
<path d="M20 21v20m10 -20v20m-10 -10h20"></path>
</g>
<g>
<path d="M40 31h0"></path>
<path d="M236 31h0"></path>
<path d="M40 31h20"></path>
<g class="terminal ">
<path d="M60 31h8"></path>
<path d="M208 31h8"></path>
<rect x="68" y="20" width="140" height="22" rx="10" ry="10"></rect>
<text x="138" y="35">enabledDisabled</text>
</g>
<path d="M216 31h20"></path>
<path d="M40 31a10 10 0 0 1 10 10v10a10 10 0 0 0 10 10"></path>
<g class="terminal ">
<path d="M60 61h24"></path>
<path d="M192 61h24"></path>
<rect x="84" y="50" width="108" height="22" rx="10" ry="10"></rect>
<text x="138" y="65">jsonOptions</text>
</g>
<path d="M216 61a10 10 0 0 0 10 -10v-10a10 10 0 0 1 10 -10"></path>
<path d="M40 31a10 10 0 0 1 10 10v40a10 10 0 0 0 10 10"></path>
<g class="terminal ">
<path d="M60 91h0"></path>
<path d="M216 91h0"></path>
<rect x="60" y="80" width="156" height="22" rx="10" ry="10"></rect>
<text x="138" y="95">updateIfAvailable</text>
</g>
<path d="M216 91a10 10 0 0 0 10 -10v-40a10 10 0 0 1 10 -10"></path>
</g>
<path d="M 236 31 h 20 m -10 -10 v 20 m 10 -20 v 20"></path>
</g>
<defs><style type="text/css"><![CDATA[
svg.railroad-diagram path { stroke-width: 2; stroke: darkgray; fill: rgba(0, 0, 0, 0); }
svg.railroad-diagram text { font: bold 12px Hack, "Source Code Pro", monospace; text-anchor: middle; fill: #404040; }
svg.railroad-diagram text.comment { font: italic 10px Hack, "Source Code Pro", monospace; fill: #404040; }
svg.railroad-diagram g.terminal rect { stroke-width: 2; stroke: #404040; fill: rgba(255, 255, 255, 1); }
svg.railroad-diagram g.non-terminal rect { stroke-width: 2; stroke: #404040; fill: rgba(200, 200, 200, 0.8); }
svg.railroad-diagram text.diagram-text { font-size: 12px Hack, "Source Code Pro", monospace; fill: red; }
svg.railroad-diagram path.diagram-text { stroke-width: 1; stroke: red; fill: red; cursor: help; }
svg.railroad-diagram g.diagram-text:hover path.diagram-text { fill: #f00; } ]]></style></defs></svg>