<?xml version="1.0" encoding="UTF-8" standalone="no"?>
<!DOCTYPE svg PUBLIC "-//W3C//DTD SVG 1.1//EN" "http://www.w3.org/Graphics/SVG/1.1/DTD/svg11.dtd">
<svg class="railroad-diagram" width="517" height="176" viewBox="0 0 517 176" id="restProtocol" xmlns="http://www.w3.org/2000/svg" xmlns:xlink="http://www.w3.org/1999/xlink"><g transform="translate(.5 .5)"><g><path d="M20 21v20m0 -10h20"></path></g><g><path d="M40 31h0"></path><path d="M477 31h0"></path><path d="M40 31h20"></path><g><path d="M60 31h0"></path><g><path d="M60 31h10"></path><path d="M447 31h10"></path><g class="terminal "><path d="M70 31h0"></path><path d="M158 31h0"></path><rect x="70" y="20" width="88" height="22"></rect><text x="114" y="35">PROTOCOL</text></g><path d="M158 31h10"></path><g><path d="M168 31h0"></path><path d="M447 31h0"></path><path d="M168 31h20"></path><g><path d="M188 31h82.5"></path><g><path d="M270.5 31h10"></path><path d="M334.5 31h10"></path><g class="terminal "><path d="M280.5 31h0"></path><path d="M334.5 31h0"></path><rect x="280.5" y="20" width="54" height="22"></rect><text x="307.5" y="35">HTTP</text></g></g><path d="M344.5 31h82.5"></path></g><path d="M427 31h20"></path><path d="M168 31a10 10 0 0 1 10 10v18a10 10 0 0 0 10 10"></path><g><path d="M188 69h78.25"></path><g><path d="M266.25 69h10"></path><path d="M338.75 69h10"></path><g class="terminal "><path d="M276.25 69h0"></path><path d="M338.75 69h0"></path><rect x="276.25" y="58" width="62.5" height="22"></rect><text x="307.5" y="73">HTTPS</text></g></g><path d="M348.75 69h78.25"></path></g><path d="M427 69a10 10 0 0 0 10 -10v-18a10 10 0 0 1 10 -10"></path><path d="M168 31a10 10 0 0 1 10 10v56a10 10 0 0 0 10 10"></path><g><path d="M188 107h0"></path><g><path d="M188 107h10"></path><path d="M417 107h10"></path><g class="terminal "><path d="M198 107h0"></path><path d="M252 107h0"></path><rect x="198" y="96" width="54" height="22"></rect><text x="225" y="111">HTTP</text></g><path d="M252 107h10"></path><path d="M262 107h10"></path><g class="terminal "><path d="M272 107h0"></path><path d="M334.5 107h0"></path><rect x="272" y="96" width="62.5" height="22"></rect><text x="303.25" y="111">COMMA</text></g><path d="M334.5 107h10"></path><path d="M344.5 107h10"></path><g class="terminal "><path d="M354.5 107h0"></path><path d="M417 107h0"></path><rect x="354.5" y="96" width="62.5" height="22"></rect><text x="385.75" y="111">HTTPS</text></g></g><path d="M427 107h0"></path></g><path d="M427 107a10 10 0 0 0 10 -10v-56a10 10 0 0 1 10 -10"></path><path d="M168 31a10 10 0 0 1 10 10v94a10 10 0 0 0 10 10"></path><g><path d="M188 145h0"></path><g><path d="M188 145h10"></path><path d="M417 145h10"></path><g class="terminal "><path d="M198 145h0"></path><path d="M260.5 145h0"></path><rect x="198" y="134" width="62.5" height="22"></rect><text x="229.25" y="149">HTTPS</text></g><path d="M260.5 145h10"></path><path d="M270.5 145h10"></path><g class="terminal "><path d="M280.5 145h0"></path><path d="M343 145h0"></path><rect x="280.5" y="134" width="62.5" height="22"></rect><text x="311.75" y="149">COMMA</text></g><path d="M343 145h10"></path><path d="M353 145h10"></path><g class="terminal "><path d="M363 145h0"></path><path d="M417 145h0"></path><rect x="363" y="134" width="54" height="22"></rect><text x="390" y="149">HTTP</text></g></g><path d="M427 145h0"></path></g><path d="M427 145a10 10 0 0 0 10 -10v-94a10 10 0 0 1 10 -10"></path></g></g><path d="M457 31h0"></path></g><path d="M457 31h20"></path></g><path d="M 477 31 h 20 m 0 -10 v 20"></path></g><defs><style type="text/css"><![CDATA[
svg.railroad-diagram path { stroke-width: 2; stroke: darkgray; fill: rgba(0, 0, 0, 0); }svg.railroad-diagram text { font: bold 12px Hack, "Source Code Pro", monospace; text-anchor: middle; fill: #404040; }svg.railroad-diagram text.comment { font: italic 10px Hack, "Source Code Pro", monospace; fill: #404040; }svg.railroad-diagram g.terminal rect { stroke-width: 2; stroke: #404040; fill: rgba(200, 200, 200, 0.8); }svg.railroad-diagram g.non-terminal rect { stroke-width: 2; stroke: #404040; fill: rgba(255, 255, 255, 1); }svg.railroad-diagram text.diagram-text { font-size: 12px Hack, "Source Code Pro", monospace; fill: red; }svg.railroad-diagram path.diagram-text { stroke-width: 1; stroke: red; fill: red; cursor: help; }
 ]]>
</style></defs></svg>