<?xml version="1.0" encoding="UTF-8" standalone="no"?>
<!DOCTYPE svg PUBLIC "-//W3C//DTD SVG 1.1//EN" "http://www.w3.org/Graphics/SVG/1.1/DTD/svg11.dtd">
<svg class="railroad-diagram" width="367.5" height="192" viewBox="0 0 367.5 192" id="restAuthAppOptions" xmlns="http://www.w3.org/2000/svg" xmlns:xlink="http://www.w3.org/1999/xlink"><g transform="translate(.5 .5)"><g><path d="M20 21v20m0 -10h20"></path></g><g><path d="M40 31h0"></path><path d="M327.5 31h0"></path><path d="M40 31h20"></path><g><path d="M60 31h0"></path><g><path d="M60 31h10"></path><path d="M297.5 31h10"></path><g><path d="M70 31h0"></path><path d="M297.5 31h0"></path><path d="M70 31h10"></path><g><path d="M80 31h0"></path><path d="M287.5 31h0"></path><path d="M80 31h20"></path><g><path d="M100 31h0"></path><g><path d="M100 31h10"></path><path d="M257.5 31h10"></path><g class="non-terminal "><path d="M110 31h0"></path><path d="M257.5 31h0"></path><rect x="110" y="20" width="147.5" height="22" rx="10" ry="10"></rect><text x="183.75" y="35">enabledDisabled</text></g></g><path d="M267.5 31h0"></path></g><path d="M267.5 31h20"></path><path d="M80 31a10 10 0 0 1 10 10v18a10 10 0 0 0 10 10"></path><g><path d="M100 69h29.75"></path><g><path d="M129.75 69h10"></path><path d="M227.75 69h10"></path><g class="non-terminal "><path d="M139.75 69h0"></path><path d="M227.75 69h0"></path><rect x="139.75" y="58" width="88" height="22" rx="10" ry="10"></rect><text x="183.75" y="73">comments</text></g></g><path d="M237.75 69h29.75"></path></g><path d="M267.5 69a10 10 0 0 0 10 -10v-18a10 10 0 0 1 10 -10"></path><path d="M80 31a10 10 0 0 1 10 10v56a10 10 0 0 0 10 10"></path><g><path d="M100 107h21.25"></path><g><path d="M121.25 107h10"></path><path d="M236.25 107h10"></path><g class="non-terminal "><path d="M131.25 107h0"></path><path d="M236.25 107h0"></path><rect x="131.25" y="96" width="105" height="22" rx="10" ry="10"></rect><text x="183.75" y="111">limitUsers</text></g></g><path d="M246.25 107h21.25"></path></g><path d="M267.5 107a10 10 0 0 0 10 -10v-56a10 10 0 0 1 10 -10"></path><path d="M80 31a10 10 0 0 1 10 10v94a10 10 0 0 0 10 10"></path><g><path d="M100 145h17"></path><g><path d="M117 145h10"></path><path d="M240.5 145h10"></path><g class="non-terminal "><path d="M127 145h0"></path><path d="M240.5 145h0"></path><rect x="127" y="134" width="113.5" height="22" rx="10" ry="10"></rect><text x="183.75" y="149">defaultRole</text></g></g><path d="M250.5 145h17"></path></g><path d="M267.5 145a10 10 0 0 0 10 -10v-94a10 10 0 0 1 10 -10"></path></g><path d="M287.5 31h10"></path><path d="M80 31a10 10 0 0 0 -10 10v121a10 10 0 0 0 10 10"></path><g><path d="M80 172h207.5"></path></g><path d="M287.5 172a10 10 0 0 0 10 -10v-121a10 10 0 0 0 -10 -10"></path></g></g><path d="M307.5 31h0"></path></g><path d="M307.5 31h20"></path></g><path d="M 327.5 31 h 20 m 0 -10 v 20"></path></g><defs><style type="text/css"><![CDATA[
svg.railroad-diagram path { stroke-width: 2; stroke: darkgray; fill: rgba(0, 0, 0, 0); }svg.railroad-diagram text { font: bold 12px Hack, "Source Code Pro", monospace; text-anchor: middle; fill: #404040; }svg.railroad-diagram text.comment { font: italic 10px Hack, "Source Code Pro", monospace; fill: #404040; }svg.railroad-diagram g.terminal rect { stroke-width: 2; stroke: #404040; fill: rgba(200, 200, 200, 0.8); }svg.railroad-diagram g.non-terminal rect { stroke-width: 2; stroke: #404040; fill: rgba(255, 255, 255, 1); }svg.railroad-diagram text.diagram-text { font-size: 12px Hack, "Source Code Pro", monospace; fill: red; }svg.railroad-diagram path.diagram-text { stroke-width: 1; stroke: red; fill: red; cursor: help; }
 ]]>
</style></defs></svg>