<?xml version="1.0" encoding="UTF-8" standalone="no"?>
<!DOCTYPE svg PUBLIC "-//W3C//DTD SVG 1.1//EN" "http://www.w3.org/Graphics/SVG/1.1/DTD/svg11.dtd">
<svg class="railroad-diagram" width="556.5" height="208" viewBox="0 0 556.5 208" xmlns="http://www.w3.org/2000/svg" xmlns:xlink="http://www.w3.org/1999/xlink"><g transform="translate(.5 .5)"><g><path d="M20 37v20m0 -10h20"></path></g><g><path d="M40 47h0"></path><path d="M516.5 47h0"></path><path d="M40 47h20"></path><g><path d="M60 47h0"></path><g><path d="M60 47h0"></path><path d="M476.5 47h20"></path><g class="terminal "><path d="M60 47h0"></path><path d="M199 47h0"></path><rect x="60" y="36" width="139" height="22"></rect><text x="129.5" y="51">AUTHENTICATION</text></g><path d="M199 47h10"></path><g><path d="M209 47h0"></path><path d="M476.5 47h0"></path><path d="M209 47a10 10 0 0 0 10 -10v-7a10 10 0 0 1 10 -10"></path><g><path d="M229 20h227.5"></path></g><path d="M456.5 20a10 10 0 0 1 10 10v7a10 10 0 0 0 10 10"></path><path d="M209 47h20"></path><g><path d="M229 47h0"></path><path d="M456.5 47h0"></path><path d="M229 47h10"></path><g><path d="M239 47h0"></path><path d="M446.5 47h0"></path><path d="M239 47h20"></path><g><path d="M259 47h0"></path><g><path d="M259 47h0"></path><path d="M347 47h20"></path><g class="non-terminal "><path d="M259 47h0"></path><path d="M347 47h0"></path><rect x="259" y="36" width="88" height="22" rx="10" ry="10"></rect><text x="303" y="51">authPath</text></g></g><path d="M367 47h59.5"></path></g><path d="M426.5 47h20"></path><path d="M239 47a10 10 0 0 1 10 10v18a10 10 0 0 0 10 10"></path><g><path d="M259 85h0"></path><g><path d="M259 85h0"></path><path d="M406.5 85h20"></path><g class="non-terminal "><path d="M259 85h0"></path><path d="M406.5 85h0"></path><rect x="259" y="74" width="147.5" height="22" rx="10" ry="10"></rect><text x="332.75" y="89">authRedirection</text></g></g><path d="M426.5 85h0"></path></g><path d="M426.5 85a10 10 0 0 0 10 -10v-18a10 10 0 0 1 10 -10"></path><path d="M239 47a10 10 0 0 1 10 10v56a10 10 0 0 0 10 10"></path><g><path d="M259 123h0"></path><g><path d="M259 123h0"></path><path d="M398 123h20"></path><g class="non-terminal "><path d="M259 123h0"></path><path d="M398 123h0"></path><rect x="259" y="112" width="139" height="22" rx="10" ry="10"></rect><text x="328.5" y="127">authValidation</text></g></g><path d="M418 123h8.5"></path></g><path d="M426.5 123a10 10 0 0 0 10 -10v-56a10 10 0 0 1 10 -10"></path><path d="M239 47a10 10 0 0 1 10 10v94a10 10 0 0 0 10 10"></path><g><path d="M259 161h0"></path><g><path d="M259 161h0"></path><path d="M406.5 161h20"></path><g class="non-terminal "><path d="M259 161h0"></path><path d="M406.5 161h0"></path><rect x="259" y="150" width="147.5" height="22" rx="10" ry="10"></rect><text x="332.75" y="165">authPageContent</text></g></g><path d="M426.5 161h0"></path></g><path d="M426.5 161a10 10 0 0 0 10 -10v-94a10 10 0 0 1 10 -10"></path></g><path d="M446.5 47h10"></path><path d="M239 47a10 10 0 0 0 -10 10v121a10 10 0 0 0 10 10"></path><g><path d="M239 188h207.5"></path></g><path d="M446.5 188a10 10 0 0 0 10 -10v-121a10 10 0 0 0 -10 -10"></path></g><path d="M456.5 47h20"></path></g></g><path d="M496.5 47h0"></path></g><path d="M496.5 47h20"></path></g><path d="M 516.5 47 h 20 m 0 -10 v 20"></path></g><defs><style type="text/css"><![CDATA[
svg.railroad-diagram path { stroke-width: 2; stroke: darkgray; fill: rgba(0, 0, 0, 0); }
svg.railroad-diagram text { font: bold 12px Hack, "Source Code Pro", monospace; text-anchor: middle; fill: #404040; }
svg.railroad-diagram text.comment { font: italic 10px Hack, "Source Code Pro", monospace; fill: #404040; }
svg.railroad-diagram g.terminal rect { stroke-width: 2; stroke: #404040; fill: rgba(200, 200, 200, 0.8); }
svg.railroad-diagram g.non-terminal rect { stroke-width: 2; stroke: #404040; fill: rgba(255, 255, 255, 1); }
svg.railroad-diagram text.diagram-text { font-size: 12px Hack, "Source Code Pro", monospace; fill: red; }
svg.railroad-diagram path.diagram-text { stroke-width: 1; stroke: red; fill: red; cursor: help; }
svg.railroad-diagram g.diagram-text:hover path.diagram-text { fill: #f00; } ]]></style></defs></svg>