<?xml version="1.0" encoding="UTF-8" standalone="no"?>
<!DOCTYPE svg PUBLIC "-//W3C//DTD SVG 1.1//EN" "http://www.w3.org/Graphics/SVG/1.1/DTD/svg11.dtd">
<svg class="railroad-diagram" width="384.5" height="154" viewBox="0 0 384.5 154" xmlns="http://www.w3.org/2000/svg" xmlns:xlink="http://www.w3.org/1999/xlink"><g transform="translate(.5 .5)"><g><path d="M20 21v20m0 -10h20"></path></g><g><path d="M40 31h0"></path><path d="M344.5 31h0"></path><path d="M40 31h20"></path><g><path d="M60 31h0"></path><g><path d="M60 31h0"></path><path d="M304.5 31h20"></path><g><path d="M60 31h0"></path><path d="M304.5 31h0"></path><path d="M60 31h10"></path><g><path d="M70 31h0"></path><path d="M294.5 31h0"></path><path d="M70 31h20"></path><g><path d="M90 31h0"></path><g><path d="M90 31h0"></path><path d="M237.5 31h20"></path><g class="non-terminal "><path d="M90 31h0"></path><path d="M237.5 31h0"></path><rect x="90" y="20" width="147.5" height="22" rx="10" ry="10"></rect><text x="163.75" y="35">enabledDisabled</text></g></g><path d="M257.5 31h17"></path></g><path d="M274.5 31h20"></path><path d="M70 31a10 10 0 0 1 10 10v18a10 10 0 0 0 10 10"></path><g><path d="M90 69h0"></path><g><path d="M90 69h0"></path><path d="M203.5 69h20"></path><g class="non-terminal "><path d="M90 69h0"></path><path d="M203.5 69h0"></path><rect x="90" y="58" width="113.5" height="22" rx="10" ry="10"></rect><text x="146.75" y="73">jsonOptions</text></g></g><path d="M223.5 69h51"></path></g><path d="M274.5 69a10 10 0 0 0 10 -10v-18a10 10 0 0 1 10 -10"></path><path d="M70 31a10 10 0 0 1 10 10v56a10 10 0 0 0 10 10"></path><g><path d="M90 107h0"></path><g><path d="M90 107h0"></path><path d="M254.5 107h20"></path><g class="non-terminal "><path d="M90 107h0"></path><path d="M254.5 107h0"></path><rect x="90" y="96" width="164.5" height="22" rx="10" ry="10"></rect><text x="172.25" y="111">updateIfAvailable</text></g></g><path d="M274.5 107h0"></path></g><path d="M274.5 107a10 10 0 0 0 10 -10v-56a10 10 0 0 1 10 -10"></path></g><path d="M294.5 31h10"></path><path d="M70 31a10 10 0 0 0 -10 10v83a10 10 0 0 0 10 10"></path><g><path d="M70 134h224.5"></path></g><path d="M294.5 134a10 10 0 0 0 10 -10v-83a10 10 0 0 0 -10 -10"></path></g></g><path d="M324.5 31h0"></path></g><path d="M324.5 31h20"></path></g><path d="M 344.5 31 h 20 m 0 -10 v 20"></path></g><defs><style type="text/css"><![CDATA[
svg.railroad-diagram path { stroke-width: 2; stroke: darkgray; fill: rgba(0, 0, 0, 0); }
svg.railroad-diagram text { font: bold 12px Hack, "Source Code Pro", monospace; text-anchor: middle; fill: #404040; }
svg.railroad-diagram text.comment { font: italic 10px Hack, "Source Code Pro", monospace; fill: #404040; }
svg.railroad-diagram g.terminal rect { stroke-width: 2; stroke: #404040; fill: rgba(200, 200, 200, 0.8); }
svg.railroad-diagram g.non-terminal rect { stroke-width: 2; stroke: #404040; fill: rgba(255, 255, 255, 1); }
svg.railroad-diagram text.diagram-text { font-size: 12px Hack, "Source Code Pro", monospace; fill: red; }
svg.railroad-diagram path.diagram-text { stroke-width: 1; stroke: red; fill: red; cursor: help; }
svg.railroad-diagram g.diagram-text:hover path.diagram-text { fill: #f00; } ]]></style></defs></svg>