<?xml version="1.0" encoding="UTF-8" standalone="no"?>
<!DOCTYPE svg PUBLIC "-//W3C//DTD SVG 1.1//EN" "http://www.w3.org/Graphics/SVG/1.1/DTD/svg11.dtd">
<svg class="railroad-diagram" width="622" height="152" viewBox="0 0 622 152" xmlns="http://www.w3.org/2000/svg" xmlns:xlink="http://www.w3.org/1999/xlink">
<g transform="translate(.5 .5)">
<g>
<path d="M20 21v20m10 -20v20m-10 -10h20"></path>
</g>
<path d="M40 31h10"></path>
<g>
<path d="M50 31h0"></path>
<path d="M572 31h0"></path>
<g class="non-terminal ">
<path d="M50 31h0"></path>
<path d="M182 31h0"></path>
<rect x="50" y="20" width="132" height="22"></rect>
<text x="116" y="35">AUTHENTICATION</text>
</g>
<path d="M182 31h10"></path>
<g>
<path d="M192 31h0"></path>
<path d="M572 31h0"></path>
<path d="M192 31h20"></path>
<g>
<path d="M212 31h0"></path>
<path d="M456 31h96"></path>
<g class="non-terminal ">
<path d="M212 31h0"></path>
<path d="M264 31h0"></path>
<rect x="212" y="20" width="52" height="22"></rect>
<text x="238" y="35">PATH</text>
</g>
<path d="M264 31h10"></path>
<path d="M274 31h10"></path>
<g class="terminal ">
<path d="M284 31h0"></path>
<path d="M456 31h0"></path>
<rect x="284" y="20" width="172" height="22" rx="10" ry="10"></rect>
<text x="370" y="35">quotedTextOrDEFAULT</text>
</g>
</g>
<path d="M552 31h20"></path>
<path d="M192 31a10 10 0 0 1 10 10v10a10 10 0 0 0 10 10"></path>
<g>
<path d="M212 61h0"></path>
<path d="M512 61h40"></path>
<g class="non-terminal ">
<path d="M212 61h0"></path>
<path d="M320 61h0"></path>
<rect x="212" y="50" width="108" height="22"></rect>
<text x="266" y="65">REDIRECTION</text>
</g>
<path d="M320 61h10"></path>
<path d="M330 61h10"></path>
<g class="terminal ">
<path d="M340 61h0"></path>
<path d="M512 61h0"></path>
<rect x="340" y="50" width="172" height="22" rx="10" ry="10"></rect>
<text x="426" y="65">quotedTextOrDEFAULT</text>
</g>
</g>
<path d="M552 61a10 10 0 0 0 10 -10v-10a10 10 0 0 1 10 -10"></path>
<path d="M192 31a10 10 0 0 1 10 10v40a10 10 0 0 0 10 10"></path>
<g>
<path d="M212 91h0"></path>
<path d="M504 91h48"></path>
<g class="non-terminal ">
<path d="M212 91h0"></path>
<path d="M312 91h0"></path>
<rect x="212" y="80" width="100" height="22"></rect>
<text x="262" y="95">VALIDATION</text>
</g>
<path d="M312 91h10"></path>
<path d="M322 91h10"></path>
<g class="terminal ">
<path d="M332 91h0"></path>
<path d="M504 91h0"></path>
<rect x="332" y="80" width="172" height="22" rx="10" ry="10"></rect>
<text x="418" y="95">quotedTextOrDEFAULT</text>
</g>
</g>
<path d="M552 91a10 10 0 0 0 10 -10v-40a10 10 0 0 1 10 -10"></path>
<path d="M192 31a10 10 0 0 1 10 10v70a10 10 0 0 0 10 10"></path>
<g>
<path d="M212 121h0"></path>
<path d="M552 121h0"></path>
<g class="non-terminal ">
<path d="M212 121h0"></path>
<path d="M264 121h0"></path>
<rect x="212" y="110" width="52" height="22"></rect>
<text x="238" y="125">PAGE</text>
</g>
<path d="M264 121h10"></path>
<path d="M274 121h10"></path>
<g class="non-terminal ">
<path d="M284 121h0"></path>
<path d="M360 121h0"></path>
<rect x="284" y="110" width="76" height="22"></rect>
<text x="322" y="125">CONTENT</text>
</g>
<path d="M360 121h10"></path>
<path d="M370 121h10"></path>
<g class="terminal ">
<path d="M380 121h0"></path>
<path d="M552 121h0"></path>
<rect x="380" y="110" width="172" height="22" rx="10" ry="10"></rect>
<text x="466" y="125">quotedTextOrDEFAULT</text>
</g>
</g>
<path d="M552 121a10 10 0 0 0 10 -10v-70a10 10 0 0 1 10 -10"></path>
</g>
</g>
<path d="M572 31h10"></path>
<path d="M 582 31 h 20 m -10 -10 v 20 m 10 -20 v 20"></path>
</g>
<defs><style type="text/css"><![CDATA[
svg.railroad-diagram path { stroke-width: 2; stroke: darkgray; fill: rgba(0, 0, 0, 0); }
svg.railroad-diagram text { font: bold 12px Hack, "Source Code Pro", monospace; text-anchor: middle; fill: #404040; }
svg.railroad-diagram text.comment { font: italic 10px Hack, "Source Code Pro", monospace; fill: #404040; }
svg.railroad-diagram g.terminal rect { stroke-width: 2; stroke: #404040; fill: rgba(255, 255, 255, 1); }
svg.railroad-diagram g.non-terminal rect { stroke-width: 2; stroke: #404040; fill: rgba(200, 200, 200, 0.8); }
svg.railroad-diagram text.diagram-text { font-size: 12px Hack, "Source Code Pro", monospace; fill: red; }
svg.railroad-diagram path.diagram-text { stroke-width: 1; stroke: red; fill: red; cursor: help; }
svg.railroad-diagram g.diagram-text:hover path.diagram-text { fill: #f00; } ]]></style></defs></svg>