<?xml version="1.0" encoding="UTF-8" standalone="no"?>
<!DOCTYPE svg PUBLIC "-//W3C//DTD SVG 1.1//EN" "http://www.w3.org/Graphics/SVG/1.1/DTD/svg11.dtd">
<svg class="railroad-diagram" width="343.5" height="138" viewBox="0 0 343.5 138" xmlns="http://www.w3.org/2000/svg" xmlns:xlink="http://www.w3.org/1999/xlink"><g transform="translate(.5 .5)"><g><path d="M20 21v20m0 -10h20"></path></g><g><path d="M40 31h0"></path><path d="M303.5 31h0"></path><path d="M40 31h20"></path><g><path d="M60 31h0"></path><g><path d="M60 31h0"></path><path d="M263.5 31h20"></path><g class="terminal "><path d="M60 31h0"></path><path d="M131 31h0"></path><rect x="60" y="20" width="71" height="22"></rect><text x="95.5" y="35">FORMAT</text></g><path d="M131 31h10"></path><g><path d="M141 31h0"></path><path d="M263.5 31h0"></path><path d="M141 31h20"></path><g><path d="M161 31h0"></path><g><path d="M161 31h0"></path><path d="M215 31h20"></path><g class="terminal "><path d="M161 31h0"></path><path d="M215 31h0"></path><rect x="161" y="20" width="54" height="22"></rect><text x="188" y="35">FEED</text></g></g><path d="M235 31h8.5"></path></g><path d="M243.5 31h20"></path><path d="M141 31a10 10 0 0 1 10 10v18a10 10 0 0 0 10 10"></path><g><path d="M161 69h0"></path><g><path d="M161 69h0"></path><path d="M215 69h20"></path><g class="terminal "><path d="M161 69h0"></path><path d="M215 69h0"></path><rect x="161" y="58" width="54" height="22"></rect><text x="188" y="73">ITEM</text></g></g><path d="M235 69h8.5"></path></g><path d="M243.5 69a10 10 0 0 0 10 -10v-18a10 10 0 0 1 10 -10"></path><path d="M141 31a10 10 0 0 1 10 10v56a10 10 0 0 0 10 10"></path><g><path d="M161 107h0"></path><g><path d="M161 107h0"></path><path d="M223.5 107h20"></path><g class="terminal "><path d="M161 107h0"></path><path d="M223.5 107h0"></path><rect x="161" y="96" width="62.5" height="22"></rect><text x="192.25" y="111">MEDIA</text></g></g><path d="M243.5 107h0"></path></g><path d="M243.5 107a10 10 0 0 0 10 -10v-56a10 10 0 0 1 10 -10"></path></g></g><path d="M283.5 31h0"></path></g><path d="M283.5 31h20"></path></g><path d="M 303.5 31 h 20 m 0 -10 v 20"></path></g><defs><style type="text/css"><![CDATA[
svg.railroad-diagram path { stroke-width: 2; stroke: darkgray; fill: rgba(0, 0, 0, 0); }
svg.railroad-diagram text { font: bold 12px Hack, "Source Code Pro", monospace; text-anchor: middle; fill: #404040; }
svg.railroad-diagram text.comment { font: italic 10px Hack, "Source Code Pro", monospace; fill: #404040; }
svg.railroad-diagram g.terminal rect { stroke-width: 2; stroke: #404040; fill: rgba(200, 200, 200, 0.8); }
svg.railroad-diagram g.non-terminal rect { stroke-width: 2; stroke: #404040; fill: rgba(255, 255, 255, 1); }
svg.railroad-diagram text.diagram-text { font-size: 12px Hack, "Source Code Pro", monospace; fill: red; }
svg.railroad-diagram path.diagram-text { stroke-width: 1; stroke: red; fill: red; cursor: help; }
svg.railroad-diagram g.diagram-text:hover path.diagram-text { fill: #f00; } ]]></style></defs></svg>