<?xml version="1.0" encoding="UTF-8" standalone="no"?>
<!DOCTYPE svg PUBLIC "-//W3C//DTD SVG 1.1//EN" "http://www.w3.org/Graphics/SVG/1.1/DTD/svg11.dtd">
<svg class="railroad-diagram" width="786.5" height="78" viewBox="0 0 786.5 78" id="serviceSchemaSelector" xmlns="http://www.w3.org/2000/svg" xmlns:xlink="http://www.w3.org/1999/xlink"><g transform="translate(.5 .5)"><g><path d="M20 37v20m0 -10h20"></path></g><g><path d="M40 47h0"></path><path d="M746.5 47h0"></path><path d="M40 47h20"></path><g><path d="M60 47h0"></path><g><path d="M60 47h10"></path><path d="M716.5 47h10"></path><g><path d="M70 47h0"></path><path d="M442.5 47h0"></path><path d="M70 47a10 10 0 0 0 10 -10v-7a10 10 0 0 1 10 -10"></path><g><path d="M90 20h332.5"></path></g><path d="M422.5 20a10 10 0 0 1 10 10v7a10 10 0 0 0 10 10"></path><path d="M70 47h20"></path><g><path d="M90 47h0"></path><path d="M422.5 47h0"></path><path d="M90 47h20"></path><g><path d="M110 47h0"></path><g><path d="M110 47h10"></path><path d="M392.5 47h10"></path><g class="terminal "><path d="M120 47h0"></path><path d="M199.5 47h0"></path><rect x="120" y="36" width="79.5" height="22"></rect><text x="159.75" y="51">SERVICE</text></g><path d="M199.5 47h10"></path><path d="M209.5 47h10"></path><g class="non-terminal "><path d="M219.5 47h0"></path><path d="M392.5 47h0"></path><rect x="219.5" y="36" width="173" height="22" rx="10" ry="10"></rect><text x="306" y="51">serviceRequestPath</text></g></g><path d="M402.5 47h0"></path></g><path d="M402.5 47h20"></path></g><path d="M422.5 47h20"></path></g><path d="M442.5 47h10"></path><g class="terminal "><path d="M452.5 47h0"></path><path d="M532 47h0"></path><rect x="452.5" y="36" width="79.5" height="22"></rect><text x="492.25" y="51">SCHEMAS</text></g><path d="M532 47h10"></path><path d="M542 47h10"></path><g class="non-terminal "><path d="M552 47h0"></path><path d="M716.5 47h0"></path><rect x="552" y="36" width="164.5" height="22" rx="10" ry="10"></rect><text x="634.25" y="51">schemaRequestPath</text></g></g><path d="M726.5 47h0"></path></g><path d="M726.5 47h20"></path></g><path d="M 746.5 47 h 20 m 0 -10 v 20"></path></g><defs><style type="text/css"><![CDATA[
svg.railroad-diagram path { stroke-width: 2; stroke: darkgray; fill: rgba(0, 0, 0, 0); }svg.railroad-diagram text { font: bold 12px Hack, "Source Code Pro", monospace; text-anchor: middle; fill: #404040; }svg.railroad-diagram text.comment { font: italic 10px Hack, "Source Code Pro", monospace; fill: #404040; }svg.railroad-diagram g.terminal rect { stroke-width: 2; stroke: #404040; fill: rgba(200, 200, 200, 0.8); }svg.railroad-diagram g.non-terminal rect { stroke-width: 2; stroke: #404040; fill: rgba(255, 255, 255, 1); }svg.railroad-diagram text.diagram-text { font-size: 12px Hack, "Source Code Pro", monospace; fill: red; }svg.railroad-diagram path.diagram-text { stroke-width: 1; stroke: red; fill: red; cursor: help; }
 ]]>
</style></defs></svg>