<?xml version="1.0" encoding="UTF-8" standalone="no"?>
<!DOCTYPE svg PUBLIC "-//W3C//DTD SVG 1.1//EN" "http://www.w3.org/Graphics/SVG/1.1/DTD/svg11.dtd">
<svg class="railroad-diagram" width="778" height="116" viewBox="0 0 778 116" xmlns="http://www.w3.org/2000/svg" xmlns:xlink="http://www.w3.org/1999/xlink"><g transform="translate(.5 .5)"><g><path d="M20 21v20m0 -10h20"></path></g><g><path d="M40 31h0"></path><path d="M738 31h0"></path><path d="M40 31h20"></path><g><path d="M60 31h0"></path><g><path d="M60 31h0"></path><path d="M332.5 31h20"></path><g class="terminal "><path d="M60 31h0"></path><path d="M139.5 31h0"></path><rect x="60" y="20" width="79.5" height="22"></rect><text x="99.75" y="35">SERVICE</text></g><path d="M139.5 31h10"></path><path d="M149.5 31h10"></path><g class="non-terminal "><path d="M159.5 31h0"></path><path d="M332.5 31h0"></path><rect x="159.5" y="20" width="173" height="22" rx="10" ry="10"></rect><text x="246" y="35">serviceRequestPath</text></g></g><path d="M352.5 31h365.5"></path></g><path d="M718 31h20"></path><path d="M40 31a10 10 0 0 1 10 10v34a10 10 0 0 0 10 10"></path><g><path d="M60 85h0"></path><g><path d="M60 85h0"></path><path d="M698 85h20"></path><g><path d="M60 85h0"></path><path d="M432.5 85h0"></path><path d="M60 85a10 10 0 0 0 10 -10v-7a10 10 0 0 1 10 -10"></path><g><path d="M80 58h332.5"></path></g><path d="M412.5 58a10 10 0 0 1 10 10v7a10 10 0 0 0 10 10"></path><path d="M60 85h20"></path><g><path d="M80 85h0"></path><path d="M412.5 85h0"></path><path d="M80 85h20"></path><g><path d="M100 85h0"></path><g><path d="M100 85h0"></path><path d="M372.5 85h20"></path><g class="terminal "><path d="M100 85h0"></path><path d="M179.5 85h0"></path><rect x="100" y="74" width="79.5" height="22"></rect><text x="139.75" y="89">SERVICE</text></g><path d="M179.5 85h10"></path><path d="M189.5 85h10"></path><g class="non-terminal "><path d="M199.5 85h0"></path><path d="M372.5 85h0"></path><rect x="199.5" y="74" width="173" height="22" rx="10" ry="10"></rect><text x="286" y="89">serviceRequestPath</text></g></g><path d="M392.5 85h0"></path></g><path d="M392.5 85h20"></path></g><path d="M412.5 85h20"></path></g><path d="M432.5 85h10"></path><g class="terminal "><path d="M442.5 85h0"></path><path d="M513.5 85h0"></path><rect x="442.5" y="74" width="71" height="22"></rect><text x="478" y="89">SCHEMA</text></g><path d="M513.5 85h10"></path><path d="M523.5 85h10"></path><g class="non-terminal "><path d="M533.5 85h0"></path><path d="M698 85h0"></path><rect x="533.5" y="74" width="164.5" height="22" rx="10" ry="10"></rect><text x="615.75" y="89">schemaRequestPath</text></g></g><path d="M718 85h0"></path></g><path d="M718 85a10 10 0 0 0 10 -10v-34a10 10 0 0 1 10 -10"></path></g><path d="M 738 31 h 20 m 0 -10 v 20"></path></g><defs><style type="text/css"><![CDATA[
svg.railroad-diagram path { stroke-width: 2; stroke: darkgray; fill: rgba(0, 0, 0, 0); }
svg.railroad-diagram text { font: bold 12px Hack, "Source Code Pro", monospace; text-anchor: middle; fill: #404040; }
svg.railroad-diagram text.comment { font: italic 10px Hack, "Source Code Pro", monospace; fill: #404040; }
svg.railroad-diagram g.terminal rect { stroke-width: 2; stroke: #404040; fill: rgba(200, 200, 200, 0.8); }
svg.railroad-diagram g.non-terminal rect { stroke-width: 2; stroke: #404040; fill: rgba(255, 255, 255, 1); }
svg.railroad-diagram text.diagram-text { font-size: 12px Hack, "Source Code Pro", monospace; fill: red; }
svg.railroad-diagram path.diagram-text { stroke-width: 1; stroke: red; fill: red; cursor: help; }
svg.railroad-diagram g.diagram-text:hover path.diagram-text { fill: #f00; } ]]></style></defs></svg>