<?xml version="1.0" encoding="UTF-8" standalone="no"?>
<!DOCTYPE svg PUBLIC "-//W3C//DTD SVG 1.1//EN" "http://www.w3.org/Graphics/SVG/1.1/DTD/svg11.dtd">
<svg class="railroad-diagram" width="825" height="78" viewBox="0 0 825 78" xmlns="http://www.w3.org/2000/svg" xmlns:xlink="http://www.w3.org/1999/xlink"><g transform="translate(.5 .5)"><g><path d="M20 37v20m0 -10h20"></path></g><g><path d="M40 47h0"></path><path d="M785 47h0"></path><path d="M40 47h20"></path><g><path d="M60 47h0"></path><g><path d="M60 47h0"></path><path d="M745 47h20"></path><g class="terminal "><path d="M60 47h0"></path><path d="M97 47h0"></path><rect x="60" y="36" width="37" height="22"></rect><text x="78.5" y="51">ON</text></g><path d="M97 47h10"></path><g><path d="M107 47h0"></path><path d="M479.5 47h0"></path><path d="M107 47a10 10 0 0 0 10 -10v-7a10 10 0 0 1 10 -10"></path><g><path d="M127 20h332.5"></path></g><path d="M459.5 20a10 10 0 0 1 10 10v7a10 10 0 0 0 10 10"></path><path d="M107 47h20"></path><g><path d="M127 47h0"></path><path d="M459.5 47h0"></path><path d="M127 47h20"></path><g><path d="M147 47h0"></path><g><path d="M147 47h0"></path><path d="M419.5 47h20"></path><g class="terminal "><path d="M147 47h0"></path><path d="M226.5 47h0"></path><rect x="147" y="36" width="79.5" height="22"></rect><text x="186.75" y="51">SERVICE</text></g><path d="M226.5 47h10"></path><path d="M236.5 47h10"></path><g class="non-terminal "><path d="M246.5 47h0"></path><path d="M419.5 47h0"></path><rect x="246.5" y="36" width="173" height="22" rx="10" ry="10"></rect><text x="333" y="51">serviceRequestPath</text></g></g><path d="M439.5 47h0"></path></g><path d="M439.5 47h20"></path></g><path d="M459.5 47h20"></path></g><path d="M479.5 47h10"></path><g class="terminal "><path d="M489.5 47h0"></path><path d="M560.5 47h0"></path><rect x="489.5" y="36" width="71" height="22"></rect><text x="525" y="51">SCHEMA</text></g><path d="M560.5 47h10"></path><path d="M570.5 47h10"></path><g class="non-terminal "><path d="M580.5 47h0"></path><path d="M745 47h0"></path><rect x="580.5" y="36" width="164.5" height="22" rx="10" ry="10"></rect><text x="662.75" y="51">schemaRequestPath</text></g></g><path d="M765 47h0"></path></g><path d="M765 47h20"></path></g><path d="M 785 47 h 20 m 0 -10 v 20"></path></g><defs><style type="text/css"><![CDATA[
svg.railroad-diagram path { stroke-width: 2; stroke: darkgray; fill: rgba(0, 0, 0, 0); }
svg.railroad-diagram text { font: bold 12px Hack, "Source Code Pro", monospace; text-anchor: middle; fill: #404040; }
svg.railroad-diagram text.comment { font: italic 10px Hack, "Source Code Pro", monospace; fill: #404040; }
svg.railroad-diagram g.terminal rect { stroke-width: 2; stroke: #404040; fill: rgba(200, 200, 200, 0.8); }
svg.railroad-diagram g.non-terminal rect { stroke-width: 2; stroke: #404040; fill: rgba(255, 255, 255, 1); }
svg.railroad-diagram text.diagram-text { font-size: 12px Hack, "Source Code Pro", monospace; fill: red; }
svg.railroad-diagram path.diagram-text { stroke-width: 1; stroke: red; fill: red; cursor: help; }
svg.railroad-diagram g.diagram-text:hover path.diagram-text { fill: #f00; } ]]></style></defs></svg>