<?xml version="1.0" encoding="UTF-8" standalone="no"?>
<!DOCTYPE svg PUBLIC "-//W3C//DTD SVG 1.1//EN" "http://www.w3.org/Graphics/SVG/1.1/DTD/svg11.dtd">
<svg class="railroad-diagram" width="874" height="116" viewBox="0 0 874 116" id="showRestContentSetsStatement" xmlns="http://www.w3.org/2000/svg" xmlns:xlink="http://www.w3.org/1999/xlink"><g transform="translate(.5 .5)"><g><path d="M20 37v20m0 -10h20"></path></g><g><path d="M40 47h0"></path><path d="M834 47h0"></path><path d="M40 47h20"></path><g><path d="M60 47h0"></path><g><path d="M60 47h10"></path><path d="M804 47h10"></path><g class="terminal "><path d="M70 47h0"></path><path d="M124 47h0"></path><rect x="70" y="36" width="54" height="22"></rect><text x="97" y="51">SHOW</text></g><path d="M124 47h10"></path><path d="M134 47h10"></path><g class="terminal "><path d="M144 47h0"></path><path d="M198 47h0"></path><rect x="144" y="36" width="54" height="22"></rect><text x="171" y="51">REST</text></g><path d="M198 47h10"></path><path d="M208 47h10"></path><g class="terminal "><path d="M218 47h0"></path><path d="M297.5 47h0"></path><rect x="218" y="36" width="79.5" height="22"></rect><text x="257.75" y="51">CONTENT</text></g><path d="M297.5 47h10"></path><path d="M307.5 47h10"></path><g class="terminal "><path d="M317.5 47h0"></path><path d="M371.5 47h0"></path><rect x="317.5" y="36" width="54" height="22"></rect><text x="344.5" y="51">SETS</text></g><path d="M371.5 47h10"></path><g><path d="M381.5 47h0"></path><path d="M804 47h0"></path><path d="M381.5 47a10 10 0 0 0 10 -10v-7a10 10 0 0 1 10 -10"></path><g><path d="M401.5 20h382.5"></path></g><path d="M784 20a10 10 0 0 1 10 10v7a10 10 0 0 0 10 10"></path><path d="M381.5 47h20"></path><g><path d="M401.5 47h0"></path><path d="M784 47h0"></path><path d="M401.5 47h20"></path><g><path d="M421.5 47h0"></path><g><path d="M421.5 47h10"></path><path d="M754 47h10"></path><g><path d="M431.5 47h0"></path><path d="M545.5 47h0"></path><path d="M431.5 47h20"></path><g><path d="M451.5 47h8.5"></path><g><path d="M460 47h10"></path><path d="M507 47h10"></path><g class="terminal "><path d="M470 47h0"></path><path d="M507 47h0"></path><rect x="470" y="36" width="37" height="22"></rect><text x="488.5" y="51">IN</text></g></g><path d="M517 47h8.5"></path></g><path d="M525.5 47h20"></path><path d="M431.5 47a10 10 0 0 1 10 10v18a10 10 0 0 0 10 10"></path><g><path d="M451.5 85h0"></path><g><path d="M451.5 85h10"></path><path d="M515.5 85h10"></path><g class="terminal "><path d="M461.5 85h0"></path><path d="M515.5 85h0"></path><rect x="461.5" y="74" width="54" height="22"></rect><text x="488.5" y="89">FROM</text></g></g><path d="M525.5 85h0"></path></g><path d="M525.5 85a10 10 0 0 0 10 -10v-18a10 10 0 0 1 10 -10"></path></g><path d="M545.5 47h10"></path><g class="non-terminal "><path d="M555.5 47h0"></path><path d="M754 47h0"></path><rect x="555.5" y="36" width="198.5" height="22" rx="10" ry="10"></rect><text x="654.75" y="51">serviceSchemaSelector</text></g></g><path d="M764 47h0"></path></g><path d="M764 47h20"></path></g><path d="M784 47h20"></path></g></g><path d="M814 47h0"></path></g><path d="M814 47h20"></path></g><path d="M 834 47 h 20 m 0 -10 v 20"></path></g><defs><style type="text/css"><![CDATA[
svg.railroad-diagram path { stroke-width: 2; stroke: darkgray; fill: rgba(0, 0, 0, 0); }svg.railroad-diagram text { font: bold 12px Hack, "Source Code Pro", monospace; text-anchor: middle; fill: #404040; }svg.railroad-diagram text.comment { font: italic 10px Hack, "Source Code Pro", monospace; fill: #404040; }svg.railroad-diagram g.terminal rect { stroke-width: 2; stroke: #404040; fill: rgba(200, 200, 200, 0.8); }svg.railroad-diagram g.non-terminal rect { stroke-width: 2; stroke: #404040; fill: rgba(255, 255, 255, 1); }svg.railroad-diagram text.diagram-text { font-size: 12px Hack, "Source Code Pro", monospace; fill: red; }svg.railroad-diagram path.diagram-text { stroke-width: 1; stroke: red; fill: red; cursor: help; }
 ]]>
</style></defs></svg>