<?xml version="1.0" encoding="UTF-8" standalone="no"?>
<!DOCTYPE svg PUBLIC "-//W3C//DTD SVG 1.1//EN" "http://www.w3.org/Graphics/SVG/1.1/DTD/svg11.dtd">
<svg class="railroad-diagram" width="487" height="78" viewBox="0 0 487 78" xmlns="http://www.w3.org/2000/svg" xmlns:xlink="http://www.w3.org/1999/xlink"><g transform="translate(.5 .5)"><g><path d="M20 37v20m0 -10h20"></path></g><g><path d="M40 47h0"></path><path d="M447 47h0"></path><path d="M40 47h20"></path><g><path d="M60 47h0"></path><g><path d="M60 47h0"></path><path d="M407 47h20"></path><g class="terminal "><path d="M60 47h0"></path><path d="M114 47h0"></path><rect x="60" y="36" width="54" height="22"></rect><text x="87" y="51">SHOW</text></g><path d="M114 47h10"></path><path d="M124 47h10"></path><g class="terminal "><path d="M134 47h0"></path><path d="M188 47h0"></path><rect x="134" y="36" width="54" height="22"></rect><text x="161" y="51">REST</text></g><path d="M188 47h10"></path><g><path d="M198 47h0"></path><path d="M326 47h0"></path><path d="M198 47a10 10 0 0 0 10 -10v-7a10 10 0 0 1 10 -10"></path><g><path d="M218 20h88"></path></g><path d="M306 20a10 10 0 0 1 10 10v7a10 10 0 0 0 10 10"></path><path d="M198 47h20"></path><g class="terminal "><path d="M218 47h0"></path><path d="M306 47h0"></path><rect x="218" y="36" width="88" height="22"></rect><text x="262" y="51">METADATA</text></g><path d="M306 47h20"></path></g><path d="M326 47h10"></path><g class="terminal "><path d="M336 47h0"></path><path d="M407 47h0"></path><rect x="336" y="36" width="71" height="22"></rect><text x="371.5" y="51">STATUS</text></g></g><path d="M427 47h0"></path></g><path d="M427 47h20"></path></g><path d="M 447 47 h 20 m 0 -10 v 20"></path></g><defs><style type="text/css"><![CDATA[
svg.railroad-diagram path { stroke-width: 2; stroke: darkgray; fill: rgba(0, 0, 0, 0); }
svg.railroad-diagram text { font: bold 12px Hack, "Source Code Pro", monospace; text-anchor: middle; fill: #404040; }
svg.railroad-diagram text.comment { font: italic 10px Hack, "Source Code Pro", monospace; fill: #404040; }
svg.railroad-diagram g.terminal rect { stroke-width: 2; stroke: #404040; fill: rgba(200, 200, 200, 0.8); }
svg.railroad-diagram g.non-terminal rect { stroke-width: 2; stroke: #404040; fill: rgba(255, 255, 255, 1); }
svg.railroad-diagram text.diagram-text { font-size: 12px Hack, "Source Code Pro", monospace; fill: red; }
svg.railroad-diagram path.diagram-text { stroke-width: 1; stroke: red; fill: red; cursor: help; }
svg.railroad-diagram g.diagram-text:hover path.diagram-text { fill: #f00; } ]]></style></defs></svg>