<?xml version="1.0" encoding="UTF-8" standalone="no"?>
<!DOCTYPE svg PUBLIC "-//W3C//DTD SVG 1.1//EN" "http://www.w3.org/Graphics/SVG/1.1/DTD/svg11.dtd">
<svg class="railroad-diagram" width="885" height="116" viewBox="0 0 885 116" xmlns="http://www.w3.org/2000/svg" xmlns:xlink="http://www.w3.org/1999/xlink"><g transform="translate(.5 .5)"><g><path d="M20 37v20m0 -10h20"></path></g><g><path d="M40 47h0"></path><path d="M845 47h0"></path><path d="M40 47h20"></path><g><path d="M60 47h0"></path><g><path d="M60 47h0"></path><path d="M805 47h20"></path><g class="terminal "><path d="M60 47h0"></path><path d="M114 47h0"></path><rect x="60" y="36" width="54" height="22"></rect><text x="87" y="51">SHOW</text></g><path d="M114 47h10"></path><path d="M124 47h10"></path><g class="terminal "><path d="M134 47h0"></path><path d="M188 47h0"></path><rect x="134" y="36" width="54" height="22"></rect><text x="161" y="51">REST</text></g><path d="M188 47h10"></path><path d="M198 47h10"></path><g class="terminal "><path d="M208 47h0"></path><path d="M313 47h0"></path><rect x="208" y="36" width="105" height="22"></rect><text x="260.5" y="51">PROCEDURES</text></g><path d="M313 47h10"></path><g><path d="M323 47h0"></path><path d="M805 47h0"></path><path d="M323 47a10 10 0 0 0 10 -10v-7a10 10 0 0 1 10 -10"></path><g><path d="M343 20h442"></path></g><path d="M785 20a10 10 0 0 1 10 10v7a10 10 0 0 0 10 10"></path><path d="M323 47h20"></path><g><path d="M343 47h0"></path><path d="M785 47h0"></path><path d="M343 47h20"></path><g><path d="M363 47h0"></path><g><path d="M363 47h0"></path><path d="M745 47h20"></path><g><path d="M363 47h0"></path><path d="M477 47h0"></path><path d="M363 47h20"></path><g><path d="M383 47h0"></path><g><path d="M383 47h0"></path><path d="M420 47h20"></path><g class="terminal "><path d="M383 47h0"></path><path d="M420 47h0"></path><rect x="383" y="36" width="37" height="22"></rect><text x="401.5" y="51">IN</text></g></g><path d="M440 47h17"></path></g><path d="M457 47h20"></path><path d="M363 47a10 10 0 0 1 10 10v18a10 10 0 0 0 10 10"></path><g><path d="M383 85h0"></path><g><path d="M383 85h0"></path><path d="M437 85h20"></path><g class="terminal "><path d="M383 85h0"></path><path d="M437 85h0"></path><rect x="383" y="74" width="54" height="22"></rect><text x="410" y="89">FROM</text></g></g><path d="M457 85h0"></path></g><path d="M457 85a10 10 0 0 0 10 -10v-18a10 10 0 0 1 10 -10"></path></g><path d="M477 47h10"></path><g class="non-terminal "><path d="M487 47h0"></path><path d="M745 47h0"></path><rect x="487" y="36" width="258" height="22" rx="10" ry="10"></rect><text x="616" y="51">serviceAndSchemaRequestPaths</text></g></g><path d="M765 47h0"></path></g><path d="M765 47h20"></path></g><path d="M785 47h20"></path></g></g><path d="M825 47h0"></path></g><path d="M825 47h20"></path></g><path d="M 845 47 h 20 m 0 -10 v 20"></path></g><defs><style type="text/css"><![CDATA[
svg.railroad-diagram path { stroke-width: 2; stroke: darkgray; fill: rgba(0, 0, 0, 0); }
svg.railroad-diagram text { font: bold 12px Hack, "Source Code Pro", monospace; text-anchor: middle; fill: #404040; }
svg.railroad-diagram text.comment { font: italic 10px Hack, "Source Code Pro", monospace; fill: #404040; }
svg.railroad-diagram g.terminal rect { stroke-width: 2; stroke: #404040; fill: rgba(200, 200, 200, 0.8); }
svg.railroad-diagram g.non-terminal rect { stroke-width: 2; stroke: #404040; fill: rgba(255, 255, 255, 1); }
svg.railroad-diagram text.diagram-text { font-size: 12px Hack, "Source Code Pro", monospace; fill: red; }
svg.railroad-diagram path.diagram-text { stroke-width: 1; stroke: red; fill: red; cursor: help; }
svg.railroad-diagram g.diagram-text:hover path.diagram-text { fill: #f00; } ]]></style></defs></svg>