<?xml version="1.0" encoding="UTF-8" standalone="no"?>
<!DOCTYPE svg PUBLIC "-//W3C//DTD SVG 1.1//EN" "http://www.w3.org/Graphics/SVG/1.1/DTD/svg11.dtd">
<svg class="railroad-diagram" width="894" height="132" viewBox="0 0 894 132" xmlns="http://www.w3.org/2000/svg" xmlns:xlink="http://www.w3.org/1999/xlink"><g transform="translate(.5 .5)"><g><path d="M20 53v20m0 -10h20"></path></g><g><path d="M40 63h0"></path><path d="M854 63h0"></path><path d="M40 63h20"></path><g><path d="M60 63h0"></path><g><path d="M60 63h0"></path><path d="M814 63h20"></path><g class="terminal "><path d="M60 63h0"></path><path d="M114 63h0"></path><rect x="60" y="52" width="54" height="22"></rect><text x="87" y="67">SHOW</text></g><path d="M114 63h10"></path><path d="M124 63h10"></path><g class="terminal "><path d="M134 63h0"></path><path d="M188 63h0"></path><rect x="134" y="52" width="54" height="22"></rect><text x="161" y="67">REST</text></g><path d="M188 63h10"></path><path d="M198 63h10"></path><g class="terminal "><path d="M208 63h0"></path><path d="M287.5 63h0"></path><rect x="208" y="52" width="79.5" height="22"></rect><text x="247.75" y="67">SCHEMAS</text></g><path d="M287.5 63h10"></path><g><path d="M297.5 63h0"></path><path d="M814 63h0"></path><path d="M297.5 63a10 10 0 0 0 10 -10v-23a10 10 0 0 1 10 -10"></path><g><path d="M317.5 20h476.5"></path></g><path d="M794 20a10 10 0 0 1 10 10v23a10 10 0 0 0 10 10"></path><path d="M297.5 63h20"></path><g><path d="M317.5 63h0"></path><path d="M794 63h0"></path><path d="M317.5 63h20"></path><g><path d="M337.5 63h0"></path><g><path d="M337.5 63h0"></path><path d="M754 63h20"></path><g><path d="M337.5 63h0"></path><path d="M451.5 63h0"></path><path d="M337.5 63h20"></path><g><path d="M357.5 63h0"></path><g><path d="M357.5 63h0"></path><path d="M394.5 63h20"></path><g class="terminal "><path d="M357.5 63h0"></path><path d="M394.5 63h0"></path><rect x="357.5" y="52" width="37" height="22"></rect><text x="376" y="67">IN</text></g></g><path d="M414.5 63h17"></path></g><path d="M431.5 63h20"></path><path d="M337.5 63a10 10 0 0 1 10 10v18a10 10 0 0 0 10 10"></path><g><path d="M357.5 101h0"></path><g><path d="M357.5 101h0"></path><path d="M411.5 101h20"></path><g class="terminal "><path d="M357.5 101h0"></path><path d="M411.5 101h0"></path><rect x="357.5" y="90" width="54" height="22"></rect><text x="384.5" y="105">FROM</text></g></g><path d="M431.5 101h0"></path></g><path d="M431.5 101a10 10 0 0 0 10 -10v-18a10 10 0 0 1 10 -10"></path></g><g><path d="M451.5 63h0"></path><path d="M571 63h0"></path><path d="M451.5 63a10 10 0 0 0 10 -10v-7a10 10 0 0 1 10 -10"></path><g><path d="M471.5 36h79.5"></path></g><path d="M551 36a10 10 0 0 1 10 10v7a10 10 0 0 0 10 10"></path><path d="M451.5 63h20"></path><g class="terminal "><path d="M471.5 63h0"></path><path d="M551 63h0"></path><rect x="471.5" y="52" width="79.5" height="22"></rect><text x="511.25" y="67">SERVICE</text></g><path d="M551 63h20"></path></g><path d="M571 63h10"></path><g class="non-terminal "><path d="M581 63h0"></path><path d="M754 63h0"></path><rect x="581" y="52" width="173" height="22" rx="10" ry="10"></rect><text x="667.5" y="67">serviceRequestPath</text></g></g><path d="M774 63h0"></path></g><path d="M774 63h20"></path></g><path d="M794 63h20"></path></g></g><path d="M834 63h0"></path></g><path d="M834 63h20"></path></g><path d="M 854 63 h 20 m 0 -10 v 20"></path></g><defs><style type="text/css"><![CDATA[
svg.railroad-diagram path { stroke-width: 2; stroke: darkgray; fill: rgba(0, 0, 0, 0); }
svg.railroad-diagram text { font: bold 12px Hack, "Source Code Pro", monospace; text-anchor: middle; fill: #404040; }
svg.railroad-diagram text.comment { font: italic 10px Hack, "Source Code Pro", monospace; fill: #404040; }
svg.railroad-diagram g.terminal rect { stroke-width: 2; stroke: #404040; fill: rgba(200, 200, 200, 0.8); }
svg.railroad-diagram g.non-terminal rect { stroke-width: 2; stroke: #404040; fill: rgba(255, 255, 255, 1); }
svg.railroad-diagram text.diagram-text { font-size: 12px Hack, "Source Code Pro", monospace; fill: red; }
svg.railroad-diagram path.diagram-text { stroke-width: 1; stroke: red; fill: red; cursor: help; }
svg.railroad-diagram g.diagram-text:hover path.diagram-text { fill: #f00; } ]]></style></defs></svg>