<?xml version="1.0" encoding="UTF-8" standalone="no"?>
<!DOCTYPE svg PUBLIC "-//W3C//DTD SVG 1.1//EN" "http://www.w3.org/Graphics/SVG/1.1/DTD/svg11.dtd">
<svg class="railroad-diagram" width="666" height="94" viewBox="0 0 666 94" id="simpleIdentifier" xmlns="http://www.w3.org/2000/svg" xmlns:xlink="http://www.w3.org/1999/xlink"><g transform="translate(.5 .5)"><g><path d="M20 53v20m0 -10h20"></path></g><g><path d="M40 63h0"></path><path d="M626 63h0"></path><path d="M40 63h20"></path><g><path d="M60 63h0"></path><g><path d="M60 63h10"></path><path d="M596 63h10"></path><g class="non-terminal "><path d="M70 63h0"></path><path d="M175 63h0"></path><rect x="70" y="52" width="105" height="22" rx="10" ry="10"></rect><text x="122.5" y="67">identifier</text></g><path d="M175 63h10"></path><g><path d="M185 63h0"></path><path d="M596 63h0"></path><path d="M185 63a10 10 0 0 0 10 -10v-23a10 10 0 0 1 10 -10"></path><g><path d="M205 20h371"></path></g><path d="M576 20a10 10 0 0 1 10 10v23a10 10 0 0 0 10 10"></path><path d="M185 63h20"></path><g><path d="M205 63h0"></path><path d="M576 63h0"></path><path d="M205 63h20"></path><g><path d="M225 63h0"></path><g><path d="M225 63h10"></path><path d="M546 63h10"></path><g class="non-terminal "><path d="M235 63h0"></path><path d="M365.5 63h0"></path><rect x="235" y="52" width="130.5" height="22" rx="10" ry="10"></rect><text x="300.25" y="67">dotIdentifier</text></g><path d="M365.5 63h10"></path><g><path d="M375.5 63h0"></path><path d="M546 63h0"></path><path d="M375.5 63a10 10 0 0 0 10 -10v-7a10 10 0 0 1 10 -10"></path><g><path d="M395.5 36h130.5"></path></g><path d="M526 36a10 10 0 0 1 10 10v7a10 10 0 0 0 10 10"></path><path d="M375.5 63h20"></path><g class="non-terminal "><path d="M395.5 63h0"></path><path d="M526 63h0"></path><rect x="395.5" y="52" width="130.5" height="22" rx="10" ry="10"></rect><text x="460.75" y="67">dotIdentifier</text></g><path d="M526 63h20"></path></g></g><path d="M556 63h0"></path></g><path d="M556 63h20"></path></g><path d="M576 63h20"></path></g></g><path d="M606 63h0"></path></g><path d="M606 63h20"></path></g><path d="M 626 63 h 20 m 0 -10 v 20"></path></g><defs><style type="text/css"><![CDATA[
svg.railroad-diagram path { stroke-width: 2; stroke: darkgray; fill: rgba(0, 0, 0, 0); }svg.railroad-diagram text { font: bold 12px Hack, "Source Code Pro", monospace; text-anchor: middle; fill: #404040; }svg.railroad-diagram text.comment { font: italic 10px Hack, "Source Code Pro", monospace; fill: #404040; }svg.railroad-diagram g.terminal rect { stroke-width: 2; stroke: #404040; fill: rgba(200, 200, 200, 0.8); }svg.railroad-diagram g.non-terminal rect { stroke-width: 2; stroke: #404040; fill: rgba(255, 255, 255, 1); }svg.railroad-diagram text.diagram-text { font-size: 12px Hack, "Source Code Pro", monospace; fill: red; }svg.railroad-diagram path.diagram-text { stroke-width: 1; stroke: red; fill: red; cursor: help; }
 ]]>
</style></defs></svg>