<?xml version="1.0" encoding="UTF-8" standalone="no"?>
<!DOCTYPE svg PUBLIC "-//W3C//DTD SVG 1.1//EN" "http://www.w3.org/Graphics/SVG/1.1/DTD/svg11.dtd">
<svg class="railroad-diagram" width="356" height="71" viewBox="0 0 356 71" xmlns="http://www.w3.org/2000/svg" xmlns:xlink="http://www.w3.org/1999/xlink">
<g transform="translate(.5 .5)">
<g>
<path d="M20 30v20m10 -20v20m-10 -10h20"></path>
</g>
<path d="M40 40h10"></path>
<g class="non-terminal ">
<path d="M50 40h0"></path>
<path d="M118 40h0"></path>
<rect x="50" y="29" width="68" height="22"></rect>
<text x="84" y="44">UPDATE</text>
</g>
<path d="M118 40h10"></path>
<g>
<path d="M128 40h0"></path>
<path d="M316 40h0"></path>
<path d="M128 40a10 10 0 0 0 10 -10v0a10 10 0 0 1 10 -10"></path>
<g>
<path d="M148 20h148"></path>
</g>
<path d="M296 20a10 10 0 0 1 10 10v0a10 10 0 0 0 10 10"></path>
<path d="M128 40h20"></path>
<g>
<path d="M148 40h0"></path>
<path d="M296 40h0"></path>
<g class="non-terminal ">
<path d="M148 40h0"></path>
<path d="M184 40h0"></path>
<rect x="148" y="29" width="36" height="22"></rect>
<text x="166" y="44">IF</text>
</g>
<path d="M184 40h10"></path>
<path d="M194 40h10"></path>
<g class="non-terminal ">
<path d="M204 40h0"></path>
<path d="M296 40h0"></path>
<rect x="204" y="29" width="92" height="22"></rect>
<text x="250" y="44">AVAILABLE</text>
</g>
</g>
<path d="M296 40h20"></path>
</g>
<path d="M 316 40 h 20 m -10 -10 v 20 m 10 -20 v 20"></path>
</g>
<defs><style type="text/css"><![CDATA[
svg.railroad-diagram path { stroke-width: 2; stroke: darkgray; fill: rgba(0, 0, 0, 0); }
svg.railroad-diagram text { font: bold 12px Hack, "Source Code Pro", monospace; text-anchor: middle; fill: #404040; }
svg.railroad-diagram text.comment { font: italic 10px Hack, "Source Code Pro", monospace; fill: #404040; }
svg.railroad-diagram g.terminal rect { stroke-width: 2; stroke: #404040; fill: rgba(255, 255, 255, 1); }
svg.railroad-diagram g.non-terminal rect { stroke-width: 2; stroke: #404040; fill: rgba(200, 200, 200, 0.8); }
svg.railroad-diagram text.diagram-text { font-size: 12px Hack, "Source Code Pro", monospace; fill: red; }
svg.railroad-diagram path.diagram-text { stroke-width: 1; stroke: red; fill: red; cursor: help; }
svg.railroad-diagram g.diagram-text:hover path.diagram-text { fill: #f00; } ]]></style></defs></svg>