<?xml version="1.0" encoding="UTF-8"?>
<!DOCTYPE svg PUBLIC "-//W3C//DTD SVG 1.1//EN" "http://www.w3.org/Graphics/SVG/1.1/DTD/svg11.dtd">
<svg version="1.1" xmlns="http://www.w3.org/2000/svg" xmlns:xlink="http://www.w3.org/1999/xlink" x="0" y="0" width="32" height="32" viewBox="0, 0, 32, 32">
  <g id="network">
    <path d="M13.999,16 L3.999,16 L3.999,12 L5.999,12 L5.999,14 L13.999,14 L13.999,12 L15.999,12 L15.999,14 L23.999,14 L23.999,12 L25.999,12 L25.999,16 L15.999,16 L15.999,18 L13.999,18 L13.999,16 z M11.999,20 L17.999,20 L17.999,26 L11.999,26 L11.999,20 z M13.999,22 L13.999,24 L15.999,24 L15.999,22 L13.999,22 z M1.999,4 L7.999,4 L7.999,10 L1.999,10 L1.999,4 z M3.999,6 L3.999,8 L5.999,8 L5.999,6 L3.999,6 z M11.999,4 L17.999,4 L17.999,10 L11.999,10 L11.999,4 z M13.999,6 L13.999,8 L15.999,8 L15.999,6 L13.999,6 z M21.999,4 L28,4 L28,10 L21.999,10 L21.999,4 z M23.999,6 L23.999,8 L25.999,8 L25.999,6 L23.999,6 z" fill="#000000"/>
  </g>
</svg>
