<?xml version="1.0" encoding="UTF-8"?>
<!DOCTYPE svg PUBLIC "-//W3C//DTD SVG 1.1//EN" "http://www.w3.org/Graphics/SVG/1.1/DTD/svg11.dtd">
<svg version="1.1" xmlns="http://www.w3.org/2000/svg" xmlns:xlink="http://www.w3.org/1999/xlink" x="0" y="0" width="32" height="32" viewBox="0, 0, 32, 32">
  <g id="Ebene_1">
    <path d="M29,7 L29,25 C29,25.55 28.552,26 28,26 L4,26 C3.448,26 3,25.55 3,25 L3,7 C3,6.448 3.448,6 4,6 L28,6 C28.552,6 29,6.448 29,7 z M27,8 L5,8 L5,24 L27,24 L27,8 z M10.627,18 L7,18 L7,16 L10.295,16 L11.548,12.93 C11.599,12.65 11.767,12.39 12.031,12.24 C12.51,11.97 13.121,12.13 13.397,12.61 L15.119,17.11 L17.442,9.75 C17.585,9.22 18.133,8.9 18.667,9.05 C19.073,9.15 19.353,9.5 19.401,9.89 L21.663,16 L25,16 L25,18 L21.31,18 C21.105,18.07 20.888,18.06 20.69,18 L20,18 L20,17.19 L18.483,13.09 L16.183,20.37 C16.04,20.9 15.492,21.22 14.958,21.08 C14.593,20.98 14.33,20.69 14.246,20.35 L12.51,15.82 L12,17.07 L12,18 L11.247,18 C11.049,18.06 10.832,18.07 10.627,18 z" fill="#000000" id="status1"/>
  </g>
</svg>
