<?xml version="1.0" encoding="UTF-8"?>
<!DOCTYPE svg PUBLIC "-//W3C//DTD SVG 1.1//EN" "http://www.w3.org/Graphics/SVG/1.1/DTD/svg11.dtd">
<svg version="1.1" xmlns="http://www.w3.org/2000/svg" xmlns:xlink="http://www.w3.org/1999/xlink" x="0" y="0" width="16" height="16" viewBox="0, 0, 16, 16">
  <g id="schemaTable">
    <path d="M14.996,1 L14.996,14.996 L1,14.996 L1,1 L14.996,1 z M13.997,2.999 L2,2.999 L2,13.997 L13.997,13.997 L13.997,2.999 z" fill="#000000"/>
    <path d="M11,10.998 L13,10.998 L13,11.998 L11,11.998 L11,10.998 z M11,8.999 L13,8.999 L13,9.999 L11,9.999 L11,8.999 z M11,6.999 L13,6.999 L13,7.999 L11,7.999 L11,6.999 z M11,5 L13,5 L13,6 L11,6 L11,5 z" fill="#000000"/>
    <path d="M5.999,10.998 L9.999,10.998 L9.999,11.998 L5.999,11.998 L5.999,10.998 z M5.999,8.999 L9.999,8.999 L9.999,9.999 L5.999,9.999 L5.999,8.999 z M5.999,6.999 L9.999,6.999 L9.999,7.999 L5.999,7.999 L5.999,6.999 z M5.999,5 L9.999,5 L9.999,6 L5.999,6 L5.999,5 z" fill="#000000"/>
    <path d="M2.999,10.997 L5,10.997 L5,11.997 L2.999,11.997 L2.999,10.997 z M2.999,8.998 L5,8.998 L5,9.998 L2.999,9.998 L2.999,8.998 z M2.999,6.998 L5,6.998 L5,7.998 L2.999,7.998 L2.999,6.998 z M2.999,4.999 L5,4.999 L5,5.999 L2.999,5.999 L2.999,4.999 z" fill="#000000"/>
  </g>
</svg>
