<?xml version="1.0" encoding="UTF-8"?>
<!DOCTYPE svg PUBLIC "-//W3C//DTD SVG 1.1//EN" "http://www.w3.org/Graphics/SVG/1.1/DTD/svg11.dtd">
<svg version="1.1" xmlns="http://www.w3.org/2000/svg" xmlns:xlink="http://www.w3.org/1999/xlink" x="0" y="0" width="16" height="16" viewBox="0, 0, 16, 16">
  <g id="Ebene_1">
    <g id="schemaTableColumns">
      <path d="M9.747,4.067 C9.987,4.015 10.236,3.988 10.491,3.988 C12.428,3.988 14,5.56 14,7.497 C14,9.434 12.428,11.006 10.491,11.006 C10.236,11.006 9.987,10.979 9.747,10.927 C10.303,10.806 10.81,10.554 11.234,10.204 C12.424,9.878 13.298,8.789 13.298,7.497 C13.298,6.205 12.424,5.116 11.234,4.789 C10.81,4.44 10.303,4.187 9.747,4.067 z" fill="#000000"/>
      <path d="M7.408,4.067 C7.647,4.015 7.896,3.988 8.151,3.988 C10.088,3.988 11.66,5.56 11.66,7.497 C11.66,9.434 10.088,11.006 8.151,11.006 C7.896,11.006 7.647,10.979 7.408,10.927 C7.964,10.806 8.471,10.554 8.895,10.204 C10.084,9.878 10.959,8.789 10.959,7.497 C10.959,6.205 10.084,5.116 8.895,4.789 C8.471,4.44 7.964,4.187 7.408,4.067 z" fill="#000000"/>
      <path d="M9.321,7.497 C9.321,9.435 7.75,11.006 5.812,11.006 C3.874,11.006 2.303,9.435 2.303,7.497 C2.303,5.559 3.874,3.988 5.812,3.988 C7.75,3.988 9.321,5.559 9.321,7.497 z" fill="#000000"/>
    </g>
  </g>
</svg>
