<?xml version="1.0" encoding="UTF-8"?>
<!DOCTYPE svg PUBLIC "-//W3C//DTD SVG 1.1//EN" "http://www.w3.org/Graphics/SVG/1.1/DTD/svg11.dtd">
<svg version="1.1" xmlns="http://www.w3.org/2000/svg" xmlns:xlink="http://www.w3.org/1999/xlink" x="0" y="0" width="16" height="16" viewBox="0, 0, 16, 16">
  <g id="schemaTableForeignKeys">
    <path d="M10.497,3.989 L11.497,2.989 L16.004,7.496 L11.497,12.003 L10.497,11.003 L11.061,10.44 L11.497,10.876 L14.878,7.496 L11.497,4.116 L11.061,4.553 L10.497,3.989 z" fill="#000000"/>
    <path d="M7.497,3.989 L8.497,2.989 L13.004,7.496 L8.497,12.003 L7.497,11.003 L8.061,10.44 L8.497,10.876 L11.878,7.496 L8.497,4.116 L8.061,4.553 L7.497,3.989 z" fill="#000000"/>
    <path d="M10.004,7.496 L5.497,12.003 L0.991,7.496 L5.497,2.989 L10.004,7.496 z M8.878,7.496 L5.497,4.116 L5.492,7.496 L5.497,10.876 L8.878,7.496 z" fill="#000000"/>
  </g>
</svg>
