<?xml version="1.0" encoding="UTF-8"?>
<!DOCTYPE svg PUBLIC "-//W3C//DTD SVG 1.1//EN" "http://www.w3.org/Graphics/SVG/1.1/DTD/svg11.dtd">
<svg version="1.1" xmlns="http://www.w3.org/2000/svg" xmlns:xlink="http://www.w3.org/1999/xlink" x="0" y="0" width="16" height="16" viewBox="0, 0, 16, 16">
  <g id="Ebene_1">
    <path d="M5.808,2.524 C6.759,1.895 7.987,1.843 8.989,2.391 C9.442,2.636 9.826,2.99 10.109,3.421 C10.893,4.645 10.725,6.26 9.708,7.295 C9.497,7.506 9.256,7.686 8.993,7.826 L9.06,8.664 L8.962,8.931 L8.492,9.401 L9.215,10.124 L9.216,10.606 L8.493,11.329 L9.216,12.052 L9.217,12.534 L7.771,13.98 L7.289,13.979 L6.177,12.867 L6.077,12.626 L6.075,7.831 C5.787,7.68 5.526,7.484 5.301,7.25 C4.131,6.047 4.143,4.1 5.328,2.915 C5.474,2.769 5.635,2.637 5.807,2.524 L5.808,2.524 z M9.915,5.361 C9.972,4.813 9.842,4.262 9.545,3.797 L9.549,3.798 C9.457,3.655 9.349,3.522 9.229,3.401 C8.292,2.464 6.75,2.463 5.813,3.399 C5.695,3.517 5.59,3.648 5.499,3.787 C4.9,4.728 5.021,5.966 5.79,6.775 C6.005,7 6.261,7.18 6.546,7.302 L6.755,7.617 L6.758,12.485 L7.53,13.256 L8.493,12.293 L7.77,11.57 L7.77,11.087 L8.493,10.365 L7.769,9.641 L7.769,9.159 L8.369,8.56 L8.301,7.648 L8.504,7.31 C8.774,7.191 9.021,7.023 9.23,6.813 C9.616,6.421 9.857,5.909 9.915,5.361 z M8.194,4.448 C8.17,4.306 8.104,4.175 8.003,4.073 C7.738,3.809 7.303,3.809 7.039,4.073 C6.871,4.24 6.803,4.483 6.858,4.713 C6.887,4.836 6.95,4.948 7.039,5.037 C7.303,5.301 7.739,5.302 8.003,5.037 C8.157,4.883 8.228,4.664 8.194,4.448 z" fill="#000000"/>
  </g>
</svg>
