<?xml version="1.0" encoding="UTF-8" standalone="no"?>
<!DOCTYPE svg PUBLIC "-//W3C//DTD SVG 1.1//EN" "http://www.w3.org/Graphics/SVG/1.1/DTD/svg11.dtd">
<svg width="100%" height="100%" viewBox="0 0 32 32" version="1.1" xmlns="http://www.w3.org/2000/svg" xmlns:xlink="http://www.w3.org/1999/xlink" xml:space="preserve" xmlns:serif="http://www.serif.com/" style="fill-rule:evenodd;clip-rule:evenodd;stroke-linejoin:round;stroke-miterlimit:2;">
    <g transform="matrix(1,0,0,1,-216,-36)">
        <g id="View">
            <g id="Lock" transform="matrix(1,0,0,1,-597.989,-161.993)">
                <path d="M840.027,211.246L841.007,211.246L841.007,228.003L819.989,228.003L819.989,211.246L820.965,211.246L820.965,207.386L820.972,207.386C821.047,202.187 825.279,197.993 830.496,197.993C835.713,197.993 839.946,202.187 840.02,207.386L840.027,207.386L840.027,207.522L840.027,207.524L840.027,211.246ZM831.786,219.757C832.72,219.274 833.358,218.3 833.358,217.176C833.358,215.572 832.058,214.272 830.454,214.272C828.85,214.272 827.55,215.572 827.55,217.176C827.55,218.361 828.26,219.381 829.279,219.832L829.279,224.983L831.786,224.983L831.786,219.757ZM836.591,207.225L836.587,207.225C836.539,203.9 833.832,201.218 830.496,201.218C827.16,201.218 824.453,203.9 824.405,207.225L824.401,207.225L824.401,211.081L836.591,211.081L836.591,207.225Z"/>
            </g>
            <g id="Grid">
            </g>
            <g id="Reset">
            </g>
        </g>
        <g id="Info">
        </g>
        <g id="Tools">
        </g>
    </g>
</svg>
