<?xml version="1.0" encoding="UTF-8" standalone="no"?>
<!DOCTYPE svg PUBLIC "-//W3C//DTD SVG 1.1//EN" "http://www.w3.org/Graphics/SVG/1.1/DTD/svg11.dtd">
<svg width="100%" height="100%" viewBox="0 0 32 32" version="1.1" xmlns="http://www.w3.org/2000/svg" xmlns:xlink="http://www.w3.org/1999/xlink" xml:space="preserve" xmlns:serif="http://www.serif.com/" style="fill-rule:evenodd;clip-rule:evenodd;stroke-linejoin:round;stroke-miterlimit:2;">
    <g transform="matrix(1,0,0,1,-36,-36)">
        <g id="View">
        </g>
        <g id="Info">
        </g>
        <g id="Shape-2" serif:id="Shape 2" transform="matrix(1,0,0,1,-244.825,-160.907)">
            <g id="Tools">
                <path id="Shape-21" serif:id="Shape 2" d="M292.809,228.907C292.809,225.202 288.721,220.177 284.899,215.679C280.426,210.415 284.148,206.845 287.092,210.861C288.897,213.322 291.435,215.956 291.435,215.956C291.435,215.956 289.213,209.255 287.936,204.436C286.584,199.34 291.58,197.683 292.87,202.295C294.148,206.866 294.587,210.565 294.587,210.565C294.587,210.565 294.855,207.648 294.587,201.492C294.319,195.335 299.405,195.335 299.405,201.76C299.405,208.184 300.208,209.271 300.208,209.271C300.208,209.271 301.279,211.664 301.279,203.633C301.279,197.209 305.562,197.209 305.562,204.169C305.562,211.664 306.479,213.464 307.971,205.239C308.899,200.125 312.749,202.563 311.143,211.128C310.04,217.011 304.548,228.907 304.548,228.907L292.809,228.907Z"/>
            </g>
        </g>
    </g>
</svg>
