<?xml version="1.0" encoding="UTF-8" standalone="no"?>
<!DOCTYPE svg PUBLIC "-//W3C//DTD SVG 1.1//EN" "http://www.w3.org/Graphics/SVG/1.1/DTD/svg11.dtd">
<svg width="100%" height="100%" viewBox="0 0 32 32" version="1.1" xmlns="http://www.w3.org/2000/svg" xmlns:xlink="http://www.w3.org/1999/xlink" xml:space="preserve" xmlns:serif="http://www.serif.com/" style="fill-rule:evenodd;clip-rule:evenodd;stroke-linejoin:round;stroke-miterlimit:2;">
    <g transform="matrix(1,0,0,1,-108,-36)">
        <g id="View">
            <g id="Grid">
            </g>
            <g id="Reset" transform="matrix(1,0,0,1,-372.705,-160.863)">
                <g id="Shape-1-copy" serif:id="Shape 1 copy" transform="matrix(1,0,0,1,-33.2311,-0.139031)">
                    <path d="M521.936,206.002L538.026,206.002L538.026,220.01L521.936,220.01L521.936,206.002ZM523.976,208.054L523.976,218.031L536.019,218.031L536.019,208.054L523.976,208.054Z"/>
                </g>
                <g id="Shape-55" serif:id="Shape 55" transform="matrix(1,0,0,1,-33.3247,-0.0741407)">
                    <path d="M520.063,203.333L520.063,199.937L522.063,199.937L522.063,205.938L516.062,205.938L516.062,203.937L519.253,203.937L516.077,200.761L516.784,200.054L520.063,203.333ZM540.062,222.779L540.062,225.937L538.062,225.937L538.062,219.937L544.063,219.937L544.063,221.937L540.636,221.937L543.97,225.272L543.263,225.979L540.062,222.779ZM540.748,203.937L544.063,203.937L544.063,205.938L538.062,205.938L538.062,199.937L540.062,199.937L540.062,203.208L543.216,200.054L543.923,200.761L540.748,203.937ZM520.063,222.654L516.737,225.979L516.03,225.272L519.365,221.937L516.062,221.937L516.062,219.937L522.063,219.937L522.063,225.937L520.063,225.937L520.063,222.654ZM519.943,221.937L520.063,222.057L520.063,221.937L519.943,221.937Z"/>
                </g>
            </g>
        </g>
        <g id="Info">
        </g>
        <g id="Tools">
        </g>
    </g>
</svg>
