<?xml version="1.0" encoding="UTF-8" standalone="no"?>
<!DOCTYPE svg PUBLIC "-//W3C//DTD SVG 1.1//EN" "http://www.w3.org/Graphics/SVG/1.1/DTD/svg11.dtd">
<svg width="100%" height="100%" viewBox="0 0 16 16" version="1.1" xmlns="http://www.w3.org/2000/svg" xmlns:xlink="http://www.w3.org/1999/xlink" xml:space="preserve" xmlns:serif="http://www.serif.com/" style="fill-rule:evenodd;clip-rule:evenodd;stroke-linejoin:round;stroke-miterlimit:2;">
    <g transform="matrix(-0.00114348,0,0,-0.00114348,16.2567,11.4539)">
        <g id="mrsServiceInDevelopment">
            <path d="M6930,9590C6352,9530 5839,9289 5439,8890C5294,8746 5218,8653 5109,8487C4931,8216 4810,7905 4750,7569C4719,7396 4711,7038 4734,6860C4755,6705 4790,6545 4836,6399L4872,6287L2872,4286C1773,3185 859,2267 843,2245C690,2044 616,1765 649,1516C729,919 1309,525 1890,673C2002,702 2078,734 2180,797C2245,836 2534,1122 4271,2857L6287,4872L6396,4837C6796,4707 7228,4681 7635,4761C8094,4852 8515,5072 8854,5400C9472,5997 9731,6877 9534,7710C9512,7803 9456,7990 9442,8014C9440,8018 9092,7677 8671,7256L7904,6489L7434,6544C7176,6574 6896,6607 6812,6617C6729,6626 6655,6637 6648,6641C6640,6646 6610,6870 6563,7277L6489,7904L8023,9438L7989,9453C7894,9492 7661,9551 7500,9575C7374,9594 7049,9602 6930,9590Z" style="fill:rgb(0,102,210);fill-rule:nonzero;"/>
        </g>
    </g>
</svg>
