<?xml version="1.0" encoding="UTF-8" standalone="no"?>
<!DOCTYPE svg PUBLIC "-//W3C//DTD SVG 1.1//EN" "http://www.w3.org/Graphics/SVG/1.1/DTD/svg11.dtd">
<svg width="100%" height="100%" viewBox="0 0 16 16" version="1.1" xmlns="http://www.w3.org/2000/svg" xmlns:xlink="http://www.w3.org/1999/xlink" xml:space="preserve" xmlns:serif="http://www.serif.com/" style="fill-rule:evenodd;clip-rule:evenodd;stroke-linejoin:round;stroke-miterlimit:2;">
    <g transform="matrix(0.015625,0,0,0.015625,0,4)">
        <g id="mrsServicePublished">
            <path d="M226.752,447.993C225.836,448.002 224.919,448 224,448C100.371,448 -0,361.859 -0,255.757C-0,149.656 100.371,63.515 224,63.515C224.919,63.515 225.836,63.512 226.752,63.522L800,63.515C800.918,63.515 801.835,63.517 802.752,63.522C925.115,64.789 1024,150.444 1024,255.757C1024,361.071 925.115,446.726 802.752,447.993C801.835,447.998 800.918,448 800,448L226.752,447.993ZM125.79,385.772L277.979,385.772L277.979,341.255L174.477,341.255L174.477,127.784L125.79,127.784L125.79,385.772ZM335.373,385.772L384.061,385.772L384.061,127.784L335.373,127.784L335.373,385.772ZM514.567,385.772L574.54,385.772L652.086,127.784L597.353,127.784L546.005,325.79L543.103,325.79L491.755,127.784L437.021,127.784L514.567,385.772ZM705.046,385.772L859.171,385.772L859.171,341.255L753.734,341.255L753.734,276.087L853.206,276.087L853.206,234.609L753.734,234.609L753.734,172.302L859.171,172.302L859.171,127.784L705.046,127.784L705.046,385.772Z" style="fill:rgb(4,179,7);"/>
        </g>
    </g>
</svg>
