<?xml version="1.0" encoding="UTF-8" standalone="no"?>
<!DOCTYPE svg PUBLIC "-//W3C//DTD SVG 1.1//EN" "http://www.w3.org/Graphics/SVG/1.1/DTD/svg11.dtd">
<svg width="100%" height="100%" viewBox="0 0 16 16" version="1.1" xmlns="http://www.w3.org/2000/svg" xmlns:xlink="http://www.w3.org/1999/xlink" xml:space="preserve" xmlns:serif="http://www.serif.com/" style="fill-rule:evenodd;clip-rule:evenodd;stroke-linejoin:round;stroke-miterlimit:2;">
    <g id="Private" transform="matrix(1.00896,0,0,1.00896,-0.506419,0.117929)">
        <g id="mrsSchemaPrivate">
            <g id="Private1" serif:id="Private">
                <path d="M13.386,-0.117C15.027,-0.117 16.36,1.215 16.36,2.856C16.36,4.498 15.027,5.83 13.386,5.83C11.745,5.83 10.413,4.498 10.413,2.856C10.413,1.215 11.745,-0.117 13.386,-0.117ZM14.361,1.187C14.075,1.02 13.742,0.923 13.386,0.923C12.32,0.923 11.453,1.79 11.453,2.856C11.453,3.212 11.55,3.545 11.717,3.831L14.361,1.187ZM12.391,4.514C12.682,4.689 13.023,4.789 13.386,4.789C14.453,4.789 15.319,3.923 15.319,2.856C15.319,2.493 15.219,2.152 15.044,1.861L12.391,4.514Z" style="fill:rgb(0,102,210);"/>
            </g>
        </g>
    </g>
</svg>
