<?xml version="1.0" encoding="UTF-8" standalone="no"?>
<!DOCTYPE svg PUBLIC "-//W3C//DTD SVG 1.1//EN" "http://www.w3.org/Graphics/SVG/1.1/DTD/svg11.dtd">
<svg width="100%" height="100%" viewBox="0 0 128 128" version="1.1" xmlns="http://www.w3.org/2000/svg" xmlns:xlink="http://www.w3.org/1999/xlink" xml:space="preserve" xmlns:serif="http://www.serif.com/" style="fill-rule:evenodd;clip-rule:evenodd;stroke-linejoin:round;stroke-miterlimit:2;">
    <g transform="matrix(2.13333,0,0,2.13333,-76.7999,-88.8394)">
        <path d="M91.487,87.175C91.487,87.175 85.51,87.426 83.346,88.101C82.72,88.297 81.528,88.453 81.667,89.185C81.726,89.493 82.053,90.029 82.319,90.446C82.828,91.245 83.691,92.317 84.459,92.878C85.3,93.494 86.164,94.15 87.065,94.683C88.666,95.629 90.455,96.168 91.997,97.115C92.906,97.672 93.809,98.378 94.696,99.008C95.133,99.318 95.436,99.774 95.999,99.999C96.027,100.011 95.615,99.037 95.347,98.645C94.965,98.088 94.585,97.593 94.175,97.209C92.583,95.721 91.453,94.619 89.856,93.51C88.583,92.625 85.466,90.996 85.11,89.905C84.964,89.456 87.031,89.39 87.902,89.275C89.336,89.087 90.701,89.057 92.146,88.697C92.798,88.516 94.121,87.959 94.064,87.852C93.566,86.902 93.17,86.244 91.993,85.241C89.938,83.488 87.545,81.965 85.203,80.533C83.905,79.739 82.299,79.222 80.923,78.549C80.46,78.323 79.646,78.206 79.34,77.829C78.617,76.934 78.223,75.805 77.666,74.763C76.497,72.587 75.768,68.921 72.268,63.41C68.009,56.703 63.494,52.62 56.448,48.628C54.949,47.781 53.186,47.259 51.237,47.007C50.22,46.875 49.189,46.888 48.165,46.826C47.541,46.575 46.89,45.834 46.304,45.474C43.97,44.046 37.983,40.939 36.254,45.023C35.163,47.601 37.885,50.118 38.859,51.422C39.543,52.34 40.418,53.367 40.907,54.396C41.228,55.075 41.283,55.754 41.558,56.47C42.235,58.235 42.824,60.155 43.698,61.786C44.141,62.612 44.413,63.147 44.972,63.885C45.315,64.338 46.134,64.994 46.152,65.537C46.184,66.505 45.603,67.56 45.281,68.548C43.826,72.988 44.374,78.506 46.49,81.794C47.14,82.802 48.669,84.967 50.771,84.138C52.61,83.411 52.199,81.163 52.725,79.179C52.844,78.73 52.771,78.401 53.005,78.099L53.005,78.187C53.563,79.27 54.121,80.352 54.68,81.432C55.92,83.366 57.965,85.565 59.808,87.086C60.732,87.848 63.037,89.299 63.015,89.277C62.669,88.922 62.248,88.487 61.939,88.193C61.21,87.502 60.4,86.642 59.798,85.849C58.102,83.619 56.604,81.179 55.238,78.64C54.586,77.428 54.117,76.005 53.669,74.983C53.46,74.506 53.207,73.086 52.818,73.412C51.867,74.21 51.613,75.124 51.155,76.198C50.634,77.422 50.887,80.076 49.986,81.925C49.91,82.081 49.671,82.203 49.561,82.154C49.043,81.926 48.236,80.577 47.797,79.451C46.407,75.888 46.148,73.371 47.424,68.908C47.667,68.061 48.523,65.111 48.016,64.342C47.774,63.57 46.938,62.989 46.49,62.398C45.937,61.674 45.384,60.715 45.001,59.875C44.004,57.69 43.538,55.235 42.489,53.028C41.987,51.97 41.138,50.902 40.442,49.964C39.67,48.923 38.806,48.155 38.208,46.898C37.995,46.452 37.795,46.254 38.022,45.743C38.146,45.466 38.311,45.335 38.58,45.204C39.407,44.803 40.623,45.34 41.186,45.565C42.678,46.165 43.923,46.735 45.187,47.548C45.795,47.937 46.408,48.69 47.142,48.898C47.421,48.898 47.7,48.893 47.979,48.898C49.411,48.925 50.757,48.99 51.981,49.35C54.144,49.986 56.083,50.978 57.844,52.052C63.208,55.334 67.217,59.191 70.373,64.677C73.348,69.85 74.261,73.018 75.115,74.894C75.966,76.766 76.183,77.805 77.386,79.362C78.019,80.179 80.464,80.619 81.574,81.072C82.353,81.391 83.675,81.822 84.413,82.252C85.822,83.073 87.139,83.957 88.461,84.858C89.121,85.309 90.537,86.355 91.487,87.175Z" style="fill:rgb(0,90,133);"/>
    </g>
    <g transform="matrix(2.13333,0,0,2.13333,-76.7999,-88.8394)">
        <path d="M49.655,52.774C49.006,52.502 48.49,52.846 47.979,52.955C47.979,52.986 48.663,53.434 49.375,54.667C50.043,55.824 49.996,55.928 50.306,56.558C50.337,56.529 51.412,55.538 51.164,54.612C51.053,54.201 50.971,53.955 50.771,53.676C50.504,53.303 50.094,52.959 49.655,52.774Z" style="fill:rgb(0,90,133);"/>
    </g>
</svg>
