<?xml version="1.0" encoding="UTF-8" standalone="no"?>
<!DOCTYPE svg PUBLIC "-//W3C//DTD SVG 1.1//EN" "http://www.w3.org/Graphics/SVG/1.1/DTD/svg11.dtd">
<svg width="31" height="13" viewBox="0 0 31 13" version="1.1" xmlns="http://www.w3.org/2000/svg" xmlns:xlink="http://www.w3.org/1999/xlink" xml:space="preserve" xmlns:serif="http://www.serif.com/" style="fill-rule:evenodd;clip-rule:evenodd;stroke-linejoin:round;stroke-miterlimit:2;">
    <g transform="matrix(1,0,0,1,-53,-47)">
        <g id="Small">
        </g>
        <g id="Medium">
        </g>
        <g id="BLOB" transform="matrix(1,0,0,1,-131,-167)">
            <path d="M215,215.676L215,225.324C215,226.249 214.249,227 213.324,227L185.676,227C184.751,227 184,226.249 184,225.324L184,215.676C184,214.751 184.751,214 185.676,214L213.324,214C214.249,214 215,214.751 215,215.676ZM186.986,217.163L186.986,224.018L190.308,224.018C190.615,224.018 190.914,223.979 191.205,223.902C191.497,223.826 191.756,223.707 191.983,223.547C192.21,223.387 192.391,223.181 192.525,222.928C192.66,222.675 192.727,222.376 192.727,222.03C192.727,221.602 192.623,221.235 192.415,220.931C192.207,220.627 191.892,220.414 191.469,220.293C191.777,220.146 192.009,219.957 192.165,219.726C192.322,219.496 192.401,219.208 192.401,218.862C192.401,218.542 192.348,218.274 192.242,218.056C192.137,217.838 191.988,217.664 191.796,217.533C191.604,217.402 191.373,217.307 191.105,217.25C190.836,217.192 190.538,217.163 190.212,217.163L186.986,217.163ZM188.493,219.938L188.493,218.334L189.905,218.334C190.039,218.334 190.169,218.346 190.293,218.368C190.418,218.39 190.529,218.43 190.625,218.488C190.721,218.546 190.797,218.626 190.855,218.728C190.913,218.83 190.941,218.962 190.941,219.122C190.941,219.41 190.855,219.618 190.682,219.746C190.509,219.874 190.289,219.938 190.02,219.938L188.493,219.938ZM188.493,222.846L188.493,220.965L190.135,220.965C190.461,220.965 190.724,221.04 190.922,221.19C191.121,221.341 191.22,221.592 191.22,221.944C191.22,222.123 191.189,222.27 191.129,222.386C191.068,222.501 190.986,222.592 190.884,222.659C190.781,222.726 190.663,222.774 190.529,222.803C190.394,222.832 190.253,222.846 190.106,222.846L188.493,222.846ZM206.906,217.163L206.906,224.018L210.228,224.018C210.535,224.018 210.834,223.979 211.125,223.902C211.417,223.826 211.676,223.707 211.903,223.547C212.13,223.387 212.311,223.181 212.445,222.928C212.58,222.675 212.647,222.376 212.647,222.03C212.647,221.602 212.543,221.235 212.335,220.931C212.127,220.627 211.812,220.414 211.389,220.293C211.697,220.146 211.929,219.957 212.085,219.726C212.242,219.496 212.321,219.208 212.321,218.862C212.321,218.542 212.268,218.274 212.162,218.056C212.057,217.838 211.908,217.664 211.716,217.533C211.524,217.402 211.293,217.307 211.025,217.25C210.756,217.192 210.458,217.163 210.132,217.163L206.906,217.163ZM208.413,222.846L208.413,220.965L210.055,220.965C210.381,220.965 210.644,221.04 210.842,221.19C211.041,221.341 211.14,221.592 211.14,221.944C211.14,222.123 211.109,222.27 211.049,222.386C210.988,222.501 210.906,222.592 210.804,222.659C210.701,222.726 210.583,222.774 210.449,222.803C210.314,222.832 210.173,222.846 210.026,222.846L208.413,222.846ZM208.413,219.938L208.413,218.334L209.825,218.334C209.959,218.334 210.089,218.346 210.213,218.368C210.338,218.39 210.449,218.43 210.545,218.488C210.641,218.546 210.717,218.626 210.775,218.728C210.833,218.83 210.861,218.962 210.861,219.122C210.861,219.41 210.775,219.618 210.602,219.746C210.429,219.874 210.209,219.938 209.94,219.938L208.413,219.938ZM199.14,220.619C199.14,221.118 199.217,221.584 199.37,222.016C199.524,222.448 199.745,222.824 200.033,223.144C200.321,223.464 200.674,223.715 201.093,223.898C201.513,224.08 201.985,224.171 202.509,224.171C203.041,224.171 203.514,224.08 203.93,223.898C204.346,223.715 204.698,223.464 204.986,223.144C205.274,222.824 205.495,222.448 205.649,222.016C205.802,221.584 205.879,221.118 205.879,220.619C205.879,220.107 205.802,219.632 205.649,219.194C205.495,218.755 205.274,218.373 204.986,218.046C204.698,217.72 204.346,217.464 203.93,217.278C203.514,217.093 203.041,217 202.509,217C201.985,217 201.513,217.093 201.093,217.278C200.674,217.464 200.321,217.72 200.033,218.046C199.745,218.373 199.524,218.755 199.37,219.194C199.217,219.632 199.14,220.107 199.14,220.619ZM200.647,220.619C200.647,220.318 200.681,220.027 200.748,219.746C200.815,219.464 200.922,219.213 201.069,218.992C201.217,218.771 201.409,218.595 201.645,218.464C201.882,218.333 202.17,218.267 202.509,218.267C202.849,218.267 203.137,218.333 203.373,218.464C203.61,218.595 203.802,218.771 203.949,218.992C204.097,219.213 204.204,219.464 204.271,219.746C204.338,220.027 204.372,220.318 204.372,220.619C204.372,220.907 204.338,221.187 204.271,221.459C204.204,221.731 204.097,221.976 203.949,222.194C203.802,222.411 203.61,222.586 203.373,222.717C203.137,222.848 202.849,222.914 202.509,222.914C202.17,222.914 201.882,222.848 201.645,222.717C201.409,222.586 201.217,222.411 201.069,222.194C200.922,221.976 200.815,221.731 200.748,221.459C200.681,221.187 200.647,220.907 200.647,220.619ZM194.033,217.163L194.033,224.018L198.881,224.018L198.881,222.75L195.54,222.75L195.54,217.163L194.033,217.163Z"/>
        </g>
        <g id="NULL">
        </g>
    </g>
</svg>
