<?xml version="1.0" encoding="UTF-8" standalone="no"?>
<!DOCTYPE svg PUBLIC "-//W3C//DTD SVG 1.1//EN" "http://www.w3.org/Graphics/SVG/1.1/DTD/svg11.dtd">
<svg width="46" height="13" viewBox="0 0 46 13" version="1.1" xmlns="http://www.w3.org/2000/svg" xmlns:xlink="http://www.w3.org/1999/xlink" xml:space="preserve" xmlns:serif="http://www.serif.com/" style="fill-rule:evenodd;clip-rule:evenodd;stroke-linejoin:round;stroke-miterlimit:2;">
    <g transform="matrix(1,0,0,1,-196,-47)">
        <g id="Small">
        </g>
        <g id="Medium">
        </g>
        <g id="VECTOR" transform="matrix(1,0,0,1,12,-167)">
            <path d="M230,215.676L230,225.324C230,226.249 229.249,227 228.324,227L185.676,227C184.751,227 184,226.249 184,225.324L184,215.676C184,214.751 184.751,214 185.676,214L228.324,214C229.249,214 230,214.751 230,215.676ZM204.825,219.467L206.284,219.467C206.239,219.07 206.13,218.718 205.957,218.411C205.785,218.104 205.565,217.846 205.3,217.638C205.034,217.43 204.733,217.272 204.397,217.163C204.061,217.054 203.705,217 203.327,217C202.802,217 202.33,217.093 201.911,217.278C201.492,217.464 201.138,217.72 200.85,218.046C200.562,218.373 200.341,218.755 200.188,219.194C200.034,219.632 199.957,220.107 199.957,220.619C199.957,221.118 200.034,221.584 200.188,222.016C200.341,222.448 200.562,222.824 200.85,223.144C201.138,223.464 201.492,223.715 201.911,223.898C202.33,224.08 202.802,224.171 203.327,224.171C203.749,224.171 204.137,224.107 204.489,223.979C204.841,223.851 205.148,223.666 205.41,223.422C205.673,223.179 205.884,222.885 206.044,222.539C206.204,222.194 206.303,221.806 206.341,221.378L204.882,221.378C204.825,221.838 204.666,222.21 204.407,222.491C204.148,222.773 203.788,222.914 203.327,222.914C202.988,222.914 202.7,222.848 202.463,222.717C202.226,222.586 202.034,222.411 201.887,222.194C201.74,221.976 201.633,221.731 201.565,221.459C201.498,221.187 201.465,220.907 201.465,220.619C201.465,220.318 201.498,220.027 201.565,219.746C201.633,219.464 201.74,219.213 201.887,218.992C202.034,218.771 202.226,218.595 202.463,218.464C202.7,218.333 202.988,218.267 203.327,218.267C203.513,218.267 203.69,218.298 203.86,218.358C204.029,218.419 204.181,218.504 204.316,218.613C204.45,218.722 204.562,218.848 204.652,218.992C204.741,219.136 204.799,219.294 204.825,219.467ZM194.034,217.163L194.034,224.018L199.237,224.018L199.237,222.75L195.541,222.75L195.541,221.07L198.863,221.07L198.863,219.899L195.541,219.899L195.541,218.43L199.161,218.43L199.161,217.163L194.034,217.163ZM191.173,224.018L193.449,217.163L191.893,217.163L190.348,221.982L190.329,221.982L188.802,217.163L187.257,217.163L189.474,224.018L191.173,224.018ZM212.745,220.619C212.745,221.118 212.821,221.584 212.975,222.016C213.129,222.448 213.349,222.824 213.637,223.144C213.925,223.464 214.279,223.715 214.698,223.898C215.117,224.08 215.589,224.171 216.114,224.171C216.645,224.171 217.119,224.08 217.535,223.898C217.951,223.715 218.303,223.464 218.591,223.144C218.879,222.824 219.1,222.448 219.253,222.016C219.407,221.584 219.484,221.118 219.484,220.619C219.484,220.107 219.407,219.632 219.253,219.194C219.1,218.755 218.879,218.373 218.591,218.046C218.303,217.72 217.951,217.464 217.535,217.278C217.119,217.093 216.645,217 216.114,217C215.589,217 215.117,217.093 214.698,217.278C214.279,217.464 213.925,217.72 213.637,218.046C213.349,218.373 213.129,218.755 212.975,219.194C212.821,219.632 212.745,220.107 212.745,220.619ZM214.252,220.619C214.252,220.318 214.285,220.027 214.353,219.746C214.42,219.464 214.527,219.213 214.674,218.992C214.821,218.771 215.013,218.595 215.25,218.464C215.487,218.333 215.775,218.267 216.114,218.267C216.453,218.267 216.741,218.333 216.978,218.464C217.215,218.595 217.407,218.771 217.554,218.992C217.701,219.213 217.809,219.464 217.876,219.746C217.943,220.027 217.977,220.318 217.977,220.619C217.977,220.907 217.943,221.187 217.876,221.459C217.809,221.731 217.701,221.976 217.554,222.194C217.407,222.411 217.215,222.586 216.978,222.717C216.741,222.848 216.453,222.914 216.114,222.914C215.775,222.914 215.487,222.848 215.25,222.717C215.013,222.586 214.821,222.411 214.674,222.194C214.527,221.976 214.42,221.731 214.353,221.459C214.285,221.187 214.252,220.907 214.252,220.619ZM220.991,217.163L220.991,224.018L222.498,224.018L222.498,221.339L224.005,221.339C224.383,221.339 224.655,221.422 224.821,221.589C224.988,221.755 225.097,222.018 225.148,222.376C225.186,222.651 225.215,222.939 225.234,223.24C225.253,223.541 225.305,223.8 225.388,224.018L226.895,224.018C226.825,223.922 226.772,223.805 226.737,223.667C226.701,223.53 226.676,223.384 226.66,223.23C226.644,223.077 226.633,222.926 226.626,222.779C226.62,222.632 226.613,222.504 226.607,222.395C226.594,222.222 226.57,222.05 226.535,221.877C226.5,221.704 226.444,221.546 226.367,221.402C226.29,221.258 226.191,221.133 226.069,221.027C225.948,220.922 225.794,220.843 225.609,220.792L225.609,220.773C225.993,220.619 226.269,220.395 226.439,220.101C226.609,219.806 226.693,219.458 226.693,219.054C226.693,218.792 226.647,218.547 226.554,218.32C226.461,218.093 226.327,217.893 226.151,217.72C225.975,217.547 225.764,217.411 225.517,217.312C225.271,217.213 224.994,217.163 224.687,217.163L220.991,217.163ZM222.498,220.264L222.498,218.334L224.149,218.334C224.495,218.334 224.754,218.41 224.927,218.56C225.1,218.71 225.186,218.952 225.186,219.285C225.186,219.63 225.1,219.88 224.927,220.034C224.754,220.187 224.495,220.264 224.149,220.264L222.498,220.264ZM208.693,218.43L208.693,224.018L210.201,224.018L210.201,218.43L212.255,218.43L212.255,217.163L206.639,217.163L206.639,218.43L208.693,218.43Z"/>
        </g>
        <g id="NULL">
        </g>
    </g>
</svg>
