<?xml version="1.0" encoding="UTF-8" standalone="no"?>
<!DOCTYPE svg PUBLIC "-//W3C//DTD SVG 1.1//EN" "http://www.w3.org/Graphics/SVG/1.1/DTD/svg11.dtd">
<svg width="61" height="13" viewBox="0 0 61 13" version="1.1" xmlns="http://www.w3.org/2000/svg" xmlns:xlink="http://www.w3.org/1999/xlink" xml:space="preserve" xmlns:serif="http://www.serif.com/" style="fill-rule:evenodd;clip-rule:evenodd;stroke-linejoin:round;stroke-miterlimit:2;">
    <g transform="matrix(1,0,0,1,-90,-47)">
        <g id="Small">
        </g>
        <g id="Medium">
        </g>
        <g id="GEOMETRY" transform="matrix(1,0,0,1,-94,-167)">
            <path d="M245,215.676L245,225.324C245,226.249 244.249,227 243.324,227L185.676,227C184.751,227 184,226.249 184,225.324L184,215.676C184,214.751 184.751,214 185.676,214L243.324,214C244.249,214 245,214.751 245,215.676ZM217.413,217.163L217.413,224.018L222.616,224.018L222.616,222.75L218.92,222.75L218.92,221.07L222.241,221.07L222.241,219.899L218.92,219.899L218.92,218.43L222.539,218.43L222.539,217.163L217.413,217.163ZM192.491,223.24L192.645,224.018L193.605,224.018L193.605,220.312L190.725,220.312L190.725,221.435L192.241,221.435C192.197,221.915 192.038,222.282 191.766,222.534C191.494,222.787 191.109,222.914 190.609,222.914C190.27,222.914 189.982,222.848 189.745,222.717C189.509,222.586 189.317,222.411 189.169,222.194C189.022,221.976 188.915,221.731 188.848,221.459C188.781,221.187 188.747,220.907 188.747,220.619C188.747,220.318 188.781,220.027 188.848,219.746C188.915,219.464 189.022,219.213 189.169,218.992C189.317,218.771 189.509,218.595 189.745,218.464C189.982,218.333 190.27,218.267 190.609,218.267C190.974,218.267 191.285,218.363 191.541,218.555C191.797,218.747 191.969,219.035 192.059,219.419L193.499,219.419C193.461,219.029 193.355,218.683 193.182,218.382C193.009,218.082 192.79,217.829 192.525,217.624C192.259,217.419 191.961,217.264 191.632,217.158C191.302,217.053 190.961,217 190.609,217C190.085,217 189.613,217.093 189.193,217.278C188.774,217.464 188.421,217.72 188.133,218.046C187.845,218.373 187.624,218.755 187.47,219.194C187.317,219.632 187.24,220.107 187.24,220.619C187.24,221.118 187.317,221.584 187.47,222.016C187.624,222.448 187.845,222.824 188.133,223.144C188.421,223.464 188.774,223.715 189.193,223.898C189.613,224.08 190.085,224.171 190.609,224.171C190.942,224.171 191.272,224.102 191.598,223.965C191.925,223.827 192.222,223.586 192.491,223.24ZM208.897,217.163L208.897,224.018L210.309,224.018L210.309,219.208L210.328,219.208L212.008,224.018L213.169,224.018L214.849,219.16L214.869,219.16L214.869,224.018L216.28,224.018L216.28,217.163L214.158,217.163L212.641,221.877L212.622,221.877L211.019,217.163L208.897,217.163ZM225.15,218.43L225.15,224.018L226.657,224.018L226.657,218.43L228.712,218.43L228.712,217.163L223.096,217.163L223.096,218.43L225.15,218.43ZM237.851,221.349L237.851,224.018L239.358,224.018L239.358,221.387L241.902,217.163L240.222,217.163L238.629,219.87L237.025,217.163L235.336,217.163L237.851,221.349ZM229.499,217.163L229.499,224.018L231.006,224.018L231.006,221.339L232.513,221.339C232.891,221.339 233.163,221.422 233.329,221.589C233.496,221.755 233.605,222.018 233.656,222.376C233.694,222.651 233.723,222.939 233.742,223.24C233.761,223.541 233.813,223.8 233.896,224.018L235.403,224.018C235.333,223.922 235.28,223.805 235.245,223.667C235.209,223.53 235.184,223.384 235.168,223.23C235.152,223.077 235.141,222.926 235.134,222.779C235.128,222.632 235.121,222.504 235.115,222.395C235.102,222.222 235.078,222.05 235.043,221.877C235.008,221.704 234.952,221.546 234.875,221.402C234.798,221.258 234.699,221.133 234.577,221.027C234.456,220.922 234.302,220.843 234.117,220.792L234.117,220.773C234.501,220.619 234.777,220.395 234.947,220.101C235.117,219.806 235.201,219.458 235.201,219.054C235.201,218.792 235.155,218.547 235.062,218.32C234.969,218.093 234.835,217.893 234.659,217.72C234.483,217.547 234.272,217.411 234.025,217.312C233.779,217.213 233.502,217.163 233.195,217.163L229.499,217.163ZM231.006,220.264L231.006,218.334L232.657,218.334C233.003,218.334 233.262,218.41 233.435,218.56C233.608,218.71 233.694,218.952 233.694,219.285C233.694,219.63 233.608,219.88 233.435,220.034C233.262,220.187 233.003,220.264 232.657,220.264L231.006,220.264ZM195.016,217.163L195.016,224.018L200.219,224.018L200.219,222.75L196.523,222.75L196.523,221.07L199.845,221.07L199.845,219.899L196.523,219.899L196.523,218.43L200.142,218.43L200.142,217.163L195.016,217.163ZM200.939,220.619C200.939,221.118 201.016,221.584 201.169,222.016C201.323,222.448 201.544,222.824 201.832,223.144C202.12,223.464 202.473,223.715 202.893,223.898C203.312,224.08 203.784,224.171 204.309,224.171C204.84,224.171 205.313,224.08 205.729,223.898C206.145,223.715 206.497,223.464 206.785,223.144C207.073,222.824 207.294,222.448 207.448,222.016C207.601,221.584 207.678,221.118 207.678,220.619C207.678,220.107 207.601,219.632 207.448,219.194C207.294,218.755 207.073,218.373 206.785,218.046C206.497,217.72 206.145,217.464 205.729,217.278C205.313,217.093 204.84,217 204.309,217C203.784,217 203.312,217.093 202.893,217.278C202.473,217.464 202.12,217.72 201.832,218.046C201.544,218.373 201.323,218.755 201.169,219.194C201.016,219.632 200.939,220.107 200.939,220.619ZM202.446,220.619C202.446,220.318 202.48,220.027 202.547,219.746C202.614,219.464 202.721,219.213 202.869,218.992C203.016,218.771 203.208,218.595 203.445,218.464C203.681,218.333 203.969,218.267 204.309,218.267C204.648,218.267 204.936,218.333 205.173,218.464C205.409,218.595 205.601,218.771 205.749,218.992C205.896,219.213 206.003,219.464 206.07,219.746C206.137,220.027 206.171,220.318 206.171,220.619C206.171,220.907 206.137,221.187 206.07,221.459C206.003,221.731 205.896,221.976 205.749,222.194C205.601,222.411 205.409,222.586 205.173,222.717C204.936,222.848 204.648,222.914 204.309,222.914C203.969,222.914 203.681,222.848 203.445,222.717C203.208,222.586 203.016,222.411 202.869,222.194C202.721,221.976 202.614,221.731 202.547,221.459C202.48,221.187 202.446,220.907 202.446,220.619Z"/>
        </g>
        <g id="NULL">
        </g>
    </g>
</svg>
