<?xml version="1.0" encoding="UTF-8" standalone="no"?>
<!DOCTYPE svg PUBLIC "-//W3C//DTD SVG 1.1//EN" "http://www.w3.org/Graphics/SVG/1.1/DTD/svg11.dtd">
<svg width="31" height="13" viewBox="0 0 31 13" version="1.1" xmlns="http://www.w3.org/2000/svg" xmlns:xlink="http://www.w3.org/1999/xlink" xml:space="preserve" xmlns:serif="http://www.serif.com/" style="fill-rule:evenodd;clip-rule:evenodd;stroke-linejoin:round;stroke-miterlimit:2;">
    <g transform="matrix(1,0,0,1,-16,-47)">
        <g id="Small">
        </g>
        <g id="Medium">
        </g>
        <g id="NULL" transform="matrix(1.2,0,0,1.2,-3.2,33.8)">
            <g transform="matrix(1,0,0,1,-168,-203)">
                <path d="M209.833,215.396L209.833,223.437C209.833,224.208 209.208,224.833 208.437,224.833L185.396,224.833C184.626,224.833 184,224.208 184,223.437L184,215.396C184,214.626 184.626,214 185.396,214L208.437,214C209.208,214 209.833,214.626 209.833,215.396ZM209,215.376C209,215.077 208.757,214.833 208.457,214.833L185.376,214.833C185.077,214.833 184.833,215.077 184.833,215.376L184.833,223.457C184.833,223.757 185.077,224 185.376,224L208.457,224C208.757,224 209,223.757 209,223.457L209,215.376Z"/>
            </g>
            <g transform="matrix(0.035,0,0,0.035,-13.6249,12.5864)">
                <path d="M917.854,26.102L917.854,192.702L952.154,192.702L952.154,81.169L952.621,81.169L1021.92,192.702L1058.55,192.702L1058.55,26.102L1024.25,26.102L1024.25,137.869L1023.79,137.869L954.254,26.102L917.854,26.102Z" style="fill-rule:nonzero;"/>
                <path d="M1225.15,129.702L1225.15,26.102L1188.52,26.102L1188.52,129.702C1188.52,142.146 1186.03,151.285 1181.05,157.119C1176.08,162.952 1167.05,165.869 1153.99,165.869C1146.52,165.869 1140.57,164.819 1136.14,162.719C1131.7,160.619 1128.24,157.896 1125.75,154.552C1123.27,151.207 1121.63,147.357 1120.85,143.002C1120.08,138.646 1119.69,134.213 1119.69,129.702L1119.69,26.102L1083.05,26.102L1083.05,129.702C1083.05,152.413 1089.24,169.213 1101.6,180.102C1113.97,190.991 1131.43,196.435 1153.99,196.435C1176.23,196.435 1193.65,190.952 1206.25,179.985C1218.85,169.019 1225.15,152.257 1225.15,129.702Z" style="fill-rule:nonzero;"/>
                <path d="M1249.65,26.102L1249.65,192.702L1367.49,192.702L1367.49,161.902L1286.29,161.902L1286.29,26.102L1249.65,26.102Z" style="fill-rule:nonzero;"/>
                <path d="M1392.69,26.102L1392.69,192.702L1510.52,192.702L1510.52,161.902L1429.32,161.902L1429.32,26.102L1392.69,26.102Z" style="fill-rule:nonzero;"/>
            </g>
        </g>
    </g>
</svg>
