<?xml version="1.0" encoding="UTF-8" standalone="no"?>
<!DOCTYPE svg PUBLIC "-//W3C//DTD SVG 1.1//EN" "http://www.w3.org/Graphics/SVG/1.1/DTD/svg11.dtd">
<svg width="33" height="13" viewBox="0 0 33 13" version="1.1" xmlns="http://www.w3.org/2000/svg" xmlns:xlink="http://www.w3.org/1999/xlink" xml:space="preserve" xmlns:serif="http://www.serif.com/" style="fill-rule:evenodd;clip-rule:evenodd;stroke-linejoin:round;stroke-miterlimit:2;">
    <g transform="matrix(1,0,0,1,-157,-47)">
        <g id="Small">
        </g>
        <g id="Medium">
        </g>
        <g id="JSON" transform="matrix(1,0,0,1,-27,-167)">
            <path d="M217,215.676L217,225.324C217,226.249 216.249,227 215.324,227L185.676,227C184.751,227 184,226.249 184,225.324L184,215.676C184,214.751 184.751,214 185.676,214L215.324,214C216.249,214 217,214.751 217,215.676ZM199.641,220.619C199.641,221.118 199.717,221.584 199.871,222.016C200.025,222.448 200.245,222.824 200.533,223.144C200.821,223.464 201.175,223.715 201.594,223.898C202.013,224.08 202.485,224.171 203.01,224.171C203.541,224.171 204.015,224.08 204.431,223.898C204.847,223.715 205.199,223.464 205.487,223.144C205.775,222.824 205.996,222.448 206.149,222.016C206.303,221.584 206.38,221.118 206.38,220.619C206.38,220.107 206.303,219.632 206.149,219.194C205.996,218.755 205.775,218.373 205.487,218.046C205.199,217.72 204.847,217.464 204.431,217.278C204.015,217.093 203.541,217 203.01,217C202.485,217 202.013,217.093 201.594,217.278C201.175,217.464 200.821,217.72 200.533,218.046C200.245,218.373 200.025,218.755 199.871,219.194C199.717,219.632 199.641,220.107 199.641,220.619ZM201.148,220.619C201.148,220.318 201.181,220.027 201.249,219.746C201.316,219.464 201.423,219.213 201.57,218.992C201.717,218.771 201.909,218.595 202.146,218.464C202.383,218.333 202.671,218.267 203.01,218.267C203.349,218.267 203.637,218.333 203.874,218.464C204.111,218.595 204.303,218.771 204.45,218.992C204.597,219.213 204.705,219.464 204.772,219.746C204.839,220.027 204.873,220.318 204.873,220.619C204.873,220.907 204.839,221.187 204.772,221.459C204.705,221.731 204.597,221.976 204.45,222.194C204.303,222.411 204.111,222.586 203.874,222.717C203.637,222.848 203.349,222.914 203.01,222.914C202.671,222.914 202.383,222.848 202.146,222.717C201.909,222.586 201.717,222.411 201.57,222.194C201.423,221.976 201.316,221.731 201.249,221.459C201.181,221.187 201.148,220.907 201.148,220.619ZM191.999,221.858L191.999,217.163L190.492,217.163L190.492,221.79C190.492,221.912 190.487,222.038 190.477,222.17C190.468,222.301 190.439,222.422 190.391,222.534C190.343,222.646 190.265,222.738 190.156,222.808C190.047,222.878 189.893,222.914 189.695,222.914C189.516,222.914 189.37,222.885 189.258,222.827C189.146,222.77 189.058,222.691 188.994,222.592C188.93,222.493 188.885,222.373 188.86,222.232C188.834,222.091 188.821,221.938 188.821,221.771L188.821,221.464L187.458,221.464L187.458,222.059C187.458,222.437 187.522,222.758 187.65,223.024C187.778,223.29 187.948,223.507 188.159,223.677C188.37,223.846 188.61,223.971 188.879,224.051C189.148,224.131 189.426,224.171 189.714,224.171C190.226,224.171 190.633,224.093 190.933,223.936C191.234,223.779 191.465,223.584 191.625,223.35C191.785,223.117 191.887,222.866 191.932,222.597C191.977,222.328 191.999,222.082 191.999,221.858ZM207.599,217.163L207.599,224.018L209.01,224.018L209.01,219.429L209.029,219.429L211.881,224.018L213.388,224.018L213.388,217.163L211.977,217.163L211.977,221.762L211.957,221.762L209.097,217.163L207.599,217.163ZM194.351,221.742L192.892,221.742C192.885,222.165 192.962,222.53 193.122,222.837C193.282,223.144 193.498,223.397 193.77,223.595C194.042,223.794 194.356,223.939 194.711,224.032C195.066,224.125 195.433,224.171 195.81,224.171C196.277,224.171 196.689,224.117 197.044,224.008C197.399,223.899 197.697,223.747 197.937,223.552C198.177,223.357 198.357,223.125 198.479,222.856C198.601,222.587 198.661,222.296 198.661,221.982C198.661,221.598 198.58,221.283 198.417,221.037C198.253,220.79 198.06,220.594 197.836,220.446C197.612,220.299 197.386,220.192 197.159,220.125C196.932,220.058 196.754,220.011 196.626,219.986C196.197,219.877 195.85,219.787 195.585,219.717C195.319,219.646 195.111,219.576 194.961,219.506C194.81,219.435 194.709,219.358 194.658,219.275C194.607,219.192 194.581,219.083 194.581,218.949C194.581,218.802 194.613,218.68 194.677,218.584C194.741,218.488 194.823,218.408 194.922,218.344C195.021,218.28 195.132,218.235 195.253,218.21C195.375,218.184 195.497,218.171 195.618,218.171C195.804,218.171 195.975,218.187 196.132,218.219C196.289,218.251 196.428,218.306 196.549,218.382C196.671,218.459 196.769,218.565 196.842,218.699C196.916,218.834 196.959,219.003 196.972,219.208L198.431,219.208C198.431,218.811 198.356,218.474 198.205,218.195C198.055,217.917 197.852,217.688 197.596,217.509C197.34,217.33 197.047,217.2 196.717,217.12C196.388,217.04 196.044,217 195.685,217C195.378,217 195.071,217.042 194.764,217.125C194.457,217.208 194.181,217.336 193.938,217.509C193.695,217.682 193.498,217.898 193.348,218.157C193.197,218.416 193.122,218.722 193.122,219.074C193.122,219.387 193.181,219.654 193.3,219.875C193.418,220.096 193.573,220.28 193.765,220.427C193.957,220.574 194.175,220.694 194.418,220.787C194.661,220.88 194.911,220.958 195.167,221.022C195.417,221.093 195.663,221.157 195.906,221.214C196.149,221.272 196.367,221.339 196.559,221.416C196.751,221.493 196.906,221.589 197.025,221.704C197.143,221.819 197.202,221.97 197.202,222.155C197.202,222.328 197.157,222.47 197.068,222.582C196.978,222.694 196.866,222.782 196.732,222.846C196.597,222.91 196.453,222.954 196.3,222.976C196.146,222.998 196.002,223.01 195.868,223.01C195.669,223.01 195.477,222.986 195.292,222.938C195.106,222.89 194.945,222.816 194.807,222.717C194.669,222.618 194.559,222.488 194.476,222.328C194.393,222.168 194.351,221.973 194.351,221.742Z"/>
        </g>
        <g id="NULL">
        </g>
    </g>
</svg>
