<?xml version="1.0" encoding="UTF-8" standalone="no"?>
<!DOCTYPE svg PUBLIC "-//W3C//DTD SVG 1.1//EN" "http://www.w3.org/Graphics/SVG/1.1/DTD/svg11.dtd">
<svg class="railroad-diagram" width="696.5" height="78" viewBox="0 0 696.5 78" id="addAuthApp" xmlns="http://www.w3.org/2000/svg" xmlns:xlink="http://www.w3.org/1999/xlink"><g transform="translate(.5 .5)"><g><path d="M20 37v20m0 -10h20"></path></g><g><path d="M40 47h0"></path><path d="M656.5 47h0"></path><path d="M40 47h20"></path><g><path d="M60 47h0"></path><g><path d="M60 47h10"></path><path d="M626.5 47h10"></path><g class="terminal "><path d="M70 47h0"></path><path d="M115.5 47h0"></path><rect x="70" y="36" width="45.5" height="22"></rect><text x="92.75" y="51">ADD</text></g><path d="M115.5 47h10"></path><path d="M125.5 47h10"></path><g class="terminal "><path d="M135.5 47h0"></path><path d="M189.5 47h0"></path><rect x="135.5" y="36" width="54" height="22"></rect><text x="162.5" y="51">AUTH</text></g><path d="M189.5 47h10"></path><path d="M199.5 47h10"></path><g class="terminal "><path d="M209.5 47h0"></path><path d="M255 47h0"></path><rect x="209.5" y="36" width="45.5" height="22"></rect><text x="232.25" y="51">APP</text></g><path d="M255 47h10"></path><path d="M265 47h10"></path><g class="non-terminal "><path d="M275 47h0"></path><path d="M388.5 47h0"></path><rect x="275" y="36" width="113.5" height="22" rx="10" ry="10"></rect><text x="331.75" y="51">authAppName</text></g><path d="M388.5 47h10"></path><g><path d="M398.5 47h0"></path><path d="M626.5 47h0"></path><path d="M398.5 47a10 10 0 0 0 10 -10v-7a10 10 0 0 1 10 -10"></path><g><path d="M418.5 20h188"></path></g><path d="M606.5 20a10 10 0 0 1 10 10v7a10 10 0 0 0 10 10"></path><path d="M398.5 47h20"></path><g><path d="M418.5 47h0"></path><path d="M606.5 47h0"></path><path d="M418.5 47h20"></path><g><path d="M438.5 47h0"></path><g><path d="M438.5 47h10"></path><path d="M576.5 47h10"></path><g class="terminal "><path d="M448.5 47h0"></path><path d="M485.5 47h0"></path><rect x="448.5" y="36" width="37" height="22"></rect><text x="467" y="51">IF</text></g><path d="M485.5 47h10"></path><path d="M495.5 47h10"></path><g class="terminal "><path d="M505.5 47h0"></path><path d="M576.5 47h0"></path><rect x="505.5" y="36" width="71" height="22"></rect><text x="541" y="51">EXISTS</text></g></g><path d="M586.5 47h0"></path></g><path d="M586.5 47h20"></path></g><path d="M606.5 47h20"></path></g></g><path d="M636.5 47h0"></path></g><path d="M636.5 47h20"></path></g><path d="M 656.5 47 h 20 m 0 -10 v 20"></path></g><defs><style type="text/css"><![CDATA[
svg.railroad-diagram path { stroke-width: 2; stroke: darkgray; fill: rgba(0, 0, 0, 0); }svg.railroad-diagram text { font: bold 12px Hack, "Source Code Pro", monospace; text-anchor: middle; fill: #404040; }svg.railroad-diagram text.comment { font: italic 10px Hack, "Source Code Pro", monospace; fill: #404040; }svg.railroad-diagram g.terminal rect { stroke-width: 2; stroke: #404040; fill: rgba(200, 200, 200, 0.8); }svg.railroad-diagram g.non-terminal rect { stroke-width: 2; stroke: #404040; fill: rgba(255, 255, 255, 1); }svg.railroad-diagram text.diagram-text { font-size: 12px Hack, "Source Code Pro", monospace; fill: red; }svg.railroad-diagram path.diagram-text { stroke-width: 1; stroke: red; fill: red; cursor: help; }
 ]]>
</style></defs></svg>