<?xml version="1.0" encoding="UTF-8" standalone="no"?>
<!DOCTYPE svg PUBLIC "-//W3C//DTD SVG 1.1//EN" "http://www.w3.org/Graphics/SVG/1.1/DTD/svg11.dtd">
<svg class="railroad-diagram" width="818" height="78" viewBox="0 0 818 78" id="allowNewUsersToRegister" xmlns="http://www.w3.org/2000/svg" xmlns:xlink="http://www.w3.org/1999/xlink"><g transform="translate(.5 .5)"><g><path d="M20 37v20m0 -10h20"></path></g><g><path d="M40 47h0"></path><path d="M778 47h0"></path><path d="M40 47h20"></path><g><path d="M60 47h0"></path><g><path d="M60 47h10"></path><path d="M748 47h10"></path><g><path d="M70 47h0"></path><path d="M272.5 47h0"></path><path d="M70 47a10 10 0 0 0 10 -10v-7a10 10 0 0 1 10 -10"></path><g><path d="M90 20h162.5"></path></g><path d="M252.5 20a10 10 0 0 1 10 10v7a10 10 0 0 0 10 10"></path><path d="M70 47h20"></path><g><path d="M90 47h0"></path><path d="M252.5 47h0"></path><path d="M90 47h20"></path><g><path d="M110 47h0"></path><g><path d="M110 47h10"></path><path d="M222.5 47h10"></path><g class="terminal "><path d="M120 47h0"></path><path d="M157 47h0"></path><rect x="120" y="36" width="37" height="22"></rect><text x="138.5" y="51">DO</text></g><path d="M157 47h10"></path><path d="M167 47h10"></path><g class="terminal "><path d="M177 47h0"></path><path d="M222.5 47h0"></path><rect x="177" y="36" width="45.5" height="22"></rect><text x="199.75" y="51">NOT</text></g></g><path d="M232.5 47h0"></path></g><path d="M232.5 47h20"></path></g><path d="M252.5 47h20"></path></g><path d="M272.5 47h10"></path><g class="terminal "><path d="M282.5 47h0"></path><path d="M345 47h0"></path><rect x="282.5" y="36" width="62.5" height="22"></rect><text x="313.75" y="51">ALLOW</text></g><path d="M345 47h10"></path><path d="M355 47h10"></path><g class="terminal "><path d="M365 47h0"></path><path d="M410.5 47h0"></path><rect x="365" y="36" width="45.5" height="22"></rect><text x="387.75" y="51">NEW</text></g><path d="M410.5 47h10"></path><path d="M420.5 47h10"></path><g class="terminal "><path d="M430.5 47h0"></path><path d="M493 47h0"></path><rect x="430.5" y="36" width="62.5" height="22"></rect><text x="461.75" y="51">USERS</text></g><path d="M493 47h10"></path><g><path d="M503 47h0"></path><path d="M748 47h0"></path><path d="M503 47a10 10 0 0 0 10 -10v-7a10 10 0 0 1 10 -10"></path><g><path d="M523 20h205"></path></g><path d="M728 20a10 10 0 0 1 10 10v7a10 10 0 0 0 10 10"></path><path d="M503 47h20"></path><g><path d="M523 47h0"></path><path d="M728 47h0"></path><path d="M523 47h20"></path><g><path d="M543 47h0"></path><g><path d="M543 47h10"></path><path d="M698 47h10"></path><g class="terminal "><path d="M553 47h0"></path><path d="M590 47h0"></path><rect x="553" y="36" width="37" height="22"></rect><text x="571.5" y="51">TO</text></g><path d="M590 47h10"></path><path d="M600 47h10"></path><g class="terminal "><path d="M610 47h0"></path><path d="M698 47h0"></path><rect x="610" y="36" width="88" height="22"></rect><text x="654" y="51">REGISTER</text></g></g><path d="M708 47h0"></path></g><path d="M708 47h20"></path></g><path d="M728 47h20"></path></g></g><path d="M758 47h0"></path></g><path d="M758 47h20"></path></g><path d="M 778 47 h 20 m 0 -10 v 20"></path></g><defs><style type="text/css"><![CDATA[
svg.railroad-diagram path { stroke-width: 2; stroke: darkgray; fill: rgba(0, 0, 0, 0); }svg.railroad-diagram text { font: bold 12px Hack, "Source Code Pro", monospace; text-anchor: middle; fill: #404040; }svg.railroad-diagram text.comment { font: italic 10px Hack, "Source Code Pro", monospace; fill: #404040; }svg.railroad-diagram g.terminal rect { stroke-width: 2; stroke: #404040; fill: rgba(200, 200, 200, 0.8); }svg.railroad-diagram g.non-terminal rect { stroke-width: 2; stroke: #404040; fill: rgba(255, 255, 255, 1); }svg.railroad-diagram text.diagram-text { font-size: 12px Hack, "Source Code Pro", monospace; fill: red; }svg.railroad-diagram path.diagram-text { stroke-width: 1; stroke: red; fill: red; cursor: help; }
 ]]>
</style></defs></svg>