<?xml version="1.0" encoding="UTF-8" standalone="no"?>
<!DOCTYPE svg PUBLIC "-//W3C//DTD SVG 1.1//EN" "http://www.w3.org/Graphics/SVG/1.1/DTD/svg11.dtd">
<svg class="railroad-diagram" width="723" height="287" viewBox="0 0 723 287" id="alterRestContentSetStatement" xmlns="http://www.w3.org/2000/svg" xmlns:xlink="http://www.w3.org/1999/xlink"><g transform="translate(.5 .5)"><g><path d="M20 21v20m0 -10h20"></path></g><g><path d="M40 31h0"></path><path d="M683 257h0"></path><path d="M40 31h20"></path><g><path d="M60 31h0"></path><path d="M60 31h10"></path><g><path d="M70 31h0"></path><path d="M590 31h63"></path><g class="terminal "><path d="M70 31h0"></path><path d="M132.5 31h0"></path><rect x="70" y="20" width="62.5" height="22"></rect><text x="101.25" y="35">ALTER</text></g><path d="M132.5 31h10"></path><path d="M142.5 31h10"></path><g class="terminal "><path d="M152.5 31h0"></path><path d="M206.5 31h0"></path><rect x="152.5" y="20" width="54" height="22"></rect><text x="179.5" y="35">REST</text></g><path d="M206.5 31h10"></path><path d="M216.5 31h10"></path><g class="terminal "><path d="M226.5 31h0"></path><path d="M306 31h0"></path><rect x="226.5" y="20" width="79.5" height="22"></rect><text x="266.25" y="35">CONTENT</text></g><path d="M306 31h10"></path><path d="M316 31h10"></path><g class="terminal "><path d="M326 31h0"></path><path d="M371.5 31h0"></path><rect x="326" y="20" width="45.5" height="22"></rect><text x="348.75" y="35">SET</text></g><path d="M371.5 31h10"></path><path d="M381.5 31h10"></path><g class="non-terminal "><path d="M391.5 31h0"></path><path d="M590 31h0"></path><rect x="391.5" y="20" width="198.5" height="22" rx="10" ry="10"></rect><text x="490.75" y="35">contentSetRequestPath</text></g></g><path d="M653 31a10 10 0 0 1 10 10v7a10 10 0 0 1 -10 10h-583a10 10 0 0 0 -10 10v39a10 10 0 0 0 10 10"></path><g><path d="M70 117h0"></path><path d="M519.5 117h133.5"></path><g><path d="M70 117h0"></path><path d="M519.5 117h0"></path><path d="M70 117a10 10 0 0 0 10 -10v-23a10 10 0 0 1 10 -10"></path><g><path d="M90 74h409.5"></path></g><path d="M499.5 74a10 10 0 0 1 10 10v23a10 10 0 0 0 10 10"></path><path d="M70 117h20"></path><g><path d="M90 117h0"></path><path d="M499.5 117h0"></path><path d="M90 117h20"></path><g><path d="M110 117h0"></path><g><path d="M110 117h0"></path><path d="M459.5 117h20"></path><g class="terminal "><path d="M110 117h0"></path><path d="M147 117h0"></path><rect x="110" y="106" width="37" height="22"></rect><text x="128.5" y="121">ON</text></g><path d="M147 117h10"></path><g><path d="M157 117h0"></path><path d="M276.5 117h0"></path><path d="M157 117a10 10 0 0 0 10 -10v-7a10 10 0 0 1 10 -10"></path><g><path d="M177 90h79.5"></path></g><path d="M256.5 90a10 10 0 0 1 10 10v7a10 10 0 0 0 10 10"></path><path d="M157 117h20"></path><g class="terminal "><path d="M177 117h0"></path><path d="M256.5 117h0"></path><rect x="177" y="106" width="79.5" height="22"></rect><text x="216.75" y="121">SERVICE</text></g><path d="M256.5 117h20"></path></g><path d="M276.5 117h10"></path><g class="non-terminal "><path d="M286.5 117h0"></path><path d="M459.5 117h0"></path><rect x="286.5" y="106" width="173" height="22" rx="10" ry="10"></rect><text x="373" y="121">serviceRequestPath</text></g></g><path d="M479.5 117h0"></path></g><path d="M479.5 117h20"></path></g><path d="M499.5 117h20"></path></g></g><path d="M653 117a10 10 0 0 1 10 10v7a10 10 0 0 1 -10 10h-583a10 10 0 0 0 -10 10v23a10 10 0 0 0 10 10"></path><g><path d="M70 187h0"></path><path d="M633 187h20"></path><g><path d="M70 187h0"></path><path d="M633 187h0"></path><path d="M70 187a10 10 0 0 0 10 -10v-7a10 10 0 0 1 10 -10"></path><g><path d="M90 160h523"></path></g><path d="M613 160a10 10 0 0 1 10 10v7a10 10 0 0 0 10 10"></path><path d="M70 187h20"></path><g><path d="M90 187h0"></path><path d="M613 187h0"></path><path d="M90 187h20"></path><g><path d="M110 187h0"></path><g><path d="M110 187h0"></path><path d="M573 187h20"></path><g class="terminal "><path d="M110 187h0"></path><path d="M155.5 187h0"></path><rect x="110" y="176" width="45.5" height="22"></rect><text x="132.75" y="191">NEW</text></g><path d="M155.5 187h10"></path><path d="M165.5 187h10"></path><g class="terminal "><path d="M175.5 187h0"></path><path d="M255 187h0"></path><rect x="175.5" y="176" width="79.5" height="22"></rect><text x="215.25" y="191">REQUEST</text></g><path d="M255 187h10"></path><path d="M265 187h10"></path><g class="terminal "><path d="M275 187h0"></path><path d="M329 187h0"></path><rect x="275" y="176" width="54" height="22"></rect><text x="302" y="191">PATH</text></g><path d="M329 187h10"></path><path d="M339 187h10"></path><g class="non-terminal "><path d="M349 187h0"></path><path d="M573 187h0"></path><rect x="349" y="176" width="224" height="22" rx="10" ry="10"></rect><text x="461" y="191">newContentSetRequestPath</text></g></g><path d="M593 187h0"></path></g><path d="M593 187h20"></path></g><path d="M613 187h20"></path></g></g><path d="M653 187a10 10 0 0 1 10 10v7a10 10 0 0 1 -10 10h-583a10 10 0 0 0 -10 10v23a10 10 0 0 0 10 10"></path><g><path d="M70 257h0"></path><path d="M308.5 257h344.5"></path><g><path d="M70 257h0"></path><path d="M308.5 257h0"></path><path d="M70 257a10 10 0 0 0 10 -10v-7a10 10 0 0 1 10 -10"></path><g><path d="M90 230h198.5"></path></g><path d="M288.5 230a10 10 0 0 1 10 10v7a10 10 0 0 0 10 10"></path><path d="M70 257h20"></path><g class="non-terminal "><path d="M90 257h0"></path><path d="M288.5 257h0"></path><rect x="90" y="246" width="198.5" height="22" rx="10" ry="10"></rect><text x="189.25" y="261">restContentSetOptions</text></g><path d="M288.5 257h20"></path></g></g><path d="M653 257h10"></path><path d="M663 257h0"></path></g><path d="M663 257h20"></path></g><path d="M 683 257 h 20 m 0 -10 v 20"></path></g><defs><style type="text/css"><![CDATA[
svg.railroad-diagram path { stroke-width: 2; stroke: darkgray; fill: rgba(0, 0, 0, 0); }svg.railroad-diagram text { font: bold 12px Hack, "Source Code Pro", monospace; text-anchor: middle; fill: #404040; }svg.railroad-diagram text.comment { font: italic 10px Hack, "Source Code Pro", monospace; fill: #404040; }svg.railroad-diagram g.terminal rect { stroke-width: 2; stroke: #404040; fill: rgba(200, 200, 200, 0.8); }svg.railroad-diagram g.non-terminal rect { stroke-width: 2; stroke: #404040; fill: rgba(255, 255, 255, 1); }svg.railroad-diagram text.diagram-text { font-size: 12px Hack, "Source Code Pro", monospace; fill: red; }svg.railroad-diagram path.diagram-text { stroke-width: 1; stroke: red; fill: red; cursor: help; }
 ]]>
</style></defs></svg>