<?xml version="1.0" encoding="UTF-8" standalone="no"?>
<!DOCTYPE svg PUBLIC "-//W3C//DTD SVG 1.1//EN" "http://www.w3.org/Graphics/SVG/1.1/DTD/svg11.dtd">
<svg class="railroad-diagram" width="751.5" height="169" viewBox="0 0 751.5 169" id="alterRestAuthAppStatement" xmlns="http://www.w3.org/2000/svg" xmlns:xlink="http://www.w3.org/1999/xlink"><g transform="translate(.5 .5)"><g><path d="M20 21v20m0 -10h20"></path></g><g><path d="M40 31h0"></path><path d="M711.5 139h0"></path><path d="M40 31h20"></path><g><path d="M60 31h0"></path><path d="M60 31h10"></path><g><path d="M70 31h0"></path><path d="M604.5 31h77"></path><g class="terminal "><path d="M70 31h0"></path><path d="M132.5 31h0"></path><rect x="70" y="20" width="62.5" height="22"></rect><text x="101.25" y="35">ALTER</text></g><path d="M132.5 31h10"></path><path d="M142.5 31h10"></path><g class="terminal "><path d="M152.5 31h0"></path><path d="M206.5 31h0"></path><rect x="152.5" y="20" width="54" height="22"></rect><text x="179.5" y="35">REST</text></g><path d="M206.5 31h10"></path><g><path d="M216.5 31h0"></path><path d="M415.5 31h0"></path><path d="M216.5 31h20"></path><g><path d="M236.5 31h0"></path><g><path d="M236.5 31h0"></path><path d="M290.5 31h20"></path><g class="terminal "><path d="M236.5 31h0"></path><path d="M290.5 31h0"></path><rect x="236.5" y="20" width="54" height="22"></rect><text x="263.5" y="35">AUTH</text></g></g><path d="M310.5 31h85"></path></g><path d="M395.5 31h20"></path><path d="M216.5 31a10 10 0 0 1 10 10v18a10 10 0 0 0 10 10"></path><g><path d="M236.5 69h0"></path><g><path d="M236.5 69h0"></path><path d="M375.5 69h20"></path><g class="terminal "><path d="M236.5 69h0"></path><path d="M375.5 69h0"></path><rect x="236.5" y="58" width="139" height="22"></rect><text x="306" y="73">AUTHENTICATION</text></g></g><path d="M395.5 69h0"></path></g><path d="M395.5 69a10 10 0 0 0 10 -10v-18a10 10 0 0 1 10 -10"></path></g><path d="M415.5 31h10"></path><g class="terminal "><path d="M425.5 31h0"></path><path d="M471 31h0"></path><rect x="425.5" y="20" width="45.5" height="22"></rect><text x="448.25" y="35">APP</text></g><path d="M471 31h10"></path><path d="M481 31h10"></path><g class="non-terminal "><path d="M491 31h0"></path><path d="M604.5 31h0"></path><rect x="491" y="20" width="113.5" height="22" rx="10" ry="10"></rect><text x="547.75" y="35">authAppName</text></g></g><path d="M681.5 31a10 10 0 0 1 10 10v45a10 10 0 0 1 -10 10h-611.5a10 10 0 0 0 -10 10v23a10 10 0 0 0 10 10"></path><g><path d="M70 139h0"></path><path d="M661.5 139h20"></path><g><path d="M70 139h0"></path><path d="M448.5 139h0"></path><path d="M70 139a10 10 0 0 0 10 -10v-7a10 10 0 0 1 10 -10"></path><g><path d="M90 112h338.5"></path></g><path d="M428.5 112a10 10 0 0 1 10 10v7a10 10 0 0 0 10 10"></path><path d="M70 139h20"></path><g><path d="M90 139h0"></path><path d="M428.5 139h0"></path><path d="M90 139h20"></path><g><path d="M110 139h0"></path><g><path d="M110 139h0"></path><path d="M388.5 139h20"></path><g class="terminal "><path d="M110 139h0"></path><path d="M155.5 139h0"></path><rect x="110" y="128" width="45.5" height="22"></rect><text x="132.75" y="143">NEW</text></g><path d="M155.5 139h10"></path><path d="M165.5 139h10"></path><g class="terminal "><path d="M175.5 139h0"></path><path d="M229.5 139h0"></path><rect x="175.5" y="128" width="54" height="22"></rect><text x="202.5" y="143">NAME</text></g><path d="M229.5 139h10"></path><path d="M239.5 139h10"></path><g class="non-terminal "><path d="M249.5 139h0"></path><path d="M388.5 139h0"></path><rect x="249.5" y="128" width="139" height="22" rx="10" ry="10"></rect><text x="319" y="143">newAuthAppName</text></g></g><path d="M408.5 139h0"></path></g><path d="M408.5 139h20"></path></g><path d="M428.5 139h20"></path></g><g><path d="M448.5 139h0"></path><path d="M661.5 139h0"></path><path d="M448.5 139a10 10 0 0 0 10 -10v-7a10 10 0 0 1 10 -10"></path><g><path d="M468.5 112h173"></path></g><path d="M641.5 112a10 10 0 0 1 10 10v7a10 10 0 0 0 10 10"></path><path d="M448.5 139h20"></path><g class="non-terminal "><path d="M468.5 139h0"></path><path d="M641.5 139h0"></path><rect x="468.5" y="128" width="173" height="22" rx="10" ry="10"></rect><text x="555" y="143">restAuthAppOptions</text></g><path d="M641.5 139h20"></path></g></g><path d="M681.5 139h10"></path><path d="M691.5 139h0"></path></g><path d="M691.5 139h20"></path></g><path d="M 711.5 139 h 20 m 0 -10 v 20"></path></g><defs><style type="text/css"><![CDATA[
svg.railroad-diagram path { stroke-width: 2; stroke: darkgray; fill: rgba(0, 0, 0, 0); }svg.railroad-diagram text { font: bold 12px Hack, "Source Code Pro", monospace; text-anchor: middle; fill: #404040; }svg.railroad-diagram text.comment { font: italic 10px Hack, "Source Code Pro", monospace; fill: #404040; }svg.railroad-diagram g.terminal rect { stroke-width: 2; stroke: #404040; fill: rgba(200, 200, 200, 0.8); }svg.railroad-diagram g.non-terminal rect { stroke-width: 2; stroke: #404040; fill: rgba(255, 255, 255, 1); }svg.railroad-diagram text.diagram-text { font-size: 12px Hack, "Source Code Pro", monospace; fill: red; }svg.railroad-diagram path.diagram-text { stroke-width: 1; stroke: red; fill: red; cursor: help; }
 ]]>
</style></defs></svg>