<?xml version="1.0" encoding="UTF-8" standalone="no"?>
<!DOCTYPE svg PUBLIC "-//W3C//DTD SVG 1.1//EN" "http://www.w3.org/Graphics/SVG/1.1/DTD/svg11.dtd">
<svg class="railroad-diagram" width="714.5" height="357" viewBox="0 0 714.5 357" id="alterRestProcedureStatement" xmlns="http://www.w3.org/2000/svg" xmlns:xlink="http://www.w3.org/1999/xlink"><g transform="translate(.5 .5)"><g><path d="M20 21v20m0 -10h20"></path></g><g><path d="M40 31h0"></path><path d="M674.5 327h0"></path><path d="M40 31h20"></path><g><path d="M60 31h0"></path><path d="M60 31h10"></path><g><path d="M70 31h0"></path><path d="M533 31h111.5"></path><g class="terminal "><path d="M70 31h0"></path><path d="M132.5 31h0"></path><rect x="70" y="20" width="62.5" height="22"></rect><text x="101.25" y="35">ALTER</text></g><path d="M132.5 31h10"></path><path d="M142.5 31h10"></path><g class="terminal "><path d="M152.5 31h0"></path><path d="M206.5 31h0"></path><rect x="152.5" y="20" width="54" height="22"></rect><text x="179.5" y="35">REST</text></g><path d="M206.5 31h10"></path><path d="M216.5 31h10"></path><g class="terminal "><path d="M226.5 31h0"></path><path d="M323 31h0"></path><rect x="226.5" y="20" width="96.5" height="22"></rect><text x="274.75" y="35">PROCEDURE</text></g><path d="M323 31h10"></path><path d="M333 31h10"></path><g class="non-terminal "><path d="M343 31h0"></path><path d="M533 31h0"></path><rect x="343" y="20" width="190" height="22" rx="10" ry="10"></rect><text x="438" y="35">procedureRequestPath</text></g></g><path d="M644.5 31a10 10 0 0 1 10 10v7a10 10 0 0 1 -10 10h-574.5a10 10 0 0 0 -10 10v23a10 10 0 0 0 10 10"></path><g><path d="M70 101h0"></path><path d="M425.5 101h219"></path><g><path d="M70 101h0"></path><path d="M425.5 101h0"></path><path d="M70 101a10 10 0 0 0 10 -10v-7a10 10 0 0 1 10 -10"></path><g><path d="M90 74h315.5"></path></g><path d="M405.5 74a10 10 0 0 1 10 10v7a10 10 0 0 0 10 10"></path><path d="M70 101h20"></path><g><path d="M90 101h0"></path><path d="M405.5 101h0"></path><path d="M90 101h20"></path><g><path d="M110 101h0"></path><g><path d="M110 101h0"></path><path d="M365.5 101h20"></path><g class="terminal "><path d="M110 101h0"></path><path d="M147 101h0"></path><rect x="110" y="90" width="37" height="22"></rect><text x="128.5" y="105">ON</text></g><path d="M147 101h10"></path><path d="M157 101h10"></path><g class="non-terminal "><path d="M167 101h0"></path><path d="M365.5 101h0"></path><rect x="167" y="90" width="198.5" height="22" rx="10" ry="10"></rect><text x="266.25" y="105">serviceSchemaSelector</text></g></g><path d="M385.5 101h0"></path></g><path d="M385.5 101h20"></path></g><path d="M405.5 101h20"></path></g></g><path d="M644.5 101a10 10 0 0 1 10 10v7a10 10 0 0 1 -10 10h-574.5a10 10 0 0 0 -10 10v23a10 10 0 0 0 10 10"></path><g><path d="M70 171h0"></path><path d="M624.5 171h20"></path><g><path d="M70 171h0"></path><path d="M624.5 171h0"></path><path d="M70 171a10 10 0 0 0 10 -10v-7a10 10 0 0 1 10 -10"></path><g><path d="M90 144h514.5"></path></g><path d="M604.5 144a10 10 0 0 1 10 10v7a10 10 0 0 0 10 10"></path><path d="M70 171h20"></path><g><path d="M90 171h0"></path><path d="M604.5 171h0"></path><path d="M90 171h20"></path><g><path d="M110 171h0"></path><g><path d="M110 171h0"></path><path d="M564.5 171h20"></path><g class="terminal "><path d="M110 171h0"></path><path d="M155.5 171h0"></path><rect x="110" y="160" width="45.5" height="22"></rect><text x="132.75" y="175">NEW</text></g><path d="M155.5 171h10"></path><path d="M165.5 171h10"></path><g class="terminal "><path d="M175.5 171h0"></path><path d="M255 171h0"></path><rect x="175.5" y="160" width="79.5" height="22"></rect><text x="215.25" y="175">REQUEST</text></g><path d="M255 171h10"></path><path d="M265 171h10"></path><g class="terminal "><path d="M275 171h0"></path><path d="M329 171h0"></path><rect x="275" y="160" width="54" height="22"></rect><text x="302" y="175">PATH</text></g><path d="M329 171h10"></path><path d="M339 171h10"></path><g class="non-terminal "><path d="M349 171h0"></path><path d="M564.5 171h0"></path><rect x="349" y="160" width="215.5" height="22" rx="10" ry="10"></rect><text x="456.75" y="175">newProcedureRequestPath</text></g></g><path d="M584.5 171h0"></path></g><path d="M584.5 171h20"></path></g><path d="M604.5 171h20"></path></g></g><path d="M644.5 171a10 10 0 0 1 10 10v7a10 10 0 0 1 -10 10h-574.5a10 10 0 0 0 -10 10v39a10 10 0 0 0 10 10"></path><g><path d="M70 257h0"></path><path d="M579 257h65.5"></path><g><path d="M70 257h0"></path><path d="M579 257h0"></path><path d="M70 257a10 10 0 0 0 10 -10v-23a10 10 0 0 1 10 -10"></path><g><path d="M90 214h469"></path></g><path d="M559 214a10 10 0 0 1 10 10v23a10 10 0 0 0 10 10"></path><path d="M70 257h20"></path><g><path d="M90 257h0"></path><path d="M559 257h0"></path><path d="M90 257h20"></path><g><path d="M110 257h0"></path><g><path d="M110 257h0"></path><path d="M519 257h20"></path><g class="terminal "><path d="M110 257h0"></path><path d="M215 257h0"></path><rect x="110" y="246" width="105" height="22"></rect><text x="162.5" y="261">PARAMETERS</text></g><path d="M215 257h10"></path><g><path d="M225 257h0"></path><path d="M404 257h0"></path><path d="M225 257a10 10 0 0 0 10 -10v-7a10 10 0 0 1 10 -10"></path><g><path d="M245 230h139"></path></g><path d="M384 230a10 10 0 0 1 10 10v7a10 10 0 0 0 10 10"></path><path d="M225 257h20"></path><g class="non-terminal "><path d="M245 257h0"></path><path d="M384 257h0"></path><rect x="245" y="246" width="139" height="22" rx="10" ry="10"></rect><text x="314.5" y="261">restObjectName</text></g><path d="M384 257h20"></path></g><path d="M404 257h10"></path><g class="non-terminal "><path d="M414 257h0"></path><path d="M519 257h0"></path><rect x="414" y="246" width="105" height="22" rx="10" ry="10"></rect><text x="466.5" y="261">graphQlObj</text></g></g><path d="M539 257h0"></path></g><path d="M539 257h20"></path></g><path d="M559 257h20"></path></g></g><path d="M644.5 257a10 10 0 0 1 10 10v7a10 10 0 0 1 -10 10h-574.5a10 10 0 0 0 -10 10v23a10 10 0 0 0 10 10"></path><g><path d="M70 327h0"></path><path d="M516 327h128.5"></path><g><path d="M70 327h0"></path><path d="M311.5 327h0"></path><path d="M70 327a10 10 0 0 0 10 -10v-7a10 10 0 0 1 10 -10"></path><g><path d="M90 300h201.5"></path></g><path d="M291.5 300a10 10 0 0 1 10 10v7a10 10 0 0 0 10 10"></path><path d="M70 327h20"></path><g><path d="M90 327h0"></path><path d="M291.5 327h0"></path><path d="M90 327h10"></path><g class="non-terminal "><path d="M100 327h0"></path><path d="M281.5 327h0"></path><rect x="100" y="316" width="181.5" height="22" rx="10" ry="10"></rect><text x="190.75" y="331">restProcedureResult</text></g><path d="M281.5 327h10"></path><path d="M100 327a10 10 0 0 0 -10 10v7a10 10 0 0 0 10 10"></path><g><path d="M100 354h181.5"></path></g><path d="M281.5 354a10 10 0 0 0 10 -10v-7a10 10 0 0 0 -10 -10"></path></g><path d="M291.5 327h20"></path></g><g><path d="M311.5 327h0"></path><path d="M516 327h0"></path><path d="M311.5 327a10 10 0 0 0 10 -10v-7a10 10 0 0 1 10 -10"></path><g><path d="M331.5 300h164.5"></path></g><path d="M496 300a10 10 0 0 1 10 10v7a10 10 0 0 0 10 10"></path><path d="M311.5 327h20"></path><g class="non-terminal "><path d="M331.5 327h0"></path><path d="M496 327h0"></path><rect x="331.5" y="316" width="164.5" height="22" rx="10" ry="10"></rect><text x="413.75" y="331">restObjectOptions</text></g><path d="M496 327h20"></path></g></g><path d="M644.5 327h10"></path><path d="M654.5 327h0"></path></g><path d="M654.5 327h20"></path></g><path d="M 674.5 327 h 20 m 0 -10 v 20"></path></g><defs><style type="text/css"><![CDATA[
svg.railroad-diagram path { stroke-width: 2; stroke: darkgray; fill: rgba(0, 0, 0, 0); }svg.railroad-diagram text { font: bold 12px Hack, "Source Code Pro", monospace; text-anchor: middle; fill: #404040; }svg.railroad-diagram text.comment { font: italic 10px Hack, "Source Code Pro", monospace; fill: #404040; }svg.railroad-diagram g.terminal rect { stroke-width: 2; stroke: #404040; fill: rgba(200, 200, 200, 0.8); }svg.railroad-diagram g.non-terminal rect { stroke-width: 2; stroke: #404040; fill: rgba(255, 255, 255, 1); }svg.railroad-diagram text.diagram-text { font-size: 12px Hack, "Source Code Pro", monospace; fill: red; }svg.railroad-diagram path.diagram-text { stroke-width: 1; stroke: red; fill: red; cursor: help; }
 ]]>
</style></defs></svg>