<?xml version="1.0" encoding="UTF-8" standalone="no"?>
<!DOCTYPE svg PUBLIC "-//W3C//DTD SVG 1.1//EN" "http://www.w3.org/Graphics/SVG/1.1/DTD/svg11.dtd">
<svg class="railroad-diagram" width="988" height="255" viewBox="0 0 988 255" id="alterRestAuthAppStatement" xmlns="http://www.w3.org/2000/svg" xmlns:xlink="http://www.w3.org/1999/xlink"><g transform="translate(.5 .5)"><g><path d="M20 21v20m0 -10h20"></path></g><g><path d="M40 31h0"></path><path d="M948 225h0"></path><path d="M40 31h20"></path><g><path d="M60 31h0"></path><path d="M60 31h10"></path><g><path d="M70 31h0"></path><path d="M604.5 31h313.5"></path><g class="terminal "><path d="M70 31h0"></path><path d="M132.5 31h0"></path><rect x="70" y="20" width="62.5" height="22"></rect><text x="101.25" y="35">ALTER</text></g><path d="M132.5 31h10"></path><path d="M142.5 31h10"></path><g class="terminal "><path d="M152.5 31h0"></path><path d="M206.5 31h0"></path><rect x="152.5" y="20" width="54" height="22"></rect><text x="179.5" y="35">REST</text></g><path d="M206.5 31h10"></path><g><path d="M216.5 31h0"></path><path d="M415.5 31h0"></path><path d="M216.5 31h20"></path><g><path d="M236.5 31h0"></path><g><path d="M236.5 31h0"></path><path d="M290.5 31h20"></path><g class="terminal "><path d="M236.5 31h0"></path><path d="M290.5 31h0"></path><rect x="236.5" y="20" width="54" height="22"></rect><text x="263.5" y="35">AUTH</text></g></g><path d="M310.5 31h85"></path></g><path d="M395.5 31h20"></path><path d="M216.5 31a10 10 0 0 1 10 10v18a10 10 0 0 0 10 10"></path><g><path d="M236.5 69h0"></path><g><path d="M236.5 69h0"></path><path d="M375.5 69h20"></path><g class="terminal "><path d="M236.5 69h0"></path><path d="M375.5 69h0"></path><rect x="236.5" y="58" width="139" height="22"></rect><text x="306" y="73">AUTHENTICATION</text></g></g><path d="M395.5 69h0"></path></g><path d="M395.5 69a10 10 0 0 0 10 -10v-18a10 10 0 0 1 10 -10"></path></g><path d="M415.5 31h10"></path><g class="terminal "><path d="M425.5 31h0"></path><path d="M471 31h0"></path><rect x="425.5" y="20" width="45.5" height="22"></rect><text x="448.25" y="35">APP</text></g><path d="M471 31h10"></path><path d="M481 31h10"></path><g class="non-terminal "><path d="M491 31h0"></path><path d="M604.5 31h0"></path><rect x="491" y="20" width="113.5" height="22" rx="10" ry="10"></rect><text x="547.75" y="35">authAppName</text></g></g><path d="M918 31a10 10 0 0 1 10 10v45a10 10 0 0 1 -10 10h-848a10 10 0 0 0 -10 10v39a10 10 0 0 0 10 10"></path><g><path d="M70 155h0"></path><path d="M898 155h20"></path><g><path d="M70 155h0"></path><path d="M519.5 155h0"></path><path d="M70 155a10 10 0 0 0 10 -10v-23a10 10 0 0 1 10 -10"></path><g><path d="M90 112h409.5"></path></g><path d="M499.5 112a10 10 0 0 1 10 10v23a10 10 0 0 0 10 10"></path><path d="M70 155h20"></path><g><path d="M90 155h0"></path><path d="M499.5 155h0"></path><path d="M90 155h20"></path><g><path d="M110 155h0"></path><g><path d="M110 155h0"></path><path d="M459.5 155h20"></path><g class="terminal "><path d="M110 155h0"></path><path d="M147 155h0"></path><rect x="110" y="144" width="37" height="22"></rect><text x="128.5" y="159">ON</text></g><path d="M147 155h10"></path><g><path d="M157 155h0"></path><path d="M276.5 155h0"></path><path d="M157 155a10 10 0 0 0 10 -10v-7a10 10 0 0 1 10 -10"></path><g><path d="M177 128h79.5"></path></g><path d="M256.5 128a10 10 0 0 1 10 10v7a10 10 0 0 0 10 10"></path><path d="M157 155h20"></path><g class="terminal "><path d="M177 155h0"></path><path d="M256.5 155h0"></path><rect x="177" y="144" width="79.5" height="22"></rect><text x="216.75" y="159">SERVICE</text></g><path d="M256.5 155h20"></path></g><path d="M276.5 155h10"></path><g class="non-terminal "><path d="M286.5 155h0"></path><path d="M459.5 155h0"></path><rect x="286.5" y="144" width="173" height="22" rx="10" ry="10"></rect><text x="373" y="159">serviceRequestPath</text></g></g><path d="M479.5 155h0"></path></g><path d="M479.5 155h20"></path></g><path d="M499.5 155h20"></path></g><g><path d="M519.5 155h0"></path><path d="M898 155h0"></path><path d="M519.5 155a10 10 0 0 0 10 -10v-7a10 10 0 0 1 10 -10"></path><g><path d="M539.5 128h338.5"></path></g><path d="M878 128a10 10 0 0 1 10 10v7a10 10 0 0 0 10 10"></path><path d="M519.5 155h20"></path><g><path d="M539.5 155h0"></path><path d="M878 155h0"></path><path d="M539.5 155h20"></path><g><path d="M559.5 155h0"></path><g><path d="M559.5 155h0"></path><path d="M838 155h20"></path><g class="terminal "><path d="M559.5 155h0"></path><path d="M605 155h0"></path><rect x="559.5" y="144" width="45.5" height="22"></rect><text x="582.25" y="159">NEW</text></g><path d="M605 155h10"></path><path d="M615 155h10"></path><g class="terminal "><path d="M625 155h0"></path><path d="M679 155h0"></path><rect x="625" y="144" width="54" height="22"></rect><text x="652" y="159">NAME</text></g><path d="M679 155h10"></path><path d="M689 155h10"></path><g class="non-terminal "><path d="M699 155h0"></path><path d="M838 155h0"></path><rect x="699" y="144" width="139" height="22" rx="10" ry="10"></rect><text x="768.5" y="159">newAuthAppName</text></g></g><path d="M858 155h0"></path></g><path d="M858 155h20"></path></g><path d="M878 155h20"></path></g></g><path d="M918 155a10 10 0 0 1 10 10v7a10 10 0 0 1 -10 10h-848a10 10 0 0 0 -10 10v23a10 10 0 0 0 10 10"></path><g><path d="M70 225h0"></path><path d="M283 225h635"></path><g><path d="M70 225h0"></path><path d="M283 225h0"></path><path d="M70 225a10 10 0 0 0 10 -10v-7a10 10 0 0 1 10 -10"></path><g><path d="M90 198h173"></path></g><path d="M263 198a10 10 0 0 1 10 10v7a10 10 0 0 0 10 10"></path><path d="M70 225h20"></path><g class="non-terminal "><path d="M90 225h0"></path><path d="M263 225h0"></path><rect x="90" y="214" width="173" height="22" rx="10" ry="10"></rect><text x="176.5" y="229">restAuthAppOptions</text></g><path d="M263 225h20"></path></g></g><path d="M918 225h10"></path><path d="M928 225h0"></path></g><path d="M928 225h20"></path></g><path d="M 948 225 h 20 m 0 -10 v 20"></path></g><defs><style type="text/css"><![CDATA[
svg.railroad-diagram path { stroke-width: 2; stroke: darkgray; fill: rgba(0, 0, 0, 0); }svg.railroad-diagram text { font: bold 12px Hack, "Source Code Pro", monospace; text-anchor: middle; fill: #404040; }svg.railroad-diagram text.comment { font: italic 10px Hack, "Source Code Pro", monospace; fill: #404040; }svg.railroad-diagram g.terminal rect { stroke-width: 2; stroke: #404040; fill: rgba(200, 200, 200, 0.8); }svg.railroad-diagram g.non-terminal rect { stroke-width: 2; stroke: #404040; fill: rgba(255, 255, 255, 1); }svg.railroad-diagram text.diagram-text { font-size: 12px Hack, "Source Code Pro", monospace; fill: red; }svg.railroad-diagram path.diagram-text { stroke-width: 1; stroke: red; fill: red; cursor: help; }
 ]]>
</style></defs></svg>