<?xml version="1.0" encoding="UTF-8" standalone="no"?>
<!DOCTYPE svg PUBLIC "-//W3C//DTD SVG 1.1//EN" "http://www.w3.org/Graphics/SVG/1.1/DTD/svg11.dtd">
<svg class="railroad-diagram" width="706" height="357" viewBox="0 0 706 357" id="alterRestFunctionStatement" xmlns="http://www.w3.org/2000/svg" xmlns:xlink="http://www.w3.org/1999/xlink"><g transform="translate(.5 .5)"><g><path d="M20 21v20m0 -10h20"></path></g><g><path d="M40 31h0"></path><path d="M666 327h0"></path><path d="M40 31h20"></path><g><path d="M60 31h0"></path><path d="M60 31h10"></path><g><path d="M70 31h0"></path><path d="M516 31h120"></path><g class="terminal "><path d="M70 31h0"></path><path d="M132.5 31h0"></path><rect x="70" y="20" width="62.5" height="22"></rect><text x="101.25" y="35">ALTER</text></g><path d="M132.5 31h10"></path><path d="M142.5 31h10"></path><g class="terminal "><path d="M152.5 31h0"></path><path d="M206.5 31h0"></path><rect x="152.5" y="20" width="54" height="22"></rect><text x="179.5" y="35">REST</text></g><path d="M206.5 31h10"></path><path d="M216.5 31h10"></path><g class="terminal "><path d="M226.5 31h0"></path><path d="M314.5 31h0"></path><rect x="226.5" y="20" width="88" height="22"></rect><text x="270.5" y="35">FUNCTION</text></g><path d="M314.5 31h10"></path><path d="M324.5 31h10"></path><g class="non-terminal "><path d="M334.5 31h0"></path><path d="M516 31h0"></path><rect x="334.5" y="20" width="181.5" height="22" rx="10" ry="10"></rect><text x="425.25" y="35">functionRequestPath</text></g></g><path d="M636 31a10 10 0 0 1 10 10v7a10 10 0 0 1 -10 10h-566a10 10 0 0 0 -10 10v23a10 10 0 0 0 10 10"></path><g><path d="M70 101h0"></path><path d="M425.5 101h210.5"></path><g><path d="M70 101h0"></path><path d="M425.5 101h0"></path><path d="M70 101a10 10 0 0 0 10 -10v-7a10 10 0 0 1 10 -10"></path><g><path d="M90 74h315.5"></path></g><path d="M405.5 74a10 10 0 0 1 10 10v7a10 10 0 0 0 10 10"></path><path d="M70 101h20"></path><g><path d="M90 101h0"></path><path d="M405.5 101h0"></path><path d="M90 101h20"></path><g><path d="M110 101h0"></path><g><path d="M110 101h0"></path><path d="M365.5 101h20"></path><g class="terminal "><path d="M110 101h0"></path><path d="M147 101h0"></path><rect x="110" y="90" width="37" height="22"></rect><text x="128.5" y="105">ON</text></g><path d="M147 101h10"></path><path d="M157 101h10"></path><g class="non-terminal "><path d="M167 101h0"></path><path d="M365.5 101h0"></path><rect x="167" y="90" width="198.5" height="22" rx="10" ry="10"></rect><text x="266.25" y="105">serviceSchemaSelector</text></g></g><path d="M385.5 101h0"></path></g><path d="M385.5 101h20"></path></g><path d="M405.5 101h20"></path></g></g><path d="M636 101a10 10 0 0 1 10 10v7a10 10 0 0 1 -10 10h-566a10 10 0 0 0 -10 10v23a10 10 0 0 0 10 10"></path><g><path d="M70 171h0"></path><path d="M616 171h20"></path><g><path d="M70 171h0"></path><path d="M616 171h0"></path><path d="M70 171a10 10 0 0 0 10 -10v-7a10 10 0 0 1 10 -10"></path><g><path d="M90 144h506"></path></g><path d="M596 144a10 10 0 0 1 10 10v7a10 10 0 0 0 10 10"></path><path d="M70 171h20"></path><g><path d="M90 171h0"></path><path d="M596 171h0"></path><path d="M90 171h20"></path><g><path d="M110 171h0"></path><g><path d="M110 171h0"></path><path d="M556 171h20"></path><g class="terminal "><path d="M110 171h0"></path><path d="M155.5 171h0"></path><rect x="110" y="160" width="45.5" height="22"></rect><text x="132.75" y="175">NEW</text></g><path d="M155.5 171h10"></path><path d="M165.5 171h10"></path><g class="terminal "><path d="M175.5 171h0"></path><path d="M255 171h0"></path><rect x="175.5" y="160" width="79.5" height="22"></rect><text x="215.25" y="175">REQUEST</text></g><path d="M255 171h10"></path><path d="M265 171h10"></path><g class="terminal "><path d="M275 171h0"></path><path d="M329 171h0"></path><rect x="275" y="160" width="54" height="22"></rect><text x="302" y="175">PATH</text></g><path d="M329 171h10"></path><path d="M339 171h10"></path><g class="non-terminal "><path d="M349 171h0"></path><path d="M556 171h0"></path><rect x="349" y="160" width="207" height="22" rx="10" ry="10"></rect><text x="452.5" y="175">newFunctionRequestPath</text></g></g><path d="M576 171h0"></path></g><path d="M576 171h20"></path></g><path d="M596 171h20"></path></g></g><path d="M636 171a10 10 0 0 1 10 10v7a10 10 0 0 1 -10 10h-566a10 10 0 0 0 -10 10v39a10 10 0 0 0 10 10"></path><g><path d="M70 257h0"></path><path d="M579 257h57"></path><g><path d="M70 257h0"></path><path d="M579 257h0"></path><path d="M70 257a10 10 0 0 0 10 -10v-23a10 10 0 0 1 10 -10"></path><g><path d="M90 214h469"></path></g><path d="M559 214a10 10 0 0 1 10 10v23a10 10 0 0 0 10 10"></path><path d="M70 257h20"></path><g><path d="M90 257h0"></path><path d="M559 257h0"></path><path d="M90 257h20"></path><g><path d="M110 257h0"></path><g><path d="M110 257h0"></path><path d="M519 257h20"></path><g class="terminal "><path d="M110 257h0"></path><path d="M215 257h0"></path><rect x="110" y="246" width="105" height="22"></rect><text x="162.5" y="261">PARAMETERS</text></g><path d="M215 257h10"></path><g><path d="M225 257h0"></path><path d="M404 257h0"></path><path d="M225 257a10 10 0 0 0 10 -10v-7a10 10 0 0 1 10 -10"></path><g><path d="M245 230h139"></path></g><path d="M384 230a10 10 0 0 1 10 10v7a10 10 0 0 0 10 10"></path><path d="M225 257h20"></path><g class="non-terminal "><path d="M245 257h0"></path><path d="M384 257h0"></path><rect x="245" y="246" width="139" height="22" rx="10" ry="10"></rect><text x="314.5" y="261">restObjectName</text></g><path d="M384 257h20"></path></g><path d="M404 257h10"></path><g class="non-terminal "><path d="M414 257h0"></path><path d="M519 257h0"></path><rect x="414" y="246" width="105" height="22" rx="10" ry="10"></rect><text x="466.5" y="261">graphQlObj</text></g></g><path d="M539 257h0"></path></g><path d="M539 257h20"></path></g><path d="M559 257h20"></path></g></g><path d="M636 257a10 10 0 0 1 10 10v7a10 10 0 0 1 -10 10h-566a10 10 0 0 0 -10 10v23a10 10 0 0 0 10 10"></path><g><path d="M70 327h0"></path><path d="M507.5 327h128.5"></path><g><path d="M70 327h0"></path><path d="M303 327h0"></path><path d="M70 327a10 10 0 0 0 10 -10v-7a10 10 0 0 1 10 -10"></path><g><path d="M90 300h193"></path></g><path d="M283 300a10 10 0 0 1 10 10v7a10 10 0 0 0 10 10"></path><path d="M70 327h20"></path><g><path d="M90 327h0"></path><path d="M283 327h0"></path><path d="M90 327h10"></path><g class="non-terminal "><path d="M100 327h0"></path><path d="M273 327h0"></path><rect x="100" y="316" width="173" height="22" rx="10" ry="10"></rect><text x="186.5" y="331">restFunctionResult</text></g><path d="M273 327h10"></path><path d="M100 327a10 10 0 0 0 -10 10v7a10 10 0 0 0 10 10"></path><g><path d="M100 354h173"></path></g><path d="M273 354a10 10 0 0 0 10 -10v-7a10 10 0 0 0 -10 -10"></path></g><path d="M283 327h20"></path></g><g><path d="M303 327h0"></path><path d="M507.5 327h0"></path><path d="M303 327a10 10 0 0 0 10 -10v-7a10 10 0 0 1 10 -10"></path><g><path d="M323 300h164.5"></path></g><path d="M487.5 300a10 10 0 0 1 10 10v7a10 10 0 0 0 10 10"></path><path d="M303 327h20"></path><g class="non-terminal "><path d="M323 327h0"></path><path d="M487.5 327h0"></path><rect x="323" y="316" width="164.5" height="22" rx="10" ry="10"></rect><text x="405.25" y="331">restObjectOptions</text></g><path d="M487.5 327h20"></path></g></g><path d="M636 327h10"></path><path d="M646 327h0"></path></g><path d="M646 327h20"></path></g><path d="M 666 327 h 20 m 0 -10 v 20"></path></g><defs><style type="text/css"><![CDATA[
svg.railroad-diagram path { stroke-width: 2; stroke: darkgray; fill: rgba(0, 0, 0, 0); }svg.railroad-diagram text { font: bold 12px Hack, "Source Code Pro", monospace; text-anchor: middle; fill: #404040; }svg.railroad-diagram text.comment { font: italic 10px Hack, "Source Code Pro", monospace; fill: #404040; }svg.railroad-diagram g.terminal rect { stroke-width: 2; stroke: #404040; fill: rgba(200, 200, 200, 0.8); }svg.railroad-diagram g.non-terminal rect { stroke-width: 2; stroke: #404040; fill: rgba(255, 255, 255, 1); }svg.railroad-diagram text.diagram-text { font-size: 12px Hack, "Source Code Pro", monospace; fill: red; }svg.railroad-diagram path.diagram-text { stroke-width: 1; stroke: red; fill: red; cursor: help; }
 ]]>
</style></defs></svg>