<?xml version="1.0" encoding="UTF-8" standalone="no"?>
<!DOCTYPE svg PUBLIC "-//W3C//DTD SVG 1.1//EN" "http://www.w3.org/Graphics/SVG/1.1/DTD/svg11.dtd">
<svg class="railroad-diagram" width="717.5" height="217" viewBox="0 0 717.5 217" id="alterRestUserStatement" xmlns="http://www.w3.org/2000/svg" xmlns:xlink="http://www.w3.org/1999/xlink"><g transform="translate(.5 .5)"><g><path d="M20 21v20m0 -10h20"></path></g><g><path d="M40 31h0"></path><path d="M677.5 187h0"></path><path d="M40 31h20"></path><g><path d="M60 31h0"></path><path d="M60 31h10"></path><g><path d="M70 31h0"></path><path d="M621.5 31h26"></path><g class="terminal "><path d="M70 31h0"></path><path d="M132.5 31h0"></path><rect x="70" y="20" width="62.5" height="22"></rect><text x="101.25" y="35">ALTER</text></g><path d="M132.5 31h10"></path><path d="M142.5 31h10"></path><g class="terminal "><path d="M152.5 31h0"></path><path d="M206.5 31h0"></path><rect x="152.5" y="20" width="54" height="22"></rect><text x="179.5" y="35">REST</text></g><path d="M206.5 31h10"></path><path d="M216.5 31h10"></path><g class="terminal "><path d="M226.5 31h0"></path><path d="M280.5 31h0"></path><rect x="226.5" y="20" width="54" height="22"></rect><text x="253.5" y="35">USER</text></g><path d="M280.5 31h10"></path><path d="M290.5 31h10"></path><g class="non-terminal "><path d="M300.5 31h0"></path><path d="M388.5 31h0"></path><rect x="300.5" y="20" width="88" height="22" rx="10" ry="10"></rect><text x="344.5" y="35">userName</text></g><path d="M388.5 31h10"></path><path d="M398.5 31h10"></path><g class="terminal "><path d="M408.5 31h0"></path><path d="M488 31h0"></path><rect x="408.5" y="20" width="79.5" height="22"></rect><text x="448.25" y="35">AT_SIGN</text></g><path d="M488 31h10"></path><path d="M498 31h10"></path><g class="non-terminal "><path d="M508 31h0"></path><path d="M621.5 31h0"></path><rect x="508" y="20" width="113.5" height="22" rx="10" ry="10"></rect><text x="564.75" y="35">authAppName</text></g></g><path d="M647.5 31a10 10 0 0 1 10 10v7a10 10 0 0 1 -10 10h-577.5a10 10 0 0 0 -10 10v39a10 10 0 0 0 10 10"></path><g><path d="M70 117h0"></path><path d="M519.5 117h128"></path><g><path d="M70 117h0"></path><path d="M519.5 117h0"></path><path d="M70 117a10 10 0 0 0 10 -10v-23a10 10 0 0 1 10 -10"></path><g><path d="M90 74h409.5"></path></g><path d="M499.5 74a10 10 0 0 1 10 10v23a10 10 0 0 0 10 10"></path><path d="M70 117h20"></path><g><path d="M90 117h0"></path><path d="M499.5 117h0"></path><path d="M90 117h20"></path><g><path d="M110 117h0"></path><g><path d="M110 117h0"></path><path d="M459.5 117h20"></path><g class="terminal "><path d="M110 117h0"></path><path d="M147 117h0"></path><rect x="110" y="106" width="37" height="22"></rect><text x="128.5" y="121">ON</text></g><path d="M147 117h10"></path><g><path d="M157 117h0"></path><path d="M276.5 117h0"></path><path d="M157 117a10 10 0 0 0 10 -10v-7a10 10 0 0 1 10 -10"></path><g><path d="M177 90h79.5"></path></g><path d="M256.5 90a10 10 0 0 1 10 10v7a10 10 0 0 0 10 10"></path><path d="M157 117h20"></path><g class="terminal "><path d="M177 117h0"></path><path d="M256.5 117h0"></path><rect x="177" y="106" width="79.5" height="22"></rect><text x="216.75" y="121">SERVICE</text></g><path d="M256.5 117h20"></path></g><path d="M276.5 117h10"></path><g class="non-terminal "><path d="M286.5 117h0"></path><path d="M459.5 117h0"></path><rect x="286.5" y="106" width="173" height="22" rx="10" ry="10"></rect><text x="373" y="121">serviceRequestPath</text></g></g><path d="M479.5 117h0"></path></g><path d="M479.5 117h20"></path></g><path d="M499.5 117h20"></path></g></g><path d="M647.5 117a10 10 0 0 1 10 10v7a10 10 0 0 1 -10 10h-577.5a10 10 0 0 0 -10 10v23a10 10 0 0 0 10 10"></path><g><path d="M70 187h0"></path><path d="M627.5 187h20"></path><g><path d="M70 187h0"></path><path d="M474 187h0"></path><path d="M70 187a10 10 0 0 0 10 -10v-7a10 10 0 0 1 10 -10"></path><g><path d="M90 160h364"></path></g><path d="M454 160a10 10 0 0 1 10 10v7a10 10 0 0 0 10 10"></path><path d="M70 187h20"></path><g><path d="M90 187h0"></path><path d="M454 187h0"></path><path d="M90 187h20"></path><g><path d="M110 187h0"></path><g><path d="M110 187h0"></path><path d="M414 187h20"></path><g class="terminal "><path d="M110 187h0"></path><path d="M215 187h0"></path><rect x="110" y="176" width="105" height="22"></rect><text x="162.5" y="191">IDENTIFIED</text></g><path d="M215 187h10"></path><path d="M225 187h10"></path><g class="terminal "><path d="M235 187h0"></path><path d="M272 187h0"></path><rect x="235" y="176" width="37" height="22"></rect><text x="253.5" y="191">BY</text></g><path d="M272 187h10"></path><path d="M282 187h10"></path><g class="non-terminal "><path d="M292 187h0"></path><path d="M414 187h0"></path><rect x="292" y="176" width="122" height="22" rx="10" ry="10"></rect><text x="353" y="191">userPassword</text></g></g><path d="M434 187h0"></path></g><path d="M434 187h20"></path></g><path d="M454 187h20"></path></g><g><path d="M474 187h0"></path><path d="M627.5 187h0"></path><path d="M474 187a10 10 0 0 0 10 -10v-7a10 10 0 0 1 10 -10"></path><g><path d="M494 160h113.5"></path></g><path d="M607.5 160a10 10 0 0 1 10 10v7a10 10 0 0 0 10 10"></path><path d="M474 187h20"></path><g class="non-terminal "><path d="M494 187h0"></path><path d="M607.5 187h0"></path><rect x="494" y="176" width="113.5" height="22" rx="10" ry="10"></rect><text x="550.75" y="191">userOptions</text></g><path d="M607.5 187h20"></path></g></g><path d="M647.5 187h10"></path><path d="M657.5 187h0"></path></g><path d="M657.5 187h20"></path></g><path d="M 677.5 187 h 20 m 0 -10 v 20"></path></g><defs><style type="text/css"><![CDATA[
svg.railroad-diagram path { stroke-width: 2; stroke: darkgray; fill: rgba(0, 0, 0, 0); }svg.railroad-diagram text { font: bold 12px Hack, "Source Code Pro", monospace; text-anchor: middle; fill: #404040; }svg.railroad-diagram text.comment { font: italic 10px Hack, "Source Code Pro", monospace; fill: #404040; }svg.railroad-diagram g.terminal rect { stroke-width: 2; stroke: #404040; fill: rgba(200, 200, 200, 0.8); }svg.railroad-diagram g.non-terminal rect { stroke-width: 2; stroke: #404040; fill: rgba(255, 255, 255, 1); }svg.railroad-diagram text.diagram-text { font-size: 12px Hack, "Source Code Pro", monospace; fill: red; }svg.railroad-diagram path.diagram-text { stroke-width: 1; stroke: red; fill: red; cursor: help; }
 ]]>
</style></defs></svg>