<?xml version="1.0" encoding="UTF-8" standalone="no"?>
<!DOCTYPE svg PUBLIC "-//W3C//DTD SVG 1.1//EN" "http://www.w3.org/Graphics/SVG/1.1/DTD/svg11.dtd">
<svg class="railroad-diagram" width="896.5" height="373" viewBox="0 0 896.5 373" id="alterRestViewStatement" xmlns="http://www.w3.org/2000/svg" xmlns:xlink="http://www.w3.org/1999/xlink"><g transform="translate(.5 .5)"><g><path d="M20 37v20m0 -10h20"></path></g><g><path d="M40 47h0"></path><path d="M856.5 343h0"></path><path d="M40 47h20"></path><g><path d="M60 47h0"></path><path d="M60 47h10"></path><g><path d="M70 47h0"></path><path d="M806.5 47h20"></path><g class="terminal "><path d="M70 47h0"></path><path d="M132.5 47h0"></path><rect x="70" y="36" width="62.5" height="22"></rect><text x="101.25" y="51">ALTER</text></g><path d="M132.5 47h10"></path><path d="M142.5 47h10"></path><g class="terminal "><path d="M152.5 47h0"></path><path d="M206.5 47h0"></path><rect x="152.5" y="36" width="54" height="22"></rect><text x="179.5" y="51">REST</text></g><path d="M206.5 47h10"></path><g><path d="M216.5 47h0"></path><path d="M310.5 47h0"></path><path d="M216.5 47a10 10 0 0 0 10 -10v-7a10 10 0 0 1 10 -10"></path><g><path d="M236.5 20h54"></path></g><path d="M290.5 20a10 10 0 0 1 10 10v7a10 10 0 0 0 10 10"></path><path d="M216.5 47h20"></path><g class="terminal "><path d="M236.5 47h0"></path><path d="M290.5 47h0"></path><rect x="236.5" y="36" width="54" height="22"></rect><text x="263.5" y="51">JSON</text></g><path d="M290.5 47h20"></path></g><g><path d="M310.5 47h0"></path><path d="M455.5 47h0"></path><path d="M310.5 47a10 10 0 0 0 10 -10v-7a10 10 0 0 1 10 -10"></path><g><path d="M330.5 20h105"></path></g><path d="M435.5 20a10 10 0 0 1 10 10v7a10 10 0 0 0 10 10"></path><path d="M310.5 47h20"></path><g class="terminal "><path d="M330.5 47h0"></path><path d="M435.5 47h0"></path><rect x="330.5" y="36" width="105" height="22"></rect><text x="383" y="51">RELATIONAL</text></g><path d="M435.5 47h20"></path></g><g><path d="M455.5 47h0"></path><path d="M575 47h0"></path><path d="M455.5 47a10 10 0 0 0 10 -10v-7a10 10 0 0 1 10 -10"></path><g><path d="M475.5 20h79.5"></path></g><path d="M555 20a10 10 0 0 1 10 10v7a10 10 0 0 0 10 10"></path><path d="M455.5 47h20"></path><g class="terminal "><path d="M475.5 47h0"></path><path d="M555 47h0"></path><rect x="475.5" y="36" width="79.5" height="22"></rect><text x="515.25" y="51">DUALITY</text></g><path d="M555 47h20"></path></g><path d="M575 47h10"></path><g class="terminal "><path d="M585 47h0"></path><path d="M639 47h0"></path><rect x="585" y="36" width="54" height="22"></rect><text x="612" y="51">VIEW</text></g><path d="M639 47h10"></path><path d="M649 47h10"></path><g class="non-terminal "><path d="M659 47h0"></path><path d="M806.5 47h0"></path><rect x="659" y="36" width="147.5" height="22" rx="10" ry="10"></rect><text x="732.75" y="51">viewRequestPath</text></g></g><path d="M826.5 47a10 10 0 0 1 10 10v7a10 10 0 0 1 -10 10h-756.5a10 10 0 0 0 -10 10v23a10 10 0 0 0 10 10"></path><g><path d="M70 117h0"></path><path d="M425.5 117h401"></path><g><path d="M70 117h0"></path><path d="M425.5 117h0"></path><path d="M70 117a10 10 0 0 0 10 -10v-7a10 10 0 0 1 10 -10"></path><g><path d="M90 90h315.5"></path></g><path d="M405.5 90a10 10 0 0 1 10 10v7a10 10 0 0 0 10 10"></path><path d="M70 117h20"></path><g><path d="M90 117h0"></path><path d="M405.5 117h0"></path><path d="M90 117h20"></path><g><path d="M110 117h0"></path><g><path d="M110 117h0"></path><path d="M365.5 117h20"></path><g class="terminal "><path d="M110 117h0"></path><path d="M147 117h0"></path><rect x="110" y="106" width="37" height="22"></rect><text x="128.5" y="121">ON</text></g><path d="M147 117h10"></path><path d="M157 117h10"></path><g class="non-terminal "><path d="M167 117h0"></path><path d="M365.5 117h0"></path><rect x="167" y="106" width="198.5" height="22" rx="10" ry="10"></rect><text x="266.25" y="121">serviceSchemaSelector</text></g></g><path d="M385.5 117h0"></path></g><path d="M385.5 117h20"></path></g><path d="M405.5 117h20"></path></g></g><path d="M826.5 117a10 10 0 0 1 10 10v7a10 10 0 0 1 -10 10h-756.5a10 10 0 0 0 -10 10v23a10 10 0 0 0 10 10"></path><g><path d="M70 187h0"></path><path d="M582 187h244.5"></path><g><path d="M70 187h0"></path><path d="M582 187h0"></path><path d="M70 187a10 10 0 0 0 10 -10v-7a10 10 0 0 1 10 -10"></path><g><path d="M90 160h472"></path></g><path d="M562 160a10 10 0 0 1 10 10v7a10 10 0 0 0 10 10"></path><path d="M70 187h20"></path><g><path d="M90 187h0"></path><path d="M562 187h0"></path><path d="M90 187h20"></path><g><path d="M110 187h0"></path><g><path d="M110 187h0"></path><path d="M522 187h20"></path><g class="terminal "><path d="M110 187h0"></path><path d="M155.5 187h0"></path><rect x="110" y="176" width="45.5" height="22"></rect><text x="132.75" y="191">NEW</text></g><path d="M155.5 187h10"></path><path d="M165.5 187h10"></path><g class="terminal "><path d="M175.5 187h0"></path><path d="M255 187h0"></path><rect x="175.5" y="176" width="79.5" height="22"></rect><text x="215.25" y="191">REQUEST</text></g><path d="M255 187h10"></path><path d="M265 187h10"></path><g class="terminal "><path d="M275 187h0"></path><path d="M329 187h0"></path><rect x="275" y="176" width="54" height="22"></rect><text x="302" y="191">PATH</text></g><path d="M329 187h10"></path><path d="M339 187h10"></path><g class="non-terminal "><path d="M349 187h0"></path><path d="M522 187h0"></path><rect x="349" y="176" width="173" height="22" rx="10" ry="10"></rect><text x="435.5" y="191">newViewRequestPath</text></g></g><path d="M542 187h0"></path></g><path d="M542 187h20"></path></g><path d="M562 187h20"></path></g></g><path d="M826.5 187a10 10 0 0 1 10 10v7a10 10 0 0 1 -10 10h-756.5a10 10 0 0 0 -10 10v39a10 10 0 0 0 10 10"></path><g><path d="M70 273h0"></path><path d="M759.5 273h67"></path><g><path d="M70 273h0"></path><path d="M759.5 273h0"></path><path d="M70 273a10 10 0 0 0 10 -10v-23a10 10 0 0 1 10 -10"></path><g><path d="M90 230h649.5"></path></g><path d="M739.5 230a10 10 0 0 1 10 10v23a10 10 0 0 0 10 10"></path><path d="M70 273h20"></path><g><path d="M90 273h0"></path><path d="M739.5 273h0"></path><path d="M90 273h20"></path><g><path d="M110 273h0"></path><g><path d="M110 273h0"></path><path d="M699.5 273h20"></path><g class="terminal "><path d="M110 273h0"></path><path d="M172.5 273h0"></path><rect x="110" y="262" width="62.5" height="22"></rect><text x="141.25" y="277">CLASS</text></g><path d="M172.5 273h10"></path><path d="M182.5 273h10"></path><g class="non-terminal "><path d="M192.5 273h0"></path><path d="M331.5 273h0"></path><rect x="192.5" y="262" width="139" height="22" rx="10" ry="10"></rect><text x="262" y="277">restObjectName</text></g><path d="M331.5 273h10"></path><g><path d="M341.5 273h0"></path><path d="M554.5 273h0"></path><path d="M341.5 273a10 10 0 0 0 10 -10v-7a10 10 0 0 1 10 -10"></path><g><path d="M361.5 246h173"></path></g><path d="M534.5 246a10 10 0 0 1 10 10v7a10 10 0 0 0 10 10"></path><path d="M341.5 273h20"></path><g class="non-terminal "><path d="M361.5 273h0"></path><path d="M534.5 273h0"></path><rect x="361.5" y="262" width="173" height="22" rx="10" ry="10"></rect><text x="448" y="277">graphQlCrudOptions</text></g><path d="M534.5 273h20"></path></g><g><path d="M554.5 273h0"></path><path d="M699.5 273h0"></path><path d="M554.5 273a10 10 0 0 0 10 -10v-7a10 10 0 0 1 10 -10"></path><g><path d="M574.5 246h105"></path></g><path d="M679.5 246a10 10 0 0 1 10 10v7a10 10 0 0 0 10 10"></path><path d="M554.5 273h20"></path><g class="non-terminal "><path d="M574.5 273h0"></path><path d="M679.5 273h0"></path><rect x="574.5" y="262" width="105" height="22" rx="10" ry="10"></rect><text x="627" y="277">graphQlObj</text></g><path d="M679.5 273h20"></path></g></g><path d="M719.5 273h0"></path></g><path d="M719.5 273h20"></path></g><path d="M739.5 273h20"></path></g></g><path d="M826.5 273a10 10 0 0 1 10 10v7a10 10 0 0 1 -10 10h-756.5a10 10 0 0 0 -10 10v23a10 10 0 0 0 10 10"></path><g><path d="M70 343h0"></path><path d="M274.5 343h552"></path><g><path d="M70 343h0"></path><path d="M274.5 343h0"></path><path d="M70 343a10 10 0 0 0 10 -10v-7a10 10 0 0 1 10 -10"></path><g><path d="M90 316h164.5"></path></g><path d="M254.5 316a10 10 0 0 1 10 10v7a10 10 0 0 0 10 10"></path><path d="M70 343h20"></path><g class="non-terminal "><path d="M90 343h0"></path><path d="M254.5 343h0"></path><rect x="90" y="332" width="164.5" height="22" rx="10" ry="10"></rect><text x="172.25" y="347">restObjectOptions</text></g><path d="M254.5 343h20"></path></g></g><path d="M826.5 343h10"></path><path d="M836.5 343h0"></path></g><path d="M836.5 343h20"></path></g><path d="M 856.5 343 h 20 m 0 -10 v 20"></path></g><defs><style type="text/css"><![CDATA[
svg.railroad-diagram path { stroke-width: 2; stroke: darkgray; fill: rgba(0, 0, 0, 0); }svg.railroad-diagram text { font: bold 12px Hack, "Source Code Pro", monospace; text-anchor: middle; fill: #404040; }svg.railroad-diagram text.comment { font: italic 10px Hack, "Source Code Pro", monospace; fill: #404040; }svg.railroad-diagram g.terminal rect { stroke-width: 2; stroke: #404040; fill: rgba(200, 200, 200, 0.8); }svg.railroad-diagram g.non-terminal rect { stroke-width: 2; stroke: #404040; fill: rgba(255, 255, 255, 1); }svg.railroad-diagram text.diagram-text { font-size: 12px Hack, "Source Code Pro", monospace; fill: red; }svg.railroad-diagram path.diagram-text { stroke-width: 1; stroke: red; fill: red; cursor: help; }
 ]]>
</style></defs></svg>