<?xml version="1.0" encoding="UTF-8" standalone="no"?>
<!DOCTYPE svg PUBLIC "-//W3C//DTD SVG 1.1//EN" "http://www.w3.org/Graphics/SVG/1.1/DTD/svg11.dtd">
<svg class="railroad-diagram" width="443" height="100" viewBox="0 0 443 100" id="appId" xmlns="http://www.w3.org/2000/svg" xmlns:xlink="http://www.w3.org/1999/xlink"><g transform="translate(.5 .5)"><g><path d="M20 21v20m0 -10h20"></path></g><g><path d="M40 31h0"></path><path d="M403 31h0"></path><path d="M40 31h20"></path><g><path d="M60 31h0"></path><g><path d="M60 31h10"></path><path d="M373 31h10"></path><g><path d="M70 31h0"></path><path d="M201 31h0"></path><path d="M70 31h20"></path><g><path d="M90 31h12.75"></path><g><path d="M102.75 31h10"></path><path d="M158.25 31h10"></path><g class="terminal "><path d="M112.75 31h0"></path><path d="M158.25 31h0"></path><rect x="112.75" y="20" width="45.5" height="22"></rect><text x="135.5" y="35">APP</text></g></g><path d="M168.25 31h12.75"></path></g><path d="M181 31h20"></path><path d="M70 31a10 10 0 0 1 10 10v18a10 10 0 0 0 10 10"></path><g><path d="M90 69h0"></path><g><path d="M90 69h10"></path><path d="M171 69h10"></path><g class="terminal "><path d="M100 69h0"></path><path d="M171 69h0"></path><rect x="100" y="58" width="71" height="22"></rect><text x="135.5" y="73">CLIENT</text></g></g><path d="M181 69h0"></path></g><path d="M181 69a10 10 0 0 0 10 -10v-18a10 10 0 0 1 10 -10"></path></g><path d="M201 31h10"></path><g class="terminal "><path d="M211 31h0"></path><path d="M248 31h0"></path><rect x="211" y="20" width="37" height="22"></rect><text x="229.5" y="35">ID</text></g><path d="M248 31h10"></path><path d="M258 31h10"></path><g class="non-terminal "><path d="M268 31h0"></path><path d="M373 31h0"></path><rect x="268" y="20" width="105" height="22" rx="10" ry="10"></rect><text x="320.5" y="35">quotedText</text></g></g><path d="M383 31h0"></path></g><path d="M383 31h20"></path></g><path d="M 403 31 h 20 m 0 -10 v 20"></path></g><defs><style type="text/css"><![CDATA[
svg.railroad-diagram path { stroke-width: 2; stroke: darkgray; fill: rgba(0, 0, 0, 0); }svg.railroad-diagram text { font: bold 12px Hack, "Source Code Pro", monospace; text-anchor: middle; fill: #404040; }svg.railroad-diagram text.comment { font: italic 10px Hack, "Source Code Pro", monospace; fill: #404040; }svg.railroad-diagram g.terminal rect { stroke-width: 2; stroke: #404040; fill: rgba(200, 200, 200, 0.8); }svg.railroad-diagram g.non-terminal rect { stroke-width: 2; stroke: #404040; fill: rgba(255, 255, 255, 1); }svg.railroad-diagram text.diagram-text { font-size: 12px Hack, "Source Code Pro", monospace; fill: red; }svg.railroad-diagram path.diagram-text { stroke-width: 1; stroke: red; fill: red; cursor: help; }
 ]]>
</style></defs></svg>