<?xml version="1.0" encoding="UTF-8" standalone="no"?>
<!DOCTYPE svg PUBLIC "-//W3C//DTD SVG 1.1//EN" "http://www.w3.org/Graphics/SVG/1.1/DTD/svg11.dtd">
<svg class="railroad-diagram" width="828" height="115" viewBox="0 0 828 115" id="cloneRestServiceStatement" xmlns="http://www.w3.org/2000/svg" xmlns:xlink="http://www.w3.org/1999/xlink"><g transform="translate(.5 .5)"><g><path d="M20 21v20m0 -10h20"></path></g><g><path d="M40 31h0"></path><path d="M788 85h0"></path><path d="M40 31h20"></path><g><path d="M60 31h0"></path><path d="M60 31h10"></path><g><path d="M70 31h0"></path><path d="M738 31h20"></path><g class="terminal "><path d="M70 31h0"></path><path d="M132.5 31h0"></path><rect x="70" y="20" width="62.5" height="22"></rect><text x="101.25" y="35">CLONE</text></g><path d="M132.5 31h10"></path><path d="M142.5 31h10"></path><g class="terminal "><path d="M152.5 31h0"></path><path d="M206.5 31h0"></path><rect x="152.5" y="20" width="54" height="22"></rect><text x="179.5" y="35">REST</text></g><path d="M206.5 31h10"></path><path d="M216.5 31h10"></path><g class="terminal "><path d="M226.5 31h0"></path><path d="M306 31h0"></path><rect x="226.5" y="20" width="79.5" height="22"></rect><text x="266.25" y="35">SERVICE</text></g><path d="M306 31h10"></path><path d="M316 31h10"></path><g class="non-terminal "><path d="M326 31h0"></path><path d="M499 31h0"></path><rect x="326" y="20" width="173" height="22" rx="10" ry="10"></rect><text x="412.5" y="35">serviceRequestPath</text></g><path d="M499 31h10"></path><path d="M509 31h10"></path><g class="terminal "><path d="M519 31h0"></path><path d="M564.5 31h0"></path><rect x="519" y="20" width="45.5" height="22"></rect><text x="541.75" y="35">NEW</text></g><path d="M564.5 31h10"></path><path d="M574.5 31h10"></path><g class="terminal "><path d="M584.5 31h0"></path><path d="M664 31h0"></path><rect x="584.5" y="20" width="79.5" height="22"></rect><text x="624.25" y="35">REQUEST</text></g><path d="M664 31h10"></path><path d="M674 31h10"></path><g class="terminal "><path d="M684 31h0"></path><path d="M738 31h0"></path><rect x="684" y="20" width="54" height="22"></rect><text x="711" y="35">PATH</text></g></g><path d="M758 31a10 10 0 0 1 10 10v7a10 10 0 0 1 -10 10h-688a10 10 0 0 0 -10 10v7a10 10 0 0 0 10 10"></path><g><path d="M70 85h0"></path><path d="M268.5 85h489.5"></path><g class="non-terminal "><path d="M70 85h0"></path><path d="M268.5 85h0"></path><rect x="70" y="74" width="198.5" height="22" rx="10" ry="10"></rect><text x="169.25" y="89">newServiceRequestPath</text></g></g><path d="M758 85h10"></path><path d="M768 85h0"></path></g><path d="M768 85h20"></path></g><path d="M 788 85 h 20 m 0 -10 v 20"></path></g><defs><style type="text/css"><![CDATA[
svg.railroad-diagram path { stroke-width: 2; stroke: darkgray; fill: rgba(0, 0, 0, 0); }svg.railroad-diagram text { font: bold 12px Hack, "Source Code Pro", monospace; text-anchor: middle; fill: #404040; }svg.railroad-diagram text.comment { font: italic 10px Hack, "Source Code Pro", monospace; fill: #404040; }svg.railroad-diagram g.terminal rect { stroke-width: 2; stroke: #404040; fill: rgba(200, 200, 200, 0.8); }svg.railroad-diagram g.non-terminal rect { stroke-width: 2; stroke: #404040; fill: rgba(255, 255, 255, 1); }svg.railroad-diagram text.diagram-text { font-size: 12px Hack, "Source Code Pro", monospace; fill: red; }svg.railroad-diagram path.diagram-text { stroke-width: 1; stroke: red; fill: red; cursor: help; }
 ]]>
</style></defs></svg>