<?xml version="1.0" encoding="UTF-8" standalone="no"?>
<!DOCTYPE svg PUBLIC "-//W3C//DTD SVG 1.1//EN" "http://www.w3.org/Graphics/SVG/1.1/DTD/svg11.dtd">
<svg class="railroad-diagram" width="833.5" height="271" viewBox="0 0 833.5 271" id="createRestContentSetStatement" xmlns="http://www.w3.org/2000/svg" xmlns:xlink="http://www.w3.org/1999/xlink"><g transform="translate(.5 .5)"><g><path d="M20 21v20m0 -10h20"></path></g><g><path d="M40 31h0"></path><path d="M793.5 241h0"></path><path d="M40 31h20"></path><g><path d="M60 31h0"></path><path d="M60 31h10"></path><g><path d="M70 31h0"></path><path d="M743.5 31h20"></path><g><path d="M70 31h0"></path><path d="M743.5 31h0"></path><path d="M70 31h20"></path><g><path d="M90 31h0"></path><g><path d="M90 31h0"></path><path d="M556.5 31h20"></path><g class="terminal "><path d="M90 31h0"></path><path d="M161 31h0"></path><rect x="90" y="20" width="71" height="22"></rect><text x="125.5" y="35">CREATE</text></g><path d="M161 31h10"></path><path d="M171 31h10"></path><g class="terminal "><path d="M181 31h0"></path><path d="M218 31h0"></path><rect x="181" y="20" width="37" height="22"></rect><text x="199.5" y="35">OR</text></g><path d="M218 31h10"></path><path d="M228 31h10"></path><g class="terminal "><path d="M238 31h0"></path><path d="M317.5 31h0"></path><rect x="238" y="20" width="79.5" height="22"></rect><text x="277.75" y="35">REPLACE</text></g><path d="M317.5 31h10"></path><path d="M327.5 31h10"></path><g class="terminal "><path d="M337.5 31h0"></path><path d="M391.5 31h0"></path><rect x="337.5" y="20" width="54" height="22"></rect><text x="364.5" y="35">REST</text></g><path d="M391.5 31h10"></path><path d="M401.5 31h10"></path><g class="terminal "><path d="M411.5 31h0"></path><path d="M491 31h0"></path><rect x="411.5" y="20" width="79.5" height="22"></rect><text x="451.25" y="35">CONTENT</text></g><path d="M491 31h10"></path><path d="M501 31h10"></path><g class="terminal "><path d="M511 31h0"></path><path d="M556.5 31h0"></path><rect x="511" y="20" width="45.5" height="22"></rect><text x="533.75" y="35">SET</text></g></g><path d="M576.5 31h147"></path></g><path d="M723.5 31h20"></path><path d="M70 31a10 10 0 0 1 10 10v34a10 10 0 0 0 10 10"></path><g><path d="M90 85h0"></path><g><path d="M90 85h0"></path><path d="M703.5 85h20"></path><g class="terminal "><path d="M90 85h0"></path><path d="M161 85h0"></path><rect x="90" y="74" width="71" height="22"></rect><text x="125.5" y="89">CREATE</text></g><path d="M161 85h10"></path><path d="M171 85h10"></path><g class="terminal "><path d="M181 85h0"></path><path d="M235 85h0"></path><rect x="181" y="74" width="54" height="22"></rect><text x="208" y="89">REST</text></g><path d="M235 85h10"></path><path d="M245 85h10"></path><g class="terminal "><path d="M255 85h0"></path><path d="M334.5 85h0"></path><rect x="255" y="74" width="79.5" height="22"></rect><text x="294.75" y="89">CONTENT</text></g><path d="M334.5 85h10"></path><path d="M344.5 85h10"></path><g class="terminal "><path d="M354.5 85h0"></path><path d="M400 85h0"></path><rect x="354.5" y="74" width="45.5" height="22"></rect><text x="377.25" y="89">SET</text></g><path d="M400 85h10"></path><g><path d="M410 85h0"></path><path d="M703.5 85h0"></path><path d="M410 85a10 10 0 0 0 10 -10v-7a10 10 0 0 1 10 -10"></path><g><path d="M430 58h253.5"></path></g><path d="M683.5 58a10 10 0 0 1 10 10v7a10 10 0 0 0 10 10"></path><path d="M410 85h20"></path><g><path d="M430 85h0"></path><path d="M683.5 85h0"></path><path d="M430 85h20"></path><g><path d="M450 85h0"></path><g><path d="M450 85h0"></path><path d="M643.5 85h20"></path><g class="terminal "><path d="M450 85h0"></path><path d="M487 85h0"></path><rect x="450" y="74" width="37" height="22"></rect><text x="468.5" y="89">IF</text></g><path d="M487 85h10"></path><path d="M497 85h10"></path><g class="terminal "><path d="M507 85h0"></path><path d="M552.5 85h0"></path><rect x="507" y="74" width="45.5" height="22"></rect><text x="529.75" y="89">NOT</text></g><path d="M552.5 85h10"></path><path d="M562.5 85h10"></path><g class="terminal "><path d="M572.5 85h0"></path><path d="M643.5 85h0"></path><rect x="572.5" y="74" width="71" height="22"></rect><text x="608" y="89">EXISTS</text></g></g><path d="M663.5 85h0"></path></g><path d="M663.5 85h20"></path></g><path d="M683.5 85h20"></path></g></g><path d="M723.5 85h0"></path></g><path d="M723.5 85a10 10 0 0 0 10 -10v-34a10 10 0 0 1 10 -10"></path></g></g><path d="M763.5 31a10 10 0 0 1 10 10v61a10 10 0 0 1 -10 10h-693.5a10 10 0 0 0 -10 10v39a10 10 0 0 0 10 10"></path><g><path d="M70 171h0"></path><path d="M728 171h35.5"></path><g class="non-terminal "><path d="M70 171h0"></path><path d="M268.5 171h0"></path><rect x="70" y="160" width="198.5" height="22" rx="10" ry="10"></rect><text x="169.25" y="175">contentSetRequestPath</text></g><path d="M268.5 171h10"></path><g><path d="M278.5 171h0"></path><path d="M728 171h0"></path><path d="M278.5 171a10 10 0 0 0 10 -10v-23a10 10 0 0 1 10 -10"></path><g><path d="M298.5 128h409.5"></path></g><path d="M708 128a10 10 0 0 1 10 10v23a10 10 0 0 0 10 10"></path><path d="M278.5 171h20"></path><g><path d="M298.5 171h0"></path><path d="M708 171h0"></path><path d="M298.5 171h20"></path><g><path d="M318.5 171h0"></path><g><path d="M318.5 171h0"></path><path d="M668 171h20"></path><g class="terminal "><path d="M318.5 171h0"></path><path d="M355.5 171h0"></path><rect x="318.5" y="160" width="37" height="22"></rect><text x="337" y="175">ON</text></g><path d="M355.5 171h10"></path><g><path d="M365.5 171h0"></path><path d="M485 171h0"></path><path d="M365.5 171a10 10 0 0 0 10 -10v-7a10 10 0 0 1 10 -10"></path><g><path d="M385.5 144h79.5"></path></g><path d="M465 144a10 10 0 0 1 10 10v7a10 10 0 0 0 10 10"></path><path d="M365.5 171h20"></path><g class="terminal "><path d="M385.5 171h0"></path><path d="M465 171h0"></path><rect x="385.5" y="160" width="79.5" height="22"></rect><text x="425.25" y="175">SERVICE</text></g><path d="M465 171h20"></path></g><path d="M485 171h10"></path><g class="non-terminal "><path d="M495 171h0"></path><path d="M668 171h0"></path><rect x="495" y="160" width="173" height="22" rx="10" ry="10"></rect><text x="581.5" y="175">serviceRequestPath</text></g></g><path d="M688 171h0"></path></g><path d="M688 171h20"></path></g><path d="M708 171h20"></path></g></g><path d="M763.5 171a10 10 0 0 1 10 10v7a10 10 0 0 1 -10 10h-693.5a10 10 0 0 0 -10 10v23a10 10 0 0 0 10 10"></path><g><path d="M70 241h0"></path><path d="M647 241h116.5"></path><g><path d="M70 241h0"></path><path d="M408.5 241h0"></path><path d="M70 241a10 10 0 0 0 10 -10v-7a10 10 0 0 1 10 -10"></path><g><path d="M90 214h298.5"></path></g><path d="M388.5 214a10 10 0 0 1 10 10v7a10 10 0 0 0 10 10"></path><path d="M70 241h20"></path><g><path d="M90 241h0"></path><path d="M388.5 241h0"></path><path d="M90 241h20"></path><g><path d="M110 241h0"></path><g><path d="M110 241h0"></path><path d="M348.5 241h20"></path><g class="terminal "><path d="M110 241h0"></path><path d="M164 241h0"></path><rect x="110" y="230" width="54" height="22"></rect><text x="137" y="245">FROM</text></g><path d="M164 241h10"></path><path d="M174 241h10"></path><g class="non-terminal "><path d="M184 241h0"></path><path d="M348.5 241h0"></path><rect x="184" y="230" width="164.5" height="22" rx="10" ry="10"></rect><text x="266.25" y="245">directoryFilePath</text></g></g><path d="M368.5 241h0"></path></g><path d="M368.5 241h20"></path></g><path d="M388.5 241h20"></path></g><g><path d="M408.5 241h0"></path><path d="M647 241h0"></path><path d="M408.5 241a10 10 0 0 0 10 -10v-7a10 10 0 0 1 10 -10"></path><g><path d="M428.5 214h198.5"></path></g><path d="M627 214a10 10 0 0 1 10 10v7a10 10 0 0 0 10 10"></path><path d="M408.5 241h20"></path><g class="non-terminal "><path d="M428.5 241h0"></path><path d="M627 241h0"></path><rect x="428.5" y="230" width="198.5" height="22" rx="10" ry="10"></rect><text x="527.75" y="245">restContentSetOptions</text></g><path d="M627 241h20"></path></g></g><path d="M763.5 241h10"></path><path d="M773.5 241h0"></path></g><path d="M773.5 241h20"></path></g><path d="M 793.5 241 h 20 m 0 -10 v 20"></path></g><defs><style type="text/css"><![CDATA[
svg.railroad-diagram path { stroke-width: 2; stroke: darkgray; fill: rgba(0, 0, 0, 0); }svg.railroad-diagram text { font: bold 12px Hack, "Source Code Pro", monospace; text-anchor: middle; fill: #404040; }svg.railroad-diagram text.comment { font: italic 10px Hack, "Source Code Pro", monospace; fill: #404040; }svg.railroad-diagram g.terminal rect { stroke-width: 2; stroke: #404040; fill: rgba(200, 200, 200, 0.8); }svg.railroad-diagram g.non-terminal rect { stroke-width: 2; stroke: #404040; fill: rgba(255, 255, 255, 1); }svg.railroad-diagram text.diagram-text { font-size: 12px Hack, "Source Code Pro", monospace; fill: red; }svg.railroad-diagram path.diagram-text { stroke-width: 1; stroke: red; fill: red; cursor: help; }
 ]]>
</style></defs></svg>