<?xml version="1.0" encoding="UTF-8" standalone="no"?>
<!DOCTYPE svg PUBLIC "-//W3C//DTD SVG 1.1//EN" "http://www.w3.org/Graphics/SVG/1.1/DTD/svg11.dtd">
<svg class="railroad-diagram" width="842" height="433" viewBox="0 0 842 433" id="createRestContentFileStatement" xmlns="http://www.w3.org/2000/svg" xmlns:xlink="http://www.w3.org/1999/xlink"><g transform="translate(.5 .5)"><g><path d="M20 21v20m0 -10h20"></path></g><g><path d="M40 31h0"></path><path d="M802 403h0"></path><path d="M40 31h20"></path><g><path d="M60 31h0"></path><path d="M60 31h10"></path><g><path d="M70 31h0"></path><path d="M752 31h20"></path><g><path d="M70 31h0"></path><path d="M752 31h0"></path><path d="M70 31h20"></path><g><path d="M90 31h0"></path><g><path d="M90 31h0"></path><path d="M565 31h20"></path><g class="terminal "><path d="M90 31h0"></path><path d="M161 31h0"></path><rect x="90" y="20" width="71" height="22"></rect><text x="125.5" y="35">CREATE</text></g><path d="M161 31h10"></path><path d="M171 31h10"></path><g class="terminal "><path d="M181 31h0"></path><path d="M218 31h0"></path><rect x="181" y="20" width="37" height="22"></rect><text x="199.5" y="35">OR</text></g><path d="M218 31h10"></path><path d="M228 31h10"></path><g class="terminal "><path d="M238 31h0"></path><path d="M317.5 31h0"></path><rect x="238" y="20" width="79.5" height="22"></rect><text x="277.75" y="35">REPLACE</text></g><path d="M317.5 31h10"></path><path d="M327.5 31h10"></path><g class="terminal "><path d="M337.5 31h0"></path><path d="M391.5 31h0"></path><rect x="337.5" y="20" width="54" height="22"></rect><text x="364.5" y="35">REST</text></g><path d="M391.5 31h10"></path><path d="M401.5 31h10"></path><g class="terminal "><path d="M411.5 31h0"></path><path d="M491 31h0"></path><rect x="411.5" y="20" width="79.5" height="22"></rect><text x="451.25" y="35">CONTENT</text></g><path d="M491 31h10"></path><path d="M501 31h10"></path><g class="terminal "><path d="M511 31h0"></path><path d="M565 31h0"></path><rect x="511" y="20" width="54" height="22"></rect><text x="538" y="35">FILE</text></g></g><path d="M585 31h147"></path></g><path d="M732 31h20"></path><path d="M70 31a10 10 0 0 1 10 10v34a10 10 0 0 0 10 10"></path><g><path d="M90 85h0"></path><g><path d="M90 85h0"></path><path d="M712 85h20"></path><g class="terminal "><path d="M90 85h0"></path><path d="M161 85h0"></path><rect x="90" y="74" width="71" height="22"></rect><text x="125.5" y="89">CREATE</text></g><path d="M161 85h10"></path><path d="M171 85h10"></path><g class="terminal "><path d="M181 85h0"></path><path d="M235 85h0"></path><rect x="181" y="74" width="54" height="22"></rect><text x="208" y="89">REST</text></g><path d="M235 85h10"></path><path d="M245 85h10"></path><g class="terminal "><path d="M255 85h0"></path><path d="M334.5 85h0"></path><rect x="255" y="74" width="79.5" height="22"></rect><text x="294.75" y="89">CONTENT</text></g><path d="M334.5 85h10"></path><path d="M344.5 85h10"></path><g class="terminal "><path d="M354.5 85h0"></path><path d="M408.5 85h0"></path><rect x="354.5" y="74" width="54" height="22"></rect><text x="381.5" y="89">FILE</text></g><path d="M408.5 85h10"></path><g><path d="M418.5 85h0"></path><path d="M712 85h0"></path><path d="M418.5 85a10 10 0 0 0 10 -10v-7a10 10 0 0 1 10 -10"></path><g><path d="M438.5 58h253.5"></path></g><path d="M692 58a10 10 0 0 1 10 10v7a10 10 0 0 0 10 10"></path><path d="M418.5 85h20"></path><g><path d="M438.5 85h0"></path><path d="M692 85h0"></path><path d="M438.5 85h20"></path><g><path d="M458.5 85h0"></path><g><path d="M458.5 85h0"></path><path d="M652 85h20"></path><g class="terminal "><path d="M458.5 85h0"></path><path d="M495.5 85h0"></path><rect x="458.5" y="74" width="37" height="22"></rect><text x="477" y="89">IF</text></g><path d="M495.5 85h10"></path><path d="M505.5 85h10"></path><g class="terminal "><path d="M515.5 85h0"></path><path d="M561 85h0"></path><rect x="515.5" y="74" width="45.5" height="22"></rect><text x="538.25" y="89">NOT</text></g><path d="M561 85h10"></path><path d="M571 85h10"></path><g class="terminal "><path d="M581 85h0"></path><path d="M652 85h0"></path><rect x="581" y="74" width="71" height="22"></rect><text x="616.5" y="89">EXISTS</text></g></g><path d="M672 85h0"></path></g><path d="M672 85h20"></path></g><path d="M692 85h20"></path></g></g><path d="M732 85h0"></path></g><path d="M732 85a10 10 0 0 0 10 -10v-34a10 10 0 0 1 10 -10"></path></g></g><path d="M772 31a10 10 0 0 1 10 10v61a10 10 0 0 1 -10 10h-702a10 10 0 0 0 -10 10v39a10 10 0 0 0 10 10"></path><g><path d="M70 171h0"></path><path d="M746.5 171h25.5"></path><g class="non-terminal "><path d="M70 171h0"></path><path d="M277 171h0"></path><rect x="70" y="160" width="207" height="22" rx="10" ry="10"></rect><text x="173.5" y="175">contentFileRequestPath</text></g><path d="M277 171h10"></path><path d="M287 171h10"></path><g class="terminal "><path d="M297 171h0"></path><path d="M334 171h0"></path><rect x="297" y="160" width="37" height="22"></rect><text x="315.5" y="175">ON</text></g><path d="M334 171h10"></path><g><path d="M344 171h0"></path><path d="M746.5 171h0"></path><path d="M344 171a10 10 0 0 0 10 -10v-23a10 10 0 0 1 10 -10"></path><g><path d="M364 128h362.5"></path></g><path d="M726.5 128a10 10 0 0 1 10 10v23a10 10 0 0 0 10 10"></path><path d="M344 171h20"></path><g><path d="M364 171h0"></path><path d="M726.5 171h0"></path><path d="M364 171h20"></path><g><path d="M384 171h0"></path><g><path d="M384 171h0"></path><path d="M686.5 171h20"></path><g><path d="M384 171h0"></path><path d="M503.5 171h0"></path><path d="M384 171a10 10 0 0 0 10 -10v-7a10 10 0 0 1 10 -10"></path><g><path d="M404 144h79.5"></path></g><path d="M483.5 144a10 10 0 0 1 10 10v7a10 10 0 0 0 10 10"></path><path d="M384 171h20"></path><g class="terminal "><path d="M404 171h0"></path><path d="M483.5 171h0"></path><rect x="404" y="160" width="79.5" height="22"></rect><text x="443.75" y="175">SERVICE</text></g><path d="M483.5 171h20"></path></g><path d="M503.5 171h10"></path><g class="non-terminal "><path d="M513.5 171h0"></path><path d="M686.5 171h0"></path><rect x="513.5" y="160" width="173" height="22" rx="10" ry="10"></rect><text x="600" y="175">serviceRequestPath</text></g></g><path d="M706.5 171h0"></path></g><path d="M706.5 171h20"></path></g><path d="M726.5 171h20"></path></g></g><path d="M772 171a10 10 0 0 1 10 10v7a10 10 0 0 1 -10 10h-702a10 10 0 0 0 -10 10v7a10 10 0 0 0 10 10"></path><g><path d="M70 225h0"></path><path d="M433.5 225h338.5"></path><g class="terminal "><path d="M70 225h0"></path><path d="M149.5 225h0"></path><rect x="70" y="214" width="79.5" height="22"></rect><text x="109.75" y="229">CONTENT</text></g><path d="M149.5 225h10"></path><path d="M159.5 225h10"></path><g class="terminal "><path d="M169.5 225h0"></path><path d="M215 225h0"></path><rect x="169.5" y="214" width="45.5" height="22"></rect><text x="192.25" y="229">SET</text></g><path d="M215 225h10"></path><path d="M225 225h10"></path><g class="non-terminal "><path d="M235 225h0"></path><path d="M433.5 225h0"></path><rect x="235" y="214" width="198.5" height="22" rx="10" ry="10"></rect><text x="334.25" y="229">contentSetRequestPath</text></g></g><path d="M772 225a10 10 0 0 1 10 10v7a10 10 0 0 1 -10 10h-702a10 10 0 0 0 -10 10v7a10 10 0 0 0 10 10"></path><g><path d="M70 279h0"></path><path d="M575 279h197"></path><g><path d="M70 279h0"></path><path d="M575 279h0"></path><path d="M70 279h20"></path><g><path d="M90 279h0"></path><g><path d="M90 279h0"></path><path d="M388.5 279h20"></path><g><path d="M90 279h0"></path><path d="M388.5 279h0"></path><path d="M90 279h20"></path><g><path d="M110 279h0"></path><g><path d="M110 279h0"></path><path d="M348.5 279h20"></path><g class="terminal "><path d="M110 279h0"></path><path d="M164 279h0"></path><rect x="110" y="268" width="54" height="22"></rect><text x="137" y="283">FROM</text></g><path d="M164 279h10"></path><path d="M174 279h10"></path><g class="non-terminal "><path d="M184 279h0"></path><path d="M348.5 279h0"></path><rect x="184" y="268" width="164.5" height="22" rx="10" ry="10"></rect><text x="266.25" y="283">directoryFilePath</text></g></g><path d="M368.5 279h0"></path></g><path d="M368.5 279h20"></path></g></g><path d="M408.5 279h146.5"></path></g><path d="M555 279h20"></path><path d="M70 279a10 10 0 0 1 10 10v34a10 10 0 0 0 10 10"></path><g><path d="M90 333h0"></path><g><path d="M90 333h0"></path><path d="M535 333h20"></path><g><path d="M90 333h0"></path><path d="M535 333h0"></path><path d="M90 333h20"></path><g><path d="M110 333h0"></path><g><path d="M110 333h0"></path><path d="M495 333h20"></path><g><path d="M110 333h0"></path><path d="M221 333h0"></path><path d="M110 333a10 10 0 0 0 10 -10v-7a10 10 0 0 1 10 -10"></path><g><path d="M130 306h71"></path></g><path d="M201 306a10 10 0 0 1 10 10v7a10 10 0 0 0 10 10"></path><path d="M110 333h20"></path><g class="terminal "><path d="M130 333h0"></path><path d="M201 333h0"></path><rect x="130" y="322" width="71" height="22"></rect><text x="165.5" y="337">BINARY</text></g><path d="M201 333h20"></path></g><path d="M221 333h10"></path><g class="terminal "><path d="M231 333h0"></path><path d="M310.5 333h0"></path><rect x="231" y="322" width="79.5" height="22"></rect><text x="270.75" y="337">CONTENT</text></g><path d="M310.5 333h10"></path><path d="M320.5 333h10"></path><g class="non-terminal "><path d="M330.5 333h0"></path><path d="M495 333h0"></path><rect x="330.5" y="322" width="164.5" height="22" rx="10" ry="10"></rect><text x="412.75" y="337">textStringLiteral</text></g></g><path d="M515 333h0"></path></g><path d="M515 333h20"></path></g></g><path d="M555 333h0"></path></g><path d="M555 333a10 10 0 0 0 10 -10v-34a10 10 0 0 1 10 -10"></path></g></g><path d="M772 279a10 10 0 0 1 10 10v61a10 10 0 0 1 -10 10h-702a10 10 0 0 0 -10 10v23a10 10 0 0 0 10 10"></path><g><path d="M70 403h0"></path><path d="M317 403h455"></path><g><path d="M70 403h0"></path><path d="M317 403h0"></path><path d="M70 403a10 10 0 0 0 10 -10v-7a10 10 0 0 1 10 -10"></path><g><path d="M90 376h207"></path></g><path d="M297 376a10 10 0 0 1 10 10v7a10 10 0 0 0 10 10"></path><path d="M70 403h20"></path><g class="non-terminal "><path d="M90 403h0"></path><path d="M297 403h0"></path><rect x="90" y="392" width="207" height="22" rx="10" ry="10"></rect><text x="193.5" y="407">restContentFileOptions</text></g><path d="M297 403h20"></path></g></g><path d="M772 403h10"></path><path d="M782 403h0"></path></g><path d="M782 403h20"></path></g><path d="M 802 403 h 20 m 0 -10 v 20"></path></g><defs><style type="text/css"><![CDATA[
svg.railroad-diagram path { stroke-width: 2; stroke: darkgray; fill: rgba(0, 0, 0, 0); }svg.railroad-diagram text { font: bold 12px Hack, "Source Code Pro", monospace; text-anchor: middle; fill: #404040; }svg.railroad-diagram text.comment { font: italic 10px Hack, "Source Code Pro", monospace; fill: #404040; }svg.railroad-diagram g.terminal rect { stroke-width: 2; stroke: #404040; fill: rgba(200, 200, 200, 0.8); }svg.railroad-diagram g.non-terminal rect { stroke-width: 2; stroke: #404040; fill: rgba(255, 255, 255, 1); }svg.railroad-diagram text.diagram-text { font-size: 12px Hack, "Source Code Pro", monospace; fill: red; }svg.railroad-diagram path.diagram-text { stroke-width: 1; stroke: red; fill: red; cursor: help; }
 ]]>
</style></defs></svg>