<?xml version="1.0" encoding="UTF-8" standalone="no"?>
<!DOCTYPE svg PUBLIC "-//W3C//DTD SVG 1.1//EN" "http://www.w3.org/Graphics/SVG/1.1/DTD/svg11.dtd">
<svg class="railroad-diagram" width="840.5" height="185" viewBox="0 0 840.5 185" id="createRestRoleStatement" xmlns="http://www.w3.org/2000/svg" xmlns:xlink="http://www.w3.org/1999/xlink"><g transform="translate(.5 .5)"><g><path d="M20 21v20m0 -10h20"></path></g><g><path d="M40 31h0"></path><path d="M800.5 155h0"></path><path d="M40 31h20"></path><g><path d="M60 31h0"></path><path d="M60 31h10"></path><g><path d="M70 31h0"></path><path d="M750.5 31h20"></path><g><path d="M70 31h0"></path><path d="M652.5 31h0"></path><path d="M70 31h20"></path><g><path d="M90 31h0"></path><g><path d="M90 31h0"></path><path d="M465.5 31h20"></path><g class="terminal "><path d="M90 31h0"></path><path d="M161 31h0"></path><rect x="90" y="20" width="71" height="22"></rect><text x="125.5" y="35">CREATE</text></g><path d="M161 31h10"></path><path d="M171 31h10"></path><g class="terminal "><path d="M181 31h0"></path><path d="M218 31h0"></path><rect x="181" y="20" width="37" height="22"></rect><text x="199.5" y="35">OR</text></g><path d="M218 31h10"></path><path d="M228 31h10"></path><g class="terminal "><path d="M238 31h0"></path><path d="M317.5 31h0"></path><rect x="238" y="20" width="79.5" height="22"></rect><text x="277.75" y="35">REPLACE</text></g><path d="M317.5 31h10"></path><path d="M327.5 31h10"></path><g class="terminal "><path d="M337.5 31h0"></path><path d="M391.5 31h0"></path><rect x="337.5" y="20" width="54" height="22"></rect><text x="364.5" y="35">REST</text></g><path d="M391.5 31h10"></path><path d="M401.5 31h10"></path><g class="terminal "><path d="M411.5 31h0"></path><path d="M465.5 31h0"></path><rect x="411.5" y="20" width="54" height="22"></rect><text x="438.5" y="35">ROLE</text></g></g><path d="M485.5 31h147"></path></g><path d="M632.5 31h20"></path><path d="M70 31a10 10 0 0 1 10 10v34a10 10 0 0 0 10 10"></path><g><path d="M90 85h0"></path><g><path d="M90 85h0"></path><path d="M612.5 85h20"></path><g class="terminal "><path d="M90 85h0"></path><path d="M161 85h0"></path><rect x="90" y="74" width="71" height="22"></rect><text x="125.5" y="89">CREATE</text></g><path d="M161 85h10"></path><path d="M171 85h10"></path><g class="terminal "><path d="M181 85h0"></path><path d="M235 85h0"></path><rect x="181" y="74" width="54" height="22"></rect><text x="208" y="89">REST</text></g><path d="M235 85h10"></path><path d="M245 85h10"></path><g class="terminal "><path d="M255 85h0"></path><path d="M309 85h0"></path><rect x="255" y="74" width="54" height="22"></rect><text x="282" y="89">ROLE</text></g><path d="M309 85h10"></path><g><path d="M319 85h0"></path><path d="M612.5 85h0"></path><path d="M319 85a10 10 0 0 0 10 -10v-7a10 10 0 0 1 10 -10"></path><g><path d="M339 58h253.5"></path></g><path d="M592.5 58a10 10 0 0 1 10 10v7a10 10 0 0 0 10 10"></path><path d="M319 85h20"></path><g><path d="M339 85h0"></path><path d="M592.5 85h0"></path><path d="M339 85h20"></path><g><path d="M359 85h0"></path><g><path d="M359 85h0"></path><path d="M552.5 85h20"></path><g class="terminal "><path d="M359 85h0"></path><path d="M396 85h0"></path><rect x="359" y="74" width="37" height="22"></rect><text x="377.5" y="89">IF</text></g><path d="M396 85h10"></path><path d="M406 85h10"></path><g class="terminal "><path d="M416 85h0"></path><path d="M461.5 85h0"></path><rect x="416" y="74" width="45.5" height="22"></rect><text x="438.75" y="89">NOT</text></g><path d="M461.5 85h10"></path><path d="M471.5 85h10"></path><g class="terminal "><path d="M481.5 85h0"></path><path d="M552.5 85h0"></path><rect x="481.5" y="74" width="71" height="22"></rect><text x="517" y="89">EXISTS</text></g></g><path d="M572.5 85h0"></path></g><path d="M572.5 85h20"></path></g><path d="M592.5 85h20"></path></g></g><path d="M632.5 85h0"></path></g><path d="M632.5 85a10 10 0 0 0 10 -10v-34a10 10 0 0 1 10 -10"></path></g><path d="M652.5 31h10"></path><g class="non-terminal "><path d="M662.5 31h0"></path><path d="M750.5 31h0"></path><rect x="662.5" y="20" width="88" height="22" rx="10" ry="10"></rect><text x="706.5" y="35">roleName</text></g></g><path d="M770.5 31a10 10 0 0 1 10 10v61a10 10 0 0 1 -10 10h-700.5a10 10 0 0 0 -10 10v23a10 10 0 0 0 10 10"></path><g><path d="M70 155h0"></path><path d="M749.5 155h21"></path><g><path d="M70 155h0"></path><path d="M408.5 155h0"></path><path d="M70 155a10 10 0 0 0 10 -10v-7a10 10 0 0 1 10 -10"></path><g><path d="M90 128h298.5"></path></g><path d="M388.5 128a10 10 0 0 1 10 10v7a10 10 0 0 0 10 10"></path><path d="M70 155h20"></path><g><path d="M90 155h0"></path><path d="M388.5 155h0"></path><path d="M90 155h20"></path><g><path d="M110 155h0"></path><g><path d="M110 155h0"></path><path d="M348.5 155h20"></path><g class="terminal "><path d="M110 155h0"></path><path d="M189.5 155h0"></path><rect x="110" y="144" width="79.5" height="22"></rect><text x="149.75" y="159">EXTENDS</text></g><path d="M189.5 155h10"></path><path d="M199.5 155h10"></path><g class="non-terminal "><path d="M209.5 155h0"></path><path d="M348.5 155h0"></path><rect x="209.5" y="144" width="139" height="22" rx="10" ry="10"></rect><text x="279" y="159">parentRoleName</text></g></g><path d="M368.5 155h0"></path></g><path d="M368.5 155h20"></path></g><path d="M388.5 155h20"></path></g><g><path d="M408.5 155h0"></path><path d="M562 155h0"></path><path d="M408.5 155a10 10 0 0 0 10 -10v-7a10 10 0 0 1 10 -10"></path><g><path d="M428.5 128h113.5"></path></g><path d="M542 128a10 10 0 0 1 10 10v7a10 10 0 0 0 10 10"></path><path d="M408.5 155h20"></path><g class="non-terminal "><path d="M428.5 155h0"></path><path d="M542 155h0"></path><rect x="428.5" y="144" width="113.5" height="22" rx="10" ry="10"></rect><text x="485.25" y="159">roleService</text></g><path d="M542 155h20"></path></g><g><path d="M562 155h0"></path><path d="M749.5 155h0"></path><path d="M562 155a10 10 0 0 0 10 -10v-7a10 10 0 0 1 10 -10"></path><g><path d="M582 128h147.5"></path></g><path d="M729.5 128a10 10 0 0 1 10 10v7a10 10 0 0 0 10 10"></path><path d="M562 155h20"></path><g class="non-terminal "><path d="M582 155h0"></path><path d="M729.5 155h0"></path><rect x="582" y="144" width="147.5" height="22" rx="10" ry="10"></rect><text x="655.75" y="159">restRoleOptions</text></g><path d="M729.5 155h20"></path></g></g><path d="M770.5 155h10"></path><path d="M780.5 155h0"></path></g><path d="M780.5 155h20"></path></g><path d="M 800.5 155 h 20 m 0 -10 v 20"></path></g><defs><style type="text/css"><![CDATA[
svg.railroad-diagram path { stroke-width: 2; stroke: darkgray; fill: rgba(0, 0, 0, 0); }svg.railroad-diagram text { font: bold 12px Hack, "Source Code Pro", monospace; text-anchor: middle; fill: #404040; }svg.railroad-diagram text.comment { font: italic 10px Hack, "Source Code Pro", monospace; fill: #404040; }svg.railroad-diagram g.terminal rect { stroke-width: 2; stroke: #404040; fill: rgba(200, 200, 200, 0.8); }svg.railroad-diagram g.non-terminal rect { stroke-width: 2; stroke: #404040; fill: rgba(255, 255, 255, 1); }svg.railroad-diagram text.diagram-text { font-size: 12px Hack, "Source Code Pro", monospace; fill: red; }svg.railroad-diagram path.diagram-text { stroke-width: 1; stroke: red; fill: red; cursor: help; }
 ]]>
</style></defs></svg>