<?xml version="1.0" encoding="UTF-8" standalone="no"?>
<!DOCTYPE svg PUBLIC "-//W3C//DTD SVG 1.1//EN" "http://www.w3.org/Graphics/SVG/1.1/DTD/svg11.dtd">
<svg class="railroad-diagram" width="956.5" height="147" viewBox="0 0 956.5 147" id="createRestUserStatement" xmlns="http://www.w3.org/2000/svg" xmlns:xlink="http://www.w3.org/1999/xlink"><g transform="translate(.5 .5)"><g><path d="M20 37v20m0 -10h20"></path></g><g><path d="M40 47h0"></path><path d="M916.5 117h0"></path><path d="M40 47h20"></path><g><path d="M60 47h0"></path><path d="M60 47h10"></path><g><path d="M70 47h0"></path><path d="M866.5 47h20"></path><g class="terminal "><path d="M70 47h0"></path><path d="M141 47h0"></path><rect x="70" y="36" width="71" height="22"></rect><text x="105.5" y="51">CREATE</text></g><path d="M141 47h10"></path><g><path d="M151 47h0"></path><path d="M387.5 47h0"></path><path d="M151 47a10 10 0 0 0 10 -10v-7a10 10 0 0 1 10 -10"></path><g><path d="M171 20h196.5"></path></g><path d="M367.5 20a10 10 0 0 1 10 10v7a10 10 0 0 0 10 10"></path><path d="M151 47h20"></path><g><path d="M171 47h0"></path><path d="M367.5 47h0"></path><path d="M171 47h20"></path><g><path d="M191 47h0"></path><g><path d="M191 47h0"></path><path d="M327.5 47h20"></path><g class="terminal "><path d="M191 47h0"></path><path d="M228 47h0"></path><rect x="191" y="36" width="37" height="22"></rect><text x="209.5" y="51">OR</text></g><path d="M228 47h10"></path><path d="M238 47h10"></path><g class="terminal "><path d="M248 47h0"></path><path d="M327.5 47h0"></path><rect x="248" y="36" width="79.5" height="22"></rect><text x="287.75" y="51">REPLACE</text></g></g><path d="M347.5 47h0"></path></g><path d="M347.5 47h20"></path></g><path d="M367.5 47h20"></path></g><path d="M387.5 47h10"></path><g class="terminal "><path d="M397.5 47h0"></path><path d="M451.5 47h0"></path><rect x="397.5" y="36" width="54" height="22"></rect><text x="424.5" y="51">REST</text></g><path d="M451.5 47h10"></path><path d="M461.5 47h10"></path><g class="terminal "><path d="M471.5 47h0"></path><path d="M525.5 47h0"></path><rect x="471.5" y="36" width="54" height="22"></rect><text x="498.5" y="51">USER</text></g><path d="M525.5 47h10"></path><path d="M535.5 47h10"></path><g class="non-terminal "><path d="M545.5 47h0"></path><path d="M633.5 47h0"></path><rect x="545.5" y="36" width="88" height="22" rx="10" ry="10"></rect><text x="589.5" y="51">userName</text></g><path d="M633.5 47h10"></path><path d="M643.5 47h10"></path><g class="terminal "><path d="M653.5 47h0"></path><path d="M733 47h0"></path><rect x="653.5" y="36" width="79.5" height="22"></rect><text x="693.25" y="51">AT_SIGN</text></g><path d="M733 47h10"></path><path d="M743 47h10"></path><g class="non-terminal "><path d="M753 47h0"></path><path d="M866.5 47h0"></path><rect x="753" y="36" width="113.5" height="22" rx="10" ry="10"></rect><text x="809.75" y="51">authAppName</text></g></g><path d="M886.5 47a10 10 0 0 1 10 10v7a10 10 0 0 1 -10 10h-816.5a10 10 0 0 0 -10 10v23a10 10 0 0 0 10 10"></path><g><path d="M70 117h0"></path><path d="M627.5 117h259"></path><g><path d="M70 117h0"></path><path d="M474 117h0"></path><path d="M70 117a10 10 0 0 0 10 -10v-7a10 10 0 0 1 10 -10"></path><g><path d="M90 90h364"></path></g><path d="M454 90a10 10 0 0 1 10 10v7a10 10 0 0 0 10 10"></path><path d="M70 117h20"></path><g><path d="M90 117h0"></path><path d="M454 117h0"></path><path d="M90 117h20"></path><g><path d="M110 117h0"></path><g><path d="M110 117h0"></path><path d="M414 117h20"></path><g class="terminal "><path d="M110 117h0"></path><path d="M215 117h0"></path><rect x="110" y="106" width="105" height="22"></rect><text x="162.5" y="121">IDENTIFIED</text></g><path d="M215 117h10"></path><path d="M225 117h10"></path><g class="terminal "><path d="M235 117h0"></path><path d="M272 117h0"></path><rect x="235" y="106" width="37" height="22"></rect><text x="253.5" y="121">BY</text></g><path d="M272 117h10"></path><path d="M282 117h10"></path><g class="non-terminal "><path d="M292 117h0"></path><path d="M414 117h0"></path><rect x="292" y="106" width="122" height="22" rx="10" ry="10"></rect><text x="353" y="121">userPassword</text></g></g><path d="M434 117h0"></path></g><path d="M434 117h20"></path></g><path d="M454 117h20"></path></g><g><path d="M474 117h0"></path><path d="M627.5 117h0"></path><path d="M474 117a10 10 0 0 0 10 -10v-7a10 10 0 0 1 10 -10"></path><g><path d="M494 90h113.5"></path></g><path d="M607.5 90a10 10 0 0 1 10 10v7a10 10 0 0 0 10 10"></path><path d="M474 117h20"></path><g class="non-terminal "><path d="M494 117h0"></path><path d="M607.5 117h0"></path><rect x="494" y="106" width="113.5" height="22" rx="10" ry="10"></rect><text x="550.75" y="121">userOptions</text></g><path d="M607.5 117h20"></path></g></g><path d="M886.5 117h10"></path><path d="M896.5 117h0"></path></g><path d="M896.5 117h20"></path></g><path d="M 916.5 117 h 20 m 0 -10 v 20"></path></g><defs><style type="text/css"><![CDATA[
svg.railroad-diagram path { stroke-width: 2; stroke: darkgray; fill: rgba(0, 0, 0, 0); }svg.railroad-diagram text { font: bold 12px Hack, "Source Code Pro", monospace; text-anchor: middle; fill: #404040; }svg.railroad-diagram text.comment { font: italic 10px Hack, "Source Code Pro", monospace; fill: #404040; }svg.railroad-diagram g.terminal rect { stroke-width: 2; stroke: #404040; fill: rgba(200, 200, 200, 0.8); }svg.railroad-diagram g.non-terminal rect { stroke-width: 2; stroke: #404040; fill: rgba(255, 255, 255, 1); }svg.railroad-diagram text.diagram-text { font-size: 12px Hack, "Source Code Pro", monospace; fill: red; }svg.railroad-diagram path.diagram-text { stroke-width: 1; stroke: red; fill: red; cursor: help; }
 ]]>
</style></defs></svg>