<?xml version="1.0" encoding="UTF-8" standalone="no"?>
<!DOCTYPE svg PUBLIC "-//W3C//DTD SVG 1.1//EN" "http://www.w3.org/Graphics/SVG/1.1/DTD/svg11.dtd">
<svg class="railroad-diagram" width="852.5" height="287" viewBox="0 0 852.5 287" id="createRestContentFileStatement" xmlns="http://www.w3.org/2000/svg" xmlns:xlink="http://www.w3.org/1999/xlink"><g transform="translate(.5 .5)"><g><path d="M20 37v20m0 -10h20"></path></g><g><path d="M40 47h0"></path><path d="M812.5 257h0"></path><path d="M40 47h20"></path><g><path d="M60 47h0"></path><path d="M60 47h10"></path><g><path d="M70 47h0"></path><path d="M625 47h157.5"></path><g class="terminal "><path d="M70 47h0"></path><path d="M141 47h0"></path><rect x="70" y="36" width="71" height="22"></rect><text x="105.5" y="51">CREATE</text></g><path d="M141 47h10"></path><g><path d="M151 47h0"></path><path d="M387.5 47h0"></path><path d="M151 47a10 10 0 0 0 10 -10v-7a10 10 0 0 1 10 -10"></path><g><path d="M171 20h196.5"></path></g><path d="M367.5 20a10 10 0 0 1 10 10v7a10 10 0 0 0 10 10"></path><path d="M151 47h20"></path><g><path d="M171 47h0"></path><path d="M367.5 47h0"></path><path d="M171 47h20"></path><g><path d="M191 47h0"></path><g><path d="M191 47h0"></path><path d="M327.5 47h20"></path><g class="terminal "><path d="M191 47h0"></path><path d="M228 47h0"></path><rect x="191" y="36" width="37" height="22"></rect><text x="209.5" y="51">OR</text></g><path d="M228 47h10"></path><path d="M238 47h10"></path><g class="terminal "><path d="M248 47h0"></path><path d="M327.5 47h0"></path><rect x="248" y="36" width="79.5" height="22"></rect><text x="287.75" y="51">REPLACE</text></g></g><path d="M347.5 47h0"></path></g><path d="M347.5 47h20"></path></g><path d="M367.5 47h20"></path></g><path d="M387.5 47h10"></path><g class="terminal "><path d="M397.5 47h0"></path><path d="M451.5 47h0"></path><rect x="397.5" y="36" width="54" height="22"></rect><text x="424.5" y="51">REST</text></g><path d="M451.5 47h10"></path><path d="M461.5 47h10"></path><g class="terminal "><path d="M471.5 47h0"></path><path d="M551 47h0"></path><rect x="471.5" y="36" width="79.5" height="22"></rect><text x="511.25" y="51">CONTENT</text></g><path d="M551 47h10"></path><path d="M561 47h10"></path><g class="terminal "><path d="M571 47h0"></path><path d="M625 47h0"></path><rect x="571" y="36" width="54" height="22"></rect><text x="598" y="51">FILE</text></g></g><path d="M782.5 47a10 10 0 0 1 10 10v7a10 10 0 0 1 -10 10h-712.5a10 10 0 0 0 -10 10v39a10 10 0 0 0 10 10"></path><g><path d="M70 133h0"></path><path d="M746.5 133h36"></path><g class="non-terminal "><path d="M70 133h0"></path><path d="M277 133h0"></path><rect x="70" y="122" width="207" height="22" rx="10" ry="10"></rect><text x="173.5" y="137">contentFileRequestPath</text></g><path d="M277 133h10"></path><path d="M287 133h10"></path><g class="terminal "><path d="M297 133h0"></path><path d="M334 133h0"></path><rect x="297" y="122" width="37" height="22"></rect><text x="315.5" y="137">ON</text></g><path d="M334 133h10"></path><g><path d="M344 133h0"></path><path d="M746.5 133h0"></path><path d="M344 133a10 10 0 0 0 10 -10v-23a10 10 0 0 1 10 -10"></path><g><path d="M364 90h362.5"></path></g><path d="M726.5 90a10 10 0 0 1 10 10v23a10 10 0 0 0 10 10"></path><path d="M344 133h20"></path><g><path d="M364 133h0"></path><path d="M726.5 133h0"></path><path d="M364 133h20"></path><g><path d="M384 133h0"></path><g><path d="M384 133h0"></path><path d="M686.5 133h20"></path><g><path d="M384 133h0"></path><path d="M503.5 133h0"></path><path d="M384 133a10 10 0 0 0 10 -10v-7a10 10 0 0 1 10 -10"></path><g><path d="M404 106h79.5"></path></g><path d="M483.5 106a10 10 0 0 1 10 10v7a10 10 0 0 0 10 10"></path><path d="M384 133h20"></path><g class="terminal "><path d="M404 133h0"></path><path d="M483.5 133h0"></path><rect x="404" y="122" width="79.5" height="22"></rect><text x="443.75" y="137">SERVICE</text></g><path d="M483.5 133h20"></path></g><path d="M503.5 133h10"></path><g class="non-terminal "><path d="M513.5 133h0"></path><path d="M686.5 133h0"></path><rect x="513.5" y="122" width="173" height="22" rx="10" ry="10"></rect><text x="600" y="137">serviceRequestPath</text></g></g><path d="M706.5 133h0"></path></g><path d="M706.5 133h20"></path></g><path d="M726.5 133h20"></path></g></g><path d="M782.5 133a10 10 0 0 1 10 10v7a10 10 0 0 1 -10 10h-712.5a10 10 0 0 0 -10 10v7a10 10 0 0 0 10 10"></path><g><path d="M70 187h0"></path><path d="M433.5 187h349"></path><g class="terminal "><path d="M70 187h0"></path><path d="M149.5 187h0"></path><rect x="70" y="176" width="79.5" height="22"></rect><text x="109.75" y="191">CONTENT</text></g><path d="M149.5 187h10"></path><path d="M159.5 187h10"></path><g class="terminal "><path d="M169.5 187h0"></path><path d="M215 187h0"></path><rect x="169.5" y="176" width="45.5" height="22"></rect><text x="192.25" y="191">SET</text></g><path d="M215 187h10"></path><path d="M225 187h10"></path><g class="non-terminal "><path d="M235 187h0"></path><path d="M433.5 187h0"></path><rect x="235" y="176" width="198.5" height="22" rx="10" ry="10"></rect><text x="334.25" y="191">contentSetRequestPath</text></g></g><path d="M782.5 187a10 10 0 0 1 10 10v7a10 10 0 0 1 -10 10h-712.5a10 10 0 0 0 -10 10v23a10 10 0 0 0 10 10"></path><g><path d="M70 257h0"></path><path d="M762.5 257h20"></path><g><path d="M70 257h0"></path><path d="M515.5 257h0"></path><path d="M70 257h20"></path><g><path d="M90 257h0"></path><g><path d="M90 257h0"></path><path d="M388.5 257h20"></path><g><path d="M90 257h0"></path><path d="M388.5 257h0"></path><path d="M90 257h20"></path><g><path d="M110 257h0"></path><g><path d="M110 257h0"></path><path d="M348.5 257h20"></path><g class="terminal "><path d="M110 257h0"></path><path d="M164 257h0"></path><rect x="110" y="246" width="54" height="22"></rect><text x="137" y="261">FROM</text></g><path d="M164 257h10"></path><path d="M174 257h10"></path><g class="non-terminal "><path d="M184 257h0"></path><path d="M348.5 257h0"></path><rect x="184" y="246" width="164.5" height="22" rx="10" ry="10"></rect><text x="266.25" y="261">directoryFilePath</text></g></g><path d="M368.5 257h0"></path></g><path d="M368.5 257h20"></path></g></g><path d="M408.5 257h87"></path></g><path d="M495.5 257h20"></path><path d="M70 257a10 10 0 0 1 10 10v34a10 10 0 0 0 10 10"></path><g><path d="M90 311h0"></path><g><path d="M90 311h0"></path><path d="M475.5 311h20"></path><g><path d="M90 311h0"></path><path d="M475.5 311h0"></path><path d="M90 311h20"></path><g><path d="M110 311h0"></path><g><path d="M110 311h0"></path><path d="M435.5 311h20"></path><g><path d="M110 311h0"></path><path d="M221 311h0"></path><path d="M110 311a10 10 0 0 0 10 -10v-7a10 10 0 0 1 10 -10"></path><g><path d="M130 284h71"></path></g><path d="M201 284a10 10 0 0 1 10 10v7a10 10 0 0 0 10 10"></path><path d="M110 311h20"></path><g class="terminal "><path d="M130 311h0"></path><path d="M201 311h0"></path><rect x="130" y="300" width="71" height="22"></rect><text x="165.5" y="315">BINARY</text></g><path d="M201 311h20"></path></g><path d="M221 311h10"></path><g class="terminal "><path d="M231 311h0"></path><path d="M310.5 311h0"></path><rect x="231" y="300" width="79.5" height="22"></rect><text x="270.75" y="315">CONTENT</text></g><path d="M310.5 311h10"></path><path d="M320.5 311h10"></path><g class="non-terminal "><path d="M330.5 311h0"></path><path d="M435.5 311h0"></path><rect x="330.5" y="300" width="105" height="22" rx="10" ry="10"></rect><text x="383" y="315">quotedText</text></g></g><path d="M455.5 311h0"></path></g><path d="M455.5 311h20"></path></g></g><path d="M495.5 311h0"></path></g><path d="M495.5 311a10 10 0 0 0 10 -10v-34a10 10 0 0 1 10 -10"></path></g><g><path d="M515.5 257h0"></path><path d="M762.5 257h0"></path><path d="M515.5 257a10 10 0 0 0 10 -10v-7a10 10 0 0 1 10 -10"></path><g><path d="M535.5 230h207"></path></g><path d="M742.5 230a10 10 0 0 1 10 10v7a10 10 0 0 0 10 10"></path><path d="M515.5 257h20"></path><g class="non-terminal "><path d="M535.5 257h0"></path><path d="M742.5 257h0"></path><rect x="535.5" y="246" width="207" height="22" rx="10" ry="10"></rect><text x="639" y="261">restContentFileOptions</text></g><path d="M742.5 257h20"></path></g></g><path d="M782.5 257h10"></path><path d="M792.5 257h0"></path></g><path d="M792.5 257h20"></path></g><path d="M 812.5 257 h 20 m 0 -10 v 20"></path></g><defs><style type="text/css"><![CDATA[
svg.railroad-diagram path { stroke-width: 2; stroke: darkgray; fill: rgba(0, 0, 0, 0); }svg.railroad-diagram text { font: bold 12px Hack, "Source Code Pro", monospace; text-anchor: middle; fill: #404040; }svg.railroad-diagram text.comment { font: italic 10px Hack, "Source Code Pro", monospace; fill: #404040; }svg.railroad-diagram g.terminal rect { stroke-width: 2; stroke: #404040; fill: rgba(200, 200, 200, 0.8); }svg.railroad-diagram g.non-terminal rect { stroke-width: 2; stroke: #404040; fill: rgba(255, 255, 255, 1); }svg.railroad-diagram text.diagram-text { font-size: 12px Hack, "Source Code Pro", monospace; fill: red; }svg.railroad-diagram path.diagram-text { stroke-width: 1; stroke: red; fill: red; cursor: help; }
 ]]>
</style></defs></svg>