<?xml version="1.0" encoding="UTF-8" standalone="no"?>
<!DOCTYPE svg PUBLIC "-//W3C//DTD SVG 1.1//EN" "http://www.w3.org/Graphics/SVG/1.1/DTD/svg11.dtd">
<svg class="railroad-diagram" width="939.5" height="185" viewBox="0 0 939.5 185" id="createRestAuthAppStatement" xmlns="http://www.w3.org/2000/svg" xmlns:xlink="http://www.w3.org/1999/xlink"><g transform="translate(.5 .5)"><g><path d="M20 37v20m0 -10h20"></path></g><g><path d="M40 47h0"></path><path d="M899.5 155h0"></path><path d="M40 47h20"></path><g><path d="M60 47h0"></path><path d="M60 47h10"></path><g><path d="M70 47h0"></path><path d="M849.5 47h20"></path><g class="terminal "><path d="M70 47h0"></path><path d="M141 47h0"></path><rect x="70" y="36" width="71" height="22"></rect><text x="105.5" y="51">CREATE</text></g><path d="M141 47h10"></path><g><path d="M151 47h0"></path><path d="M387.5 47h0"></path><path d="M151 47a10 10 0 0 0 10 -10v-7a10 10 0 0 1 10 -10"></path><g><path d="M171 20h196.5"></path></g><path d="M367.5 20a10 10 0 0 1 10 10v7a10 10 0 0 0 10 10"></path><path d="M151 47h20"></path><g><path d="M171 47h0"></path><path d="M367.5 47h0"></path><path d="M171 47h20"></path><g><path d="M191 47h0"></path><g><path d="M191 47h0"></path><path d="M327.5 47h20"></path><g class="terminal "><path d="M191 47h0"></path><path d="M228 47h0"></path><rect x="191" y="36" width="37" height="22"></rect><text x="209.5" y="51">OR</text></g><path d="M228 47h10"></path><path d="M238 47h10"></path><g class="terminal "><path d="M248 47h0"></path><path d="M327.5 47h0"></path><rect x="248" y="36" width="79.5" height="22"></rect><text x="287.75" y="51">REPLACE</text></g></g><path d="M347.5 47h0"></path></g><path d="M347.5 47h20"></path></g><path d="M367.5 47h20"></path></g><path d="M387.5 47h10"></path><g class="terminal "><path d="M397.5 47h0"></path><path d="M451.5 47h0"></path><rect x="397.5" y="36" width="54" height="22"></rect><text x="424.5" y="51">REST</text></g><path d="M451.5 47h10"></path><g><path d="M461.5 47h0"></path><path d="M660.5 47h0"></path><path d="M461.5 47h20"></path><g><path d="M481.5 47h0"></path><g><path d="M481.5 47h0"></path><path d="M535.5 47h20"></path><g class="terminal "><path d="M481.5 47h0"></path><path d="M535.5 47h0"></path><rect x="481.5" y="36" width="54" height="22"></rect><text x="508.5" y="51">AUTH</text></g></g><path d="M555.5 47h85"></path></g><path d="M640.5 47h20"></path><path d="M461.5 47a10 10 0 0 1 10 10v18a10 10 0 0 0 10 10"></path><g><path d="M481.5 85h0"></path><g><path d="M481.5 85h0"></path><path d="M620.5 85h20"></path><g class="terminal "><path d="M481.5 85h0"></path><path d="M620.5 85h0"></path><rect x="481.5" y="74" width="139" height="22"></rect><text x="551" y="89">AUTHENTICATION</text></g></g><path d="M640.5 85h0"></path></g><path d="M640.5 85a10 10 0 0 0 10 -10v-18a10 10 0 0 1 10 -10"></path></g><path d="M660.5 47h10"></path><g class="terminal "><path d="M670.5 47h0"></path><path d="M716 47h0"></path><rect x="670.5" y="36" width="45.5" height="22"></rect><text x="693.25" y="51">APP</text></g><path d="M716 47h10"></path><path d="M726 47h10"></path><g class="non-terminal "><path d="M736 47h0"></path><path d="M849.5 47h0"></path><rect x="736" y="36" width="113.5" height="22" rx="10" ry="10"></rect><text x="792.75" y="51">authAppName</text></g></g><path d="M869.5 47a10 10 0 0 1 10 10v45a10 10 0 0 1 -10 10h-799.5a10 10 0 0 0 -10 10v23a10 10 0 0 0 10 10"></path><g><path d="M70 155h0"></path><path d="M529 155h340.5"></path><g class="terminal "><path d="M70 155h0"></path><path d="M141 155h0"></path><rect x="70" y="144" width="71" height="22"></rect><text x="105.5" y="159">VENDOR</text></g><path d="M141 155h10"></path><g><path d="M151 155h0"></path><path d="M316 155h0"></path><path d="M151 155h20"></path><g><path d="M171 155h0"></path><g><path d="M171 155h0"></path><path d="M216.5 155h20"></path><g class="terminal "><path d="M171 155h0"></path><path d="M216.5 155h0"></path><rect x="171" y="144" width="45.5" height="22"></rect><text x="193.75" y="159">MRS</text></g></g><path d="M236.5 155h59.5"></path></g><path d="M296 155h20"></path><path d="M151 155a10 10 0 0 1 10 10v18a10 10 0 0 0 10 10"></path><g><path d="M171 193h0"></path><g><path d="M171 193h0"></path><path d="M233.5 193h20"></path><g class="terminal "><path d="M171 193h0"></path><path d="M233.5 193h0"></path><rect x="171" y="182" width="62.5" height="22"></rect><text x="202.25" y="197">MYSQL</text></g></g><path d="M253.5 193h42.5"></path></g><path d="M296 193a10 10 0 0 0 10 -10v-18a10 10 0 0 1 10 -10"></path><path d="M151 155a10 10 0 0 1 10 10v56a10 10 0 0 0 10 10"></path><g><path d="M171 231h0"></path><g><path d="M171 231h0"></path><path d="M276 231h20"></path><g class="non-terminal "><path d="M171 231h0"></path><path d="M276 231h0"></path><rect x="171" y="220" width="105" height="22" rx="10" ry="10"></rect><text x="223.5" y="235">vendorName</text></g></g><path d="M296 231h0"></path></g><path d="M296 231a10 10 0 0 0 10 -10v-56a10 10 0 0 1 10 -10"></path></g><g><path d="M316 155h0"></path><path d="M529 155h0"></path><path d="M316 155a10 10 0 0 0 10 -10v-7a10 10 0 0 1 10 -10"></path><g><path d="M336 128h173"></path></g><path d="M509 128a10 10 0 0 1 10 10v7a10 10 0 0 0 10 10"></path><path d="M316 155h20"></path><g class="non-terminal "><path d="M336 155h0"></path><path d="M509 155h0"></path><rect x="336" y="144" width="173" height="22" rx="10" ry="10"></rect><text x="422.5" y="159">restAuthAppOptions</text></g><path d="M509 155h20"></path></g></g><path d="M869.5 155h10"></path><path d="M879.5 155h0"></path></g><path d="M879.5 155h20"></path></g><path d="M 899.5 155 h 20 m 0 -10 v 20"></path></g><defs><style type="text/css"><![CDATA[
svg.railroad-diagram path { stroke-width: 2; stroke: darkgray; fill: rgba(0, 0, 0, 0); }svg.railroad-diagram text { font: bold 12px Hack, "Source Code Pro", monospace; text-anchor: middle; fill: #404040; }svg.railroad-diagram text.comment { font: italic 10px Hack, "Source Code Pro", monospace; fill: #404040; }svg.railroad-diagram g.terminal rect { stroke-width: 2; stroke: #404040; fill: rgba(200, 200, 200, 0.8); }svg.railroad-diagram g.non-terminal rect { stroke-width: 2; stroke: #404040; fill: rgba(255, 255, 255, 1); }svg.railroad-diagram text.diagram-text { font-size: 12px Hack, "Source Code Pro", monospace; fill: red; }svg.railroad-diagram path.diagram-text { stroke-width: 1; stroke: red; fill: red; cursor: help; }
 ]]>
</style></defs></svg>