<?xml version="1.0" encoding="UTF-8" standalone="no"?>
<!DOCTYPE svg PUBLIC "-//W3C//DTD SVG 1.1//EN" "http://www.w3.org/Graphics/SVG/1.1/DTD/svg11.dtd">
<svg class="railroad-diagram" width="974" height="287" viewBox="0 0 974 287" id="createRestViewStatement" xmlns="http://www.w3.org/2000/svg" xmlns:xlink="http://www.w3.org/1999/xlink"><g transform="translate(.5 .5)"><g><path d="M20 37v20m0 -10h20"></path></g><g><path d="M40 47h0"></path><path d="M934 257h0"></path><path d="M40 47h20"></path><g><path d="M60 47h0"></path><path d="M60 47h10"></path><g><path d="M70 47h0"></path><path d="M884 47h20"></path><g class="terminal "><path d="M70 47h0"></path><path d="M141 47h0"></path><rect x="70" y="36" width="71" height="22"></rect><text x="105.5" y="51">CREATE</text></g><path d="M141 47h10"></path><g><path d="M151 47h0"></path><path d="M387.5 47h0"></path><path d="M151 47a10 10 0 0 0 10 -10v-7a10 10 0 0 1 10 -10"></path><g><path d="M171 20h196.5"></path></g><path d="M367.5 20a10 10 0 0 1 10 10v7a10 10 0 0 0 10 10"></path><path d="M151 47h20"></path><g><path d="M171 47h0"></path><path d="M367.5 47h0"></path><path d="M171 47h20"></path><g><path d="M191 47h0"></path><g><path d="M191 47h0"></path><path d="M327.5 47h20"></path><g class="terminal "><path d="M191 47h0"></path><path d="M228 47h0"></path><rect x="191" y="36" width="37" height="22"></rect><text x="209.5" y="51">OR</text></g><path d="M228 47h10"></path><path d="M238 47h10"></path><g class="terminal "><path d="M248 47h0"></path><path d="M327.5 47h0"></path><rect x="248" y="36" width="79.5" height="22"></rect><text x="287.75" y="51">REPLACE</text></g></g><path d="M347.5 47h0"></path></g><path d="M347.5 47h20"></path></g><path d="M367.5 47h20"></path></g><path d="M387.5 47h10"></path><g class="terminal "><path d="M397.5 47h0"></path><path d="M451.5 47h0"></path><rect x="397.5" y="36" width="54" height="22"></rect><text x="424.5" y="51">REST</text></g><path d="M451.5 47h10"></path><g><path d="M461.5 47h0"></path><path d="M555.5 47h0"></path><path d="M461.5 47a10 10 0 0 0 10 -10v-7a10 10 0 0 1 10 -10"></path><g><path d="M481.5 20h54"></path></g><path d="M535.5 20a10 10 0 0 1 10 10v7a10 10 0 0 0 10 10"></path><path d="M461.5 47h20"></path><g class="terminal "><path d="M481.5 47h0"></path><path d="M535.5 47h0"></path><rect x="481.5" y="36" width="54" height="22"></rect><text x="508.5" y="51">JSON</text></g><path d="M535.5 47h20"></path></g><g><path d="M555.5 47h0"></path><path d="M700.5 47h0"></path><path d="M555.5 47a10 10 0 0 0 10 -10v-7a10 10 0 0 1 10 -10"></path><g><path d="M575.5 20h105"></path></g><path d="M680.5 20a10 10 0 0 1 10 10v7a10 10 0 0 0 10 10"></path><path d="M555.5 47h20"></path><g class="terminal "><path d="M575.5 47h0"></path><path d="M680.5 47h0"></path><rect x="575.5" y="36" width="105" height="22"></rect><text x="628" y="51">RELATIONAL</text></g><path d="M680.5 47h20"></path></g><g><path d="M700.5 47h0"></path><path d="M820 47h0"></path><path d="M700.5 47a10 10 0 0 0 10 -10v-7a10 10 0 0 1 10 -10"></path><g><path d="M720.5 20h79.5"></path></g><path d="M800 20a10 10 0 0 1 10 10v7a10 10 0 0 0 10 10"></path><path d="M700.5 47h20"></path><g class="terminal "><path d="M720.5 47h0"></path><path d="M800 47h0"></path><rect x="720.5" y="36" width="79.5" height="22"></rect><text x="760.25" y="51">DUALITY</text></g><path d="M800 47h20"></path></g><path d="M820 47h10"></path><g class="terminal "><path d="M830 47h0"></path><path d="M884 47h0"></path><rect x="830" y="36" width="54" height="22"></rect><text x="857" y="51">VIEW</text></g></g><path d="M904 47a10 10 0 0 1 10 10v7a10 10 0 0 1 -10 10h-834a10 10 0 0 0 -10 10v23a10 10 0 0 0 10 10"></path><g><path d="M70 117h0"></path><path d="M630 117h274"></path><g class="non-terminal "><path d="M70 117h0"></path><path d="M217.5 117h0"></path><rect x="70" y="106" width="147.5" height="22" rx="10" ry="10"></rect><text x="143.75" y="121">viewRequestPath</text></g><path d="M217.5 117h10"></path><g><path d="M227.5 117h0"></path><path d="M583 117h0"></path><path d="M227.5 117a10 10 0 0 0 10 -10v-7a10 10 0 0 1 10 -10"></path><g><path d="M247.5 90h315.5"></path></g><path d="M563 90a10 10 0 0 1 10 10v7a10 10 0 0 0 10 10"></path><path d="M227.5 117h20"></path><g><path d="M247.5 117h0"></path><path d="M563 117h0"></path><path d="M247.5 117h20"></path><g><path d="M267.5 117h0"></path><g><path d="M267.5 117h0"></path><path d="M523 117h20"></path><g class="terminal "><path d="M267.5 117h0"></path><path d="M304.5 117h0"></path><rect x="267.5" y="106" width="37" height="22"></rect><text x="286" y="121">ON</text></g><path d="M304.5 117h10"></path><path d="M314.5 117h10"></path><g class="non-terminal "><path d="M324.5 117h0"></path><path d="M523 117h0"></path><rect x="324.5" y="106" width="198.5" height="22" rx="10" ry="10"></rect><text x="423.75" y="121">serviceSchemaSelector</text></g></g><path d="M543 117h0"></path></g><path d="M543 117h20"></path></g><path d="M563 117h20"></path></g><path d="M583 117h10"></path><g class="terminal "><path d="M593 117h0"></path><path d="M630 117h0"></path><rect x="593" y="106" width="37" height="22"></rect><text x="611.5" y="121">AS</text></g></g><path d="M904 117a10 10 0 0 1 10 10v7a10 10 0 0 1 -10 10h-834a10 10 0 0 0 -10 10v23a10 10 0 0 0 10 10"></path><g><path d="M70 187h0"></path><path d="M583 187h321"></path><g class="non-terminal "><path d="M70 187h0"></path><path d="M251.5 187h0"></path><rect x="70" y="176" width="181.5" height="22" rx="10" ry="10"></rect><text x="160.75" y="191">qualifiedIdentifier</text></g><path d="M251.5 187h10"></path><g><path d="M261.5 187h0"></path><path d="M583 187h0"></path><path d="M261.5 187a10 10 0 0 0 10 -10v-7a10 10 0 0 1 10 -10"></path><g><path d="M281.5 160h281.5"></path></g><path d="M563 160a10 10 0 0 1 10 10v7a10 10 0 0 0 10 10"></path><path d="M261.5 187h20"></path><g><path d="M281.5 187h0"></path><path d="M563 187h0"></path><path d="M281.5 187h20"></path><g><path d="M301.5 187h0"></path><g><path d="M301.5 187h0"></path><path d="M523 187h20"></path><g class="terminal "><path d="M301.5 187h0"></path><path d="M364 187h0"></path><rect x="301.5" y="176" width="62.5" height="22"></rect><text x="332.75" y="191">CLASS</text></g><path d="M364 187h10"></path><path d="M374 187h10"></path><g class="non-terminal "><path d="M384 187h0"></path><path d="M523 187h0"></path><rect x="384" y="176" width="139" height="22" rx="10" ry="10"></rect><text x="453.5" y="191">restObjectName</text></g></g><path d="M543 187h0"></path></g><path d="M543 187h20"></path></g><path d="M563 187h20"></path></g></g><path d="M904 187a10 10 0 0 1 10 10v7a10 10 0 0 1 -10 10h-834a10 10 0 0 0 -10 10v23a10 10 0 0 0 10 10"></path><g><path d="M70 257h0"></path><path d="M632.5 257h271.5"></path><g><path d="M70 257h0"></path><path d="M283 257h0"></path><path d="M70 257a10 10 0 0 0 10 -10v-7a10 10 0 0 1 10 -10"></path><g><path d="M90 230h173"></path></g><path d="M263 230a10 10 0 0 1 10 10v7a10 10 0 0 0 10 10"></path><path d="M70 257h20"></path><g class="non-terminal "><path d="M90 257h0"></path><path d="M263 257h0"></path><rect x="90" y="246" width="173" height="22" rx="10" ry="10"></rect><text x="176.5" y="261">graphQlCrudOptions</text></g><path d="M263 257h20"></path></g><g><path d="M283 257h0"></path><path d="M428 257h0"></path><path d="M283 257a10 10 0 0 0 10 -10v-7a10 10 0 0 1 10 -10"></path><g><path d="M303 230h105"></path></g><path d="M408 230a10 10 0 0 1 10 10v7a10 10 0 0 0 10 10"></path><path d="M283 257h20"></path><g class="non-terminal "><path d="M303 257h0"></path><path d="M408 257h0"></path><rect x="303" y="246" width="105" height="22" rx="10" ry="10"></rect><text x="355.5" y="261">graphQlObj</text></g><path d="M408 257h20"></path></g><g><path d="M428 257h0"></path><path d="M632.5 257h0"></path><path d="M428 257a10 10 0 0 0 10 -10v-7a10 10 0 0 1 10 -10"></path><g><path d="M448 230h164.5"></path></g><path d="M612.5 230a10 10 0 0 1 10 10v7a10 10 0 0 0 10 10"></path><path d="M428 257h20"></path><g class="non-terminal "><path d="M448 257h0"></path><path d="M612.5 257h0"></path><rect x="448" y="246" width="164.5" height="22" rx="10" ry="10"></rect><text x="530.25" y="261">restObjectOptions</text></g><path d="M612.5 257h20"></path></g></g><path d="M904 257h10"></path><path d="M914 257h0"></path></g><path d="M914 257h20"></path></g><path d="M 934 257 h 20 m 0 -10 v 20"></path></g><defs><style type="text/css"><![CDATA[
svg.railroad-diagram path { stroke-width: 2; stroke: darkgray; fill: rgba(0, 0, 0, 0); }svg.railroad-diagram text { font: bold 12px Hack, "Source Code Pro", monospace; text-anchor: middle; fill: #404040; }svg.railroad-diagram text.comment { font: italic 10px Hack, "Source Code Pro", monospace; fill: #404040; }svg.railroad-diagram g.terminal rect { stroke-width: 2; stroke: #404040; fill: rgba(200, 200, 200, 0.8); }svg.railroad-diagram g.non-terminal rect { stroke-width: 2; stroke: #404040; fill: rgba(255, 255, 255, 1); }svg.railroad-diagram text.diagram-text { font-size: 12px Hack, "Source Code Pro", monospace; fill: red; }svg.railroad-diagram path.diagram-text { stroke-width: 1; stroke: red; fill: red; cursor: help; }
 ]]>
</style></defs></svg>