<?xml version="1.0" encoding="UTF-8" standalone="no"?>
<!DOCTYPE svg PUBLIC "-//W3C//DTD SVG 1.1//EN" "http://www.w3.org/Graphics/SVG/1.1/DTD/svg11.dtd">
<svg class="railroad-diagram" width="964" height="287" viewBox="0 0 964 287" id="createRestSchemaStatement" xmlns="http://www.w3.org/2000/svg" xmlns:xlink="http://www.w3.org/1999/xlink"><g transform="translate(.5 .5)"><g><path d="M20 37v20m0 -10h20"></path></g><g><path d="M40 47h0"></path><path d="M924 257h0"></path><path d="M40 47h20"></path><g><path d="M60 47h0"></path><path d="M60 47h10"></path><g><path d="M70 47h0"></path><path d="M874 47h20"></path><g><path d="M70 47h0"></path><path d="M669.5 47h0"></path><path d="M70 47h20"></path><g><path d="M90 47h0"></path><g><path d="M90 47h0"></path><path d="M482.5 47h20"></path><g class="terminal "><path d="M90 47h0"></path><path d="M161 47h0"></path><rect x="90" y="36" width="71" height="22"></rect><text x="125.5" y="51">CREATE</text></g><path d="M161 47h10"></path><path d="M171 47h10"></path><g class="terminal "><path d="M181 47h0"></path><path d="M218 47h0"></path><rect x="181" y="36" width="37" height="22"></rect><text x="199.5" y="51">OR</text></g><path d="M218 47h10"></path><path d="M228 47h10"></path><g class="terminal "><path d="M238 47h0"></path><path d="M317.5 47h0"></path><rect x="238" y="36" width="79.5" height="22"></rect><text x="277.75" y="51">REPLACE</text></g><path d="M317.5 47h10"></path><path d="M327.5 47h10"></path><g class="terminal "><path d="M337.5 47h0"></path><path d="M391.5 47h0"></path><rect x="337.5" y="36" width="54" height="22"></rect><text x="364.5" y="51">REST</text></g><path d="M391.5 47h10"></path><path d="M401.5 47h10"></path><g class="terminal "><path d="M411.5 47h0"></path><path d="M482.5 47h0"></path><rect x="411.5" y="36" width="71" height="22"></rect><text x="447" y="51">SCHEMA</text></g></g><path d="M502.5 47h147"></path></g><path d="M649.5 47h20"></path><path d="M70 47a10 10 0 0 1 10 10v34a10 10 0 0 0 10 10"></path><g><path d="M90 101h0"></path><g><path d="M90 101h0"></path><path d="M629.5 101h20"></path><g class="terminal "><path d="M90 101h0"></path><path d="M161 101h0"></path><rect x="90" y="90" width="71" height="22"></rect><text x="125.5" y="105">CREATE</text></g><path d="M161 101h10"></path><path d="M171 101h10"></path><g class="terminal "><path d="M181 101h0"></path><path d="M235 101h0"></path><rect x="181" y="90" width="54" height="22"></rect><text x="208" y="105">REST</text></g><path d="M235 101h10"></path><path d="M245 101h10"></path><g class="terminal "><path d="M255 101h0"></path><path d="M326 101h0"></path><rect x="255" y="90" width="71" height="22"></rect><text x="290.5" y="105">SCHEMA</text></g><path d="M326 101h10"></path><g><path d="M336 101h0"></path><path d="M629.5 101h0"></path><path d="M336 101a10 10 0 0 0 10 -10v-7a10 10 0 0 1 10 -10"></path><g><path d="M356 74h253.5"></path></g><path d="M609.5 74a10 10 0 0 1 10 10v7a10 10 0 0 0 10 10"></path><path d="M336 101h20"></path><g><path d="M356 101h0"></path><path d="M609.5 101h0"></path><path d="M356 101h20"></path><g><path d="M376 101h0"></path><g><path d="M376 101h0"></path><path d="M569.5 101h20"></path><g class="terminal "><path d="M376 101h0"></path><path d="M413 101h0"></path><rect x="376" y="90" width="37" height="22"></rect><text x="394.5" y="105">IF</text></g><path d="M413 101h10"></path><path d="M423 101h10"></path><g class="terminal "><path d="M433 101h0"></path><path d="M478.5 101h0"></path><rect x="433" y="90" width="45.5" height="22"></rect><text x="455.75" y="105">NOT</text></g><path d="M478.5 101h10"></path><path d="M488.5 101h10"></path><g class="terminal "><path d="M498.5 101h0"></path><path d="M569.5 101h0"></path><rect x="498.5" y="90" width="71" height="22"></rect><text x="534" y="105">EXISTS</text></g></g><path d="M589.5 101h0"></path></g><path d="M589.5 101h20"></path></g><path d="M609.5 101h20"></path></g></g><path d="M649.5 101h0"></path></g><path d="M649.5 101a10 10 0 0 0 10 -10v-34a10 10 0 0 1 10 -10"></path></g><g><path d="M669.5 47h0"></path><path d="M874 47h0"></path><path d="M669.5 47a10 10 0 0 0 10 -10v-7a10 10 0 0 1 10 -10"></path><g><path d="M689.5 20h164.5"></path></g><path d="M854 20a10 10 0 0 1 10 10v7a10 10 0 0 0 10 10"></path><path d="M669.5 47h20"></path><g class="non-terminal "><path d="M689.5 47h0"></path><path d="M854 47h0"></path><rect x="689.5" y="36" width="164.5" height="22" rx="10" ry="10"></rect><text x="771.75" y="51">schemaRequestPath</text></g><path d="M854 47h20"></path></g></g><path d="M894 47a10 10 0 0 1 10 10v61a10 10 0 0 1 -10 10h-824a10 10 0 0 0 -10 10v39a10 10 0 0 0 10 10"></path><g><path d="M70 187h0"></path><path d="M708.5 187h185.5"></path><g><path d="M70 187h0"></path><path d="M519.5 187h0"></path><path d="M70 187a10 10 0 0 0 10 -10v-23a10 10 0 0 1 10 -10"></path><g><path d="M90 144h409.5"></path></g><path d="M499.5 144a10 10 0 0 1 10 10v23a10 10 0 0 0 10 10"></path><path d="M70 187h20"></path><g><path d="M90 187h0"></path><path d="M499.5 187h0"></path><path d="M90 187h20"></path><g><path d="M110 187h0"></path><g><path d="M110 187h0"></path><path d="M459.5 187h20"></path><g class="terminal "><path d="M110 187h0"></path><path d="M147 187h0"></path><rect x="110" y="176" width="37" height="22"></rect><text x="128.5" y="191">ON</text></g><path d="M147 187h10"></path><g><path d="M157 187h0"></path><path d="M276.5 187h0"></path><path d="M157 187a10 10 0 0 0 10 -10v-7a10 10 0 0 1 10 -10"></path><g><path d="M177 160h79.5"></path></g><path d="M256.5 160a10 10 0 0 1 10 10v7a10 10 0 0 0 10 10"></path><path d="M157 187h20"></path><g class="terminal "><path d="M177 187h0"></path><path d="M256.5 187h0"></path><rect x="177" y="176" width="79.5" height="22"></rect><text x="216.75" y="191">SERVICE</text></g><path d="M256.5 187h20"></path></g><path d="M276.5 187h10"></path><g class="non-terminal "><path d="M286.5 187h0"></path><path d="M459.5 187h0"></path><rect x="286.5" y="176" width="173" height="22" rx="10" ry="10"></rect><text x="373" y="191">serviceRequestPath</text></g></g><path d="M479.5 187h0"></path></g><path d="M479.5 187h20"></path></g><path d="M499.5 187h20"></path></g><path d="M519.5 187h10"></path><g class="terminal "><path d="M529.5 187h0"></path><path d="M583.5 187h0"></path><rect x="529.5" y="176" width="54" height="22"></rect><text x="556.5" y="191">FROM</text></g><path d="M583.5 187h10"></path><path d="M593.5 187h10"></path><g class="non-terminal "><path d="M603.5 187h0"></path><path d="M708.5 187h0"></path><rect x="603.5" y="176" width="105" height="22" rx="10" ry="10"></rect><text x="656" y="191">schemaName</text></g></g><path d="M894 187a10 10 0 0 1 10 10v7a10 10 0 0 1 -10 10h-824a10 10 0 0 0 -10 10v23a10 10 0 0 0 10 10"></path><g><path d="M70 257h0"></path><path d="M274.5 257h619.5"></path><g><path d="M70 257h0"></path><path d="M274.5 257h0"></path><path d="M70 257a10 10 0 0 0 10 -10v-7a10 10 0 0 1 10 -10"></path><g><path d="M90 230h164.5"></path></g><path d="M254.5 230a10 10 0 0 1 10 10v7a10 10 0 0 0 10 10"></path><path d="M70 257h20"></path><g class="non-terminal "><path d="M90 257h0"></path><path d="M254.5 257h0"></path><rect x="90" y="246" width="164.5" height="22" rx="10" ry="10"></rect><text x="172.25" y="261">restSchemaOptions</text></g><path d="M254.5 257h20"></path></g></g><path d="M894 257h10"></path><path d="M904 257h0"></path></g><path d="M904 257h20"></path></g><path d="M 924 257 h 20 m 0 -10 v 20"></path></g><defs><style type="text/css"><![CDATA[
svg.railroad-diagram path { stroke-width: 2; stroke: darkgray; fill: rgba(0, 0, 0, 0); }svg.railroad-diagram text { font: bold 12px Hack, "Source Code Pro", monospace; text-anchor: middle; fill: #404040; }svg.railroad-diagram text.comment { font: italic 10px Hack, "Source Code Pro", monospace; fill: #404040; }svg.railroad-diagram g.terminal rect { stroke-width: 2; stroke: #404040; fill: rgba(200, 200, 200, 0.8); }svg.railroad-diagram g.non-terminal rect { stroke-width: 2; stroke: #404040; fill: rgba(255, 255, 255, 1); }svg.railroad-diagram text.diagram-text { font-size: 12px Hack, "Source Code Pro", monospace; fill: red; }svg.railroad-diagram path.diagram-text { stroke-width: 1; stroke: red; fill: red; cursor: help; }
 ]]>
</style></defs></svg>