<?xml version="1.0" encoding="UTF-8" standalone="no"?>
<!DOCTYPE svg PUBLIC "-//W3C//DTD SVG 1.1//EN" "http://www.w3.org/Graphics/SVG/1.1/DTD/svg11.dtd">
<svg class="railroad-diagram" width="985" height="341" viewBox="0 0 985 341" id="createRestProcedureStatement" xmlns="http://www.w3.org/2000/svg" xmlns:xlink="http://www.w3.org/1999/xlink"><g transform="translate(.5 .5)"><g><path d="M20 21v20m0 -10h20"></path></g><g><path d="M40 31h0"></path><path d="M945 311h0"></path><path d="M40 31h20"></path><g><path d="M60 31h0"></path><path d="M60 31h10"></path><g><path d="M70 31h0"></path><path d="M895 31h20"></path><g><path d="M70 31h0"></path><path d="M695 31h0"></path><path d="M70 31h20"></path><g><path d="M90 31h0"></path><g><path d="M90 31h0"></path><path d="M508 31h20"></path><g class="terminal "><path d="M90 31h0"></path><path d="M161 31h0"></path><rect x="90" y="20" width="71" height="22"></rect><text x="125.5" y="35">CREATE</text></g><path d="M161 31h10"></path><path d="M171 31h10"></path><g class="terminal "><path d="M181 31h0"></path><path d="M218 31h0"></path><rect x="181" y="20" width="37" height="22"></rect><text x="199.5" y="35">OR</text></g><path d="M218 31h10"></path><path d="M228 31h10"></path><g class="terminal "><path d="M238 31h0"></path><path d="M317.5 31h0"></path><rect x="238" y="20" width="79.5" height="22"></rect><text x="277.75" y="35">REPLACE</text></g><path d="M317.5 31h10"></path><path d="M327.5 31h10"></path><g class="terminal "><path d="M337.5 31h0"></path><path d="M391.5 31h0"></path><rect x="337.5" y="20" width="54" height="22"></rect><text x="364.5" y="35">REST</text></g><path d="M391.5 31h10"></path><path d="M401.5 31h10"></path><g class="terminal "><path d="M411.5 31h0"></path><path d="M508 31h0"></path><rect x="411.5" y="20" width="96.5" height="22"></rect><text x="459.75" y="35">PROCEDURE</text></g></g><path d="M528 31h147"></path></g><path d="M675 31h20"></path><path d="M70 31a10 10 0 0 1 10 10v34a10 10 0 0 0 10 10"></path><g><path d="M90 85h0"></path><g><path d="M90 85h0"></path><path d="M655 85h20"></path><g class="terminal "><path d="M90 85h0"></path><path d="M161 85h0"></path><rect x="90" y="74" width="71" height="22"></rect><text x="125.5" y="89">CREATE</text></g><path d="M161 85h10"></path><path d="M171 85h10"></path><g class="terminal "><path d="M181 85h0"></path><path d="M235 85h0"></path><rect x="181" y="74" width="54" height="22"></rect><text x="208" y="89">REST</text></g><path d="M235 85h10"></path><path d="M245 85h10"></path><g class="terminal "><path d="M255 85h0"></path><path d="M351.5 85h0"></path><rect x="255" y="74" width="96.5" height="22"></rect><text x="303.25" y="89">PROCEDURE</text></g><path d="M351.5 85h10"></path><g><path d="M361.5 85h0"></path><path d="M655 85h0"></path><path d="M361.5 85a10 10 0 0 0 10 -10v-7a10 10 0 0 1 10 -10"></path><g><path d="M381.5 58h253.5"></path></g><path d="M635 58a10 10 0 0 1 10 10v7a10 10 0 0 0 10 10"></path><path d="M361.5 85h20"></path><g><path d="M381.5 85h0"></path><path d="M635 85h0"></path><path d="M381.5 85h20"></path><g><path d="M401.5 85h0"></path><g><path d="M401.5 85h0"></path><path d="M595 85h20"></path><g class="terminal "><path d="M401.5 85h0"></path><path d="M438.5 85h0"></path><rect x="401.5" y="74" width="37" height="22"></rect><text x="420" y="89">IF</text></g><path d="M438.5 85h10"></path><path d="M448.5 85h10"></path><g class="terminal "><path d="M458.5 85h0"></path><path d="M504 85h0"></path><rect x="458.5" y="74" width="45.5" height="22"></rect><text x="481.25" y="89">NOT</text></g><path d="M504 85h10"></path><path d="M514 85h10"></path><g class="terminal "><path d="M524 85h0"></path><path d="M595 85h0"></path><rect x="524" y="74" width="71" height="22"></rect><text x="559.5" y="89">EXISTS</text></g></g><path d="M615 85h0"></path></g><path d="M615 85h20"></path></g><path d="M635 85h20"></path></g></g><path d="M675 85h0"></path></g><path d="M675 85a10 10 0 0 0 10 -10v-34a10 10 0 0 1 10 -10"></path></g><path d="M695 31h10"></path><g class="non-terminal "><path d="M705 31h0"></path><path d="M895 31h0"></path><rect x="705" y="20" width="190" height="22" rx="10" ry="10"></rect><text x="800" y="35">procedureRequestPath</text></g></g><path d="M915 31a10 10 0 0 1 10 10v61a10 10 0 0 1 -10 10h-845a10 10 0 0 0 -10 10v23a10 10 0 0 0 10 10"></path><g><path d="M70 155h0"></path><path d="M786.5 155h128.5"></path><g><path d="M70 155h0"></path><path d="M425.5 155h0"></path><path d="M70 155a10 10 0 0 0 10 -10v-7a10 10 0 0 1 10 -10"></path><g><path d="M90 128h315.5"></path></g><path d="M405.5 128a10 10 0 0 1 10 10v7a10 10 0 0 0 10 10"></path><path d="M70 155h20"></path><g><path d="M90 155h0"></path><path d="M405.5 155h0"></path><path d="M90 155h20"></path><g><path d="M110 155h0"></path><g><path d="M110 155h0"></path><path d="M365.5 155h20"></path><g class="terminal "><path d="M110 155h0"></path><path d="M147 155h0"></path><rect x="110" y="144" width="37" height="22"></rect><text x="128.5" y="159">ON</text></g><path d="M147 155h10"></path><path d="M157 155h10"></path><g class="non-terminal "><path d="M167 155h0"></path><path d="M365.5 155h0"></path><rect x="167" y="144" width="198.5" height="22" rx="10" ry="10"></rect><text x="266.25" y="159">serviceSchemaSelector</text></g></g><path d="M385.5 155h0"></path></g><path d="M385.5 155h20"></path></g><path d="M405.5 155h20"></path></g><path d="M425.5 155h10"></path><g class="terminal "><path d="M435.5 155h0"></path><path d="M472.5 155h0"></path><rect x="435.5" y="144" width="37" height="22"></rect><text x="454" y="159">AS</text></g><path d="M472.5 155h10"></path><path d="M482.5 155h10"></path><g class="non-terminal "><path d="M492.5 155h0"></path><path d="M674 155h0"></path><rect x="492.5" y="144" width="181.5" height="22" rx="10" ry="10"></rect><text x="583.25" y="159">qualifiedIdentifier</text></g><path d="M674 155h10"></path><g><path d="M684 155h0"></path><path d="M786.5 155h0"></path><path d="M684 155a10 10 0 0 0 10 -10v-7a10 10 0 0 1 10 -10"></path><g><path d="M704 128h62.5"></path></g><path d="M766.5 128a10 10 0 0 1 10 10v7a10 10 0 0 0 10 10"></path><path d="M684 155h20"></path><g class="terminal "><path d="M704 155h0"></path><path d="M766.5 155h0"></path><rect x="704" y="144" width="62.5" height="22"></rect><text x="735.25" y="159">FORCE</text></g><path d="M766.5 155h20"></path></g></g><path d="M915 155a10 10 0 0 1 10 10v7a10 10 0 0 1 -10 10h-845a10 10 0 0 0 -10 10v39a10 10 0 0 0 10 10"></path><g><path d="M70 241h0"></path><path d="M579 241h336"></path><g><path d="M70 241h0"></path><path d="M579 241h0"></path><path d="M70 241a10 10 0 0 0 10 -10v-23a10 10 0 0 1 10 -10"></path><g><path d="M90 198h469"></path></g><path d="M559 198a10 10 0 0 1 10 10v23a10 10 0 0 0 10 10"></path><path d="M70 241h20"></path><g><path d="M90 241h0"></path><path d="M559 241h0"></path><path d="M90 241h20"></path><g><path d="M110 241h0"></path><g><path d="M110 241h0"></path><path d="M519 241h20"></path><g class="terminal "><path d="M110 241h0"></path><path d="M215 241h0"></path><rect x="110" y="230" width="105" height="22"></rect><text x="162.5" y="245">PARAMETERS</text></g><path d="M215 241h10"></path><g><path d="M225 241h0"></path><path d="M404 241h0"></path><path d="M225 241a10 10 0 0 0 10 -10v-7a10 10 0 0 1 10 -10"></path><g><path d="M245 214h139"></path></g><path d="M384 214a10 10 0 0 1 10 10v7a10 10 0 0 0 10 10"></path><path d="M225 241h20"></path><g class="non-terminal "><path d="M245 241h0"></path><path d="M384 241h0"></path><rect x="245" y="230" width="139" height="22" rx="10" ry="10"></rect><text x="314.5" y="245">restObjectName</text></g><path d="M384 241h20"></path></g><path d="M404 241h10"></path><g class="non-terminal "><path d="M414 241h0"></path><path d="M519 241h0"></path><rect x="414" y="230" width="105" height="22" rx="10" ry="10"></rect><text x="466.5" y="245">graphQlObj</text></g></g><path d="M539 241h0"></path></g><path d="M539 241h20"></path></g><path d="M559 241h20"></path></g></g><path d="M915 241a10 10 0 0 1 10 10v7a10 10 0 0 1 -10 10h-845a10 10 0 0 0 -10 10v23a10 10 0 0 0 10 10"></path><g><path d="M70 311h0"></path><path d="M516 311h399"></path><g><path d="M70 311h0"></path><path d="M311.5 311h0"></path><path d="M70 311a10 10 0 0 0 10 -10v-7a10 10 0 0 1 10 -10"></path><g><path d="M90 284h201.5"></path></g><path d="M291.5 284a10 10 0 0 1 10 10v7a10 10 0 0 0 10 10"></path><path d="M70 311h20"></path><g><path d="M90 311h0"></path><path d="M291.5 311h0"></path><path d="M90 311h10"></path><g class="non-terminal "><path d="M100 311h0"></path><path d="M281.5 311h0"></path><rect x="100" y="300" width="181.5" height="22" rx="10" ry="10"></rect><text x="190.75" y="315">restProcedureResult</text></g><path d="M281.5 311h10"></path><path d="M100 311a10 10 0 0 0 -10 10v7a10 10 0 0 0 10 10"></path><g><path d="M100 338h181.5"></path></g><path d="M281.5 338a10 10 0 0 0 10 -10v-7a10 10 0 0 0 -10 -10"></path></g><path d="M291.5 311h20"></path></g><g><path d="M311.5 311h0"></path><path d="M516 311h0"></path><path d="M311.5 311a10 10 0 0 0 10 -10v-7a10 10 0 0 1 10 -10"></path><g><path d="M331.5 284h164.5"></path></g><path d="M496 284a10 10 0 0 1 10 10v7a10 10 0 0 0 10 10"></path><path d="M311.5 311h20"></path><g class="non-terminal "><path d="M331.5 311h0"></path><path d="M496 311h0"></path><rect x="331.5" y="300" width="164.5" height="22" rx="10" ry="10"></rect><text x="413.75" y="315">restObjectOptions</text></g><path d="M496 311h20"></path></g></g><path d="M915 311h10"></path><path d="M925 311h0"></path></g><path d="M925 311h20"></path></g><path d="M 945 311 h 20 m 0 -10 v 20"></path></g><defs><style type="text/css"><![CDATA[
svg.railroad-diagram path { stroke-width: 2; stroke: darkgray; fill: rgba(0, 0, 0, 0); }svg.railroad-diagram text { font: bold 12px Hack, "Source Code Pro", monospace; text-anchor: middle; fill: #404040; }svg.railroad-diagram text.comment { font: italic 10px Hack, "Source Code Pro", monospace; fill: #404040; }svg.railroad-diagram g.terminal rect { stroke-width: 2; stroke: #404040; fill: rgba(200, 200, 200, 0.8); }svg.railroad-diagram g.non-terminal rect { stroke-width: 2; stroke: #404040; fill: rgba(255, 255, 255, 1); }svg.railroad-diagram text.diagram-text { font-size: 12px Hack, "Source Code Pro", monospace; fill: red; }svg.railroad-diagram path.diagram-text { stroke-width: 1; stroke: red; fill: red; cursor: help; }
 ]]>
</style></defs></svg>