<?xml version="1.0" encoding="UTF-8" standalone="no"?>
<!DOCTYPE svg PUBLIC "-//W3C//DTD SVG 1.1//EN" "http://www.w3.org/Graphics/SVG/1.1/DTD/svg11.dtd">
<svg class="railroad-diagram" width="951" height="185" viewBox="0 0 951 185" id="createRestServiceStatement" xmlns="http://www.w3.org/2000/svg" xmlns:xlink="http://www.w3.org/1999/xlink"><g transform="translate(.5 .5)"><g><path d="M20 21v20m0 -10h20"></path></g><g><path d="M40 31h0"></path><path d="M911 155h0"></path><path d="M40 31h20"></path><g><path d="M60 31h0"></path><path d="M60 31h10"></path><g><path d="M70 31h0"></path><path d="M861 31h20"></path><g><path d="M70 31h0"></path><path d="M678 31h0"></path><path d="M70 31h20"></path><g><path d="M90 31h0"></path><g><path d="M90 31h0"></path><path d="M491 31h20"></path><g class="terminal "><path d="M90 31h0"></path><path d="M161 31h0"></path><rect x="90" y="20" width="71" height="22"></rect><text x="125.5" y="35">CREATE</text></g><path d="M161 31h10"></path><path d="M171 31h10"></path><g class="terminal "><path d="M181 31h0"></path><path d="M218 31h0"></path><rect x="181" y="20" width="37" height="22"></rect><text x="199.5" y="35">OR</text></g><path d="M218 31h10"></path><path d="M228 31h10"></path><g class="terminal "><path d="M238 31h0"></path><path d="M317.5 31h0"></path><rect x="238" y="20" width="79.5" height="22"></rect><text x="277.75" y="35">REPLACE</text></g><path d="M317.5 31h10"></path><path d="M327.5 31h10"></path><g class="terminal "><path d="M337.5 31h0"></path><path d="M391.5 31h0"></path><rect x="337.5" y="20" width="54" height="22"></rect><text x="364.5" y="35">REST</text></g><path d="M391.5 31h10"></path><path d="M401.5 31h10"></path><g class="terminal "><path d="M411.5 31h0"></path><path d="M491 31h0"></path><rect x="411.5" y="20" width="79.5" height="22"></rect><text x="451.25" y="35">SERVICE</text></g></g><path d="M511 31h147"></path></g><path d="M658 31h20"></path><path d="M70 31a10 10 0 0 1 10 10v34a10 10 0 0 0 10 10"></path><g><path d="M90 85h0"></path><g><path d="M90 85h0"></path><path d="M638 85h20"></path><g class="terminal "><path d="M90 85h0"></path><path d="M161 85h0"></path><rect x="90" y="74" width="71" height="22"></rect><text x="125.5" y="89">CREATE</text></g><path d="M161 85h10"></path><path d="M171 85h10"></path><g class="terminal "><path d="M181 85h0"></path><path d="M235 85h0"></path><rect x="181" y="74" width="54" height="22"></rect><text x="208" y="89">REST</text></g><path d="M235 85h10"></path><path d="M245 85h10"></path><g class="terminal "><path d="M255 85h0"></path><path d="M334.5 85h0"></path><rect x="255" y="74" width="79.5" height="22"></rect><text x="294.75" y="89">SERVICE</text></g><path d="M334.5 85h10"></path><g><path d="M344.5 85h0"></path><path d="M638 85h0"></path><path d="M344.5 85a10 10 0 0 0 10 -10v-7a10 10 0 0 1 10 -10"></path><g><path d="M364.5 58h253.5"></path></g><path d="M618 58a10 10 0 0 1 10 10v7a10 10 0 0 0 10 10"></path><path d="M344.5 85h20"></path><g><path d="M364.5 85h0"></path><path d="M618 85h0"></path><path d="M364.5 85h20"></path><g><path d="M384.5 85h0"></path><g><path d="M384.5 85h0"></path><path d="M578 85h20"></path><g class="terminal "><path d="M384.5 85h0"></path><path d="M421.5 85h0"></path><rect x="384.5" y="74" width="37" height="22"></rect><text x="403" y="89">IF</text></g><path d="M421.5 85h10"></path><path d="M431.5 85h10"></path><g class="terminal "><path d="M441.5 85h0"></path><path d="M487 85h0"></path><rect x="441.5" y="74" width="45.5" height="22"></rect><text x="464.25" y="89">NOT</text></g><path d="M487 85h10"></path><path d="M497 85h10"></path><g class="terminal "><path d="M507 85h0"></path><path d="M578 85h0"></path><rect x="507" y="74" width="71" height="22"></rect><text x="542.5" y="89">EXISTS</text></g></g><path d="M598 85h0"></path></g><path d="M598 85h20"></path></g><path d="M618 85h20"></path></g></g><path d="M658 85h0"></path></g><path d="M658 85a10 10 0 0 0 10 -10v-34a10 10 0 0 1 10 -10"></path></g><path d="M678 31h10"></path><g class="non-terminal "><path d="M688 31h0"></path><path d="M861 31h0"></path><rect x="688" y="20" width="173" height="22" rx="10" ry="10"></rect><text x="774.5" y="35">serviceRequestPath</text></g></g><path d="M881 31a10 10 0 0 1 10 10v61a10 10 0 0 1 -10 10h-811a10 10 0 0 0 -10 10v23a10 10 0 0 0 10 10"></path><g><path d="M70 155h0"></path><path d="M283 155h598"></path><g><path d="M70 155h0"></path><path d="M283 155h0"></path><path d="M70 155a10 10 0 0 0 10 -10v-7a10 10 0 0 1 10 -10"></path><g><path d="M90 128h173"></path></g><path d="M263 128a10 10 0 0 1 10 10v7a10 10 0 0 0 10 10"></path><path d="M70 155h20"></path><g class="non-terminal "><path d="M90 155h0"></path><path d="M263 155h0"></path><rect x="90" y="144" width="173" height="22" rx="10" ry="10"></rect><text x="176.5" y="159">restServiceOptions</text></g><path d="M263 155h20"></path></g></g><path d="M881 155h10"></path><path d="M891 155h0"></path></g><path d="M891 155h20"></path></g><path d="M 911 155 h 20 m 0 -10 v 20"></path></g><defs><style type="text/css"><![CDATA[
svg.railroad-diagram path { stroke-width: 2; stroke: darkgray; fill: rgba(0, 0, 0, 0); }svg.railroad-diagram text { font: bold 12px Hack, "Source Code Pro", monospace; text-anchor: middle; fill: #404040; }svg.railroad-diagram text.comment { font: italic 10px Hack, "Source Code Pro", monospace; fill: #404040; }svg.railroad-diagram g.terminal rect { stroke-width: 2; stroke: #404040; fill: rgba(200, 200, 200, 0.8); }svg.railroad-diagram g.non-terminal rect { stroke-width: 2; stroke: #404040; fill: rgba(255, 255, 255, 1); }svg.railroad-diagram text.diagram-text { font-size: 12px Hack, "Source Code Pro", monospace; fill: red; }svg.railroad-diagram path.diagram-text { stroke-width: 1; stroke: red; fill: red; cursor: help; }
 ]]>
</style></defs></svg>