<?xml version="1.0" encoding="UTF-8" standalone="no"?>
<!DOCTYPE svg PUBLIC "-//W3C//DTD SVG 1.1//EN" "http://www.w3.org/Graphics/SVG/1.1/DTD/svg11.dtd">
<svg class="railroad-diagram" width="956" height="341" viewBox="0 0 956 341" id="createRestViewStatement" xmlns="http://www.w3.org/2000/svg" xmlns:xlink="http://www.w3.org/1999/xlink"><g transform="translate(.5 .5)"><g><path d="M20 37v20m0 -10h20"></path></g><g><path d="M40 47h0"></path><path d="M916 311h0"></path><path d="M40 47h20"></path><g><path d="M60 47h0"></path><path d="M60 47h10"></path><g><path d="M70 47h0"></path><path d="M866 47h20"></path><g><path d="M70 47h0"></path><path d="M866 47h0"></path><path d="M70 47h20"></path><g><path d="M90 47h0"></path><g><path d="M90 47h0"></path><path d="M679 47h20"></path><g class="terminal "><path d="M90 47h0"></path><path d="M161 47h0"></path><rect x="90" y="36" width="71" height="22"></rect><text x="125.5" y="51">CREATE</text></g><path d="M161 47h10"></path><path d="M171 47h10"></path><g class="terminal "><path d="M181 47h0"></path><path d="M218 47h0"></path><rect x="181" y="36" width="37" height="22"></rect><text x="199.5" y="51">OR</text></g><path d="M218 47h10"></path><path d="M228 47h10"></path><g class="terminal "><path d="M238 47h0"></path><path d="M317.5 47h0"></path><rect x="238" y="36" width="79.5" height="22"></rect><text x="277.75" y="51">REPLACE</text></g><path d="M317.5 47h10"></path><path d="M327.5 47h10"></path><g class="terminal "><path d="M337.5 47h0"></path><path d="M391.5 47h0"></path><rect x="337.5" y="36" width="54" height="22"></rect><text x="364.5" y="51">REST</text></g><path d="M391.5 47h10"></path><g><path d="M401.5 47h0"></path><path d="M495.5 47h0"></path><path d="M401.5 47a10 10 0 0 0 10 -10v-7a10 10 0 0 1 10 -10"></path><g><path d="M421.5 20h54"></path></g><path d="M475.5 20a10 10 0 0 1 10 10v7a10 10 0 0 0 10 10"></path><path d="M401.5 47h20"></path><g class="terminal "><path d="M421.5 47h0"></path><path d="M475.5 47h0"></path><rect x="421.5" y="36" width="54" height="22"></rect><text x="448.5" y="51">DATA</text></g><path d="M475.5 47h20"></path></g><g><path d="M495.5 47h0"></path><path d="M615 47h0"></path><path d="M495.5 47a10 10 0 0 0 10 -10v-7a10 10 0 0 1 10 -10"></path><g><path d="M515.5 20h79.5"></path></g><path d="M595 20a10 10 0 0 1 10 10v7a10 10 0 0 0 10 10"></path><path d="M495.5 47h20"></path><g class="terminal "><path d="M515.5 47h0"></path><path d="M595 47h0"></path><rect x="515.5" y="36" width="79.5" height="22"></rect><text x="555.25" y="51">MAPPING</text></g><path d="M595 47h20"></path></g><path d="M615 47h10"></path><g class="terminal "><path d="M625 47h0"></path><path d="M679 47h0"></path><rect x="625" y="36" width="54" height="22"></rect><text x="652" y="51">VIEW</text></g></g><path d="M699 47h147"></path></g><path d="M846 47h20"></path><path d="M70 47a10 10 0 0 1 10 10v34a10 10 0 0 0 10 10"></path><g><path d="M90 101h0"></path><g><path d="M90 101h0"></path><path d="M826 101h20"></path><g class="terminal "><path d="M90 101h0"></path><path d="M161 101h0"></path><rect x="90" y="90" width="71" height="22"></rect><text x="125.5" y="105">CREATE</text></g><path d="M161 101h10"></path><path d="M171 101h10"></path><g class="terminal "><path d="M181 101h0"></path><path d="M235 101h0"></path><rect x="181" y="90" width="54" height="22"></rect><text x="208" y="105">REST</text></g><path d="M235 101h10"></path><g><path d="M245 101h0"></path><path d="M339 101h0"></path><path d="M245 101a10 10 0 0 0 10 -10v-7a10 10 0 0 1 10 -10"></path><g><path d="M265 74h54"></path></g><path d="M319 74a10 10 0 0 1 10 10v7a10 10 0 0 0 10 10"></path><path d="M245 101h20"></path><g class="terminal "><path d="M265 101h0"></path><path d="M319 101h0"></path><rect x="265" y="90" width="54" height="22"></rect><text x="292" y="105">DATA</text></g><path d="M319 101h20"></path></g><g><path d="M339 101h0"></path><path d="M458.5 101h0"></path><path d="M339 101a10 10 0 0 0 10 -10v-7a10 10 0 0 1 10 -10"></path><g><path d="M359 74h79.5"></path></g><path d="M438.5 74a10 10 0 0 1 10 10v7a10 10 0 0 0 10 10"></path><path d="M339 101h20"></path><g class="terminal "><path d="M359 101h0"></path><path d="M438.5 101h0"></path><rect x="359" y="90" width="79.5" height="22"></rect><text x="398.75" y="105">MAPPING</text></g><path d="M438.5 101h20"></path></g><path d="M458.5 101h10"></path><g class="terminal "><path d="M468.5 101h0"></path><path d="M522.5 101h0"></path><rect x="468.5" y="90" width="54" height="22"></rect><text x="495.5" y="105">VIEW</text></g><path d="M522.5 101h10"></path><g><path d="M532.5 101h0"></path><path d="M826 101h0"></path><path d="M532.5 101a10 10 0 0 0 10 -10v-7a10 10 0 0 1 10 -10"></path><g><path d="M552.5 74h253.5"></path></g><path d="M806 74a10 10 0 0 1 10 10v7a10 10 0 0 0 10 10"></path><path d="M532.5 101h20"></path><g><path d="M552.5 101h0"></path><path d="M806 101h0"></path><path d="M552.5 101h20"></path><g><path d="M572.5 101h0"></path><g><path d="M572.5 101h0"></path><path d="M766 101h20"></path><g class="terminal "><path d="M572.5 101h0"></path><path d="M609.5 101h0"></path><rect x="572.5" y="90" width="37" height="22"></rect><text x="591" y="105">IF</text></g><path d="M609.5 101h10"></path><path d="M619.5 101h10"></path><g class="terminal "><path d="M629.5 101h0"></path><path d="M675 101h0"></path><rect x="629.5" y="90" width="45.5" height="22"></rect><text x="652.25" y="105">NOT</text></g><path d="M675 101h10"></path><path d="M685 101h10"></path><g class="terminal "><path d="M695 101h0"></path><path d="M766 101h0"></path><rect x="695" y="90" width="71" height="22"></rect><text x="730.5" y="105">EXISTS</text></g></g><path d="M786 101h0"></path></g><path d="M786 101h20"></path></g><path d="M806 101h20"></path></g></g><path d="M846 101h0"></path></g><path d="M846 101a10 10 0 0 0 10 -10v-34a10 10 0 0 1 10 -10"></path></g></g><path d="M886 47a10 10 0 0 1 10 10v61a10 10 0 0 1 -10 10h-816a10 10 0 0 0 -10 10v23a10 10 0 0 0 10 10"></path><g><path d="M70 171h0"></path><path d="M630 171h256"></path><g class="non-terminal "><path d="M70 171h0"></path><path d="M217.5 171h0"></path><rect x="70" y="160" width="147.5" height="22" rx="10" ry="10"></rect><text x="143.75" y="175">viewRequestPath</text></g><path d="M217.5 171h10"></path><g><path d="M227.5 171h0"></path><path d="M583 171h0"></path><path d="M227.5 171a10 10 0 0 0 10 -10v-7a10 10 0 0 1 10 -10"></path><g><path d="M247.5 144h315.5"></path></g><path d="M563 144a10 10 0 0 1 10 10v7a10 10 0 0 0 10 10"></path><path d="M227.5 171h20"></path><g><path d="M247.5 171h0"></path><path d="M563 171h0"></path><path d="M247.5 171h20"></path><g><path d="M267.5 171h0"></path><g><path d="M267.5 171h0"></path><path d="M523 171h20"></path><g class="terminal "><path d="M267.5 171h0"></path><path d="M304.5 171h0"></path><rect x="267.5" y="160" width="37" height="22"></rect><text x="286" y="175">ON</text></g><path d="M304.5 171h10"></path><path d="M314.5 171h10"></path><g class="non-terminal "><path d="M324.5 171h0"></path><path d="M523 171h0"></path><rect x="324.5" y="160" width="198.5" height="22" rx="10" ry="10"></rect><text x="423.75" y="175">serviceSchemaSelector</text></g></g><path d="M543 171h0"></path></g><path d="M543 171h20"></path></g><path d="M563 171h20"></path></g><path d="M583 171h10"></path><g class="terminal "><path d="M593 171h0"></path><path d="M630 171h0"></path><rect x="593" y="160" width="37" height="22"></rect><text x="611.5" y="175">AS</text></g></g><path d="M886 171a10 10 0 0 1 10 10v7a10 10 0 0 1 -10 10h-816a10 10 0 0 0 -10 10v23a10 10 0 0 0 10 10"></path><g><path d="M70 241h0"></path><path d="M583 241h303"></path><g class="non-terminal "><path d="M70 241h0"></path><path d="M251.5 241h0"></path><rect x="70" y="230" width="181.5" height="22" rx="10" ry="10"></rect><text x="160.75" y="245">qualifiedIdentifier</text></g><path d="M251.5 241h10"></path><g><path d="M261.5 241h0"></path><path d="M583 241h0"></path><path d="M261.5 241a10 10 0 0 0 10 -10v-7a10 10 0 0 1 10 -10"></path><g><path d="M281.5 214h281.5"></path></g><path d="M563 214a10 10 0 0 1 10 10v7a10 10 0 0 0 10 10"></path><path d="M261.5 241h20"></path><g><path d="M281.5 241h0"></path><path d="M563 241h0"></path><path d="M281.5 241h20"></path><g><path d="M301.5 241h0"></path><g><path d="M301.5 241h0"></path><path d="M523 241h20"></path><g class="terminal "><path d="M301.5 241h0"></path><path d="M364 241h0"></path><rect x="301.5" y="230" width="62.5" height="22"></rect><text x="332.75" y="245">CLASS</text></g><path d="M364 241h10"></path><path d="M374 241h10"></path><g class="non-terminal "><path d="M384 241h0"></path><path d="M523 241h0"></path><rect x="384" y="230" width="139" height="22" rx="10" ry="10"></rect><text x="453.5" y="245">restObjectName</text></g></g><path d="M543 241h0"></path></g><path d="M543 241h20"></path></g><path d="M563 241h20"></path></g></g><path d="M886 241a10 10 0 0 1 10 10v7a10 10 0 0 1 -10 10h-816a10 10 0 0 0 -10 10v23a10 10 0 0 0 10 10"></path><g><path d="M70 311h0"></path><path d="M632.5 311h253.5"></path><g><path d="M70 311h0"></path><path d="M283 311h0"></path><path d="M70 311a10 10 0 0 0 10 -10v-7a10 10 0 0 1 10 -10"></path><g><path d="M90 284h173"></path></g><path d="M263 284a10 10 0 0 1 10 10v7a10 10 0 0 0 10 10"></path><path d="M70 311h20"></path><g class="non-terminal "><path d="M90 311h0"></path><path d="M263 311h0"></path><rect x="90" y="300" width="173" height="22" rx="10" ry="10"></rect><text x="176.5" y="315">graphQlCrudOptions</text></g><path d="M263 311h20"></path></g><g><path d="M283 311h0"></path><path d="M428 311h0"></path><path d="M283 311a10 10 0 0 0 10 -10v-7a10 10 0 0 1 10 -10"></path><g><path d="M303 284h105"></path></g><path d="M408 284a10 10 0 0 1 10 10v7a10 10 0 0 0 10 10"></path><path d="M283 311h20"></path><g class="non-terminal "><path d="M303 311h0"></path><path d="M408 311h0"></path><rect x="303" y="300" width="105" height="22" rx="10" ry="10"></rect><text x="355.5" y="315">graphQlObj</text></g><path d="M408 311h20"></path></g><g><path d="M428 311h0"></path><path d="M632.5 311h0"></path><path d="M428 311a10 10 0 0 0 10 -10v-7a10 10 0 0 1 10 -10"></path><g><path d="M448 284h164.5"></path></g><path d="M612.5 284a10 10 0 0 1 10 10v7a10 10 0 0 0 10 10"></path><path d="M428 311h20"></path><g class="non-terminal "><path d="M448 311h0"></path><path d="M612.5 311h0"></path><rect x="448" y="300" width="164.5" height="22" rx="10" ry="10"></rect><text x="530.25" y="315">restObjectOptions</text></g><path d="M612.5 311h20"></path></g></g><path d="M886 311h10"></path><path d="M896 311h0"></path></g><path d="M896 311h20"></path></g><path d="M 916 311 h 20 m 0 -10 v 20"></path></g><defs><style type="text/css"><![CDATA[
svg.railroad-diagram path { stroke-width: 2; stroke: darkgray; fill: rgba(0, 0, 0, 0); }svg.railroad-diagram text { font: bold 12px Hack, "Source Code Pro", monospace; text-anchor: middle; fill: #404040; }svg.railroad-diagram text.comment { font: italic 10px Hack, "Source Code Pro", monospace; fill: #404040; }svg.railroad-diagram g.terminal rect { stroke-width: 2; stroke: #404040; fill: rgba(200, 200, 200, 0.8); }svg.railroad-diagram g.non-terminal rect { stroke-width: 2; stroke: #404040; fill: rgba(255, 255, 255, 1); }svg.railroad-diagram text.diagram-text { font-size: 12px Hack, "Source Code Pro", monospace; fill: red; }svg.railroad-diagram path.diagram-text { stroke-width: 1; stroke: red; fill: red; cursor: help; }
 ]]>
</style></defs></svg>