<?xml version="1.0" encoding="UTF-8" standalone="no"?>
<!DOCTYPE svg PUBLIC "-//W3C//DTD SVG 1.1//EN" "http://www.w3.org/Graphics/SVG/1.1/DTD/svg11.dtd">
<svg class="railroad-diagram" width="1008" height="309" viewBox="0 0 1008 309" id="createRestRoleStatement" xmlns="http://www.w3.org/2000/svg" xmlns:xlink="http://www.w3.org/1999/xlink"><g transform="translate(.5 .5)"><g><path d="M20 21v20m0 -10h20"></path></g><g><path d="M40 31h0"></path><path d="M968 279h0"></path><path d="M40 31h20"></path><g><path d="M60 31h0"></path><path d="M60 31h10"></path><g><path d="M70 31h0"></path><path d="M750.5 31h187.5"></path><g><path d="M70 31h0"></path><path d="M652.5 31h0"></path><path d="M70 31h20"></path><g><path d="M90 31h0"></path><g><path d="M90 31h0"></path><path d="M465.5 31h20"></path><g class="terminal "><path d="M90 31h0"></path><path d="M161 31h0"></path><rect x="90" y="20" width="71" height="22"></rect><text x="125.5" y="35">CREATE</text></g><path d="M161 31h10"></path><path d="M171 31h10"></path><g class="terminal "><path d="M181 31h0"></path><path d="M218 31h0"></path><rect x="181" y="20" width="37" height="22"></rect><text x="199.5" y="35">OR</text></g><path d="M218 31h10"></path><path d="M228 31h10"></path><g class="terminal "><path d="M238 31h0"></path><path d="M317.5 31h0"></path><rect x="238" y="20" width="79.5" height="22"></rect><text x="277.75" y="35">REPLACE</text></g><path d="M317.5 31h10"></path><path d="M327.5 31h10"></path><g class="terminal "><path d="M337.5 31h0"></path><path d="M391.5 31h0"></path><rect x="337.5" y="20" width="54" height="22"></rect><text x="364.5" y="35">REST</text></g><path d="M391.5 31h10"></path><path d="M401.5 31h10"></path><g class="terminal "><path d="M411.5 31h0"></path><path d="M465.5 31h0"></path><rect x="411.5" y="20" width="54" height="22"></rect><text x="438.5" y="35">ROLE</text></g></g><path d="M485.5 31h147"></path></g><path d="M632.5 31h20"></path><path d="M70 31a10 10 0 0 1 10 10v34a10 10 0 0 0 10 10"></path><g><path d="M90 85h0"></path><g><path d="M90 85h0"></path><path d="M612.5 85h20"></path><g class="terminal "><path d="M90 85h0"></path><path d="M161 85h0"></path><rect x="90" y="74" width="71" height="22"></rect><text x="125.5" y="89">CREATE</text></g><path d="M161 85h10"></path><path d="M171 85h10"></path><g class="terminal "><path d="M181 85h0"></path><path d="M235 85h0"></path><rect x="181" y="74" width="54" height="22"></rect><text x="208" y="89">REST</text></g><path d="M235 85h10"></path><path d="M245 85h10"></path><g class="terminal "><path d="M255 85h0"></path><path d="M309 85h0"></path><rect x="255" y="74" width="54" height="22"></rect><text x="282" y="89">ROLE</text></g><path d="M309 85h10"></path><g><path d="M319 85h0"></path><path d="M612.5 85h0"></path><path d="M319 85a10 10 0 0 0 10 -10v-7a10 10 0 0 1 10 -10"></path><g><path d="M339 58h253.5"></path></g><path d="M592.5 58a10 10 0 0 1 10 10v7a10 10 0 0 0 10 10"></path><path d="M319 85h20"></path><g><path d="M339 85h0"></path><path d="M592.5 85h0"></path><path d="M339 85h20"></path><g><path d="M359 85h0"></path><g><path d="M359 85h0"></path><path d="M552.5 85h20"></path><g class="terminal "><path d="M359 85h0"></path><path d="M396 85h0"></path><rect x="359" y="74" width="37" height="22"></rect><text x="377.5" y="89">IF</text></g><path d="M396 85h10"></path><path d="M406 85h10"></path><g class="terminal "><path d="M416 85h0"></path><path d="M461.5 85h0"></path><rect x="416" y="74" width="45.5" height="22"></rect><text x="438.75" y="89">NOT</text></g><path d="M461.5 85h10"></path><path d="M471.5 85h10"></path><g class="terminal "><path d="M481.5 85h0"></path><path d="M552.5 85h0"></path><rect x="481.5" y="74" width="71" height="22"></rect><text x="517" y="89">EXISTS</text></g></g><path d="M572.5 85h0"></path></g><path d="M572.5 85h20"></path></g><path d="M592.5 85h20"></path></g></g><path d="M632.5 85h0"></path></g><path d="M632.5 85a10 10 0 0 0 10 -10v-34a10 10 0 0 1 10 -10"></path></g><path d="M652.5 31h10"></path><g class="non-terminal "><path d="M662.5 31h0"></path><path d="M750.5 31h0"></path><rect x="662.5" y="20" width="88" height="22" rx="10" ry="10"></rect><text x="706.5" y="35">roleName</text></g></g><path d="M938 31a10 10 0 0 1 10 10v61a10 10 0 0 1 -10 10h-868a10 10 0 0 0 -10 10v23a10 10 0 0 0 10 10"></path><g><path d="M70 155h0"></path><path d="M918 155h20"></path><g><path d="M70 155h0"></path><path d="M408.5 155h0"></path><path d="M70 155a10 10 0 0 0 10 -10v-7a10 10 0 0 1 10 -10"></path><g><path d="M90 128h298.5"></path></g><path d="M388.5 128a10 10 0 0 1 10 10v7a10 10 0 0 0 10 10"></path><path d="M70 155h20"></path><g><path d="M90 155h0"></path><path d="M388.5 155h0"></path><path d="M90 155h20"></path><g><path d="M110 155h0"></path><g><path d="M110 155h0"></path><path d="M348.5 155h20"></path><g class="terminal "><path d="M110 155h0"></path><path d="M189.5 155h0"></path><rect x="110" y="144" width="79.5" height="22"></rect><text x="149.75" y="159">EXTENDS</text></g><path d="M189.5 155h10"></path><path d="M199.5 155h10"></path><g class="non-terminal "><path d="M209.5 155h0"></path><path d="M348.5 155h0"></path><rect x="209.5" y="144" width="139" height="22" rx="10" ry="10"></rect><text x="279" y="159">parentRoleName</text></g></g><path d="M368.5 155h0"></path></g><path d="M368.5 155h20"></path></g><path d="M388.5 155h20"></path></g><g><path d="M408.5 155h0"></path><path d="M918 155h0"></path><path d="M408.5 155a10 10 0 0 0 10 -10v-7a10 10 0 0 1 10 -10"></path><g><path d="M428.5 128h469.5"></path></g><path d="M898 128a10 10 0 0 1 10 10v7a10 10 0 0 0 10 10"></path><path d="M408.5 155h20"></path><g><path d="M428.5 155h0"></path><path d="M898 155h0"></path><path d="M428.5 155h20"></path><g><path d="M448.5 155h0"></path><g><path d="M448.5 155h0"></path><path d="M858 155h20"></path><g class="terminal "><path d="M448.5 155h0"></path><path d="M485.5 155h0"></path><rect x="448.5" y="144" width="37" height="22"></rect><text x="467" y="159">ON</text></g><path d="M485.5 155h10"></path><g><path d="M495.5 155h0"></path><path d="M858 155h0"></path><path d="M495.5 155h20"></path><g><path d="M515.5 155h0"></path><g><path d="M515.5 155h0"></path><path d="M660.5 155h20"></path><g class="terminal "><path d="M515.5 155h0"></path><path d="M561 155h0"></path><rect x="515.5" y="144" width="45.5" height="22"></rect><text x="538.25" y="159">ANY</text></g><path d="M561 155h10"></path><path d="M571 155h10"></path><g class="terminal "><path d="M581 155h0"></path><path d="M660.5 155h0"></path><rect x="581" y="144" width="79.5" height="22"></rect><text x="620.75" y="159">SERVICE</text></g></g><path d="M680.5 155h157.5"></path></g><path d="M838 155h20"></path><path d="M495.5 155a10 10 0 0 1 10 10v34a10 10 0 0 0 10 10"></path><g><path d="M515.5 209h0"></path><g><path d="M515.5 209h0"></path><path d="M818 209h20"></path><g><path d="M515.5 209h0"></path><path d="M635 209h0"></path><path d="M515.5 209a10 10 0 0 0 10 -10v-7a10 10 0 0 1 10 -10"></path><g><path d="M535.5 182h79.5"></path></g><path d="M615 182a10 10 0 0 1 10 10v7a10 10 0 0 0 10 10"></path><path d="M515.5 209h20"></path><g class="terminal "><path d="M535.5 209h0"></path><path d="M615 209h0"></path><rect x="535.5" y="198" width="79.5" height="22"></rect><text x="575.25" y="213">SERVICE</text></g><path d="M615 209h20"></path></g><path d="M635 209h10"></path><g class="non-terminal "><path d="M645 209h0"></path><path d="M818 209h0"></path><rect x="645" y="198" width="173" height="22" rx="10" ry="10"></rect><text x="731.5" y="213">serviceRequestPath</text></g></g><path d="M838 209h0"></path></g><path d="M838 209a10 10 0 0 0 10 -10v-34a10 10 0 0 1 10 -10"></path></g></g><path d="M878 155h0"></path></g><path d="M878 155h20"></path></g><path d="M898 155h20"></path></g></g><path d="M938 155a10 10 0 0 1 10 10v61a10 10 0 0 1 -10 10h-868a10 10 0 0 0 -10 10v23a10 10 0 0 0 10 10"></path><g><path d="M70 279h0"></path><path d="M257.5 279h680.5"></path><g><path d="M70 279h0"></path><path d="M257.5 279h0"></path><path d="M70 279a10 10 0 0 0 10 -10v-7a10 10 0 0 1 10 -10"></path><g><path d="M90 252h147.5"></path></g><path d="M237.5 252a10 10 0 0 1 10 10v7a10 10 0 0 0 10 10"></path><path d="M70 279h20"></path><g class="non-terminal "><path d="M90 279h0"></path><path d="M237.5 279h0"></path><rect x="90" y="268" width="147.5" height="22" rx="10" ry="10"></rect><text x="163.75" y="283">restRoleOptions</text></g><path d="M237.5 279h20"></path></g></g><path d="M938 279h10"></path><path d="M948 279h0"></path></g><path d="M948 279h20"></path></g><path d="M 968 279 h 20 m 0 -10 v 20"></path></g><defs><style type="text/css"><![CDATA[
svg.railroad-diagram path { stroke-width: 2; stroke: darkgray; fill: rgba(0, 0, 0, 0); }svg.railroad-diagram text { font: bold 12px Hack, "Source Code Pro", monospace; text-anchor: middle; fill: #404040; }svg.railroad-diagram text.comment { font: italic 10px Hack, "Source Code Pro", monospace; fill: #404040; }svg.railroad-diagram g.terminal rect { stroke-width: 2; stroke: #404040; fill: rgba(200, 200, 200, 0.8); }svg.railroad-diagram g.non-terminal rect { stroke-width: 2; stroke: #404040; fill: rgba(255, 255, 255, 1); }svg.railroad-diagram text.diagram-text { font-size: 12px Hack, "Source Code Pro", monospace; fill: red; }svg.railroad-diagram path.diagram-text { stroke-width: 1; stroke: red; fill: red; cursor: help; }
 ]]>
</style></defs></svg>