<?xml version="1.0" encoding="UTF-8" standalone="no"?>
<!DOCTYPE svg PUBLIC "-//W3C//DTD SVG 1.1//EN" "http://www.w3.org/Graphics/SVG/1.1/DTD/svg11.dtd">
<svg class="railroad-diagram" width="996.5" height="287" viewBox="0 0 996.5 287" id="createRestViewStatement" xmlns="http://www.w3.org/2000/svg" xmlns:xlink="http://www.w3.org/1999/xlink"><g transform="translate(.5 .5)"><g><path d="M20 37v20m0 -10h20"></path></g><g><path d="M40 47h0"></path><path d="M956.5 257h0"></path><path d="M40 47h20"></path><g><path d="M60 47h0"></path><path d="M60 47h10"></path><g><path d="M70 47h0"></path><path d="M906.5 47h20"></path><g class="terminal "><path d="M70 47h0"></path><path d="M141 47h0"></path><rect x="70" y="36" width="71" height="22"></rect><text x="105.5" y="51">CREATE</text></g><path d="M141 47h10"></path><g><path d="M151 47h0"></path><path d="M387.5 47h0"></path><path d="M151 47a10 10 0 0 0 10 -10v-7a10 10 0 0 1 10 -10"></path><g><path d="M171 20h196.5"></path></g><path d="M367.5 20a10 10 0 0 1 10 10v7a10 10 0 0 0 10 10"></path><path d="M151 47h20"></path><g><path d="M171 47h0"></path><path d="M367.5 47h0"></path><path d="M171 47h20"></path><g><path d="M191 47h0"></path><g><path d="M191 47h0"></path><path d="M327.5 47h20"></path><g class="terminal "><path d="M191 47h0"></path><path d="M228 47h0"></path><rect x="191" y="36" width="37" height="22"></rect><text x="209.5" y="51">OR</text></g><path d="M228 47h10"></path><path d="M238 47h10"></path><g class="terminal "><path d="M248 47h0"></path><path d="M327.5 47h0"></path><rect x="248" y="36" width="79.5" height="22"></rect><text x="287.75" y="51">REPLACE</text></g></g><path d="M347.5 47h0"></path></g><path d="M347.5 47h20"></path></g><path d="M367.5 47h20"></path></g><path d="M387.5 47h10"></path><g class="terminal "><path d="M397.5 47h0"></path><path d="M451.5 47h0"></path><rect x="397.5" y="36" width="54" height="22"></rect><text x="424.5" y="51">REST</text></g><path d="M451.5 47h10"></path><g><path d="M461.5 47h0"></path><path d="M555.5 47h0"></path><path d="M461.5 47a10 10 0 0 0 10 -10v-7a10 10 0 0 1 10 -10"></path><g><path d="M481.5 20h54"></path></g><path d="M535.5 20a10 10 0 0 1 10 10v7a10 10 0 0 0 10 10"></path><path d="M461.5 47h20"></path><g class="terminal "><path d="M481.5 47h0"></path><path d="M535.5 47h0"></path><rect x="481.5" y="36" width="54" height="22"></rect><text x="508.5" y="51">DATA</text></g><path d="M535.5 47h20"></path></g><g><path d="M555.5 47h0"></path><path d="M675 47h0"></path><path d="M555.5 47a10 10 0 0 0 10 -10v-7a10 10 0 0 1 10 -10"></path><g><path d="M575.5 20h79.5"></path></g><path d="M655 20a10 10 0 0 1 10 10v7a10 10 0 0 0 10 10"></path><path d="M555.5 47h20"></path><g class="terminal "><path d="M575.5 47h0"></path><path d="M655 47h0"></path><rect x="575.5" y="36" width="79.5" height="22"></rect><text x="615.25" y="51">MAPPING</text></g><path d="M655 47h20"></path></g><path d="M675 47h10"></path><g class="terminal "><path d="M685 47h0"></path><path d="M739 47h0"></path><rect x="685" y="36" width="54" height="22"></rect><text x="712" y="51">VIEW</text></g><path d="M739 47h10"></path><path d="M749 47h10"></path><g class="non-terminal "><path d="M759 47h0"></path><path d="M906.5 47h0"></path><rect x="759" y="36" width="147.5" height="22" rx="10" ry="10"></rect><text x="832.75" y="51">viewRequestPath</text></g></g><path d="M926.5 47a10 10 0 0 1 10 10v7a10 10 0 0 1 -10 10h-856.5a10 10 0 0 0 -10 10v23a10 10 0 0 0 10 10"></path><g><path d="M70 117h0"></path><path d="M674 117h252.5"></path><g><path d="M70 117h0"></path><path d="M425.5 117h0"></path><path d="M70 117a10 10 0 0 0 10 -10v-7a10 10 0 0 1 10 -10"></path><g><path d="M90 90h315.5"></path></g><path d="M405.5 90a10 10 0 0 1 10 10v7a10 10 0 0 0 10 10"></path><path d="M70 117h20"></path><g><path d="M90 117h0"></path><path d="M405.5 117h0"></path><path d="M90 117h20"></path><g><path d="M110 117h0"></path><g><path d="M110 117h0"></path><path d="M365.5 117h20"></path><g class="terminal "><path d="M110 117h0"></path><path d="M147 117h0"></path><rect x="110" y="106" width="37" height="22"></rect><text x="128.5" y="121">ON</text></g><path d="M147 117h10"></path><path d="M157 117h10"></path><g class="non-terminal "><path d="M167 117h0"></path><path d="M365.5 117h0"></path><rect x="167" y="106" width="198.5" height="22" rx="10" ry="10"></rect><text x="266.25" y="121">serviceSchemaSelector</text></g></g><path d="M385.5 117h0"></path></g><path d="M385.5 117h20"></path></g><path d="M405.5 117h20"></path></g><path d="M425.5 117h10"></path><g class="terminal "><path d="M435.5 117h0"></path><path d="M472.5 117h0"></path><rect x="435.5" y="106" width="37" height="22"></rect><text x="454" y="121">AS</text></g><path d="M472.5 117h10"></path><path d="M482.5 117h10"></path><g class="non-terminal "><path d="M492.5 117h0"></path><path d="M674 117h0"></path><rect x="492.5" y="106" width="181.5" height="22" rx="10" ry="10"></rect><text x="583.25" y="121">qualifiedIdentifier</text></g></g><path d="M926.5 117a10 10 0 0 1 10 10v7a10 10 0 0 1 -10 10h-856.5a10 10 0 0 0 -10 10v23a10 10 0 0 0 10 10"></path><g><path d="M70 187h0"></path><path d="M749.5 187h177"></path><g><path d="M70 187h0"></path><path d="M391.5 187h0"></path><path d="M70 187a10 10 0 0 0 10 -10v-7a10 10 0 0 1 10 -10"></path><g><path d="M90 160h281.5"></path></g><path d="M371.5 160a10 10 0 0 1 10 10v7a10 10 0 0 0 10 10"></path><path d="M70 187h20"></path><g><path d="M90 187h0"></path><path d="M371.5 187h0"></path><path d="M90 187h20"></path><g><path d="M110 187h0"></path><g><path d="M110 187h0"></path><path d="M331.5 187h20"></path><g class="terminal "><path d="M110 187h0"></path><path d="M172.5 187h0"></path><rect x="110" y="176" width="62.5" height="22"></rect><text x="141.25" y="191">CLASS</text></g><path d="M172.5 187h10"></path><path d="M182.5 187h10"></path><g class="non-terminal "><path d="M192.5 187h0"></path><path d="M331.5 187h0"></path><rect x="192.5" y="176" width="139" height="22" rx="10" ry="10"></rect><text x="262" y="191">restObjectName</text></g></g><path d="M351.5 187h0"></path></g><path d="M351.5 187h20"></path></g><path d="M371.5 187h20"></path></g><g><path d="M391.5 187h0"></path><path d="M604.5 187h0"></path><path d="M391.5 187a10 10 0 0 0 10 -10v-7a10 10 0 0 1 10 -10"></path><g><path d="M411.5 160h173"></path></g><path d="M584.5 160a10 10 0 0 1 10 10v7a10 10 0 0 0 10 10"></path><path d="M391.5 187h20"></path><g class="non-terminal "><path d="M411.5 187h0"></path><path d="M584.5 187h0"></path><rect x="411.5" y="176" width="173" height="22" rx="10" ry="10"></rect><text x="498" y="191">graphQlCrudOptions</text></g><path d="M584.5 187h20"></path></g><g><path d="M604.5 187h0"></path><path d="M749.5 187h0"></path><path d="M604.5 187a10 10 0 0 0 10 -10v-7a10 10 0 0 1 10 -10"></path><g><path d="M624.5 160h105"></path></g><path d="M729.5 160a10 10 0 0 1 10 10v7a10 10 0 0 0 10 10"></path><path d="M604.5 187h20"></path><g class="non-terminal "><path d="M624.5 187h0"></path><path d="M729.5 187h0"></path><rect x="624.5" y="176" width="105" height="22" rx="10" ry="10"></rect><text x="677" y="191">graphQlObj</text></g><path d="M729.5 187h20"></path></g></g><path d="M926.5 187a10 10 0 0 1 10 10v7a10 10 0 0 1 -10 10h-856.5a10 10 0 0 0 -10 10v23a10 10 0 0 0 10 10"></path><g><path d="M70 257h0"></path><path d="M274.5 257h652"></path><g><path d="M70 257h0"></path><path d="M274.5 257h0"></path><path d="M70 257a10 10 0 0 0 10 -10v-7a10 10 0 0 1 10 -10"></path><g><path d="M90 230h164.5"></path></g><path d="M254.5 230a10 10 0 0 1 10 10v7a10 10 0 0 0 10 10"></path><path d="M70 257h20"></path><g class="non-terminal "><path d="M90 257h0"></path><path d="M254.5 257h0"></path><rect x="90" y="246" width="164.5" height="22" rx="10" ry="10"></rect><text x="172.25" y="261">restObjectOptions</text></g><path d="M254.5 257h20"></path></g></g><path d="M926.5 257h10"></path><path d="M936.5 257h0"></path></g><path d="M936.5 257h20"></path></g><path d="M 956.5 257 h 20 m 0 -10 v 20"></path></g><defs><style type="text/css"><![CDATA[
svg.railroad-diagram path { stroke-width: 2; stroke: darkgray; fill: rgba(0, 0, 0, 0); }svg.railroad-diagram text { font: bold 12px Hack, "Source Code Pro", monospace; text-anchor: middle; fill: #404040; }svg.railroad-diagram text.comment { font: italic 10px Hack, "Source Code Pro", monospace; fill: #404040; }svg.railroad-diagram g.terminal rect { stroke-width: 2; stroke: #404040; fill: rgba(200, 200, 200, 0.8); }svg.railroad-diagram g.non-terminal rect { stroke-width: 2; stroke: #404040; fill: rgba(255, 255, 255, 1); }svg.railroad-diagram text.diagram-text { font-size: 12px Hack, "Source Code Pro", monospace; fill: red; }svg.railroad-diagram path.diagram-text { stroke-width: 1; stroke: red; fill: red; cursor: help; }
 ]]>
</style></defs></svg>