<?xml version="1.0" encoding="UTF-8" standalone="no"?>
<!DOCTYPE svg PUBLIC "-//W3C//DTD SVG 1.1//EN" "http://www.w3.org/Graphics/SVG/1.1/DTD/svg11.dtd">
<svg class="railroad-diagram" width="876.5" height="303" viewBox="0 0 876.5 303" id="createRestFunctionStatement" xmlns="http://www.w3.org/2000/svg" xmlns:xlink="http://www.w3.org/1999/xlink"><g transform="translate(.5 .5)"><g><path d="M20 37v20m0 -10h20"></path></g><g><path d="M40 47h0"></path><path d="M836.5 273h0"></path><path d="M40 47h20"></path><g><path d="M60 47h0"></path><path d="M60 47h10"></path><g><path d="M70 47h0"></path><path d="M761 47h45.5"></path><g class="terminal "><path d="M70 47h0"></path><path d="M141 47h0"></path><rect x="70" y="36" width="71" height="22"></rect><text x="105.5" y="51">CREATE</text></g><path d="M141 47h10"></path><g><path d="M151 47h0"></path><path d="M387.5 47h0"></path><path d="M151 47a10 10 0 0 0 10 -10v-7a10 10 0 0 1 10 -10"></path><g><path d="M171 20h196.5"></path></g><path d="M367.5 20a10 10 0 0 1 10 10v7a10 10 0 0 0 10 10"></path><path d="M151 47h20"></path><g><path d="M171 47h0"></path><path d="M367.5 47h0"></path><path d="M171 47h20"></path><g><path d="M191 47h0"></path><g><path d="M191 47h0"></path><path d="M327.5 47h20"></path><g class="terminal "><path d="M191 47h0"></path><path d="M228 47h0"></path><rect x="191" y="36" width="37" height="22"></rect><text x="209.5" y="51">OR</text></g><path d="M228 47h10"></path><path d="M238 47h10"></path><g class="terminal "><path d="M248 47h0"></path><path d="M327.5 47h0"></path><rect x="248" y="36" width="79.5" height="22"></rect><text x="287.75" y="51">REPLACE</text></g></g><path d="M347.5 47h0"></path></g><path d="M347.5 47h20"></path></g><path d="M367.5 47h20"></path></g><path d="M387.5 47h10"></path><g class="terminal "><path d="M397.5 47h0"></path><path d="M451.5 47h0"></path><rect x="397.5" y="36" width="54" height="22"></rect><text x="424.5" y="51">REST</text></g><path d="M451.5 47h10"></path><path d="M461.5 47h10"></path><g class="terminal "><path d="M471.5 47h0"></path><path d="M559.5 47h0"></path><rect x="471.5" y="36" width="88" height="22"></rect><text x="515.5" y="51">FUNCTION</text></g><path d="M559.5 47h10"></path><path d="M569.5 47h10"></path><g class="non-terminal "><path d="M579.5 47h0"></path><path d="M761 47h0"></path><rect x="579.5" y="36" width="181.5" height="22" rx="10" ry="10"></rect><text x="670.25" y="51">functionRequestPath</text></g></g><path d="M806.5 47a10 10 0 0 1 10 10v7a10 10 0 0 1 -10 10h-736.5a10 10 0 0 0 -10 10v23a10 10 0 0 0 10 10"></path><g><path d="M70 117h0"></path><path d="M786.5 117h20"></path><g><path d="M70 117h0"></path><path d="M425.5 117h0"></path><path d="M70 117a10 10 0 0 0 10 -10v-7a10 10 0 0 1 10 -10"></path><g><path d="M90 90h315.5"></path></g><path d="M405.5 90a10 10 0 0 1 10 10v7a10 10 0 0 0 10 10"></path><path d="M70 117h20"></path><g><path d="M90 117h0"></path><path d="M405.5 117h0"></path><path d="M90 117h20"></path><g><path d="M110 117h0"></path><g><path d="M110 117h0"></path><path d="M365.5 117h20"></path><g class="terminal "><path d="M110 117h0"></path><path d="M147 117h0"></path><rect x="110" y="106" width="37" height="22"></rect><text x="128.5" y="121">ON</text></g><path d="M147 117h10"></path><path d="M157 117h10"></path><g class="non-terminal "><path d="M167 117h0"></path><path d="M365.5 117h0"></path><rect x="167" y="106" width="198.5" height="22" rx="10" ry="10"></rect><text x="266.25" y="121">serviceSchemaSelector</text></g></g><path d="M385.5 117h0"></path></g><path d="M385.5 117h20"></path></g><path d="M405.5 117h20"></path></g><path d="M425.5 117h10"></path><g class="terminal "><path d="M435.5 117h0"></path><path d="M472.5 117h0"></path><rect x="435.5" y="106" width="37" height="22"></rect><text x="454" y="121">AS</text></g><path d="M472.5 117h10"></path><path d="M482.5 117h10"></path><g class="non-terminal "><path d="M492.5 117h0"></path><path d="M674 117h0"></path><rect x="492.5" y="106" width="181.5" height="22" rx="10" ry="10"></rect><text x="583.25" y="121">qualifiedIdentifier</text></g><path d="M674 117h10"></path><g><path d="M684 117h0"></path><path d="M786.5 117h0"></path><path d="M684 117a10 10 0 0 0 10 -10v-7a10 10 0 0 1 10 -10"></path><g><path d="M704 90h62.5"></path></g><path d="M766.5 90a10 10 0 0 1 10 10v7a10 10 0 0 0 10 10"></path><path d="M684 117h20"></path><g class="terminal "><path d="M704 117h0"></path><path d="M766.5 117h0"></path><rect x="704" y="106" width="62.5" height="22"></rect><text x="735.25" y="121">FORCE</text></g><path d="M766.5 117h20"></path></g></g><path d="M806.5 117a10 10 0 0 1 10 10v7a10 10 0 0 1 -10 10h-736.5a10 10 0 0 0 -10 10v39a10 10 0 0 0 10 10"></path><g><path d="M70 203h0"></path><path d="M579 203h227.5"></path><g><path d="M70 203h0"></path><path d="M579 203h0"></path><path d="M70 203a10 10 0 0 0 10 -10v-23a10 10 0 0 1 10 -10"></path><g><path d="M90 160h469"></path></g><path d="M559 160a10 10 0 0 1 10 10v23a10 10 0 0 0 10 10"></path><path d="M70 203h20"></path><g><path d="M90 203h0"></path><path d="M559 203h0"></path><path d="M90 203h20"></path><g><path d="M110 203h0"></path><g><path d="M110 203h0"></path><path d="M519 203h20"></path><g class="terminal "><path d="M110 203h0"></path><path d="M215 203h0"></path><rect x="110" y="192" width="105" height="22"></rect><text x="162.5" y="207">PARAMETERS</text></g><path d="M215 203h10"></path><g><path d="M225 203h0"></path><path d="M404 203h0"></path><path d="M225 203a10 10 0 0 0 10 -10v-7a10 10 0 0 1 10 -10"></path><g><path d="M245 176h139"></path></g><path d="M384 176a10 10 0 0 1 10 10v7a10 10 0 0 0 10 10"></path><path d="M225 203h20"></path><g class="non-terminal "><path d="M245 203h0"></path><path d="M384 203h0"></path><rect x="245" y="192" width="139" height="22" rx="10" ry="10"></rect><text x="314.5" y="207">restObjectName</text></g><path d="M384 203h20"></path></g><path d="M404 203h10"></path><g class="non-terminal "><path d="M414 203h0"></path><path d="M519 203h0"></path><rect x="414" y="192" width="105" height="22" rx="10" ry="10"></rect><text x="466.5" y="207">graphQlObj</text></g></g><path d="M539 203h0"></path></g><path d="M539 203h20"></path></g><path d="M559 203h20"></path></g></g><path d="M806.5 203a10 10 0 0 1 10 10v7a10 10 0 0 1 -10 10h-736.5a10 10 0 0 0 -10 10v23a10 10 0 0 0 10 10"></path><g><path d="M70 273h0"></path><path d="M487.5 273h319"></path><g><path d="M70 273h0"></path><path d="M283 273h0"></path><path d="M70 273a10 10 0 0 0 10 -10v-7a10 10 0 0 1 10 -10"></path><g><path d="M90 246h173"></path></g><path d="M263 246a10 10 0 0 1 10 10v7a10 10 0 0 0 10 10"></path><path d="M70 273h20"></path><g class="non-terminal "><path d="M90 273h0"></path><path d="M263 273h0"></path><rect x="90" y="262" width="173" height="22" rx="10" ry="10"></rect><text x="176.5" y="277">restFunctionResult</text></g><path d="M263 273h20"></path></g><g><path d="M283 273h0"></path><path d="M487.5 273h0"></path><path d="M283 273a10 10 0 0 0 10 -10v-7a10 10 0 0 1 10 -10"></path><g><path d="M303 246h164.5"></path></g><path d="M467.5 246a10 10 0 0 1 10 10v7a10 10 0 0 0 10 10"></path><path d="M283 273h20"></path><g class="non-terminal "><path d="M303 273h0"></path><path d="M467.5 273h0"></path><rect x="303" y="262" width="164.5" height="22" rx="10" ry="10"></rect><text x="385.25" y="277">restObjectOptions</text></g><path d="M467.5 273h20"></path></g></g><path d="M806.5 273h10"></path><path d="M816.5 273h0"></path></g><path d="M816.5 273h20"></path></g><path d="M 836.5 273 h 20 m 0 -10 v 20"></path></g><defs><style type="text/css"><![CDATA[
svg.railroad-diagram path { stroke-width: 2; stroke: darkgray; fill: rgba(0, 0, 0, 0); }svg.railroad-diagram text { font: bold 12px Hack, "Source Code Pro", monospace; text-anchor: middle; fill: #404040; }svg.railroad-diagram text.comment { font: italic 10px Hack, "Source Code Pro", monospace; fill: #404040; }svg.railroad-diagram g.terminal rect { stroke-width: 2; stroke: #404040; fill: rgba(200, 200, 200, 0.8); }svg.railroad-diagram g.non-terminal rect { stroke-width: 2; stroke: #404040; fill: rgba(255, 255, 255, 1); }svg.railroad-diagram text.diagram-text { font-size: 12px Hack, "Source Code Pro", monospace; fill: red; }svg.railroad-diagram path.diagram-text { stroke-width: 1; stroke: red; fill: red; cursor: help; }
 ]]>
</style></defs></svg>