<?xml version="1.0" encoding="UTF-8" standalone="no"?>
<!DOCTYPE svg PUBLIC "-//W3C//DTD SVG 1.1//EN" "http://www.w3.org/Graphics/SVG/1.1/DTD/svg11.dtd">
<svg class="railroad-diagram" width="1008" height="271" viewBox="0 0 1008 271" id="createRestRoleStatement" xmlns="http://www.w3.org/2000/svg" xmlns:xlink="http://www.w3.org/1999/xlink"><g transform="translate(.5 .5)"><g><path d="M20 37v20m0 -10h20"></path></g><g><path d="M40 47h0"></path><path d="M968 241h0"></path><path d="M40 47h20"></path><g><path d="M60 47h0"></path><path d="M60 47h10"></path><g><path d="M70 47h0"></path><path d="M633.5 47h304.5"></path><g class="terminal "><path d="M70 47h0"></path><path d="M141 47h0"></path><rect x="70" y="36" width="71" height="22"></rect><text x="105.5" y="51">CREATE</text></g><path d="M141 47h10"></path><g><path d="M151 47h0"></path><path d="M387.5 47h0"></path><path d="M151 47a10 10 0 0 0 10 -10v-7a10 10 0 0 1 10 -10"></path><g><path d="M171 20h196.5"></path></g><path d="M367.5 20a10 10 0 0 1 10 10v7a10 10 0 0 0 10 10"></path><path d="M151 47h20"></path><g><path d="M171 47h0"></path><path d="M367.5 47h0"></path><path d="M171 47h20"></path><g><path d="M191 47h0"></path><g><path d="M191 47h0"></path><path d="M327.5 47h20"></path><g class="terminal "><path d="M191 47h0"></path><path d="M228 47h0"></path><rect x="191" y="36" width="37" height="22"></rect><text x="209.5" y="51">OR</text></g><path d="M228 47h10"></path><path d="M238 47h10"></path><g class="terminal "><path d="M248 47h0"></path><path d="M327.5 47h0"></path><rect x="248" y="36" width="79.5" height="22"></rect><text x="287.75" y="51">REPLACE</text></g></g><path d="M347.5 47h0"></path></g><path d="M347.5 47h20"></path></g><path d="M367.5 47h20"></path></g><path d="M387.5 47h10"></path><g class="terminal "><path d="M397.5 47h0"></path><path d="M451.5 47h0"></path><rect x="397.5" y="36" width="54" height="22"></rect><text x="424.5" y="51">REST</text></g><path d="M451.5 47h10"></path><path d="M461.5 47h10"></path><g class="terminal "><path d="M471.5 47h0"></path><path d="M525.5 47h0"></path><rect x="471.5" y="36" width="54" height="22"></rect><text x="498.5" y="51">ROLE</text></g><path d="M525.5 47h10"></path><path d="M535.5 47h10"></path><g class="non-terminal "><path d="M545.5 47h0"></path><path d="M633.5 47h0"></path><rect x="545.5" y="36" width="88" height="22" rx="10" ry="10"></rect><text x="589.5" y="51">roleName</text></g></g><path d="M938 47a10 10 0 0 1 10 10v7a10 10 0 0 1 -10 10h-868a10 10 0 0 0 -10 10v23a10 10 0 0 0 10 10"></path><g><path d="M70 117h0"></path><path d="M918 117h20"></path><g><path d="M70 117h0"></path><path d="M408.5 117h0"></path><path d="M70 117a10 10 0 0 0 10 -10v-7a10 10 0 0 1 10 -10"></path><g><path d="M90 90h298.5"></path></g><path d="M388.5 90a10 10 0 0 1 10 10v7a10 10 0 0 0 10 10"></path><path d="M70 117h20"></path><g><path d="M90 117h0"></path><path d="M388.5 117h0"></path><path d="M90 117h20"></path><g><path d="M110 117h0"></path><g><path d="M110 117h0"></path><path d="M348.5 117h20"></path><g class="terminal "><path d="M110 117h0"></path><path d="M189.5 117h0"></path><rect x="110" y="106" width="79.5" height="22"></rect><text x="149.75" y="121">EXTENDS</text></g><path d="M189.5 117h10"></path><path d="M199.5 117h10"></path><g class="non-terminal "><path d="M209.5 117h0"></path><path d="M348.5 117h0"></path><rect x="209.5" y="106" width="139" height="22" rx="10" ry="10"></rect><text x="279" y="121">parentRoleName</text></g></g><path d="M368.5 117h0"></path></g><path d="M368.5 117h20"></path></g><path d="M388.5 117h20"></path></g><g><path d="M408.5 117h0"></path><path d="M918 117h0"></path><path d="M408.5 117a10 10 0 0 0 10 -10v-7a10 10 0 0 1 10 -10"></path><g><path d="M428.5 90h469.5"></path></g><path d="M898 90a10 10 0 0 1 10 10v7a10 10 0 0 0 10 10"></path><path d="M408.5 117h20"></path><g><path d="M428.5 117h0"></path><path d="M898 117h0"></path><path d="M428.5 117h20"></path><g><path d="M448.5 117h0"></path><g><path d="M448.5 117h0"></path><path d="M858 117h20"></path><g class="terminal "><path d="M448.5 117h0"></path><path d="M485.5 117h0"></path><rect x="448.5" y="106" width="37" height="22"></rect><text x="467" y="121">ON</text></g><path d="M485.5 117h10"></path><g><path d="M495.5 117h0"></path><path d="M858 117h0"></path><path d="M495.5 117h20"></path><g><path d="M515.5 117h0"></path><g><path d="M515.5 117h0"></path><path d="M660.5 117h20"></path><g class="terminal "><path d="M515.5 117h0"></path><path d="M561 117h0"></path><rect x="515.5" y="106" width="45.5" height="22"></rect><text x="538.25" y="121">ANY</text></g><path d="M561 117h10"></path><path d="M571 117h10"></path><g class="terminal "><path d="M581 117h0"></path><path d="M660.5 117h0"></path><rect x="581" y="106" width="79.5" height="22"></rect><text x="620.75" y="121">SERVICE</text></g></g><path d="M680.5 117h157.5"></path></g><path d="M838 117h20"></path><path d="M495.5 117a10 10 0 0 1 10 10v34a10 10 0 0 0 10 10"></path><g><path d="M515.5 171h0"></path><g><path d="M515.5 171h0"></path><path d="M818 171h20"></path><g><path d="M515.5 171h0"></path><path d="M635 171h0"></path><path d="M515.5 171a10 10 0 0 0 10 -10v-7a10 10 0 0 1 10 -10"></path><g><path d="M535.5 144h79.5"></path></g><path d="M615 144a10 10 0 0 1 10 10v7a10 10 0 0 0 10 10"></path><path d="M515.5 171h20"></path><g class="terminal "><path d="M535.5 171h0"></path><path d="M615 171h0"></path><rect x="535.5" y="160" width="79.5" height="22"></rect><text x="575.25" y="175">SERVICE</text></g><path d="M615 171h20"></path></g><path d="M635 171h10"></path><g class="non-terminal "><path d="M645 171h0"></path><path d="M818 171h0"></path><rect x="645" y="160" width="173" height="22" rx="10" ry="10"></rect><text x="731.5" y="175">serviceRequestPath</text></g></g><path d="M838 171h0"></path></g><path d="M838 171a10 10 0 0 0 10 -10v-34a10 10 0 0 1 10 -10"></path></g></g><path d="M878 117h0"></path></g><path d="M878 117h20"></path></g><path d="M898 117h20"></path></g></g><path d="M938 117a10 10 0 0 1 10 10v61a10 10 0 0 1 -10 10h-868a10 10 0 0 0 -10 10v23a10 10 0 0 0 10 10"></path><g><path d="M70 241h0"></path><path d="M257.5 241h680.5"></path><g><path d="M70 241h0"></path><path d="M257.5 241h0"></path><path d="M70 241a10 10 0 0 0 10 -10v-7a10 10 0 0 1 10 -10"></path><g><path d="M90 214h147.5"></path></g><path d="M237.5 214a10 10 0 0 1 10 10v7a10 10 0 0 0 10 10"></path><path d="M70 241h20"></path><g class="non-terminal "><path d="M90 241h0"></path><path d="M237.5 241h0"></path><rect x="90" y="230" width="147.5" height="22" rx="10" ry="10"></rect><text x="163.75" y="245">restRoleOptions</text></g><path d="M237.5 241h20"></path></g></g><path d="M938 241h10"></path><path d="M948 241h0"></path></g><path d="M948 241h20"></path></g><path d="M 968 241 h 20 m 0 -10 v 20"></path></g><defs><style type="text/css"><![CDATA[
svg.railroad-diagram path { stroke-width: 2; stroke: darkgray; fill: rgba(0, 0, 0, 0); }svg.railroad-diagram text { font: bold 12px Hack, "Source Code Pro", monospace; text-anchor: middle; fill: #404040; }svg.railroad-diagram text.comment { font: italic 10px Hack, "Source Code Pro", monospace; fill: #404040; }svg.railroad-diagram g.terminal rect { stroke-width: 2; stroke: #404040; fill: rgba(200, 200, 200, 0.8); }svg.railroad-diagram g.non-terminal rect { stroke-width: 2; stroke: #404040; fill: rgba(255, 255, 255, 1); }svg.railroad-diagram text.diagram-text { font-size: 12px Hack, "Source Code Pro", monospace; fill: red; }svg.railroad-diagram path.diagram-text { stroke-width: 1; stroke: red; fill: red; cursor: help; }
 ]]>
</style></defs></svg>