<?xml version="1.0" encoding="UTF-8" standalone="no"?>
<!DOCTYPE svg PUBLIC "-//W3C//DTD SVG 1.1//EN" "http://www.w3.org/Graphics/SVG/1.1/DTD/svg11.dtd">
<svg class="railroad-diagram" width="1056.5" height="261" viewBox="0 0 1056.5 261" id="createRestAuthAppStatement" xmlns="http://www.w3.org/2000/svg" xmlns:xlink="http://www.w3.org/1999/xlink"><g transform="translate(.5 .5)"><g><path d="M20 21v20m0 -10h20"></path></g><g><path d="M40 31h0"></path><path d="M1016.5 231h0"></path><path d="M40 31h20"></path><g><path d="M60 31h0"></path><path d="M60 31h10"></path><g><path d="M70 31h0"></path><path d="M966.5 31h20"></path><g><path d="M70 31h0"></path><path d="M843 31h0"></path><path d="M70 31h20"></path><g><path d="M90 31h0"></path><g><path d="M90 31h0"></path><path d="M656 31h20"></path><g class="terminal "><path d="M90 31h0"></path><path d="M161 31h0"></path><rect x="90" y="20" width="71" height="22"></rect><text x="125.5" y="35">CREATE</text></g><path d="M161 31h10"></path><path d="M171 31h10"></path><g class="terminal "><path d="M181 31h0"></path><path d="M218 31h0"></path><rect x="181" y="20" width="37" height="22"></rect><text x="199.5" y="35">OR</text></g><path d="M218 31h10"></path><path d="M228 31h10"></path><g class="terminal "><path d="M238 31h0"></path><path d="M317.5 31h0"></path><rect x="238" y="20" width="79.5" height="22"></rect><text x="277.75" y="35">REPLACE</text></g><path d="M317.5 31h10"></path><path d="M327.5 31h10"></path><g class="terminal "><path d="M337.5 31h0"></path><path d="M391.5 31h0"></path><rect x="337.5" y="20" width="54" height="22"></rect><text x="364.5" y="35">REST</text></g><path d="M391.5 31h10"></path><g><path d="M401.5 31h0"></path><path d="M600.5 31h0"></path><path d="M401.5 31h20"></path><g><path d="M421.5 31h0"></path><g><path d="M421.5 31h0"></path><path d="M475.5 31h20"></path><g class="terminal "><path d="M421.5 31h0"></path><path d="M475.5 31h0"></path><rect x="421.5" y="20" width="54" height="22"></rect><text x="448.5" y="35">AUTH</text></g></g><path d="M495.5 31h85"></path></g><path d="M580.5 31h20"></path><path d="M401.5 31a10 10 0 0 1 10 10v18a10 10 0 0 0 10 10"></path><g><path d="M421.5 69h0"></path><g><path d="M421.5 69h0"></path><path d="M560.5 69h20"></path><g class="terminal "><path d="M421.5 69h0"></path><path d="M560.5 69h0"></path><rect x="421.5" y="58" width="139" height="22"></rect><text x="491" y="73">AUTHENTICATION</text></g></g><path d="M580.5 69h0"></path></g><path d="M580.5 69a10 10 0 0 0 10 -10v-18a10 10 0 0 1 10 -10"></path></g><path d="M600.5 31h10"></path><g class="terminal "><path d="M610.5 31h0"></path><path d="M656 31h0"></path><rect x="610.5" y="20" width="45.5" height="22"></rect><text x="633.25" y="35">APP</text></g></g><path d="M676 31h147"></path></g><path d="M823 31h20"></path><path d="M70 31a10 10 0 0 1 10 10v72a10 10 0 0 0 10 10"></path><g><path d="M90 123h0"></path><g><path d="M90 123h0"></path><path d="M803 123h20"></path><g class="terminal "><path d="M90 123h0"></path><path d="M161 123h0"></path><rect x="90" y="112" width="71" height="22"></rect><text x="125.5" y="127">CREATE</text></g><path d="M161 123h10"></path><path d="M171 123h10"></path><g class="terminal "><path d="M181 123h0"></path><path d="M235 123h0"></path><rect x="181" y="112" width="54" height="22"></rect><text x="208" y="127">REST</text></g><path d="M235 123h10"></path><g><path d="M245 123h0"></path><path d="M444 123h0"></path><path d="M245 123h20"></path><g><path d="M265 123h0"></path><g><path d="M265 123h0"></path><path d="M319 123h20"></path><g class="terminal "><path d="M265 123h0"></path><path d="M319 123h0"></path><rect x="265" y="112" width="54" height="22"></rect><text x="292" y="127">AUTH</text></g></g><path d="M339 123h85"></path></g><path d="M424 123h20"></path><path d="M245 123a10 10 0 0 1 10 10v18a10 10 0 0 0 10 10"></path><g><path d="M265 161h0"></path><g><path d="M265 161h0"></path><path d="M404 161h20"></path><g class="terminal "><path d="M265 161h0"></path><path d="M404 161h0"></path><rect x="265" y="150" width="139" height="22"></rect><text x="334.5" y="165">AUTHENTICATION</text></g></g><path d="M424 161h0"></path></g><path d="M424 161a10 10 0 0 0 10 -10v-18a10 10 0 0 1 10 -10"></path></g><path d="M444 123h10"></path><g class="terminal "><path d="M454 123h0"></path><path d="M499.5 123h0"></path><rect x="454" y="112" width="45.5" height="22"></rect><text x="476.75" y="127">APP</text></g><path d="M499.5 123h10"></path><g><path d="M509.5 123h0"></path><path d="M803 123h0"></path><path d="M509.5 123a10 10 0 0 0 10 -10v-7a10 10 0 0 1 10 -10"></path><g><path d="M529.5 96h253.5"></path></g><path d="M783 96a10 10 0 0 1 10 10v7a10 10 0 0 0 10 10"></path><path d="M509.5 123h20"></path><g><path d="M529.5 123h0"></path><path d="M783 123h0"></path><path d="M529.5 123h20"></path><g><path d="M549.5 123h0"></path><g><path d="M549.5 123h0"></path><path d="M743 123h20"></path><g class="terminal "><path d="M549.5 123h0"></path><path d="M586.5 123h0"></path><rect x="549.5" y="112" width="37" height="22"></rect><text x="568" y="127">IF</text></g><path d="M586.5 123h10"></path><path d="M596.5 123h10"></path><g class="terminal "><path d="M606.5 123h0"></path><path d="M652 123h0"></path><rect x="606.5" y="112" width="45.5" height="22"></rect><text x="629.25" y="127">NOT</text></g><path d="M652 123h10"></path><path d="M662 123h10"></path><g class="terminal "><path d="M672 123h0"></path><path d="M743 123h0"></path><rect x="672" y="112" width="71" height="22"></rect><text x="707.5" y="127">EXISTS</text></g></g><path d="M763 123h0"></path></g><path d="M763 123h20"></path></g><path d="M783 123h20"></path></g></g><path d="M823 123h0"></path></g><path d="M823 123a10 10 0 0 0 10 -10v-72a10 10 0 0 1 10 -10"></path></g><path d="M843 31h10"></path><g class="non-terminal "><path d="M853 31h0"></path><path d="M966.5 31h0"></path><rect x="853" y="20" width="113.5" height="22" rx="10" ry="10"></rect><text x="909.75" y="35">authAppName</text></g></g><path d="M986.5 31a10 10 0 0 1 10 10v137a10 10 0 0 1 -10 10h-916.5a10 10 0 0 0 -10 10v23a10 10 0 0 0 10 10"></path><g><path d="M70 231h0"></path><path d="M529 231h457.5"></path><g class="terminal "><path d="M70 231h0"></path><path d="M141 231h0"></path><rect x="70" y="220" width="71" height="22"></rect><text x="105.5" y="235">VENDOR</text></g><path d="M141 231h10"></path><g><path d="M151 231h0"></path><path d="M316 231h0"></path><path d="M151 231h20"></path><g><path d="M171 231h0"></path><g><path d="M171 231h0"></path><path d="M216.5 231h20"></path><g class="terminal "><path d="M171 231h0"></path><path d="M216.5 231h0"></path><rect x="171" y="220" width="45.5" height="22"></rect><text x="193.75" y="235">MRS</text></g></g><path d="M236.5 231h59.5"></path></g><path d="M296 231h20"></path><path d="M151 231a10 10 0 0 1 10 10v18a10 10 0 0 0 10 10"></path><g><path d="M171 269h0"></path><g><path d="M171 269h0"></path><path d="M233.5 269h20"></path><g class="terminal "><path d="M171 269h0"></path><path d="M233.5 269h0"></path><rect x="171" y="258" width="62.5" height="22"></rect><text x="202.25" y="273">MYSQL</text></g></g><path d="M253.5 269h42.5"></path></g><path d="M296 269a10 10 0 0 0 10 -10v-18a10 10 0 0 1 10 -10"></path><path d="M151 231a10 10 0 0 1 10 10v56a10 10 0 0 0 10 10"></path><g><path d="M171 307h0"></path><g><path d="M171 307h0"></path><path d="M276 307h20"></path><g class="non-terminal "><path d="M171 307h0"></path><path d="M276 307h0"></path><rect x="171" y="296" width="105" height="22" rx="10" ry="10"></rect><text x="223.5" y="311">vendorName</text></g></g><path d="M296 307h0"></path></g><path d="M296 307a10 10 0 0 0 10 -10v-56a10 10 0 0 1 10 -10"></path></g><g><path d="M316 231h0"></path><path d="M529 231h0"></path><path d="M316 231a10 10 0 0 0 10 -10v-7a10 10 0 0 1 10 -10"></path><g><path d="M336 204h173"></path></g><path d="M509 204a10 10 0 0 1 10 10v7a10 10 0 0 0 10 10"></path><path d="M316 231h20"></path><g class="non-terminal "><path d="M336 231h0"></path><path d="M509 231h0"></path><rect x="336" y="220" width="173" height="22" rx="10" ry="10"></rect><text x="422.5" y="235">restAuthAppOptions</text></g><path d="M509 231h20"></path></g></g><path d="M986.5 231h10"></path><path d="M996.5 231h0"></path></g><path d="M996.5 231h20"></path></g><path d="M 1016.5 231 h 20 m 0 -10 v 20"></path></g><defs><style type="text/css"><![CDATA[
svg.railroad-diagram path { stroke-width: 2; stroke: darkgray; fill: rgba(0, 0, 0, 0); }svg.railroad-diagram text { font: bold 12px Hack, "Source Code Pro", monospace; text-anchor: middle; fill: #404040; }svg.railroad-diagram text.comment { font: italic 10px Hack, "Source Code Pro", monospace; fill: #404040; }svg.railroad-diagram g.terminal rect { stroke-width: 2; stroke: #404040; fill: rgba(200, 200, 200, 0.8); }svg.railroad-diagram g.non-terminal rect { stroke-width: 2; stroke: #404040; fill: rgba(255, 255, 255, 1); }svg.railroad-diagram text.diagram-text { font-size: 12px Hack, "Source Code Pro", monospace; fill: red; }svg.railroad-diagram path.diagram-text { stroke-width: 1; stroke: red; fill: red; cursor: help; }
 ]]>
</style></defs></svg>