<?xml version="1.0" encoding="UTF-8" standalone="no"?>
<!DOCTYPE svg PUBLIC "-//W3C//DTD SVG 1.1//EN" "http://www.w3.org/Graphics/SVG/1.1/DTD/svg11.dtd">
<svg class="railroad-diagram" width="445.5" height="132" viewBox="0 0 445.5 132" id="dottedIdentifier" xmlns="http://www.w3.org/2000/svg" xmlns:xlink="http://www.w3.org/1999/xlink"><g transform="translate(.5 .5)"><g><path d="M20 21v20m0 -10h20"></path></g><g><path d="M40 31h0"></path><path d="M405.5 31h0"></path><path d="M40 31h20"></path><g><path d="M60 31h74.75"></path><g><path d="M134.75 31h10"></path><path d="M300.75 31h10"></path><g class="non-terminal "><path d="M144.75 31h0"></path><path d="M300.75 31h0"></path><rect x="144.75" y="20" width="156" height="22" rx="10" ry="10"></rect><text x="222.75" y="35">simpleIdentifier</text></g></g><path d="M310.75 31h74.75"></path></g><path d="M385.5 31h20"></path><path d="M40 31a10 10 0 0 1 10 10v34a10 10 0 0 0 10 10"></path><g><path d="M60 85h0"></path><g><path d="M60 85h10"></path><path d="M375.5 85h10"></path><g class="non-terminal "><path d="M70 85h0"></path><path d="M175 85h0"></path><rect x="70" y="74" width="105" height="22" rx="10" ry="10"></rect><text x="122.5" y="89">identifier</text></g><path d="M175 85h10"></path><g><path d="M185 85h0"></path><path d="M375.5 85h0"></path><path d="M185 85a10 10 0 0 0 10 -10v-7a10 10 0 0 1 10 -10"></path><g><path d="M205 58h150.5"></path></g><path d="M355.5 58a10 10 0 0 1 10 10v7a10 10 0 0 0 10 10"></path><path d="M185 85h20"></path><g><path d="M205 85h0"></path><path d="M355.5 85h0"></path><path d="M205 85h10"></path><g class="non-terminal "><path d="M215 85h0"></path><path d="M345.5 85h0"></path><rect x="215" y="74" width="130.5" height="22" rx="10" ry="10"></rect><text x="280.25" y="89">dotIdentifier</text></g><path d="M345.5 85h10"></path><path d="M215 85a10 10 0 0 0 -10 10v7a10 10 0 0 0 10 10"></path><g><path d="M215 112h130.5"></path></g><path d="M345.5 112a10 10 0 0 0 10 -10v-7a10 10 0 0 0 -10 -10"></path></g><path d="M355.5 85h20"></path></g></g><path d="M385.5 85h0"></path></g><path d="M385.5 85a10 10 0 0 0 10 -10v-34a10 10 0 0 1 10 -10"></path></g><path d="M 405.5 31 h 20 m 0 -10 v 20"></path></g><defs><style type="text/css"><![CDATA[
svg.railroad-diagram path { stroke-width: 2; stroke: darkgray; fill: rgba(0, 0, 0, 0); }svg.railroad-diagram text { font: bold 12px Hack, "Source Code Pro", monospace; text-anchor: middle; fill: #404040; }svg.railroad-diagram text.comment { font: italic 10px Hack, "Source Code Pro", monospace; fill: #404040; }svg.railroad-diagram g.terminal rect { stroke-width: 2; stroke: #404040; fill: rgba(200, 200, 200, 0.8); }svg.railroad-diagram g.non-terminal rect { stroke-width: 2; stroke: #404040; fill: rgba(255, 255, 255, 1); }svg.railroad-diagram text.diagram-text { font-size: 12px Hack, "Source Code Pro", monospace; fill: red; }svg.railroad-diagram path.diagram-text { stroke-width: 1; stroke: red; fill: red; cursor: help; }
 ]]>
</style></defs></svg>