<?xml version="1.0" encoding="UTF-8" standalone="no"?>
<!DOCTYPE svg PUBLIC "-//W3C//DTD SVG 1.1//EN" "http://www.w3.org/Graphics/SVG/1.1/DTD/svg11.dtd">
<svg class="railroad-diagram" width="788.5" height="78" viewBox="0 0 788.5 78" id="dropRestServiceStatement" xmlns="http://www.w3.org/2000/svg" xmlns:xlink="http://www.w3.org/1999/xlink"><g transform="translate(.5 .5)"><g><path d="M20 37v20m0 -10h20"></path></g><g><path d="M40 47h0"></path><path d="M748.5 47h0"></path><path d="M40 47h20"></path><g><path d="M60 47h0"></path><g><path d="M60 47h10"></path><path d="M718.5 47h10"></path><g class="terminal "><path d="M70 47h0"></path><path d="M124 47h0"></path><rect x="70" y="36" width="54" height="22"></rect><text x="97" y="51">DROP</text></g><path d="M124 47h10"></path><path d="M134 47h10"></path><g class="terminal "><path d="M144 47h0"></path><path d="M198 47h0"></path><rect x="144" y="36" width="54" height="22"></rect><text x="171" y="51">REST</text></g><path d="M198 47h10"></path><path d="M208 47h10"></path><g class="terminal "><path d="M218 47h0"></path><path d="M297.5 47h0"></path><rect x="218" y="36" width="79.5" height="22"></rect><text x="257.75" y="51">SERVICE</text></g><path d="M297.5 47h10"></path><g><path d="M307.5 47h0"></path><path d="M535.5 47h0"></path><path d="M307.5 47a10 10 0 0 0 10 -10v-7a10 10 0 0 1 10 -10"></path><g><path d="M327.5 20h188"></path></g><path d="M515.5 20a10 10 0 0 1 10 10v7a10 10 0 0 0 10 10"></path><path d="M307.5 47h20"></path><g><path d="M327.5 47h0"></path><path d="M515.5 47h0"></path><path d="M327.5 47h20"></path><g><path d="M347.5 47h0"></path><g><path d="M347.5 47h10"></path><path d="M485.5 47h10"></path><g class="terminal "><path d="M357.5 47h0"></path><path d="M394.5 47h0"></path><rect x="357.5" y="36" width="37" height="22"></rect><text x="376" y="51">IF</text></g><path d="M394.5 47h10"></path><path d="M404.5 47h10"></path><g class="terminal "><path d="M414.5 47h0"></path><path d="M485.5 47h0"></path><rect x="414.5" y="36" width="71" height="22"></rect><text x="450" y="51">EXISTS</text></g></g><path d="M495.5 47h0"></path></g><path d="M495.5 47h20"></path></g><path d="M515.5 47h20"></path></g><path d="M535.5 47h10"></path><g class="non-terminal "><path d="M545.5 47h0"></path><path d="M718.5 47h0"></path><rect x="545.5" y="36" width="173" height="22" rx="10" ry="10"></rect><text x="632" y="51">serviceRequestPath</text></g></g><path d="M728.5 47h0"></path></g><path d="M728.5 47h20"></path></g><path d="M 748.5 47 h 20 m 0 -10 v 20"></path></g><defs><style type="text/css"><![CDATA[
svg.railroad-diagram path { stroke-width: 2; stroke: darkgray; fill: rgba(0, 0, 0, 0); }svg.railroad-diagram text { font: bold 12px Hack, "Source Code Pro", monospace; text-anchor: middle; fill: #404040; }svg.railroad-diagram text.comment { font: italic 10px Hack, "Source Code Pro", monospace; fill: #404040; }svg.railroad-diagram g.terminal rect { stroke-width: 2; stroke: #404040; fill: rgba(200, 200, 200, 0.8); }svg.railroad-diagram g.non-terminal rect { stroke-width: 2; stroke: #404040; fill: rgba(255, 255, 255, 1); }svg.railroad-diagram text.diagram-text { font-size: 12px Hack, "Source Code Pro", monospace; fill: red; }svg.railroad-diagram path.diagram-text { stroke-width: 1; stroke: red; fill: red; cursor: help; }
 ]]>
</style></defs></svg>