<?xml version="1.0" encoding="UTF-8" standalone="no"?>
<!DOCTYPE svg PUBLIC "-//W3C//DTD SVG 1.1//EN" "http://www.w3.org/Graphics/SVG/1.1/DTD/svg11.dtd">
<svg class="railroad-diagram" width="842.5" height="147" viewBox="0 0 842.5 147" id="dropRestProcedureStatement" xmlns="http://www.w3.org/2000/svg" xmlns:xlink="http://www.w3.org/1999/xlink"><g transform="translate(.5 .5)"><g><path d="M20 37v20m0 -10h20"></path></g><g><path d="M40 47h0"></path><path d="M802.5 117h0"></path><path d="M40 47h20"></path><g><path d="M60 47h0"></path><path d="M60 47h10"></path><g><path d="M70 47h0"></path><path d="M752.5 47h20"></path><g class="terminal "><path d="M70 47h0"></path><path d="M124 47h0"></path><rect x="70" y="36" width="54" height="22"></rect><text x="97" y="51">DROP</text></g><path d="M124 47h10"></path><path d="M134 47h10"></path><g class="terminal "><path d="M144 47h0"></path><path d="M198 47h0"></path><rect x="144" y="36" width="54" height="22"></rect><text x="171" y="51">REST</text></g><path d="M198 47h10"></path><path d="M208 47h10"></path><g class="terminal "><path d="M218 47h0"></path><path d="M314.5 47h0"></path><rect x="218" y="36" width="96.5" height="22"></rect><text x="266.25" y="51">PROCEDURE</text></g><path d="M314.5 47h10"></path><g><path d="M324.5 47h0"></path><path d="M552.5 47h0"></path><path d="M324.5 47a10 10 0 0 0 10 -10v-7a10 10 0 0 1 10 -10"></path><g><path d="M344.5 20h188"></path></g><path d="M532.5 20a10 10 0 0 1 10 10v7a10 10 0 0 0 10 10"></path><path d="M324.5 47h20"></path><g><path d="M344.5 47h0"></path><path d="M532.5 47h0"></path><path d="M344.5 47h20"></path><g><path d="M364.5 47h0"></path><g><path d="M364.5 47h0"></path><path d="M492.5 47h20"></path><g class="terminal "><path d="M364.5 47h0"></path><path d="M401.5 47h0"></path><rect x="364.5" y="36" width="37" height="22"></rect><text x="383" y="51">IF</text></g><path d="M401.5 47h10"></path><path d="M411.5 47h10"></path><g class="terminal "><path d="M421.5 47h0"></path><path d="M492.5 47h0"></path><rect x="421.5" y="36" width="71" height="22"></rect><text x="457" y="51">EXISTS</text></g></g><path d="M512.5 47h0"></path></g><path d="M512.5 47h20"></path></g><path d="M532.5 47h20"></path></g><path d="M552.5 47h10"></path><g class="non-terminal "><path d="M562.5 47h0"></path><path d="M752.5 47h0"></path><rect x="562.5" y="36" width="190" height="22" rx="10" ry="10"></rect><text x="657.5" y="51">procedureRequestPath</text></g></g><path d="M772.5 47a10 10 0 0 1 10 10v7a10 10 0 0 1 -10 10h-702.5a10 10 0 0 0 -10 10v23a10 10 0 0 0 10 10"></path><g><path d="M70 117h0"></path><path d="M442.5 117h330"></path><g><path d="M70 117h0"></path><path d="M442.5 117h0"></path><path d="M70 117a10 10 0 0 0 10 -10v-7a10 10 0 0 1 10 -10"></path><g><path d="M90 90h332.5"></path></g><path d="M422.5 90a10 10 0 0 1 10 10v7a10 10 0 0 0 10 10"></path><path d="M70 117h20"></path><g><path d="M90 117h0"></path><path d="M422.5 117h0"></path><path d="M90 117h20"></path><g><path d="M110 117h0"></path><g><path d="M110 117h0"></path><path d="M382.5 117h20"></path><g class="terminal "><path d="M110 117h0"></path><path d="M164 117h0"></path><rect x="110" y="106" width="54" height="22"></rect><text x="137" y="121">FROM</text></g><path d="M164 117h10"></path><path d="M174 117h10"></path><g class="non-terminal "><path d="M184 117h0"></path><path d="M382.5 117h0"></path><rect x="184" y="106" width="198.5" height="22" rx="10" ry="10"></rect><text x="283.25" y="121">serviceSchemaSelector</text></g></g><path d="M402.5 117h0"></path></g><path d="M402.5 117h20"></path></g><path d="M422.5 117h20"></path></g></g><path d="M772.5 117h10"></path><path d="M782.5 117h0"></path></g><path d="M782.5 117h20"></path></g><path d="M 802.5 117 h 20 m 0 -10 v 20"></path></g><defs><style type="text/css"><![CDATA[
svg.railroad-diagram path { stroke-width: 2; stroke: darkgray; fill: rgba(0, 0, 0, 0); }svg.railroad-diagram text { font: bold 12px Hack, "Source Code Pro", monospace; text-anchor: middle; fill: #404040; }svg.railroad-diagram text.comment { font: italic 10px Hack, "Source Code Pro", monospace; fill: #404040; }svg.railroad-diagram g.terminal rect { stroke-width: 2; stroke: #404040; fill: rgba(200, 200, 200, 0.8); }svg.railroad-diagram g.non-terminal rect { stroke-width: 2; stroke: #404040; fill: rgba(255, 255, 255, 1); }svg.railroad-diagram text.diagram-text { font-size: 12px Hack, "Source Code Pro", monospace; fill: red; }svg.railroad-diagram path.diagram-text { stroke-width: 1; stroke: red; fill: red; cursor: help; }
 ]]>
</style></defs></svg>