<?xml version="1.0" encoding="UTF-8" standalone="no"?>
<!DOCTYPE svg PUBLIC "-//W3C//DTD SVG 1.1//EN" "http://www.w3.org/Graphics/SVG/1.1/DTD/svg11.dtd">
<svg class="railroad-diagram" width="597.5" height="131" viewBox="0 0 597.5 131" id="dropRestFunctionStatement" xmlns="http://www.w3.org/2000/svg" xmlns:xlink="http://www.w3.org/1999/xlink"><g transform="translate(.5 .5)"><g><path d="M20 21v20m0 -10h20"></path></g><g><path d="M40 31h0"></path><path d="M557.5 101h0"></path><path d="M40 31h20"></path><g><path d="M60 31h0"></path><path d="M60 31h10"></path><g><path d="M70 31h0"></path><path d="M507.5 31h20"></path><g class="terminal "><path d="M70 31h0"></path><path d="M124 31h0"></path><rect x="70" y="20" width="54" height="22"></rect><text x="97" y="35">DROP</text></g><path d="M124 31h10"></path><path d="M134 31h10"></path><g class="terminal "><path d="M144 31h0"></path><path d="M198 31h0"></path><rect x="144" y="20" width="54" height="22"></rect><text x="171" y="35">REST</text></g><path d="M198 31h10"></path><path d="M208 31h10"></path><g class="terminal "><path d="M218 31h0"></path><path d="M306 31h0"></path><rect x="218" y="20" width="88" height="22"></rect><text x="262" y="35">FUNCTION</text></g><path d="M306 31h10"></path><path d="M316 31h10"></path><g class="non-terminal "><path d="M326 31h0"></path><path d="M507.5 31h0"></path><rect x="326" y="20" width="181.5" height="22" rx="10" ry="10"></rect><text x="416.75" y="35">functionRequestPath</text></g></g><path d="M527.5 31a10 10 0 0 1 10 10v7a10 10 0 0 1 -10 10h-457.5a10 10 0 0 0 -10 10v23a10 10 0 0 0 10 10"></path><g><path d="M70 101h0"></path><path d="M442.5 101h85"></path><g><path d="M70 101h0"></path><path d="M442.5 101h0"></path><path d="M70 101a10 10 0 0 0 10 -10v-7a10 10 0 0 1 10 -10"></path><g><path d="M90 74h332.5"></path></g><path d="M422.5 74a10 10 0 0 1 10 10v7a10 10 0 0 0 10 10"></path><path d="M70 101h20"></path><g><path d="M90 101h0"></path><path d="M422.5 101h0"></path><path d="M90 101h20"></path><g><path d="M110 101h0"></path><g><path d="M110 101h0"></path><path d="M382.5 101h20"></path><g class="terminal "><path d="M110 101h0"></path><path d="M164 101h0"></path><rect x="110" y="90" width="54" height="22"></rect><text x="137" y="105">FROM</text></g><path d="M164 101h10"></path><path d="M174 101h10"></path><g class="non-terminal "><path d="M184 101h0"></path><path d="M382.5 101h0"></path><rect x="184" y="90" width="198.5" height="22" rx="10" ry="10"></rect><text x="283.25" y="105">serviceSchemaSelector</text></g></g><path d="M402.5 101h0"></path></g><path d="M402.5 101h20"></path></g><path d="M422.5 101h20"></path></g></g><path d="M527.5 101h10"></path><path d="M537.5 101h0"></path></g><path d="M537.5 101h20"></path></g><path d="M 557.5 101 h 20 m 0 -10 v 20"></path></g><defs><style type="text/css"><![CDATA[
svg.railroad-diagram path { stroke-width: 2; stroke: darkgray; fill: rgba(0, 0, 0, 0); }svg.railroad-diagram text { font: bold 12px Hack, "Source Code Pro", monospace; text-anchor: middle; fill: #404040; }svg.railroad-diagram text.comment { font: italic 10px Hack, "Source Code Pro", monospace; fill: #404040; }svg.railroad-diagram g.terminal rect { stroke-width: 2; stroke: #404040; fill: rgba(200, 200, 200, 0.8); }svg.railroad-diagram g.non-terminal rect { stroke-width: 2; stroke: #404040; fill: rgba(255, 255, 255, 1); }svg.railroad-diagram text.diagram-text { font-size: 12px Hack, "Source Code Pro", monospace; fill: red; }svg.railroad-diagram path.diagram-text { stroke-width: 1; stroke: red; fill: red; cursor: help; }
 ]]>
</style></defs></svg>