<?xml version="1.0" encoding="UTF-8" standalone="no"?>
<!DOCTYPE svg PUBLIC "-//W3C//DTD SVG 1.1//EN" "http://www.w3.org/Graphics/SVG/1.1/DTD/svg11.dtd">
<svg class="railroad-diagram" width="671.5" height="147" viewBox="0 0 671.5 147" id="dropRestContentSetStatement" xmlns="http://www.w3.org/2000/svg" xmlns:xlink="http://www.w3.org/1999/xlink"><g transform="translate(.5 .5)"><g><path d="M20 21v20m0 -10h20"></path></g><g><path d="M40 31h0"></path><path d="M631.5 117h0"></path><path d="M40 31h20"></path><g><path d="M60 31h0"></path><path d="M60 31h10"></path><g><path d="M70 31h0"></path><path d="M581.5 31h20"></path><g class="terminal "><path d="M70 31h0"></path><path d="M124 31h0"></path><rect x="70" y="20" width="54" height="22"></rect><text x="97" y="35">DROP</text></g><path d="M124 31h10"></path><path d="M134 31h10"></path><g class="terminal "><path d="M144 31h0"></path><path d="M198 31h0"></path><rect x="144" y="20" width="54" height="22"></rect><text x="171" y="35">REST</text></g><path d="M198 31h10"></path><path d="M208 31h10"></path><g class="terminal "><path d="M218 31h0"></path><path d="M297.5 31h0"></path><rect x="218" y="20" width="79.5" height="22"></rect><text x="257.75" y="35">CONTENT</text></g><path d="M297.5 31h10"></path><path d="M307.5 31h10"></path><g class="terminal "><path d="M317.5 31h0"></path><path d="M363 31h0"></path><rect x="317.5" y="20" width="45.5" height="22"></rect><text x="340.25" y="35">SET</text></g><path d="M363 31h10"></path><path d="M373 31h10"></path><g class="non-terminal "><path d="M383 31h0"></path><path d="M581.5 31h0"></path><rect x="383" y="20" width="198.5" height="22" rx="10" ry="10"></rect><text x="482.25" y="35">contentSetRequestPath</text></g></g><path d="M601.5 31a10 10 0 0 1 10 10v7a10 10 0 0 1 -10 10h-531.5a10 10 0 0 0 -10 10v39a10 10 0 0 0 10 10"></path><g><path d="M70 117h0"></path><path d="M536.5 117h65"></path><g><path d="M70 117h0"></path><path d="M536.5 117h0"></path><path d="M70 117a10 10 0 0 0 10 -10v-23a10 10 0 0 1 10 -10"></path><g><path d="M90 74h426.5"></path></g><path d="M516.5 74a10 10 0 0 1 10 10v23a10 10 0 0 0 10 10"></path><path d="M70 117h20"></path><g><path d="M90 117h0"></path><path d="M516.5 117h0"></path><path d="M90 117h20"></path><g><path d="M110 117h0"></path><g><path d="M110 117h0"></path><path d="M476.5 117h20"></path><g class="terminal "><path d="M110 117h0"></path><path d="M164 117h0"></path><rect x="110" y="106" width="54" height="22"></rect><text x="137" y="121">FROM</text></g><path d="M164 117h10"></path><g><path d="M174 117h0"></path><path d="M293.5 117h0"></path><path d="M174 117a10 10 0 0 0 10 -10v-7a10 10 0 0 1 10 -10"></path><g><path d="M194 90h79.5"></path></g><path d="M273.5 90a10 10 0 0 1 10 10v7a10 10 0 0 0 10 10"></path><path d="M174 117h20"></path><g class="terminal "><path d="M194 117h0"></path><path d="M273.5 117h0"></path><rect x="194" y="106" width="79.5" height="22"></rect><text x="233.75" y="121">SERVICE</text></g><path d="M273.5 117h20"></path></g><path d="M293.5 117h10"></path><g class="non-terminal "><path d="M303.5 117h0"></path><path d="M476.5 117h0"></path><rect x="303.5" y="106" width="173" height="22" rx="10" ry="10"></rect><text x="390" y="121">serviceRequestPath</text></g></g><path d="M496.5 117h0"></path></g><path d="M496.5 117h20"></path></g><path d="M516.5 117h20"></path></g></g><path d="M601.5 117h10"></path><path d="M611.5 117h0"></path></g><path d="M611.5 117h20"></path></g><path d="M 631.5 117 h 20 m 0 -10 v 20"></path></g><defs><style type="text/css"><![CDATA[
svg.railroad-diagram path { stroke-width: 2; stroke: darkgray; fill: rgba(0, 0, 0, 0); }svg.railroad-diagram text { font: bold 12px Hack, "Source Code Pro", monospace; text-anchor: middle; fill: #404040; }svg.railroad-diagram text.comment { font: italic 10px Hack, "Source Code Pro", monospace; fill: #404040; }svg.railroad-diagram g.terminal rect { stroke-width: 2; stroke: #404040; fill: rgba(200, 200, 200, 0.8); }svg.railroad-diagram g.non-terminal rect { stroke-width: 2; stroke: #404040; fill: rgba(255, 255, 255, 1); }svg.railroad-diagram text.diagram-text { font-size: 12px Hack, "Source Code Pro", monospace; fill: red; }svg.railroad-diagram path.diagram-text { stroke-width: 1; stroke: red; fill: red; cursor: help; }
 ]]>
</style></defs></svg>