<?xml version="1.0" encoding="UTF-8" standalone="no"?>
<!DOCTYPE svg PUBLIC "-//W3C//DTD SVG 1.1//EN" "http://www.w3.org/Graphics/SVG/1.1/DTD/svg11.dtd">
<svg class="railroad-diagram" width="762.5" height="201" viewBox="0 0 762.5 201" id="dropRestContentFileStatement" xmlns="http://www.w3.org/2000/svg" xmlns:xlink="http://www.w3.org/1999/xlink"><g transform="translate(.5 .5)"><g><path d="M20 21v20m0 -10h20"></path></g><g><path d="M40 31h0"></path><path d="M722.5 171h0"></path><path d="M40 31h20"></path><g><path d="M60 31h0"></path><path d="M60 31h10"></path><g><path d="M70 31h0"></path><path d="M672.5 31h20"></path><g class="terminal "><path d="M70 31h0"></path><path d="M124 31h0"></path><rect x="70" y="20" width="54" height="22"></rect><text x="97" y="35">DROP</text></g><path d="M124 31h10"></path><path d="M134 31h10"></path><g class="terminal "><path d="M144 31h0"></path><path d="M198 31h0"></path><rect x="144" y="20" width="54" height="22"></rect><text x="171" y="35">REST</text></g><path d="M198 31h10"></path><path d="M208 31h10"></path><g class="terminal "><path d="M218 31h0"></path><path d="M297.5 31h0"></path><rect x="218" y="20" width="79.5" height="22"></rect><text x="257.75" y="35">CONTENT</text></g><path d="M297.5 31h10"></path><path d="M307.5 31h10"></path><g class="terminal "><path d="M317.5 31h0"></path><path d="M371.5 31h0"></path><rect x="317.5" y="20" width="54" height="22"></rect><text x="344.5" y="35">FILE</text></g><path d="M371.5 31h10"></path><path d="M381.5 31h10"></path><g class="non-terminal "><path d="M391.5 31h0"></path><path d="M598.5 31h0"></path><rect x="391.5" y="20" width="207" height="22" rx="10" ry="10"></rect><text x="495" y="35">contentFileRequestPath</text></g><path d="M598.5 31h10"></path><path d="M608.5 31h10"></path><g class="terminal "><path d="M618.5 31h0"></path><path d="M672.5 31h0"></path><rect x="618.5" y="20" width="54" height="22"></rect><text x="645.5" y="35">FROM</text></g></g><path d="M692.5 31a10 10 0 0 1 10 10v7a10 10 0 0 1 -10 10h-622.5a10 10 0 0 0 -10 10v39a10 10 0 0 0 10 10"></path><g><path d="M70 117h0"></path><path d="M627.5 117h65"></path><g><path d="M70 117h0"></path><path d="M472.5 117h0"></path><path d="M70 117a10 10 0 0 0 10 -10v-23a10 10 0 0 1 10 -10"></path><g><path d="M90 74h362.5"></path></g><path d="M452.5 74a10 10 0 0 1 10 10v23a10 10 0 0 0 10 10"></path><path d="M70 117h20"></path><g><path d="M90 117h0"></path><path d="M452.5 117h0"></path><path d="M90 117h20"></path><g><path d="M110 117h0"></path><g><path d="M110 117h0"></path><path d="M412.5 117h20"></path><g><path d="M110 117h0"></path><path d="M229.5 117h0"></path><path d="M110 117a10 10 0 0 0 10 -10v-7a10 10 0 0 1 10 -10"></path><g><path d="M130 90h79.5"></path></g><path d="M209.5 90a10 10 0 0 1 10 10v7a10 10 0 0 0 10 10"></path><path d="M110 117h20"></path><g class="terminal "><path d="M130 117h0"></path><path d="M209.5 117h0"></path><rect x="130" y="106" width="79.5" height="22"></rect><text x="169.75" y="121">SERVICE</text></g><path d="M209.5 117h20"></path></g><path d="M229.5 117h10"></path><g class="non-terminal "><path d="M239.5 117h0"></path><path d="M412.5 117h0"></path><rect x="239.5" y="106" width="173" height="22" rx="10" ry="10"></rect><text x="326" y="121">serviceRequestPath</text></g></g><path d="M432.5 117h0"></path></g><path d="M432.5 117h20"></path></g><path d="M452.5 117h20"></path></g><path d="M472.5 117h10"></path><g class="terminal "><path d="M482.5 117h0"></path><path d="M562 117h0"></path><rect x="482.5" y="106" width="79.5" height="22"></rect><text x="522.25" y="121">CONTENT</text></g><path d="M562 117h10"></path><path d="M572 117h10"></path><g class="terminal "><path d="M582 117h0"></path><path d="M627.5 117h0"></path><rect x="582" y="106" width="45.5" height="22"></rect><text x="604.75" y="121">SET</text></g></g><path d="M692.5 117a10 10 0 0 1 10 10v7a10 10 0 0 1 -10 10h-622.5a10 10 0 0 0 -10 10v7a10 10 0 0 0 10 10"></path><g><path d="M70 171h0"></path><path d="M268.5 171h424"></path><g class="non-terminal "><path d="M70 171h0"></path><path d="M268.5 171h0"></path><rect x="70" y="160" width="198.5" height="22" rx="10" ry="10"></rect><text x="169.25" y="175">contentSetRequestPath</text></g></g><path d="M692.5 171h10"></path><path d="M702.5 171h0"></path></g><path d="M702.5 171h20"></path></g><path d="M 722.5 171 h 20 m 0 -10 v 20"></path></g><defs><style type="text/css"><![CDATA[
svg.railroad-diagram path { stroke-width: 2; stroke: darkgray; fill: rgba(0, 0, 0, 0); }svg.railroad-diagram text { font: bold 12px Hack, "Source Code Pro", monospace; text-anchor: middle; fill: #404040; }svg.railroad-diagram text.comment { font: italic 10px Hack, "Source Code Pro", monospace; fill: #404040; }svg.railroad-diagram g.terminal rect { stroke-width: 2; stroke: #404040; fill: rgba(200, 200, 200, 0.8); }svg.railroad-diagram g.non-terminal rect { stroke-width: 2; stroke: #404040; fill: rgba(255, 255, 255, 1); }svg.railroad-diagram text.diagram-text { font-size: 12px Hack, "Source Code Pro", monospace; fill: red; }svg.railroad-diagram path.diagram-text { stroke-width: 1; stroke: red; fill: red; cursor: help; }
 ]]>
</style></defs></svg>