<?xml version="1.0" encoding="UTF-8" standalone="no"?>
<!DOCTYPE svg PUBLIC "-//W3C//DTD SVG 1.1//EN" "http://www.w3.org/Graphics/SVG/1.1/DTD/svg11.dtd">
<svg class="railroad-diagram" width="916.5" height="217" viewBox="0 0 916.5 217" id="dropRestContentFileStatement" xmlns="http://www.w3.org/2000/svg" xmlns:xlink="http://www.w3.org/1999/xlink"><g transform="translate(.5 .5)"><g><path d="M20 37v20m0 -10h20"></path></g><g><path d="M40 47h0"></path><path d="M876.5 187h0"></path><path d="M40 47h20"></path><g><path d="M60 47h0"></path><path d="M60 47h10"></path><g><path d="M70 47h0"></path><path d="M826.5 47h20"></path><g class="terminal "><path d="M70 47h0"></path><path d="M124 47h0"></path><rect x="70" y="36" width="54" height="22"></rect><text x="97" y="51">DROP</text></g><path d="M124 47h10"></path><path d="M134 47h10"></path><g class="terminal "><path d="M144 47h0"></path><path d="M198 47h0"></path><rect x="144" y="36" width="54" height="22"></rect><text x="171" y="51">REST</text></g><path d="M198 47h10"></path><path d="M208 47h10"></path><g class="terminal "><path d="M218 47h0"></path><path d="M297.5 47h0"></path><rect x="218" y="36" width="79.5" height="22"></rect><text x="257.75" y="51">CONTENT</text></g><path d="M297.5 47h10"></path><path d="M307.5 47h10"></path><g class="terminal "><path d="M317.5 47h0"></path><path d="M371.5 47h0"></path><rect x="317.5" y="36" width="54" height="22"></rect><text x="344.5" y="51">FILE</text></g><path d="M371.5 47h10"></path><g><path d="M381.5 47h0"></path><path d="M609.5 47h0"></path><path d="M381.5 47a10 10 0 0 0 10 -10v-7a10 10 0 0 1 10 -10"></path><g><path d="M401.5 20h188"></path></g><path d="M589.5 20a10 10 0 0 1 10 10v7a10 10 0 0 0 10 10"></path><path d="M381.5 47h20"></path><g><path d="M401.5 47h0"></path><path d="M589.5 47h0"></path><path d="M401.5 47h20"></path><g><path d="M421.5 47h0"></path><g><path d="M421.5 47h0"></path><path d="M549.5 47h20"></path><g class="terminal "><path d="M421.5 47h0"></path><path d="M458.5 47h0"></path><rect x="421.5" y="36" width="37" height="22"></rect><text x="440" y="51">IF</text></g><path d="M458.5 47h10"></path><path d="M468.5 47h10"></path><g class="terminal "><path d="M478.5 47h0"></path><path d="M549.5 47h0"></path><rect x="478.5" y="36" width="71" height="22"></rect><text x="514" y="51">EXISTS</text></g></g><path d="M569.5 47h0"></path></g><path d="M569.5 47h20"></path></g><path d="M589.5 47h20"></path></g><path d="M609.5 47h10"></path><g class="non-terminal "><path d="M619.5 47h0"></path><path d="M826.5 47h0"></path><rect x="619.5" y="36" width="207" height="22" rx="10" ry="10"></rect><text x="723" y="51">contentFileRequestPath</text></g></g><path d="M846.5 47a10 10 0 0 1 10 10v7a10 10 0 0 1 -10 10h-776.5a10 10 0 0 0 -10 10v39a10 10 0 0 0 10 10"></path><g><path d="M70 133h0"></path><path d="M691.5 133h155"></path><g class="terminal "><path d="M70 133h0"></path><path d="M124 133h0"></path><rect x="70" y="122" width="54" height="22"></rect><text x="97" y="137">FROM</text></g><path d="M124 133h10"></path><g><path d="M134 133h0"></path><path d="M536.5 133h0"></path><path d="M134 133a10 10 0 0 0 10 -10v-23a10 10 0 0 1 10 -10"></path><g><path d="M154 90h362.5"></path></g><path d="M516.5 90a10 10 0 0 1 10 10v23a10 10 0 0 0 10 10"></path><path d="M134 133h20"></path><g><path d="M154 133h0"></path><path d="M516.5 133h0"></path><path d="M154 133h20"></path><g><path d="M174 133h0"></path><g><path d="M174 133h0"></path><path d="M476.5 133h20"></path><g><path d="M174 133h0"></path><path d="M293.5 133h0"></path><path d="M174 133a10 10 0 0 0 10 -10v-7a10 10 0 0 1 10 -10"></path><g><path d="M194 106h79.5"></path></g><path d="M273.5 106a10 10 0 0 1 10 10v7a10 10 0 0 0 10 10"></path><path d="M174 133h20"></path><g class="terminal "><path d="M194 133h0"></path><path d="M273.5 133h0"></path><rect x="194" y="122" width="79.5" height="22"></rect><text x="233.75" y="137">SERVICE</text></g><path d="M273.5 133h20"></path></g><path d="M293.5 133h10"></path><g class="non-terminal "><path d="M303.5 133h0"></path><path d="M476.5 133h0"></path><rect x="303.5" y="122" width="173" height="22" rx="10" ry="10"></rect><text x="390" y="137">serviceRequestPath</text></g></g><path d="M496.5 133h0"></path></g><path d="M496.5 133h20"></path></g><path d="M516.5 133h20"></path></g><path d="M536.5 133h10"></path><g class="terminal "><path d="M546.5 133h0"></path><path d="M626 133h0"></path><rect x="546.5" y="122" width="79.5" height="22"></rect><text x="586.25" y="137">CONTENT</text></g><path d="M626 133h10"></path><path d="M636 133h10"></path><g class="terminal "><path d="M646 133h0"></path><path d="M691.5 133h0"></path><rect x="646" y="122" width="45.5" height="22"></rect><text x="668.75" y="137">SET</text></g></g><path d="M846.5 133a10 10 0 0 1 10 10v7a10 10 0 0 1 -10 10h-776.5a10 10 0 0 0 -10 10v7a10 10 0 0 0 10 10"></path><g><path d="M70 187h0"></path><path d="M268.5 187h578"></path><g class="non-terminal "><path d="M70 187h0"></path><path d="M268.5 187h0"></path><rect x="70" y="176" width="198.5" height="22" rx="10" ry="10"></rect><text x="169.25" y="191">contentSetRequestPath</text></g></g><path d="M846.5 187h10"></path><path d="M856.5 187h0"></path></g><path d="M856.5 187h20"></path></g><path d="M 876.5 187 h 20 m 0 -10 v 20"></path></g><defs><style type="text/css"><![CDATA[
svg.railroad-diagram path { stroke-width: 2; stroke: darkgray; fill: rgba(0, 0, 0, 0); }svg.railroad-diagram text { font: bold 12px Hack, "Source Code Pro", monospace; text-anchor: middle; fill: #404040; }svg.railroad-diagram text.comment { font: italic 10px Hack, "Source Code Pro", monospace; fill: #404040; }svg.railroad-diagram g.terminal rect { stroke-width: 2; stroke: #404040; fill: rgba(200, 200, 200, 0.8); }svg.railroad-diagram g.non-terminal rect { stroke-width: 2; stroke: #404040; fill: rgba(255, 255, 255, 1); }svg.railroad-diagram text.diagram-text { font-size: 12px Hack, "Source Code Pro", monospace; fill: red; }svg.railroad-diagram path.diagram-text { stroke-width: 1; stroke: red; fill: red; cursor: help; }
 ]]>
</style></defs></svg>