<?xml version="1.0" encoding="UTF-8" standalone="no"?>
<!DOCTYPE svg PUBLIC "-//W3C//DTD SVG 1.1//EN" "http://www.w3.org/Graphics/SVG/1.1/DTD/svg11.dtd">
<svg class="railroad-diagram" width="959" height="177" viewBox="0 0 959 177" id="dumpRestProjectService" xmlns="http://www.w3.org/2000/svg" xmlns:xlink="http://www.w3.org/1999/xlink"><g transform="translate(.5 .5)"><g><path d="M20 21v20m0 -10h20"></path></g><g><path d="M40 31h0"></path><path d="M919 117h0"></path><path d="M40 31h20"></path><g><path d="M60 31h0"></path><path d="M60 31h10"></path><g><path d="M70 31h0"></path><path d="M459 31h430"></path><g class="terminal "><path d="M70 31h0"></path><path d="M149.5 31h0"></path><rect x="70" y="20" width="79.5" height="22"></rect><text x="109.75" y="35">SERVICE</text></g><path d="M149.5 31h10"></path><path d="M159.5 31h10"></path><g class="non-terminal "><path d="M169.5 31h0"></path><path d="M342.5 31h0"></path><rect x="169.5" y="20" width="173" height="22" rx="10" ry="10"></rect><text x="256" y="35">serviceRequestPath</text></g><path d="M342.5 31h10"></path><path d="M352.5 31h10"></path><g class="terminal "><path d="M362.5 31h0"></path><path d="M459 31h0"></path><rect x="362.5" y="20" width="96.5" height="22"></rect><text x="410.75" y="35">INCLUDING</text></g></g><path d="M889 31a10 10 0 0 1 10 10v7a10 10 0 0 1 -10 10h-819a10 10 0 0 0 -10 10v39a10 10 0 0 0 10 10"></path><g><path d="M70 117h0"></path><path d="M869 117h20"></path><g><path d="M70 117h0"></path><path d="M762.5 117h0"></path><path d="M70 117h20"></path><g><path d="M90 117h0"></path><g><path d="M90 117h0"></path><path d="M722.5 117h20"></path><g><path d="M90 117h0"></path><path d="M722.5 117h0"></path><path d="M90 117h20"></path><g><path d="M110 117h0"></path><g><path d="M110 117h0"></path><path d="M682.5 117h20"></path><g class="terminal "><path d="M110 117h0"></path><path d="M181 117h0"></path><rect x="110" y="106" width="71" height="22"></rect><text x="145.5" y="121">SCHEMA</text></g><path d="M181 117h10"></path><g><path d="M191 117h0"></path><path d="M682.5 117h0"></path><path d="M191 117a10 10 0 0 0 10 -10v-23a10 10 0 0 1 10 -10"></path><g><path d="M211 74h451.5"></path></g><path d="M662.5 74a10 10 0 0 1 10 10v23a10 10 0 0 0 10 10"></path><path d="M191 117h20"></path><g><path d="M211 117h0"></path><path d="M662.5 117h0"></path><path d="M211 117h20"></path><g><path d="M231 117h0"></path><g><path d="M231 117h0"></path><path d="M622.5 117h20"></path><g class="terminal "><path d="M231 117h0"></path><path d="M276.5 117h0"></path><rect x="231" y="106" width="45.5" height="22"></rect><text x="253.75" y="121">AND</text></g><path d="M276.5 117h10"></path><path d="M286.5 117h10"></path><g class="terminal "><path d="M296.5 117h0"></path><path d="M367.5 117h0"></path><rect x="296.5" y="106" width="71" height="22"></rect><text x="332" y="121">STATIC</text></g><path d="M367.5 117h10"></path><g><path d="M377.5 117h0"></path><path d="M622.5 117h0"></path><path d="M377.5 117a10 10 0 0 0 10 -10v-7a10 10 0 0 1 10 -10"></path><g><path d="M397.5 90h205"></path></g><path d="M602.5 90a10 10 0 0 1 10 10v7a10 10 0 0 0 10 10"></path><path d="M377.5 117h20"></path><g><path d="M397.5 117h0"></path><path d="M602.5 117h0"></path><path d="M397.5 117h20"></path><g><path d="M417.5 117h0"></path><g><path d="M417.5 117h0"></path><path d="M562.5 117h20"></path><g class="terminal "><path d="M417.5 117h0"></path><path d="M463 117h0"></path><rect x="417.5" y="106" width="45.5" height="22"></rect><text x="440.25" y="121">AND</text></g><path d="M463 117h10"></path><path d="M473 117h10"></path><g class="terminal "><path d="M483 117h0"></path><path d="M562.5 117h0"></path><rect x="483" y="106" width="79.5" height="22"></rect><text x="522.75" y="121">DYNAMIC</text></g></g><path d="M582.5 117h0"></path></g><path d="M582.5 117h20"></path></g><path d="M602.5 117h20"></path></g></g><path d="M642.5 117h0"></path></g><path d="M642.5 117h20"></path></g><path d="M662.5 117h20"></path></g></g><path d="M702.5 117h0"></path></g><path d="M702.5 117h20"></path></g></g><path d="M742.5 117h0"></path></g><path d="M742.5 117h20"></path><path d="M70 117a10 10 0 0 1 10 10v18a10 10 0 0 0 10 10"></path><g><path d="M90 155h0"></path><g><path d="M90 155h0"></path><path d="M135.5 155h20"></path><g class="terminal "><path d="M90 155h0"></path><path d="M135.5 155h0"></path><rect x="90" y="144" width="45.5" height="22"></rect><text x="112.75" y="159">ALL</text></g></g><path d="M155.5 155h587"></path></g><path d="M742.5 155a10 10 0 0 0 10 -10v-18a10 10 0 0 1 10 -10"></path></g><path d="M762.5 117h10"></path><g class="terminal "><path d="M772.5 117h0"></path><path d="M869 117h0"></path><rect x="772.5" y="106" width="96.5" height="22"></rect><text x="820.75" y="121">ENDPOINTS</text></g></g><path d="M889 117h10"></path><path d="M899 117h0"></path></g><path d="M899 117h20"></path></g><path d="M 919 117 h 20 m 0 -10 v 20"></path></g><defs><style type="text/css"><![CDATA[
svg.railroad-diagram path { stroke-width: 2; stroke: darkgray; fill: rgba(0, 0, 0, 0); }svg.railroad-diagram text { font: bold 12px Hack, "Source Code Pro", monospace; text-anchor: middle; fill: #404040; }svg.railroad-diagram text.comment { font: italic 10px Hack, "Source Code Pro", monospace; fill: #404040; }svg.railroad-diagram g.terminal rect { stroke-width: 2; stroke: #404040; fill: rgba(200, 200, 200, 0.8); }svg.railroad-diagram g.non-terminal rect { stroke-width: 2; stroke: #404040; fill: rgba(255, 255, 255, 1); }svg.railroad-diagram text.diagram-text { font-size: 12px Hack, "Source Code Pro", monospace; fill: red; }svg.railroad-diagram path.diagram-text { stroke-width: 1; stroke: red; fill: red; cursor: help; }
 ]]>
</style></defs></svg>