<?xml version="1.0" encoding="UTF-8" standalone="no"?>
<!DOCTYPE svg PUBLIC "-//W3C//DTD SVG 1.1//EN" "http://www.w3.org/Graphics/SVG/1.1/DTD/svg11.dtd">
<svg class="railroad-diagram" width="583.5" height="154" viewBox="0 0 583.5 154" id="dumpRestProjectSettings" xmlns="http://www.w3.org/2000/svg" xmlns:xlink="http://www.w3.org/1999/xlink"><g transform="translate(.5 .5)"><g><path d="M20 21v20m0 -10h20"></path></g><g><path d="M40 31h0"></path><path d="M543.5 31h0"></path><path d="M40 31h20"></path><g><path d="M60 31h0"></path><g><path d="M60 31h10"></path><path d="M513.5 31h10"></path><g><path d="M70 31h0"></path><path d="M513.5 31h0"></path><path d="M70 31h10"></path><g><path d="M80 31h0"></path><path d="M503.5 31h0"></path><path d="M80 31h20"></path><g><path d="M100 31h0"></path><g><path d="M100 31h10"></path><path d="M473.5 31h10"></path><g class="terminal "><path d="M110 31h0"></path><path d="M164 31h0"></path><rect x="110" y="20" width="54" height="22"></rect><text x="137" y="35">ICON</text></g><path d="M164 31h10"></path><path d="M174 31h10"></path><g class="terminal "><path d="M184 31h0"></path><path d="M238 31h0"></path><rect x="184" y="20" width="54" height="22"></rect><text x="211" y="35">FROM</text></g><path d="M238 31h10"></path><path d="M248 31h10"></path><g class="non-terminal "><path d="M258 31h0"></path><path d="M473.5 31h0"></path><rect x="258" y="20" width="215.5" height="22" rx="10" ry="10"></rect><text x="365.75" y="35">restProjectIconFilePath</text></g></g><path d="M483.5 31h0"></path></g><path d="M483.5 31h20"></path><path d="M80 31a10 10 0 0 1 10 10v18a10 10 0 0 0 10 10"></path><g><path d="M100 69h11.5"></path><g><path d="M111.5 69h10"></path><path d="M462 69h10"></path><g class="terminal "><path d="M121.5 69h0"></path><path d="M235 69h0"></path><rect x="121.5" y="58" width="113.5" height="22"></rect><text x="178.25" y="73">DESCRIPTION</text></g><path d="M235 69h10"></path><path d="M245 69h10"></path><g class="non-terminal "><path d="M255 69h0"></path><path d="M462 69h0"></path><rect x="255" y="58" width="207" height="22" rx="10" ry="10"></rect><text x="358.5" y="73">restProjectDescription</text></g></g><path d="M472 69h11.5"></path></g><path d="M483.5 69a10 10 0 0 0 10 -10v-18a10 10 0 0 1 10 -10"></path><path d="M80 31a10 10 0 0 1 10 10v56a10 10 0 0 0 10 10"></path><g><path d="M100 107h28.5"></path><g><path d="M128.5 107h10"></path><path d="M445 107h10"></path><g class="terminal "><path d="M138.5 107h0"></path><path d="M235 107h0"></path><rect x="138.5" y="96" width="96.5" height="22"></rect><text x="186.75" y="111">PUBLISHER</text></g><path d="M235 107h10"></path><path d="M245 107h10"></path><g class="non-terminal "><path d="M255 107h0"></path><path d="M445 107h0"></path><rect x="255" y="96" width="190" height="22" rx="10" ry="10"></rect><text x="350" y="111">restProjectPublisher</text></g></g><path d="M455 107h28.5"></path></g><path d="M483.5 107a10 10 0 0 0 10 -10v-56a10 10 0 0 1 10 -10"></path></g><path d="M503.5 31h10"></path><path d="M80 31a10 10 0 0 0 -10 10v83a10 10 0 0 0 10 10"></path><g><path d="M80 134h423.5"></path></g><path d="M503.5 134a10 10 0 0 0 10 -10v-83a10 10 0 0 0 -10 -10"></path></g></g><path d="M523.5 31h0"></path></g><path d="M523.5 31h20"></path></g><path d="M 543.5 31 h 20 m 0 -10 v 20"></path></g><defs><style type="text/css"><![CDATA[
svg.railroad-diagram path { stroke-width: 2; stroke: darkgray; fill: rgba(0, 0, 0, 0); }svg.railroad-diagram text { font: bold 12px Hack, "Source Code Pro", monospace; text-anchor: middle; fill: #404040; }svg.railroad-diagram text.comment { font: italic 10px Hack, "Source Code Pro", monospace; fill: #404040; }svg.railroad-diagram g.terminal rect { stroke-width: 2; stroke: #404040; fill: rgba(200, 200, 200, 0.8); }svg.railroad-diagram g.non-terminal rect { stroke-width: 2; stroke: #404040; fill: rgba(255, 255, 255, 1); }svg.railroad-diagram text.diagram-text { font-size: 12px Hack, "Source Code Pro", monospace; fill: red; }svg.railroad-diagram path.diagram-text { stroke-width: 1; stroke: red; fill: red; cursor: help; }
 ]]>
</style></defs></svg>