<?xml version="1.0" encoding="UTF-8" standalone="no"?>
<!DOCTYPE svg PUBLIC "-//W3C//DTD SVG 1.1//EN" "http://www.w3.org/Graphics/SVG/1.1/DTD/svg11.dtd">
<svg class="railroad-diagram" width="852.5" height="287" viewBox="0 0 852.5 287" id="dumpRestProjectStatement" xmlns="http://www.w3.org/2000/svg" xmlns:xlink="http://www.w3.org/1999/xlink"><g transform="translate(.5 .5)"><g><path d="M20 21v20m0 -10h20"></path></g><g><path d="M40 31h0"></path><path d="M812.5 257h0"></path><path d="M40 31h20"></path><g><path d="M60 31h0"></path><path d="M60 31h10"></path><g><path d="M70 31h0"></path><path d="M564.5 31h218"></path><g class="terminal "><path d="M70 31h0"></path><path d="M124 31h0"></path><rect x="70" y="20" width="54" height="22"></rect><text x="97" y="35">DUMP</text></g><path d="M124 31h10"></path><path d="M134 31h10"></path><g class="terminal "><path d="M144 31h0"></path><path d="M198 31h0"></path><rect x="144" y="20" width="54" height="22"></rect><text x="171" y="35">REST</text></g><path d="M198 31h10"></path><path d="M208 31h10"></path><g class="terminal "><path d="M218 31h0"></path><path d="M297.5 31h0"></path><rect x="218" y="20" width="79.5" height="22"></rect><text x="257.75" y="35">PROJECT</text></g><path d="M297.5 31h10"></path><path d="M307.5 31h10"></path><g class="non-terminal "><path d="M317.5 31h0"></path><path d="M465 31h0"></path><rect x="317.5" y="20" width="147.5" height="22" rx="10" ry="10"></rect><text x="391.25" y="35">restProjectName</text></g><path d="M465 31h10"></path><path d="M475 31h10"></path><g class="terminal "><path d="M485 31h0"></path><path d="M564.5 31h0"></path><rect x="485" y="20" width="79.5" height="22"></rect><text x="524.75" y="35">VERSION</text></g></g><path d="M782.5 31a10 10 0 0 1 10 10v7a10 10 0 0 1 -10 10h-712.5a10 10 0 0 0 -10 10v7a10 10 0 0 0 10 10"></path><g><path d="M70 85h0"></path><path d="M550 85h232.5"></path><g class="non-terminal "><path d="M70 85h0"></path><path d="M243 85h0"></path><rect x="70" y="74" width="173" height="22" rx="10" ry="10"></rect><text x="156.5" y="89">restProjectVersion</text></g><path d="M243 85h10"></path><path d="M253 85h10"></path><g><path d="M263 85h0"></path><path d="M550 85h0"></path><path d="M263 85h10"></path><g><path d="M273 85h0"></path><path d="M540 85h0"></path><path d="M273 85h20"></path><g><path d="M293 85h0"></path><g><path d="M293 85h0"></path><path d="M500 85h20"></path><g class="non-terminal "><path d="M293 85h0"></path><path d="M500 85h0"></path><rect x="293" y="74" width="207" height="22" rx="10" ry="10"></rect><text x="396.5" y="89">dumpRestProjectService</text></g></g><path d="M520 85h0"></path></g><path d="M520 85h20"></path></g><path d="M540 85h10"></path><path d="M273 85a10 10 0 0 0 -10 10v7a10 10 0 0 0 10 10"></path><g><path d="M273 112h267"></path></g><path d="M540 112a10 10 0 0 0 10 -10v-7a10 10 0 0 0 -10 -10"></path></g></g><path d="M782.5 85a10 10 0 0 1 10 10v23a10 10 0 0 1 -10 10h-712.5a10 10 0 0 0 -10 10v23a10 10 0 0 0 10 10"></path><g><path d="M70 171h0"></path><path d="M456.5 171h326"></path><g><path d="M70 171h0"></path><path d="M456.5 171h0"></path><path d="M70 171a10 10 0 0 0 10 -10v-7a10 10 0 0 1 10 -10"></path><g><path d="M90 144h346.5"></path></g><path d="M436.5 144a10 10 0 0 1 10 10v7a10 10 0 0 0 10 10"></path><path d="M70 171h20"></path><g><path d="M90 171h0"></path><path d="M436.5 171h0"></path><path d="M90 171h10"></path><g><path d="M100 171h0"></path><path d="M426.5 171h0"></path><path d="M100 171h20"></path><g><path d="M120 171h0"></path><g><path d="M120 171h0"></path><path d="M386.5 171h20"></path><g class="non-terminal "><path d="M120 171h0"></path><path d="M386.5 171h0"></path><rect x="120" y="160" width="266.5" height="22" rx="10" ry="10"></rect><text x="253.25" y="175">dumpRestProjectDatabaseSchema</text></g></g><path d="M406.5 171h0"></path></g><path d="M406.5 171h20"></path></g><path d="M426.5 171h10"></path><path d="M100 171a10 10 0 0 0 -10 10v7a10 10 0 0 0 10 10"></path><g><path d="M100 198h326.5"></path></g><path d="M426.5 198a10 10 0 0 0 10 -10v-7a10 10 0 0 0 -10 -10"></path></g><path d="M436.5 171h20"></path></g></g><path d="M782.5 171a10 10 0 0 1 10 10v23a10 10 0 0 1 -10 10h-712.5a10 10 0 0 0 -10 10v23a10 10 0 0 0 10 10"></path><g><path d="M70 257h0"></path><path d="M762.5 257h20"></path><g><path d="M70 257h0"></path><path d="M385.5 257h0"></path><path d="M70 257a10 10 0 0 0 10 -10v-7a10 10 0 0 1 10 -10"></path><g><path d="M90 230h275.5"></path></g><path d="M365.5 230a10 10 0 0 1 10 10v7a10 10 0 0 0 10 10"></path><path d="M70 257h20"></path><g><path d="M90 257h0"></path><path d="M365.5 257h0"></path><path d="M90 257h20"></path><g><path d="M110 257h0"></path><g><path d="M110 257h0"></path><path d="M325.5 257h20"></path><g class="non-terminal "><path d="M110 257h0"></path><path d="M325.5 257h0"></path><rect x="110" y="246" width="215.5" height="22" rx="10" ry="10"></rect><text x="217.75" y="261">dumpRestProjectSettings</text></g></g><path d="M345.5 257h0"></path></g><path d="M345.5 257h20"></path></g><path d="M365.5 257h20"></path></g><path d="M385.5 257h10"></path><g class="terminal "><path d="M395.5 257h0"></path><path d="M432.5 257h0"></path><rect x="395.5" y="246" width="37" height="22"></rect><text x="414" y="261">TO</text></g><path d="M432.5 257h10"></path><g><path d="M442.5 257h0"></path><path d="M588 257h0"></path><path d="M442.5 257a10 10 0 0 0 10 -10v-7a10 10 0 0 1 10 -10"></path><g><path d="M462.5 230h105.5"></path></g><path d="M568 230a10 10 0 0 1 10 10v7a10 10 0 0 0 10 10"></path><path d="M442.5 257h20"></path><g><path d="M462.5 257h0"></path><path d="M568 257h0"></path><path d="M462.5 257h20"></path><g><path d="M482.5 257h0"></path><g><path d="M482.5 257h0"></path><path d="M528 257h20"></path><g class="terminal "><path d="M482.5 257h0"></path><path d="M528 257h0"></path><rect x="482.5" y="246" width="45.5" height="22"></rect><text x="505.25" y="261">ZIP</text></g></g><path d="M548 257h0"></path></g><path d="M548 257h20"></path></g><path d="M568 257h20"></path></g><path d="M588 257h10"></path><g class="non-terminal "><path d="M598 257h0"></path><path d="M762.5 257h0"></path><rect x="598" y="246" width="164.5" height="22" rx="10" ry="10"></rect><text x="680.25" y="261">directoryFilePath</text></g></g><path d="M782.5 257h10"></path><path d="M792.5 257h0"></path></g><path d="M792.5 257h20"></path></g><path d="M 812.5 257 h 20 m 0 -10 v 20"></path></g><defs><style type="text/css"><![CDATA[
svg.railroad-diagram path { stroke-width: 2; stroke: darkgray; fill: rgba(0, 0, 0, 0); }svg.railroad-diagram text { font: bold 12px Hack, "Source Code Pro", monospace; text-anchor: middle; fill: #404040; }svg.railroad-diagram text.comment { font: italic 10px Hack, "Source Code Pro", monospace; fill: #404040; }svg.railroad-diagram g.terminal rect { stroke-width: 2; stroke: #404040; fill: rgba(200, 200, 200, 0.8); }svg.railroad-diagram g.non-terminal rect { stroke-width: 2; stroke: #404040; fill: rgba(255, 255, 255, 1); }svg.railroad-diagram text.diagram-text { font-size: 12px Hack, "Source Code Pro", monospace; fill: red; }svg.railroad-diagram path.diagram-text { stroke-width: 1; stroke: red; fill: red; cursor: help; }
 ]]>
</style></defs></svg>