<?xml version="1.0" encoding="UTF-8" standalone="no"?>
<!DOCTYPE svg PUBLIC "-//W3C//DTD SVG 1.1//EN" "http://www.w3.org/Graphics/SVG/1.1/DTD/svg11.dtd">
<svg class="railroad-diagram" width="1278" height="255" viewBox="0 0 1278 255" id="dumpRestServiceStatement" xmlns="http://www.w3.org/2000/svg" xmlns:xlink="http://www.w3.org/1999/xlink"><g transform="translate(.5 .5)"><g><path d="M20 37v20m0 -10h20"></path></g><g><path d="M40 47h0"></path><path d="M1238 225h0"></path><path d="M40 47h20"></path><g><path d="M60 47h0"></path><path d="M60 47h10"></path><g><path d="M70 47h0"></path><path d="M784 47h424"></path><g class="terminal "><path d="M70 47h0"></path><path d="M124 47h0"></path><rect x="70" y="36" width="54" height="22"></rect><text x="97" y="51">DUMP</text></g><path d="M124 47h10"></path><path d="M134 47h10"></path><g class="terminal "><path d="M144 47h0"></path><path d="M198 47h0"></path><rect x="144" y="36" width="54" height="22"></rect><text x="171" y="51">REST</text></g><path d="M198 47h10"></path><path d="M208 47h10"></path><g class="terminal "><path d="M218 47h0"></path><path d="M297.5 47h0"></path><rect x="218" y="36" width="79.5" height="22"></rect><text x="257.75" y="51">SERVICE</text></g><path d="M297.5 47h10"></path><path d="M307.5 47h10"></path><g class="non-terminal "><path d="M317.5 47h0"></path><path d="M490.5 47h0"></path><rect x="317.5" y="36" width="173" height="22" rx="10" ry="10"></rect><text x="404" y="51">serviceRequestPath</text></g><path d="M490.5 47h10"></path><path d="M500.5 47h10"></path><g class="terminal "><path d="M510.5 47h0"></path><path d="M547.5 47h0"></path><rect x="510.5" y="36" width="37" height="22"></rect><text x="529" y="51">AS</text></g><path d="M547.5 47h10"></path><g><path d="M557.5 47h0"></path><path d="M703 47h0"></path><path d="M557.5 47a10 10 0 0 0 10 -10v-7a10 10 0 0 1 10 -10"></path><g><path d="M577.5 20h105.5"></path></g><path d="M683 20a10 10 0 0 1 10 10v7a10 10 0 0 0 10 10"></path><path d="M557.5 47h20"></path><g><path d="M577.5 47h0"></path><path d="M683 47h0"></path><path d="M577.5 47h20"></path><g><path d="M597.5 47h0"></path><g><path d="M597.5 47h0"></path><path d="M643 47h20"></path><g class="terminal "><path d="M597.5 47h0"></path><path d="M643 47h0"></path><rect x="597.5" y="36" width="45.5" height="22"></rect><text x="620.25" y="51">SQL</text></g></g><path d="M663 47h0"></path></g><path d="M663 47h20"></path></g><path d="M683 47h20"></path></g><path d="M703 47h10"></path><g class="terminal "><path d="M713 47h0"></path><path d="M784 47h0"></path><rect x="713" y="36" width="71" height="22"></rect><text x="748.5" y="51">SCRIPT</text></g></g><path d="M1208 47a10 10 0 0 1 10 10v7a10 10 0 0 1 -10 10h-1138a10 10 0 0 0 -10 10v39a10 10 0 0 0 10 10"></path><g><path d="M70 133h0"></path><path d="M1188 133h20"></path><g class="terminal "><path d="M70 133h0"></path><path d="M166.5 133h0"></path><rect x="70" y="122" width="96.5" height="22"></rect><text x="118.25" y="137">INCLUDING</text></g><path d="M166.5 133h10"></path><g><path d="M176.5 133h0"></path><path d="M869 133h0"></path><path d="M176.5 133h20"></path><g><path d="M196.5 133h0"></path><g><path d="M196.5 133h0"></path><path d="M829 133h20"></path><g><path d="M196.5 133h0"></path><path d="M829 133h0"></path><path d="M196.5 133h20"></path><g><path d="M216.5 133h0"></path><g><path d="M216.5 133h0"></path><path d="M789 133h20"></path><g class="terminal "><path d="M216.5 133h0"></path><path d="M287.5 133h0"></path><rect x="216.5" y="122" width="71" height="22"></rect><text x="252" y="137">SCHEMA</text></g><path d="M287.5 133h10"></path><g><path d="M297.5 133h0"></path><path d="M789 133h0"></path><path d="M297.5 133a10 10 0 0 0 10 -10v-23a10 10 0 0 1 10 -10"></path><g><path d="M317.5 90h451.5"></path></g><path d="M769 90a10 10 0 0 1 10 10v23a10 10 0 0 0 10 10"></path><path d="M297.5 133h20"></path><g><path d="M317.5 133h0"></path><path d="M769 133h0"></path><path d="M317.5 133h20"></path><g><path d="M337.5 133h0"></path><g><path d="M337.5 133h0"></path><path d="M729 133h20"></path><g class="terminal "><path d="M337.5 133h0"></path><path d="M383 133h0"></path><rect x="337.5" y="122" width="45.5" height="22"></rect><text x="360.25" y="137">AND</text></g><path d="M383 133h10"></path><path d="M393 133h10"></path><g class="terminal "><path d="M403 133h0"></path><path d="M474 133h0"></path><rect x="403" y="122" width="71" height="22"></rect><text x="438.5" y="137">STATIC</text></g><path d="M474 133h10"></path><g><path d="M484 133h0"></path><path d="M729 133h0"></path><path d="M484 133a10 10 0 0 0 10 -10v-7a10 10 0 0 1 10 -10"></path><g><path d="M504 106h205"></path></g><path d="M709 106a10 10 0 0 1 10 10v7a10 10 0 0 0 10 10"></path><path d="M484 133h20"></path><g><path d="M504 133h0"></path><path d="M709 133h0"></path><path d="M504 133h20"></path><g><path d="M524 133h0"></path><g><path d="M524 133h0"></path><path d="M669 133h20"></path><g class="terminal "><path d="M524 133h0"></path><path d="M569.5 133h0"></path><rect x="524" y="122" width="45.5" height="22"></rect><text x="546.75" y="137">AND</text></g><path d="M569.5 133h10"></path><path d="M579.5 133h10"></path><g class="terminal "><path d="M589.5 133h0"></path><path d="M669 133h0"></path><rect x="589.5" y="122" width="79.5" height="22"></rect><text x="629.25" y="137">DYNAMIC</text></g></g><path d="M689 133h0"></path></g><path d="M689 133h20"></path></g><path d="M709 133h20"></path></g></g><path d="M749 133h0"></path></g><path d="M749 133h20"></path></g><path d="M769 133h20"></path></g></g><path d="M809 133h0"></path></g><path d="M809 133h20"></path></g></g><path d="M849 133h0"></path></g><path d="M849 133h20"></path><path d="M176.5 133a10 10 0 0 1 10 10v18a10 10 0 0 0 10 10"></path><g><path d="M196.5 171h0"></path><g><path d="M196.5 171h0"></path><path d="M242 171h20"></path><g class="terminal "><path d="M196.5 171h0"></path><path d="M242 171h0"></path><rect x="196.5" y="160" width="45.5" height="22"></rect><text x="219.25" y="175">ALL</text></g></g><path d="M262 171h587"></path></g><path d="M849 171a10 10 0 0 0 10 -10v-18a10 10 0 0 1 10 -10"></path></g><path d="M869 133h10"></path><g class="terminal "><path d="M879 133h0"></path><path d="M975.5 133h0"></path><rect x="879" y="122" width="96.5" height="22"></rect><text x="927.25" y="137">ENDPOINTS</text></g><path d="M975.5 133h10"></path><path d="M985.5 133h10"></path><g class="terminal "><path d="M995.5 133h0"></path><path d="M1032.5 133h0"></path><rect x="995.5" y="122" width="37" height="22"></rect><text x="1014" y="137">TO</text></g><path d="M1032.5 133h10"></path><g><path d="M1042.5 133h0"></path><path d="M1188 133h0"></path><path d="M1042.5 133a10 10 0 0 0 10 -10v-7a10 10 0 0 1 10 -10"></path><g><path d="M1062.5 106h105.5"></path></g><path d="M1168 106a10 10 0 0 1 10 10v7a10 10 0 0 0 10 10"></path><path d="M1042.5 133h20"></path><g><path d="M1062.5 133h0"></path><path d="M1168 133h0"></path><path d="M1062.5 133h20"></path><g><path d="M1082.5 133h0"></path><g><path d="M1082.5 133h0"></path><path d="M1128 133h20"></path><g class="terminal "><path d="M1082.5 133h0"></path><path d="M1128 133h0"></path><rect x="1082.5" y="122" width="45.5" height="22"></rect><text x="1105.25" y="137">ZIP</text></g></g><path d="M1148 133h0"></path></g><path d="M1148 133h20"></path></g><path d="M1168 133h20"></path></g></g><path d="M1208 133a10 10 0 0 1 10 10v45a10 10 0 0 1 -10 10h-1138a10 10 0 0 0 -10 10v7a10 10 0 0 0 10 10"></path><g><path d="M70 225h0"></path><path d="M234.5 225h973.5"></path><g class="non-terminal "><path d="M70 225h0"></path><path d="M234.5 225h0"></path><rect x="70" y="214" width="164.5" height="22" rx="10" ry="10"></rect><text x="152.25" y="229">directoryFilePath</text></g></g><path d="M1208 225h10"></path><path d="M1218 225h0"></path></g><path d="M1218 225h20"></path></g><path d="M 1238 225 h 20 m 0 -10 v 20"></path></g><defs><style type="text/css"><![CDATA[
svg.railroad-diagram path { stroke-width: 2; stroke: darkgray; fill: rgba(0, 0, 0, 0); }svg.railroad-diagram text { font: bold 12px Hack, "Source Code Pro", monospace; text-anchor: middle; fill: #404040; }svg.railroad-diagram text.comment { font: italic 10px Hack, "Source Code Pro", monospace; fill: #404040; }svg.railroad-diagram g.terminal rect { stroke-width: 2; stroke: #404040; fill: rgba(200, 200, 200, 0.8); }svg.railroad-diagram g.non-terminal rect { stroke-width: 2; stroke: #404040; fill: rgba(255, 255, 255, 1); }svg.railroad-diagram text.diagram-text { font-size: 12px Hack, "Source Code Pro", monospace; fill: red; }svg.railroad-diagram path.diagram-text { stroke-width: 1; stroke: red; fill: red; cursor: help; }
 ]]>
</style></defs></svg>