<?xml version="1.0" encoding="UTF-8" standalone="no"?>
<!DOCTYPE svg PUBLIC "-//W3C//DTD SVG 1.1//EN" "http://www.w3.org/Graphics/SVG/1.1/DTD/svg11.dtd">
<svg class="railroad-diagram" width="228" height="138" viewBox="0 0 228 138" id="enabledDisabledPrivate" xmlns="http://www.w3.org/2000/svg" xmlns:xlink="http://www.w3.org/1999/xlink"><g transform="translate(.5 .5)"><g><path d="M20 21v20m0 -10h20"></path></g><g><path d="M40 31h0"></path><path d="M188 31h0"></path><path d="M40 31h20"></path><g><path d="M60 31h4.25"></path><g><path d="M64.25 31h10"></path><path d="M153.75 31h10"></path><g class="terminal "><path d="M74.25 31h0"></path><path d="M153.75 31h0"></path><rect x="74.25" y="20" width="79.5" height="22"></rect><text x="114" y="35">ENABLED</text></g></g><path d="M163.75 31h4.25"></path></g><path d="M168 31h20"></path><path d="M40 31a10 10 0 0 1 10 10v18a10 10 0 0 0 10 10"></path><g><path d="M60 69h0"></path><g><path d="M60 69h10"></path><path d="M158 69h10"></path><g class="terminal "><path d="M70 69h0"></path><path d="M158 69h0"></path><rect x="70" y="58" width="88" height="22"></rect><text x="114" y="73">DISABLED</text></g></g><path d="M168 69h0"></path></g><path d="M168 69a10 10 0 0 0 10 -10v-18a10 10 0 0 1 10 -10"></path><path d="M40 31a10 10 0 0 1 10 10v56a10 10 0 0 0 10 10"></path><g><path d="M60 107h4.25"></path><g><path d="M64.25 107h10"></path><path d="M153.75 107h10"></path><g class="terminal "><path d="M74.25 107h0"></path><path d="M153.75 107h0"></path><rect x="74.25" y="96" width="79.5" height="22"></rect><text x="114" y="111">PRIVATE</text></g></g><path d="M163.75 107h4.25"></path></g><path d="M168 107a10 10 0 0 0 10 -10v-56a10 10 0 0 1 10 -10"></path></g><path d="M 188 31 h 20 m 0 -10 v 20"></path></g><defs><style type="text/css"><![CDATA[
svg.railroad-diagram path { stroke-width: 2; stroke: darkgray; fill: rgba(0, 0, 0, 0); }svg.railroad-diagram text { font: bold 12px Hack, "Source Code Pro", monospace; text-anchor: middle; fill: #404040; }svg.railroad-diagram text.comment { font: italic 10px Hack, "Source Code Pro", monospace; fill: #404040; }svg.railroad-diagram g.terminal rect { stroke-width: 2; stroke: #404040; fill: rgba(200, 200, 200, 0.8); }svg.railroad-diagram g.non-terminal rect { stroke-width: 2; stroke: #404040; fill: rgba(255, 255, 255, 1); }svg.railroad-diagram text.diagram-text { font-size: 12px Hack, "Source Code Pro", monospace; fill: red; }svg.railroad-diagram path.diagram-text { stroke-width: 1; stroke: red; fill: red; cursor: help; }
 ]]>
</style></defs></svg>