<?xml version="1.0" encoding="UTF-8" standalone="no"?>
<!DOCTYPE svg PUBLIC "-//W3C//DTD SVG 1.1//EN" "http://www.w3.org/Graphics/SVG/1.1/DTD/svg11.dtd">
<svg class="railroad-diagram" width="876.5" height="131" viewBox="0 0 876.5 131" id="grantRestRoleStatement" xmlns="http://www.w3.org/2000/svg" xmlns:xlink="http://www.w3.org/1999/xlink"><g transform="translate(.5 .5)"><g><path d="M20 21v20m0 -10h20"></path></g><g><path d="M40 31h0"></path><path d="M836.5 101h0"></path><path d="M40 31h20"></path><g><path d="M60 31h0"></path><path d="M60 31h10"></path><g><path d="M70 31h0"></path><path d="M786.5 31h20"></path><g class="terminal "><path d="M70 31h0"></path><path d="M132.5 31h0"></path><rect x="70" y="20" width="62.5" height="22"></rect><text x="101.25" y="35">GRANT</text></g><path d="M132.5 31h10"></path><path d="M142.5 31h10"></path><g class="terminal "><path d="M152.5 31h0"></path><path d="M206.5 31h0"></path><rect x="152.5" y="20" width="54" height="22"></rect><text x="179.5" y="35">REST</text></g><path d="M206.5 31h10"></path><path d="M216.5 31h10"></path><g class="terminal "><path d="M226.5 31h0"></path><path d="M280.5 31h0"></path><rect x="226.5" y="20" width="54" height="22"></rect><text x="253.5" y="35">ROLE</text></g><path d="M280.5 31h10"></path><path d="M290.5 31h10"></path><g class="non-terminal "><path d="M300.5 31h0"></path><path d="M388.5 31h0"></path><rect x="300.5" y="20" width="88" height="22" rx="10" ry="10"></rect><text x="344.5" y="35">roleName</text></g><path d="M388.5 31h10"></path><path d="M398.5 31h10"></path><g class="terminal "><path d="M408.5 31h0"></path><path d="M445.5 31h0"></path><rect x="408.5" y="20" width="37" height="22"></rect><text x="427" y="35">TO</text></g><path d="M445.5 31h10"></path><path d="M455.5 31h10"></path><g class="non-terminal "><path d="M465.5 31h0"></path><path d="M553.5 31h0"></path><rect x="465.5" y="20" width="88" height="22" rx="10" ry="10"></rect><text x="509.5" y="35">userName</text></g><path d="M553.5 31h10"></path><path d="M563.5 31h10"></path><g class="terminal "><path d="M573.5 31h0"></path><path d="M653 31h0"></path><rect x="573.5" y="20" width="79.5" height="22"></rect><text x="613.25" y="35">AT_SIGN</text></g><path d="M653 31h10"></path><path d="M663 31h10"></path><g class="non-terminal "><path d="M673 31h0"></path><path d="M786.5 31h0"></path><rect x="673" y="20" width="113.5" height="22" rx="10" ry="10"></rect><text x="729.75" y="35">authAppName</text></g></g><path d="M806.5 31a10 10 0 0 1 10 10v7a10 10 0 0 1 -10 10h-736.5a10 10 0 0 0 -10 10v23a10 10 0 0 0 10 10"></path><g><path d="M70 101h0"></path><path d="M198 101h608.5"></path><g><path d="M70 101h0"></path><path d="M198 101h0"></path><path d="M70 101a10 10 0 0 0 10 -10v-7a10 10 0 0 1 10 -10"></path><g><path d="M90 74h88"></path></g><path d="M178 74a10 10 0 0 1 10 10v7a10 10 0 0 0 10 10"></path><path d="M70 101h20"></path><g class="non-terminal "><path d="M90 101h0"></path><path d="M178 101h0"></path><rect x="90" y="90" width="88" height="22" rx="10" ry="10"></rect><text x="134" y="105">comments</text></g><path d="M178 101h20"></path></g></g><path d="M806.5 101h10"></path><path d="M816.5 101h0"></path></g><path d="M816.5 101h20"></path></g><path d="M 836.5 101 h 20 m 0 -10 v 20"></path></g><defs><style type="text/css"><![CDATA[
svg.railroad-diagram path { stroke-width: 2; stroke: darkgray; fill: rgba(0, 0, 0, 0); }svg.railroad-diagram text { font: bold 12px Hack, "Source Code Pro", monospace; text-anchor: middle; fill: #404040; }svg.railroad-diagram text.comment { font: italic 10px Hack, "Source Code Pro", monospace; fill: #404040; }svg.railroad-diagram g.terminal rect { stroke-width: 2; stroke: #404040; fill: rgba(200, 200, 200, 0.8); }svg.railroad-diagram g.non-terminal rect { stroke-width: 2; stroke: #404040; fill: rgba(255, 255, 255, 1); }svg.railroad-diagram text.diagram-text { font-size: 12px Hack, "Source Code Pro", monospace; fill: red; }svg.railroad-diagram path.diagram-text { stroke-width: 1; stroke: red; fill: red; cursor: help; }
 ]]>
</style></defs></svg>