<?xml version="1.0" encoding="UTF-8" standalone="no"?>
<!DOCTYPE svg PUBLIC "-//W3C//DTD SVG 1.1//EN" "http://www.w3.org/Graphics/SVG/1.1/DTD/svg11.dtd">
<svg class="railroad-diagram" width="896.5" height="147" viewBox="0 0 896.5 147" id="grantRestRoleStatement" xmlns="http://www.w3.org/2000/svg" xmlns:xlink="http://www.w3.org/1999/xlink"><g transform="translate(.5 .5)"><g><path d="M20 37v20m0 -10h20"></path></g><g><path d="M40 47h0"></path><path d="M856.5 117h0"></path><path d="M40 47h20"></path><g><path d="M60 47h0"></path><path d="M60 47h10"></path><g><path d="M70 47h0"></path><path d="M806.5 47h20"></path><g class="terminal "><path d="M70 47h0"></path><path d="M132.5 47h0"></path><rect x="70" y="36" width="62.5" height="22"></rect><text x="101.25" y="51">GRANT</text></g><path d="M132.5 47h10"></path><path d="M142.5 47h10"></path><g class="terminal "><path d="M152.5 47h0"></path><path d="M206.5 47h0"></path><rect x="152.5" y="36" width="54" height="22"></rect><text x="179.5" y="51">REST</text></g><path d="M206.5 47h10"></path><path d="M216.5 47h10"></path><g class="terminal "><path d="M226.5 47h0"></path><path d="M280.5 47h0"></path><rect x="226.5" y="36" width="54" height="22"></rect><text x="253.5" y="51">ROLE</text></g><path d="M280.5 47h10"></path><path d="M290.5 47h10"></path><g class="non-terminal "><path d="M300.5 47h0"></path><path d="M388.5 47h0"></path><rect x="300.5" y="36" width="88" height="22" rx="10" ry="10"></rect><text x="344.5" y="51">roleName</text></g><path d="M388.5 47h10"></path><g><path d="M398.5 47h0"></path><path d="M552 47h0"></path><path d="M398.5 47a10 10 0 0 0 10 -10v-7a10 10 0 0 1 10 -10"></path><g><path d="M418.5 20h113.5"></path></g><path d="M532 20a10 10 0 0 1 10 10v7a10 10 0 0 0 10 10"></path><path d="M398.5 47h20"></path><g class="non-terminal "><path d="M418.5 47h0"></path><path d="M532 47h0"></path><rect x="418.5" y="36" width="113.5" height="22" rx="10" ry="10"></rect><text x="475.25" y="51">roleService</text></g><path d="M532 47h20"></path></g><path d="M552 47h10"></path><g class="terminal "><path d="M562 47h0"></path><path d="M599 47h0"></path><rect x="562" y="36" width="37" height="22"></rect><text x="580.5" y="51">TO</text></g><path d="M599 47h10"></path><path d="M609 47h10"></path><g class="non-terminal "><path d="M619 47h0"></path><path d="M707 47h0"></path><rect x="619" y="36" width="88" height="22" rx="10" ry="10"></rect><text x="663" y="51">userName</text></g><path d="M707 47h10"></path><path d="M717 47h10"></path><g class="terminal "><path d="M727 47h0"></path><path d="M806.5 47h0"></path><rect x="727" y="36" width="79.5" height="22"></rect><text x="766.75" y="51">AT_SIGN</text></g></g><path d="M826.5 47a10 10 0 0 1 10 10v7a10 10 0 0 1 -10 10h-756.5a10 10 0 0 0 -10 10v23a10 10 0 0 0 10 10"></path><g><path d="M70 117h0"></path><path d="M321.5 117h505"></path><g class="non-terminal "><path d="M70 117h0"></path><path d="M183.5 117h0"></path><rect x="70" y="106" width="113.5" height="22" rx="10" ry="10"></rect><text x="126.75" y="121">authAppName</text></g><path d="M183.5 117h10"></path><g><path d="M193.5 117h0"></path><path d="M321.5 117h0"></path><path d="M193.5 117a10 10 0 0 0 10 -10v-7a10 10 0 0 1 10 -10"></path><g><path d="M213.5 90h88"></path></g><path d="M301.5 90a10 10 0 0 1 10 10v7a10 10 0 0 0 10 10"></path><path d="M193.5 117h20"></path><g class="non-terminal "><path d="M213.5 117h0"></path><path d="M301.5 117h0"></path><rect x="213.5" y="106" width="88" height="22" rx="10" ry="10"></rect><text x="257.5" y="121">comments</text></g><path d="M301.5 117h20"></path></g></g><path d="M826.5 117h10"></path><path d="M836.5 117h0"></path></g><path d="M836.5 117h20"></path></g><path d="M 856.5 117 h 20 m 0 -10 v 20"></path></g><defs><style type="text/css"><![CDATA[
svg.railroad-diagram path { stroke-width: 2; stroke: darkgray; fill: rgba(0, 0, 0, 0); }svg.railroad-diagram text { font: bold 12px Hack, "Source Code Pro", monospace; text-anchor: middle; fill: #404040; }svg.railroad-diagram text.comment { font: italic 10px Hack, "Source Code Pro", monospace; fill: #404040; }svg.railroad-diagram g.terminal rect { stroke-width: 2; stroke: #404040; fill: rgba(200, 200, 200, 0.8); }svg.railroad-diagram g.non-terminal rect { stroke-width: 2; stroke: #404040; fill: rgba(255, 255, 255, 1); }svg.railroad-diagram text.diagram-text { font-size: 12px Hack, "Source Code Pro", monospace; fill: red; }svg.railroad-diagram path.diagram-text { stroke-width: 1; stroke: red; fill: red; cursor: help; }
 ]]>
</style></defs></svg>