<?xml version="1.0" encoding="UTF-8" standalone="no"?>
<!DOCTYPE svg PUBLIC "-//W3C//DTD SVG 1.1//EN" "http://www.w3.org/Graphics/SVG/1.1/DTD/svg11.dtd">
<svg class="railroad-diagram" width="988" height="255" viewBox="0 0 988 255" id="grantRestPrivilegeStatement" xmlns="http://www.w3.org/2000/svg" xmlns:xlink="http://www.w3.org/1999/xlink"><g transform="translate(.5 .5)"><g><path d="M20 21v20m0 -10h20"></path></g><g><path d="M40 31h0"></path><path d="M948 225h0"></path><path d="M40 31h20"></path><g><path d="M60 31h0"></path><path d="M60 31h10"></path><g><path d="M70 31h0"></path><path d="M357 31h561"></path><g class="terminal "><path d="M70 31h0"></path><path d="M132.5 31h0"></path><rect x="70" y="20" width="62.5" height="22"></rect><text x="101.25" y="35">GRANT</text></g><path d="M132.5 31h10"></path><path d="M142.5 31h10"></path><g class="terminal "><path d="M152.5 31h0"></path><path d="M206.5 31h0"></path><rect x="152.5" y="20" width="54" height="22"></rect><text x="179.5" y="35">REST</text></g><path d="M206.5 31h10"></path><path d="M216.5 31h10"></path><g class="non-terminal "><path d="M226.5 31h0"></path><path d="M357 31h0"></path><rect x="226.5" y="20" width="130.5" height="22" rx="10" ry="10"></rect><text x="291.75" y="35">privilegeList</text></g></g><path d="M918 31a10 10 0 0 1 10 10v7a10 10 0 0 1 -10 10h-848a10 10 0 0 0 -10 10v39a10 10 0 0 0 10 10"></path><g><path d="M70 117h0"></path><path d="M898 117h20"></path><g><path d="M70 117h0"></path><path d="M851 117h0"></path><path d="M70 117a10 10 0 0 0 10 -10v-23a10 10 0 0 1 10 -10"></path><g><path d="M90 74h741"></path></g><path d="M831 74a10 10 0 0 1 10 10v23a10 10 0 0 0 10 10"></path><path d="M70 117h20"></path><g><path d="M90 117h0"></path><path d="M831 117h0"></path><path d="M90 117h20"></path><g><path d="M110 117h0"></path><g><path d="M110 117h0"></path><path d="M519.5 117h20"></path><g><path d="M110 117h0"></path><path d="M519.5 117h0"></path><path d="M110 117h20"></path><g><path d="M130 117h0"></path><g><path d="M130 117h0"></path><path d="M479.5 117h20"></path><g class="terminal "><path d="M130 117h0"></path><path d="M167 117h0"></path><rect x="130" y="106" width="37" height="22"></rect><text x="148.5" y="121">ON</text></g><path d="M167 117h10"></path><g><path d="M177 117h0"></path><path d="M296.5 117h0"></path><path d="M177 117a10 10 0 0 0 10 -10v-7a10 10 0 0 1 10 -10"></path><g><path d="M197 90h79.5"></path></g><path d="M276.5 90a10 10 0 0 1 10 10v7a10 10 0 0 0 10 10"></path><path d="M177 117h20"></path><g class="terminal "><path d="M197 117h0"></path><path d="M276.5 117h0"></path><rect x="197" y="106" width="79.5" height="22"></rect><text x="236.75" y="121">SERVICE</text></g><path d="M276.5 117h20"></path></g><path d="M296.5 117h10"></path><g class="non-terminal "><path d="M306.5 117h0"></path><path d="M479.5 117h0"></path><rect x="306.5" y="106" width="173" height="22" rx="10" ry="10"></rect><text x="393" y="121">serviceRequestPath</text></g></g><path d="M499.5 117h0"></path></g><path d="M499.5 117h20"></path></g></g><path d="M539.5 117h271.5"></path></g><path d="M811 117h20"></path><path d="M90 117a10 10 0 0 1 10 10v34a10 10 0 0 0 10 10"></path><g><path d="M110 171h0"></path><g><path d="M110 171h0"></path><path d="M791 171h20"></path><g><path d="M110 171h0"></path><path d="M791 171h0"></path><path d="M110 171h20"></path><g><path d="M130 171h0"></path><g><path d="M130 171h0"></path><path d="M751 171h20"></path><g class="terminal "><path d="M130 171h0"></path><path d="M167 171h0"></path><rect x="130" y="160" width="37" height="22"></rect><text x="148.5" y="175">ON</text></g><path d="M167 171h10"></path><path d="M177 171h10"></path><g class="non-terminal "><path d="M187 171h0"></path><path d="M385.5 171h0"></path><rect x="187" y="160" width="198.5" height="22" rx="10" ry="10"></rect><text x="286.25" y="175">serviceSchemaSelector</text></g><path d="M385.5 171h10"></path><g><path d="M395.5 171h0"></path><path d="M751 171h0"></path><path d="M395.5 171a10 10 0 0 0 10 -10v-7a10 10 0 0 1 10 -10"></path><g><path d="M415.5 144h315.5"></path></g><path d="M731 144a10 10 0 0 1 10 10v7a10 10 0 0 0 10 10"></path><path d="M395.5 171h20"></path><g><path d="M415.5 171h0"></path><path d="M731 171h0"></path><path d="M415.5 171h20"></path><g><path d="M435.5 171h0"></path><g><path d="M435.5 171h0"></path><path d="M691 171h20"></path><g class="terminal "><path d="M435.5 171h0"></path><path d="M506.5 171h0"></path><rect x="435.5" y="160" width="71" height="22"></rect><text x="471" y="175">OBJECT</text></g><path d="M506.5 171h10"></path><path d="M516.5 171h10"></path><g class="non-terminal "><path d="M526.5 171h0"></path><path d="M691 171h0"></path><rect x="526.5" y="160" width="164.5" height="22" rx="10" ry="10"></rect><text x="608.75" y="175">objectRequestPath</text></g></g><path d="M711 171h0"></path></g><path d="M711 171h20"></path></g><path d="M731 171h20"></path></g></g><path d="M771 171h0"></path></g><path d="M771 171h20"></path></g></g><path d="M811 171h0"></path></g><path d="M811 171a10 10 0 0 0 10 -10v-34a10 10 0 0 1 10 -10"></path></g><path d="M831 117h20"></path></g><path d="M851 117h10"></path><g class="terminal "><path d="M861 117h0"></path><path d="M898 117h0"></path><rect x="861" y="106" width="37" height="22"></rect><text x="879.5" y="121">TO</text></g></g><path d="M918 117a10 10 0 0 1 10 10v61a10 10 0 0 1 -10 10h-848a10 10 0 0 0 -10 10v7a10 10 0 0 0 10 10"></path><g><path d="M70 225h0"></path><path d="M158 225h760"></path><g class="non-terminal "><path d="M70 225h0"></path><path d="M158 225h0"></path><rect x="70" y="214" width="88" height="22" rx="10" ry="10"></rect><text x="114" y="229">roleName</text></g></g><path d="M918 225h10"></path><path d="M928 225h0"></path></g><path d="M928 225h20"></path></g><path d="M 948 225 h 20 m 0 -10 v 20"></path></g><defs><style type="text/css"><![CDATA[
svg.railroad-diagram path { stroke-width: 2; stroke: darkgray; fill: rgba(0, 0, 0, 0); }svg.railroad-diagram text { font: bold 12px Hack, "Source Code Pro", monospace; text-anchor: middle; fill: #404040; }svg.railroad-diagram text.comment { font: italic 10px Hack, "Source Code Pro", monospace; fill: #404040; }svg.railroad-diagram g.terminal rect { stroke-width: 2; stroke: #404040; fill: rgba(200, 200, 200, 0.8); }svg.railroad-diagram g.non-terminal rect { stroke-width: 2; stroke: #404040; fill: rgba(255, 255, 255, 1); }svg.railroad-diagram text.diagram-text { font-size: 12px Hack, "Source Code Pro", monospace; fill: red; }svg.railroad-diagram path.diagram-text { stroke-width: 1; stroke: red; fill: red; cursor: help; }
 ]]>
</style></defs></svg>