<?xml version="1.0" encoding="UTF-8" standalone="no"?>
<!DOCTYPE svg PUBLIC "-//W3C//DTD SVG 1.1//EN" "http://www.w3.org/Graphics/SVG/1.1/DTD/svg11.dtd">
<svg class="railroad-diagram" width="808" height="543" viewBox="0 0 808 543" id="graphQlPair" xmlns="http://www.w3.org/2000/svg" xmlns:xlink="http://www.w3.org/1999/xlink"><g transform="translate(.5 .5)"><g><path d="M20 21v20m0 -10h20"></path></g><g><path d="M40 31h0"></path><path d="M768 513h0"></path><path d="M40 31h20"></path><g><path d="M60 31h0"></path><path d="M60 31h10"></path><g><path d="M70 31h0"></path><path d="M484.5 31h253.5"></path><g class="non-terminal "><path d="M70 31h0"></path><path d="M200.5 31h0"></path><rect x="70" y="20" width="130.5" height="22" rx="10" ry="10"></rect><text x="135.25" y="35">graphKeyValue</text></g><path d="M200.5 31h10"></path><path d="M210.5 31h10"></path><g class="terminal "><path d="M220.5 31h0"></path><path d="M283 31h0"></path><rect x="220.5" y="20" width="62.5" height="22"></rect><text x="251.75" y="35">COLON</text></g><path d="M283 31h10"></path><path d="M293 31h10"></path><g class="non-terminal "><path d="M303 31h0"></path><path d="M484.5 31h0"></path><rect x="303" y="20" width="181.5" height="22" rx="10" ry="10"></rect><text x="393.75" y="35">qualifiedIdentifier</text></g></g><path d="M738 31a10 10 0 0 1 10 10v7a10 10 0 0 1 -10 10h-668a10 10 0 0 0 -10 10v23a10 10 0 0 0 10 10"></path><g><path d="M70 101h0"></path><path d="M718 101h20"></path><g><path d="M70 101h0"></path><path d="M718 101h0"></path><path d="M70 101a10 10 0 0 0 10 -10v-7a10 10 0 0 1 10 -10"></path><g><path d="M90 74h608"></path></g><path d="M698 74a10 10 0 0 1 10 10v7a10 10 0 0 0 10 10"></path><path d="M70 101h20"></path><g><path d="M90 101h0"></path><path d="M698 101h0"></path><path d="M90 101h20"></path><g><path d="M110 101h0"></path><g><path d="M110 101h0"></path><path d="M172.5 101h20"></path><g class="terminal "><path d="M110 101h0"></path><path d="M172.5 101h0"></path><rect x="110" y="90" width="62.5" height="22"></rect><text x="141.25" y="105">AT_IN</text></g></g><path d="M192.5 101h485.5"></path></g><path d="M678 101h20"></path><path d="M90 101a10 10 0 0 1 10 10v18a10 10 0 0 0 10 10"></path><g><path d="M110 139h0"></path><g><path d="M110 139h0"></path><path d="M181 139h20"></path><g class="terminal "><path d="M110 139h0"></path><path d="M181 139h0"></path><rect x="110" y="128" width="71" height="22"></rect><text x="145.5" y="143">AT_OUT</text></g></g><path d="M201 139h477"></path></g><path d="M678 139a10 10 0 0 0 10 -10v-18a10 10 0 0 1 10 -10"></path><path d="M90 101a10 10 0 0 1 10 10v56a10 10 0 0 0 10 10"></path><g><path d="M110 177h0"></path><g><path d="M110 177h0"></path><path d="M198 177h20"></path><g class="terminal "><path d="M110 177h0"></path><path d="M198 177h0"></path><rect x="110" y="166" width="88" height="22"></rect><text x="154" y="181">AT_INOUT</text></g></g><path d="M218 177h460"></path></g><path d="M678 177a10 10 0 0 0 10 -10v-56a10 10 0 0 1 10 -10"></path><path d="M90 101a10 10 0 0 1 10 10v94a10 10 0 0 0 10 10"></path><g><path d="M110 215h0"></path><g><path d="M110 215h0"></path><path d="M215 215h20"></path><g class="terminal "><path d="M110 215h0"></path><path d="M215 215h0"></path><rect x="110" y="204" width="105" height="22"></rect><text x="162.5" y="219">AT_NOCHECK</text></g></g><path d="M235 215h443"></path></g><path d="M678 215a10 10 0 0 0 10 -10v-94a10 10 0 0 1 10 -10"></path><path d="M90 101a10 10 0 0 1 10 10v132a10 10 0 0 0 10 10"></path><g><path d="M110 253h0"></path><g><path d="M110 253h0"></path><path d="M223.5 253h20"></path><g class="terminal "><path d="M110 253h0"></path><path d="M223.5 253h0"></path><rect x="110" y="242" width="113.5" height="22"></rect><text x="166.75" y="257">AT_SORTABLE</text></g></g><path d="M243.5 253h434.5"></path></g><path d="M678 253a10 10 0 0 0 10 -10v-132a10 10 0 0 1 10 -10"></path><path d="M90 101a10 10 0 0 1 10 10v170a10 10 0 0 0 10 10"></path><g><path d="M110 291h0"></path><g><path d="M110 291h0"></path><path d="M249 291h20"></path><g class="terminal "><path d="M110 291h0"></path><path d="M249 291h0"></path><rect x="110" y="280" width="139" height="22"></rect><text x="179.5" y="295">AT_NOFILTERING</text></g></g><path d="M269 291h409"></path></g><path d="M678 291a10 10 0 0 0 10 -10v-170a10 10 0 0 1 10 -10"></path><path d="M90 101a10 10 0 0 1 10 10v208a10 10 0 0 0 10 10"></path><g><path d="M110 329h0"></path><g><path d="M110 329h0"></path><path d="M257.5 329h20"></path><g class="terminal "><path d="M110 329h0"></path><path d="M257.5 329h0"></path><rect x="110" y="318" width="147.5" height="22"></rect><text x="183.75" y="333">AT_ROWOWNERSHIP</text></g></g><path d="M277.5 329h400.5"></path></g><path d="M678 329a10 10 0 0 0 10 -10v-208a10 10 0 0 1 10 -10"></path><path d="M90 101a10 10 0 0 1 10 10v246a10 10 0 0 0 10 10"></path><g><path d="M110 367h0"></path><g><path d="M110 367h0"></path><path d="M206.5 367h20"></path><g class="terminal "><path d="M110 367h0"></path><path d="M206.5 367h0"></path><rect x="110" y="356" width="96.5" height="22"></rect><text x="158.25" y="371">AT_UNNEST</text></g></g><path d="M226.5 367h451.5"></path></g><path d="M678 367a10 10 0 0 0 10 -10v-246a10 10 0 0 1 10 -10"></path><path d="M90 101a10 10 0 0 1 10 10v284a10 10 0 0 0 10 10"></path><g><path d="M110 405h0"></path><g><path d="M110 405h0"></path><path d="M658 405h20"></path><g class="terminal "><path d="M110 405h0"></path><path d="M223.5 405h0"></path><rect x="110" y="394" width="113.5" height="22"></rect><text x="166.75" y="409">AT_DATATYPE</text></g><path d="M223.5 405h10"></path><path d="M233.5 405h10"></path><g class="terminal "><path d="M243.5 405h0"></path><path d="M331.5 405h0"></path><rect x="243.5" y="394" width="88" height="22"></rect><text x="287.5" y="409">OPEN_PAR</text></g><path d="M331.5 405h10"></path><path d="M341.5 405h10"></path><g class="non-terminal "><path d="M351.5 405h0"></path><path d="M541.5 405h0"></path><rect x="351.5" y="394" width="190" height="22" rx="10" ry="10"></rect><text x="446.5" y="409">graphQlDatatypeValue</text></g><path d="M541.5 405h10"></path><path d="M551.5 405h10"></path><g class="terminal "><path d="M561.5 405h0"></path><path d="M658 405h0"></path><rect x="561.5" y="394" width="96.5" height="22"></rect><text x="609.75" y="409">CLOSE_PAR</text></g></g><path d="M678 405h0"></path></g><path d="M678 405a10 10 0 0 0 10 -10v-284a10 10 0 0 1 10 -10"></path><path d="M90 101a10 10 0 0 1 10 10v322a10 10 0 0 0 10 10"></path><g><path d="M110 443h0"></path><g><path d="M110 443h0"></path><path d="M283 443h20"></path><g class="non-terminal "><path d="M110 443h0"></path><path d="M283 443h0"></path><rect x="110" y="432" width="173" height="22" rx="10" ry="10"></rect><text x="196.5" y="447">graphQlCrudOptions</text></g></g><path d="M303 443h375"></path></g><path d="M678 443a10 10 0 0 0 10 -10v-322a10 10 0 0 1 10 -10"></path></g><path d="M698 101h20"></path></g></g><path d="M738 101a10 10 0 0 1 10 10v349a10 10 0 0 1 -10 10h-668a10 10 0 0 0 -10 10v23a10 10 0 0 0 10 10"></path><g><path d="M70 513h0"></path><path d="M215 513h523"></path><g><path d="M70 513h0"></path><path d="M215 513h0"></path><path d="M70 513a10 10 0 0 0 10 -10v-7a10 10 0 0 1 10 -10"></path><g><path d="M90 486h105"></path></g><path d="M195 486a10 10 0 0 1 10 10v7a10 10 0 0 0 10 10"></path><path d="M70 513h20"></path><g class="non-terminal "><path d="M90 513h0"></path><path d="M195 513h0"></path><rect x="90" y="502" width="105" height="22" rx="10" ry="10"></rect><text x="142.5" y="517">graphQlObj</text></g><path d="M195 513h20"></path></g></g><path d="M738 513h10"></path><path d="M748 513h0"></path></g><path d="M748 513h20"></path></g><path d="M 768 513 h 20 m 0 -10 v 20"></path></g><defs><style type="text/css"><![CDATA[
svg.railroad-diagram path { stroke-width: 2; stroke: darkgray; fill: rgba(0, 0, 0, 0); }svg.railroad-diagram text { font: bold 12px Hack, "Source Code Pro", monospace; text-anchor: middle; fill: #404040; }svg.railroad-diagram text.comment { font: italic 10px Hack, "Source Code Pro", monospace; fill: #404040; }svg.railroad-diagram g.terminal rect { stroke-width: 2; stroke: #404040; fill: rgba(200, 200, 200, 0.8); }svg.railroad-diagram g.non-terminal rect { stroke-width: 2; stroke: #404040; fill: rgba(255, 255, 255, 1); }svg.railroad-diagram text.diagram-text { font-size: 12px Hack, "Source Code Pro", monospace; fill: red; }svg.railroad-diagram path.diagram-text { stroke-width: 1; stroke: red; fill: red; cursor: help; }
 ]]>
</style></defs></svg>