<?xml version="1.0" encoding="UTF-8" standalone="no"?>
<!DOCTYPE svg PUBLIC "-//W3C//DTD SVG 1.1//EN" "http://www.w3.org/Graphics/SVG/1.1/DTD/svg11.dtd">
<svg class="railroad-diagram" width="253.5" height="2190" viewBox="0 0 253.5 2190" id="graphQlAllowedKeyword" xmlns="http://www.w3.org/2000/svg" xmlns:xlink="http://www.w3.org/1999/xlink"><g transform="translate(.5 .5)"><g><path d="M20 21v20m0 -10h20"></path></g><g><path d="M40 31h0"></path><path d="M213.5 31h0"></path><path d="M40 31h20"></path><g><path d="M60 31h21.25"></path><g><path d="M81.25 31h10"></path><path d="M162.25 31h10"></path><g class="terminal "><path d="M91.25 31h0"></path><path d="M162.25 31h0"></path><rect x="91.25" y="20" width="71" height="22"></rect><text x="126.75" y="35">SCHEMA</text></g></g><path d="M172.25 31h21.25"></path></g><path d="M193.5 31h20"></path><path d="M40 31a10 10 0 0 1 10 10v18a10 10 0 0 0 10 10"></path><g><path d="M60 69h17"></path><g><path d="M77 69h10"></path><path d="M166.5 69h10"></path><g class="terminal "><path d="M87 69h0"></path><path d="M166.5 69h0"></path><rect x="87" y="58" width="79.5" height="22"></rect><text x="126.75" y="73">SCHEMAS</text></g></g><path d="M176.5 69h17"></path></g><path d="M193.5 69a10 10 0 0 0 10 -10v-18a10 10 0 0 1 10 -10"></path><path d="M40 31a10 10 0 0 1 10 10v56a10 10 0 0 0 10 10"></path><g><path d="M60 107h29.75"></path><g><path d="M89.75 107h10"></path><path d="M153.75 107h10"></path><g class="terminal "><path d="M99.75 107h0"></path><path d="M153.75 107h0"></path><rect x="99.75" y="96" width="54" height="22"></rect><text x="126.75" y="111">JSON</text></g></g><path d="M163.75 107h29.75"></path></g><path d="M193.5 107a10 10 0 0 0 10 -10v-56a10 10 0 0 1 10 -10"></path><path d="M40 31a10 10 0 0 1 10 10v94a10 10 0 0 0 10 10"></path><g><path d="M60 145h29.75"></path><g><path d="M89.75 145h10"></path><path d="M153.75 145h10"></path><g class="terminal "><path d="M99.75 145h0"></path><path d="M153.75 145h0"></path><rect x="99.75" y="134" width="54" height="22"></rect><text x="126.75" y="149">VIEW</text></g></g><path d="M163.75 145h29.75"></path></g><path d="M193.5 145a10 10 0 0 0 10 -10v-94a10 10 0 0 1 10 -10"></path><path d="M40 31a10 10 0 0 1 10 10v132a10 10 0 0 0 10 10"></path><g><path d="M60 183h8.5"></path><g><path d="M68.5 183h10"></path><path d="M175 183h10"></path><g class="terminal "><path d="M78.5 183h0"></path><path d="M175 183h0"></path><rect x="78.5" y="172" width="96.5" height="22"></rect><text x="126.75" y="187">PROCEDURE</text></g></g><path d="M185 183h8.5"></path></g><path d="M193.5 183a10 10 0 0 0 10 -10v-132a10 10 0 0 1 10 -10"></path><path d="M40 31a10 10 0 0 1 10 10v170a10 10 0 0 0 10 10"></path><g><path d="M60 221h12.75"></path><g><path d="M72.75 221h10"></path><path d="M170.75 221h10"></path><g class="terminal "><path d="M82.75 221h0"></path><path d="M170.75 221h0"></path><rect x="82.75" y="210" width="88" height="22"></rect><text x="126.75" y="225">FUNCTION</text></g></g><path d="M180.75 221h12.75"></path></g><path d="M193.5 221a10 10 0 0 0 10 -10v-170a10 10 0 0 1 10 -10"></path><path d="M40 31a10 10 0 0 1 10 10v208a10 10 0 0 0 10 10"></path><g><path d="M60 259h21.25"></path><g><path d="M81.25 259h10"></path><path d="M162.25 259h10"></path><g class="terminal "><path d="M91.25 259h0"></path><path d="M162.25 259h0"></path><rect x="91.25" y="248" width="71" height="22"></rect><text x="126.75" y="263">FILTER</text></g></g><path d="M172.25 259h21.25"></path></g><path d="M193.5 259a10 10 0 0 0 10 -10v-208a10 10 0 0 1 10 -10"></path><path d="M40 31a10 10 0 0 1 10 10v246a10 10 0 0 0 10 10"></path><g><path d="M60 297h29.75"></path><g><path d="M89.75 297h10"></path><path d="M153.75 297h10"></path><g class="terminal "><path d="M99.75 297h0"></path><path d="M153.75 297h0"></path><rect x="99.75" y="286" width="54" height="22"></rect><text x="126.75" y="301">PATH</text></g></g><path d="M163.75 297h29.75"></path></g><path d="M193.5 297a10 10 0 0 0 10 -10v-246a10 10 0 0 1 10 -10"></path><path d="M40 31a10 10 0 0 1 10 10v284a10 10 0 0 0 10 10"></path><g><path d="M60 335h29.75"></path><g><path d="M89.75 335h10"></path><path d="M153.75 335h10"></path><g class="terminal "><path d="M99.75 335h0"></path><path d="M153.75 335h0"></path><rect x="99.75" y="324" width="54" height="22"></rect><text x="126.75" y="339">USER</text></g></g><path d="M163.75 335h29.75"></path></g><path d="M193.5 335a10 10 0 0 0 10 -10v-284a10 10 0 0 1 10 -10"></path><path d="M40 31a10 10 0 0 1 10 10v322a10 10 0 0 0 10 10"></path><g><path d="M60 373h17"></path><g><path d="M77 373h10"></path><path d="M166.5 373h10"></path><g class="terminal "><path d="M87 373h0"></path><path d="M166.5 373h0"></path><rect x="87" y="362" width="79.5" height="22"></rect><text x="126.75" y="377">OPTIONS</text></g></g><path d="M176.5 373h17"></path></g><path d="M193.5 373a10 10 0 0 0 10 -10v-322a10 10 0 0 1 10 -10"></path><path d="M40 31a10 10 0 0 1 10 10v360a10 10 0 0 0 10 10"></path><g><path d="M60 411h29.75"></path><g><path d="M89.75 411h10"></path><path d="M153.75 411h10"></path><g class="terminal "><path d="M99.75 411h0"></path><path d="M153.75 411h0"></path><rect x="99.75" y="400" width="54" height="22"></rect><text x="126.75" y="415">PAGE</text></g></g><path d="M163.75 411h29.75"></path></g><path d="M193.5 411a10 10 0 0 0 10 -10v-360a10 10 0 0 1 10 -10"></path><path d="M40 31a10 10 0 0 1 10 10v398a10 10 0 0 0 10 10"></path><g><path d="M60 449h29.75"></path><g><path d="M89.75 449h10"></path><path d="M153.75 449h10"></path><g class="terminal "><path d="M99.75 449h0"></path><path d="M153.75 449h0"></path><rect x="99.75" y="438" width="54" height="22"></rect><text x="126.75" y="453">HOST</text></g></g><path d="M163.75 449h29.75"></path></g><path d="M193.5 449a10 10 0 0 0 10 -10v-398a10 10 0 0 1 10 -10"></path><path d="M40 31a10 10 0 0 1 10 10v436a10 10 0 0 0 10 10"></path><g><path d="M60 487h29.75"></path><g><path d="M89.75 487h10"></path><path d="M153.75 487h10"></path><g class="terminal "><path d="M99.75 487h0"></path><path d="M153.75 487h0"></path><rect x="99.75" y="476" width="54" height="22"></rect><text x="126.75" y="491">TYPE</text></g></g><path d="M163.75 487h29.75"></path></g><path d="M193.5 487a10 10 0 0 0 10 -10v-436a10 10 0 0 1 10 -10"></path><path d="M40 31a10 10 0 0 1 10 10v474a10 10 0 0 0 10 10"></path><g><path d="M60 525h21.25"></path><g><path d="M81.25 525h10"></path><path d="M162.25 525h10"></path><g class="terminal "><path d="M91.25 525h0"></path><path d="M162.25 525h0"></path><rect x="91.25" y="514" width="71" height="22"></rect><text x="126.75" y="529">FORMAT</text></g></g><path d="M172.25 525h21.25"></path></g><path d="M193.5 525a10 10 0 0 0 10 -10v-474a10 10 0 0 1 10 -10"></path><path d="M40 31a10 10 0 0 1 10 10v512a10 10 0 0 0 10 10"></path><g><path d="M60 563h21.25"></path><g><path d="M81.25 563h10"></path><path d="M162.25 563h10"></path><g class="terminal "><path d="M91.25 563h0"></path><path d="M162.25 563h0"></path><rect x="91.25" y="552" width="71" height="22"></rect><text x="126.75" y="567">UPDATE</text></g></g><path d="M172.25 563h21.25"></path></g><path d="M193.5 563a10 10 0 0 0 10 -10v-512a10 10 0 0 1 10 -10"></path><path d="M40 31a10 10 0 0 1 10 10v550a10 10 0 0 0 10 10"></path><g><path d="M60 601h29.75"></path><g><path d="M89.75 601h10"></path><path d="M153.75 601h10"></path><g class="terminal "><path d="M99.75 601h0"></path><path d="M153.75 601h0"></path><rect x="99.75" y="590" width="54" height="22"></rect><text x="126.75" y="605">ROLE</text></g></g><path d="M163.75 601h29.75"></path></g><path d="M193.5 601a10 10 0 0 0 10 -10v-550a10 10 0 0 1 10 -10"></path><path d="M40 31a10 10 0 0 1 10 10v588a10 10 0 0 0 10 10"></path><g><path d="M60 639h8.5"></path><g><path d="M68.5 639h10"></path><path d="M175 639h10"></path><g class="terminal "><path d="M78.5 639h0"></path><path d="M175 639h0"></path><rect x="78.5" y="628" width="96.5" height="22"></rect><text x="126.75" y="643">CONFIGURE</text></g></g><path d="M185 639h8.5"></path></g><path d="M193.5 639a10 10 0 0 0 10 -10v-588a10 10 0 0 1 10 -10"></path><path d="M40 31a10 10 0 0 1 10 10v626a10 10 0 0 0 10 10"></path><g><path d="M60 677h29.75"></path><g><path d="M89.75 677h10"></path><path d="M153.75 677h10"></path><g class="terminal "><path d="M99.75 677h0"></path><path d="M153.75 677h0"></path><rect x="99.75" y="666" width="54" height="22"></rect><text x="126.75" y="681">REST</text></g></g><path d="M163.75 677h29.75"></path></g><path d="M193.5 677a10 10 0 0 0 10 -10v-626a10 10 0 0 1 10 -10"></path><path d="M40 31a10 10 0 0 1 10 10v664a10 10 0 0 0 10 10"></path><g><path d="M60 715h12.75"></path><g><path d="M72.75 715h10"></path><path d="M170.75 715h10"></path><g class="terminal "><path d="M82.75 715h0"></path><path d="M170.75 715h0"></path><rect x="82.75" y="704" width="88" height="22"></rect><text x="126.75" y="719">METADATA</text></g></g><path d="M180.75 715h12.75"></path></g><path d="M193.5 715a10 10 0 0 0 10 -10v-664a10 10 0 0 1 10 -10"></path><path d="M40 31a10 10 0 0 1 10 10v702a10 10 0 0 0 10 10"></path><g><path d="M60 753h12.75"></path><g><path d="M72.75 753h10"></path><path d="M170.75 753h10"></path><g class="terminal "><path d="M82.75 753h0"></path><path d="M170.75 753h0"></path><rect x="82.75" y="742" width="88" height="22"></rect><text x="126.75" y="757">SERVICES</text></g></g><path d="M180.75 753h12.75"></path></g><path d="M193.5 753a10 10 0 0 0 10 -10v-702a10 10 0 0 1 10 -10"></path><path d="M40 31a10 10 0 0 1 10 10v740a10 10 0 0 0 10 10"></path><g><path d="M60 791h17"></path><g><path d="M77 791h10"></path><path d="M166.5 791h10"></path><g class="terminal "><path d="M87 791h0"></path><path d="M166.5 791h0"></path><rect x="87" y="780" width="79.5" height="22"></rect><text x="126.75" y="795">SERVICE</text></g></g><path d="M176.5 791h17"></path></g><path d="M193.5 791a10 10 0 0 0 10 -10v-740a10 10 0 0 1 10 -10"></path><path d="M40 31a10 10 0 0 1 10 10v778a10 10 0 0 0 10 10"></path><g><path d="M60 829h29.75"></path><g><path d="M89.75 829h10"></path><path d="M153.75 829h10"></path><g class="terminal "><path d="M99.75 829h0"></path><path d="M153.75 829h0"></path><rect x="99.75" y="818" width="54" height="22"></rect><text x="126.75" y="833">DATA</text></g></g><path d="M163.75 829h29.75"></path></g><path d="M193.5 829a10 10 0 0 0 10 -10v-778a10 10 0 0 1 10 -10"></path><path d="M40 31a10 10 0 0 1 10 10v816a10 10 0 0 0 10 10"></path><g><path d="M60 867h17"></path><g><path d="M77 867h10"></path><path d="M166.5 867h10"></path><g class="terminal "><path d="M87 867h0"></path><path d="M166.5 867h0"></path><rect x="87" y="856" width="79.5" height="22"></rect><text x="126.75" y="871">MAPPING</text></g></g><path d="M176.5 867h17"></path></g><path d="M193.5 867a10 10 0 0 0 10 -10v-816a10 10 0 0 1 10 -10"></path><path d="M40 31a10 10 0 0 1 10 10v854a10 10 0 0 0 10 10"></path><g><path d="M60 905h25.5"></path><g><path d="M85.5 905h10"></path><path d="M158 905h10"></path><g class="terminal "><path d="M95.5 905h0"></path><path d="M158 905h0"></path><rect x="95.5" y="894" width="62.5" height="22"></rect><text x="126.75" y="909">VIEWS</text></g></g><path d="M168 905h25.5"></path></g><path d="M193.5 905a10 10 0 0 0 10 -10v-854a10 10 0 0 1 10 -10"></path><path d="M40 31a10 10 0 0 1 10 10v892a10 10 0 0 0 10 10"></path><g><path d="M60 943h4.25"></path><g><path d="M64.25 943h10"></path><path d="M179.25 943h10"></path><g class="terminal "><path d="M74.25 943h0"></path><path d="M179.25 943h0"></path><rect x="74.25" y="932" width="105" height="22"></rect><text x="126.75" y="947">PROCEDURES</text></g></g><path d="M189.25 943h4.25"></path></g><path d="M193.5 943a10 10 0 0 0 10 -10v-892a10 10 0 0 1 10 -10"></path><path d="M40 31a10 10 0 0 1 10 10v930a10 10 0 0 0 10 10"></path><g><path d="M60 981h4.25"></path><g><path d="M64.25 981h10"></path><path d="M179.25 981h10"></path><g class="terminal "><path d="M74.25 981h0"></path><path d="M179.25 981h0"></path><rect x="74.25" y="970" width="105" height="22"></rect><text x="126.75" y="985">PARAMETERS</text></g></g><path d="M189.25 981h4.25"></path></g><path d="M193.5 981a10 10 0 0 0 10 -10v-930a10 10 0 0 1 10 -10"></path><path d="M40 31a10 10 0 0 1 10 10v968a10 10 0 0 0 10 10"></path><g><path d="M60 1019h8.5"></path><g><path d="M68.5 1019h10"></path><path d="M175 1019h10"></path><g class="terminal "><path d="M78.5 1019h0"></path><path d="M175 1019h0"></path><rect x="78.5" y="1008" width="96.5" height="22"></rect><text x="126.75" y="1023">FUNCTIONS</text></g></g><path d="M185 1019h8.5"></path></g><path d="M193.5 1019a10 10 0 0 0 10 -10v-968a10 10 0 0 1 10 -10"></path><path d="M40 31a10 10 0 0 1 10 10v1006a10 10 0 0 0 10 10"></path><g><path d="M60 1057h21.25"></path><g><path d="M81.25 1057h10"></path><path d="M162.25 1057h10"></path><g class="terminal "><path d="M91.25 1057h0"></path><path d="M162.25 1057h0"></path><rect x="91.25" y="1046" width="71" height="22"></rect><text x="126.75" y="1061">RESULT</text></g></g><path d="M172.25 1057h21.25"></path></g><path d="M193.5 1057a10 10 0 0 0 10 -10v-1006a10 10 0 0 1 10 -10"></path><path d="M40 31a10 10 0 0 1 10 10v1044a10 10 0 0 0 10 10"></path><g><path d="M60 1095h17"></path><g><path d="M77 1095h10"></path><path d="M166.5 1095h10"></path><g class="terminal "><path d="M87 1095h0"></path><path d="M166.5 1095h0"></path><rect x="87" y="1084" width="79.5" height="22"></rect><text x="126.75" y="1099">ENABLED</text></g></g><path d="M176.5 1095h17"></path></g><path d="M193.5 1095a10 10 0 0 0 10 -10v-1044a10 10 0 0 1 10 -10"></path><path d="M40 31a10 10 0 0 1 10 10v1082a10 10 0 0 0 10 10"></path><g><path d="M60 1133h12.75"></path><g><path d="M72.75 1133h10"></path><path d="M170.75 1133h10"></path><g class="terminal "><path d="M82.75 1133h0"></path><path d="M170.75 1133h0"></path><rect x="82.75" y="1122" width="88" height="22"></rect><text x="126.75" y="1137">DISABLED</text></g></g><path d="M180.75 1133h12.75"></path></g><path d="M193.5 1133a10 10 0 0 0 10 -10v-1082a10 10 0 0 1 10 -10"></path><path d="M40 31a10 10 0 0 1 10 10v1120a10 10 0 0 0 10 10"></path><g><path d="M60 1171h12.75"></path><g><path d="M72.75 1171h10"></path><path d="M170.75 1171h10"></path><g class="terminal "><path d="M82.75 1171h0"></path><path d="M170.75 1171h0"></path><rect x="82.75" y="1160" width="88" height="22"></rect><text x="126.75" y="1175">PROTOCOL</text></g></g><path d="M180.75 1171h12.75"></path></g><path d="M193.5 1171a10 10 0 0 0 10 -10v-1120a10 10 0 0 1 10 -10"></path><path d="M40 31a10 10 0 0 1 10 10v1158a10 10 0 0 0 10 10"></path><g><path d="M60 1209h29.75"></path><g><path d="M89.75 1209h10"></path><path d="M153.75 1209h10"></path><g class="terminal "><path d="M99.75 1209h0"></path><path d="M153.75 1209h0"></path><rect x="99.75" y="1198" width="54" height="22"></rect><text x="126.75" y="1213">HTTP</text></g></g><path d="M163.75 1209h29.75"></path></g><path d="M193.5 1209a10 10 0 0 0 10 -10v-1158a10 10 0 0 1 10 -10"></path><path d="M40 31a10 10 0 0 1 10 10v1196a10 10 0 0 0 10 10"></path><g><path d="M60 1247h25.5"></path><g><path d="M85.5 1247h10"></path><path d="M158 1247h10"></path><g class="terminal "><path d="M95.5 1247h0"></path><path d="M158 1247h0"></path><rect x="95.5" y="1236" width="62.5" height="22"></rect><text x="126.75" y="1251">HTTPS</text></g></g><path d="M168 1247h25.5"></path></g><path d="M193.5 1247a10 10 0 0 0 10 -10v-1196a10 10 0 0 1 10 -10"></path><path d="M40 31a10 10 0 0 1 10 10v1234a10 10 0 0 0 10 10"></path><g><path d="M60 1285h12.75"></path><g><path d="M72.75 1285h10"></path><path d="M170.75 1285h10"></path><g class="terminal "><path d="M82.75 1285h0"></path><path d="M170.75 1285h0"></path><rect x="82.75" y="1274" width="88" height="22"></rect><text x="126.75" y="1289">COMMENTS</text></g></g><path d="M180.75 1285h12.75"></path></g><path d="M193.5 1285a10 10 0 0 0 10 -10v-1234a10 10 0 0 1 10 -10"></path><path d="M40 31a10 10 0 0 1 10 10v1272a10 10 0 0 0 10 10"></path><g><path d="M60 1323h17"></path><g><path d="M77 1323h10"></path><path d="M166.5 1323h10"></path><g class="terminal "><path d="M87 1323h0"></path><path d="M166.5 1323h0"></path><rect x="87" y="1312" width="79.5" height="22"></rect><text x="126.75" y="1327">REQUEST</text></g></g><path d="M176.5 1323h17"></path></g><path d="M193.5 1323a10 10 0 0 0 10 -10v-1272a10 10 0 0 1 10 -10"></path><path d="M40 31a10 10 0 0 1 10 10v1310a10 10 0 0 0 10 10"></path><g><path d="M60 1361h0"></path><g><path d="M60 1361h10"></path><path d="M183.5 1361h10"></path><g class="terminal "><path d="M70 1361h0"></path><path d="M183.5 1361h0"></path><rect x="70" y="1350" width="113.5" height="22"></rect><text x="126.75" y="1365">REDIRECTION</text></g></g><path d="M193.5 1361h0"></path></g><path d="M193.5 1361a10 10 0 0 0 10 -10v-1310a10 10 0 0 1 10 -10"></path><path d="M40 31a10 10 0 0 1 10 10v1348a10 10 0 0 0 10 10"></path><g><path d="M60 1399h4.25"></path><g><path d="M64.25 1399h10"></path><path d="M179.25 1399h10"></path><g class="terminal "><path d="M74.25 1399h0"></path><path d="M179.25 1399h0"></path><rect x="74.25" y="1388" width="105" height="22"></rect><text x="126.75" y="1403">MANAGEMENT</text></g></g><path d="M189.25 1399h4.25"></path></g><path d="M193.5 1399a10 10 0 0 0 10 -10v-1348a10 10 0 0 1 10 -10"></path><path d="M40 31a10 10 0 0 1 10 10v1386a10 10 0 0 0 10 10"></path><g><path d="M60 1437h12.75"></path><g><path d="M72.75 1437h10"></path><path d="M170.75 1437h10"></path><g class="terminal "><path d="M82.75 1437h0"></path><path d="M170.75 1437h0"></path><rect x="82.75" y="1426" width="88" height="22"></rect><text x="126.75" y="1441">REQUIRED</text></g></g><path d="M180.75 1437h12.75"></path></g><path d="M193.5 1437a10 10 0 0 0 10 -10v-1386a10 10 0 0 1 10 -10"></path><path d="M40 31a10 10 0 0 1 10 10v1424a10 10 0 0 0 10 10"></path><g><path d="M60 1475h25.5"></path><g><path d="M85.5 1475h10"></path><path d="M158 1475h10"></path><g class="terminal "><path d="M95.5 1475h0"></path><path d="M158 1475h0"></path><rect x="95.5" y="1464" width="62.5" height="22"></rect><text x="126.75" y="1479">ITEMS</text></g></g><path d="M168 1475h25.5"></path></g><path d="M193.5 1475a10 10 0 0 0 10 -10v-1424a10 10 0 0 1 10 -10"></path><path d="M40 31a10 10 0 0 1 10 10v1462a10 10 0 0 0 10 10"></path><g><path d="M60 1513h17"></path><g><path d="M77 1513h10"></path><path d="M166.5 1513h10"></path><g class="terminal "><path d="M87 1513h0"></path><path d="M166.5 1513h0"></path><rect x="87" y="1502" width="79.5" height="22"></rect><text x="126.75" y="1517">CONTENT</text></g></g><path d="M176.5 1513h17"></path></g><path d="M193.5 1513a10 10 0 0 0 10 -10v-1462a10 10 0 0 1 10 -10"></path><path d="M40 31a10 10 0 0 1 10 10v1500a10 10 0 0 0 10 10"></path><g><path d="M60 1551h25.5"></path><g><path d="M85.5 1551h10"></path><path d="M158 1551h10"></path><g class="terminal "><path d="M95.5 1551h0"></path><path d="M158 1551h0"></path><rect x="95.5" y="1540" width="62.5" height="22"></rect><text x="126.75" y="1555">MEDIA</text></g></g><path d="M168 1551h25.5"></path></g><path d="M193.5 1551a10 10 0 0 0 10 -10v-1500a10 10 0 0 1 10 -10"></path><path d="M40 31a10 10 0 0 1 10 10v1538a10 10 0 0 0 10 10"></path><g><path d="M60 1589h29.75"></path><g><path d="M89.75 1589h10"></path><path d="M153.75 1589h10"></path><g class="terminal "><path d="M99.75 1589h0"></path><path d="M153.75 1589h0"></path><rect x="99.75" y="1578" width="54" height="22"></rect><text x="126.75" y="1593">FEED</text></g></g><path d="M163.75 1589h29.75"></path></g><path d="M193.5 1589a10 10 0 0 0 10 -10v-1538a10 10 0 0 1 10 -10"></path><path d="M40 31a10 10 0 0 1 10 10v1576a10 10 0 0 0 10 10"></path><g><path d="M60 1627h29.75"></path><g><path d="M89.75 1627h10"></path><path d="M153.75 1627h10"></path><g class="terminal "><path d="M99.75 1627h0"></path><path d="M153.75 1627h0"></path><rect x="99.75" y="1616" width="54" height="22"></rect><text x="126.75" y="1631">ITEM</text></g></g><path d="M163.75 1627h29.75"></path></g><path d="M193.5 1627a10 10 0 0 0 10 -10v-1576a10 10 0 0 1 10 -10"></path><path d="M40 31a10 10 0 0 1 10 10v1614a10 10 0 0 0 10 10"></path><g><path d="M60 1665h29.75"></path><g><path d="M89.75 1665h10"></path><path d="M153.75 1665h10"></path><g class="terminal "><path d="M99.75 1665h0"></path><path d="M153.75 1665h0"></path><rect x="99.75" y="1654" width="54" height="22"></rect><text x="126.75" y="1669">SETS</text></g></g><path d="M163.75 1665h29.75"></path></g><path d="M193.5 1665a10 10 0 0 0 10 -10v-1614a10 10 0 0 1 10 -10"></path><path d="M40 31a10 10 0 0 1 10 10v1652a10 10 0 0 0 10 10"></path><g><path d="M60 1703h29.75"></path><g><path d="M89.75 1703h10"></path><path d="M153.75 1703h10"></path><g class="terminal "><path d="M99.75 1703h0"></path><path d="M153.75 1703h0"></path><rect x="99.75" y="1692" width="54" height="22"></rect><text x="126.75" y="1707">AUTH</text></g></g><path d="M163.75 1703h29.75"></path></g><path d="M193.5 1703a10 10 0 0 0 10 -10v-1652a10 10 0 0 1 10 -10"></path><path d="M40 31a10 10 0 0 1 10 10v1690a10 10 0 0 0 10 10"></path><g><path d="M60 1741h29.75"></path><g><path d="M89.75 1741h10"></path><path d="M153.75 1741h10"></path><g class="terminal "><path d="M99.75 1741h0"></path><path d="M153.75 1741h0"></path><rect x="99.75" y="1730" width="54" height="22"></rect><text x="126.75" y="1745">APPS</text></g></g><path d="M163.75 1741h29.75"></path></g><path d="M193.5 1741a10 10 0 0 0 10 -10v-1690a10 10 0 0 1 10 -10"></path><path d="M40 31a10 10 0 0 1 10 10v1728a10 10 0 0 0 10 10"></path><g><path d="M60 1779h34"></path><g><path d="M94 1779h10"></path><path d="M149.5 1779h10"></path><g class="terminal "><path d="M104 1779h0"></path><path d="M149.5 1779h0"></path><rect x="104" y="1768" width="45.5" height="22"></rect><text x="126.75" y="1783">APP</text></g></g><path d="M159.5 1779h34"></path></g><path d="M193.5 1779a10 10 0 0 0 10 -10v-1728a10 10 0 0 1 10 -10"></path><path d="M40 31a10 10 0 0 1 10 10v1766a10 10 0 0 0 10 10"></path><g><path d="M60 1817h21.25"></path><g><path d="M81.25 1817h10"></path><path d="M162.25 1817h10"></path><g class="terminal "><path d="M91.25 1817h0"></path><path d="M162.25 1817h0"></path><rect x="91.25" y="1806" width="71" height="22"></rect><text x="126.75" y="1821">VENDOR</text></g></g><path d="M172.25 1817h21.25"></path></g><path d="M193.5 1817a10 10 0 0 0 10 -10v-1766a10 10 0 0 1 10 -10"></path><path d="M40 31a10 10 0 0 1 10 10v1804a10 10 0 0 0 10 10"></path><g><path d="M60 1855h25.5"></path><g><path d="M85.5 1855h10"></path><path d="M158 1855h10"></path><g class="terminal "><path d="M95.5 1855h0"></path><path d="M158 1855h0"></path><rect x="95.5" y="1844" width="62.5" height="22"></rect><text x="126.75" y="1859">MYSQL</text></g></g><path d="M168 1855h25.5"></path></g><path d="M193.5 1855a10 10 0 0 0 10 -10v-1804a10 10 0 0 1 10 -10"></path><path d="M40 31a10 10 0 0 1 10 10v1842a10 10 0 0 0 10 10"></path><g><path d="M60 1893h25.5"></path><g><path d="M85.5 1893h10"></path><path d="M158 1893h10"></path><g class="terminal "><path d="M95.5 1893h0"></path><path d="M158 1893h0"></path><rect x="95.5" y="1882" width="62.5" height="22"></rect><text x="126.75" y="1897">USERS</text></g></g><path d="M168 1893h25.5"></path></g><path d="M193.5 1893a10 10 0 0 0 10 -10v-1842a10 10 0 0 1 10 -10"></path><path d="M40 31a10 10 0 0 1 10 10v1880a10 10 0 0 0 10 10"></path><g><path d="M60 1931h12.75"></path><g><path d="M72.75 1931h10"></path><path d="M170.75 1931h10"></path><g class="terminal "><path d="M82.75 1931h0"></path><path d="M170.75 1931h0"></path><rect x="82.75" y="1920" width="88" height="22"></rect><text x="126.75" y="1935">REGISTER</text></g></g><path d="M180.75 1931h12.75"></path></g><path d="M193.5 1931a10 10 0 0 0 10 -10v-1880a10 10 0 0 1 10 -10"></path><path d="M40 31a10 10 0 0 1 10 10v1918a10 10 0 0 0 10 10"></path><g><path d="M60 1969h25.5"></path><g><path d="M85.5 1969h10"></path><path d="M158 1969h10"></path><g class="terminal "><path d="M95.5 1969h0"></path><path d="M158 1969h0"></path><rect x="95.5" y="1958" width="62.5" height="22"></rect><text x="126.75" y="1973">CLASS</text></g></g><path d="M168 1969h25.5"></path></g><path d="M193.5 1969a10 10 0 0 0 10 -10v-1918a10 10 0 0 1 10 -10"></path><path d="M40 31a10 10 0 0 1 10 10v1956a10 10 0 0 0 10 10"></path><g><path d="M60 2007h38.25"></path><g><path d="M98.25 2007h10"></path><path d="M145.25 2007h10"></path><g class="terminal "><path d="M108.25 2007h0"></path><path d="M145.25 2007h0"></path><rect x="108.25" y="1996" width="37" height="22"></rect><text x="126.75" y="2011">ID</text></g></g><path d="M155.25 2007h38.25"></path></g><path d="M193.5 2007a10 10 0 0 0 10 -10v-1956a10 10 0 0 1 10 -10"></path><path d="M40 31a10 10 0 0 1 10 10v1994a10 10 0 0 0 10 10"></path><g><path d="M60 2045h29.75"></path><g><path d="M89.75 2045h10"></path><path d="M153.75 2045h10"></path><g class="terminal "><path d="M99.75 2045h0"></path><path d="M153.75 2045h0"></path><rect x="99.75" y="2034" width="54" height="22"></rect><text x="126.75" y="2049">NAME</text></g></g><path d="M163.75 2045h29.75"></path></g><path d="M193.5 2045a10 10 0 0 0 10 -10v-1994a10 10 0 0 1 10 -10"></path><path d="M40 31a10 10 0 0 1 10 10v2032a10 10 0 0 0 10 10"></path><g><path d="M60 2083h38.25"></path><g><path d="M98.25 2083h10"></path><path d="M145.25 2083h10"></path><g class="terminal "><path d="M108.25 2083h0"></path><path d="M145.25 2083h0"></path><rect x="108.25" y="2072" width="37" height="22"></rect><text x="126.75" y="2087">DO</text></g></g><path d="M155.25 2083h38.25"></path></g><path d="M193.5 2083a10 10 0 0 0 10 -10v-2032a10 10 0 0 1 10 -10"></path><path d="M40 31a10 10 0 0 1 10 10v2070a10 10 0 0 0 10 10"></path><g><path d="M60 2121h34"></path><g><path d="M94 2121h10"></path><path d="M149.5 2121h10"></path><g class="terminal "><path d="M104 2121h0"></path><path d="M149.5 2121h0"></path><rect x="104" y="2110" width="45.5" height="22"></rect><text x="126.75" y="2125">URL</text></g></g><path d="M159.5 2121h34"></path></g><path d="M193.5 2121a10 10 0 0 0 10 -10v-2070a10 10 0 0 1 10 -10"></path><path d="M40 31a10 10 0 0 1 10 10v2108a10 10 0 0 0 10 10"></path><g><path d="M60 2159h21.25"></path><g><path d="M81.25 2159h10"></path><path d="M162.25 2159h10"></path><g class="terminal "><path d="M91.25 2159h0"></path><path d="M162.25 2159h0"></path><rect x="91.25" y="2148" width="71" height="22"></rect><text x="126.75" y="2163">CLIENT</text></g></g><path d="M172.25 2159h21.25"></path></g><path d="M193.5 2159a10 10 0 0 0 10 -10v-2108a10 10 0 0 1 10 -10"></path></g><path d="M 213.5 31 h 20 m 0 -10 v 20"></path></g><defs><style type="text/css"><![CDATA[
svg.railroad-diagram path { stroke-width: 2; stroke: darkgray; fill: rgba(0, 0, 0, 0); }svg.railroad-diagram text { font: bold 12px Hack, "Source Code Pro", monospace; text-anchor: middle; fill: #404040; }svg.railroad-diagram text.comment { font: italic 10px Hack, "Source Code Pro", monospace; fill: #404040; }svg.railroad-diagram g.terminal rect { stroke-width: 2; stroke: #404040; fill: rgba(200, 200, 200, 0.8); }svg.railroad-diagram g.non-terminal rect { stroke-width: 2; stroke: #404040; fill: rgba(255, 255, 255, 1); }svg.railroad-diagram text.diagram-text { font-size: 12px Hack, "Source Code Pro", monospace; fill: red; }svg.railroad-diagram path.diagram-text { stroke-width: 1; stroke: red; fill: red; cursor: help; }
 ]]>
</style></defs></svg>