<?xml version="1.0" encoding="UTF-8" standalone="no"?>
<!DOCTYPE svg PUBLIC "-//W3C//DTD SVG 1.1//EN" "http://www.w3.org/Graphics/SVG/1.1/DTD/svg11.dtd">
<svg class="railroad-diagram" width="808" height="363" viewBox="0 0 808 363" id="graphQlPair" xmlns="http://www.w3.org/2000/svg" xmlns:xlink="http://www.w3.org/1999/xlink"><g transform="translate(.5 .5)"><g><path d="M20 37v20m0 -10h20"></path></g><g><path d="M40 47h0"></path><path d="M768 333h0"></path><path d="M40 47h20"></path><g><path d="M60 47h0"></path><path d="M60 47h10"></path><g><path d="M70 47h0"></path><path d="M665.5 47h72.5"></path><g class="non-terminal "><path d="M70 47h0"></path><path d="M209 47h0"></path><rect x="70" y="36" width="139" height="22" rx="10" ry="10"></rect><text x="139.5" y="51">graphQlPairKey</text></g><path d="M209 47h10"></path><path d="M219 47h10"></path><g class="terminal "><path d="M229 47h0"></path><path d="M291.5 47h0"></path><rect x="229" y="36" width="62.5" height="22"></rect><text x="260.25" y="51">COLON</text></g><path d="M291.5 47h10"></path><path d="M301.5 47h10"></path><g class="non-terminal "><path d="M311.5 47h0"></path><path d="M467.5 47h0"></path><rect x="311.5" y="36" width="156" height="22" rx="10" ry="10"></rect><text x="389.5" y="51">graphQlPairValue</text></g><path d="M467.5 47h10"></path><g><path d="M477.5 47h0"></path><path d="M665.5 47h0"></path><path d="M477.5 47a10 10 0 0 0 10 -10v-7a10 10 0 0 1 10 -10"></path><g><path d="M497.5 20h148"></path></g><path d="M645.5 20a10 10 0 0 1 10 10v7a10 10 0 0 0 10 10"></path><path d="M477.5 47h20"></path><g><path d="M497.5 47h0"></path><path d="M645.5 47h0"></path><path d="M497.5 47h20"></path><g><path d="M517.5 47h0"></path><g><path d="M517.5 47h0"></path><path d="M580 47h20"></path><g class="terminal "><path d="M517.5 47h0"></path><path d="M580 47h0"></path><rect x="517.5" y="36" width="62.5" height="22"></rect><text x="548.75" y="51">AT_IN</text></g></g><path d="M600 47h25.5"></path></g><path d="M625.5 47h20"></path><path d="M497.5 47a10 10 0 0 1 10 10v18a10 10 0 0 0 10 10"></path><g><path d="M517.5 85h0"></path><g><path d="M517.5 85h0"></path><path d="M588.5 85h20"></path><g class="terminal "><path d="M517.5 85h0"></path><path d="M588.5 85h0"></path><rect x="517.5" y="74" width="71" height="22"></rect><text x="553" y="89">AT_OUT</text></g></g><path d="M608.5 85h17"></path></g><path d="M625.5 85a10 10 0 0 0 10 -10v-18a10 10 0 0 1 10 -10"></path><path d="M497.5 47a10 10 0 0 1 10 10v56a10 10 0 0 0 10 10"></path><g><path d="M517.5 123h0"></path><g><path d="M517.5 123h0"></path><path d="M605.5 123h20"></path><g class="terminal "><path d="M517.5 123h0"></path><path d="M605.5 123h0"></path><rect x="517.5" y="112" width="88" height="22"></rect><text x="561.5" y="127">AT_INOUT</text></g></g><path d="M625.5 123h0"></path></g><path d="M625.5 123a10 10 0 0 0 10 -10v-56a10 10 0 0 1 10 -10"></path></g><path d="M645.5 47h20"></path></g></g><path d="M738 47a10 10 0 0 1 10 10v83a10 10 0 0 1 -10 10h-668a10 10 0 0 0 -10 10v23a10 10 0 0 0 10 10"></path><g><path d="M70 193h0"></path><path d="M291.5 193h446.5"></path><g><path d="M70 193h0"></path><path d="M291.5 193h0"></path><path d="M70 193a10 10 0 0 0 10 -10v-7a10 10 0 0 1 10 -10"></path><g><path d="M90 166h181.5"></path></g><path d="M271.5 166a10 10 0 0 1 10 10v7a10 10 0 0 0 10 10"></path><path d="M70 193h20"></path><g class="non-terminal "><path d="M90 193h0"></path><path d="M271.5 193h0"></path><rect x="90" y="182" width="181.5" height="22" rx="10" ry="10"></rect><text x="180.75" y="197">graphQlValueOptions</text></g><path d="M271.5 193h20"></path></g></g><path d="M738 193a10 10 0 0 1 10 10v7a10 10 0 0 1 -10 10h-668a10 10 0 0 0 -10 10v23a10 10 0 0 0 10 10"></path><g><path d="M70 263h0"></path><path d="M718 263h20"></path><g><path d="M70 263h0"></path><path d="M718 263h0"></path><path d="M70 263a10 10 0 0 0 10 -10v-7a10 10 0 0 1 10 -10"></path><g><path d="M90 236h608"></path></g><path d="M698 236a10 10 0 0 1 10 10v7a10 10 0 0 0 10 10"></path><path d="M70 263h20"></path><g><path d="M90 263h0"></path><path d="M698 263h0"></path><path d="M90 263h20"></path><g><path d="M110 263h0"></path><g><path d="M110 263h0"></path><path d="M658 263h20"></path><g class="terminal "><path d="M110 263h0"></path><path d="M223.5 263h0"></path><rect x="110" y="252" width="113.5" height="22"></rect><text x="166.75" y="267">AT_DATATYPE</text></g><path d="M223.5 263h10"></path><path d="M233.5 263h10"></path><g class="terminal "><path d="M243.5 263h0"></path><path d="M331.5 263h0"></path><rect x="243.5" y="252" width="88" height="22"></rect><text x="287.5" y="267">OPEN_PAR</text></g><path d="M331.5 263h10"></path><path d="M341.5 263h10"></path><g class="non-terminal "><path d="M351.5 263h0"></path><path d="M541.5 263h0"></path><rect x="351.5" y="252" width="190" height="22" rx="10" ry="10"></rect><text x="446.5" y="267">graphQlDatatypeValue</text></g><path d="M541.5 263h10"></path><path d="M551.5 263h10"></path><g class="terminal "><path d="M561.5 263h0"></path><path d="M658 263h0"></path><rect x="561.5" y="252" width="96.5" height="22"></rect><text x="609.75" y="267">CLOSE_PAR</text></g></g><path d="M678 263h0"></path></g><path d="M678 263h20"></path></g><path d="M698 263h20"></path></g></g><path d="M738 263a10 10 0 0 1 10 10v7a10 10 0 0 1 -10 10h-668a10 10 0 0 0 -10 10v23a10 10 0 0 0 10 10"></path><g><path d="M70 333h0"></path><path d="M675 333h63"></path><g><path d="M70 333h0"></path><path d="M283 333h0"></path><path d="M70 333a10 10 0 0 0 10 -10v-7a10 10 0 0 1 10 -10"></path><g><path d="M90 306h173"></path></g><path d="M263 306a10 10 0 0 1 10 10v7a10 10 0 0 0 10 10"></path><path d="M70 333h20"></path><g class="non-terminal "><path d="M90 333h0"></path><path d="M263 333h0"></path><rect x="90" y="322" width="173" height="22" rx="10" ry="10"></rect><text x="176.5" y="337">graphQlCrudOptions</text></g><path d="M263 333h20"></path></g><g><path d="M283 333h0"></path><path d="M530 333h0"></path><path d="M283 333a10 10 0 0 0 10 -10v-7a10 10 0 0 1 10 -10"></path><g><path d="M303 306h207"></path></g><path d="M510 306a10 10 0 0 1 10 10v7a10 10 0 0 0 10 10"></path><path d="M283 333h20"></path><g class="non-terminal "><path d="M303 333h0"></path><path d="M510 333h0"></path><rect x="303" y="322" width="207" height="22" rx="10" ry="10"></rect><text x="406.5" y="337">graphQlValueJsonSchema</text></g><path d="M510 333h20"></path></g><g><path d="M530 333h0"></path><path d="M675 333h0"></path><path d="M530 333a10 10 0 0 0 10 -10v-7a10 10 0 0 1 10 -10"></path><g><path d="M550 306h105"></path></g><path d="M655 306a10 10 0 0 1 10 10v7a10 10 0 0 0 10 10"></path><path d="M530 333h20"></path><g class="non-terminal "><path d="M550 333h0"></path><path d="M655 333h0"></path><rect x="550" y="322" width="105" height="22" rx="10" ry="10"></rect><text x="602.5" y="337">graphQlObj</text></g><path d="M655 333h20"></path></g></g><path d="M738 333h10"></path><path d="M748 333h0"></path></g><path d="M748 333h20"></path></g><path d="M 768 333 h 20 m 0 -10 v 20"></path></g><defs><style type="text/css"><![CDATA[
svg.railroad-diagram path { stroke-width: 2; stroke: darkgray; fill: rgba(0, 0, 0, 0); }svg.railroad-diagram text { font: bold 12px Hack, "Source Code Pro", monospace; text-anchor: middle; fill: #404040; }svg.railroad-diagram text.comment { font: italic 10px Hack, "Source Code Pro", monospace; fill: #404040; }svg.railroad-diagram g.terminal rect { stroke-width: 2; stroke: #404040; fill: rgba(200, 200, 200, 0.8); }svg.railroad-diagram g.non-terminal rect { stroke-width: 2; stroke: #404040; fill: rgba(255, 255, 255, 1); }svg.railroad-diagram text.diagram-text { font-size: 12px Hack, "Source Code Pro", monospace; fill: red; }svg.railroad-diagram path.diagram-text { stroke-width: 1; stroke: red; fill: red; cursor: help; }
 ]]>
</style></defs></svg>