<?xml version="1.0" encoding="UTF-8" standalone="no"?>
<!DOCTYPE svg PUBLIC "-//W3C//DTD SVG 1.1//EN" "http://www.w3.org/Graphics/SVG/1.1/DTD/svg11.dtd">
<svg class="railroad-diagram" width="333.5" height="344" viewBox="0 0 333.5 344" id="graphQlCrudOptions" xmlns="http://www.w3.org/2000/svg" xmlns:xlink="http://www.w3.org/1999/xlink"><g transform="translate(.5 .5)"><g><path d="M20 21v20m0 -10h20"></path></g><g><path d="M40 31h0"></path><path d="M293.5 31h0"></path><path d="M40 31h20"></path><g><path d="M60 31h0"></path><g><path d="M60 31h10"></path><path d="M263.5 31h10"></path><g><path d="M70 31h0"></path><path d="M263.5 31h0"></path><path d="M70 31h10"></path><g><path d="M80 31h0"></path><path d="M253.5 31h0"></path><path d="M80 31h20"></path><g><path d="M100 31h8.5"></path><g><path d="M108.5 31h10"></path><path d="M215 31h10"></path><g class="terminal "><path d="M118.5 31h0"></path><path d="M215 31h0"></path><rect x="118.5" y="20" width="96.5" height="22"></rect><text x="166.75" y="35">AT_SELECT</text></g></g><path d="M225 31h8.5"></path></g><path d="M233.5 31h20"></path><path d="M80 31a10 10 0 0 1 10 10v18a10 10 0 0 0 10 10"></path><g><path d="M100 69h0"></path><g><path d="M100 69h10"></path><path d="M223.5 69h10"></path><g class="terminal "><path d="M110 69h0"></path><path d="M223.5 69h0"></path><rect x="110" y="58" width="113.5" height="22"></rect><text x="166.75" y="73">AT_NOSELECT</text></g></g><path d="M233.5 69h0"></path></g><path d="M233.5 69a10 10 0 0 0 10 -10v-18a10 10 0 0 1 10 -10"></path><path d="M80 31a10 10 0 0 1 10 10v56a10 10 0 0 0 10 10"></path><g><path d="M100 107h8.5"></path><g><path d="M108.5 107h10"></path><path d="M215 107h10"></path><g class="terminal "><path d="M118.5 107h0"></path><path d="M215 107h0"></path><rect x="118.5" y="96" width="96.5" height="22"></rect><text x="166.75" y="111">AT_INSERT</text></g></g><path d="M225 107h8.5"></path></g><path d="M233.5 107a10 10 0 0 0 10 -10v-56a10 10 0 0 1 10 -10"></path><path d="M80 31a10 10 0 0 1 10 10v94a10 10 0 0 0 10 10"></path><g><path d="M100 145h0"></path><g><path d="M100 145h10"></path><path d="M223.5 145h10"></path><g class="terminal "><path d="M110 145h0"></path><path d="M223.5 145h0"></path><rect x="110" y="134" width="113.5" height="22"></rect><text x="166.75" y="149">AT_NOINSERT</text></g></g><path d="M233.5 145h0"></path></g><path d="M233.5 145a10 10 0 0 0 10 -10v-94a10 10 0 0 1 10 -10"></path><path d="M80 31a10 10 0 0 1 10 10v132a10 10 0 0 0 10 10"></path><g><path d="M100 183h8.5"></path><g><path d="M108.5 183h10"></path><path d="M215 183h10"></path><g class="terminal "><path d="M118.5 183h0"></path><path d="M215 183h0"></path><rect x="118.5" y="172" width="96.5" height="22"></rect><text x="166.75" y="187">AT_UPDATE</text></g></g><path d="M225 183h8.5"></path></g><path d="M233.5 183a10 10 0 0 0 10 -10v-132a10 10 0 0 1 10 -10"></path><path d="M80 31a10 10 0 0 1 10 10v170a10 10 0 0 0 10 10"></path><g><path d="M100 221h0"></path><g><path d="M100 221h10"></path><path d="M223.5 221h10"></path><g class="terminal "><path d="M110 221h0"></path><path d="M223.5 221h0"></path><rect x="110" y="210" width="113.5" height="22"></rect><text x="166.75" y="225">AT_NOUPDATE</text></g></g><path d="M233.5 221h0"></path></g><path d="M233.5 221a10 10 0 0 0 10 -10v-170a10 10 0 0 1 10 -10"></path><path d="M80 31a10 10 0 0 1 10 10v208a10 10 0 0 0 10 10"></path><g><path d="M100 259h8.5"></path><g><path d="M108.5 259h10"></path><path d="M215 259h10"></path><g class="terminal "><path d="M118.5 259h0"></path><path d="M215 259h0"></path><rect x="118.5" y="248" width="96.5" height="22"></rect><text x="166.75" y="263">AT_DELETE</text></g></g><path d="M225 259h8.5"></path></g><path d="M233.5 259a10 10 0 0 0 10 -10v-208a10 10 0 0 1 10 -10"></path><path d="M80 31a10 10 0 0 1 10 10v246a10 10 0 0 0 10 10"></path><g><path d="M100 297h0"></path><g><path d="M100 297h10"></path><path d="M223.5 297h10"></path><g class="terminal "><path d="M110 297h0"></path><path d="M223.5 297h0"></path><rect x="110" y="286" width="113.5" height="22"></rect><text x="166.75" y="301">AT_NODELETE</text></g></g><path d="M233.5 297h0"></path></g><path d="M233.5 297a10 10 0 0 0 10 -10v-246a10 10 0 0 1 10 -10"></path></g><path d="M253.5 31h10"></path><path d="M80 31a10 10 0 0 0 -10 10v273a10 10 0 0 0 10 10"></path><g><path d="M80 324h173.5"></path></g><path d="M253.5 324a10 10 0 0 0 10 -10v-273a10 10 0 0 0 -10 -10"></path></g></g><path d="M273.5 31h0"></path></g><path d="M273.5 31h20"></path></g><path d="M 293.5 31 h 20 m 0 -10 v 20"></path></g><defs><style type="text/css"><![CDATA[
svg.railroad-diagram path { stroke-width: 2; stroke: darkgray; fill: rgba(0, 0, 0, 0); }svg.railroad-diagram text { font: bold 12px Hack, "Source Code Pro", monospace; text-anchor: middle; fill: #404040; }svg.railroad-diagram text.comment { font: italic 10px Hack, "Source Code Pro", monospace; fill: #404040; }svg.railroad-diagram g.terminal rect { stroke-width: 2; stroke: #404040; fill: rgba(200, 200, 200, 0.8); }svg.railroad-diagram g.non-terminal rect { stroke-width: 2; stroke: #404040; fill: rgba(255, 255, 255, 1); }svg.railroad-diagram text.diagram-text { font-size: 12px Hack, "Source Code Pro", monospace; fill: red; }svg.railroad-diagram path.diagram-text { stroke-width: 1; stroke: red; fill: red; cursor: help; }
 ]]>
</style></defs></svg>