<?xml version="1.0" encoding="UTF-8" standalone="no"?>
<!DOCTYPE svg PUBLIC "-//W3C//DTD SVG 1.1//EN" "http://www.w3.org/Graphics/SVG/1.1/DTD/svg11.dtd">
<svg class="railroad-diagram" width="279" height="4470" viewBox="0 0 279 4470" id="graphQlAllowedKeyword" xmlns="http://www.w3.org/2000/svg" xmlns:xlink="http://www.w3.org/1999/xlink"><g transform="translate(.5 .5)"><g><path d="M20 21v20m0 -10h20"></path></g><g><path d="M40 31h0"></path><path d="M239 31h0"></path><path d="M40 31h20"></path><g><path d="M60 31h34"></path><g><path d="M94 31h10"></path><path d="M175 31h10"></path><g class="terminal "><path d="M104 31h0"></path><path d="M175 31h0"></path><rect x="104" y="20" width="71" height="22"></rect><text x="139.5" y="35">CREATE</text></g></g><path d="M185 31h34"></path></g><path d="M219 31h20"></path><path d="M40 31a10 10 0 0 1 10 10v18a10 10 0 0 0 10 10"></path><g><path d="M60 69h51"></path><g><path d="M111 69h10"></path><path d="M158 69h10"></path><g class="terminal "><path d="M121 69h0"></path><path d="M158 69h0"></path><rect x="121" y="58" width="37" height="22"></rect><text x="139.5" y="73">OR</text></g></g><path d="M168 69h51"></path></g><path d="M219 69a10 10 0 0 0 10 -10v-18a10 10 0 0 1 10 -10"></path><path d="M40 31a10 10 0 0 1 10 10v56a10 10 0 0 0 10 10"></path><g><path d="M60 107h29.75"></path><g><path d="M89.75 107h10"></path><path d="M179.25 107h10"></path><g class="terminal "><path d="M99.75 107h0"></path><path d="M179.25 107h0"></path><rect x="99.75" y="96" width="79.5" height="22"></rect><text x="139.5" y="111">REPLACE</text></g></g><path d="M189.25 107h29.75"></path></g><path d="M219 107a10 10 0 0 0 10 -10v-56a10 10 0 0 1 10 -10"></path><path d="M40 31a10 10 0 0 1 10 10v94a10 10 0 0 0 10 10"></path><g><path d="M60 145h38.25"></path><g><path d="M98.25 145h10"></path><path d="M170.75 145h10"></path><g class="terminal "><path d="M108.25 145h0"></path><path d="M170.75 145h0"></path><rect x="108.25" y="134" width="62.5" height="22"></rect><text x="139.5" y="149">ALTER</text></g></g><path d="M180.75 145h38.25"></path></g><path d="M219 145a10 10 0 0 0 10 -10v-94a10 10 0 0 1 10 -10"></path><path d="M40 31a10 10 0 0 1 10 10v132a10 10 0 0 0 10 10"></path><g><path d="M60 183h42.5"></path><g><path d="M102.5 183h10"></path><path d="M166.5 183h10"></path><g class="terminal "><path d="M112.5 183h0"></path><path d="M166.5 183h0"></path><rect x="112.5" y="172" width="54" height="22"></rect><text x="139.5" y="187">SHOW</text></g></g><path d="M176.5 183h42.5"></path></g><path d="M219 183a10 10 0 0 0 10 -10v-132a10 10 0 0 1 10 -10"></path><path d="M40 31a10 10 0 0 1 10 10v170a10 10 0 0 0 10 10"></path><g><path d="M60 221h34"></path><g><path d="M94 221h10"></path><path d="M175 221h10"></path><g class="terminal "><path d="M104 221h0"></path><path d="M175 221h0"></path><rect x="104" y="210" width="71" height="22"></rect><text x="139.5" y="225">STATUS</text></g></g><path d="M185 221h34"></path></g><path d="M219 221a10 10 0 0 0 10 -10v-170a10 10 0 0 1 10 -10"></path><path d="M40 31a10 10 0 0 1 10 10v208a10 10 0 0 0 10 10"></path><g><path d="M60 259h46.75"></path><g><path d="M106.75 259h10"></path><path d="M162.25 259h10"></path><g class="terminal "><path d="M116.75 259h0"></path><path d="M162.25 259h0"></path><rect x="116.75" y="248" width="45.5" height="22"></rect><text x="139.5" y="263">NEW</text></g></g><path d="M172.25 259h46.75"></path></g><path d="M219 259a10 10 0 0 0 10 -10v-208a10 10 0 0 1 10 -10"></path><path d="M40 31a10 10 0 0 1 10 10v246a10 10 0 0 0 10 10"></path><g><path d="M60 297h51"></path><g><path d="M111 297h10"></path><path d="M158 297h10"></path><g class="terminal "><path d="M121 297h0"></path><path d="M158 297h0"></path><rect x="121" y="286" width="37" height="22"></rect><text x="139.5" y="301">ON</text></g></g><path d="M168 297h51"></path></g><path d="M219 297a10 10 0 0 0 10 -10v-246a10 10 0 0 1 10 -10"></path><path d="M40 31a10 10 0 0 1 10 10v284a10 10 0 0 0 10 10"></path><g><path d="M60 335h42.5"></path><g><path d="M102.5 335h10"></path><path d="M166.5 335h10"></path><g class="terminal "><path d="M112.5 335h0"></path><path d="M166.5 335h0"></path><rect x="112.5" y="324" width="54" height="22"></rect><text x="139.5" y="339">FROM</text></g></g><path d="M176.5 335h42.5"></path></g><path d="M219 335a10 10 0 0 0 10 -10v-284a10 10 0 0 1 10 -10"></path><path d="M40 31a10 10 0 0 1 10 10v322a10 10 0 0 0 10 10"></path><g><path d="M60 373h51"></path><g><path d="M111 373h10"></path><path d="M158 373h10"></path><g class="terminal "><path d="M121 373h0"></path><path d="M158 373h0"></path><rect x="121" y="362" width="37" height="22"></rect><text x="139.5" y="377">IN</text></g></g><path d="M168 373h51"></path></g><path d="M219 373a10 10 0 0 0 10 -10v-322a10 10 0 0 1 10 -10"></path><path d="M40 31a10 10 0 0 1 10 10v360a10 10 0 0 0 10 10"></path><g><path d="M60 411h29.75"></path><g><path d="M89.75 411h10"></path><path d="M179.25 411h10"></path><g class="terminal "><path d="M99.75 411h0"></path><path d="M179.25 411h0"></path><rect x="99.75" y="400" width="79.5" height="22"></rect><text x="139.5" y="415">SCHEMAS</text></g></g><path d="M189.25 411h29.75"></path></g><path d="M219 411a10 10 0 0 0 10 -10v-360a10 10 0 0 1 10 -10"></path><path d="M40 31a10 10 0 0 1 10 10v398a10 10 0 0 0 10 10"></path><g><path d="M60 449h34"></path><g><path d="M94 449h10"></path><path d="M175 449h10"></path><g class="terminal "><path d="M104 449h0"></path><path d="M175 449h0"></path><rect x="104" y="438" width="71" height="22"></rect><text x="139.5" y="453">SCHEMA</text></g></g><path d="M185 449h34"></path></g><path d="M219 449a10 10 0 0 0 10 -10v-398a10 10 0 0 1 10 -10"></path><path d="M40 31a10 10 0 0 1 10 10v436a10 10 0 0 0 10 10"></path><g><path d="M60 487h42.5"></path><g><path d="M102.5 487h10"></path><path d="M166.5 487h10"></path><g class="terminal "><path d="M112.5 487h0"></path><path d="M166.5 487h0"></path><rect x="112.5" y="476" width="54" height="22"></rect><text x="139.5" y="491">JSON</text></g></g><path d="M176.5 487h42.5"></path></g><path d="M219 487a10 10 0 0 0 10 -10v-436a10 10 0 0 1 10 -10"></path><path d="M40 31a10 10 0 0 1 10 10v474a10 10 0 0 0 10 10"></path><g><path d="M60 525h42.5"></path><g><path d="M102.5 525h10"></path><path d="M166.5 525h10"></path><g class="terminal "><path d="M112.5 525h0"></path><path d="M166.5 525h0"></path><rect x="112.5" y="514" width="54" height="22"></rect><text x="139.5" y="529">VIEW</text></g></g><path d="M176.5 525h42.5"></path></g><path d="M219 525a10 10 0 0 0 10 -10v-474a10 10 0 0 1 10 -10"></path><path d="M40 31a10 10 0 0 1 10 10v512a10 10 0 0 0 10 10"></path><g><path d="M60 563h21.25"></path><g><path d="M81.25 563h10"></path><path d="M187.75 563h10"></path><g class="terminal "><path d="M91.25 563h0"></path><path d="M187.75 563h0"></path><rect x="91.25" y="552" width="96.5" height="22"></rect><text x="139.5" y="567">PROCEDURE</text></g></g><path d="M197.75 563h21.25"></path></g><path d="M219 563a10 10 0 0 0 10 -10v-512a10 10 0 0 1 10 -10"></path><path d="M40 31a10 10 0 0 1 10 10v550a10 10 0 0 0 10 10"></path><g><path d="M60 601h25.5"></path><g><path d="M85.5 601h10"></path><path d="M183.5 601h10"></path><g class="terminal "><path d="M95.5 601h0"></path><path d="M183.5 601h0"></path><rect x="95.5" y="590" width="88" height="22"></rect><text x="139.5" y="605">FUNCTION</text></g></g><path d="M193.5 601h25.5"></path></g><path d="M219 601a10 10 0 0 0 10 -10v-550a10 10 0 0 1 10 -10"></path><path d="M40 31a10 10 0 0 1 10 10v588a10 10 0 0 0 10 10"></path><g><path d="M60 639h42.5"></path><g><path d="M102.5 639h10"></path><path d="M166.5 639h10"></path><g class="terminal "><path d="M112.5 639h0"></path><path d="M166.5 639h0"></path><rect x="112.5" y="628" width="54" height="22"></rect><text x="139.5" y="643">DROP</text></g></g><path d="M176.5 639h42.5"></path></g><path d="M219 639a10 10 0 0 0 10 -10v-588a10 10 0 0 1 10 -10"></path><path d="M40 31a10 10 0 0 1 10 10v626a10 10 0 0 0 10 10"></path><g><path d="M60 677h46.75"></path><g><path d="M106.75 677h10"></path><path d="M162.25 677h10"></path><g class="terminal "><path d="M116.75 677h0"></path><path d="M162.25 677h0"></path><rect x="116.75" y="666" width="45.5" height="22"></rect><text x="139.5" y="681">USE</text></g></g><path d="M172.25 677h46.75"></path></g><path d="M219 677a10 10 0 0 0 10 -10v-626a10 10 0 0 1 10 -10"></path><path d="M40 31a10 10 0 0 1 10 10v664a10 10 0 0 0 10 10"></path><g><path d="M60 715h51"></path><g><path d="M111 715h10"></path><path d="M158 715h10"></path><g class="terminal "><path d="M121 715h0"></path><path d="M158 715h0"></path><rect x="121" y="704" width="37" height="22"></rect><text x="139.5" y="719">AS</text></g></g><path d="M168 715h51"></path></g><path d="M219 715a10 10 0 0 0 10 -10v-664a10 10 0 0 1 10 -10"></path><path d="M40 31a10 10 0 0 1 10 10v702a10 10 0 0 0 10 10"></path><g><path d="M60 753h34"></path><g><path d="M94 753h10"></path><path d="M175 753h10"></path><g class="terminal "><path d="M104 753h0"></path><path d="M175 753h0"></path><rect x="104" y="742" width="71" height="22"></rect><text x="139.5" y="757">FILTER</text></g></g><path d="M185 753h34"></path></g><path d="M219 753a10 10 0 0 0 10 -10v-702a10 10 0 0 1 10 -10"></path><path d="M40 31a10 10 0 0 1 10 10v740a10 10 0 0 0 10 10"></path><g><path d="M60 791h0"></path><g><path d="M60 791h10"></path><path d="M209 791h10"></path><g class="terminal "><path d="M70 791h0"></path><path d="M209 791h0"></path><rect x="70" y="780" width="139" height="22"></rect><text x="139.5" y="795">AUTHENTICATION</text></g></g><path d="M219 791h0"></path></g><path d="M219 791a10 10 0 0 0 10 -10v-740a10 10 0 0 1 10 -10"></path><path d="M40 31a10 10 0 0 1 10 10v778a10 10 0 0 0 10 10"></path><g><path d="M60 829h42.5"></path><g><path d="M102.5 829h10"></path><path d="M166.5 829h10"></path><g class="terminal "><path d="M112.5 829h0"></path><path d="M166.5 829h0"></path><rect x="112.5" y="818" width="54" height="22"></rect><text x="139.5" y="833">PATH</text></g></g><path d="M176.5 829h42.5"></path></g><path d="M219 829a10 10 0 0 0 10 -10v-778a10 10 0 0 1 10 -10"></path><path d="M40 31a10 10 0 0 1 10 10v816a10 10 0 0 0 10 10"></path><g><path d="M60 867h17"></path><g><path d="M77 867h10"></path><path d="M192 867h10"></path><g class="terminal "><path d="M87 867h0"></path><path d="M192 867h0"></path><rect x="87" y="856" width="105" height="22"></rect><text x="139.5" y="871">VALIDATION</text></g></g><path d="M202 867h17"></path></g><path d="M219 867a10 10 0 0 0 10 -10v-816a10 10 0 0 1 10 -10"></path><path d="M40 31a10 10 0 0 1 10 10v854a10 10 0 0 0 10 10"></path><g><path d="M60 905h29.75"></path><g><path d="M89.75 905h10"></path><path d="M179.25 905h10"></path><g class="terminal "><path d="M99.75 905h0"></path><path d="M179.25 905h0"></path><rect x="99.75" y="894" width="79.5" height="22"></rect><text x="139.5" y="909">DEFAULT</text></g></g><path d="M189.25 905h29.75"></path></g><path d="M219 905a10 10 0 0 0 10 -10v-854a10 10 0 0 1 10 -10"></path><path d="M40 31a10 10 0 0 1 10 10v892a10 10 0 0 0 10 10"></path><g><path d="M60 943h42.5"></path><g><path d="M102.5 943h10"></path><path d="M166.5 943h10"></path><g class="terminal "><path d="M112.5 943h0"></path><path d="M166.5 943h0"></path><rect x="112.5" y="932" width="54" height="22"></rect><text x="139.5" y="947">USER</text></g></g><path d="M176.5 943h42.5"></path></g><path d="M219 943a10 10 0 0 0 10 -10v-892a10 10 0 0 1 10 -10"></path><path d="M40 31a10 10 0 0 1 10 10v930a10 10 0 0 0 10 10"></path><g><path d="M60 981h29.75"></path><g><path d="M89.75 981h10"></path><path d="M179.25 981h10"></path><g class="terminal "><path d="M99.75 981h0"></path><path d="M179.25 981h0"></path><rect x="99.75" y="970" width="79.5" height="22"></rect><text x="139.5" y="985">OPTIONS</text></g></g><path d="M189.25 981h29.75"></path></g><path d="M219 981a10 10 0 0 0 10 -10v-930a10 10 0 0 1 10 -10"></path><path d="M40 31a10 10 0 0 1 10 10v968a10 10 0 0 0 10 10"></path><g><path d="M60 1019h51"></path><g><path d="M111 1019h10"></path><path d="M158 1019h10"></path><g class="terminal "><path d="M121 1019h0"></path><path d="M158 1019h0"></path><rect x="121" y="1008" width="37" height="22"></rect><text x="139.5" y="1023">IF</text></g></g><path d="M168 1019h51"></path></g><path d="M219 1019a10 10 0 0 0 10 -10v-968a10 10 0 0 1 10 -10"></path><path d="M40 31a10 10 0 0 1 10 10v1006a10 10 0 0 0 10 10"></path><g><path d="M60 1057h46.75"></path><g><path d="M106.75 1057h10"></path><path d="M162.25 1057h10"></path><g class="terminal "><path d="M116.75 1057h0"></path><path d="M162.25 1057h0"></path><rect x="116.75" y="1046" width="45.5" height="22"></rect><text x="139.5" y="1061">NOT</text></g></g><path d="M172.25 1057h46.75"></path></g><path d="M219 1057a10 10 0 0 0 10 -10v-1006a10 10 0 0 1 10 -10"></path><path d="M40 31a10 10 0 0 1 10 10v1044a10 10 0 0 0 10 10"></path><g><path d="M60 1095h34"></path><g><path d="M94 1095h10"></path><path d="M175 1095h10"></path><g class="terminal "><path d="M104 1095h0"></path><path d="M175 1095h0"></path><rect x="104" y="1084" width="71" height="22"></rect><text x="139.5" y="1099">EXISTS</text></g></g><path d="M185 1095h34"></path></g><path d="M219 1095a10 10 0 0 0 10 -10v-1044a10 10 0 0 1 10 -10"></path><path d="M40 31a10 10 0 0 1 10 10v1082a10 10 0 0 0 10 10"></path><g><path d="M60 1133h42.5"></path><g><path d="M102.5 1133h10"></path><path d="M166.5 1133h10"></path><g class="terminal "><path d="M112.5 1133h0"></path><path d="M166.5 1133h0"></path><rect x="112.5" y="1122" width="54" height="22"></rect><text x="139.5" y="1137">PAGE</text></g></g><path d="M176.5 1133h42.5"></path></g><path d="M219 1133a10 10 0 0 0 10 -10v-1082a10 10 0 0 1 10 -10"></path><path d="M40 31a10 10 0 0 1 10 10v1120a10 10 0 0 0 10 10"></path><g><path d="M60 1171h42.5"></path><g><path d="M102.5 1171h10"></path><path d="M166.5 1171h10"></path><g class="terminal "><path d="M112.5 1171h0"></path><path d="M166.5 1171h0"></path><rect x="112.5" y="1160" width="54" height="22"></rect><text x="139.5" y="1175">HOST</text></g></g><path d="M176.5 1171h42.5"></path></g><path d="M219 1171a10 10 0 0 0 10 -10v-1120a10 10 0 0 1 10 -10"></path><path d="M40 31a10 10 0 0 1 10 10v1158a10 10 0 0 0 10 10"></path><g><path d="M60 1209h42.5"></path><g><path d="M102.5 1209h10"></path><path d="M166.5 1209h10"></path><g class="terminal "><path d="M112.5 1209h0"></path><path d="M166.5 1209h0"></path><rect x="112.5" y="1198" width="54" height="22"></rect><text x="139.5" y="1213">TYPE</text></g></g><path d="M176.5 1209h42.5"></path></g><path d="M219 1209a10 10 0 0 0 10 -10v-1158a10 10 0 0 1 10 -10"></path><path d="M40 31a10 10 0 0 1 10 10v1196a10 10 0 0 0 10 10"></path><g><path d="M60 1247h34"></path><g><path d="M94 1247h10"></path><path d="M175 1247h10"></path><g class="terminal "><path d="M104 1247h0"></path><path d="M175 1247h0"></path><rect x="104" y="1236" width="71" height="22"></rect><text x="139.5" y="1251">FORMAT</text></g></g><path d="M185 1247h34"></path></g><path d="M219 1247a10 10 0 0 0 10 -10v-1196a10 10 0 0 1 10 -10"></path><path d="M40 31a10 10 0 0 1 10 10v1234a10 10 0 0 0 10 10"></path><g><path d="M60 1285h34"></path><g><path d="M94 1285h10"></path><path d="M175 1285h10"></path><g class="terminal "><path d="M104 1285h0"></path><path d="M175 1285h0"></path><rect x="104" y="1274" width="71" height="22"></rect><text x="139.5" y="1289">UPDATE</text></g></g><path d="M185 1285h34"></path></g><path d="M219 1285a10 10 0 0 0 10 -10v-1234a10 10 0 0 1 10 -10"></path><path d="M40 31a10 10 0 0 1 10 10v1272a10 10 0 0 0 10 10"></path><g><path d="M60 1323h42.5"></path><g><path d="M102.5 1323h10"></path><path d="M166.5 1323h10"></path><g class="terminal "><path d="M112.5 1323h0"></path><path d="M166.5 1323h0"></path><rect x="112.5" y="1312" width="54" height="22"></rect><text x="139.5" y="1327">NULL</text></g></g><path d="M176.5 1323h42.5"></path></g><path d="M219 1323a10 10 0 0 0 10 -10v-1272a10 10 0 0 1 10 -10"></path><path d="M40 31a10 10 0 0 1 10 10v1310a10 10 0 0 0 10 10"></path><g><path d="M60 1361h42.5"></path><g><path d="M102.5 1361h10"></path><path d="M166.5 1361h10"></path><g class="terminal "><path d="M112.5 1361h0"></path><path d="M166.5 1361h0"></path><rect x="112.5" y="1350" width="54" height="22"></rect><text x="139.5" y="1365">TRUE</text></g></g><path d="M176.5 1361h42.5"></path></g><path d="M219 1361a10 10 0 0 0 10 -10v-1310a10 10 0 0 1 10 -10"></path><path d="M40 31a10 10 0 0 1 10 10v1348a10 10 0 0 0 10 10"></path><g><path d="M60 1399h38.25"></path><g><path d="M98.25 1399h10"></path><path d="M170.75 1399h10"></path><g class="terminal "><path d="M108.25 1399h0"></path><path d="M170.75 1399h0"></path><rect x="108.25" y="1388" width="62.5" height="22"></rect><text x="139.5" y="1403">FALSE</text></g></g><path d="M180.75 1399h38.25"></path></g><path d="M219 1399a10 10 0 0 0 10 -10v-1348a10 10 0 0 1 10 -10"></path><path d="M40 31a10 10 0 0 1 10 10v1386a10 10 0 0 0 10 10"></path><g><path d="M60 1437h46.75"></path><g><path d="M106.75 1437h10"></path><path d="M162.25 1437h10"></path><g class="terminal "><path d="M116.75 1437h0"></path><path d="M162.25 1437h0"></path><rect x="116.75" y="1426" width="45.5" height="22"></rect><text x="139.5" y="1441">SET</text></g></g><path d="M172.25 1437h46.75"></path></g><path d="M219 1437a10 10 0 0 0 10 -10v-1386a10 10 0 0 1 10 -10"></path><path d="M40 31a10 10 0 0 1 10 10v1424a10 10 0 0 0 10 10"></path><g><path d="M60 1475h17"></path><g><path d="M77 1475h10"></path><path d="M192 1475h10"></path><g class="terminal "><path d="M87 1475h0"></path><path d="M192 1475h0"></path><rect x="87" y="1464" width="105" height="22"></rect><text x="139.5" y="1479">IDENTIFIED</text></g></g><path d="M202 1475h17"></path></g><path d="M219 1475a10 10 0 0 0 10 -10v-1424a10 10 0 0 1 10 -10"></path><path d="M40 31a10 10 0 0 1 10 10v1462a10 10 0 0 0 10 10"></path><g><path d="M60 1513h51"></path><g><path d="M111 1513h10"></path><path d="M158 1513h10"></path><g class="terminal "><path d="M121 1513h0"></path><path d="M158 1513h0"></path><rect x="121" y="1502" width="37" height="22"></rect><text x="139.5" y="1517">BY</text></g></g><path d="M168 1513h51"></path></g><path d="M219 1513a10 10 0 0 0 10 -10v-1462a10 10 0 0 1 10 -10"></path><path d="M40 31a10 10 0 0 1 10 10v1500a10 10 0 0 0 10 10"></path><g><path d="M60 1551h42.5"></path><g><path d="M102.5 1551h10"></path><path d="M166.5 1551h10"></path><g class="terminal "><path d="M112.5 1551h0"></path><path d="M166.5 1551h0"></path><rect x="112.5" y="1540" width="54" height="22"></rect><text x="139.5" y="1555">ROLE</text></g></g><path d="M176.5 1551h42.5"></path></g><path d="M219 1551a10 10 0 0 0 10 -10v-1500a10 10 0 0 1 10 -10"></path><path d="M40 31a10 10 0 0 1 10 10v1538a10 10 0 0 0 10 10"></path><g><path d="M60 1589h51"></path><g><path d="M111 1589h10"></path><path d="M158 1589h10"></path><g class="terminal "><path d="M121 1589h0"></path><path d="M158 1589h0"></path><rect x="121" y="1578" width="37" height="22"></rect><text x="139.5" y="1593">TO</text></g></g><path d="M168 1589h51"></path></g><path d="M219 1589a10 10 0 0 0 10 -10v-1538a10 10 0 0 1 10 -10"></path><path d="M40 31a10 10 0 0 1 10 10v1576a10 10 0 0 0 10 10"></path><g><path d="M60 1627h34"></path><g><path d="M94 1627h10"></path><path d="M175 1627h10"></path><g class="terminal "><path d="M104 1627h0"></path><path d="M175 1627h0"></path><rect x="104" y="1616" width="71" height="22"></rect><text x="139.5" y="1631">IGNORE</text></g></g><path d="M185 1627h34"></path></g><path d="M219 1627a10 10 0 0 0 10 -10v-1576a10 10 0 0 1 10 -10"></path><path d="M40 31a10 10 0 0 1 10 10v1614a10 10 0 0 0 10 10"></path><g><path d="M60 1665h38.25"></path><g><path d="M98.25 1665h10"></path><path d="M170.75 1665h10"></path><g class="terminal "><path d="M108.25 1665h0"></path><path d="M170.75 1665h0"></path><rect x="108.25" y="1654" width="62.5" height="22"></rect><text x="139.5" y="1669">CLONE</text></g></g><path d="M180.75 1665h38.25"></path></g><path d="M219 1665a10 10 0 0 0 10 -10v-1614a10 10 0 0 1 10 -10"></path><path d="M40 31a10 10 0 0 1 10 10v1652a10 10 0 0 0 10 10"></path><g><path d="M60 1703h42.5"></path><g><path d="M102.5 1703h10"></path><path d="M166.5 1703h10"></path><g class="terminal "><path d="M112.5 1703h0"></path><path d="M166.5 1703h0"></path><rect x="112.5" y="1692" width="54" height="22"></rect><text x="139.5" y="1707">FILE</text></g></g><path d="M176.5 1703h42.5"></path></g><path d="M219 1703a10 10 0 0 0 10 -10v-1652a10 10 0 0 1 10 -10"></path><path d="M40 31a10 10 0 0 1 10 10v1690a10 10 0 0 0 10 10"></path><g><path d="M60 1741h34"></path><g><path d="M94 1741h10"></path><path d="M175 1741h10"></path><g class="terminal "><path d="M104 1741h0"></path><path d="M175 1741h0"></path><rect x="104" y="1730" width="71" height="22"></rect><text x="139.5" y="1745">BINARY</text></g></g><path d="M185 1741h34"></path></g><path d="M219 1741a10 10 0 0 0 10 -10v-1690a10 10 0 0 1 10 -10"></path><path d="M40 31a10 10 0 0 1 10 10v1728a10 10 0 0 0 10 10"></path><g><path d="M60 1779h42.5"></path><g><path d="M102.5 1779h10"></path><path d="M166.5 1779h10"></path><g class="terminal "><path d="M112.5 1779h0"></path><path d="M166.5 1779h0"></path><rect x="112.5" y="1768" width="54" height="22"></rect><text x="139.5" y="1783">DATA</text></g></g><path d="M176.5 1779h42.5"></path></g><path d="M219 1779a10 10 0 0 0 10 -10v-1728a10 10 0 0 1 10 -10"></path><path d="M40 31a10 10 0 0 1 10 10v1766a10 10 0 0 0 10 10"></path><g><path d="M60 1817h42.5"></path><g><path d="M102.5 1817h10"></path><path d="M166.5 1817h10"></path><g class="terminal "><path d="M112.5 1817h0"></path><path d="M166.5 1817h0"></path><rect x="112.5" y="1806" width="54" height="22"></rect><text x="139.5" y="1821">LOAD</text></g></g><path d="M176.5 1817h42.5"></path></g><path d="M219 1817a10 10 0 0 0 10 -10v-1766a10 10 0 0 1 10 -10"></path><path d="M40 31a10 10 0 0 1 10 10v1804a10 10 0 0 0 10 10"></path><g><path d="M60 1855h38.25"></path><g><path d="M98.25 1855h10"></path><path d="M170.75 1855h10"></path><g class="terminal "><path d="M108.25 1855h0"></path><path d="M170.75 1855h0"></path><rect x="108.25" y="1844" width="62.5" height="22"></rect><text x="139.5" y="1859">GRANT</text></g></g><path d="M180.75 1855h38.25"></path></g><path d="M219 1855a10 10 0 0 0 10 -10v-1804a10 10 0 0 1 10 -10"></path><path d="M40 31a10 10 0 0 1 10 10v1842a10 10 0 0 0 10 10"></path><g><path d="M60 1893h42.5"></path><g><path d="M102.5 1893h10"></path><path d="M166.5 1893h10"></path><g class="terminal "><path d="M112.5 1893h0"></path><path d="M166.5 1893h0"></path><rect x="112.5" y="1882" width="54" height="22"></rect><text x="139.5" y="1897">READ</text></g></g><path d="M176.5 1893h42.5"></path></g><path d="M219 1893a10 10 0 0 0 10 -10v-1842a10 10 0 0 1 10 -10"></path><path d="M40 31a10 10 0 0 1 10 10v1880a10 10 0 0 0 10 10"></path><g><path d="M60 1931h34"></path><g><path d="M94 1931h10"></path><path d="M175 1931h10"></path><g class="terminal "><path d="M104 1931h0"></path><path d="M175 1931h0"></path><rect x="104" y="1920" width="71" height="22"></rect><text x="139.5" y="1935">DELETE</text></g></g><path d="M185 1931h34"></path></g><path d="M219 1931a10 10 0 0 0 10 -10v-1880a10 10 0 0 1 10 -10"></path><path d="M40 31a10 10 0 0 1 10 10v1918a10 10 0 0 0 10 10"></path><g><path d="M60 1969h38.25"></path><g><path d="M98.25 1969h10"></path><path d="M170.75 1969h10"></path><g class="terminal "><path d="M108.25 1969h0"></path><path d="M170.75 1969h0"></path><rect x="108.25" y="1958" width="62.5" height="22"></rect><text x="139.5" y="1973">GROUP</text></g></g><path d="M180.75 1969h38.25"></path></g><path d="M219 1969a10 10 0 0 0 10 -10v-1918a10 10 0 0 1 10 -10"></path><path d="M40 31a10 10 0 0 1 10 10v1956a10 10 0 0 0 10 10"></path><g><path d="M60 2007h34"></path><g><path d="M94 2007h10"></path><path d="M175 2007h10"></path><g class="terminal "><path d="M104 2007h0"></path><path d="M175 2007h0"></path><rect x="104" y="1996" width="71" height="22"></rect><text x="139.5" y="2011">REVOKE</text></g></g><path d="M185 2007h34"></path></g><path d="M219 2007a10 10 0 0 0 10 -10v-1956a10 10 0 0 1 10 -10"></path><path d="M40 31a10 10 0 0 1 10 10v1994a10 10 0 0 0 10 10"></path><g><path d="M60 2045h29.75"></path><g><path d="M89.75 2045h10"></path><path d="M179.25 2045h10"></path><g class="terminal "><path d="M99.75 2045h0"></path><path d="M179.25 2045h0"></path><rect x="99.75" y="2034" width="79.5" height="22"></rect><text x="139.5" y="2049">ACCOUNT</text></g></g><path d="M189.25 2045h29.75"></path></g><path d="M219 2045a10 10 0 0 0 10 -10v-1994a10 10 0 0 1 10 -10"></path><path d="M40 31a10 10 0 0 1 10 10v2032a10 10 0 0 0 10 10"></path><g><path d="M60 2083h42.5"></path><g><path d="M102.5 2083h10"></path><path d="M166.5 2083h10"></path><g class="terminal "><path d="M112.5 2083h0"></path><path d="M166.5 2083h0"></path><rect x="112.5" y="2072" width="54" height="22"></rect><text x="139.5" y="2087">LOCK</text></g></g><path d="M176.5 2083h42.5"></path></g><path d="M219 2083a10 10 0 0 0 10 -10v-2032a10 10 0 0 1 10 -10"></path><path d="M40 31a10 10 0 0 1 10 10v2070a10 10 0 0 0 10 10"></path><g><path d="M60 2121h34"></path><g><path d="M94 2121h10"></path><path d="M175 2121h10"></path><g class="terminal "><path d="M104 2121h0"></path><path d="M175 2121h0"></path><rect x="104" y="2110" width="71" height="22"></rect><text x="139.5" y="2125">UNLOCK</text></g></g><path d="M185 2121h34"></path></g><path d="M219 2121a10 10 0 0 0 10 -10v-2070a10 10 0 0 1 10 -10"></path><path d="M40 31a10 10 0 0 1 10 10v2108a10 10 0 0 0 10 10"></path><g><path d="M60 2159h34"></path><g><path d="M94 2159h10"></path><path d="M175 2159h10"></path><g class="terminal "><path d="M104 2159h0"></path><path d="M175 2159h0"></path><rect x="104" y="2148" width="71" height="22"></rect><text x="139.5" y="2163">GRANTS</text></g></g><path d="M185 2159h34"></path></g><path d="M219 2159a10 10 0 0 0 10 -10v-2108a10 10 0 0 1 10 -10"></path><path d="M40 31a10 10 0 0 1 10 10v2146a10 10 0 0 0 10 10"></path><g><path d="M60 2197h46.75"></path><g><path d="M106.75 2197h10"></path><path d="M162.25 2197h10"></path><g class="terminal "><path d="M116.75 2197h0"></path><path d="M162.25 2197h0"></path><rect x="116.75" y="2186" width="45.5" height="22"></rect><text x="139.5" y="2201">FOR</text></g></g><path d="M172.25 2197h46.75"></path></g><path d="M219 2197a10 10 0 0 0 10 -10v-2146a10 10 0 0 1 10 -10"></path><path d="M40 31a10 10 0 0 1 10 10v2184a10 10 0 0 0 10 10"></path><g><path d="M60 2235h38.25"></path><g><path d="M98.25 2235h10"></path><path d="M170.75 2235h10"></path><g class="terminal "><path d="M108.25 2235h0"></path><path d="M170.75 2235h0"></path><rect x="108.25" y="2224" width="62.5" height="22"></rect><text x="139.5" y="2239">LEVEL</text></g></g><path d="M180.75 2235h38.25"></path></g><path d="M219 2235a10 10 0 0 0 10 -10v-2184a10 10 0 0 1 10 -10"></path><path d="M40 31a10 10 0 0 1 10 10v2222a10 10 0 0 0 10 10"></path><g><path d="M60 2273h46.75"></path><g><path d="M106.75 2273h10"></path><path d="M162.25 2273h10"></path><g class="terminal "><path d="M116.75 2273h0"></path><path d="M162.25 2273h0"></path><rect x="116.75" y="2262" width="45.5" height="22"></rect><text x="139.5" y="2277">ANY</text></g></g><path d="M172.25 2273h46.75"></path></g><path d="M219 2273a10 10 0 0 0 10 -10v-2222a10 10 0 0 1 10 -10"></path><path d="M40 31a10 10 0 0 1 10 10v2260a10 10 0 0 0 10 10"></path><g><path d="M60 2311h34"></path><g><path d="M94 2311h10"></path><path d="M175 2311h10"></path><g class="terminal "><path d="M104 2311h0"></path><path d="M175 2311h0"></path><rect x="104" y="2300" width="71" height="22"></rect><text x="139.5" y="2315">CLIENT</text></g></g><path d="M185 2311h34"></path></g><path d="M219 2311a10 10 0 0 0 10 -10v-2260a10 10 0 0 1 10 -10"></path><path d="M40 31a10 10 0 0 1 10 10v2298a10 10 0 0 0 10 10"></path><g><path d="M60 2349h46.75"></path><g><path d="M106.75 2349h10"></path><path d="M162.25 2349h10"></path><g class="terminal "><path d="M116.75 2349h0"></path><path d="M162.25 2349h0"></path><rect x="116.75" y="2338" width="45.5" height="22"></rect><text x="139.5" y="2353">URL</text></g></g><path d="M172.25 2349h46.75"></path></g><path d="M219 2349a10 10 0 0 0 10 -10v-2298a10 10 0 0 1 10 -10"></path><path d="M40 31a10 10 0 0 1 10 10v2336a10 10 0 0 0 10 10"></path><g><path d="M60 2387h42.5"></path><g><path d="M102.5 2387h10"></path><path d="M166.5 2387h10"></path><g class="terminal "><path d="M112.5 2387h0"></path><path d="M166.5 2387h0"></path><rect x="112.5" y="2376" width="54" height="22"></rect><text x="139.5" y="2391">NAME</text></g></g><path d="M176.5 2387h42.5"></path></g><path d="M219 2387a10 10 0 0 0 10 -10v-2336a10 10 0 0 1 10 -10"></path><path d="M40 31a10 10 0 0 1 10 10v2374a10 10 0 0 0 10 10"></path><g><path d="M60 2425h51"></path><g><path d="M111 2425h10"></path><path d="M158 2425h10"></path><g class="terminal "><path d="M121 2425h0"></path><path d="M158 2425h0"></path><rect x="121" y="2414" width="37" height="22"></rect><text x="139.5" y="2429">DO</text></g></g><path d="M168 2425h51"></path></g><path d="M219 2425a10 10 0 0 0 10 -10v-2374a10 10 0 0 1 10 -10"></path><path d="M40 31a10 10 0 0 1 10 10v2412a10 10 0 0 0 10 10"></path><g><path d="M60 2463h21.25"></path><g><path d="M81.25 2463h10"></path><path d="M187.75 2463h10"></path><g class="terminal "><path d="M91.25 2463h0"></path><path d="M187.75 2463h0"></path><rect x="91.25" y="2452" width="96.5" height="22"></rect><text x="139.5" y="2467">CONFIGURE</text></g></g><path d="M197.75 2463h21.25"></path></g><path d="M219 2463a10 10 0 0 0 10 -10v-2412a10 10 0 0 1 10 -10"></path><path d="M40 31a10 10 0 0 1 10 10v2450a10 10 0 0 0 10 10"></path><g><path d="M60 2501h42.5"></path><g><path d="M102.5 2501h10"></path><path d="M166.5 2501h10"></path><g class="terminal "><path d="M112.5 2501h0"></path><path d="M166.5 2501h0"></path><rect x="112.5" y="2490" width="54" height="22"></rect><text x="139.5" y="2505">REST</text></g></g><path d="M176.5 2501h42.5"></path></g><path d="M219 2501a10 10 0 0 0 10 -10v-2450a10 10 0 0 1 10 -10"></path><path d="M40 31a10 10 0 0 1 10 10v2488a10 10 0 0 0 10 10"></path><g><path d="M60 2539h25.5"></path><g><path d="M85.5 2539h10"></path><path d="M183.5 2539h10"></path><g class="terminal "><path d="M95.5 2539h0"></path><path d="M183.5 2539h0"></path><rect x="95.5" y="2528" width="88" height="22"></rect><text x="139.5" y="2543">METADATA</text></g></g><path d="M193.5 2539h25.5"></path></g><path d="M219 2539a10 10 0 0 0 10 -10v-2488a10 10 0 0 1 10 -10"></path><path d="M40 31a10 10 0 0 1 10 10v2526a10 10 0 0 0 10 10"></path><g><path d="M60 2577h25.5"></path><g><path d="M85.5 2577h10"></path><path d="M183.5 2577h10"></path><g class="terminal "><path d="M95.5 2577h0"></path><path d="M183.5 2577h0"></path><rect x="95.5" y="2566" width="88" height="22"></rect><text x="139.5" y="2581">SERVICES</text></g></g><path d="M193.5 2577h25.5"></path></g><path d="M219 2577a10 10 0 0 0 10 -10v-2526a10 10 0 0 1 10 -10"></path><path d="M40 31a10 10 0 0 1 10 10v2564a10 10 0 0 0 10 10"></path><g><path d="M60 2615h29.75"></path><g><path d="M89.75 2615h10"></path><path d="M179.25 2615h10"></path><g class="terminal "><path d="M99.75 2615h0"></path><path d="M179.25 2615h0"></path><rect x="99.75" y="2604" width="79.5" height="22"></rect><text x="139.5" y="2619">SERVICE</text></g></g><path d="M189.25 2615h29.75"></path></g><path d="M219 2615a10 10 0 0 0 10 -10v-2564a10 10 0 0 1 10 -10"></path><path d="M40 31a10 10 0 0 1 10 10v2602a10 10 0 0 0 10 10"></path><g><path d="M60 2653h38.25"></path><g><path d="M98.25 2653h10"></path><path d="M170.75 2653h10"></path><g class="terminal "><path d="M108.25 2653h0"></path><path d="M170.75 2653h0"></path><rect x="108.25" y="2642" width="62.5" height="22"></rect><text x="139.5" y="2657">VIEWS</text></g></g><path d="M180.75 2653h38.25"></path></g><path d="M219 2653a10 10 0 0 0 10 -10v-2602a10 10 0 0 1 10 -10"></path><path d="M40 31a10 10 0 0 1 10 10v2640a10 10 0 0 0 10 10"></path><g><path d="M60 2691h17"></path><g><path d="M77 2691h10"></path><path d="M192 2691h10"></path><g class="terminal "><path d="M87 2691h0"></path><path d="M192 2691h0"></path><rect x="87" y="2680" width="105" height="22"></rect><text x="139.5" y="2695">PROCEDURES</text></g></g><path d="M202 2691h17"></path></g><path d="M219 2691a10 10 0 0 0 10 -10v-2640a10 10 0 0 1 10 -10"></path><path d="M40 31a10 10 0 0 1 10 10v2678a10 10 0 0 0 10 10"></path><g><path d="M60 2729h17"></path><g><path d="M77 2729h10"></path><path d="M192 2729h10"></path><g class="terminal "><path d="M87 2729h0"></path><path d="M192 2729h0"></path><rect x="87" y="2718" width="105" height="22"></rect><text x="139.5" y="2733">PARAMETERS</text></g></g><path d="M202 2729h17"></path></g><path d="M219 2729a10 10 0 0 0 10 -10v-2678a10 10 0 0 1 10 -10"></path><path d="M40 31a10 10 0 0 1 10 10v2716a10 10 0 0 0 10 10"></path><g><path d="M60 2767h21.25"></path><g><path d="M81.25 2767h10"></path><path d="M187.75 2767h10"></path><g class="terminal "><path d="M91.25 2767h0"></path><path d="M187.75 2767h0"></path><rect x="91.25" y="2756" width="96.5" height="22"></rect><text x="139.5" y="2771">FUNCTIONS</text></g></g><path d="M197.75 2767h21.25"></path></g><path d="M219 2767a10 10 0 0 0 10 -10v-2716a10 10 0 0 1 10 -10"></path><path d="M40 31a10 10 0 0 1 10 10v2754a10 10 0 0 0 10 10"></path><g><path d="M60 2805h34"></path><g><path d="M94 2805h10"></path><path d="M175 2805h10"></path><g class="terminal "><path d="M104 2805h0"></path><path d="M175 2805h0"></path><rect x="104" y="2794" width="71" height="22"></rect><text x="139.5" y="2809">RESULT</text></g></g><path d="M185 2805h34"></path></g><path d="M219 2805a10 10 0 0 0 10 -10v-2754a10 10 0 0 1 10 -10"></path><path d="M40 31a10 10 0 0 1 10 10v2792a10 10 0 0 0 10 10"></path><g><path d="M60 2843h29.75"></path><g><path d="M89.75 2843h10"></path><path d="M179.25 2843h10"></path><g class="terminal "><path d="M99.75 2843h0"></path><path d="M179.25 2843h0"></path><rect x="99.75" y="2832" width="79.5" height="22"></rect><text x="139.5" y="2847">ENABLED</text></g></g><path d="M189.25 2843h29.75"></path></g><path d="M219 2843a10 10 0 0 0 10 -10v-2792a10 10 0 0 1 10 -10"></path><path d="M40 31a10 10 0 0 1 10 10v2830a10 10 0 0 0 10 10"></path><g><path d="M60 2881h21.25"></path><g><path d="M81.25 2881h10"></path><path d="M187.75 2881h10"></path><g class="terminal "><path d="M91.25 2881h0"></path><path d="M187.75 2881h0"></path><rect x="91.25" y="2870" width="96.5" height="22"></rect><text x="139.5" y="2885">PUBLISHED</text></g></g><path d="M197.75 2881h21.25"></path></g><path d="M219 2881a10 10 0 0 0 10 -10v-2830a10 10 0 0 1 10 -10"></path><path d="M40 31a10 10 0 0 1 10 10v2868a10 10 0 0 0 10 10"></path><g><path d="M60 2919h25.5"></path><g><path d="M85.5 2919h10"></path><path d="M183.5 2919h10"></path><g class="terminal "><path d="M95.5 2919h0"></path><path d="M183.5 2919h0"></path><rect x="95.5" y="2908" width="88" height="22"></rect><text x="139.5" y="2923">DISABLED</text></g></g><path d="M193.5 2919h25.5"></path></g><path d="M219 2919a10 10 0 0 0 10 -10v-2868a10 10 0 0 1 10 -10"></path><path d="M40 31a10 10 0 0 1 10 10v2906a10 10 0 0 0 10 10"></path><g><path d="M60 2957h29.75"></path><g><path d="M89.75 2957h10"></path><path d="M179.25 2957h10"></path><g class="terminal "><path d="M99.75 2957h0"></path><path d="M179.25 2957h0"></path><rect x="99.75" y="2946" width="79.5" height="22"></rect><text x="139.5" y="2961">PRIVATE</text></g></g><path d="M189.25 2957h29.75"></path></g><path d="M219 2957a10 10 0 0 0 10 -10v-2906a10 10 0 0 1 10 -10"></path><path d="M40 31a10 10 0 0 1 10 10v2944a10 10 0 0 0 10 10"></path><g><path d="M60 2995h12.75"></path><g><path d="M72.75 2995h10"></path><path d="M196.25 2995h10"></path><g class="terminal "><path d="M82.75 2995h0"></path><path d="M196.25 2995h0"></path><rect x="82.75" y="2984" width="113.5" height="22"></rect><text x="139.5" y="2999">UNPUBLISHED</text></g></g><path d="M206.25 2995h12.75"></path></g><path d="M219 2995a10 10 0 0 0 10 -10v-2944a10 10 0 0 1 10 -10"></path><path d="M40 31a10 10 0 0 1 10 10v2982a10 10 0 0 0 10 10"></path><g><path d="M60 3033h25.5"></path><g><path d="M85.5 3033h10"></path><path d="M183.5 3033h10"></path><g class="terminal "><path d="M95.5 3033h0"></path><path d="M183.5 3033h0"></path><rect x="95.5" y="3022" width="88" height="22"></rect><text x="139.5" y="3037">PROTOCOL</text></g></g><path d="M193.5 3033h25.5"></path></g><path d="M219 3033a10 10 0 0 0 10 -10v-2982a10 10 0 0 1 10 -10"></path><path d="M40 31a10 10 0 0 1 10 10v3020a10 10 0 0 0 10 10"></path><g><path d="M60 3071h42.5"></path><g><path d="M102.5 3071h10"></path><path d="M166.5 3071h10"></path><g class="terminal "><path d="M112.5 3071h0"></path><path d="M166.5 3071h0"></path><rect x="112.5" y="3060" width="54" height="22"></rect><text x="139.5" y="3075">HTTP</text></g></g><path d="M176.5 3071h42.5"></path></g><path d="M219 3071a10 10 0 0 0 10 -10v-3020a10 10 0 0 1 10 -10"></path><path d="M40 31a10 10 0 0 1 10 10v3058a10 10 0 0 0 10 10"></path><g><path d="M60 3109h38.25"></path><g><path d="M98.25 3109h10"></path><path d="M170.75 3109h10"></path><g class="terminal "><path d="M108.25 3109h0"></path><path d="M170.75 3109h0"></path><rect x="108.25" y="3098" width="62.5" height="22"></rect><text x="139.5" y="3113">HTTPS</text></g></g><path d="M180.75 3109h38.25"></path></g><path d="M219 3109a10 10 0 0 0 10 -10v-3058a10 10 0 0 1 10 -10"></path><path d="M40 31a10 10 0 0 1 10 10v3096a10 10 0 0 0 10 10"></path><g><path d="M60 3147h25.5"></path><g><path d="M85.5 3147h10"></path><path d="M183.5 3147h10"></path><g class="terminal "><path d="M95.5 3147h0"></path><path d="M183.5 3147h0"></path><rect x="95.5" y="3136" width="88" height="22"></rect><text x="139.5" y="3151">COMMENTS</text></g></g><path d="M193.5 3147h25.5"></path></g><path d="M219 3147a10 10 0 0 0 10 -10v-3096a10 10 0 0 1 10 -10"></path><path d="M40 31a10 10 0 0 1 10 10v3134a10 10 0 0 0 10 10"></path><g><path d="M60 3185h29.75"></path><g><path d="M89.75 3185h10"></path><path d="M179.25 3185h10"></path><g class="terminal "><path d="M99.75 3185h0"></path><path d="M179.25 3185h0"></path><rect x="99.75" y="3174" width="79.5" height="22"></rect><text x="139.5" y="3189">REQUEST</text></g></g><path d="M189.25 3185h29.75"></path></g><path d="M219 3185a10 10 0 0 0 10 -10v-3134a10 10 0 0 1 10 -10"></path><path d="M40 31a10 10 0 0 1 10 10v3172a10 10 0 0 0 10 10"></path><g><path d="M60 3223h12.75"></path><g><path d="M72.75 3223h10"></path><path d="M196.25 3223h10"></path><g class="terminal "><path d="M82.75 3223h0"></path><path d="M196.25 3223h0"></path><rect x="82.75" y="3212" width="113.5" height="22"></rect><text x="139.5" y="3227">REDIRECTION</text></g></g><path d="M206.25 3223h12.75"></path></g><path d="M219 3223a10 10 0 0 0 10 -10v-3172a10 10 0 0 1 10 -10"></path><path d="M40 31a10 10 0 0 1 10 10v3210a10 10 0 0 0 10 10"></path><g><path d="M60 3261h17"></path><g><path d="M77 3261h10"></path><path d="M192 3261h10"></path><g class="terminal "><path d="M87 3261h0"></path><path d="M192 3261h0"></path><rect x="87" y="3250" width="105" height="22"></rect><text x="139.5" y="3265">MANAGEMENT</text></g></g><path d="M202 3261h17"></path></g><path d="M219 3261a10 10 0 0 0 10 -10v-3210a10 10 0 0 1 10 -10"></path><path d="M40 31a10 10 0 0 1 10 10v3248a10 10 0 0 0 10 10"></path><g><path d="M60 3299h21.25"></path><g><path d="M81.25 3299h10"></path><path d="M187.75 3299h10"></path><g class="terminal "><path d="M91.25 3299h0"></path><path d="M187.75 3299h0"></path><rect x="91.25" y="3288" width="96.5" height="22"></rect><text x="139.5" y="3303">AVAILABLE</text></g></g><path d="M197.75 3299h21.25"></path></g><path d="M219 3299a10 10 0 0 0 10 -10v-3248a10 10 0 0 1 10 -10"></path><path d="M40 31a10 10 0 0 1 10 10v3286a10 10 0 0 0 10 10"></path><g><path d="M60 3337h25.5"></path><g><path d="M85.5 3337h10"></path><path d="M183.5 3337h10"></path><g class="terminal "><path d="M95.5 3337h0"></path><path d="M183.5 3337h0"></path><rect x="95.5" y="3326" width="88" height="22"></rect><text x="139.5" y="3341">REQUIRED</text></g></g><path d="M193.5 3337h25.5"></path></g><path d="M219 3337a10 10 0 0 0 10 -10v-3286a10 10 0 0 1 10 -10"></path><path d="M40 31a10 10 0 0 1 10 10v3324a10 10 0 0 0 10 10"></path><g><path d="M60 3375h38.25"></path><g><path d="M98.25 3375h10"></path><path d="M170.75 3375h10"></path><g class="terminal "><path d="M108.25 3375h0"></path><path d="M170.75 3375h0"></path><rect x="108.25" y="3364" width="62.5" height="22"></rect><text x="139.5" y="3379">ITEMS</text></g></g><path d="M180.75 3375h38.25"></path></g><path d="M219 3375a10 10 0 0 0 10 -10v-3324a10 10 0 0 1 10 -10"></path><path d="M40 31a10 10 0 0 1 10 10v3362a10 10 0 0 0 10 10"></path><g><path d="M60 3413h46.75"></path><g><path d="M106.75 3413h10"></path><path d="M162.25 3413h10"></path><g class="terminal "><path d="M116.75 3413h0"></path><path d="M162.25 3413h0"></path><rect x="116.75" y="3402" width="45.5" height="22"></rect><text x="139.5" y="3417">PER</text></g></g><path d="M172.25 3413h46.75"></path></g><path d="M219 3413a10 10 0 0 0 10 -10v-3362a10 10 0 0 1 10 -10"></path><path d="M40 31a10 10 0 0 1 10 10v3400a10 10 0 0 0 10 10"></path><g><path d="M60 3451h29.75"></path><g><path d="M89.75 3451h10"></path><path d="M179.25 3451h10"></path><g class="terminal "><path d="M99.75 3451h0"></path><path d="M179.25 3451h0"></path><rect x="99.75" y="3440" width="79.5" height="22"></rect><text x="139.5" y="3455">CONTENT</text></g></g><path d="M189.25 3451h29.75"></path></g><path d="M219 3451a10 10 0 0 0 10 -10v-3400a10 10 0 0 1 10 -10"></path><path d="M40 31a10 10 0 0 1 10 10v3438a10 10 0 0 0 10 10"></path><g><path d="M60 3489h38.25"></path><g><path d="M98.25 3489h10"></path><path d="M170.75 3489h10"></path><g class="terminal "><path d="M108.25 3489h0"></path><path d="M170.75 3489h0"></path><rect x="108.25" y="3478" width="62.5" height="22"></rect><text x="139.5" y="3493">MEDIA</text></g></g><path d="M180.75 3489h38.25"></path></g><path d="M219 3489a10 10 0 0 0 10 -10v-3438a10 10 0 0 1 10 -10"></path><path d="M40 31a10 10 0 0 1 10 10v3476a10 10 0 0 0 10 10"></path><g><path d="M60 3527h17"></path><g><path d="M77 3527h10"></path><path d="M192 3527h10"></path><g class="terminal "><path d="M87 3527h0"></path><path d="M192 3527h0"></path><rect x="87" y="3516" width="105" height="22"></rect><text x="139.5" y="3531">AUTODETECT</text></g></g><path d="M202 3527h17"></path></g><path d="M219 3527a10 10 0 0 0 10 -10v-3476a10 10 0 0 1 10 -10"></path><path d="M40 31a10 10 0 0 1 10 10v3514a10 10 0 0 0 10 10"></path><g><path d="M60 3565h42.5"></path><g><path d="M102.5 3565h10"></path><path d="M166.5 3565h10"></path><g class="terminal "><path d="M112.5 3565h0"></path><path d="M166.5 3565h0"></path><rect x="112.5" y="3554" width="54" height="22"></rect><text x="139.5" y="3569">FEED</text></g></g><path d="M176.5 3565h42.5"></path></g><path d="M219 3565a10 10 0 0 0 10 -10v-3514a10 10 0 0 1 10 -10"></path><path d="M40 31a10 10 0 0 1 10 10v3552a10 10 0 0 0 10 10"></path><g><path d="M60 3603h42.5"></path><g><path d="M102.5 3603h10"></path><path d="M166.5 3603h10"></path><g class="terminal "><path d="M112.5 3603h0"></path><path d="M166.5 3603h0"></path><rect x="112.5" y="3592" width="54" height="22"></rect><text x="139.5" y="3607">ITEM</text></g></g><path d="M176.5 3603h42.5"></path></g><path d="M219 3603a10 10 0 0 0 10 -10v-3552a10 10 0 0 1 10 -10"></path><path d="M40 31a10 10 0 0 1 10 10v3590a10 10 0 0 0 10 10"></path><g><path d="M60 3641h42.5"></path><g><path d="M102.5 3641h10"></path><path d="M166.5 3641h10"></path><g class="terminal "><path d="M112.5 3641h0"></path><path d="M166.5 3641h0"></path><rect x="112.5" y="3630" width="54" height="22"></rect><text x="139.5" y="3645">SETS</text></g></g><path d="M176.5 3641h42.5"></path></g><path d="M219 3641a10 10 0 0 0 10 -10v-3590a10 10 0 0 1 10 -10"></path><path d="M40 31a10 10 0 0 1 10 10v3628a10 10 0 0 0 10 10"></path><g><path d="M60 3679h38.25"></path><g><path d="M98.25 3679h10"></path><path d="M170.75 3679h10"></path><g class="terminal "><path d="M108.25 3679h0"></path><path d="M170.75 3679h0"></path><rect x="108.25" y="3668" width="62.5" height="22"></rect><text x="139.5" y="3683">FILES</text></g></g><path d="M180.75 3679h38.25"></path></g><path d="M219 3679a10 10 0 0 0 10 -10v-3628a10 10 0 0 1 10 -10"></path><path d="M40 31a10 10 0 0 1 10 10v3666a10 10 0 0 0 10 10"></path><g><path d="M60 3717h42.5"></path><g><path d="M102.5 3717h10"></path><path d="M166.5 3717h10"></path><g class="terminal "><path d="M112.5 3717h0"></path><path d="M166.5 3717h0"></path><rect x="112.5" y="3706" width="54" height="22"></rect><text x="139.5" y="3721">AUTH</text></g></g><path d="M176.5 3717h42.5"></path></g><path d="M219 3717a10 10 0 0 0 10 -10v-3666a10 10 0 0 1 10 -10"></path><path d="M40 31a10 10 0 0 1 10 10v3704a10 10 0 0 0 10 10"></path><g><path d="M60 3755h42.5"></path><g><path d="M102.5 3755h10"></path><path d="M166.5 3755h10"></path><g class="terminal "><path d="M112.5 3755h0"></path><path d="M166.5 3755h0"></path><rect x="112.5" y="3744" width="54" height="22"></rect><text x="139.5" y="3759">APPS</text></g></g><path d="M176.5 3755h42.5"></path></g><path d="M219 3755a10 10 0 0 0 10 -10v-3704a10 10 0 0 1 10 -10"></path><path d="M40 31a10 10 0 0 1 10 10v3742a10 10 0 0 0 10 10"></path><g><path d="M60 3793h46.75"></path><g><path d="M106.75 3793h10"></path><path d="M162.25 3793h10"></path><g class="terminal "><path d="M116.75 3793h0"></path><path d="M162.25 3793h0"></path><rect x="116.75" y="3782" width="45.5" height="22"></rect><text x="139.5" y="3797">APP</text></g></g><path d="M172.25 3793h46.75"></path></g><path d="M219 3793a10 10 0 0 0 10 -10v-3742a10 10 0 0 1 10 -10"></path><path d="M40 31a10 10 0 0 1 10 10v3780a10 10 0 0 0 10 10"></path><g><path d="M60 3831h51"></path><g><path d="M111 3831h10"></path><path d="M158 3831h10"></path><g class="terminal "><path d="M121 3831h0"></path><path d="M158 3831h0"></path><rect x="121" y="3820" width="37" height="22"></rect><text x="139.5" y="3835">ID</text></g></g><path d="M168 3831h51"></path></g><path d="M219 3831a10 10 0 0 0 10 -10v-3780a10 10 0 0 1 10 -10"></path><path d="M40 31a10 10 0 0 1 10 10v3818a10 10 0 0 0 10 10"></path><g><path d="M60 3869h34"></path><g><path d="M94 3869h10"></path><path d="M175 3869h10"></path><g class="terminal "><path d="M104 3869h0"></path><path d="M175 3869h0"></path><rect x="104" y="3858" width="71" height="22"></rect><text x="139.5" y="3873">SECRET</text></g></g><path d="M185 3869h34"></path></g><path d="M219 3869a10 10 0 0 0 10 -10v-3818a10 10 0 0 1 10 -10"></path><path d="M40 31a10 10 0 0 1 10 10v3856a10 10 0 0 0 10 10"></path><g><path d="M60 3907h34"></path><g><path d="M94 3907h10"></path><path d="M175 3907h10"></path><g class="terminal "><path d="M104 3907h0"></path><path d="M175 3907h0"></path><rect x="104" y="3896" width="71" height="22"></rect><text x="139.5" y="3911">VENDOR</text></g></g><path d="M185 3907h34"></path></g><path d="M219 3907a10 10 0 0 0 10 -10v-3856a10 10 0 0 1 10 -10"></path><path d="M40 31a10 10 0 0 1 10 10v3894a10 10 0 0 0 10 10"></path><g><path d="M60 3945h46.75"></path><g><path d="M106.75 3945h10"></path><path d="M162.25 3945h10"></path><g class="terminal "><path d="M116.75 3945h0"></path><path d="M162.25 3945h0"></path><rect x="116.75" y="3934" width="45.5" height="22"></rect><text x="139.5" y="3949">MRS</text></g></g><path d="M172.25 3945h46.75"></path></g><path d="M219 3945a10 10 0 0 0 10 -10v-3894a10 10 0 0 1 10 -10"></path><path d="M40 31a10 10 0 0 1 10 10v3932a10 10 0 0 0 10 10"></path><g><path d="M60 3983h38.25"></path><g><path d="M98.25 3983h10"></path><path d="M170.75 3983h10"></path><g class="terminal "><path d="M108.25 3983h0"></path><path d="M170.75 3983h0"></path><rect x="108.25" y="3972" width="62.5" height="22"></rect><text x="139.5" y="3987">MYSQL</text></g></g><path d="M180.75 3983h38.25"></path></g><path d="M219 3983a10 10 0 0 0 10 -10v-3932a10 10 0 0 1 10 -10"></path><path d="M40 31a10 10 0 0 1 10 10v3970a10 10 0 0 0 10 10"></path><g><path d="M60 4021h38.25"></path><g><path d="M98.25 4021h10"></path><path d="M170.75 4021h10"></path><g class="terminal "><path d="M108.25 4021h0"></path><path d="M170.75 4021h0"></path><rect x="108.25" y="4010" width="62.5" height="22"></rect><text x="139.5" y="4025">USERS</text></g></g><path d="M180.75 4021h38.25"></path></g><path d="M219 4021a10 10 0 0 0 10 -10v-3970a10 10 0 0 1 10 -10"></path><path d="M40 31a10 10 0 0 1 10 10v4008a10 10 0 0 0 10 10"></path><g><path d="M60 4059h38.25"></path><g><path d="M98.25 4059h10"></path><path d="M170.75 4059h10"></path><g class="terminal "><path d="M108.25 4059h0"></path><path d="M170.75 4059h0"></path><rect x="108.25" y="4048" width="62.5" height="22"></rect><text x="139.5" y="4063">ALLOW</text></g></g><path d="M180.75 4059h38.25"></path></g><path d="M219 4059a10 10 0 0 0 10 -10v-4008a10 10 0 0 1 10 -10"></path><path d="M40 31a10 10 0 0 1 10 10v4046a10 10 0 0 0 10 10"></path><g><path d="M60 4097h25.5"></path><g><path d="M85.5 4097h10"></path><path d="M183.5 4097h10"></path><g class="terminal "><path d="M95.5 4097h0"></path><path d="M183.5 4097h0"></path><rect x="95.5" y="4086" width="88" height="22"></rect><text x="139.5" y="4101">REGISTER</text></g></g><path d="M193.5 4097h25.5"></path></g><path d="M219 4097a10 10 0 0 0 10 -10v-4046a10 10 0 0 1 10 -10"></path><path d="M40 31a10 10 0 0 1 10 10v4084a10 10 0 0 0 10 10"></path><g><path d="M60 4135h38.25"></path><g><path d="M98.25 4135h10"></path><path d="M170.75 4135h10"></path><g class="terminal "><path d="M108.25 4135h0"></path><path d="M170.75 4135h0"></path><rect x="108.25" y="4124" width="62.5" height="22"></rect><text x="139.5" y="4139">CLASS</text></g></g><path d="M180.75 4135h38.25"></path></g><path d="M219 4135a10 10 0 0 0 10 -10v-4084a10 10 0 0 1 10 -10"></path><path d="M40 31a10 10 0 0 1 10 10v4122a10 10 0 0 0 10 10"></path><g><path d="M60 4173h12.75"></path><g><path d="M72.75 4173h10"></path><path d="M196.25 4173h10"></path><g class="terminal "><path d="M82.75 4173h0"></path><path d="M196.25 4173h0"></path><rect x="82.75" y="4162" width="113.5" height="22"></rect><text x="139.5" y="4177">DEVELOPMENT</text></g></g><path d="M206.25 4173h12.75"></path></g><path d="M219 4173a10 10 0 0 0 10 -10v-4122a10 10 0 0 1 10 -10"></path><path d="M40 31a10 10 0 0 1 10 10v4160a10 10 0 0 0 10 10"></path><g><path d="M60 4211h29.75"></path><g><path d="M89.75 4211h10"></path><path d="M179.25 4211h10"></path><g class="terminal "><path d="M99.75 4211h0"></path><path d="M179.25 4211h0"></path><rect x="99.75" y="4200" width="79.5" height="22"></rect><text x="139.5" y="4215">SCRIPTS</text></g></g><path d="M189.25 4211h29.75"></path></g><path d="M219 4211a10 10 0 0 0 10 -10v-4160a10 10 0 0 1 10 -10"></path><path d="M40 31a10 10 0 0 1 10 10v4198a10 10 0 0 0 10 10"></path><g><path d="M60 4249h29.75"></path><g><path d="M89.75 4249h10"></path><path d="M179.25 4249h10"></path><g class="terminal "><path d="M99.75 4249h0"></path><path d="M179.25 4249h0"></path><rect x="99.75" y="4238" width="79.5" height="22"></rect><text x="139.5" y="4253">MAPPING</text></g></g><path d="M189.25 4249h29.75"></path></g><path d="M219 4249a10 10 0 0 0 10 -10v-4198a10 10 0 0 1 10 -10"></path><path d="M40 31a10 10 0 0 1 10 10v4236a10 10 0 0 0 10 10"></path><g><path d="M60 4287h17"></path><g><path d="M77 4287h10"></path><path d="M192 4287h10"></path><g class="terminal "><path d="M87 4287h0"></path><path d="M192 4287h0"></path><rect x="87" y="4276" width="105" height="22"></rect><text x="139.5" y="4291">TYPESCRIPT</text></g></g><path d="M202 4287h17"></path></g><path d="M219 4287a10 10 0 0 0 10 -10v-4236a10 10 0 0 1 10 -10"></path><path d="M40 31a10 10 0 0 1 10 10v4274a10 10 0 0 0 10 10"></path><g><path d="M60 4325h38.25"></path><g><path d="M98.25 4325h10"></path><path d="M170.75 4325h10"></path><g class="terminal "><path d="M108.25 4325h0"></path><path d="M170.75 4325h0"></path><rect x="108.25" y="4314" width="62.5" height="22"></rect><text x="139.5" y="4329">ROLES</text></g></g><path d="M180.75 4325h38.25"></path></g><path d="M219 4325a10 10 0 0 0 10 -10v-4274a10 10 0 0 1 10 -10"></path><path d="M40 31a10 10 0 0 1 10 10v4312a10 10 0 0 0 10 10"></path><g><path d="M60 4363h29.75"></path><g><path d="M89.75 4363h10"></path><path d="M179.25 4363h10"></path><g class="terminal "><path d="M99.75 4363h0"></path><path d="M179.25 4363h0"></path><rect x="99.75" y="4352" width="79.5" height="22"></rect><text x="139.5" y="4367">EXTENDS</text></g></g><path d="M189.25 4363h29.75"></path></g><path d="M219 4363a10 10 0 0 0 10 -10v-4312a10 10 0 0 1 10 -10"></path><path d="M40 31a10 10 0 0 1 10 10v4350a10 10 0 0 0 10 10"></path><g><path d="M60 4401h34"></path><g><path d="M94 4401h10"></path><path d="M175 4401h10"></path><g class="terminal "><path d="M104 4401h0"></path><path d="M175 4401h0"></path><rect x="104" y="4390" width="71" height="22"></rect><text x="139.5" y="4405">OBJECT</text></g></g><path d="M185 4401h34"></path></g><path d="M219 4401a10 10 0 0 0 10 -10v-4350a10 10 0 0 1 10 -10"></path><path d="M40 31a10 10 0 0 1 10 10v4388a10 10 0 0 0 10 10"></path><g><path d="M60 4439h21.25"></path><g><path d="M81.25 4439h10"></path><path d="M187.75 4439h10"></path><g class="terminal "><path d="M91.25 4439h0"></path><path d="M187.75 4439h0"></path><rect x="91.25" y="4428" width="96.5" height="22"></rect><text x="139.5" y="4443">HIERARCHY</text></g></g><path d="M197.75 4439h21.25"></path></g><path d="M219 4439a10 10 0 0 0 10 -10v-4388a10 10 0 0 1 10 -10"></path></g><path d="M 239 31 h 20 m 0 -10 v 20"></path></g><defs><style type="text/css"><![CDATA[
svg.railroad-diagram path { stroke-width: 2; stroke: darkgray; fill: rgba(0, 0, 0, 0); }svg.railroad-diagram text { font: bold 12px Hack, "Source Code Pro", monospace; text-anchor: middle; fill: #404040; }svg.railroad-diagram text.comment { font: italic 10px Hack, "Source Code Pro", monospace; fill: #404040; }svg.railroad-diagram g.terminal rect { stroke-width: 2; stroke: #404040; fill: rgba(200, 200, 200, 0.8); }svg.railroad-diagram g.non-terminal rect { stroke-width: 2; stroke: #404040; fill: rgba(255, 255, 255, 1); }svg.railroad-diagram text.diagram-text { font-size: 12px Hack, "Source Code Pro", monospace; fill: red; }svg.railroad-diagram path.diagram-text { stroke-width: 1; stroke: red; fill: red; cursor: help; }
 ]]>
</style></defs></svg>