<?xml version="1.0" encoding="UTF-8" standalone="no"?>
<!DOCTYPE svg PUBLIC "-//W3C//DTD SVG 1.1//EN" "http://www.w3.org/Graphics/SVG/1.1/DTD/svg11.dtd">
<svg class="railroad-diagram" width="367.5" height="268" viewBox="0 0 367.5 268" id="graphQlValueOptions" xmlns="http://www.w3.org/2000/svg" xmlns:xlink="http://www.w3.org/1999/xlink"><g transform="translate(.5 .5)"><g><path d="M20 21v20m0 -10h20"></path></g><g><path d="M40 31h0"></path><path d="M327.5 31h0"></path><path d="M40 31h20"></path><g><path d="M60 31h0"></path><g><path d="M60 31h10"></path><path d="M297.5 31h10"></path><g><path d="M70 31h0"></path><path d="M297.5 31h0"></path><path d="M70 31h10"></path><g><path d="M80 31h0"></path><path d="M287.5 31h0"></path><path d="M80 31h20"></path><g><path d="M100 31h21.25"></path><g><path d="M121.25 31h10"></path><path d="M236.25 31h10"></path><g class="terminal "><path d="M131.25 31h0"></path><path d="M236.25 31h0"></path><rect x="131.25" y="20" width="105" height="22"></rect><text x="183.75" y="35">AT_NOCHECK</text></g></g><path d="M246.25 31h21.25"></path></g><path d="M267.5 31h20"></path><path d="M80 31a10 10 0 0 1 10 10v18a10 10 0 0 0 10 10"></path><g><path d="M100 69h17"></path><g><path d="M117 69h10"></path><path d="M240.5 69h10"></path><g class="terminal "><path d="M127 69h0"></path><path d="M240.5 69h0"></path><rect x="127" y="58" width="113.5" height="22"></rect><text x="183.75" y="73">AT_SORTABLE</text></g></g><path d="M250.5 69h17"></path></g><path d="M267.5 69a10 10 0 0 0 10 -10v-18a10 10 0 0 1 10 -10"></path><path d="M80 31a10 10 0 0 1 10 10v56a10 10 0 0 0 10 10"></path><g><path d="M100 107h4.25"></path><g><path d="M104.25 107h10"></path><path d="M253.25 107h10"></path><g class="terminal "><path d="M114.25 107h0"></path><path d="M253.25 107h0"></path><rect x="114.25" y="96" width="139" height="22"></rect><text x="183.75" y="111">AT_NOFILTERING</text></g></g><path d="M263.25 107h4.25"></path></g><path d="M267.5 107a10 10 0 0 0 10 -10v-56a10 10 0 0 1 10 -10"></path><path d="M80 31a10 10 0 0 1 10 10v94a10 10 0 0 0 10 10"></path><g><path d="M100 145h0"></path><g><path d="M100 145h10"></path><path d="M257.5 145h10"></path><g class="terminal "><path d="M110 145h0"></path><path d="M257.5 145h0"></path><rect x="110" y="134" width="147.5" height="22"></rect><text x="183.75" y="149">AT_ROWOWNERSHIP</text></g></g><path d="M267.5 145h0"></path></g><path d="M267.5 145a10 10 0 0 0 10 -10v-94a10 10 0 0 1 10 -10"></path><path d="M80 31a10 10 0 0 1 10 10v132a10 10 0 0 0 10 10"></path><g><path d="M100 183h25.5"></path><g><path d="M125.5 183h10"></path><path d="M232 183h10"></path><g class="terminal "><path d="M135.5 183h0"></path><path d="M232 183h0"></path><rect x="135.5" y="172" width="96.5" height="22"></rect><text x="183.75" y="187">AT_UNNEST</text></g></g><path d="M242 183h25.5"></path></g><path d="M267.5 183a10 10 0 0 0 10 -10v-132a10 10 0 0 1 10 -10"></path><path d="M80 31a10 10 0 0 1 10 10v170a10 10 0 0 0 10 10"></path><g><path d="M100 221h38.25"></path><g><path d="M138.25 221h10"></path><path d="M219.25 221h10"></path><g class="terminal "><path d="M148.25 221h0"></path><path d="M219.25 221h0"></path><rect x="148.25" y="210" width="71" height="22"></rect><text x="183.75" y="225">AT_KEY</text></g></g><path d="M229.25 221h38.25"></path></g><path d="M267.5 221a10 10 0 0 0 10 -10v-170a10 10 0 0 1 10 -10"></path></g><path d="M287.5 31h10"></path><path d="M80 31a10 10 0 0 0 -10 10v197a10 10 0 0 0 10 10"></path><g><path d="M80 248h207.5"></path></g><path d="M287.5 248a10 10 0 0 0 10 -10v-197a10 10 0 0 0 -10 -10"></path></g></g><path d="M307.5 31h0"></path></g><path d="M307.5 31h20"></path></g><path d="M 327.5 31 h 20 m 0 -10 v 20"></path></g><defs><style type="text/css"><![CDATA[
svg.railroad-diagram path { stroke-width: 2; stroke: darkgray; fill: rgba(0, 0, 0, 0); }svg.railroad-diagram text { font: bold 12px Hack, "Source Code Pro", monospace; text-anchor: middle; fill: #404040; }svg.railroad-diagram text.comment { font: italic 10px Hack, "Source Code Pro", monospace; fill: #404040; }svg.railroad-diagram g.terminal rect { stroke-width: 2; stroke: #404040; fill: rgba(200, 200, 200, 0.8); }svg.railroad-diagram g.non-terminal rect { stroke-width: 2; stroke: #404040; fill: rgba(255, 255, 255, 1); }svg.railroad-diagram text.diagram-text { font-size: 12px Hack, "Source Code Pro", monospace; fill: red; }svg.railroad-diagram path.diagram-text { stroke-width: 1; stroke: red; fill: red; cursor: help; }
 ]]>
</style></defs></svg>