<?xml version="1.0" encoding="UTF-8" standalone="no"?>
<!DOCTYPE svg PUBLIC "-//W3C//DTD SVG 1.1//EN" "http://www.w3.org/Graphics/SVG/1.1/DTD/svg11.dtd">
<svg class="railroad-diagram" width="828" height="132" viewBox="0 0 828 132" id="graphQlObj" xmlns="http://www.w3.org/2000/svg" xmlns:xlink="http://www.w3.org/1999/xlink"><g transform="translate(.5 .5)"><g><path d="M20 37v20m0 -10h20"></path></g><g><path d="M40 47h0"></path><path d="M788 47h0"></path><path d="M40 47h20"></path><g><path d="M60 47h0"></path><g><path d="M60 47h10"></path><path d="M758 47h10"></path><g class="terminal "><path d="M70 47h0"></path><path d="M175 47h0"></path><rect x="70" y="36" width="105" height="22"></rect><text x="122.5" y="51">OPEN_CURLY</text></g><path d="M175 47h10"></path><path d="M185 47h10"></path><g class="non-terminal "><path d="M195 47h0"></path><path d="M308.5 47h0"></path><rect x="195" y="36" width="113.5" height="22" rx="10" ry="10"></rect><text x="251.75" y="51">graphQlPair</text></g><path d="M308.5 47h10"></path><g><path d="M318.5 47h0"></path><path d="M634.5 47h0"></path><path d="M318.5 47a10 10 0 0 0 10 -10v-7a10 10 0 0 1 10 -10"></path><g><path d="M338.5 20h276"></path></g><path d="M614.5 20a10 10 0 0 1 10 10v7a10 10 0 0 0 10 10"></path><path d="M318.5 47h20"></path><g><path d="M338.5 47h0"></path><path d="M614.5 47h0"></path><path d="M338.5 47h10"></path><g><path d="M348.5 47h0"></path><path d="M604.5 47h0"></path><path d="M348.5 47h20"></path><g><path d="M368.5 47h0"></path><g><path d="M368.5 47h10"></path><path d="M574.5 47h10"></path><g class="terminal "><path d="M378.5 47h0"></path><path d="M441 47h0"></path><rect x="378.5" y="36" width="62.5" height="22"></rect><text x="409.75" y="51">COMMA</text></g><path d="M441 47h10"></path><path d="M451 47h10"></path><g class="non-terminal "><path d="M461 47h0"></path><path d="M574.5 47h0"></path><rect x="461" y="36" width="113.5" height="22" rx="10" ry="10"></rect><text x="517.75" y="51">graphQlPair</text></g></g><path d="M584.5 47h0"></path></g><path d="M584.5 47h20"></path></g><path d="M604.5 47h10"></path><path d="M348.5 47a10 10 0 0 0 -10 10v7a10 10 0 0 0 10 10"></path><g><path d="M348.5 74h256"></path></g><path d="M604.5 74a10 10 0 0 0 10 -10v-7a10 10 0 0 0 -10 -10"></path></g><path d="M614.5 47h20"></path></g><path d="M634.5 47h10"></path><g class="terminal "><path d="M644.5 47h0"></path><path d="M758 47h0"></path><rect x="644.5" y="36" width="113.5" height="22"></rect><text x="701.25" y="51">CLOSE_CURLY</text></g></g><path d="M768 47h0"></path></g><path d="M768 47h20"></path><path d="M40 47a10 10 0 0 1 10 10v34a10 10 0 0 0 10 10"></path><g><path d="M60 101h224.75"></path><g><path d="M284.75 101h10"></path><path d="M533.25 101h10"></path><g class="terminal "><path d="M294.75 101h0"></path><path d="M399.75 101h0"></path><rect x="294.75" y="90" width="105" height="22"></rect><text x="347.25" y="105">OPEN_CURLY</text></g><path d="M399.75 101h10"></path><path d="M409.75 101h10"></path><g class="terminal "><path d="M419.75 101h0"></path><path d="M533.25 101h0"></path><rect x="419.75" y="90" width="113.5" height="22"></rect><text x="476.5" y="105">CLOSE_CURLY</text></g></g><path d="M543.25 101h224.75"></path></g><path d="M768 101a10 10 0 0 0 10 -10v-34a10 10 0 0 1 10 -10"></path></g><path d="M 788 47 h 20 m 0 -10 v 20"></path></g><defs><style type="text/css"><![CDATA[
svg.railroad-diagram path { stroke-width: 2; stroke: darkgray; fill: rgba(0, 0, 0, 0); }svg.railroad-diagram text { font: bold 12px Hack, "Source Code Pro", monospace; text-anchor: middle; fill: #404040; }svg.railroad-diagram text.comment { font: italic 10px Hack, "Source Code Pro", monospace; fill: #404040; }svg.railroad-diagram g.terminal rect { stroke-width: 2; stroke: #404040; fill: rgba(200, 200, 200, 0.8); }svg.railroad-diagram g.non-terminal rect { stroke-width: 2; stroke: #404040; fill: rgba(255, 255, 255, 1); }svg.railroad-diagram text.diagram-text { font-size: 12px Hack, "Source Code Pro", monospace; fill: red; }svg.railroad-diagram path.diagram-text { stroke-width: 1; stroke: red; fill: red; cursor: help; }
 ]]>
</style></defs></svg>