<?xml version="1.0" encoding="UTF-8" standalone="no"?>
<!DOCTYPE svg PUBLIC "-//W3C//DTD SVG 1.1//EN" "http://www.w3.org/Graphics/SVG/1.1/DTD/svg11.dtd">
<svg class="railroad-diagram" width="503.5" height="62" viewBox="0 0 503.5 62" id="identifierListWithParentheses" xmlns="http://www.w3.org/2000/svg" xmlns:xlink="http://www.w3.org/1999/xlink"><g transform="translate(.5 .5)"><g><path d="M20 21v20m0 -10h20"></path></g><g><path d="M40 31h0"></path><path d="M463.5 31h0"></path><path d="M40 31h20"></path><g><path d="M60 31h0"></path><g><path d="M60 31h10"></path><path d="M433.5 31h10"></path><g class="terminal "><path d="M70 31h0"></path><path d="M158 31h0"></path><rect x="70" y="20" width="88" height="22"></rect><text x="114" y="35">OPEN_PAR</text></g><path d="M158 31h10"></path><path d="M168 31h10"></path><g class="non-terminal "><path d="M178 31h0"></path><path d="M317 31h0"></path><rect x="178" y="20" width="139" height="22" rx="10" ry="10"></rect><text x="247.5" y="35">identifierList</text></g><path d="M317 31h10"></path><path d="M327 31h10"></path><g class="terminal "><path d="M337 31h0"></path><path d="M433.5 31h0"></path><rect x="337" y="20" width="96.5" height="22"></rect><text x="385.25" y="35">CLOSE_PAR</text></g></g><path d="M443.5 31h0"></path></g><path d="M443.5 31h20"></path></g><path d="M 463.5 31 h 20 m 0 -10 v 20"></path></g><defs><style type="text/css"><![CDATA[
svg.railroad-diagram path { stroke-width: 2; stroke: darkgray; fill: rgba(0, 0, 0, 0); }svg.railroad-diagram text { font: bold 12px Hack, "Source Code Pro", monospace; text-anchor: middle; fill: #404040; }svg.railroad-diagram text.comment { font: italic 10px Hack, "Source Code Pro", monospace; fill: #404040; }svg.railroad-diagram g.terminal rect { stroke-width: 2; stroke: #404040; fill: rgba(200, 200, 200, 0.8); }svg.railroad-diagram g.non-terminal rect { stroke-width: 2; stroke: #404040; fill: rgba(255, 255, 255, 1); }svg.railroad-diagram text.diagram-text { font-size: 12px Hack, "Source Code Pro", monospace; fill: red; }svg.railroad-diagram path.diagram-text { stroke-width: 1; stroke: red; fill: red; cursor: help; }
 ]]>
</style></defs></svg>