<?xml version="1.0" encoding="UTF-8" standalone="no"?>
<!DOCTYPE svg PUBLIC "-//W3C//DTD SVG 1.1//EN" "http://www.w3.org/Graphics/SVG/1.1/DTD/svg11.dtd">
<svg class="railroad-diagram" width="434.5" height="382" viewBox="0 0 434.5 382" id="jsonValue" xmlns="http://www.w3.org/2000/svg" xmlns:xlink="http://www.w3.org/1999/xlink"><g transform="translate(.5 .5)"><g><path d="M20 21v20m0 -10h20"></path></g><g><path d="M40 31h0"></path><path d="M394.5 31h0"></path><path d="M40 31h20"></path><g><path d="M60 31h60.75"></path><g><path d="M120.75 31h10"></path><path d="M303.75 31h10"></path><g class="terminal "><path d="M130.75 31h0"></path><path d="M303.75 31h0"></path><rect x="130.75" y="20" width="173" height="22"></rect><text x="217.25" y="35">DOUBLE_QUOTED_TEXT</text></g></g><path d="M313.75 31h60.75"></path></g><path d="M374.5 31h20"></path><path d="M40 31a10 10 0 0 1 10 10v34a10 10 0 0 0 10 10"></path><g><path d="M60 85h0"></path><g><path d="M60 85h10"></path><path d="M364.5 85h10"></path><g><path d="M70 85h0"></path><path d="M232.5 85h0"></path><path d="M70 85a10 10 0 0 0 10 -10v-7a10 10 0 0 1 10 -10"></path><g><path d="M90 58h122.5"></path></g><path d="M212.5 58a10 10 0 0 1 10 10v7a10 10 0 0 0 10 10"></path><path d="M70 85h20"></path><g><path d="M90 85h0"></path><path d="M212.5 85h0"></path><path d="M90 85h20"></path><g><path d="M110 85h0"></path><g><path d="M110 85h10"></path><path d="M182.5 85h10"></path><g class="terminal "><path d="M120 85h0"></path><path d="M182.5 85h0"></path><rect x="120" y="74" width="62.5" height="22"></rect><text x="151.25" y="89">MINUS</text></g></g><path d="M192.5 85h0"></path></g><path d="M192.5 85h20"></path><path d="M90 85a10 10 0 0 1 10 10v18a10 10 0 0 0 10 10"></path><g><path d="M110 123h4.25"></path><g><path d="M114.25 123h10"></path><path d="M178.25 123h10"></path><g class="terminal "><path d="M124.25 123h0"></path><path d="M178.25 123h0"></path><rect x="124.25" y="112" width="54" height="22"></rect><text x="151.25" y="127">PLUS</text></g></g><path d="M188.25 123h4.25"></path></g><path d="M192.5 123a10 10 0 0 0 10 -10v-18a10 10 0 0 1 10 -10"></path></g><path d="M212.5 85h20"></path></g><path d="M232.5 85h10"></path><g class="terminal "><path d="M242.5 85h0"></path><path d="M364.5 85h0"></path><rect x="242.5" y="74" width="122" height="22"></rect><text x="303.5" y="89">FLOAT_NUMBER</text></g></g><path d="M374.5 85h0"></path></g><path d="M374.5 85a10 10 0 0 0 10 -10v-34a10 10 0 0 1 10 -10"></path><path d="M40 31a10 10 0 0 1 10 10v110a10 10 0 0 0 10 10"></path><g><path d="M60 161h94.75"></path><g><path d="M154.75 161h10"></path><path d="M269.75 161h10"></path><g class="terminal "><path d="M164.75 161h0"></path><path d="M269.75 161h0"></path><rect x="164.75" y="150" width="105" height="22"></rect><text x="217.25" y="165">INT_NUMBER</text></g></g><path d="M279.75 161h94.75"></path></g><path d="M374.5 161a10 10 0 0 0 10 -10v-110a10 10 0 0 1 10 -10"></path><path d="M40 31a10 10 0 0 1 10 10v148a10 10 0 0 0 10 10"></path><g><path d="M60 199h107.5"></path><g><path d="M167.5 199h10"></path><path d="M257 199h10"></path><g class="non-terminal "><path d="M177.5 199h0"></path><path d="M257 199h0"></path><rect x="177.5" y="188" width="79.5" height="22" rx="10" ry="10"></rect><text x="217.25" y="203">jsonObj</text></g></g><path d="M267 199h107.5"></path></g><path d="M374.5 199a10 10 0 0 0 10 -10v-148a10 10 0 0 1 10 -10"></path><path d="M40 31a10 10 0 0 1 10 10v186a10 10 0 0 0 10 10"></path><g><path d="M60 237h107.5"></path><g><path d="M167.5 237h10"></path><path d="M257 237h10"></path><g class="non-terminal "><path d="M177.5 237h0"></path><path d="M257 237h0"></path><rect x="177.5" y="226" width="79.5" height="22" rx="10" ry="10"></rect><text x="217.25" y="241">jsonArr</text></g></g><path d="M267 237h107.5"></path></g><path d="M374.5 237a10 10 0 0 0 10 -10v-186a10 10 0 0 1 10 -10"></path><path d="M40 31a10 10 0 0 1 10 10v224a10 10 0 0 0 10 10"></path><g><path d="M60 275h120.25"></path><g><path d="M180.25 275h10"></path><path d="M244.25 275h10"></path><g class="terminal "><path d="M190.25 275h0"></path><path d="M244.25 275h0"></path><rect x="190.25" y="264" width="54" height="22"></rect><text x="217.25" y="279">TRUE</text></g></g><path d="M254.25 275h120.25"></path></g><path d="M374.5 275a10 10 0 0 0 10 -10v-224a10 10 0 0 1 10 -10"></path><path d="M40 31a10 10 0 0 1 10 10v262a10 10 0 0 0 10 10"></path><g><path d="M60 313h116"></path><g><path d="M176 313h10"></path><path d="M248.5 313h10"></path><g class="terminal "><path d="M186 313h0"></path><path d="M248.5 313h0"></path><rect x="186" y="302" width="62.5" height="22"></rect><text x="217.25" y="317">FALSE</text></g></g><path d="M258.5 313h116"></path></g><path d="M374.5 313a10 10 0 0 0 10 -10v-262a10 10 0 0 1 10 -10"></path><path d="M40 31a10 10 0 0 1 10 10v300a10 10 0 0 0 10 10"></path><g><path d="M60 351h120.25"></path><g><path d="M180.25 351h10"></path><path d="M244.25 351h10"></path><g class="terminal "><path d="M190.25 351h0"></path><path d="M244.25 351h0"></path><rect x="190.25" y="340" width="54" height="22"></rect><text x="217.25" y="355">NULL</text></g></g><path d="M254.25 351h120.25"></path></g><path d="M374.5 351a10 10 0 0 0 10 -10v-300a10 10 0 0 1 10 -10"></path></g><path d="M 394.5 31 h 20 m 0 -10 v 20"></path></g><defs><style type="text/css"><![CDATA[
svg.railroad-diagram path { stroke-width: 2; stroke: darkgray; fill: rgba(0, 0, 0, 0); }svg.railroad-diagram text { font: bold 12px Hack, "Source Code Pro", monospace; text-anchor: middle; fill: #404040; }svg.railroad-diagram text.comment { font: italic 10px Hack, "Source Code Pro", monospace; fill: #404040; }svg.railroad-diagram g.terminal rect { stroke-width: 2; stroke: #404040; fill: rgba(200, 200, 200, 0.8); }svg.railroad-diagram g.non-terminal rect { stroke-width: 2; stroke: #404040; fill: rgba(255, 255, 255, 1); }svg.railroad-diagram text.diagram-text { font-size: 12px Hack, "Source Code Pro", monospace; fill: red; }svg.railroad-diagram path.diagram-text { stroke-width: 1; stroke: red; fill: red; cursor: help; }
 ]]>
</style></defs></svg>