<?xml version="1.0" encoding="UTF-8" standalone="no"?>
<!DOCTYPE svg PUBLIC "-//W3C//DTD SVG 1.1//EN" "http://www.w3.org/Graphics/SVG/1.1/DTD/svg11.dtd">
<svg class="railroad-diagram" width="438.5" height="78" viewBox="0 0 438.5 78" id="loadScripts" xmlns="http://www.w3.org/2000/svg" xmlns:xlink="http://www.w3.org/1999/xlink"><g transform="translate(.5 .5)"><g><path d="M20 37v20m0 -10h20"></path></g><g><path d="M40 47h0"></path><path d="M398.5 47h0"></path><path d="M40 47h20"></path><g><path d="M60 47h0"></path><g><path d="M60 47h10"></path><path d="M368.5 47h10"></path><g class="terminal "><path d="M70 47h0"></path><path d="M124 47h0"></path><rect x="70" y="36" width="54" height="22"></rect><text x="97" y="51">LOAD</text></g><path d="M124 47h10"></path><g><path d="M134 47h0"></path><path d="M279 47h0"></path><path d="M134 47a10 10 0 0 0 10 -10v-7a10 10 0 0 1 10 -10"></path><g><path d="M154 20h105"></path></g><path d="M259 20a10 10 0 0 1 10 10v7a10 10 0 0 0 10 10"></path><path d="M134 47h20"></path><g class="terminal "><path d="M154 47h0"></path><path d="M259 47h0"></path><rect x="154" y="36" width="105" height="22"></rect><text x="206.5" y="51">TYPESCRIPT</text></g><path d="M259 47h20"></path></g><path d="M279 47h10"></path><g class="terminal "><path d="M289 47h0"></path><path d="M368.5 47h0"></path><rect x="289" y="36" width="79.5" height="22"></rect><text x="328.75" y="51">SCRIPTS</text></g></g><path d="M378.5 47h0"></path></g><path d="M378.5 47h20"></path></g><path d="M 398.5 47 h 20 m 0 -10 v 20"></path></g><defs><style type="text/css"><![CDATA[
svg.railroad-diagram path { stroke-width: 2; stroke: darkgray; fill: rgba(0, 0, 0, 0); }svg.railroad-diagram text { font: bold 12px Hack, "Source Code Pro", monospace; text-anchor: middle; fill: #404040; }svg.railroad-diagram text.comment { font: italic 10px Hack, "Source Code Pro", monospace; fill: #404040; }svg.railroad-diagram g.terminal rect { stroke-width: 2; stroke: #404040; fill: rgba(200, 200, 200, 0.8); }svg.railroad-diagram g.non-terminal rect { stroke-width: 2; stroke: #404040; fill: rgba(255, 255, 255, 1); }svg.railroad-diagram text.diagram-text { font-size: 12px Hack, "Source Code Pro", monospace; fill: red; }svg.railroad-diagram path.diagram-text { stroke-width: 1; stroke: red; fill: red; cursor: help; }
 ]]>
</style></defs></svg>