<?xml version="1.0" encoding="UTF-8" standalone="no"?>
<!DOCTYPE svg PUBLIC "-//W3C//DTD SVG 1.1//EN" "http://www.w3.org/Graphics/SVG/1.1/DTD/svg11.dtd">
<svg class="railroad-diagram" width="449" height="1658" viewBox="0 0 449 1658" id="mrsStatement" xmlns="http://www.w3.org/2000/svg" xmlns:xlink="http://www.w3.org/1999/xlink"><g transform="translate(.5 .5)"><g><path d="M20 21v20m0 -10h20"></path></g><g><path d="M40 31h0"></path><path d="M409 31h0"></path><path d="M40 31h20"></path><g><path d="M60 31h17"></path><g><path d="M77 31h10"></path><path d="M362 31h10"></path><g class="non-terminal "><path d="M87 31h0"></path><path d="M362 31h0"></path><rect x="87" y="20" width="275" height="22" rx="10" ry="10"></rect><text x="224.5" y="35">configureRestMetadataStatement</text></g></g><path d="M372 31h17"></path></g><path d="M389 31h20"></path><path d="M40 31a10 10 0 0 1 10 10v18a10 10 0 0 0 10 10"></path><g><path d="M60 69h34"></path><g><path d="M94 69h10"></path><path d="M345 69h10"></path><g class="non-terminal "><path d="M104 69h0"></path><path d="M345 69h0"></path><rect x="104" y="58" width="241" height="22" rx="10" ry="10"></rect><text x="224.5" y="73">createRestServiceStatement</text></g></g><path d="M355 69h34"></path></g><path d="M389 69a10 10 0 0 0 10 -10v-18a10 10 0 0 1 10 -10"></path><path d="M40 31a10 10 0 0 1 10 10v56a10 10 0 0 0 10 10"></path><g><path d="M60 107h38.25"></path><g><path d="M98.25 107h10"></path><path d="M340.75 107h10"></path><g class="non-terminal "><path d="M108.25 107h0"></path><path d="M340.75 107h0"></path><rect x="108.25" y="96" width="232.5" height="22" rx="10" ry="10"></rect><text x="224.5" y="111">createRestSchemaStatement</text></g></g><path d="M350.75 107h38.25"></path></g><path d="M389 107a10 10 0 0 0 10 -10v-56a10 10 0 0 1 10 -10"></path><path d="M40 31a10 10 0 0 1 10 10v94a10 10 0 0 0 10 10"></path><g><path d="M60 145h46.75"></path><g><path d="M106.75 145h10"></path><path d="M332.25 145h10"></path><g class="non-terminal "><path d="M116.75 145h0"></path><path d="M332.25 145h0"></path><rect x="116.75" y="134" width="215.5" height="22" rx="10" ry="10"></rect><text x="224.5" y="149">createRestViewStatement</text></g></g><path d="M342.25 145h46.75"></path></g><path d="M389 145a10 10 0 0 0 10 -10v-94a10 10 0 0 1 10 -10"></path><path d="M40 31a10 10 0 0 1 10 10v132a10 10 0 0 0 10 10"></path><g><path d="M60 183h25.5"></path><g><path d="M85.5 183h10"></path><path d="M353.5 183h10"></path><g class="non-terminal "><path d="M95.5 183h0"></path><path d="M353.5 183h0"></path><rect x="95.5" y="172" width="258" height="22" rx="10" ry="10"></rect><text x="224.5" y="187">createRestProcedureStatement</text></g></g><path d="M363.5 183h25.5"></path></g><path d="M389 183a10 10 0 0 0 10 -10v-132a10 10 0 0 1 10 -10"></path><path d="M40 31a10 10 0 0 1 10 10v170a10 10 0 0 0 10 10"></path><g><path d="M60 221h29.75"></path><g><path d="M89.75 221h10"></path><path d="M349.25 221h10"></path><g class="non-terminal "><path d="M99.75 221h0"></path><path d="M349.25 221h0"></path><rect x="99.75" y="210" width="249.5" height="22" rx="10" ry="10"></rect><text x="224.5" y="225">createRestFunctionStatement</text></g></g><path d="M359.25 221h29.75"></path></g><path d="M389 221a10 10 0 0 0 10 -10v-170a10 10 0 0 1 10 -10"></path><path d="M40 31a10 10 0 0 1 10 10v208a10 10 0 0 0 10 10"></path><g><path d="M60 259h21.25"></path><g><path d="M81.25 259h10"></path><path d="M357.75 259h10"></path><g class="non-terminal "><path d="M91.25 259h0"></path><path d="M357.75 259h0"></path><rect x="91.25" y="248" width="266.5" height="22" rx="10" ry="10"></rect><text x="224.5" y="263">createRestContentSetStatement</text></g></g><path d="M367.75 259h21.25"></path></g><path d="M389 259a10 10 0 0 0 10 -10v-208a10 10 0 0 1 10 -10"></path><path d="M40 31a10 10 0 0 1 10 10v246a10 10 0 0 0 10 10"></path><g><path d="M60 297h17"></path><g><path d="M77 297h10"></path><path d="M362 297h10"></path><g class="non-terminal "><path d="M87 297h0"></path><path d="M362 297h0"></path><rect x="87" y="286" width="275" height="22" rx="10" ry="10"></rect><text x="224.5" y="301">createRestContentFileStatement</text></g></g><path d="M372 297h17"></path></g><path d="M389 297a10 10 0 0 0 10 -10v-246a10 10 0 0 1 10 -10"></path><path d="M40 31a10 10 0 0 1 10 10v284a10 10 0 0 0 10 10"></path><g><path d="M60 335h34"></path><g><path d="M94 335h10"></path><path d="M345 335h10"></path><g class="non-terminal "><path d="M104 335h0"></path><path d="M345 335h0"></path><rect x="104" y="324" width="241" height="22" rx="10" ry="10"></rect><text x="224.5" y="339">createRestAuthAppStatement</text></g></g><path d="M355 335h34"></path></g><path d="M389 335a10 10 0 0 0 10 -10v-284a10 10 0 0 1 10 -10"></path><path d="M40 31a10 10 0 0 1 10 10v322a10 10 0 0 0 10 10"></path><g><path d="M60 373h46.75"></path><g><path d="M106.75 373h10"></path><path d="M332.25 373h10"></path><g class="non-terminal "><path d="M116.75 373h0"></path><path d="M332.25 373h0"></path><rect x="116.75" y="362" width="215.5" height="22" rx="10" ry="10"></rect><text x="224.5" y="377">createRestUserStatement</text></g></g><path d="M342.25 373h46.75"></path></g><path d="M389 373a10 10 0 0 0 10 -10v-322a10 10 0 0 1 10 -10"></path><path d="M40 31a10 10 0 0 1 10 10v360a10 10 0 0 0 10 10"></path><g><path d="M60 411h38.25"></path><g><path d="M98.25 411h10"></path><path d="M340.75 411h10"></path><g class="non-terminal "><path d="M108.25 411h0"></path><path d="M340.75 411h0"></path><rect x="108.25" y="400" width="232.5" height="22" rx="10" ry="10"></rect><text x="224.5" y="415">cloneRestServiceStatement</text></g></g><path d="M350.75 411h38.25"></path></g><path d="M389 411a10 10 0 0 0 10 -10v-360a10 10 0 0 1 10 -10"></path><path d="M40 31a10 10 0 0 1 10 10v398a10 10 0 0 0 10 10"></path><g><path d="M60 449h38.25"></path><g><path d="M98.25 449h10"></path><path d="M340.75 449h10"></path><g class="non-terminal "><path d="M108.25 449h0"></path><path d="M340.75 449h0"></path><rect x="108.25" y="438" width="232.5" height="22" rx="10" ry="10"></rect><text x="224.5" y="453">alterRestServiceStatement</text></g></g><path d="M350.75 449h38.25"></path></g><path d="M389 449a10 10 0 0 0 10 -10v-398a10 10 0 0 1 10 -10"></path><path d="M40 31a10 10 0 0 1 10 10v436a10 10 0 0 0 10 10"></path><g><path d="M60 487h42.5"></path><g><path d="M102.5 487h10"></path><path d="M336.5 487h10"></path><g class="non-terminal "><path d="M112.5 487h0"></path><path d="M336.5 487h0"></path><rect x="112.5" y="476" width="224" height="22" rx="10" ry="10"></rect><text x="224.5" y="491">alterRestSchemaStatement</text></g></g><path d="M346.5 487h42.5"></path></g><path d="M389 487a10 10 0 0 0 10 -10v-436a10 10 0 0 1 10 -10"></path><path d="M40 31a10 10 0 0 1 10 10v474a10 10 0 0 0 10 10"></path><g><path d="M60 525h51"></path><g><path d="M111 525h10"></path><path d="M328 525h10"></path><g class="non-terminal "><path d="M121 525h0"></path><path d="M328 525h0"></path><rect x="121" y="514" width="207" height="22" rx="10" ry="10"></rect><text x="224.5" y="529">alterRestViewStatement</text></g></g><path d="M338 525h51"></path></g><path d="M389 525a10 10 0 0 0 10 -10v-474a10 10 0 0 1 10 -10"></path><path d="M40 31a10 10 0 0 1 10 10v512a10 10 0 0 0 10 10"></path><g><path d="M60 563h29.75"></path><g><path d="M89.75 563h10"></path><path d="M349.25 563h10"></path><g class="non-terminal "><path d="M99.75 563h0"></path><path d="M349.25 563h0"></path><rect x="99.75" y="552" width="249.5" height="22" rx="10" ry="10"></rect><text x="224.5" y="567">alterRestProcedureStatement</text></g></g><path d="M359.25 563h29.75"></path></g><path d="M389 563a10 10 0 0 0 10 -10v-512a10 10 0 0 1 10 -10"></path><path d="M40 31a10 10 0 0 1 10 10v550a10 10 0 0 0 10 10"></path><g><path d="M60 601h34"></path><g><path d="M94 601h10"></path><path d="M345 601h10"></path><g class="non-terminal "><path d="M104 601h0"></path><path d="M345 601h0"></path><rect x="104" y="590" width="241" height="22" rx="10" ry="10"></rect><text x="224.5" y="605">alterRestFunctionStatement</text></g></g><path d="M355 601h34"></path></g><path d="M389 601a10 10 0 0 0 10 -10v-550a10 10 0 0 1 10 -10"></path><path d="M40 31a10 10 0 0 1 10 10v588a10 10 0 0 0 10 10"></path><g><path d="M60 639h42.5"></path><g><path d="M102.5 639h10"></path><path d="M336.5 639h10"></path><g class="non-terminal "><path d="M112.5 639h0"></path><path d="M336.5 639h0"></path><rect x="112.5" y="628" width="224" height="22" rx="10" ry="10"></rect><text x="224.5" y="643">dropRestServiceStatement</text></g></g><path d="M346.5 639h42.5"></path></g><path d="M389 639a10 10 0 0 0 10 -10v-588a10 10 0 0 1 10 -10"></path><path d="M40 31a10 10 0 0 1 10 10v626a10 10 0 0 0 10 10"></path><g><path d="M60 677h46.75"></path><g><path d="M106.75 677h10"></path><path d="M332.25 677h10"></path><g class="non-terminal "><path d="M116.75 677h0"></path><path d="M332.25 677h0"></path><rect x="116.75" y="666" width="215.5" height="22" rx="10" ry="10"></rect><text x="224.5" y="681">dropRestSchemaStatement</text></g></g><path d="M342.25 677h46.75"></path></g><path d="M389 677a10 10 0 0 0 10 -10v-626a10 10 0 0 1 10 -10"></path><path d="M40 31a10 10 0 0 1 10 10v664a10 10 0 0 0 10 10"></path><g><path d="M60 715h55.25"></path><g><path d="M115.25 715h10"></path><path d="M323.75 715h10"></path><g class="non-terminal "><path d="M125.25 715h0"></path><path d="M323.75 715h0"></path><rect x="125.25" y="704" width="198.5" height="22" rx="10" ry="10"></rect><text x="224.5" y="719">dropRestViewStatement</text></g></g><path d="M333.75 715h55.25"></path></g><path d="M389 715a10 10 0 0 0 10 -10v-664a10 10 0 0 1 10 -10"></path><path d="M40 31a10 10 0 0 1 10 10v702a10 10 0 0 0 10 10"></path><g><path d="M60 753h34"></path><g><path d="M94 753h10"></path><path d="M345 753h10"></path><g class="non-terminal "><path d="M104 753h0"></path><path d="M345 753h0"></path><rect x="104" y="742" width="241" height="22" rx="10" ry="10"></rect><text x="224.5" y="757">dropRestProcedureStatement</text></g></g><path d="M355 753h34"></path></g><path d="M389 753a10 10 0 0 0 10 -10v-702a10 10 0 0 1 10 -10"></path><path d="M40 31a10 10 0 0 1 10 10v740a10 10 0 0 0 10 10"></path><g><path d="M60 791h38.25"></path><g><path d="M98.25 791h10"></path><path d="M340.75 791h10"></path><g class="non-terminal "><path d="M108.25 791h0"></path><path d="M340.75 791h0"></path><rect x="108.25" y="780" width="232.5" height="22" rx="10" ry="10"></rect><text x="224.5" y="795">dropRestFunctionStatement</text></g></g><path d="M350.75 791h38.25"></path></g><path d="M389 791a10 10 0 0 0 10 -10v-740a10 10 0 0 1 10 -10"></path><path d="M40 31a10 10 0 0 1 10 10v778a10 10 0 0 0 10 10"></path><g><path d="M60 829h29.75"></path><g><path d="M89.75 829h10"></path><path d="M349.25 829h10"></path><g class="non-terminal "><path d="M99.75 829h0"></path><path d="M349.25 829h0"></path><rect x="99.75" y="818" width="249.5" height="22" rx="10" ry="10"></rect><text x="224.5" y="833">dropRestContentSetStatement</text></g></g><path d="M359.25 829h29.75"></path></g><path d="M389 829a10 10 0 0 0 10 -10v-778a10 10 0 0 1 10 -10"></path><path d="M40 31a10 10 0 0 1 10 10v816a10 10 0 0 0 10 10"></path><g><path d="M60 867h25.5"></path><g><path d="M85.5 867h10"></path><path d="M353.5 867h10"></path><g class="non-terminal "><path d="M95.5 867h0"></path><path d="M353.5 867h0"></path><rect x="95.5" y="856" width="258" height="22" rx="10" ry="10"></rect><text x="224.5" y="871">dropRestContentFileStatement</text></g></g><path d="M363.5 867h25.5"></path></g><path d="M389 867a10 10 0 0 0 10 -10v-816a10 10 0 0 1 10 -10"></path><path d="M40 31a10 10 0 0 1 10 10v854a10 10 0 0 0 10 10"></path><g><path d="M60 905h42.5"></path><g><path d="M102.5 905h10"></path><path d="M336.5 905h10"></path><g class="non-terminal "><path d="M112.5 905h0"></path><path d="M336.5 905h0"></path><rect x="112.5" y="894" width="224" height="22" rx="10" ry="10"></rect><text x="224.5" y="909">dropRestAuthAppStatement</text></g></g><path d="M346.5 905h42.5"></path></g><path d="M389 905a10 10 0 0 0 10 -10v-854a10 10 0 0 1 10 -10"></path><path d="M40 31a10 10 0 0 1 10 10v892a10 10 0 0 0 10 10"></path><g><path d="M60 943h55.25"></path><g><path d="M115.25 943h10"></path><path d="M323.75 943h10"></path><g class="non-terminal "><path d="M125.25 943h0"></path><path d="M323.75 943h0"></path><rect x="125.25" y="932" width="198.5" height="22" rx="10" ry="10"></rect><text x="224.5" y="947">dropRestUserStatement</text></g></g><path d="M333.75 943h55.25"></path></g><path d="M389 943a10 10 0 0 0 10 -10v-892a10 10 0 0 1 10 -10"></path><path d="M40 31a10 10 0 0 1 10 10v930a10 10 0 0 0 10 10"></path><g><path d="M60 981h93.5"></path><g><path d="M153.5 981h10"></path><path d="M285.5 981h10"></path><g class="non-terminal "><path d="M163.5 981h0"></path><path d="M285.5 981h0"></path><rect x="163.5" y="970" width="122" height="22" rx="10" ry="10"></rect><text x="224.5" y="985">useStatement</text></g></g><path d="M295.5 981h93.5"></path></g><path d="M389 981a10 10 0 0 0 10 -10v-930a10 10 0 0 1 10 -10"></path><path d="M40 31a10 10 0 0 1 10 10v968a10 10 0 0 0 10 10"></path><g><path d="M60 1019h12.75"></path><g><path d="M72.75 1019h10"></path><path d="M366.25 1019h10"></path><g class="non-terminal "><path d="M82.75 1019h0"></path><path d="M366.25 1019h0"></path><rect x="82.75" y="1008" width="283.5" height="22" rx="10" ry="10"></rect><text x="224.5" y="1023">showRestMetadataStatusStatement</text></g></g><path d="M376.25 1019h12.75"></path></g><path d="M389 1019a10 10 0 0 0 10 -10v-968a10 10 0 0 1 10 -10"></path><path d="M40 31a10 10 0 0 1 10 10v1006a10 10 0 0 0 10 10"></path><g><path d="M60 1057h38.25"></path><g><path d="M98.25 1057h10"></path><path d="M340.75 1057h10"></path><g class="non-terminal "><path d="M108.25 1057h0"></path><path d="M340.75 1057h0"></path><rect x="108.25" y="1046" width="232.5" height="22" rx="10" ry="10"></rect><text x="224.5" y="1061">showRestServicesStatement</text></g></g><path d="M350.75 1057h38.25"></path></g><path d="M389 1057a10 10 0 0 0 10 -10v-1006a10 10 0 0 1 10 -10"></path><path d="M40 31a10 10 0 0 1 10 10v1044a10 10 0 0 0 10 10"></path><g><path d="M60 1095h42.5"></path><g><path d="M102.5 1095h10"></path><path d="M336.5 1095h10"></path><g class="non-terminal "><path d="M112.5 1095h0"></path><path d="M336.5 1095h0"></path><rect x="112.5" y="1084" width="224" height="22" rx="10" ry="10"></rect><text x="224.5" y="1099">showRestSchemasStatement</text></g></g><path d="M346.5 1095h42.5"></path></g><path d="M389 1095a10 10 0 0 0 10 -10v-1044a10 10 0 0 1 10 -10"></path><path d="M40 31a10 10 0 0 1 10 10v1082a10 10 0 0 0 10 10"></path><g><path d="M60 1133h51"></path><g><path d="M111 1133h10"></path><path d="M328 1133h10"></path><g class="non-terminal "><path d="M121 1133h0"></path><path d="M328 1133h0"></path><rect x="121" y="1122" width="207" height="22" rx="10" ry="10"></rect><text x="224.5" y="1137">showRestViewsStatement</text></g></g><path d="M338 1133h51"></path></g><path d="M389 1133a10 10 0 0 0 10 -10v-1082a10 10 0 0 1 10 -10"></path><path d="M40 31a10 10 0 0 1 10 10v1120a10 10 0 0 0 10 10"></path><g><path d="M60 1171h29.75"></path><g><path d="M89.75 1171h10"></path><path d="M349.25 1171h10"></path><g class="non-terminal "><path d="M99.75 1171h0"></path><path d="M349.25 1171h0"></path><rect x="99.75" y="1160" width="249.5" height="22" rx="10" ry="10"></rect><text x="224.5" y="1175">showRestProceduresStatement</text></g></g><path d="M359.25 1171h29.75"></path></g><path d="M389 1171a10 10 0 0 0 10 -10v-1120a10 10 0 0 1 10 -10"></path><path d="M40 31a10 10 0 0 1 10 10v1158a10 10 0 0 0 10 10"></path><g><path d="M60 1209h34"></path><g><path d="M94 1209h10"></path><path d="M345 1209h10"></path><g class="non-terminal "><path d="M104 1209h0"></path><path d="M345 1209h0"></path><rect x="104" y="1198" width="241" height="22" rx="10" ry="10"></rect><text x="224.5" y="1213">showRestFunctionsStatement</text></g></g><path d="M355 1209h34"></path></g><path d="M389 1209a10 10 0 0 0 10 -10v-1158a10 10 0 0 1 10 -10"></path><path d="M40 31a10 10 0 0 1 10 10v1196a10 10 0 0 0 10 10"></path><g><path d="M60 1247h25.5"></path><g><path d="M85.5 1247h10"></path><path d="M353.5 1247h10"></path><g class="non-terminal "><path d="M95.5 1247h0"></path><path d="M353.5 1247h0"></path><rect x="95.5" y="1236" width="258" height="22" rx="10" ry="10"></rect><text x="224.5" y="1251">showRestContentSetsStatement</text></g></g><path d="M363.5 1247h25.5"></path></g><path d="M389 1247a10 10 0 0 0 10 -10v-1196a10 10 0 0 1 10 -10"></path><path d="M40 31a10 10 0 0 1 10 10v1234a10 10 0 0 0 10 10"></path><g><path d="M60 1285h21.25"></path><g><path d="M81.25 1285h10"></path><path d="M357.75 1285h10"></path><g class="non-terminal "><path d="M91.25 1285h0"></path><path d="M357.75 1285h0"></path><rect x="91.25" y="1274" width="266.5" height="22" rx="10" ry="10"></rect><text x="224.5" y="1289">showRestContentFilesStatement</text></g></g><path d="M367.75 1285h21.25"></path></g><path d="M389 1285a10 10 0 0 0 10 -10v-1234a10 10 0 0 1 10 -10"></path><path d="M40 31a10 10 0 0 1 10 10v1272a10 10 0 0 0 10 10"></path><g><path d="M60 1323h38.25"></path><g><path d="M98.25 1323h10"></path><path d="M340.75 1323h10"></path><g class="non-terminal "><path d="M108.25 1323h0"></path><path d="M340.75 1323h0"></path><rect x="108.25" y="1312" width="232.5" height="22" rx="10" ry="10"></rect><text x="224.5" y="1327">showRestAuthAppsStatement</text></g></g><path d="M350.75 1323h38.25"></path></g><path d="M389 1323a10 10 0 0 0 10 -10v-1272a10 10 0 0 1 10 -10"></path><path d="M40 31a10 10 0 0 1 10 10v1310a10 10 0 0 0 10 10"></path><g><path d="M60 1361h17"></path><g><path d="M77 1361h10"></path><path d="M362 1361h10"></path><g class="non-terminal "><path d="M87 1361h0"></path><path d="M362 1361h0"></path><rect x="87" y="1350" width="275" height="22" rx="10" ry="10"></rect><text x="224.5" y="1365">showCreateRestServiceStatement</text></g></g><path d="M372 1361h17"></path></g><path d="M389 1361a10 10 0 0 0 10 -10v-1310a10 10 0 0 1 10 -10"></path><path d="M40 31a10 10 0 0 1 10 10v1348a10 10 0 0 0 10 10"></path><g><path d="M60 1399h21.25"></path><g><path d="M81.25 1399h10"></path><path d="M357.75 1399h10"></path><g class="non-terminal "><path d="M91.25 1399h0"></path><path d="M357.75 1399h0"></path><rect x="91.25" y="1388" width="266.5" height="22" rx="10" ry="10"></rect><text x="224.5" y="1403">showCreateRestSchemaStatement</text></g></g><path d="M367.75 1399h21.25"></path></g><path d="M389 1399a10 10 0 0 0 10 -10v-1348a10 10 0 0 1 10 -10"></path><path d="M40 31a10 10 0 0 1 10 10v1386a10 10 0 0 0 10 10"></path><g><path d="M60 1437h29.75"></path><g><path d="M89.75 1437h10"></path><path d="M349.25 1437h10"></path><g class="non-terminal "><path d="M99.75 1437h0"></path><path d="M349.25 1437h0"></path><rect x="99.75" y="1426" width="249.5" height="22" rx="10" ry="10"></rect><text x="224.5" y="1441">showCreateRestViewStatement</text></g></g><path d="M359.25 1437h29.75"></path></g><path d="M389 1437a10 10 0 0 0 10 -10v-1386a10 10 0 0 1 10 -10"></path><path d="M40 31a10 10 0 0 1 10 10v1424a10 10 0 0 0 10 10"></path><g><path d="M60 1475h8.5"></path><g><path d="M68.5 1475h10"></path><path d="M370.5 1475h10"></path><g class="non-terminal "><path d="M78.5 1475h0"></path><path d="M370.5 1475h0"></path><rect x="78.5" y="1464" width="292" height="22" rx="10" ry="10"></rect><text x="224.5" y="1479">showCreateRestProcedureStatement</text></g></g><path d="M380.5 1475h8.5"></path></g><path d="M389 1475a10 10 0 0 0 10 -10v-1424a10 10 0 0 1 10 -10"></path><path d="M40 31a10 10 0 0 1 10 10v1462a10 10 0 0 0 10 10"></path><g><path d="M60 1513h12.75"></path><g><path d="M72.75 1513h10"></path><path d="M366.25 1513h10"></path><g class="non-terminal "><path d="M82.75 1513h0"></path><path d="M366.25 1513h0"></path><rect x="82.75" y="1502" width="283.5" height="22" rx="10" ry="10"></rect><text x="224.5" y="1517">showCreateRestFunctionStatement</text></g></g><path d="M376.25 1513h12.75"></path></g><path d="M389 1513a10 10 0 0 0 10 -10v-1462a10 10 0 0 1 10 -10"></path><path d="M40 31a10 10 0 0 1 10 10v1500a10 10 0 0 0 10 10"></path><g><path d="M60 1551h4.25"></path><g><path d="M64.25 1551h10"></path><path d="M374.75 1551h10"></path><g class="non-terminal "><path d="M74.25 1551h0"></path><path d="M374.75 1551h0"></path><rect x="74.25" y="1540" width="300.5" height="22" rx="10" ry="10"></rect><text x="224.5" y="1555">showCreateRestContentSetStatement</text></g></g><path d="M384.75 1551h4.25"></path></g><path d="M389 1551a10 10 0 0 0 10 -10v-1500a10 10 0 0 1 10 -10"></path><path d="M40 31a10 10 0 0 1 10 10v1538a10 10 0 0 0 10 10"></path><g><path d="M60 1589h0"></path><g><path d="M60 1589h10"></path><path d="M379 1589h10"></path><g class="non-terminal "><path d="M70 1589h0"></path><path d="M379 1589h0"></path><rect x="70" y="1578" width="309" height="22" rx="10" ry="10"></rect><text x="224.5" y="1593">showCreateRestContentFileStatement</text></g></g><path d="M389 1589h0"></path></g><path d="M389 1589a10 10 0 0 0 10 -10v-1538a10 10 0 0 1 10 -10"></path><path d="M40 31a10 10 0 0 1 10 10v1576a10 10 0 0 0 10 10"></path><g><path d="M60 1627h17"></path><g><path d="M77 1627h10"></path><path d="M362 1627h10"></path><g class="non-terminal "><path d="M87 1627h0"></path><path d="M362 1627h0"></path><rect x="87" y="1616" width="275" height="22" rx="10" ry="10"></rect><text x="224.5" y="1631">showCreateRestAuthAppStatement</text></g></g><path d="M372 1627h17"></path></g><path d="M389 1627a10 10 0 0 0 10 -10v-1576a10 10 0 0 1 10 -10"></path></g><path d="M 409 31 h 20 m 0 -10 v 20"></path></g><defs><style type="text/css"><![CDATA[
svg.railroad-diagram path { stroke-width: 2; stroke: darkgray; fill: rgba(0, 0, 0, 0); }svg.railroad-diagram text { font: bold 12px Hack, "Source Code Pro", monospace; text-anchor: middle; fill: #404040; }svg.railroad-diagram text.comment { font: italic 10px Hack, "Source Code Pro", monospace; fill: #404040; }svg.railroad-diagram g.terminal rect { stroke-width: 2; stroke: #404040; fill: rgba(200, 200, 200, 0.8); }svg.railroad-diagram g.non-terminal rect { stroke-width: 2; stroke: #404040; fill: rgba(255, 255, 255, 1); }svg.railroad-diagram text.diagram-text { font-size: 12px Hack, "Source Code Pro", monospace; fill: red; }svg.railroad-diagram path.diagram-text { stroke-width: 1; stroke: red; fill: red; cursor: help; }
 ]]>
</style></defs></svg>