<?xml version="1.0" encoding="UTF-8" standalone="no"?>
<!DOCTYPE svg PUBLIC "-//W3C//DTD SVG 1.1//EN" "http://www.w3.org/Graphics/SVG/1.1/DTD/svg11.dtd">
<svg class="railroad-diagram" width="722" height="78" viewBox="0 0 722 78" id="removeAuthApp" xmlns="http://www.w3.org/2000/svg" xmlns:xlink="http://www.w3.org/1999/xlink"><g transform="translate(.5 .5)"><g><path d="M20 37v20m0 -10h20"></path></g><g><path d="M40 47h0"></path><path d="M682 47h0"></path><path d="M40 47h20"></path><g><path d="M60 47h0"></path><g><path d="M60 47h10"></path><path d="M652 47h10"></path><g class="terminal "><path d="M70 47h0"></path><path d="M141 47h0"></path><rect x="70" y="36" width="71" height="22"></rect><text x="105.5" y="51">REMOVE</text></g><path d="M141 47h10"></path><path d="M151 47h10"></path><g class="terminal "><path d="M161 47h0"></path><path d="M215 47h0"></path><rect x="161" y="36" width="54" height="22"></rect><text x="188" y="51">AUTH</text></g><path d="M215 47h10"></path><path d="M225 47h10"></path><g class="terminal "><path d="M235 47h0"></path><path d="M280.5 47h0"></path><rect x="235" y="36" width="45.5" height="22"></rect><text x="257.75" y="51">APP</text></g><path d="M280.5 47h10"></path><path d="M290.5 47h10"></path><g class="non-terminal "><path d="M300.5 47h0"></path><path d="M414 47h0"></path><rect x="300.5" y="36" width="113.5" height="22" rx="10" ry="10"></rect><text x="357.25" y="51">authAppName</text></g><path d="M414 47h10"></path><g><path d="M424 47h0"></path><path d="M652 47h0"></path><path d="M424 47a10 10 0 0 0 10 -10v-7a10 10 0 0 1 10 -10"></path><g><path d="M444 20h188"></path></g><path d="M632 20a10 10 0 0 1 10 10v7a10 10 0 0 0 10 10"></path><path d="M424 47h20"></path><g><path d="M444 47h0"></path><path d="M632 47h0"></path><path d="M444 47h20"></path><g><path d="M464 47h0"></path><g><path d="M464 47h10"></path><path d="M602 47h10"></path><g class="terminal "><path d="M474 47h0"></path><path d="M511 47h0"></path><rect x="474" y="36" width="37" height="22"></rect><text x="492.5" y="51">IF</text></g><path d="M511 47h10"></path><path d="M521 47h10"></path><g class="terminal "><path d="M531 47h0"></path><path d="M602 47h0"></path><rect x="531" y="36" width="71" height="22"></rect><text x="566.5" y="51">EXISTS</text></g></g><path d="M612 47h0"></path></g><path d="M612 47h20"></path></g><path d="M632 47h20"></path></g></g><path d="M662 47h0"></path></g><path d="M662 47h20"></path></g><path d="M 682 47 h 20 m 0 -10 v 20"></path></g><defs><style type="text/css"><![CDATA[
svg.railroad-diagram path { stroke-width: 2; stroke: darkgray; fill: rgba(0, 0, 0, 0); }svg.railroad-diagram text { font: bold 12px Hack, "Source Code Pro", monospace; text-anchor: middle; fill: #404040; }svg.railroad-diagram text.comment { font: italic 10px Hack, "Source Code Pro", monospace; fill: #404040; }svg.railroad-diagram g.terminal rect { stroke-width: 2; stroke: #404040; fill: rgba(200, 200, 200, 0.8); }svg.railroad-diagram g.non-terminal rect { stroke-width: 2; stroke: #404040; fill: rgba(255, 255, 255, 1); }svg.railroad-diagram text.diagram-text { font-size: 12px Hack, "Source Code Pro", monospace; fill: red; }svg.railroad-diagram path.diagram-text { stroke-width: 1; stroke: red; fill: red; cursor: help; }
 ]]>
</style></defs></svg>