<?xml version="1.0" encoding="UTF-8" standalone="no"?>
<!DOCTYPE svg PUBLIC "-//W3C//DTD SVG 1.1//EN" "http://www.w3.org/Graphics/SVG/1.1/DTD/svg11.dtd">
<svg class="railroad-diagram" width="644" height="138" viewBox="0 0 644 138" id="requestPathIdentifierWithWildcard" xmlns="http://www.w3.org/2000/svg" xmlns:xlink="http://www.w3.org/1999/xlink"><g transform="translate(.5 .5)"><g><path d="M20 21v20m0 -10h20"></path></g><g><path d="M40 31h0"></path><path d="M604 31h0"></path><path d="M40 31h20"></path><g><path d="M60 31h169.75"></path><g><path d="M229.75 31h10"></path><path d="M404.25 31h10"></path><g class="terminal "><path d="M239.75 31h0"></path><path d="M404.25 31h0"></path><rect x="239.75" y="20" width="164.5" height="22"></rect><text x="322" y="35">REST_REQUEST_PATH</text></g></g><path d="M414.25 31h169.75"></path></g><path d="M584 31h20"></path><path d="M40 31a10 10 0 0 1 10 10v18a10 10 0 0 0 10 10"></path><g><path d="M60 69h161.25"></path><g><path d="M221.25 69h10"></path><path d="M412.75 69h10"></path><g class="terminal "><path d="M231.25 69h0"></path><path d="M412.75 69h0"></path><rect x="231.25" y="58" width="181.5" height="22"></rect><text x="322" y="73">BACK_TICK_QUOTED_ID</text></g></g><path d="M422.75 69h161.25"></path></g><path d="M584 69a10 10 0 0 0 10 -10v-18a10 10 0 0 1 10 -10"></path><path d="M40 31a10 10 0 0 1 10 10v56a10 10 0 0 0 10 10"></path><g><path d="M60 107h0"></path><g><path d="M60 107h10"></path><path d="M574 107h10"></path><g class="comment rrd-predicate"><path d="M70 107h0"></path><path d="M381 107h0"></path><text x="225.5" y="112" class="comment">{this.isSqlModeActive(SqlMode.AnsiQuotes)}?</text></g><path d="M381 107h10"></path><path d="M391 107h10"></path><g class="terminal "><path d="M401 107h0"></path><path d="M574 107h0"></path><rect x="401" y="96" width="173" height="22"></rect><text x="487.5" y="111">DOUBLE_QUOTED_TEXT</text></g></g><path d="M584 107h0"></path></g><path d="M584 107a10 10 0 0 0 10 -10v-56a10 10 0 0 1 10 -10"></path></g><path d="M 604 31 h 20 m 0 -10 v 20"></path></g><defs><style type="text/css"><![CDATA[
svg.railroad-diagram path { stroke-width: 2; stroke: darkgray; fill: rgba(0, 0, 0, 0); }svg.railroad-diagram text { font: bold 12px Hack, "Source Code Pro", monospace; text-anchor: middle; fill: #404040; }svg.railroad-diagram text.comment { font: italic 10px Hack, "Source Code Pro", monospace; fill: #404040; }svg.railroad-diagram g.terminal rect { stroke-width: 2; stroke: #404040; fill: rgba(200, 200, 200, 0.8); }svg.railroad-diagram g.non-terminal rect { stroke-width: 2; stroke: #404040; fill: rgba(255, 255, 255, 1); }svg.railroad-diagram text.diagram-text { font-size: 12px Hack, "Source Code Pro", monospace; fill: red; }svg.railroad-diagram path.diagram-text { stroke-width: 1; stroke: red; fill: red; cursor: help; }
 ]]>
</style></defs></svg>