<?xml version="1.0" encoding="UTF-8" standalone="no"?>
<!DOCTYPE svg PUBLIC "-//W3C//DTD SVG 1.1//EN" "http://www.w3.org/Graphics/SVG/1.1/DTD/svg11.dtd">
<svg class="railroad-diagram" width="435.5" height="306" viewBox="0 0 435.5 306" id="restAuthAppOptions" xmlns="http://www.w3.org/2000/svg" xmlns:xlink="http://www.w3.org/1999/xlink"><g transform="translate(.5 .5)"><g><path d="M20 21v20m0 -10h20"></path></g><g><path d="M40 31h0"></path><path d="M395.5 31h0"></path><path d="M40 31h20"></path><g><path d="M60 31h0"></path><g><path d="M60 31h10"></path><path d="M365.5 31h10"></path><g><path d="M70 31h0"></path><path d="M365.5 31h0"></path><path d="M70 31h10"></path><g><path d="M80 31h0"></path><path d="M355.5 31h0"></path><path d="M80 31h20"></path><g><path d="M100 31h34"></path><g><path d="M134 31h10"></path><path d="M291.5 31h10"></path><g class="non-terminal "><path d="M144 31h0"></path><path d="M291.5 31h0"></path><rect x="144" y="20" width="147.5" height="22" rx="10" ry="10"></rect><text x="217.75" y="35">enabledDisabled</text></g></g><path d="M301.5 31h34"></path></g><path d="M335.5 31h20"></path><path d="M80 31a10 10 0 0 1 10 10v18a10 10 0 0 0 10 10"></path><g><path d="M100 69h63.75"></path><g><path d="M163.75 69h10"></path><path d="M261.75 69h10"></path><g class="non-terminal "><path d="M173.75 69h0"></path><path d="M261.75 69h0"></path><rect x="173.75" y="58" width="88" height="22" rx="10" ry="10"></rect><text x="217.75" y="73">comments</text></g></g><path d="M271.75 69h63.75"></path></g><path d="M335.5 69a10 10 0 0 0 10 -10v-18a10 10 0 0 1 10 -10"></path><path d="M80 31a10 10 0 0 1 10 10v56a10 10 0 0 0 10 10"></path><g><path d="M100 107h0"></path><g><path d="M100 107h10"></path><path d="M325.5 107h10"></path><g class="non-terminal "><path d="M110 107h0"></path><path d="M325.5 107h0"></path><rect x="110" y="96" width="215.5" height="22" rx="10" ry="10"></rect><text x="217.75" y="111">allowNewUsersToRegister</text></g></g><path d="M335.5 107h0"></path></g><path d="M335.5 107a10 10 0 0 0 10 -10v-56a10 10 0 0 1 10 -10"></path><path d="M80 31a10 10 0 0 1 10 10v94a10 10 0 0 0 10 10"></path><g><path d="M100 145h51"></path><g><path d="M151 145h10"></path><path d="M274.5 145h10"></path><g class="non-terminal "><path d="M161 145h0"></path><path d="M274.5 145h0"></path><rect x="161" y="134" width="113.5" height="22" rx="10" ry="10"></rect><text x="217.75" y="149">defaultRole</text></g></g><path d="M284.5 145h51"></path></g><path d="M335.5 145a10 10 0 0 0 10 -10v-94a10 10 0 0 1 10 -10"></path><path d="M80 31a10 10 0 0 1 10 10v132a10 10 0 0 0 10 10"></path><g><path d="M100 183h76.5"></path><g><path d="M176.5 183h10"></path><path d="M249 183h10"></path><g class="non-terminal "><path d="M186.5 183h0"></path><path d="M249 183h0"></path><rect x="186.5" y="172" width="62.5" height="22" rx="10" ry="10"></rect><text x="217.75" y="187">appId</text></g></g><path d="M259 183h76.5"></path></g><path d="M335.5 183a10 10 0 0 0 10 -10v-132a10 10 0 0 1 10 -10"></path><path d="M80 31a10 10 0 0 1 10 10v170a10 10 0 0 0 10 10"></path><g><path d="M100 221h59.5"></path><g><path d="M159.5 221h10"></path><path d="M266 221h10"></path><g class="non-terminal "><path d="M169.5 221h0"></path><path d="M266 221h0"></path><rect x="169.5" y="210" width="96.5" height="22" rx="10" ry="10"></rect><text x="217.75" y="225">appSecret</text></g></g><path d="M276 221h59.5"></path></g><path d="M335.5 221a10 10 0 0 0 10 -10v-170a10 10 0 0 1 10 -10"></path><path d="M80 31a10 10 0 0 1 10 10v208a10 10 0 0 0 10 10"></path><g><path d="M100 259h85"></path><g><path d="M185 259h10"></path><path d="M240.5 259h10"></path><g class="non-terminal "><path d="M195 259h0"></path><path d="M240.5 259h0"></path><rect x="195" y="248" width="45.5" height="22" rx="10" ry="10"></rect><text x="217.75" y="263">url</text></g></g><path d="M250.5 259h85"></path></g><path d="M335.5 259a10 10 0 0 0 10 -10v-208a10 10 0 0 1 10 -10"></path></g><path d="M355.5 31h10"></path><path d="M80 31a10 10 0 0 0 -10 10v235a10 10 0 0 0 10 10"></path><g><path d="M80 286h275.5"></path></g><path d="M355.5 286a10 10 0 0 0 10 -10v-235a10 10 0 0 0 -10 -10"></path></g></g><path d="M375.5 31h0"></path></g><path d="M375.5 31h20"></path></g><path d="M 395.5 31 h 20 m 0 -10 v 20"></path></g><defs><style type="text/css"><![CDATA[
svg.railroad-diagram path { stroke-width: 2; stroke: darkgray; fill: rgba(0, 0, 0, 0); }svg.railroad-diagram text { font: bold 12px Hack, "Source Code Pro", monospace; text-anchor: middle; fill: #404040; }svg.railroad-diagram text.comment { font: italic 10px Hack, "Source Code Pro", monospace; fill: #404040; }svg.railroad-diagram g.terminal rect { stroke-width: 2; stroke: #404040; fill: rgba(200, 200, 200, 0.8); }svg.railroad-diagram g.non-terminal rect { stroke-width: 2; stroke: #404040; fill: rgba(255, 255, 255, 1); }svg.railroad-diagram text.diagram-text { font-size: 12px Hack, "Source Code Pro", monospace; fill: red; }svg.railroad-diagram path.diagram-text { stroke-width: 1; stroke: red; fill: red; cursor: help; }
 ]]>
</style></defs></svg>