<?xml version="1.0" encoding="UTF-8" standalone="no"?>
<!DOCTYPE svg PUBLIC "-//W3C//DTD SVG 1.1//EN" "http://www.w3.org/Graphics/SVG/1.1/DTD/svg11.dtd">
<svg class="railroad-diagram" width="427" height="268" viewBox="0 0 427 268" id="restSchemaOptions" xmlns="http://www.w3.org/2000/svg" xmlns:xlink="http://www.w3.org/1999/xlink"><g transform="translate(.5 .5)"><g><path d="M20 21v20m0 -10h20"></path></g><g><path d="M40 31h0"></path><path d="M387 31h0"></path><path d="M40 31h20"></path><g><path d="M60 31h0"></path><g><path d="M60 31h10"></path><path d="M357 31h10"></path><g><path d="M70 31h0"></path><path d="M357 31h0"></path><path d="M70 31h10"></path><g><path d="M80 31h0"></path><path d="M347 31h0"></path><path d="M80 31h20"></path><g><path d="M100 31h0"></path><g><path d="M100 31h10"></path><path d="M317 31h10"></path><g class="non-terminal "><path d="M110 31h0"></path><path d="M317 31h0"></path><rect x="110" y="20" width="207" height="22" rx="10" ry="10"></rect><text x="213.5" y="35">enabledDisabledPrivate</text></g></g><path d="M327 31h0"></path></g><path d="M327 31h20"></path><path d="M80 31a10 10 0 0 1 10 10v18a10 10 0 0 0 10 10"></path><g><path d="M100 69h0"></path><g><path d="M100 69h10"></path><path d="M317 69h10"></path><g class="non-terminal "><path d="M110 69h0"></path><path d="M317 69h0"></path><rect x="110" y="58" width="207" height="22" rx="10" ry="10"></rect><text x="213.5" y="73">authenticationRequired</text></g></g><path d="M327 69h0"></path></g><path d="M327 69a10 10 0 0 0 10 -10v-18a10 10 0 0 1 10 -10"></path><path d="M80 31a10 10 0 0 1 10 10v56a10 10 0 0 0 10 10"></path><g><path d="M100 107h42.5"></path><g><path d="M142.5 107h10"></path><path d="M274.5 107h10"></path><g class="non-terminal "><path d="M152.5 107h0"></path><path d="M274.5 107h0"></path><rect x="152.5" y="96" width="122" height="22" rx="10" ry="10"></rect><text x="213.5" y="111">itemsPerPage</text></g></g><path d="M284.5 107h42.5"></path></g><path d="M327 107a10 10 0 0 0 10 -10v-56a10 10 0 0 1 10 -10"></path><path d="M80 31a10 10 0 0 1 10 10v94a10 10 0 0 0 10 10"></path><g><path d="M100 145h46.75"></path><g><path d="M146.75 145h10"></path><path d="M270.25 145h10"></path><g class="non-terminal "><path d="M156.75 145h0"></path><path d="M270.25 145h0"></path><rect x="156.75" y="134" width="113.5" height="22" rx="10" ry="10"></rect><text x="213.5" y="149">jsonOptions</text></g></g><path d="M280.25 145h46.75"></path></g><path d="M327 145a10 10 0 0 0 10 -10v-94a10 10 0 0 1 10 -10"></path><path d="M80 31a10 10 0 0 1 10 10v132a10 10 0 0 0 10 10"></path><g><path d="M100 183h59.5"></path><g><path d="M159.5 183h10"></path><path d="M257.5 183h10"></path><g class="non-terminal "><path d="M169.5 183h0"></path><path d="M257.5 183h0"></path><rect x="169.5" y="172" width="88" height="22" rx="10" ry="10"></rect><text x="213.5" y="187">comments</text></g></g><path d="M267.5 183h59.5"></path></g><path d="M327 183a10 10 0 0 0 10 -10v-132a10 10 0 0 1 10 -10"></path><path d="M80 31a10 10 0 0 1 10 10v170a10 10 0 0 0 10 10"></path><g><path d="M100 221h59.5"></path><g><path d="M159.5 221h10"></path><path d="M257.5 221h10"></path><g class="non-terminal "><path d="M169.5 221h0"></path><path d="M257.5 221h0"></path><rect x="169.5" y="210" width="88" height="22" rx="10" ry="10"></rect><text x="213.5" y="225">metadata</text></g></g><path d="M267.5 221h59.5"></path></g><path d="M327 221a10 10 0 0 0 10 -10v-170a10 10 0 0 1 10 -10"></path></g><path d="M347 31h10"></path><path d="M80 31a10 10 0 0 0 -10 10v197a10 10 0 0 0 10 10"></path><g><path d="M80 248h267"></path></g><path d="M347 248a10 10 0 0 0 10 -10v-197a10 10 0 0 0 -10 -10"></path></g></g><path d="M367 31h0"></path></g><path d="M367 31h20"></path></g><path d="M 387 31 h 20 m 0 -10 v 20"></path></g><defs><style type="text/css"><![CDATA[
svg.railroad-diagram path { stroke-width: 2; stroke: darkgray; fill: rgba(0, 0, 0, 0); }svg.railroad-diagram text { font: bold 12px Hack, "Source Code Pro", monospace; text-anchor: middle; fill: #404040; }svg.railroad-diagram text.comment { font: italic 10px Hack, "Source Code Pro", monospace; fill: #404040; }svg.railroad-diagram g.terminal rect { stroke-width: 2; stroke: #404040; fill: rgba(200, 200, 200, 0.8); }svg.railroad-diagram g.non-terminal rect { stroke-width: 2; stroke: #404040; fill: rgba(255, 255, 255, 1); }svg.railroad-diagram text.diagram-text { font-size: 12px Hack, "Source Code Pro", monospace; fill: red; }svg.railroad-diagram path.diagram-text { stroke-width: 1; stroke: red; fill: red; cursor: help; }
 ]]>
</style></defs></svg>