<?xml version="1.0" encoding="UTF-8" standalone="no"?>
<!DOCTYPE svg PUBLIC "-//W3C//DTD SVG 1.1//EN" "http://www.w3.org/Graphics/SVG/1.1/DTD/svg11.dtd">
<svg class="railroad-diagram" width="333.5" height="116" viewBox="0 0 333.5 116" id="restRoleOptions" xmlns="http://www.w3.org/2000/svg" xmlns:xlink="http://www.w3.org/1999/xlink"><g transform="translate(.5 .5)"><g><path d="M20 21v20m0 -10h20"></path></g><g><path d="M40 31h0"></path><path d="M293.5 31h0"></path><path d="M40 31h20"></path><g><path d="M60 31h0"></path><g><path d="M60 31h10"></path><path d="M263.5 31h10"></path><g><path d="M70 31h0"></path><path d="M263.5 31h0"></path><path d="M70 31h10"></path><g><path d="M80 31h0"></path><path d="M253.5 31h0"></path><path d="M80 31h20"></path><g><path d="M100 31h0"></path><g><path d="M100 31h10"></path><path d="M223.5 31h10"></path><g class="non-terminal "><path d="M110 31h0"></path><path d="M223.5 31h0"></path><rect x="110" y="20" width="113.5" height="22" rx="10" ry="10"></rect><text x="166.75" y="35">jsonOptions</text></g></g><path d="M233.5 31h0"></path></g><path d="M233.5 31h20"></path><path d="M80 31a10 10 0 0 1 10 10v18a10 10 0 0 0 10 10"></path><g><path d="M100 69h12.75"></path><g><path d="M112.75 69h10"></path><path d="M210.75 69h10"></path><g class="non-terminal "><path d="M122.75 69h0"></path><path d="M210.75 69h0"></path><rect x="122.75" y="58" width="88" height="22" rx="10" ry="10"></rect><text x="166.75" y="73">comments</text></g></g><path d="M220.75 69h12.75"></path></g><path d="M233.5 69a10 10 0 0 0 10 -10v-18a10 10 0 0 1 10 -10"></path></g><path d="M253.5 31h10"></path><path d="M80 31a10 10 0 0 0 -10 10v45a10 10 0 0 0 10 10"></path><g><path d="M80 96h173.5"></path></g><path d="M253.5 96a10 10 0 0 0 10 -10v-45a10 10 0 0 0 -10 -10"></path></g></g><path d="M273.5 31h0"></path></g><path d="M273.5 31h20"></path></g><path d="M 293.5 31 h 20 m 0 -10 v 20"></path></g><defs><style type="text/css"><![CDATA[
svg.railroad-diagram path { stroke-width: 2; stroke: darkgray; fill: rgba(0, 0, 0, 0); }svg.railroad-diagram text { font: bold 12px Hack, "Source Code Pro", monospace; text-anchor: middle; fill: #404040; }svg.railroad-diagram text.comment { font: italic 10px Hack, "Source Code Pro", monospace; fill: #404040; }svg.railroad-diagram g.terminal rect { stroke-width: 2; stroke: #404040; fill: rgba(200, 200, 200, 0.8); }svg.railroad-diagram g.non-terminal rect { stroke-width: 2; stroke: #404040; fill: rgba(255, 255, 255, 1); }svg.railroad-diagram text.diagram-text { font-size: 12px Hack, "Source Code Pro", monospace; fill: red; }svg.railroad-diagram path.diagram-text { stroke-width: 1; stroke: red; fill: red; cursor: help; }
 ]]>
</style></defs></svg>