<?xml version="1.0" encoding="UTF-8" standalone="no"?>
<!DOCTYPE svg PUBLIC "-//W3C//DTD SVG 1.1//EN" "http://www.w3.org/Graphics/SVG/1.1/DTD/svg11.dtd">
<svg class="railroad-diagram" width="410" height="382" viewBox="0 0 410 382" id="restServiceOptions" xmlns="http://www.w3.org/2000/svg" xmlns:xlink="http://www.w3.org/1999/xlink"><g transform="translate(.5 .5)"><g><path d="M20 21v20m0 -10h20"></path></g><g><path d="M40 31h0"></path><path d="M370 31h0"></path><path d="M40 31h20"></path><g><path d="M60 31h0"></path><g><path d="M60 31h10"></path><path d="M340 31h10"></path><g><path d="M70 31h0"></path><path d="M340 31h0"></path><path d="M70 31h10"></path><g><path d="M80 31h0"></path><path d="M330 31h0"></path><path d="M80 31h20"></path><g><path d="M100 31h21.25"></path><g><path d="M121.25 31h10"></path><path d="M278.75 31h10"></path><g class="non-terminal "><path d="M131.25 31h0"></path><path d="M278.75 31h0"></path><rect x="131.25" y="20" width="147.5" height="22" rx="10" ry="10"></rect><text x="205" y="35">enabledDisabled</text></g></g><path d="M288.75 31h21.25"></path></g><path d="M310 31h20"></path><path d="M80 31a10 10 0 0 1 10 10v18a10 10 0 0 0 10 10"></path><g><path d="M100 69h0"></path><g><path d="M100 69h10"></path><path d="M300 69h10"></path><g class="non-terminal "><path d="M110 69h0"></path><path d="M300 69h0"></path><rect x="110" y="58" width="190" height="22" rx="10" ry="10"></rect><text x="205" y="73">publishedUnpublished</text></g></g><path d="M310 69h0"></path></g><path d="M310 69a10 10 0 0 0 10 -10v-18a10 10 0 0 1 10 -10"></path><path d="M80 31a10 10 0 0 1 10 10v56a10 10 0 0 0 10 10"></path><g><path d="M100 107h34"></path><g><path d="M134 107h10"></path><path d="M266 107h10"></path><g class="non-terminal "><path d="M144 107h0"></path><path d="M266 107h0"></path><rect x="144" y="96" width="122" height="22" rx="10" ry="10"></rect><text x="205" y="111">restProtocol</text></g></g><path d="M276 107h34"></path></g><path d="M310 107a10 10 0 0 0 10 -10v-56a10 10 0 0 1 10 -10"></path><path d="M80 31a10 10 0 0 1 10 10v94a10 10 0 0 0 10 10"></path><g><path d="M100 145h8.5"></path><g><path d="M108.5 145h10"></path><path d="M291.5 145h10"></path><g class="non-terminal "><path d="M118.5 145h0"></path><path d="M291.5 145h0"></path><rect x="118.5" y="134" width="173" height="22" rx="10" ry="10"></rect><text x="205" y="149">restAuthentication</text></g></g><path d="M301.5 145h8.5"></path></g><path d="M310 145a10 10 0 0 0 10 -10v-94a10 10 0 0 1 10 -10"></path><path d="M80 31a10 10 0 0 1 10 10v132a10 10 0 0 0 10 10"></path><g><path d="M100 183h38.25"></path><g><path d="M138.25 183h10"></path><path d="M261.75 183h10"></path><g class="non-terminal "><path d="M148.25 183h0"></path><path d="M261.75 183h0"></path><rect x="148.25" y="172" width="113.5" height="22" rx="10" ry="10"></rect><text x="205" y="187">jsonOptions</text></g></g><path d="M271.75 183h38.25"></path></g><path d="M310 183a10 10 0 0 0 10 -10v-132a10 10 0 0 1 10 -10"></path><path d="M80 31a10 10 0 0 1 10 10v170a10 10 0 0 0 10 10"></path><g><path d="M100 221h51"></path><g><path d="M151 221h10"></path><path d="M249 221h10"></path><g class="non-terminal "><path d="M161 221h0"></path><path d="M249 221h0"></path><rect x="161" y="210" width="88" height="22" rx="10" ry="10"></rect><text x="205" y="225">comments</text></g></g><path d="M259 221h51"></path></g><path d="M310 221a10 10 0 0 0 10 -10v-170a10 10 0 0 1 10 -10"></path><path d="M80 31a10 10 0 0 1 10 10v208a10 10 0 0 0 10 10"></path><g><path d="M100 259h51"></path><g><path d="M151 259h10"></path><path d="M249 259h10"></path><g class="non-terminal "><path d="M161 259h0"></path><path d="M249 259h0"></path><rect x="161" y="248" width="88" height="22" rx="10" ry="10"></rect><text x="205" y="263">metadata</text></g></g><path d="M259 259h51"></path></g><path d="M310 259a10 10 0 0 0 10 -10v-208a10 10 0 0 1 10 -10"></path><path d="M80 31a10 10 0 0 1 10 10v246a10 10 0 0 0 10 10"></path><g><path d="M100 297h42.5"></path><g><path d="M142.5 297h10"></path><path d="M257.5 297h10"></path><g class="non-terminal "><path d="M152.5 297h0"></path><path d="M257.5 297h0"></path><rect x="152.5" y="286" width="105" height="22" rx="10" ry="10"></rect><text x="205" y="301">addAuthApp</text></g></g><path d="M267.5 297h42.5"></path></g><path d="M310 297a10 10 0 0 0 10 -10v-246a10 10 0 0 1 10 -10"></path><path d="M80 31a10 10 0 0 1 10 10v284a10 10 0 0 0 10 10"></path><g><path d="M100 335h29.75"></path><g><path d="M129.75 335h10"></path><path d="M270.25 335h10"></path><g class="non-terminal "><path d="M139.75 335h0"></path><path d="M270.25 335h0"></path><rect x="139.75" y="324" width="130.5" height="22" rx="10" ry="10"></rect><text x="205" y="339">removeAuthApp</text></g></g><path d="M280.25 335h29.75"></path></g><path d="M310 335a10 10 0 0 0 10 -10v-284a10 10 0 0 1 10 -10"></path></g><path d="M330 31h10"></path><path d="M80 31a10 10 0 0 0 -10 10v311a10 10 0 0 0 10 10"></path><g><path d="M80 362h250"></path></g><path d="M330 362a10 10 0 0 0 10 -10v-311a10 10 0 0 0 -10 -10"></path></g></g><path d="M350 31h0"></path></g><path d="M350 31h20"></path></g><path d="M 370 31 h 20 m 0 -10 v 20"></path></g><defs><style type="text/css"><![CDATA[
svg.railroad-diagram path { stroke-width: 2; stroke: darkgray; fill: rgba(0, 0, 0, 0); }svg.railroad-diagram text { font: bold 12px Hack, "Source Code Pro", monospace; text-anchor: middle; fill: #404040; }svg.railroad-diagram text.comment { font: italic 10px Hack, "Source Code Pro", monospace; fill: #404040; }svg.railroad-diagram g.terminal rect { stroke-width: 2; stroke: #404040; fill: rgba(200, 200, 200, 0.8); }svg.railroad-diagram g.non-terminal rect { stroke-width: 2; stroke: #404040; fill: rgba(255, 255, 255, 1); }svg.railroad-diagram text.diagram-text { font-size: 12px Hack, "Source Code Pro", monospace; fill: red; }svg.railroad-diagram path.diagram-text { stroke-width: 1; stroke: red; fill: red; cursor: help; }
 ]]>
</style></defs></svg>