<?xml version="1.0" encoding="UTF-8" standalone="no"?>
<!DOCTYPE svg PUBLIC "-//W3C//DTD SVG 1.1//EN" "http://www.w3.org/Graphics/SVG/1.1/DTD/svg11.dtd">
<svg class="railroad-diagram" width="822.5" height="131" viewBox="0 0 822.5 131" id="revokeRestRoleStatement" xmlns="http://www.w3.org/2000/svg" xmlns:xlink="http://www.w3.org/1999/xlink"><g transform="translate(.5 .5)"><g><path d="M20 37v20m0 -10h20"></path></g><g><path d="M40 47h0"></path><path d="M782.5 101h0"></path><path d="M40 47h20"></path><g><path d="M60 47h0"></path><path d="M60 47h10"></path><g><path d="M70 47h0"></path><path d="M732.5 47h20"></path><g class="terminal "><path d="M70 47h0"></path><path d="M141 47h0"></path><rect x="70" y="36" width="71" height="22"></rect><text x="105.5" y="51">REVOKE</text></g><path d="M141 47h10"></path><path d="M151 47h10"></path><g class="terminal "><path d="M161 47h0"></path><path d="M215 47h0"></path><rect x="161" y="36" width="54" height="22"></rect><text x="188" y="51">REST</text></g><path d="M215 47h10"></path><path d="M225 47h10"></path><g class="terminal "><path d="M235 47h0"></path><path d="M289 47h0"></path><rect x="235" y="36" width="54" height="22"></rect><text x="262" y="51">ROLE</text></g><path d="M289 47h10"></path><path d="M299 47h10"></path><g class="non-terminal "><path d="M309 47h0"></path><path d="M397 47h0"></path><rect x="309" y="36" width="88" height="22" rx="10" ry="10"></rect><text x="353" y="51">roleName</text></g><path d="M397 47h10"></path><g><path d="M407 47h0"></path><path d="M560.5 47h0"></path><path d="M407 47a10 10 0 0 0 10 -10v-7a10 10 0 0 1 10 -10"></path><g><path d="M427 20h113.5"></path></g><path d="M540.5 20a10 10 0 0 1 10 10v7a10 10 0 0 0 10 10"></path><path d="M407 47h20"></path><g class="non-terminal "><path d="M427 47h0"></path><path d="M540.5 47h0"></path><rect x="427" y="36" width="113.5" height="22" rx="10" ry="10"></rect><text x="483.75" y="51">roleService</text></g><path d="M540.5 47h20"></path></g><path d="M560.5 47h10"></path><g class="terminal "><path d="M570.5 47h0"></path><path d="M624.5 47h0"></path><rect x="570.5" y="36" width="54" height="22"></rect><text x="597.5" y="51">FROM</text></g><path d="M624.5 47h10"></path><path d="M634.5 47h10"></path><g class="non-terminal "><path d="M644.5 47h0"></path><path d="M732.5 47h0"></path><rect x="644.5" y="36" width="88" height="22" rx="10" ry="10"></rect><text x="688.5" y="51">userName</text></g></g><path d="M752.5 47a10 10 0 0 1 10 10v7a10 10 0 0 1 -10 10h-682.5a10 10 0 0 0 -10 10v7a10 10 0 0 0 10 10"></path><g><path d="M70 101h0"></path><path d="M283 101h469.5"></path><g class="terminal "><path d="M70 101h0"></path><path d="M149.5 101h0"></path><rect x="70" y="90" width="79.5" height="22"></rect><text x="109.75" y="105">AT_SIGN</text></g><path d="M149.5 101h10"></path><path d="M159.5 101h10"></path><g class="non-terminal "><path d="M169.5 101h0"></path><path d="M283 101h0"></path><rect x="169.5" y="90" width="113.5" height="22" rx="10" ry="10"></rect><text x="226.25" y="105">authAppName</text></g></g><path d="M752.5 101h10"></path><path d="M762.5 101h0"></path></g><path d="M762.5 101h20"></path></g><path d="M 782.5 101 h 20 m 0 -10 v 20"></path></g><defs><style type="text/css"><![CDATA[
svg.railroad-diagram path { stroke-width: 2; stroke: darkgray; fill: rgba(0, 0, 0, 0); }svg.railroad-diagram text { font: bold 12px Hack, "Source Code Pro", monospace; text-anchor: middle; fill: #404040; }svg.railroad-diagram text.comment { font: italic 10px Hack, "Source Code Pro", monospace; fill: #404040; }svg.railroad-diagram g.terminal rect { stroke-width: 2; stroke: #404040; fill: rgba(200, 200, 200, 0.8); }svg.railroad-diagram g.non-terminal rect { stroke-width: 2; stroke: #404040; fill: rgba(255, 255, 255, 1); }svg.railroad-diagram text.diagram-text { font-size: 12px Hack, "Source Code Pro", monospace; fill: red; }svg.railroad-diagram path.diagram-text { stroke-width: 1; stroke: red; fill: red; cursor: help; }
 ]]>
</style></defs></svg>