<?xml version="1.0" encoding="UTF-8" standalone="no"?>
<!DOCTYPE svg PUBLIC "-//W3C//DTD SVG 1.1//EN" "http://www.w3.org/Graphics/SVG/1.1/DTD/svg11.dtd">
<svg class="railroad-diagram" width="935.5" height="217" viewBox="0 0 935.5 217" id="revokeRestPrivilegeStatement" xmlns="http://www.w3.org/2000/svg" xmlns:xlink="http://www.w3.org/1999/xlink"><g transform="translate(.5 .5)"><g><path d="M20 21v20m0 -10h20"></path></g><g><path d="M40 31h0"></path><path d="M895.5 187h0"></path><path d="M40 31h20"></path><g><path d="M60 31h0"></path><path d="M60 31h10"></path><g><path d="M70 31h0"></path><path d="M365.5 31h500"></path><g class="terminal "><path d="M70 31h0"></path><path d="M141 31h0"></path><rect x="70" y="20" width="71" height="22"></rect><text x="105.5" y="35">REVOKE</text></g><path d="M141 31h10"></path><path d="M151 31h10"></path><g class="terminal "><path d="M161 31h0"></path><path d="M215 31h0"></path><rect x="161" y="20" width="54" height="22"></rect><text x="188" y="35">REST</text></g><path d="M215 31h10"></path><path d="M225 31h10"></path><g class="non-terminal "><path d="M235 31h0"></path><path d="M365.5 31h0"></path><rect x="235" y="20" width="130.5" height="22" rx="10" ry="10"></rect><text x="300.25" y="35">privilegeList</text></g></g><path d="M865.5 31a10 10 0 0 1 10 10v7a10 10 0 0 1 -10 10h-795.5a10 10 0 0 0 -10 10v39a10 10 0 0 0 10 10"></path><g><path d="M70 117h0"></path><path d="M845.5 117h20"></path><g><path d="M70 117h0"></path><path d="M673.5 117h0"></path><path d="M70 117a10 10 0 0 0 10 -10v-23a10 10 0 0 1 10 -10"></path><g><path d="M90 74h563.5"></path></g><path d="M653.5 74a10 10 0 0 1 10 10v23a10 10 0 0 0 10 10"></path><path d="M70 117h20"></path><g><path d="M90 117h0"></path><path d="M653.5 117h0"></path><path d="M90 117h20"></path><g><path d="M110 117h0"></path><g><path d="M110 117h0"></path><path d="M587.5 117h20"></path><g><path d="M110 117h0"></path><path d="M587.5 117h0"></path><path d="M110 117h20"></path><g><path d="M130 117h0"></path><g><path d="M130 117h0"></path><path d="M547.5 117h20"></path><g class="terminal "><path d="M130 117h0"></path><path d="M167 117h0"></path><rect x="130" y="106" width="37" height="22"></rect><text x="148.5" y="121">ON</text></g><path d="M167 117h10"></path><g><path d="M177 117h0"></path><path d="M296.5 117h0"></path><path d="M177 117a10 10 0 0 0 10 -10v-7a10 10 0 0 1 10 -10"></path><g><path d="M197 90h79.5"></path></g><path d="M276.5 90a10 10 0 0 1 10 10v7a10 10 0 0 0 10 10"></path><path d="M177 117h20"></path><g class="terminal "><path d="M197 117h0"></path><path d="M276.5 117h0"></path><rect x="197" y="106" width="79.5" height="22"></rect><text x="236.75" y="121">SERVICE</text></g><path d="M276.5 117h20"></path></g><path d="M296.5 117h10"></path><g class="non-terminal "><path d="M306.5 117h0"></path><path d="M547.5 117h0"></path><rect x="306.5" y="106" width="241" height="22" rx="10" ry="10"></rect><text x="427" y="121">serviceRequestPathWildcard</text></g></g><path d="M567.5 117h0"></path></g><path d="M567.5 117h20"></path></g></g><path d="M607.5 117h26"></path></g><path d="M633.5 117h20"></path><path d="M90 117a10 10 0 0 1 10 10v18a10 10 0 0 0 10 10"></path><g><path d="M110 155h0"></path><g><path d="M110 155h0"></path><path d="M613.5 225h20"></path><g><path d="M110 155h0"></path><path d="M613.5 225h0"></path><path d="M110 155h20"></path><g><path d="M130 155h0"></path><path d="M130 155h10"></path><g><path d="M140 155h0"></path><path d="M463.5 155h120"></path><g class="terminal "><path d="M140 155h0"></path><path d="M177 155h0"></path><rect x="140" y="144" width="37" height="22"></rect><text x="158.5" y="159">ON</text></g><path d="M177 155h10"></path><path d="M187 155h10"></path><g class="non-terminal "><path d="M197 155h0"></path><path d="M463.5 155h0"></path><rect x="197" y="144" width="266.5" height="22" rx="10" ry="10"></rect><text x="330.25" y="159">serviceSchemaSelectorWildcard</text></g></g><path d="M583.5 155a10 10 0 0 1 10 10v7a10 10 0 0 1 -10 10h-443.5a10 10 0 0 0 -10 10v23a10 10 0 0 0 10 10"></path><g><path d="M140 225h0"></path><path d="M563.5 225h20"></path><g><path d="M140 225h0"></path><path d="M563.5 225h0"></path><path d="M140 225a10 10 0 0 0 10 -10v-7a10 10 0 0 1 10 -10"></path><g><path d="M160 198h383.5"></path></g><path d="M543.5 198a10 10 0 0 1 10 10v7a10 10 0 0 0 10 10"></path><path d="M140 225h20"></path><g><path d="M160 225h0"></path><path d="M543.5 225h0"></path><path d="M160 225h20"></path><g><path d="M180 225h0"></path><g><path d="M180 225h0"></path><path d="M503.5 225h20"></path><g class="terminal "><path d="M180 225h0"></path><path d="M251 225h0"></path><rect x="180" y="214" width="71" height="22"></rect><text x="215.5" y="229">OBJECT</text></g><path d="M251 225h10"></path><path d="M261 225h10"></path><g class="non-terminal "><path d="M271 225h0"></path><path d="M503.5 225h0"></path><rect x="271" y="214" width="232.5" height="22" rx="10" ry="10"></rect><text x="387.25" y="229">objectRequestPathWildcard</text></g></g><path d="M523.5 225h0"></path></g><path d="M523.5 225h20"></path></g><path d="M543.5 225h20"></path></g></g><path d="M583.5 225h10"></path><path d="M593.5 225h0"></path></g><path d="M593.5 225h20"></path></g></g><path d="M633.5 225h0"></path></g><path d="M633.5 225a10 10 0 0 0 10 -10v-88a10 10 0 0 1 10 -10"></path></g><path d="M653.5 117h20"></path></g><path d="M673.5 117h10"></path><g class="terminal "><path d="M683.5 117h0"></path><path d="M737.5 117h0"></path><rect x="683.5" y="106" width="54" height="22"></rect><text x="710.5" y="121">FROM</text></g><path d="M737.5 117h10"></path><path d="M747.5 117h10"></path><g class="non-terminal "><path d="M757.5 117h0"></path><path d="M845.5 117h0"></path><rect x="757.5" y="106" width="88" height="22" rx="10" ry="10"></rect><text x="801.5" y="121">roleName</text></g></g><path d="M865.5 117a10 10 0 0 1 10 10v7a10 10 0 0 1 -10 10h-795.5a10 10 0 0 0 -10 10v23a10 10 0 0 0 10 10"></path><g><path d="M70 187h0"></path><path d="M223.5 187h642"></path><g><path d="M70 187h0"></path><path d="M223.5 187h0"></path><path d="M70 187a10 10 0 0 0 10 -10v-7a10 10 0 0 1 10 -10"></path><g><path d="M90 160h113.5"></path></g><path d="M203.5 160a10 10 0 0 1 10 10v7a10 10 0 0 0 10 10"></path><path d="M70 187h20"></path><g class="non-terminal "><path d="M90 187h0"></path><path d="M203.5 187h0"></path><rect x="90" y="176" width="113.5" height="22" rx="10" ry="10"></rect><text x="146.75" y="191">roleService</text></g><path d="M203.5 187h20"></path></g></g><path d="M865.5 187h10"></path><path d="M875.5 187h0"></path></g><path d="M875.5 187h20"></path></g><path d="M 895.5 187 h 20 m 0 -10 v 20"></path></g><defs><style type="text/css"><![CDATA[
svg.railroad-diagram path { stroke-width: 2; stroke: darkgray; fill: rgba(0, 0, 0, 0); }svg.railroad-diagram text { font: bold 12px Hack, "Source Code Pro", monospace; text-anchor: middle; fill: #404040; }svg.railroad-diagram text.comment { font: italic 10px Hack, "Source Code Pro", monospace; fill: #404040; }svg.railroad-diagram g.terminal rect { stroke-width: 2; stroke: #404040; fill: rgba(200, 200, 200, 0.8); }svg.railroad-diagram g.non-terminal rect { stroke-width: 2; stroke: #404040; fill: rgba(255, 255, 255, 1); }svg.railroad-diagram text.diagram-text { font-size: 12px Hack, "Source Code Pro", monospace; fill: red; }svg.railroad-diagram path.diagram-text { stroke-width: 1; stroke: red; fill: red; cursor: help; }
 ]]>
</style></defs></svg>