<?xml version="1.0" encoding="UTF-8" standalone="no"?>
<!DOCTYPE svg PUBLIC "-//W3C//DTD SVG 1.1//EN" "http://www.w3.org/Graphics/SVG/1.1/DTD/svg11.dtd">
<svg class="railroad-diagram" width="768.5" height="115" viewBox="0 0 768.5 115" id="revokeRestRoleStatement" xmlns="http://www.w3.org/2000/svg" xmlns:xlink="http://www.w3.org/1999/xlink"><g transform="translate(.5 .5)"><g><path d="M20 21v20m0 -10h20"></path></g><g><path d="M40 31h0"></path><path d="M728.5 85h0"></path><path d="M40 31h20"></path><g><path d="M60 31h0"></path><path d="M60 31h10"></path><g><path d="M70 31h0"></path><path d="M678.5 31h20"></path><g class="terminal "><path d="M70 31h0"></path><path d="M141 31h0"></path><rect x="70" y="20" width="71" height="22"></rect><text x="105.5" y="35">REVOKE</text></g><path d="M141 31h10"></path><path d="M151 31h10"></path><g class="terminal "><path d="M161 31h0"></path><path d="M215 31h0"></path><rect x="161" y="20" width="54" height="22"></rect><text x="188" y="35">REST</text></g><path d="M215 31h10"></path><path d="M225 31h10"></path><g class="terminal "><path d="M235 31h0"></path><path d="M289 31h0"></path><rect x="235" y="20" width="54" height="22"></rect><text x="262" y="35">ROLE</text></g><path d="M289 31h10"></path><path d="M299 31h10"></path><g class="non-terminal "><path d="M309 31h0"></path><path d="M397 31h0"></path><rect x="309" y="20" width="88" height="22" rx="10" ry="10"></rect><text x="353" y="35">roleName</text></g><path d="M397 31h10"></path><path d="M407 31h10"></path><g class="terminal "><path d="M417 31h0"></path><path d="M471 31h0"></path><rect x="417" y="20" width="54" height="22"></rect><text x="444" y="35">FROM</text></g><path d="M471 31h10"></path><path d="M481 31h10"></path><g class="non-terminal "><path d="M491 31h0"></path><path d="M579 31h0"></path><rect x="491" y="20" width="88" height="22" rx="10" ry="10"></rect><text x="535" y="35">userName</text></g><path d="M579 31h10"></path><path d="M589 31h10"></path><g class="terminal "><path d="M599 31h0"></path><path d="M678.5 31h0"></path><rect x="599" y="20" width="79.5" height="22"></rect><text x="638.75" y="35">AT_SIGN</text></g></g><path d="M698.5 31a10 10 0 0 1 10 10v7a10 10 0 0 1 -10 10h-628.5a10 10 0 0 0 -10 10v7a10 10 0 0 0 10 10"></path><g><path d="M70 85h0"></path><path d="M183.5 85h515"></path><g class="non-terminal "><path d="M70 85h0"></path><path d="M183.5 85h0"></path><rect x="70" y="74" width="113.5" height="22" rx="10" ry="10"></rect><text x="126.75" y="89">authAppName</text></g></g><path d="M698.5 85h10"></path><path d="M708.5 85h0"></path></g><path d="M708.5 85h20"></path></g><path d="M 728.5 85 h 20 m 0 -10 v 20"></path></g><defs><style type="text/css"><![CDATA[
svg.railroad-diagram path { stroke-width: 2; stroke: darkgray; fill: rgba(0, 0, 0, 0); }svg.railroad-diagram text { font: bold 12px Hack, "Source Code Pro", monospace; text-anchor: middle; fill: #404040; }svg.railroad-diagram text.comment { font: italic 10px Hack, "Source Code Pro", monospace; fill: #404040; }svg.railroad-diagram g.terminal rect { stroke-width: 2; stroke: #404040; fill: rgba(200, 200, 200, 0.8); }svg.railroad-diagram g.non-terminal rect { stroke-width: 2; stroke: #404040; fill: rgba(255, 255, 255, 1); }svg.railroad-diagram text.diagram-text { font-size: 12px Hack, "Source Code Pro", monospace; fill: red; }svg.railroad-diagram path.diagram-text { stroke-width: 1; stroke: red; fill: red; cursor: help; }
 ]]>
</style></defs></svg>