<?xml version="1.0" encoding="UTF-8" standalone="no"?>
<!DOCTYPE svg PUBLIC "-//W3C//DTD SVG 1.1//EN" "http://www.w3.org/Graphics/SVG/1.1/DTD/svg11.dtd">
<svg class="railroad-diagram" width="945" height="201" viewBox="0 0 945 201" id="revokeRestPrivilegeStatement" xmlns="http://www.w3.org/2000/svg" xmlns:xlink="http://www.w3.org/1999/xlink"><g transform="translate(.5 .5)"><g><path d="M20 21v20m0 -10h20"></path></g><g><path d="M40 31h0"></path><path d="M905 171h0"></path><path d="M40 31h20"></path><g><path d="M60 31h0"></path><path d="M60 31h10"></path><g><path d="M70 31h0"></path><path d="M365.5 31h509.5"></path><g class="terminal "><path d="M70 31h0"></path><path d="M141 31h0"></path><rect x="70" y="20" width="71" height="22"></rect><text x="105.5" y="35">REVOKE</text></g><path d="M141 31h10"></path><path d="M151 31h10"></path><g class="terminal "><path d="M161 31h0"></path><path d="M215 31h0"></path><rect x="161" y="20" width="54" height="22"></rect><text x="188" y="35">REST</text></g><path d="M215 31h10"></path><path d="M225 31h10"></path><g class="non-terminal "><path d="M235 31h0"></path><path d="M365.5 31h0"></path><rect x="235" y="20" width="130.5" height="22" rx="10" ry="10"></rect><text x="300.25" y="35">privilegeList</text></g></g><path d="M875 31a10 10 0 0 1 10 10v7a10 10 0 0 1 -10 10h-805a10 10 0 0 0 -10 10v39a10 10 0 0 0 10 10"></path><g><path d="M70 117h0"></path><path d="M855 117h20"></path><g><path d="M70 117h0"></path><path d="M791 117h0"></path><path d="M70 117a10 10 0 0 0 10 -10v-23a10 10 0 0 1 10 -10"></path><g><path d="M90 74h681"></path></g><path d="M771 74a10 10 0 0 1 10 10v23a10 10 0 0 0 10 10"></path><path d="M70 117h20"></path><g><path d="M90 117h0"></path><path d="M771 117h0"></path><path d="M90 117h20"></path><g><path d="M110 117h0"></path><g><path d="M110 117h0"></path><path d="M731 117h20"></path><g class="terminal "><path d="M110 117h0"></path><path d="M147 117h0"></path><rect x="110" y="106" width="37" height="22"></rect><text x="128.5" y="121">ON</text></g><path d="M147 117h10"></path><path d="M157 117h10"></path><g class="non-terminal "><path d="M167 117h0"></path><path d="M365.5 117h0"></path><rect x="167" y="106" width="198.5" height="22" rx="10" ry="10"></rect><text x="266.25" y="121">serviceSchemaSelector</text></g><path d="M365.5 117h10"></path><g><path d="M375.5 117h0"></path><path d="M731 117h0"></path><path d="M375.5 117a10 10 0 0 0 10 -10v-7a10 10 0 0 1 10 -10"></path><g><path d="M395.5 90h315.5"></path></g><path d="M711 90a10 10 0 0 1 10 10v7a10 10 0 0 0 10 10"></path><path d="M375.5 117h20"></path><g><path d="M395.5 117h0"></path><path d="M711 117h0"></path><path d="M395.5 117h20"></path><g><path d="M415.5 117h0"></path><g><path d="M415.5 117h0"></path><path d="M671 117h20"></path><g class="terminal "><path d="M415.5 117h0"></path><path d="M486.5 117h0"></path><rect x="415.5" y="106" width="71" height="22"></rect><text x="451" y="121">OBJECT</text></g><path d="M486.5 117h10"></path><path d="M496.5 117h10"></path><g class="non-terminal "><path d="M506.5 117h0"></path><path d="M671 117h0"></path><rect x="506.5" y="106" width="164.5" height="22" rx="10" ry="10"></rect><text x="588.75" y="121">objectRequestPath</text></g></g><path d="M691 117h0"></path></g><path d="M691 117h20"></path></g><path d="M711 117h20"></path></g></g><path d="M751 117h0"></path></g><path d="M751 117h20"></path></g><path d="M771 117h20"></path></g><path d="M791 117h10"></path><g class="terminal "><path d="M801 117h0"></path><path d="M855 117h0"></path><rect x="801" y="106" width="54" height="22"></rect><text x="828" y="121">FROM</text></g></g><path d="M875 117a10 10 0 0 1 10 10v7a10 10 0 0 1 -10 10h-805a10 10 0 0 0 -10 10v7a10 10 0 0 0 10 10"></path><g><path d="M70 171h0"></path><path d="M158 171h717"></path><g class="non-terminal "><path d="M70 171h0"></path><path d="M158 171h0"></path><rect x="70" y="160" width="88" height="22" rx="10" ry="10"></rect><text x="114" y="175">roleName</text></g></g><path d="M875 171h10"></path><path d="M885 171h0"></path></g><path d="M885 171h20"></path></g><path d="M 905 171 h 20 m 0 -10 v 20"></path></g><defs><style type="text/css"><![CDATA[
svg.railroad-diagram path { stroke-width: 2; stroke: darkgray; fill: rgba(0, 0, 0, 0); }svg.railroad-diagram text { font: bold 12px Hack, "Source Code Pro", monospace; text-anchor: middle; fill: #404040; }svg.railroad-diagram text.comment { font: italic 10px Hack, "Source Code Pro", monospace; fill: #404040; }svg.railroad-diagram g.terminal rect { stroke-width: 2; stroke: #404040; fill: rgba(200, 200, 200, 0.8); }svg.railroad-diagram g.non-terminal rect { stroke-width: 2; stroke: #404040; fill: rgba(255, 255, 255, 1); }svg.railroad-diagram text.diagram-text { font-size: 12px Hack, "Source Code Pro", monospace; fill: red; }svg.railroad-diagram path.diagram-text { stroke-width: 1; stroke: red; fill: red; cursor: help; }
 ]]>
</style></defs></svg>