<?xml version="1.0" encoding="UTF-8" standalone="no"?>
<!DOCTYPE svg PUBLIC "-//W3C//DTD SVG 1.1//EN" "http://www.w3.org/Graphics/SVG/1.1/DTD/svg11.dtd">
<svg class="railroad-diagram" width="549.5" height="116" viewBox="0 0 549.5 116" id="roleService" xmlns="http://www.w3.org/2000/svg" xmlns:xlink="http://www.w3.org/1999/xlink"><g transform="translate(.5 .5)"><g><path d="M20 21v20m0 -10h20"></path></g><g><path d="M40 31h0"></path><path d="M509.5 31h0"></path><path d="M40 31h20"></path><g><path d="M60 31h0"></path><g><path d="M60 31h10"></path><path d="M479.5 31h10"></path><g class="terminal "><path d="M70 31h0"></path><path d="M107 31h0"></path><rect x="70" y="20" width="37" height="22"></rect><text x="88.5" y="35">ON</text></g><path d="M107 31h10"></path><g><path d="M117 31h0"></path><path d="M479.5 31h0"></path><path d="M117 31h20"></path><g><path d="M137 31h78.75"></path><g><path d="M215.75 31h10"></path><path d="M370.75 31h10"></path><g class="terminal "><path d="M225.75 31h0"></path><path d="M271.25 31h0"></path><rect x="225.75" y="20" width="45.5" height="22"></rect><text x="248.5" y="35">ANY</text></g><path d="M271.25 31h10"></path><path d="M281.25 31h10"></path><g class="terminal "><path d="M291.25 31h0"></path><path d="M370.75 31h0"></path><rect x="291.25" y="20" width="79.5" height="22"></rect><text x="331" y="35">SERVICE</text></g></g><path d="M380.75 31h78.75"></path></g><path d="M459.5 31h20"></path><path d="M117 31a10 10 0 0 1 10 10v34a10 10 0 0 0 10 10"></path><g><path d="M137 85h0"></path><g><path d="M137 85h10"></path><path d="M449.5 85h10"></path><g><path d="M147 85h0"></path><path d="M266.5 85h0"></path><path d="M147 85a10 10 0 0 0 10 -10v-7a10 10 0 0 1 10 -10"></path><g><path d="M167 58h79.5"></path></g><path d="M246.5 58a10 10 0 0 1 10 10v7a10 10 0 0 0 10 10"></path><path d="M147 85h20"></path><g class="terminal "><path d="M167 85h0"></path><path d="M246.5 85h0"></path><rect x="167" y="74" width="79.5" height="22"></rect><text x="206.75" y="89">SERVICE</text></g><path d="M246.5 85h20"></path></g><path d="M266.5 85h10"></path><g class="non-terminal "><path d="M276.5 85h0"></path><path d="M449.5 85h0"></path><rect x="276.5" y="74" width="173" height="22" rx="10" ry="10"></rect><text x="363" y="89">serviceRequestPath</text></g></g><path d="M459.5 85h0"></path></g><path d="M459.5 85a10 10 0 0 0 10 -10v-34a10 10 0 0 1 10 -10"></path></g></g><path d="M489.5 31h0"></path></g><path d="M489.5 31h20"></path></g><path d="M 509.5 31 h 20 m 0 -10 v 20"></path></g><defs><style type="text/css"><![CDATA[
svg.railroad-diagram path { stroke-width: 2; stroke: darkgray; fill: rgba(0, 0, 0, 0); }svg.railroad-diagram text { font: bold 12px Hack, "Source Code Pro", monospace; text-anchor: middle; fill: #404040; }svg.railroad-diagram text.comment { font: italic 10px Hack, "Source Code Pro", monospace; fill: #404040; }svg.railroad-diagram g.terminal rect { stroke-width: 2; stroke: #404040; fill: rgba(200, 200, 200, 0.8); }svg.railroad-diagram g.non-terminal rect { stroke-width: 2; stroke: #404040; fill: rgba(255, 255, 255, 1); }svg.railroad-diagram text.diagram-text { font-size: 12px Hack, "Source Code Pro", monospace; fill: red; }svg.railroad-diagram path.diagram-text { stroke-width: 1; stroke: red; fill: red; cursor: help; }
 ]]>
</style></defs></svg>