<?xml version="1.0" encoding="UTF-8" standalone="no"?>
<!DOCTYPE svg PUBLIC "-//W3C//DTD SVG 1.1//EN" "http://www.w3.org/Graphics/SVG/1.1/DTD/svg11.dtd">
<svg class="railroad-diagram" width="688" height="131" viewBox="0 0 688 131" id="serviceRequestPath" xmlns="http://www.w3.org/2000/svg" xmlns:xlink="http://www.w3.org/1999/xlink"><g transform="translate(.5 .5)"><g><path d="M20 37v20m0 -10h20"></path></g><g><path d="M40 47h0"></path><path d="M648 101h0"></path><path d="M40 47h20"></path><g><path d="M60 47h0"></path><path d="M60 47h10"></path><g><path d="M70 47h0"></path><path d="M598 47h20"></path><g><path d="M70 47h0"></path><path d="M359.5 47h0"></path><path d="M70 47a10 10 0 0 0 10 -10v-7a10 10 0 0 1 10 -10"></path><g><path d="M90 20h249.5"></path></g><path d="M339.5 20a10 10 0 0 1 10 10v7a10 10 0 0 0 10 10"></path><path d="M70 47h20"></path><g class="non-terminal "><path d="M90 47h0"></path><path d="M339.5 47h0"></path><rect x="90" y="36" width="249.5" height="22" rx="10" ry="10"></rect><text x="214.75" y="51">serviceDevelopersIdentifier</text></g><path d="M339.5 47h20"></path></g><g><path d="M359.5 47h0"></path><path d="M598 47h0"></path><path d="M359.5 47a10 10 0 0 0 10 -10v-7a10 10 0 0 1 10 -10"></path><g><path d="M379.5 20h198.5"></path></g><path d="M578 20a10 10 0 0 1 10 10v7a10 10 0 0 0 10 10"></path><path d="M359.5 47h20"></path><g class="non-terminal "><path d="M379.5 47h0"></path><path d="M578 47h0"></path><rect x="379.5" y="36" width="198.5" height="22" rx="10" ry="10"></rect><text x="478.75" y="51">hostAndPortIdentifier</text></g><path d="M578 47h20"></path></g></g><path d="M618 47a10 10 0 0 1 10 10v7a10 10 0 0 1 -10 10h-548a10 10 0 0 0 -10 10v7a10 10 0 0 0 10 10"></path><g><path d="M70 101h0"></path><path d="M268.5 101h349.5"></path><g class="non-terminal "><path d="M70 101h0"></path><path d="M268.5 101h0"></path><rect x="70" y="90" width="198.5" height="22" rx="10" ry="10"></rect><text x="169.25" y="105">requestPathIdentifier</text></g></g><path d="M618 101h10"></path><path d="M628 101h0"></path></g><path d="M628 101h20"></path></g><path d="M 648 101 h 20 m 0 -10 v 20"></path></g><defs><style type="text/css"><![CDATA[
svg.railroad-diagram path { stroke-width: 2; stroke: darkgray; fill: rgba(0, 0, 0, 0); }svg.railroad-diagram text { font: bold 12px Hack, "Source Code Pro", monospace; text-anchor: middle; fill: #404040; }svg.railroad-diagram text.comment { font: italic 10px Hack, "Source Code Pro", monospace; fill: #404040; }svg.railroad-diagram g.terminal rect { stroke-width: 2; stroke: #404040; fill: rgba(200, 200, 200, 0.8); }svg.railroad-diagram g.non-terminal rect { stroke-width: 2; stroke: #404040; fill: rgba(255, 255, 255, 1); }svg.railroad-diagram text.diagram-text { font-size: 12px Hack, "Source Code Pro", monospace; fill: red; }svg.railroad-diagram path.diagram-text { stroke-width: 1; stroke: red; fill: red; cursor: help; }
 ]]>
</style></defs></svg>