<?xml version="1.0" encoding="UTF-8" standalone="no"?>
<!DOCTYPE svg PUBLIC "-//W3C//DTD SVG 1.1//EN" "http://www.w3.org/Graphics/SVG/1.1/DTD/svg11.dtd">
<svg class="railroad-diagram" width="693" height="131" viewBox="0 0 693 131" id="serviceDevelopersIdentifier" xmlns="http://www.w3.org/2000/svg" xmlns:xlink="http://www.w3.org/1999/xlink"><g transform="translate(.5 .5)"><g><path d="M20 21v20m0 -10h20"></path></g><g><path d="M40 31h0"></path><path d="M653 101h0"></path><path d="M40 31h20"></path><g><path d="M60 31h0"></path><path d="M60 31h10"></path><g><path d="M70 31h0"></path><path d="M311 31h312"></path><g class="non-terminal "><path d="M70 31h0"></path><path d="M311 31h0"></path><rect x="70" y="20" width="241" height="22" rx="10" ry="10"></rect><text x="190.5" y="35">serviceDeveloperIdentifier</text></g></g><path d="M623 31a10 10 0 0 1 10 10v7a10 10 0 0 1 -10 10h-553a10 10 0 0 0 -10 10v23a10 10 0 0 0 10 10"></path><g><path d="M70 101h0"></path><path d="M603 101h20"></path><g><path d="M70 101h0"></path><path d="M513.5 101h0"></path><path d="M70 101a10 10 0 0 0 10 -10v-7a10 10 0 0 1 10 -10"></path><g><path d="M90 74h403.5"></path></g><path d="M493.5 74a10 10 0 0 1 10 10v7a10 10 0 0 0 10 10"></path><path d="M70 101h20"></path><g><path d="M90 101h0"></path><path d="M493.5 101h0"></path><path d="M90 101h10"></path><g><path d="M100 101h0"></path><path d="M483.5 101h0"></path><path d="M100 101h20"></path><g><path d="M120 101h0"></path><g><path d="M120 101h0"></path><path d="M443.5 101h20"></path><g class="terminal "><path d="M120 101h0"></path><path d="M182.5 101h0"></path><rect x="120" y="90" width="62.5" height="22"></rect><text x="151.25" y="105">COMMA</text></g><path d="M182.5 101h10"></path><path d="M192.5 101h10"></path><g class="non-terminal "><path d="M202.5 101h0"></path><path d="M443.5 101h0"></path><rect x="202.5" y="90" width="241" height="22" rx="10" ry="10"></rect><text x="323" y="105">serviceDeveloperIdentifier</text></g></g><path d="M463.5 101h0"></path></g><path d="M463.5 101h20"></path></g><path d="M483.5 101h10"></path><path d="M100 101a10 10 0 0 0 -10 10v7a10 10 0 0 0 10 10"></path><g><path d="M100 128h383.5"></path></g><path d="M483.5 128a10 10 0 0 0 10 -10v-7a10 10 0 0 0 -10 -10"></path></g><path d="M493.5 101h20"></path></g><path d="M513.5 101h10"></path><g class="terminal "><path d="M523.5 101h0"></path><path d="M603 101h0"></path><rect x="523.5" y="90" width="79.5" height="22"></rect><text x="563.25" y="105">AT_SIGN</text></g></g><path d="M623 101h10"></path><path d="M633 101h0"></path></g><path d="M633 101h20"></path></g><path d="M 653 101 h 20 m 0 -10 v 20"></path></g><defs><style type="text/css"><![CDATA[
svg.railroad-diagram path { stroke-width: 2; stroke: darkgray; fill: rgba(0, 0, 0, 0); }svg.railroad-diagram text { font: bold 12px Hack, "Source Code Pro", monospace; text-anchor: middle; fill: #404040; }svg.railroad-diagram text.comment { font: italic 10px Hack, "Source Code Pro", monospace; fill: #404040; }svg.railroad-diagram g.terminal rect { stroke-width: 2; stroke: #404040; fill: rgba(200, 200, 200, 0.8); }svg.railroad-diagram g.non-terminal rect { stroke-width: 2; stroke: #404040; fill: rgba(255, 255, 255, 1); }svg.railroad-diagram text.diagram-text { font-size: 12px Hack, "Source Code Pro", monospace; fill: red; }svg.railroad-diagram path.diagram-text { stroke-width: 1; stroke: red; fill: red; cursor: help; }
 ]]>
</style></defs></svg>