<?xml version="1.0" encoding="UTF-8" standalone="no"?>
<!DOCTYPE svg PUBLIC "-//W3C//DTD SVG 1.1//EN" "http://www.w3.org/Graphics/SVG/1.1/DTD/svg11.dtd">
<svg class="railroad-diagram" width="681.5" height="131" viewBox="0 0 681.5 131" id="serviceSchemaSelectorWildcard" xmlns="http://www.w3.org/2000/svg" xmlns:xlink="http://www.w3.org/1999/xlink"><g transform="translate(.5 .5)"><g><path d="M20 37v20m0 -10h20"></path></g><g><path d="M40 47h0"></path><path d="M641.5 101h0"></path><path d="M40 47h20"></path><g><path d="M60 47h0"></path><path d="M60 47h10"></path><g><path d="M70 47h0"></path><path d="M591.5 47h20"></path><g><path d="M70 47h0"></path><path d="M510.5 47h0"></path><path d="M70 47a10 10 0 0 0 10 -10v-7a10 10 0 0 1 10 -10"></path><g><path d="M90 20h400.5"></path></g><path d="M490.5 20a10 10 0 0 1 10 10v7a10 10 0 0 0 10 10"></path><path d="M70 47h20"></path><g><path d="M90 47h0"></path><path d="M490.5 47h0"></path><path d="M90 47h20"></path><g><path d="M110 47h0"></path><g><path d="M110 47h0"></path><path d="M450.5 47h20"></path><g class="terminal "><path d="M110 47h0"></path><path d="M189.5 47h0"></path><rect x="110" y="36" width="79.5" height="22"></rect><text x="149.75" y="51">SERVICE</text></g><path d="M189.5 47h10"></path><path d="M199.5 47h10"></path><g class="non-terminal "><path d="M209.5 47h0"></path><path d="M450.5 47h0"></path><rect x="209.5" y="36" width="241" height="22" rx="10" ry="10"></rect><text x="330" y="51">serviceRequestPathWildcard</text></g></g><path d="M470.5 47h0"></path></g><path d="M470.5 47h20"></path></g><path d="M490.5 47h20"></path></g><path d="M510.5 47h10"></path><g class="terminal "><path d="M520.5 47h0"></path><path d="M591.5 47h0"></path><rect x="520.5" y="36" width="71" height="22"></rect><text x="556" y="51">SCHEMA</text></g></g><path d="M611.5 47a10 10 0 0 1 10 10v7a10 10 0 0 1 -10 10h-541.5a10 10 0 0 0 -10 10v7a10 10 0 0 0 10 10"></path><g><path d="M70 101h0"></path><path d="M302.5 101h309"></path><g class="non-terminal "><path d="M70 101h0"></path><path d="M302.5 101h0"></path><rect x="70" y="90" width="232.5" height="22" rx="10" ry="10"></rect><text x="186.25" y="105">schemaRequestPathWildcard</text></g></g><path d="M611.5 101h10"></path><path d="M621.5 101h0"></path></g><path d="M621.5 101h20"></path></g><path d="M 641.5 101 h 20 m 0 -10 v 20"></path></g><defs><style type="text/css"><![CDATA[
svg.railroad-diagram path { stroke-width: 2; stroke: darkgray; fill: rgba(0, 0, 0, 0); }svg.railroad-diagram text { font: bold 12px Hack, "Source Code Pro", monospace; text-anchor: middle; fill: #404040; }svg.railroad-diagram text.comment { font: italic 10px Hack, "Source Code Pro", monospace; fill: #404040; }svg.railroad-diagram g.terminal rect { stroke-width: 2; stroke: #404040; fill: rgba(200, 200, 200, 0.8); }svg.railroad-diagram g.non-terminal rect { stroke-width: 2; stroke: #404040; fill: rgba(255, 255, 255, 1); }svg.railroad-diagram text.diagram-text { font-size: 12px Hack, "Source Code Pro", monospace; fill: red; }svg.railroad-diagram path.diagram-text { stroke-width: 1; stroke: red; fill: red; cursor: help; }
 ]]>
</style></defs></svg>