<?xml version="1.0" encoding="UTF-8" standalone="no"?>
<!DOCTYPE svg PUBLIC "-//W3C//DTD SVG 1.1//EN" "http://www.w3.org/Graphics/SVG/1.1/DTD/svg11.dtd">
<svg class="railroad-diagram" width="705.5" height="151" viewBox="0 0 705.5 151" id="showCreateRestProcedureStatement" xmlns="http://www.w3.org/2000/svg" xmlns:xlink="http://www.w3.org/1999/xlink"><g transform="translate(.5 .5)"><g><path d="M20 21v20m0 -10h20"></path></g><g><path d="M40 31h0"></path><path d="M665.5 101h0"></path><path d="M40 31h20"></path><g><path d="M60 31h0"></path><path d="M60 31h10"></path><g><path d="M70 31h0"></path><path d="M615.5 31h20"></path><g class="terminal "><path d="M70 31h0"></path><path d="M124 31h0"></path><rect x="70" y="20" width="54" height="22"></rect><text x="97" y="35">SHOW</text></g><path d="M124 31h10"></path><path d="M134 31h10"></path><g class="terminal "><path d="M144 31h0"></path><path d="M215 31h0"></path><rect x="144" y="20" width="71" height="22"></rect><text x="179.5" y="35">CREATE</text></g><path d="M215 31h10"></path><path d="M225 31h10"></path><g class="terminal "><path d="M235 31h0"></path><path d="M289 31h0"></path><rect x="235" y="20" width="54" height="22"></rect><text x="262" y="35">REST</text></g><path d="M289 31h10"></path><path d="M299 31h10"></path><g class="terminal "><path d="M309 31h0"></path><path d="M405.5 31h0"></path><rect x="309" y="20" width="96.5" height="22"></rect><text x="357.25" y="35">PROCEDURE</text></g><path d="M405.5 31h10"></path><path d="M415.5 31h10"></path><g class="non-terminal "><path d="M425.5 31h0"></path><path d="M615.5 31h0"></path><rect x="425.5" y="20" width="190" height="22" rx="10" ry="10"></rect><text x="520.5" y="35">procedureRequestPath</text></g></g><path d="M635.5 31a10 10 0 0 1 10 10v7a10 10 0 0 1 -10 10h-565.5a10 10 0 0 0 -10 10v23a10 10 0 0 0 10 10"></path><g><path d="M70 101h0"></path><path d="M492.5 101h143"></path><g><path d="M70 101h0"></path><path d="M492.5 101h0"></path><path d="M70 101a10 10 0 0 0 10 -10v-7a10 10 0 0 1 10 -10"></path><g><path d="M90 74h382.5"></path></g><path d="M472.5 74a10 10 0 0 1 10 10v7a10 10 0 0 0 10 10"></path><path d="M70 101h20"></path><g><path d="M90 101h0"></path><path d="M472.5 101h0"></path><path d="M90 101h20"></path><g><path d="M110 101h0"></path><g><path d="M110 101h0"></path><path d="M432.5 101h20"></path><g><path d="M110 101h0"></path><path d="M224 101h0"></path><path d="M110 101h20"></path><g><path d="M130 101h0"></path><g><path d="M130 101h0"></path><path d="M167 101h20"></path><g class="terminal "><path d="M130 101h0"></path><path d="M167 101h0"></path><rect x="130" y="90" width="37" height="22"></rect><text x="148.5" y="105">ON</text></g></g><path d="M187 101h17"></path></g><path d="M204 101h20"></path><path d="M110 101a10 10 0 0 1 10 10v18a10 10 0 0 0 10 10"></path><g><path d="M130 139h0"></path><g><path d="M130 139h0"></path><path d="M184 139h20"></path><g class="terminal "><path d="M130 139h0"></path><path d="M184 139h0"></path><rect x="130" y="128" width="54" height="22"></rect><text x="157" y="143">FROM</text></g></g><path d="M204 139h0"></path></g><path d="M204 139a10 10 0 0 0 10 -10v-18a10 10 0 0 1 10 -10"></path></g><path d="M224 101h10"></path><g class="non-terminal "><path d="M234 101h0"></path><path d="M432.5 101h0"></path><rect x="234" y="90" width="198.5" height="22" rx="10" ry="10"></rect><text x="333.25" y="105">serviceSchemaSelector</text></g></g><path d="M452.5 101h0"></path></g><path d="M452.5 101h20"></path></g><path d="M472.5 101h20"></path></g></g><path d="M635.5 101h10"></path><path d="M645.5 101h0"></path></g><path d="M645.5 101h20"></path></g><path d="M 665.5 101 h 20 m 0 -10 v 20"></path></g><defs><style type="text/css"><![CDATA[
svg.railroad-diagram path { stroke-width: 2; stroke: darkgray; fill: rgba(0, 0, 0, 0); }svg.railroad-diagram text { font: bold 12px Hack, "Source Code Pro", monospace; text-anchor: middle; fill: #404040; }svg.railroad-diagram text.comment { font: italic 10px Hack, "Source Code Pro", monospace; fill: #404040; }svg.railroad-diagram g.terminal rect { stroke-width: 2; stroke: #404040; fill: rgba(200, 200, 200, 0.8); }svg.railroad-diagram g.non-terminal rect { stroke-width: 2; stroke: #404040; fill: rgba(255, 255, 255, 1); }svg.railroad-diagram text.diagram-text { font-size: 12px Hack, "Source Code Pro", monospace; fill: red; }svg.railroad-diagram path.diagram-text { stroke-width: 1; stroke: red; fill: red; cursor: help; }
 ]]>
</style></defs></svg>