<?xml version="1.0" encoding="UTF-8" standalone="no"?>
<!DOCTYPE svg PUBLIC "-//W3C//DTD SVG 1.1//EN" "http://www.w3.org/Graphics/SVG/1.1/DTD/svg11.dtd">
<svg class="railroad-diagram" width="831.5" height="239" viewBox="0 0 831.5 239" id="showCreateRestContentFileStatement" xmlns="http://www.w3.org/2000/svg" xmlns:xlink="http://www.w3.org/1999/xlink"><g transform="translate(.5 .5)"><g><path d="M20 21v20m0 -10h20"></path></g><g><path d="M40 31h0"></path><path d="M791.5 209h0"></path><path d="M40 31h20"></path><g><path d="M60 31h0"></path><path d="M60 31h10"></path><g><path d="M70 31h0"></path><path d="M689.5 31h72"></path><g class="terminal "><path d="M70 31h0"></path><path d="M124 31h0"></path><rect x="70" y="20" width="54" height="22"></rect><text x="97" y="35">SHOW</text></g><path d="M124 31h10"></path><path d="M134 31h10"></path><g class="terminal "><path d="M144 31h0"></path><path d="M215 31h0"></path><rect x="144" y="20" width="71" height="22"></rect><text x="179.5" y="35">CREATE</text></g><path d="M215 31h10"></path><path d="M225 31h10"></path><g class="terminal "><path d="M235 31h0"></path><path d="M289 31h0"></path><rect x="235" y="20" width="54" height="22"></rect><text x="262" y="35">REST</text></g><path d="M289 31h10"></path><path d="M299 31h10"></path><g class="terminal "><path d="M309 31h0"></path><path d="M388.5 31h0"></path><rect x="309" y="20" width="79.5" height="22"></rect><text x="348.75" y="35">CONTENT</text></g><path d="M388.5 31h10"></path><path d="M398.5 31h10"></path><g class="terminal "><path d="M408.5 31h0"></path><path d="M462.5 31h0"></path><rect x="408.5" y="20" width="54" height="22"></rect><text x="435.5" y="35">FILE</text></g><path d="M462.5 31h10"></path><path d="M472.5 31h10"></path><g class="non-terminal "><path d="M482.5 31h0"></path><path d="M689.5 31h0"></path><rect x="482.5" y="20" width="207" height="22" rx="10" ry="10"></rect><text x="586" y="35">contentFileRequestPath</text></g></g><path d="M761.5 31a10 10 0 0 1 10 10v7a10 10 0 0 1 -10 10h-691.5a10 10 0 0 0 -10 10v39a10 10 0 0 0 10 10"></path><g><path d="M70 117h0"></path><path d="M741.5 117h20"></path><g><path d="M70 117h0"></path><path d="M184 117h0"></path><path d="M70 117h20"></path><g><path d="M90 117h0"></path><g><path d="M90 117h0"></path><path d="M127 117h20"></path><g class="terminal "><path d="M90 117h0"></path><path d="M127 117h0"></path><rect x="90" y="106" width="37" height="22"></rect><text x="108.5" y="121">ON</text></g></g><path d="M147 117h17"></path></g><path d="M164 117h20"></path><path d="M70 117a10 10 0 0 1 10 10v18a10 10 0 0 0 10 10"></path><g><path d="M90 155h0"></path><g><path d="M90 155h0"></path><path d="M144 155h20"></path><g class="terminal "><path d="M90 155h0"></path><path d="M144 155h0"></path><rect x="90" y="144" width="54" height="22"></rect><text x="117" y="159">FROM</text></g></g><path d="M164 155h0"></path></g><path d="M164 155a10 10 0 0 0 10 -10v-18a10 10 0 0 1 10 -10"></path></g><g><path d="M184 117h0"></path><path d="M586.5 117h0"></path><path d="M184 117a10 10 0 0 0 10 -10v-23a10 10 0 0 1 10 -10"></path><g><path d="M204 74h362.5"></path></g><path d="M566.5 74a10 10 0 0 1 10 10v23a10 10 0 0 0 10 10"></path><path d="M184 117h20"></path><g><path d="M204 117h0"></path><path d="M566.5 117h0"></path><path d="M204 117h20"></path><g><path d="M224 117h0"></path><g><path d="M224 117h0"></path><path d="M526.5 117h20"></path><g><path d="M224 117h0"></path><path d="M343.5 117h0"></path><path d="M224 117a10 10 0 0 0 10 -10v-7a10 10 0 0 1 10 -10"></path><g><path d="M244 90h79.5"></path></g><path d="M323.5 90a10 10 0 0 1 10 10v7a10 10 0 0 0 10 10"></path><path d="M224 117h20"></path><g class="terminal "><path d="M244 117h0"></path><path d="M323.5 117h0"></path><rect x="244" y="106" width="79.5" height="22"></rect><text x="283.75" y="121">SERVICE</text></g><path d="M323.5 117h20"></path></g><path d="M343.5 117h10"></path><g class="non-terminal "><path d="M353.5 117h0"></path><path d="M526.5 117h0"></path><rect x="353.5" y="106" width="173" height="22" rx="10" ry="10"></rect><text x="440" y="121">serviceRequestPath</text></g></g><path d="M546.5 117h0"></path></g><path d="M546.5 117h20"></path></g><path d="M566.5 117h20"></path></g><path d="M586.5 117h10"></path><g class="terminal "><path d="M596.5 117h0"></path><path d="M676 117h0"></path><rect x="596.5" y="106" width="79.5" height="22"></rect><text x="636.25" y="121">CONTENT</text></g><path d="M676 117h10"></path><path d="M686 117h10"></path><g class="terminal "><path d="M696 117h0"></path><path d="M741.5 117h0"></path><rect x="696" y="106" width="45.5" height="22"></rect><text x="718.75" y="121">SET</text></g></g><path d="M761.5 117a10 10 0 0 1 10 10v45a10 10 0 0 1 -10 10h-691.5a10 10 0 0 0 -10 10v7a10 10 0 0 0 10 10"></path><g><path d="M70 209h0"></path><path d="M268.5 209h493"></path><g class="non-terminal "><path d="M70 209h0"></path><path d="M268.5 209h0"></path><rect x="70" y="198" width="198.5" height="22" rx="10" ry="10"></rect><text x="169.25" y="213">contentSetRequestPath</text></g></g><path d="M761.5 209h10"></path><path d="M771.5 209h0"></path></g><path d="M771.5 209h20"></path></g><path d="M 791.5 209 h 20 m 0 -10 v 20"></path></g><defs><style type="text/css"><![CDATA[
svg.railroad-diagram path { stroke-width: 2; stroke: darkgray; fill: rgba(0, 0, 0, 0); }svg.railroad-diagram text { font: bold 12px Hack, "Source Code Pro", monospace; text-anchor: middle; fill: #404040; }svg.railroad-diagram text.comment { font: italic 10px Hack, "Source Code Pro", monospace; fill: #404040; }svg.railroad-diagram g.terminal rect { stroke-width: 2; stroke: #404040; fill: rgba(200, 200, 200, 0.8); }svg.railroad-diagram g.non-terminal rect { stroke-width: 2; stroke: #404040; fill: rgba(255, 255, 255, 1); }svg.railroad-diagram text.diagram-text { font-size: 12px Hack, "Source Code Pro", monospace; fill: red; }svg.railroad-diagram path.diagram-text { stroke-width: 1; stroke: red; fill: red; cursor: help; }
 ]]>
</style></defs></svg>