<?xml version="1.0" encoding="UTF-8" standalone="no"?>
<!DOCTYPE svg PUBLIC "-//W3C//DTD SVG 1.1//EN" "http://www.w3.org/Graphics/SVG/1.1/DTD/svg11.dtd">
<svg class="railroad-diagram" width="701.5" height="147" viewBox="0 0 701.5 147" id="showCreateRestServiceStatement" xmlns="http://www.w3.org/2000/svg" xmlns:xlink="http://www.w3.org/1999/xlink"><g transform="translate(.5 .5)"><g><path d="M20 37v20m0 -10h20"></path></g><g><path d="M40 47h0"></path><path d="M661.5 117h0"></path><path d="M40 47h20"></path><g><path d="M60 47h0"></path><path d="M60 47h10"></path><g><path d="M70 47h0"></path><path d="M611.5 47h20"></path><g class="terminal "><path d="M70 47h0"></path><path d="M124 47h0"></path><rect x="70" y="36" width="54" height="22"></rect><text x="97" y="51">SHOW</text></g><path d="M124 47h10"></path><path d="M134 47h10"></path><g class="terminal "><path d="M144 47h0"></path><path d="M215 47h0"></path><rect x="144" y="36" width="71" height="22"></rect><text x="179.5" y="51">CREATE</text></g><path d="M215 47h10"></path><path d="M225 47h10"></path><g class="terminal "><path d="M235 47h0"></path><path d="M289 47h0"></path><rect x="235" y="36" width="54" height="22"></rect><text x="262" y="51">REST</text></g><path d="M289 47h10"></path><path d="M299 47h10"></path><g class="terminal "><path d="M309 47h0"></path><path d="M388.5 47h0"></path><rect x="309" y="36" width="79.5" height="22"></rect><text x="348.75" y="51">SERVICE</text></g><path d="M388.5 47h10"></path><g><path d="M398.5 47h0"></path><path d="M611.5 47h0"></path><path d="M398.5 47a10 10 0 0 0 10 -10v-7a10 10 0 0 1 10 -10"></path><g><path d="M418.5 20h173"></path></g><path d="M591.5 20a10 10 0 0 1 10 10v7a10 10 0 0 0 10 10"></path><path d="M398.5 47h20"></path><g class="non-terminal "><path d="M418.5 47h0"></path><path d="M591.5 47h0"></path><rect x="418.5" y="36" width="173" height="22" rx="10" ry="10"></rect><text x="505" y="51">serviceRequestPath</text></g><path d="M591.5 47h20"></path></g></g><path d="M631.5 47a10 10 0 0 1 10 10v7a10 10 0 0 1 -10 10h-561.5a10 10 0 0 0 -10 10v23a10 10 0 0 0 10 10"></path><g><path d="M70 117h0"></path><path d="M414.5 117h217"></path><g><path d="M70 117h0"></path><path d="M414.5 117h0"></path><path d="M70 117a10 10 0 0 0 10 -10v-7a10 10 0 0 1 10 -10"></path><g><path d="M90 90h304.5"></path></g><path d="M394.5 90a10 10 0 0 1 10 10v7a10 10 0 0 0 10 10"></path><path d="M70 117h20"></path><g><path d="M90 117h0"></path><path d="M394.5 117h0"></path><path d="M90 117h20"></path><g><path d="M110 117h0"></path><g><path d="M110 117h0"></path><path d="M354.5 117h20"></path><g class="terminal "><path d="M110 117h0"></path><path d="M189.5 117h0"></path><rect x="110" y="106" width="79.5" height="22"></rect><text x="149.75" y="121">INCLUDE</text></g><path d="M189.5 117h10"></path><path d="M199.5 117h10"></path><g class="terminal "><path d="M209.5 117h0"></path><path d="M255 117h0"></path><rect x="209.5" y="106" width="45.5" height="22"></rect><text x="232.25" y="121">ALL</text></g><path d="M255 117h10"></path><path d="M265 117h10"></path><g class="terminal "><path d="M275 117h0"></path><path d="M354.5 117h0"></path><rect x="275" y="106" width="79.5" height="22"></rect><text x="314.75" y="121">OBJECTS</text></g></g><path d="M374.5 117h0"></path></g><path d="M374.5 117h20"></path></g><path d="M394.5 117h20"></path></g></g><path d="M631.5 117h10"></path><path d="M641.5 117h0"></path></g><path d="M641.5 117h20"></path></g><path d="M 661.5 117 h 20 m 0 -10 v 20"></path></g><defs><style type="text/css"><![CDATA[
svg.railroad-diagram path { stroke-width: 2; stroke: darkgray; fill: rgba(0, 0, 0, 0); }svg.railroad-diagram text { font: bold 12px Hack, "Source Code Pro", monospace; text-anchor: middle; fill: #404040; }svg.railroad-diagram text.comment { font: italic 10px Hack, "Source Code Pro", monospace; fill: #404040; }svg.railroad-diagram g.terminal rect { stroke-width: 2; stroke: #404040; fill: rgba(200, 200, 200, 0.8); }svg.railroad-diagram g.non-terminal rect { stroke-width: 2; stroke: #404040; fill: rgba(255, 255, 255, 1); }svg.railroad-diagram text.diagram-text { font-size: 12px Hack, "Source Code Pro", monospace; fill: red; }svg.railroad-diagram path.diagram-text { stroke-width: 1; stroke: red; fill: red; cursor: help; }
 ]]>
</style></defs></svg>