<?xml version="1.0" encoding="UTF-8" standalone="no"?>
<!DOCTYPE svg PUBLIC "-//W3C//DTD SVG 1.1//EN" "http://www.w3.org/Graphics/SVG/1.1/DTD/svg11.dtd">
<svg class="railroad-diagram" width="704.5" height="78" viewBox="0 0 704.5 78" id="showCreateRestRoleStatement" xmlns="http://www.w3.org/2000/svg" xmlns:xlink="http://www.w3.org/1999/xlink"><g transform="translate(.5 .5)"><g><path d="M20 37v20m0 -10h20"></path></g><g><path d="M40 47h0"></path><path d="M664.5 47h0"></path><path d="M40 47h20"></path><g><path d="M60 47h0"></path><g><path d="M60 47h10"></path><path d="M634.5 47h10"></path><g class="terminal "><path d="M70 47h0"></path><path d="M124 47h0"></path><rect x="70" y="36" width="54" height="22"></rect><text x="97" y="51">SHOW</text></g><path d="M124 47h10"></path><path d="M134 47h10"></path><g class="terminal "><path d="M144 47h0"></path><path d="M215 47h0"></path><rect x="144" y="36" width="71" height="22"></rect><text x="179.5" y="51">CREATE</text></g><path d="M215 47h10"></path><path d="M225 47h10"></path><g class="terminal "><path d="M235 47h0"></path><path d="M289 47h0"></path><rect x="235" y="36" width="54" height="22"></rect><text x="262" y="51">REST</text></g><path d="M289 47h10"></path><path d="M299 47h10"></path><g class="terminal "><path d="M309 47h0"></path><path d="M363 47h0"></path><rect x="309" y="36" width="54" height="22"></rect><text x="336" y="51">ROLE</text></g><path d="M363 47h10"></path><path d="M373 47h10"></path><g class="non-terminal "><path d="M383 47h0"></path><path d="M471 47h0"></path><rect x="383" y="36" width="88" height="22" rx="10" ry="10"></rect><text x="427" y="51">roleName</text></g><path d="M471 47h10"></path><g><path d="M481 47h0"></path><path d="M634.5 47h0"></path><path d="M481 47a10 10 0 0 0 10 -10v-7a10 10 0 0 1 10 -10"></path><g><path d="M501 20h113.5"></path></g><path d="M614.5 20a10 10 0 0 1 10 10v7a10 10 0 0 0 10 10"></path><path d="M481 47h20"></path><g class="non-terminal "><path d="M501 47h0"></path><path d="M614.5 47h0"></path><rect x="501" y="36" width="113.5" height="22" rx="10" ry="10"></rect><text x="557.75" y="51">roleService</text></g><path d="M614.5 47h20"></path></g></g><path d="M644.5 47h0"></path></g><path d="M644.5 47h20"></path></g><path d="M 664.5 47 h 20 m 0 -10 v 20"></path></g><defs><style type="text/css"><![CDATA[
svg.railroad-diagram path { stroke-width: 2; stroke: darkgray; fill: rgba(0, 0, 0, 0); }svg.railroad-diagram text { font: bold 12px Hack, "Source Code Pro", monospace; text-anchor: middle; fill: #404040; }svg.railroad-diagram text.comment { font: italic 10px Hack, "Source Code Pro", monospace; fill: #404040; }svg.railroad-diagram g.terminal rect { stroke-width: 2; stroke: #404040; fill: rgba(200, 200, 200, 0.8); }svg.railroad-diagram g.non-terminal rect { stroke-width: 2; stroke: #404040; fill: rgba(255, 255, 255, 1); }svg.railroad-diagram text.diagram-text { font-size: 12px Hack, "Source Code Pro", monospace; fill: red; }svg.railroad-diagram path.diagram-text { stroke-width: 1; stroke: red; fill: red; cursor: help; }
 ]]>
</style></defs></svg>