<?xml version="1.0" encoding="UTF-8" standalone="no"?>
<!DOCTYPE svg PUBLIC "-//W3C//DTD SVG 1.1//EN" "http://www.w3.org/Graphics/SVG/1.1/DTD/svg11.dtd">
<svg class="railroad-diagram" width="684.5" height="183" viewBox="0 0 684.5 183" id="showCreateRestSchemaStatement" xmlns="http://www.w3.org/2000/svg" xmlns:xlink="http://www.w3.org/1999/xlink"><g transform="translate(.5 .5)"><g><path d="M20 37v20m0 -10h20"></path></g><g><path d="M40 47h0"></path><path d="M644.5 133h0"></path><path d="M40 47h20"></path><g><path d="M60 47h0"></path><path d="M60 47h10"></path><g><path d="M70 47h0"></path><path d="M594.5 47h20"></path><g class="terminal "><path d="M70 47h0"></path><path d="M124 47h0"></path><rect x="70" y="36" width="54" height="22"></rect><text x="97" y="51">SHOW</text></g><path d="M124 47h10"></path><path d="M134 47h10"></path><g class="terminal "><path d="M144 47h0"></path><path d="M215 47h0"></path><rect x="144" y="36" width="71" height="22"></rect><text x="179.5" y="51">CREATE</text></g><path d="M215 47h10"></path><path d="M225 47h10"></path><g class="terminal "><path d="M235 47h0"></path><path d="M289 47h0"></path><rect x="235" y="36" width="54" height="22"></rect><text x="262" y="51">REST</text></g><path d="M289 47h10"></path><path d="M299 47h10"></path><g class="terminal "><path d="M309 47h0"></path><path d="M380 47h0"></path><rect x="309" y="36" width="71" height="22"></rect><text x="344.5" y="51">SCHEMA</text></g><path d="M380 47h10"></path><g><path d="M390 47h0"></path><path d="M594.5 47h0"></path><path d="M390 47a10 10 0 0 0 10 -10v-7a10 10 0 0 1 10 -10"></path><g><path d="M410 20h164.5"></path></g><path d="M574.5 20a10 10 0 0 1 10 10v7a10 10 0 0 0 10 10"></path><path d="M390 47h20"></path><g class="non-terminal "><path d="M410 47h0"></path><path d="M574.5 47h0"></path><rect x="410" y="36" width="164.5" height="22" rx="10" ry="10"></rect><text x="492.25" y="51">schemaRequestPath</text></g><path d="M574.5 47h20"></path></g></g><path d="M614.5 47a10 10 0 0 1 10 10v7a10 10 0 0 1 -10 10h-544.5a10 10 0 0 0 -10 10v39a10 10 0 0 0 10 10"></path><g><path d="M70 133h0"></path><path d="M586.5 133h28"></path><g><path d="M70 133h0"></path><path d="M586.5 133h0"></path><path d="M70 133a10 10 0 0 0 10 -10v-23a10 10 0 0 1 10 -10"></path><g><path d="M90 90h476.5"></path></g><path d="M566.5 90a10 10 0 0 1 10 10v23a10 10 0 0 0 10 10"></path><path d="M70 133h20"></path><g><path d="M90 133h0"></path><path d="M566.5 133h0"></path><path d="M90 133h20"></path><g><path d="M110 133h0"></path><g><path d="M110 133h0"></path><path d="M526.5 133h20"></path><g><path d="M110 133h0"></path><path d="M224 133h0"></path><path d="M110 133h20"></path><g><path d="M130 133h0"></path><g><path d="M130 133h0"></path><path d="M167 133h20"></path><g class="terminal "><path d="M130 133h0"></path><path d="M167 133h0"></path><rect x="130" y="122" width="37" height="22"></rect><text x="148.5" y="137">ON</text></g></g><path d="M187 133h17"></path></g><path d="M204 133h20"></path><path d="M110 133a10 10 0 0 1 10 10v18a10 10 0 0 0 10 10"></path><g><path d="M130 171h0"></path><g><path d="M130 171h0"></path><path d="M184 171h20"></path><g class="terminal "><path d="M130 171h0"></path><path d="M184 171h0"></path><rect x="130" y="160" width="54" height="22"></rect><text x="157" y="175">FROM</text></g></g><path d="M204 171h0"></path></g><path d="M204 171a10 10 0 0 0 10 -10v-18a10 10 0 0 1 10 -10"></path></g><g><path d="M224 133h0"></path><path d="M343.5 133h0"></path><path d="M224 133a10 10 0 0 0 10 -10v-7a10 10 0 0 1 10 -10"></path><g><path d="M244 106h79.5"></path></g><path d="M323.5 106a10 10 0 0 1 10 10v7a10 10 0 0 0 10 10"></path><path d="M224 133h20"></path><g class="terminal "><path d="M244 133h0"></path><path d="M323.5 133h0"></path><rect x="244" y="122" width="79.5" height="22"></rect><text x="283.75" y="137">SERVICE</text></g><path d="M323.5 133h20"></path></g><path d="M343.5 133h10"></path><g class="non-terminal "><path d="M353.5 133h0"></path><path d="M526.5 133h0"></path><rect x="353.5" y="122" width="173" height="22" rx="10" ry="10"></rect><text x="440" y="137">serviceRequestPath</text></g></g><path d="M546.5 133h0"></path></g><path d="M546.5 133h20"></path></g><path d="M566.5 133h20"></path></g></g><path d="M614.5 133h10"></path><path d="M624.5 133h0"></path></g><path d="M624.5 133h20"></path></g><path d="M 644.5 133 h 20 m 0 -10 v 20"></path></g><defs><style type="text/css"><![CDATA[
svg.railroad-diagram path { stroke-width: 2; stroke: darkgray; fill: rgba(0, 0, 0, 0); }svg.railroad-diagram text { font: bold 12px Hack, "Source Code Pro", monospace; text-anchor: middle; fill: #404040; }svg.railroad-diagram text.comment { font: italic 10px Hack, "Source Code Pro", monospace; fill: #404040; }svg.railroad-diagram g.terminal rect { stroke-width: 2; stroke: #404040; fill: rgba(200, 200, 200, 0.8); }svg.railroad-diagram g.non-terminal rect { stroke-width: 2; stroke: #404040; fill: rgba(255, 255, 255, 1); }svg.railroad-diagram text.diagram-text { font-size: 12px Hack, "Source Code Pro", monospace; fill: red; }svg.railroad-diagram path.diagram-text { stroke-width: 1; stroke: red; fill: red; cursor: help; }
 ]]>
</style></defs></svg>