<?xml version="1.0" encoding="UTF-8" standalone="no"?>
<!DOCTYPE svg PUBLIC "-//W3C//DTD SVG 1.1//EN" "http://www.w3.org/Graphics/SVG/1.1/DTD/svg11.dtd">
<svg class="railroad-diagram" width="811.5" height="177" viewBox="0 0 811.5 177" id="showCreateRestViewStatement" xmlns="http://www.w3.org/2000/svg" xmlns:xlink="http://www.w3.org/1999/xlink"><g transform="translate(.5 .5)"><g><path d="M20 37v20m0 -10h20"></path></g><g><path d="M40 47h0"></path><path d="M771.5 117h0"></path><path d="M40 47h20"></path><g><path d="M60 47h0"></path><path d="M60 47h10"></path><g><path d="M70 47h0"></path><path d="M721.5 47h20"></path><g class="terminal "><path d="M70 47h0"></path><path d="M124 47h0"></path><rect x="70" y="36" width="54" height="22"></rect><text x="97" y="51">SHOW</text></g><path d="M124 47h10"></path><path d="M134 47h10"></path><g class="terminal "><path d="M144 47h0"></path><path d="M215 47h0"></path><rect x="144" y="36" width="71" height="22"></rect><text x="179.5" y="51">CREATE</text></g><path d="M215 47h10"></path><path d="M225 47h10"></path><g class="terminal "><path d="M235 47h0"></path><path d="M289 47h0"></path><rect x="235" y="36" width="54" height="22"></rect><text x="262" y="51">REST</text></g><path d="M289 47h10"></path><g><path d="M299 47h0"></path><path d="M393 47h0"></path><path d="M299 47a10 10 0 0 0 10 -10v-7a10 10 0 0 1 10 -10"></path><g><path d="M319 20h54"></path></g><path d="M373 20a10 10 0 0 1 10 10v7a10 10 0 0 0 10 10"></path><path d="M299 47h20"></path><g class="terminal "><path d="M319 47h0"></path><path d="M373 47h0"></path><rect x="319" y="36" width="54" height="22"></rect><text x="346" y="51">JSON</text></g><path d="M373 47h20"></path></g><g><path d="M393 47h0"></path><path d="M538 47h0"></path><path d="M393 47a10 10 0 0 0 10 -10v-7a10 10 0 0 1 10 -10"></path><g><path d="M413 20h105"></path></g><path d="M518 20a10 10 0 0 1 10 10v7a10 10 0 0 0 10 10"></path><path d="M393 47h20"></path><g class="terminal "><path d="M413 47h0"></path><path d="M518 47h0"></path><rect x="413" y="36" width="105" height="22"></rect><text x="465.5" y="51">RELATIONAL</text></g><path d="M518 47h20"></path></g><g><path d="M538 47h0"></path><path d="M657.5 47h0"></path><path d="M538 47a10 10 0 0 0 10 -10v-7a10 10 0 0 1 10 -10"></path><g><path d="M558 20h79.5"></path></g><path d="M637.5 20a10 10 0 0 1 10 10v7a10 10 0 0 0 10 10"></path><path d="M538 47h20"></path><g class="terminal "><path d="M558 47h0"></path><path d="M637.5 47h0"></path><rect x="558" y="36" width="79.5" height="22"></rect><text x="597.75" y="51">DUALITY</text></g><path d="M637.5 47h20"></path></g><path d="M657.5 47h10"></path><g class="terminal "><path d="M667.5 47h0"></path><path d="M721.5 47h0"></path><rect x="667.5" y="36" width="54" height="22"></rect><text x="694.5" y="51">VIEW</text></g></g><path d="M741.5 47a10 10 0 0 1 10 10v7a10 10 0 0 1 -10 10h-671.5a10 10 0 0 0 -10 10v23a10 10 0 0 0 10 10"></path><g><path d="M70 117h0"></path><path d="M650 117h91.5"></path><g class="non-terminal "><path d="M70 117h0"></path><path d="M217.5 117h0"></path><rect x="70" y="106" width="147.5" height="22" rx="10" ry="10"></rect><text x="143.75" y="121">viewRequestPath</text></g><path d="M217.5 117h10"></path><g><path d="M227.5 117h0"></path><path d="M650 117h0"></path><path d="M227.5 117a10 10 0 0 0 10 -10v-7a10 10 0 0 1 10 -10"></path><g><path d="M247.5 90h382.5"></path></g><path d="M630 90a10 10 0 0 1 10 10v7a10 10 0 0 0 10 10"></path><path d="M227.5 117h20"></path><g><path d="M247.5 117h0"></path><path d="M630 117h0"></path><path d="M247.5 117h20"></path><g><path d="M267.5 117h0"></path><g><path d="M267.5 117h0"></path><path d="M590 117h20"></path><g><path d="M267.5 117h0"></path><path d="M381.5 117h0"></path><path d="M267.5 117h20"></path><g><path d="M287.5 117h0"></path><g><path d="M287.5 117h0"></path><path d="M324.5 117h20"></path><g class="terminal "><path d="M287.5 117h0"></path><path d="M324.5 117h0"></path><rect x="287.5" y="106" width="37" height="22"></rect><text x="306" y="121">ON</text></g></g><path d="M344.5 117h17"></path></g><path d="M361.5 117h20"></path><path d="M267.5 117a10 10 0 0 1 10 10v18a10 10 0 0 0 10 10"></path><g><path d="M287.5 155h0"></path><g><path d="M287.5 155h0"></path><path d="M341.5 155h20"></path><g class="terminal "><path d="M287.5 155h0"></path><path d="M341.5 155h0"></path><rect x="287.5" y="144" width="54" height="22"></rect><text x="314.5" y="159">FROM</text></g></g><path d="M361.5 155h0"></path></g><path d="M361.5 155a10 10 0 0 0 10 -10v-18a10 10 0 0 1 10 -10"></path></g><path d="M381.5 117h10"></path><g class="non-terminal "><path d="M391.5 117h0"></path><path d="M590 117h0"></path><rect x="391.5" y="106" width="198.5" height="22" rx="10" ry="10"></rect><text x="490.75" y="121">serviceSchemaSelector</text></g></g><path d="M610 117h0"></path></g><path d="M610 117h20"></path></g><path d="M630 117h20"></path></g></g><path d="M741.5 117h10"></path><path d="M751.5 117h0"></path></g><path d="M751.5 117h20"></path></g><path d="M 771.5 117 h 20 m 0 -10 v 20"></path></g><defs><style type="text/css"><![CDATA[
svg.railroad-diagram path { stroke-width: 2; stroke: darkgray; fill: rgba(0, 0, 0, 0); }svg.railroad-diagram text { font: bold 12px Hack, "Source Code Pro", monospace; text-anchor: middle; fill: #404040; }svg.railroad-diagram text.comment { font: italic 10px Hack, "Source Code Pro", monospace; fill: #404040; }svg.railroad-diagram g.terminal rect { stroke-width: 2; stroke: #404040; fill: rgba(200, 200, 200, 0.8); }svg.railroad-diagram g.non-terminal rect { stroke-width: 2; stroke: #404040; fill: rgba(255, 255, 255, 1); }svg.railroad-diagram text.diagram-text { font-size: 12px Hack, "Source Code Pro", monospace; fill: red; }svg.railroad-diagram path.diagram-text { stroke-width: 1; stroke: red; fill: red; cursor: help; }
 ]]>
</style></defs></svg>