<?xml version="1.0" encoding="UTF-8" standalone="no"?>
<!DOCTYPE svg PUBLIC "-//W3C//DTD SVG 1.1//EN" "http://www.w3.org/Graphics/SVG/1.1/DTD/svg11.dtd">
<svg class="railroad-diagram" width="736.5" height="177" viewBox="0 0 736.5 177" id="showRestGrantsStatement" xmlns="http://www.w3.org/2000/svg" xmlns:xlink="http://www.w3.org/1999/xlink"><g transform="translate(.5 .5)"><g><path d="M20 21v20m0 -10h20"></path></g><g><path d="M40 31h0"></path><path d="M696.5 101h0"></path><path d="M40 31h20"></path><g><path d="M60 31h0"></path><path d="M60 31h10"></path><g><path d="M70 31h0"></path><path d="M462.5 31h204"></path><g class="terminal "><path d="M70 31h0"></path><path d="M124 31h0"></path><rect x="70" y="20" width="54" height="22"></rect><text x="97" y="35">SHOW</text></g><path d="M124 31h10"></path><path d="M134 31h10"></path><g class="terminal "><path d="M144 31h0"></path><path d="M198 31h0"></path><rect x="144" y="20" width="54" height="22"></rect><text x="171" y="35">REST</text></g><path d="M198 31h10"></path><path d="M208 31h10"></path><g class="terminal "><path d="M218 31h0"></path><path d="M289 31h0"></path><rect x="218" y="20" width="71" height="22"></rect><text x="253.5" y="35">GRANTS</text></g><path d="M289 31h10"></path><path d="M299 31h10"></path><g class="terminal "><path d="M309 31h0"></path><path d="M354.5 31h0"></path><rect x="309" y="20" width="45.5" height="22"></rect><text x="331.75" y="35">FOR</text></g><path d="M354.5 31h10"></path><path d="M364.5 31h10"></path><g class="non-terminal "><path d="M374.5 31h0"></path><path d="M462.5 31h0"></path><rect x="374.5" y="20" width="88" height="22" rx="10" ry="10"></rect><text x="418.5" y="35">roleName</text></g></g><path d="M666.5 31a10 10 0 0 1 10 10v7a10 10 0 0 1 -10 10h-596.5a10 10 0 0 0 -10 10v23a10 10 0 0 0 10 10"></path><g><path d="M70 101h0"></path><path d="M646.5 101h20"></path><g><path d="M70 101h0"></path><path d="M646.5 101h0"></path><path d="M70 101a10 10 0 0 0 10 -10v-7a10 10 0 0 1 10 -10"></path><g><path d="M90 74h536.5"></path></g><path d="M626.5 74a10 10 0 0 1 10 10v7a10 10 0 0 0 10 10"></path><path d="M70 101h20"></path><g><path d="M90 101h0"></path><path d="M626.5 101h0"></path><path d="M90 101h20"></path><g><path d="M110 101h0"></path><g><path d="M110 101h0"></path><path d="M586.5 101h20"></path><g><path d="M110 101h0"></path><path d="M224 101h0"></path><path d="M110 101h20"></path><g><path d="M130 101h0"></path><g><path d="M130 101h0"></path><path d="M167 101h20"></path><g class="terminal "><path d="M130 101h0"></path><path d="M167 101h0"></path><rect x="130" y="90" width="37" height="22"></rect><text x="148.5" y="105">ON</text></g></g><path d="M187 101h17"></path></g><path d="M204 101h20"></path><path d="M110 101a10 10 0 0 1 10 10v18a10 10 0 0 0 10 10"></path><g><path d="M130 139h0"></path><g><path d="M130 139h0"></path><path d="M184 139h20"></path><g class="terminal "><path d="M130 139h0"></path><path d="M184 139h0"></path><rect x="130" y="128" width="54" height="22"></rect><text x="157" y="143">FROM</text></g></g><path d="M204 139h0"></path></g><path d="M204 139a10 10 0 0 0 10 -10v-18a10 10 0 0 1 10 -10"></path></g><g><path d="M224 101h0"></path><path d="M586.5 101h0"></path><path d="M224 101h20"></path><g><path d="M244 101h0"></path><g><path d="M244 101h0"></path><path d="M389 101h20"></path><g class="terminal "><path d="M244 101h0"></path><path d="M289.5 101h0"></path><rect x="244" y="90" width="45.5" height="22"></rect><text x="266.75" y="105">ANY</text></g><path d="M289.5 101h10"></path><path d="M299.5 101h10"></path><g class="terminal "><path d="M309.5 101h0"></path><path d="M389 101h0"></path><rect x="309.5" y="90" width="79.5" height="22"></rect><text x="349.25" y="105">SERVICE</text></g></g><path d="M409 101h157.5"></path></g><path d="M566.5 101h20"></path><path d="M224 101a10 10 0 0 1 10 10v34a10 10 0 0 0 10 10"></path><g><path d="M244 155h0"></path><g><path d="M244 155h0"></path><path d="M546.5 155h20"></path><g><path d="M244 155h0"></path><path d="M363.5 155h0"></path><path d="M244 155a10 10 0 0 0 10 -10v-7a10 10 0 0 1 10 -10"></path><g><path d="M264 128h79.5"></path></g><path d="M343.5 128a10 10 0 0 1 10 10v7a10 10 0 0 0 10 10"></path><path d="M244 155h20"></path><g class="terminal "><path d="M264 155h0"></path><path d="M343.5 155h0"></path><rect x="264" y="144" width="79.5" height="22"></rect><text x="303.75" y="159">SERVICE</text></g><path d="M343.5 155h20"></path></g><path d="M363.5 155h10"></path><g class="non-terminal "><path d="M373.5 155h0"></path><path d="M546.5 155h0"></path><rect x="373.5" y="144" width="173" height="22" rx="10" ry="10"></rect><text x="460" y="159">serviceRequestPath</text></g></g><path d="M566.5 155h0"></path></g><path d="M566.5 155a10 10 0 0 0 10 -10v-34a10 10 0 0 1 10 -10"></path></g></g><path d="M606.5 101h0"></path></g><path d="M606.5 101h20"></path></g><path d="M626.5 101h20"></path></g></g><path d="M666.5 101h10"></path><path d="M676.5 101h0"></path></g><path d="M676.5 101h20"></path></g><path d="M 696.5 101 h 20 m 0 -10 v 20"></path></g><defs><style type="text/css"><![CDATA[
svg.railroad-diagram path { stroke-width: 2; stroke: darkgray; fill: rgba(0, 0, 0, 0); }svg.railroad-diagram text { font: bold 12px Hack, "Source Code Pro", monospace; text-anchor: middle; fill: #404040; }svg.railroad-diagram text.comment { font: italic 10px Hack, "Source Code Pro", monospace; fill: #404040; }svg.railroad-diagram g.terminal rect { stroke-width: 2; stroke: #404040; fill: rgba(200, 200, 200, 0.8); }svg.railroad-diagram g.non-terminal rect { stroke-width: 2; stroke: #404040; fill: rgba(255, 255, 255, 1); }svg.railroad-diagram text.diagram-text { font-size: 12px Hack, "Source Code Pro", monospace; fill: red; }svg.railroad-diagram path.diagram-text { stroke-width: 1; stroke: red; fill: red; cursor: help; }
 ]]>
</style></defs></svg>