<?xml version="1.0" encoding="UTF-8" standalone="no"?>
<!DOCTYPE svg PUBLIC "-//W3C//DTD SVG 1.1//EN" "http://www.w3.org/Graphics/SVG/1.1/DTD/svg11.dtd">
<svg class="railroad-diagram" width="996.5" height="185" viewBox="0 0 996.5 185" id="showRestContentFilesStatement" xmlns="http://www.w3.org/2000/svg" xmlns:xlink="http://www.w3.org/1999/xlink"><g transform="translate(.5 .5)"><g><path d="M20 53v20m0 -10h20"></path></g><g><path d="M40 63h0"></path><path d="M956.5 155h0"></path><path d="M40 63h20"></path><g><path d="M60 63h0"></path><path d="M60 63h10"></path><g><path d="M70 63h0"></path><path d="M906.5 63h20"></path><g class="terminal "><path d="M70 63h0"></path><path d="M124 63h0"></path><rect x="70" y="52" width="54" height="22"></rect><text x="97" y="67">SHOW</text></g><path d="M124 63h10"></path><path d="M134 63h10"></path><g class="terminal "><path d="M144 63h0"></path><path d="M198 63h0"></path><rect x="144" y="52" width="54" height="22"></rect><text x="171" y="67">REST</text></g><path d="M198 63h10"></path><path d="M208 63h10"></path><g class="terminal "><path d="M218 63h0"></path><path d="M297.5 63h0"></path><rect x="218" y="52" width="79.5" height="22"></rect><text x="257.75" y="67">CONTENT</text></g><path d="M297.5 63h10"></path><path d="M307.5 63h10"></path><g class="terminal "><path d="M317.5 63h0"></path><path d="M380 63h0"></path><rect x="317.5" y="52" width="62.5" height="22"></rect><text x="348.75" y="67">FILES</text></g><path d="M380 63h10"></path><g><path d="M390 63h0"></path><path d="M504 63h0"></path><path d="M390 63h20"></path><g><path d="M410 63h0"></path><g><path d="M410 63h0"></path><path d="M447 63h20"></path><g class="terminal "><path d="M410 63h0"></path><path d="M447 63h0"></path><rect x="410" y="52" width="37" height="22"></rect><text x="428.5" y="67">ON</text></g></g><path d="M467 63h17"></path></g><path d="M484 63h20"></path><path d="M390 63a10 10 0 0 1 10 10v18a10 10 0 0 0 10 10"></path><g><path d="M410 101h0"></path><g><path d="M410 101h0"></path><path d="M464 101h20"></path><g class="terminal "><path d="M410 101h0"></path><path d="M464 101h0"></path><rect x="410" y="90" width="54" height="22"></rect><text x="437" y="105">FROM</text></g></g><path d="M484 101h0"></path></g><path d="M484 101a10 10 0 0 0 10 -10v-18a10 10 0 0 1 10 -10"></path></g><g><path d="M504 63h0"></path><path d="M906.5 63h0"></path><path d="M504 63a10 10 0 0 0 10 -10v-23a10 10 0 0 1 10 -10"></path><g><path d="M524 20h362.5"></path></g><path d="M886.5 20a10 10 0 0 1 10 10v23a10 10 0 0 0 10 10"></path><path d="M504 63h20"></path><g><path d="M524 63h0"></path><path d="M886.5 63h0"></path><path d="M524 63h20"></path><g><path d="M544 63h0"></path><g><path d="M544 63h0"></path><path d="M846.5 63h20"></path><g><path d="M544 63h0"></path><path d="M663.5 63h0"></path><path d="M544 63a10 10 0 0 0 10 -10v-7a10 10 0 0 1 10 -10"></path><g><path d="M564 36h79.5"></path></g><path d="M643.5 36a10 10 0 0 1 10 10v7a10 10 0 0 0 10 10"></path><path d="M544 63h20"></path><g class="terminal "><path d="M564 63h0"></path><path d="M643.5 63h0"></path><rect x="564" y="52" width="79.5" height="22"></rect><text x="603.75" y="67">SERVICE</text></g><path d="M643.5 63h20"></path></g><path d="M663.5 63h10"></path><g class="non-terminal "><path d="M673.5 63h0"></path><path d="M846.5 63h0"></path><rect x="673.5" y="52" width="173" height="22" rx="10" ry="10"></rect><text x="760" y="67">serviceRequestPath</text></g></g><path d="M866.5 63h0"></path></g><path d="M866.5 63h20"></path></g><path d="M886.5 63h20"></path></g></g><path d="M926.5 63a10 10 0 0 1 10 10v45a10 10 0 0 1 -10 10h-856.5a10 10 0 0 0 -10 10v7a10 10 0 0 0 10 10"></path><g><path d="M70 155h0"></path><path d="M433.5 155h493"></path><g class="terminal "><path d="M70 155h0"></path><path d="M149.5 155h0"></path><rect x="70" y="144" width="79.5" height="22"></rect><text x="109.75" y="159">CONTENT</text></g><path d="M149.5 155h10"></path><path d="M159.5 155h10"></path><g class="terminal "><path d="M169.5 155h0"></path><path d="M215 155h0"></path><rect x="169.5" y="144" width="45.5" height="22"></rect><text x="192.25" y="159">SET</text></g><path d="M215 155h10"></path><path d="M225 155h10"></path><g class="non-terminal "><path d="M235 155h0"></path><path d="M433.5 155h0"></path><rect x="235" y="144" width="198.5" height="22" rx="10" ry="10"></rect><text x="334.25" y="159">contentSetRequestPath</text></g></g><path d="M926.5 155h10"></path><path d="M936.5 155h0"></path></g><path d="M936.5 155h20"></path></g><path d="M 956.5 155 h 20 m 0 -10 v 20"></path></g><defs><style type="text/css"><![CDATA[
svg.railroad-diagram path { stroke-width: 2; stroke: darkgray; fill: rgba(0, 0, 0, 0); }svg.railroad-diagram text { font: bold 12px Hack, "Source Code Pro", monospace; text-anchor: middle; fill: #404040; }svg.railroad-diagram text.comment { font: italic 10px Hack, "Source Code Pro", monospace; fill: #404040; }svg.railroad-diagram g.terminal rect { stroke-width: 2; stroke: #404040; fill: rgba(200, 200, 200, 0.8); }svg.railroad-diagram g.non-terminal rect { stroke-width: 2; stroke: #404040; fill: rgba(255, 255, 255, 1); }svg.railroad-diagram text.diagram-text { font-size: 12px Hack, "Source Code Pro", monospace; fill: red; }svg.railroad-diagram path.diagram-text { stroke-width: 1; stroke: red; fill: red; cursor: help; }
 ]]>
</style></defs></svg>