<?xml version="1.0" encoding="UTF-8" standalone="no"?>
<!DOCTYPE svg PUBLIC "-//W3C//DTD SVG 1.1//EN" "http://www.w3.org/Graphics/SVG/1.1/DTD/svg11.dtd">
<svg class="railroad-diagram" width="957" height="217" viewBox="0 0 957 217" id="showRestRolesStatement" xmlns="http://www.w3.org/2000/svg" xmlns:xlink="http://www.w3.org/1999/xlink"><g transform="translate(.5 .5)"><g><path d="M20 37v20m0 -10h20"></path></g><g><path d="M40 47h0"></path><path d="M917 187h0"></path><path d="M40 47h20"></path><g><path d="M60 47h0"></path><path d="M60 47h10"></path><g><path d="M70 47h0"></path><path d="M867 47h20"></path><g class="terminal "><path d="M70 47h0"></path><path d="M124 47h0"></path><rect x="70" y="36" width="54" height="22"></rect><text x="97" y="51">SHOW</text></g><path d="M124 47h10"></path><path d="M134 47h10"></path><g class="terminal "><path d="M144 47h0"></path><path d="M198 47h0"></path><rect x="144" y="36" width="54" height="22"></rect><text x="171" y="51">REST</text></g><path d="M198 47h10"></path><path d="M208 47h10"></path><g class="terminal "><path d="M218 47h0"></path><path d="M280.5 47h0"></path><rect x="218" y="36" width="62.5" height="22"></rect><text x="249.25" y="51">ROLES</text></g><path d="M280.5 47h10"></path><g><path d="M290.5 47h0"></path><path d="M867 47h0"></path><path d="M290.5 47a10 10 0 0 0 10 -10v-7a10 10 0 0 1 10 -10"></path><g><path d="M310.5 20h536.5"></path></g><path d="M847 20a10 10 0 0 1 10 10v7a10 10 0 0 0 10 10"></path><path d="M290.5 47h20"></path><g><path d="M310.5 47h0"></path><path d="M847 47h0"></path><path d="M310.5 47h20"></path><g><path d="M330.5 47h0"></path><g><path d="M330.5 47h0"></path><path d="M807 47h20"></path><g><path d="M330.5 47h0"></path><path d="M444.5 47h0"></path><path d="M330.5 47h20"></path><g><path d="M350.5 47h0"></path><g><path d="M350.5 47h0"></path><path d="M387.5 47h20"></path><g class="terminal "><path d="M350.5 47h0"></path><path d="M387.5 47h0"></path><rect x="350.5" y="36" width="37" height="22"></rect><text x="369" y="51">ON</text></g></g><path d="M407.5 47h17"></path></g><path d="M424.5 47h20"></path><path d="M330.5 47a10 10 0 0 1 10 10v18a10 10 0 0 0 10 10"></path><g><path d="M350.5 85h0"></path><g><path d="M350.5 85h0"></path><path d="M404.5 85h20"></path><g class="terminal "><path d="M350.5 85h0"></path><path d="M404.5 85h0"></path><rect x="350.5" y="74" width="54" height="22"></rect><text x="377.5" y="89">FROM</text></g></g><path d="M424.5 85h0"></path></g><path d="M424.5 85a10 10 0 0 0 10 -10v-18a10 10 0 0 1 10 -10"></path></g><g><path d="M444.5 47h0"></path><path d="M807 47h0"></path><path d="M444.5 47h20"></path><g><path d="M464.5 47h0"></path><g><path d="M464.5 47h0"></path><path d="M609.5 47h20"></path><g class="terminal "><path d="M464.5 47h0"></path><path d="M510 47h0"></path><rect x="464.5" y="36" width="45.5" height="22"></rect><text x="487.25" y="51">ANY</text></g><path d="M510 47h10"></path><path d="M520 47h10"></path><g class="terminal "><path d="M530 47h0"></path><path d="M609.5 47h0"></path><rect x="530" y="36" width="79.5" height="22"></rect><text x="569.75" y="51">SERVICE</text></g></g><path d="M629.5 47h157.5"></path></g><path d="M787 47h20"></path><path d="M444.5 47a10 10 0 0 1 10 10v34a10 10 0 0 0 10 10"></path><g><path d="M464.5 101h0"></path><g><path d="M464.5 101h0"></path><path d="M767 101h20"></path><g><path d="M464.5 101h0"></path><path d="M584 101h0"></path><path d="M464.5 101a10 10 0 0 0 10 -10v-7a10 10 0 0 1 10 -10"></path><g><path d="M484.5 74h79.5"></path></g><path d="M564 74a10 10 0 0 1 10 10v7a10 10 0 0 0 10 10"></path><path d="M464.5 101h20"></path><g class="terminal "><path d="M484.5 101h0"></path><path d="M564 101h0"></path><rect x="484.5" y="90" width="79.5" height="22"></rect><text x="524.25" y="105">SERVICE</text></g><path d="M564 101h20"></path></g><path d="M584 101h10"></path><g class="non-terminal "><path d="M594 101h0"></path><path d="M767 101h0"></path><rect x="594" y="90" width="173" height="22" rx="10" ry="10"></rect><text x="680.5" y="105">serviceRequestPath</text></g></g><path d="M787 101h0"></path></g><path d="M787 101a10 10 0 0 0 10 -10v-34a10 10 0 0 1 10 -10"></path></g></g><path d="M827 47h0"></path></g><path d="M827 47h20"></path></g><path d="M847 47h20"></path></g></g><path d="M887 47a10 10 0 0 1 10 10v61a10 10 0 0 1 -10 10h-817a10 10 0 0 0 -10 10v39a10 10 0 0 0 10 10"></path><g><path d="M70 187h0"></path><path d="M576.5 187h310.5"></path><g><path d="M70 187h0"></path><path d="M576.5 187h0"></path><path d="M70 187a10 10 0 0 0 10 -10v-23a10 10 0 0 1 10 -10"></path><g><path d="M90 144h466.5"></path></g><path d="M556.5 144a10 10 0 0 1 10 10v23a10 10 0 0 0 10 10"></path><path d="M70 187h20"></path><g><path d="M90 187h0"></path><path d="M556.5 187h0"></path><path d="M90 187h20"></path><g><path d="M110 187h0"></path><g><path d="M110 187h0"></path><path d="M516.5 187h20"></path><g class="terminal "><path d="M110 187h0"></path><path d="M155.5 187h0"></path><rect x="110" y="176" width="45.5" height="22"></rect><text x="132.75" y="191">FOR</text></g><path d="M155.5 187h10"></path><g><path d="M165.5 187h0"></path><path d="M293.5 187h0"></path><path d="M165.5 187a10 10 0 0 0 10 -10v-7a10 10 0 0 1 10 -10"></path><g><path d="M185.5 160h88"></path></g><path d="M273.5 160a10 10 0 0 1 10 10v7a10 10 0 0 0 10 10"></path><path d="M165.5 187h20"></path><g class="non-terminal "><path d="M185.5 187h0"></path><path d="M273.5 187h0"></path><rect x="185.5" y="176" width="88" height="22" rx="10" ry="10"></rect><text x="229.5" y="191">userName</text></g><path d="M273.5 187h20"></path></g><path d="M293.5 187h10"></path><g class="terminal "><path d="M303.5 187h0"></path><path d="M383 187h0"></path><rect x="303.5" y="176" width="79.5" height="22"></rect><text x="343.25" y="191">AT_SIGN</text></g><path d="M383 187h10"></path><path d="M393 187h10"></path><g class="non-terminal "><path d="M403 187h0"></path><path d="M516.5 187h0"></path><rect x="403" y="176" width="113.5" height="22" rx="10" ry="10"></rect><text x="459.75" y="191">authAppName</text></g></g><path d="M536.5 187h0"></path></g><path d="M536.5 187h20"></path></g><path d="M556.5 187h20"></path></g></g><path d="M887 187h10"></path><path d="M897 187h0"></path></g><path d="M897 187h20"></path></g><path d="M 917 187 h 20 m 0 -10 v 20"></path></g><defs><style type="text/css"><![CDATA[
svg.railroad-diagram path { stroke-width: 2; stroke: darkgray; fill: rgba(0, 0, 0, 0); }svg.railroad-diagram text { font: bold 12px Hack, "Source Code Pro", monospace; text-anchor: middle; fill: #404040; }svg.railroad-diagram text.comment { font: italic 10px Hack, "Source Code Pro", monospace; fill: #404040; }svg.railroad-diagram g.terminal rect { stroke-width: 2; stroke: #404040; fill: rgba(200, 200, 200, 0.8); }svg.railroad-diagram g.non-terminal rect { stroke-width: 2; stroke: #404040; fill: rgba(255, 255, 255, 1); }svg.railroad-diagram text.diagram-text { font-size: 12px Hack, "Source Code Pro", monospace; fill: red; }svg.railroad-diagram path.diagram-text { stroke-width: 1; stroke: red; fill: red; cursor: help; }
 ]]>
</style></defs></svg>