<?xml version="1.0" encoding="UTF-8" standalone="no"?>
<!DOCTYPE svg PUBLIC "-//W3C//DTD SVG 1.1//EN" "http://www.w3.org/Graphics/SVG/1.1/DTD/svg11.dtd">
<svg class="railroad-diagram" width="651" height="100" viewBox="0 0 651 100" id="textStringLiteral" xmlns="http://www.w3.org/2000/svg" xmlns:xlink="http://www.w3.org/1999/xlink"><g transform="translate(.5 .5)"><g><path d="M20 21v20m0 -10h20"></path></g><g><path d="M40 31h0"></path><path d="M611 31h0"></path><path d="M40 31h20"></path><g><path d="M60 31h169"></path><g><path d="M229 31h10"></path><path d="M412 31h10"></path><g class="terminal "><path d="M239 31h0"></path><path d="M412 31h0"></path><rect x="239" y="20" width="173" height="22"></rect><text x="325.5" y="35">SINGLE_QUOTED_TEXT</text></g></g><path d="M422 31h169"></path></g><path d="M591 31h20"></path><path d="M40 31a10 10 0 0 1 10 10v18a10 10 0 0 0 10 10"></path><g><path d="M60 69h0"></path><g><path d="M60 69h10"></path><path d="M581 69h10"></path><g class="comment rrd-predicate"><path d="M70 69h0"></path><path d="M388 69h0"></path><text x="229" y="74" class="comment">{!this.isSqlModeActive(SqlMode.AnsiQuotes)}?</text></g><path d="M388 69h10"></path><path d="M398 69h10"></path><g class="terminal "><path d="M408 69h0"></path><path d="M581 69h0"></path><rect x="408" y="58" width="173" height="22"></rect><text x="494.5" y="73">DOUBLE_QUOTED_TEXT</text></g></g><path d="M591 69h0"></path></g><path d="M591 69a10 10 0 0 0 10 -10v-18a10 10 0 0 1 10 -10"></path></g><path d="M 611 31 h 20 m 0 -10 v 20"></path></g><defs><style type="text/css"><![CDATA[
svg.railroad-diagram path { stroke-width: 2; stroke: darkgray; fill: rgba(0, 0, 0, 0); }svg.railroad-diagram text { font: bold 12px Hack, "Source Code Pro", monospace; text-anchor: middle; fill: #404040; }svg.railroad-diagram text.comment { font: italic 10px Hack, "Source Code Pro", monospace; fill: #404040; }svg.railroad-diagram g.terminal rect { stroke-width: 2; stroke: #404040; fill: rgba(200, 200, 200, 0.8); }svg.railroad-diagram g.non-terminal rect { stroke-width: 2; stroke: #404040; fill: rgba(255, 255, 255, 1); }svg.railroad-diagram text.diagram-text { font-size: 12px Hack, "Source Code Pro", monospace; fill: red; }svg.railroad-diagram path.diagram-text { stroke-width: 1; stroke: red; fill: red; cursor: help; }
 ]]>
</style></defs></svg>